<?xml version="1.0" encoding="utf-8"?>
<!-- Generator: Adobe Illustrator 23.0.2, SVG Export Plug-In . SVG Version: 6.00 Build 0)  -->
<svg version="1.1" id="Layer_1" xmlns="http://www.w3.org/2000/svg" xmlns:xlink="http://www.w3.org/1999/xlink" x="0px" y="0px"
	 viewBox="0 0 50 50" style="enable-background:new 0 0 50 50;" xml:space="preserve">
<style type="text/css">
	.st0{fill-rule:evenodd;clip-rule:evenodd;fill:#3D3D5C;}
	.st1{clip-path:url(#SVGID_2_);}
	.st2{fill:#3D3D5C;}
	.st3{font-family:'AGaramondPro-Regular';}
	.st4{font-size:11.2242px;}
	.st5{clip-path:url(#SVGID_4_);fill-rule:evenodd;clip-rule:evenodd;fill:#3D3D5C;}
	.st6{clip-path:url(#SVGID_4_);}
	.st7{clip-path:url(#SVGID_6_);fill-rule:evenodd;clip-rule:evenodd;fill:#3D3D5C;}
	.st8{clip-path:url(#SVGID_6_);}
	.st9{clip-path:url(#SVGID_8_);fill-rule:evenodd;clip-rule:evenodd;fill:#3D3D5C;}
</style>
<g>
	<polygon class="st0" points="8.6,2 13.9,2 13.9,36.7 8.6,36.7 8.6,2 	"/>
	<polygon class="st0" points="15.3,36.7 15.3,38.7 7.2,38.7 7.2,36.7 15.3,36.7 	"/>
	<g>
		<defs>
			<rect id="SVGID_1_" x="-1" y="2" width="51.9" height="56.4"/>
		</defs>
		<clipPath id="SVGID_2_">
			<use xlink:href="#SVGID_1_"  style="overflow:visible;"/>
		</clipPath>
		<g class="st1">
			<text transform="matrix(1 0 0 1 5.7324 47.8809)"><tspan x="0" y="0" class="st2 st3 st4">M</tspan><tspan x="10.2" y="0" class="st2 st3 st4">A</tspan><tspan x="16.5" y="0" class="st2 st3 st4">THS</tspan></text>
		</g>
	</g>
	<g>
		<defs>
			<polygon id="SVGID_3_" points="-1,58.4 50.9,58.4 50.9,2 -1,2 -1,58.4 			"/>
		</defs>
		<clipPath id="SVGID_4_">
			<use xlink:href="#SVGID_3_"  style="overflow:visible;"/>
		</clipPath>
		<polygon class="st5" points="36.3,38.7 16.7,8.5 16.7,2.3 40.3,38.7 36.3,38.7 		"/>
		<g class="st6">
			<defs>
				<polygon id="SVGID_5_" points="-1,58.4 50.9,58.4 50.9,2 -1,2 -1,58.4 				"/>
			</defs>
			<clipPath id="SVGID_6_">
				<use xlink:href="#SVGID_5_"  style="overflow:visible;"/>
			</clipPath>
			<polygon class="st7" points="36,4 41.3,4 41.3,38.7 36,38.7 36,4 			"/>
			<g class="st8">
				<defs>
					<polygon id="SVGID_7_" points="-1,58.4 50.9,58.4 50.9,2 -1,2 -1,58.4 					"/>
				</defs>
				<clipPath id="SVGID_8_">
					<use xlink:href="#SVGID_7_"  style="overflow:visible;"/>
				</clipPath>
				<polygon class="st9" points="42.7,2 42.7,4 34.6,4 34.6,2 42.7,2 				"/>
			</g>
		</g>
	</g>
</g>
</svg>
