<?xml version="1.0" encoding="utf-8"?>
<!-- Generator: Adobe Illustrator 23.0.2, SVG Export Plug-In . SVG Version: 6.00 Build 0)  -->
<svg version="1.1" id="Layer_1" xmlns="http://www.w3.org/2000/svg" xmlns:xlink="http://www.w3.org/1999/xlink" x="0px" y="0px"
	 viewBox="0 0 50 50" style="enable-background:new 0 0 50 50;" xml:space="preserve">
<style type="text/css">
	.st0{fill-rule:evenodd;clip-rule:evenodd;fill:#03033D;}
	.st1{clip-path:url(#SVGID_2_);}
	.st2{fill:#03033D;}
	.st3{font-family:'AGaramondPro-Regular';}
	.st4{font-size:13.3698px;}
	.st5{clip-path:url(#SVGID_4_);fill-rule:evenodd;clip-rule:evenodd;fill:#03033D;}
	.st6{clip-path:url(#SVGID_4_);}
	.st7{clip-path:url(#SVGID_6_);fill-rule:evenodd;clip-rule:evenodd;fill:#03033D;}
	.st8{clip-path:url(#SVGID_6_);}
	.st9{clip-path:url(#SVGID_8_);fill-rule:evenodd;clip-rule:evenodd;fill:#FFFFFF;}
	.st10{clip-path:url(#SVGID_8_);fill:none;stroke:#FFFFFF;stroke-width:2.907483e-02;stroke-miterlimit:8;}
	.st11{clip-path:url(#SVGID_8_);}
	.st12{clip-path:url(#SVGID_10_);fill-rule:evenodd;clip-rule:evenodd;fill:#03033D;}
</style>
<g>
	<polygon class="st0" points="4.5,4.1 7.5,4.1 7.5,32.9 4.5,32.9 4.5,4.1 	"/>
	<polygon class="st0" points="8.9,32.9 8.9,34.5 3.1,34.5 3.1,32.9 8.9,32.9 	"/>
	<polygon class="st0" points="27.7,5.8 30.8,5.8 30.8,34.5 27.7,34.5 27.7,5.8 	"/>
	<polygon class="st0" points="32.1,4.1 32.1,5.8 26.4,5.8 26.4,4.1 32.1,4.1 	"/>
	<g>
		<defs>
			<rect id="SVGID_1_" x="-5.8" y="4.1" width="61.8" height="53.7"/>
		</defs>
		<clipPath id="SVGID_2_">
			<use xlink:href="#SVGID_1_"  style="overflow:visible;"/>
		</clipPath>
		<g class="st1">
			<text transform="matrix(1 0 0 1 2.2583 45.3447)"><tspan x="0" y="0" class="st2 st3 st4">M</tspan><tspan x="12.2" y="0" class="st2 st3 st4">A</tspan><tspan x="19.6" y="0" class="st2 st3 st4">THS</tspan></text>
		</g>
	</g>
	<g>
		<defs>
			<polygon id="SVGID_3_" points="-5.8,57.8 56,57.8 56,4.1 -5.8,4.1 -5.8,57.8 			"/>
		</defs>
		<clipPath id="SVGID_4_">
			<use xlink:href="#SVGID_3_"  style="overflow:visible;"/>
		</clipPath>
		<polygon class="st5" points="27.4,34.5 11.2,9.5 11.2,4.3 30.8,34.5 27.4,34.5 		"/>
		<g class="st6">
			<defs>
				<polygon id="SVGID_5_" points="-5.8,57.8 56,57.8 56,4.1 -5.8,4.1 -5.8,57.8 				"/>
			</defs>
			<clipPath id="SVGID_6_">
				<use xlink:href="#SVGID_5_"  style="overflow:visible;"/>
			</clipPath>
			<path class="st7" d="M32.6,29.2c0-2.9,2.3-5.2,5.2-5.2s5.2,2.3,5.2,5.2s-2.3,5.2-5.2,5.2S32.6,32,32.6,29.2L32.6,29.2z"/>
			<g class="st8">
				<defs>
					<polygon id="SVGID_7_" points="-5.8,57.8 56,57.8 56,4.1 -5.8,4.1 -5.8,57.8 					"/>
				</defs>
				<clipPath id="SVGID_8_">
					<use xlink:href="#SVGID_7_"  style="overflow:visible;"/>
				</clipPath>
				<path class="st9" d="M43.1,29.8c-0.1,2.2-2,4-4.3,3.9c-2.3-0.1-4.1-1.8-4.1-4L43.1,29.8z"/>
				<path class="st10" d="M43.1,29.8c-0.1,2.2-2,4-4.3,3.9c-2.3-0.1-4.1-1.8-4.1-4L43.1,29.8z"/>
				<g class="st11">
					<defs>
						<polygon id="SVGID_9_" points="-5.8,57.8 56,57.8 56,4.1 -5.8,4.1 -5.8,57.8 						"/>
					</defs>
					<clipPath id="SVGID_10_">
						<use xlink:href="#SVGID_9_"  style="overflow:visible;"/>
					</clipPath>
					<polygon class="st12" points="44.9,18.4 46.2,18.4 46.2,34.5 44.9,34.5 44.9,18.4 					"/>
				</g>
			</g>
		</g>
	</g>
</g>
</svg>
