<?xml version="1.0" encoding="utf-8"?>
<!-- Generator: Adobe Illustrator 23.0.2, SVG Export Plug-In . SVG Version: 6.00 Build 0)  -->
<svg version="1.1" id="Layer_1" xmlns="http://www.w3.org/2000/svg" xmlns:xlink="http://www.w3.org/1999/xlink" x="0px" y="0px"
	 viewBox="0 0 200 200" style="enable-background:new 0 0 200 200;" xml:space="preserve">
<style type="text/css">
	.st0{fill:none;stroke:#000000;stroke-width:1.0802;stroke-miterlimit:8;stroke-dasharray:5.9295,4.9413;}
	.st1{clip-path:url(#SVGID_2_);fill:none;stroke:#000000;stroke-width:1.0802;stroke-miterlimit:8;stroke-dasharray:5.9295,4.9413;}
	.st2{clip-path:url(#SVGID_2_);}
	
		.st3{clip-path:url(#SVGID_4_);fill:none;stroke:#000000;stroke-width:1.0802;stroke-miterlimit:8;stroke-dasharray:41156.2539,13718.751;}
	.st4{clip-path:url(#SVGID_4_);}
	
		.st5{clip-path:url(#SVGID_6_);fill:none;stroke:#000000;stroke-width:1.0802;stroke-miterlimit:8;stroke-dasharray:41156.2539,13718.751;}
	.st6{clip-path:url(#SVGID_6_);}
	.st7{clip-path:url(#SVGID_8_);fill:none;stroke:#000000;stroke-width:1.0802;stroke-miterlimit:8;}
	.st8{clip-path:url(#SVGID_8_);fill-rule:evenodd;clip-rule:evenodd;}
	.st9{clip-path:url(#SVGID_8_);}
	.st10{clip-path:url(#SVGID_10_);fill:none;stroke:#000000;stroke-width:1.0802;stroke-miterlimit:8;}
	.st11{clip-path:url(#SVGID_10_);fill-rule:evenodd;clip-rule:evenodd;}
	.st12{clip-path:url(#SVGID_10_);}
	.st13{clip-path:url(#SVGID_12_);fill-rule:evenodd;clip-rule:evenodd;}
	.st14{clip-path:url(#SVGID_12_);}
	.st15{clip-path:url(#SVGID_14_);fill-rule:evenodd;clip-rule:evenodd;}
	.st16{clip-path:url(#SVGID_14_);}
	.st17{clip-path:url(#SVGID_16_);fill-rule:evenodd;clip-rule:evenodd;}
	.st18{clip-path:url(#SVGID_16_);}
	.st19{clip-path:url(#SVGID_18_);fill-rule:evenodd;clip-rule:evenodd;}
	.st20{clip-path:url(#SVGID_18_);}
	.st21{clip-path:url(#SVGID_20_);fill-rule:evenodd;clip-rule:evenodd;}
	.st22{clip-path:url(#SVGID_20_);}
	.st23{clip-path:url(#SVGID_22_);fill-rule:evenodd;clip-rule:evenodd;}
	.st24{clip-path:url(#SVGID_22_);}
	.st25{clip-path:url(#SVGID_24_);fill-rule:evenodd;clip-rule:evenodd;}
	.st26{clip-path:url(#SVGID_24_);}
	.st27{clip-path:url(#SVGID_26_);fill:none;stroke:#000000;stroke-width:1.0802;stroke-miterlimit:8;}
	.st28{clip-path:url(#SVGID_26_);}
	.st29{clip-path:url(#SVGID_28_);fill-rule:evenodd;clip-rule:evenodd;}
	.st30{clip-path:url(#SVGID_28_);}
	.st31{clip-path:url(#SVGID_30_);fill-rule:evenodd;clip-rule:evenodd;}
	.st32{clip-path:url(#SVGID_30_);}
	.st33{clip-path:url(#SVGID_32_);fill-rule:evenodd;clip-rule:evenodd;}
	.st34{clip-path:url(#SVGID_32_);}
	.st35{clip-path:url(#SVGID_34_);fill-rule:evenodd;clip-rule:evenodd;}
	.st36{clip-path:url(#SVGID_34_);}
	.st37{clip-path:url(#SVGID_36_);fill-rule:evenodd;clip-rule:evenodd;}
	.st38{clip-path:url(#SVGID_36_);}
	.st39{clip-path:url(#SVGID_38_);fill-rule:evenodd;clip-rule:evenodd;}
	.st40{clip-path:url(#SVGID_38_);}
	.st41{clip-path:url(#SVGID_40_);fill-rule:evenodd;clip-rule:evenodd;}
	.st42{clip-path:url(#SVGID_40_);fill:none;stroke:#0303C3;stroke-width:0.3601;stroke-miterlimit:8;}
	.st43{clip-path:url(#SVGID_40_);}
	.st44{clip-path:url(#SVGID_42_);fill-rule:evenodd;clip-rule:evenodd;}
	.st45{clip-path:url(#SVGID_42_);}
	.st46{clip-path:url(#SVGID_44_);fill-rule:evenodd;clip-rule:evenodd;}
	.st47{clip-path:url(#SVGID_44_);}
	.st48{clip-path:url(#SVGID_46_);fill-rule:evenodd;clip-rule:evenodd;}
	.st49{clip-path:url(#SVGID_46_);}
	.st50{clip-path:url(#SVGID_48_);fill-rule:evenodd;clip-rule:evenodd;}
	.st51{clip-path:url(#SVGID_48_);}
	.st52{clip-path:url(#SVGID_50_);fill-rule:evenodd;clip-rule:evenodd;}
	.st53{clip-path:url(#SVGID_50_);}
	.st54{clip-path:url(#SVGID_52_);fill-rule:evenodd;clip-rule:evenodd;}
	.st55{clip-path:url(#SVGID_52_);}
	.st56{clip-path:url(#SVGID_54_);fill:none;stroke:#000000;stroke-width:1.0802;stroke-miterlimit:8;}
	.st57{fill:none;stroke:#000000;stroke-width:0.8102;stroke-miterlimit:8;}
	.st58{clip-path:url(#SVGID_56_);fill-rule:evenodd;clip-rule:evenodd;}
	.st59{fill-rule:evenodd;clip-rule:evenodd;}
</style>
<g>
	<line class="st0" x1="129.2" y1="63.3" x2="129.2" y2="159.7"/>
	<g>
		<defs>
			<polygon id="SVGID_1_" points="6.5,187.4 202,187.4 202,13.8 6.5,13.8 6.5,187.4 			"/>
		</defs>
		<clipPath id="SVGID_2_">
			<use xlink:href="#SVGID_1_"  style="overflow:visible;"/>
		</clipPath>
		<line class="st1" x1="129.1" y1="60.8" x2="30.6" y2="60.8"/>
		<g class="st2">
			<defs>
				<polygon id="SVGID_3_" points="6.5,187.4 202,187.4 202,13.8 6.5,13.8 6.5,187.4 				"/>
			</defs>
			<clipPath id="SVGID_4_">
				<use xlink:href="#SVGID_3_"  style="overflow:visible;"/>
			</clipPath>
			<line class="st3" x1="84.1" y1="92.9" x2="83.6" y2="159.7"/>
			<g class="st4">
				<defs>
					<polygon id="SVGID_5_" points="6.5,187.4 202,187.4 202,13.8 6.5,13.8 6.5,187.4 					"/>
				</defs>
				<clipPath id="SVGID_6_">
					<use xlink:href="#SVGID_5_"  style="overflow:visible;"/>
				</clipPath>
				<line class="st5" x1="83.6" y1="89.2" x2="30.6" y2="89.2"/>
				<g class="st6">
					<defs>
						<polygon id="SVGID_7_" points="6.5,187.4 202,187.4 202,13.8 6.5,13.8 6.5,187.4 						"/>
					</defs>
					<clipPath id="SVGID_8_">
						<use xlink:href="#SVGID_7_"  style="overflow:visible;"/>
					</clipPath>
					<line class="st7" x1="22.1" y1="159.9" x2="190.4" y2="159.9"/>
					<polygon class="st8" points="189.8,158.3 193.1,159.9 189.8,161.5 189.8,158.3 					"/>
					<g class="st9">
						<defs>
							<polygon id="SVGID_9_" points="6.5,187.4 202,187.4 202,13.8 6.5,13.8 6.5,187.4 							"/>
						</defs>
						<clipPath id="SVGID_10_">
							<use xlink:href="#SVGID_9_"  style="overflow:visible;"/>
						</clipPath>
						<line class="st10" x1="30.3" y1="168.4" x2="30.3" y2="27.8"/>
						<polygon class="st11" points="31.9,28.3 30.3,25.1 28.7,28.3 31.9,28.3 						"/>
						<g class="st12">
							<defs>
								<polygon id="SVGID_11_" points="6.5,187.4 202,187.4 202,13.8 6.5,13.8 6.5,187.4 								"/>
							</defs>
							<clipPath id="SVGID_12_">
								<use xlink:href="#SVGID_11_"  style="overflow:visible;"/>
							</clipPath>
							<path class="st13" d="M21.5,21.1c0.2,0,0.3,0,0.4,0.1c0.1,0,0.2,0.1,0.3,0.2c0.1,0.1,0.2,0.2,0.2,0.3
								c0.1,0.1,0.1,0.3,0.2,0.5c0,0.2,0.1,0.4,0.2,0.7c0.1,0.5,0.2,1.1,0.3,1.7c0.1,0.6,0.2,1.2,0.2,1.7c0.4-0.6,0.8-1.2,1-1.7
								s0.5-1.1,0.6-1.5c0.1-0.4,0.2-0.8,0.2-1c0-0.2,0-0.3-0.1-0.4c-0.1-0.1-0.2-0.1-0.4-0.1l0.1-0.3h1.7l0.2,0.3
								c-0.3,0.9-0.8,1.8-1.3,2.8c-0.5,1-1.2,2-1.9,2.9c-0.7,0.9-1.2,1.6-1.7,2c-0.3,0.3-0.6,0.5-0.9,0.6C20.6,30,20.3,30,20.1,30
								c-0.1,0-0.2,0-0.3,0s-0.2,0-0.3-0.1l0.3-1.2h0.5c0,0.3,0.1,0.4,0.3,0.4c0.2,0,0.5-0.2,0.9-0.5c0.3-0.3,0.7-0.8,1.1-1.4
								c-0.1-0.7-0.3-1.6-0.5-2.7c-0.2-1.1-0.4-1.8-0.4-2.1c-0.1-0.3-0.2-0.5-0.3-0.6c-0.1-0.1-0.1-0.1-0.2-0.1
								c-0.1,0-0.3,0.1-0.4,0.2c-0.1,0.1-0.3,0.3-0.4,0.6l-0.4-0.3c0.3-0.4,0.6-0.7,0.8-0.9S21.2,21.1,21.5,21.1L21.5,21.1z"/>
							<g class="st14">
								<defs>
									<polygon id="SVGID_13_" points="6.5,187.4 202,187.4 202,13.8 6.5,13.8 6.5,187.4 									"/>
								</defs>
								<clipPath id="SVGID_14_">
									<use xlink:href="#SVGID_13_"  style="overflow:visible;"/>
								</clipPath>
								<path class="st15" d="M191.6,164c0.1,0,0.2,0,0.3,0c0.1,0,0.2,0.1,0.3,0.1c0.1,0.1,0.1,0.1,0.2,0.2c0.1,0.1,0.1,0.2,0.2,0.4
									s0.1,0.4,0.2,0.6c0,0.2,0.1,0.5,0.1,0.8h0.1c0.4-0.6,0.7-1,0.9-1.3c0.2-0.3,0.4-0.5,0.5-0.6s0.3-0.2,0.4-0.3
									c0.1-0.1,0.3-0.1,0.5-0.1c0.2,0,0.4,0,0.5,0.1l-0.3,1.1h-0.4c0-0.2-0.1-0.3-0.2-0.3c0,0-0.1,0-0.1,0c0,0-0.1,0-0.2,0.1
									c-0.1,0-0.2,0.1-0.3,0.2c-0.1,0.1-0.3,0.3-0.4,0.4c-0.1,0.2-0.3,0.4-0.5,0.6l-0.4,0.5c0.1,0.4,0.1,0.8,0.2,1.1
									c0.1,0.3,0.1,0.5,0.2,0.7s0.1,0.4,0.1,0.5c0,0.1,0.1,0.2,0.1,0.3s0.1,0.1,0.1,0.1c0,0,0.1,0,0.2,0c0.1,0,0.2,0,0.3-0.1
									c0.1-0.1,0.3-0.3,0.5-0.6l0.4,0.3c-0.3,0.4-0.6,0.7-0.8,0.9c-0.2,0.2-0.5,0.3-0.9,0.3c-0.2,0-0.3,0-0.5-0.1
									c-0.1-0.1-0.2-0.2-0.3-0.3s-0.2-0.4-0.2-0.7c-0.1-0.5-0.2-1-0.2-1.2h-0.1c-0.4,0.6-0.8,1.1-1,1.4c-0.2,0.3-0.4,0.5-0.5,0.6
									c-0.1,0.1-0.3,0.2-0.4,0.3s-0.3,0.1-0.5,0.1c-0.2,0-0.4,0-0.5-0.1l0.3-1.1h0.4c0,0.2,0.1,0.3,0.2,0.3c0.1,0,0.1,0,0.2,0
									c0.1,0,0.2-0.1,0.3-0.2c0.1-0.1,0.3-0.3,0.5-0.6c0.2-0.3,0.5-0.6,0.9-1.2c-0.1-0.3-0.1-0.7-0.2-1c-0.1-0.3-0.1-0.6-0.2-0.9
									s-0.1-0.4-0.2-0.5c0-0.1-0.1-0.1-0.1-0.2c-0.1,0-0.1,0-0.2,0c-0.1,0-0.2,0-0.2,0.1c-0.1,0-0.1,0.1-0.2,0.2s-0.2,0.3-0.3,0.5
									l-0.4-0.3c0.3-0.4,0.5-0.7,0.8-0.9C190.9,164.1,191.2,164,191.6,164L191.6,164z"/>
								<g class="st16">
									<defs>
										<polygon id="SVGID_15_" points="6.5,187.4 202,187.4 202,13.8 6.5,13.8 6.5,187.4 										"/>
									</defs>
									<clipPath id="SVGID_16_">
										<use xlink:href="#SVGID_15_"  style="overflow:visible;"/>
									</clipPath>
									<path class="st17" d="M23.6,164.5c-0.4,0-0.8,0.2-1.1,0.6c-0.3,0.4-0.6,0.9-0.8,1.6c-0.2,0.7-0.3,1.3-0.3,1.8
										c0,0.5,0.1,0.8,0.3,1s0.5,0.3,0.9,0.3c0.4,0,0.8-0.2,1.1-0.6c0.3-0.4,0.6-0.9,0.8-1.6c0.2-0.7,0.3-1.3,0.3-1.8
										c0-0.5-0.1-0.8-0.3-1C24.3,164.6,24,164.5,23.6,164.5L23.6,164.5z M23.7,164c0.7,0,1.2,0.2,1.5,0.6
										c0.4,0.4,0.5,0.9,0.5,1.6c0,0.5-0.1,1-0.3,1.6c-0.2,0.6-0.4,1-0.7,1.4c-0.3,0.4-0.7,0.7-1.1,0.9c-0.4,0.2-0.9,0.3-1.4,0.3
										c-0.7,0-1.2-0.2-1.5-0.6c-0.4-0.4-0.5-0.9-0.5-1.6c0-0.3,0.1-0.7,0.2-1.2c0.1-0.6,0.4-1.1,0.7-1.6c0.3-0.4,0.7-0.8,1.1-1
										S23.2,164,23.7,164L23.7,164z"/>
									<g class="st18">
										<defs>
											<polygon id="SVGID_17_" points="6.5,187.4 202,187.4 202,13.8 6.5,13.8 6.5,187.4 											"/>
										</defs>
										<clipPath id="SVGID_18_">
											<use xlink:href="#SVGID_17_"  style="overflow:visible;"/>
										</clipPath>
										<path class="st19" d="M49.7,181.5c-0.2,0-0.4,0.1-0.6,0.3s-0.3,0.5-0.5,0.9c0.3,0,0.6,0,0.8-0.1c0.2-0.1,0.4-0.1,0.5-0.2
											c0.1-0.1,0.2-0.3,0.2-0.5c0-0.1,0-0.2-0.1-0.3C49.9,181.5,49.8,181.5,49.7,181.5L49.7,181.5z M39.3,181.5
											c-0.2,0-0.4,0.1-0.6,0.3s-0.3,0.4-0.4,0.7c-0.1,0.3-0.1,0.6-0.1,0.9c0,0.2,0,0.4,0.1,0.5c0.1,0.1,0.2,0.2,0.3,0.2
											c0.1,0,0.2,0,0.3-0.1c0.1-0.1,0.2-0.2,0.3-0.4c0.1-0.2,0.2-0.3,0.3-0.5s0.1-0.3,0.2-0.5c0-0.2,0.1-0.4,0.1-0.6
											c0-0.2,0-0.3-0.1-0.4C39.6,181.5,39.5,181.5,39.3,181.5L39.3,181.5z M36.2,181.2h0.2l-0.5,2c0,0.2-0.1,0.4-0.1,0.5
											c0,0.1,0,0.1,0,0.2c0,0,0.1,0.1,0.1,0.1c0.1,0,0.1,0,0.2-0.1c0.1-0.1,0.2-0.2,0.3-0.3l0.2,0.2c-0.2,0.2-0.4,0.4-0.5,0.4
											s-0.3,0.1-0.4,0.1c-0.1,0-0.2-0.1-0.3-0.2s-0.1-0.2-0.1-0.4c0-0.2,0-0.4,0.1-0.6l0.2-1c0-0.2,0.1-0.4,0.1-0.5
											c0-0.1,0-0.2-0.1-0.2s-0.1-0.1-0.3-0.1l0-0.2L36.2,181.2L36.2,181.2z M49.8,181.2c0.3,0,0.4,0.1,0.6,0.2s0.2,0.3,0.2,0.5
											c0,0.4-0.2,0.6-0.5,0.8s-0.8,0.3-1.5,0.3c0,0.1,0,0.3,0,0.4c0,0.2,0,0.4,0.1,0.5s0.2,0.2,0.4,0.2c0.2,0,0.4,0,0.5-0.1
											c0.2-0.1,0.3-0.2,0.5-0.4l0.2,0.2c-0.2,0.2-0.4,0.4-0.6,0.5c-0.2,0.1-0.5,0.2-0.7,0.2c-0.3,0-0.5-0.1-0.7-0.3
											c-0.2-0.2-0.3-0.4-0.3-0.8c0-0.2,0-0.5,0.1-0.7c0.1-0.3,0.2-0.5,0.4-0.7c0.2-0.2,0.4-0.4,0.6-0.5
											C49.3,181.3,49.6,181.2,49.8,181.2L49.8,181.2z M45.6,181.2c0.1,0,0.2,0,0.3,0.1c0.1,0.1,0.1,0.2,0.1,0.3
											c0,0.1,0,0.2-0.1,0.3l0,0c0.2-0.3,0.4-0.5,0.6-0.6c0.2-0.1,0.4-0.2,0.6-0.2c0.2,0,0.3,0,0.4,0l-0.2,0.7h-0.3
											c0-0.1,0-0.2-0.1-0.2s-0.1-0.1-0.1-0.1c0,0-0.1,0-0.1,0c-0.1,0-0.2,0-0.2,0.1s-0.2,0.2-0.3,0.3c-0.1,0.1-0.2,0.3-0.3,0.4
											c-0.1,0.1-0.1,0.3-0.2,0.5l-0.3,1.4H45l0.5-2c0-0.1,0-0.2,0.1-0.3s0-0.1,0-0.2c0-0.1,0-0.1,0-0.2c0,0-0.1-0.1-0.1-0.1
											c-0.1,0-0.1,0-0.2,0.1c-0.1,0.1-0.2,0.2-0.3,0.3l-0.2-0.2c0.2-0.2,0.4-0.3,0.5-0.4C45.3,181.3,45.5,181.2,45.6,181.2
											L45.6,181.2z M41.9,181.2c0.1,0,0.2,0,0.3,0.1c0.1,0.1,0.1,0.2,0.1,0.4c0,0.2,0,0.4-0.1,0.6l-0.1,0.5
											c0,0.1-0.1,0.2-0.1,0.3s0,0.1,0,0.2s0,0.1,0,0.1c0,0.1,0,0.3,0.1,0.3c0,0.1,0.1,0.1,0.2,0.1c0.1,0,0.2,0,0.3-0.1
											s0.2-0.2,0.3-0.3c0.1-0.1,0.2-0.3,0.3-0.4c0.1-0.1,0.1-0.3,0.2-0.5l0.3-1.4h0.5l-0.5,2c0,0.2-0.1,0.4-0.1,0.5
											c0,0.1,0,0.1,0,0.2s0.1,0.1,0.1,0.1c0.1,0,0.1,0,0.2-0.1c0.1-0.1,0.2-0.2,0.3-0.3l0.2,0.2c-0.2,0.2-0.4,0.3-0.5,0.4
											c-0.1,0.1-0.3,0.1-0.4,0.1c-0.1,0-0.2,0-0.3-0.1c-0.1-0.1-0.1-0.2-0.1-0.3c0-0.1,0-0.2,0.1-0.4l0,0
											c-0.2,0.3-0.4,0.5-0.6,0.6c-0.2,0.1-0.4,0.2-0.6,0.2c-0.2,0-0.3-0.1-0.5-0.2c-0.1-0.1-0.2-0.3-0.2-0.5
											c0-0.1,0-0.3,0.1-0.6l0.2-0.8c0.1-0.2,0.1-0.4,0.1-0.5c0-0.1,0-0.1,0-0.2s-0.1-0.1-0.1-0.1c-0.1,0-0.1,0-0.2,0.1
											c-0.1,0.1-0.2,0.2-0.3,0.3l-0.2-0.2c0.2-0.2,0.3-0.3,0.4-0.4c0.1-0.1,0.2-0.1,0.3-0.1C41.7,181.2,41.8,181.2,41.9,181.2
											L41.9,181.2z M39.3,181.2c0.1,0,0.3,0,0.4,0s0.2,0.1,0.4,0.2l0.3-0.2l0.2,0.1l-0.3,1.5c0,0.1-0.1,0.4-0.2,0.8
											c-0.1,0.4-0.2,0.8-0.2,0.9c-0.1,0.2-0.1,0.4-0.2,0.5s-0.2,0.3-0.3,0.4c-0.1,0.1-0.3,0.2-0.5,0.3s-0.4,0.1-0.6,0.1
											c-0.8,0-1.2-0.2-1.2-0.7c0-0.1,0-0.2,0.1-0.3c0.1-0.1,0.2-0.2,0.3-0.3l0.2,0.2c0,0-0.1,0.1-0.1,0.1c0,0,0,0.1-0.1,0.1
											c0,0,0,0.1,0,0.2c0,0.2,0.1,0.3,0.2,0.3c0.1,0.1,0.3,0.1,0.5,0.1c0.3,0,0.5-0.1,0.6-0.2c0.2-0.1,0.3-0.3,0.4-0.6
											c0.1-0.3,0.2-0.7,0.3-1.2l0,0c-0.2,0.3-0.4,0.5-0.6,0.6c-0.2,0.1-0.4,0.2-0.6,0.2c-0.2,0-0.4-0.1-0.5-0.3
											c-0.1-0.2-0.2-0.4-0.2-0.7c0-0.4,0.1-0.7,0.2-1s0.3-0.6,0.6-0.8C38.7,181.3,39,181.2,39.3,181.2L39.3,181.2z M36.1,180
											h0.6l-0.1,0.6h-0.6L36.1,180L36.1,180z M34.3,179.7c0.2,0,0.4,0,0.5,0.1l-0.1,0.5h-0.3c0-0.1-0.1-0.2-0.1-0.3
											c0-0.1-0.1-0.1-0.2-0.1c-0.1,0-0.2,0-0.3,0.1c-0.1,0.1-0.2,0.2-0.2,0.3c-0.1,0.1-0.1,0.3-0.2,0.5l-0.1,0.3h0.8l-0.1,0.3
											h-0.8l-0.6,2.8c-0.1,0.5-0.2,0.8-0.4,1c-0.2,0.2-0.5,0.3-0.8,0.3c-0.1,0-0.2,0-0.2,0l0.1-0.3c0,0,0.1,0,0.1,0
											c0.1,0,0.2,0,0.2-0.1c0.1,0,0.1-0.1,0.2-0.3s0.1-0.3,0.2-0.5l0.7-3h-0.5l0-0.2c0.1,0,0.2,0,0.3,0c0.1,0,0.1,0,0.1-0.1
											c0,0,0.1-0.1,0.1-0.1c0,0,0.1-0.1,0.1-0.3c0.1-0.4,0.3-0.7,0.5-0.9C33.6,179.8,33.9,179.7,34.3,179.7L34.3,179.7z"/>
										<g class="st20">
											<defs>
												<polygon id="SVGID_19_" points="6.5,187.4 202,187.4 202,13.8 6.5,13.8 6.5,187.4 												"/>
											</defs>
											<clipPath id="SVGID_20_">
												<use xlink:href="#SVGID_19_"  style="overflow:visible;"/>
											</clipPath>
											<path class="st21" d="M55,179.7l0.1,0.2c-0.5,0.2-0.9,0.5-1.1,1c-0.2,0.5-0.4,1.1-0.4,1.8c0,0.7,0.1,1.3,0.4,1.8
												c0.2,0.5,0.6,0.8,1.1,1l-0.1,0.2c-0.6-0.2-1.1-0.5-1.4-1s-0.5-1.2-0.5-2c0-0.8,0.2-1.4,0.5-2
												C53.9,180.2,54.4,179.9,55,179.7L55,179.7z"/>
											<g class="st22">
												<defs>
													<polygon id="SVGID_21_" points="6.5,187.4 202,187.4 202,13.8 6.5,13.8 6.5,187.4 													"/>
												</defs>
												<clipPath id="SVGID_22_">
													<use xlink:href="#SVGID_21_"  style="overflow:visible;"/>
												</clipPath>
												<path class="st23" d="M60.6,182.2c-0.2,0-0.3,0-0.4,0.1c-0.1,0-0.2,0.1-0.3,0.2c-0.1,0.1-0.1,0.2-0.1,0.3
													c0,0.1,0,0.2,0,0.4c0,0.1,0,0.3,0,0.4s0.1,0.2,0.2,0.3s0.2,0.2,0.3,0.2c0.1,0.1,0.2,0.1,0.4,0.1c0.2,0,0.3,0,0.4-0.1
													c0.1-0.1,0.2-0.2,0.3-0.3c0.1-0.1,0.1-0.3,0.1-0.5c0-0.2,0-0.4-0.1-0.5c-0.1-0.1-0.2-0.3-0.3-0.3
													C60.9,182.2,60.8,182.2,60.6,182.2L60.6,182.2z M60.6,180.2c-0.3,0-0.5,0.1-0.6,0.2c-0.1,0.1-0.2,0.3-0.2,0.6
													c0,0.1,0,0.2,0,0.4s0.1,0.2,0.1,0.3c0.1,0.1,0.2,0.1,0.3,0.2s0.2,0.1,0.4,0.1c0.2,0,0.3,0,0.4-0.1
													c0.1-0.1,0.2-0.2,0.3-0.3c0.1-0.1,0.1-0.3,0.1-0.5c0-0.2,0-0.4-0.1-0.5c-0.1-0.1-0.2-0.2-0.3-0.3
													C60.9,180.2,60.8,180.2,60.6,180.2L60.6,180.2z M57,180.2c-0.1,0-0.3,0-0.4,0.1c-0.1,0.1-0.2,0.2-0.2,0.4
													c-0.1,0.2-0.1,0.4-0.1,0.6c0,0.2,0,0.5,0,0.8c0,0.7,0.1,1.2,0.2,1.5s0.3,0.5,0.6,0.5c0.3,0,0.4-0.2,0.6-0.5
													c0.1-0.3,0.2-0.8,0.2-1.4c0-0.5,0-0.9-0.1-1.2s-0.2-0.5-0.3-0.6C57.3,180.3,57.2,180.2,57,180.2L57,180.2z M60.6,179.9
													c0.3,0,0.6,0,0.8,0.1c0.2,0.1,0.4,0.2,0.5,0.4c0.1,0.2,0.2,0.4,0.2,0.6c0,0.2-0.1,0.4-0.2,0.6s-0.3,0.3-0.5,0.4l0,0
													c0.2,0.1,0.4,0.2,0.5,0.4c0.1,0.2,0.2,0.4,0.2,0.6c0,0.2-0.1,0.5-0.2,0.7s-0.3,0.3-0.5,0.4s-0.5,0.2-0.8,0.2
													c-0.3,0-0.5,0-0.7-0.1c-0.2-0.1-0.4-0.2-0.5-0.4c-0.1-0.2-0.2-0.4-0.2-0.6c0-0.2,0-0.3,0.1-0.5s0.1-0.2,0.2-0.3
													c0.1-0.1,0.2-0.2,0.4-0.2l0,0c-0.5-0.2-0.7-0.5-0.7-1c0-0.2,0.1-0.4,0.2-0.6c0.1-0.2,0.3-0.3,0.5-0.4
													S60.3,179.9,60.6,179.9L60.6,179.9z M57,179.9c0.5,0,0.8,0.2,1,0.5c0.2,0.4,0.3,0.9,0.3,1.6c0,0.7-0.1,1.3-0.4,1.7
													c-0.2,0.4-0.6,0.6-1.1,0.6c-0.5,0-0.8-0.2-1-0.5c-0.2-0.4-0.3-0.9-0.3-1.6c0-0.4,0-0.7,0.1-1c0.1-0.3,0.2-0.5,0.3-0.7
													c0.1-0.2,0.3-0.3,0.4-0.4C56.6,180,56.8,179.9,57,179.9L57,179.9z"/>
												<g class="st24">
													<defs>
														<polygon id="SVGID_23_" points="6.5,187.4 202,187.4 202,13.8 6.5,13.8 6.5,187.4 														"/>
													</defs>
													<clipPath id="SVGID_24_">
														<use xlink:href="#SVGID_23_"  style="overflow:visible;"/>
													</clipPath>
													<path class="st25" d="M62.6,179.7c0.6,0.2,1.1,0.5,1.4,1.1s0.5,1.2,0.5,2c0,0.8-0.2,1.4-0.5,2c-0.3,0.5-0.8,0.9-1.4,1
														l-0.1-0.2c0.5-0.2,0.8-0.5,1.1-1c0.2-0.5,0.4-1.1,0.4-1.8c0-0.7-0.1-1.3-0.4-1.8s-0.6-0.8-1.1-1L62.6,179.7z"/>
													<g class="st26">
														<defs>
															<polygon id="SVGID_25_" points="6.5,187.4 202,187.4 202,13.8 6.5,13.8 6.5,187.4 															"/>
														</defs>
														<clipPath id="SVGID_26_">
															<use xlink:href="#SVGID_25_"  style="overflow:visible;"/>
														</clipPath>
														<path class="st27" d="M50.1,152.4c4.9-2.2,9.7-4.3,15.4-14.9c5.7-10.5,9.2-35.9,18.6-48.4
															c9.4-12.4,23.5-21.2,37.8-26.2c14.4-5,48.4-4.1,48.4-4.1l0,0l0,0"/>
														<g class="st28">
															<defs>
																<polygon id="SVGID_27_" points="6.5,187.4 202,187.4 202,13.8 6.5,13.8 6.5,187.4 																"/>
															</defs>
															<clipPath id="SVGID_28_">
																<use xlink:href="#SVGID_27_"  style="overflow:visible;"/>
															</clipPath>
															<path class="st29" d="M80.2,89.1c0-2.1,1.7-3.8,3.8-3.8c2.1,0,3.8,1.7,3.8,3.8c0,2.1-1.7,3.8-3.8,3.8
																C81.9,92.9,80.2,91.2,80.2,89.1L80.2,89.1z"/>
															<g class="st30">
																<defs>
																	<polygon id="SVGID_29_" points="6.5,187.4 202,187.4 202,13.8 6.5,13.8 6.5,187.4 																	"/>
																</defs>
																<clipPath id="SVGID_30_">
																	<use xlink:href="#SVGID_29_"  style="overflow:visible;"/>
																</clipPath>
																<path class="st31" d="M13.2,84.3c0.3,0,0.5,0,0.7,0.1L13.8,85h-0.4c0-0.2-0.1-0.3-0.2-0.3c-0.1-0.1-0.2-0.1-0.3-0.1
																	c-0.2,0-0.3,0-0.4,0.1c-0.1,0.1-0.2,0.2-0.3,0.4c-0.1,0.2-0.2,0.4-0.2,0.7L12,86.3H13L13,86.7h-1.1l-0.8,3.7
																	c-0.1,0.6-0.3,1.1-0.6,1.4c-0.3,0.3-0.6,0.4-1,0.4c-0.1,0-0.2,0-0.3,0l0.1-0.4c0,0,0.1,0,0.2,0c0.1,0,0.2,0,0.3-0.1
																	c0.1-0.1,0.2-0.2,0.3-0.3c0.1-0.2,0.1-0.4,0.2-0.7l0.9-4h-0.7l0.1-0.3c0.2,0,0.3,0,0.4,0c0.1,0,0.1,0,0.2-0.1
																	c0,0,0.1-0.1,0.1-0.2c0-0.1,0.1-0.2,0.1-0.3c0.1-0.5,0.4-0.9,0.7-1.1S12.8,84.3,13.2,84.3L13.2,84.3z"/>
																<g class="st32">
																	<defs>
																		<polygon id="SVGID_31_" points="6.5,187.4 202,187.4 202,13.8 6.5,13.8 6.5,187.4 																		"/>
																	</defs>
																	<clipPath id="SVGID_32_">
																		<use xlink:href="#SVGID_31_"  style="overflow:visible;"/>
																	</clipPath>
																	<path class="st33" d="M17.6,84.2l0.1,0.3c-0.7,0.2-1.1,0.6-1.5,1.3c-0.3,0.6-0.5,1.4-0.5,2.4c0,1,0.2,1.8,0.5,2.4
																		c0.3,0.6,0.8,1.1,1.4,1.3l-0.1,0.3c-0.8-0.2-1.5-0.7-1.9-1.4c-0.4-0.7-0.7-1.6-0.7-2.6c0-1,0.2-1.9,0.7-2.6
																		C16.1,84.9,16.8,84.4,17.6,84.2L17.6,84.2z"/>
																	<g class="st34">
																		<defs>
																			<polygon id="SVGID_33_" points="6.5,187.4 202,187.4 202,13.8 6.5,13.8 6.5,187.4 																			"/>
																		</defs>
																		<clipPath id="SVGID_34_">
																			<use xlink:href="#SVGID_33_"  style="overflow:visible;"/>
																		</clipPath>
																		<path class="st35" d="M20.6,86.5c-0.3,0-0.5,0.1-0.8,0.4c-0.2,0.2-0.4,0.5-0.5,0.9C19.1,88.2,19,88.6,19,89
																			c0,0.3,0,0.5,0.1,0.7c0.1,0.1,0.2,0.2,0.4,0.2c0.2,0,0.4-0.1,0.5-0.2c0.2-0.2,0.4-0.4,0.6-0.7
																			c0.2-0.3,0.3-0.6,0.4-1l0-0.2c0-0.1,0-0.2,0.1-0.3c0-0.1,0-0.2,0-0.3c0-0.2,0-0.4-0.1-0.5
																			C20.9,86.6,20.8,86.5,20.6,86.5L20.6,86.5z M20.5,86.2c0.2,0,0.4,0,0.5,0.1c0.2,0,0.3,0.1,0.5,0.2l0.4-0.3
																			l0.3,0.1L21.5,89c-0.1,0.3-0.1,0.5-0.1,0.6c0,0.1,0,0.2,0.1,0.2c0,0.1,0.1,0.1,0.2,0.1c0.1,0,0.2,0,0.3-0.1
																			c0.1-0.1,0.2-0.2,0.4-0.4l0.2,0.2c-0.3,0.3-0.5,0.5-0.6,0.6c-0.2,0.1-0.4,0.2-0.6,0.2c-0.2,0-0.3-0.1-0.4-0.2
																			s-0.2-0.3-0.2-0.5c0-0.2,0-0.3,0.1-0.5l-0.1,0c-0.3,0.4-0.5,0.7-0.8,0.9c-0.2,0.2-0.5,0.3-0.8,0.3
																			c-0.3,0-0.5-0.1-0.7-0.4s-0.3-0.6-0.3-1c0-0.5,0.1-0.9,0.3-1.4c0.2-0.4,0.5-0.8,0.8-1.1S20.1,86.2,20.5,86.2
																			L20.5,86.2z"/>
																		<g class="st36">
																			<defs>
																				<polygon id="SVGID_35_" points="6.5,187.4 202,187.4 202,13.8 6.5,13.8 6.5,187.4 																				"/>
																			</defs>
																			<clipPath id="SVGID_36_">
																				<use xlink:href="#SVGID_35_"  style="overflow:visible;"/>
																			</clipPath>
																			<path class="st37" d="M23.2,84.2c0.8,0.2,1.5,0.7,1.9,1.4c0.4,0.7,0.7,1.6,0.7,2.6c0,1-0.2,1.9-0.7,2.6
																				c-0.4,0.7-1.1,1.2-1.9,1.4l-0.1-0.3c0.6-0.2,1.1-0.6,1.4-1.3s0.5-1.5,0.5-2.4c0-1-0.2-1.7-0.5-2.4
																				c-0.3-0.6-0.8-1.1-1.5-1.3L23.2,84.2z"/>
																			<g class="st38">
																				<defs>
																					<polygon id="SVGID_37_" points="6.5,187.4 202,187.4 202,13.8 6.5,13.8 6.5,187.4 																					"/>
																				</defs>
																				<clipPath id="SVGID_38_">
																					<use xlink:href="#SVGID_37_"  style="overflow:visible;"/>
																				</clipPath>
																				<path class="st39" d="M84.7,163.1c-0.2,0-0.5,0.1-0.7,0.3s-0.3,0.5-0.5,0.8c-0.1,0.3-0.2,0.7-0.2,1
																					c0,0.2,0,0.4,0.1,0.5c0.1,0.1,0.2,0.2,0.3,0.2c0.2,0,0.3-0.1,0.5-0.2c0.1-0.1,0.3-0.3,0.5-0.6
																					c0.2-0.2,0.3-0.5,0.3-0.9l0-0.2c0-0.1,0-0.2,0-0.3c0-0.1,0-0.1,0-0.2c0-0.2,0-0.3-0.1-0.4
																					S84.9,163.1,84.7,163.1L84.7,163.1z M84.6,162.9c0.2,0,0.3,0,0.4,0.1c0.1,0,0.3,0.1,0.4,0.2l0.3-0.2l0.2,0.1
																					l-0.5,2.2c-0.1,0.2-0.1,0.4-0.1,0.5c0,0.1,0,0.2,0,0.2c0,0,0.1,0.1,0.1,0.1c0.1,0,0.1,0,0.2-0.1
																					c0.1-0.1,0.2-0.2,0.3-0.3l0.2,0.2c-0.2,0.2-0.4,0.4-0.5,0.5c-0.1,0.1-0.3,0.1-0.5,0.1c-0.1,0-0.3,0-0.3-0.1
																					c-0.1-0.1-0.1-0.2-0.1-0.4c0-0.1,0-0.3,0.1-0.4l0,0c-0.2,0.3-0.4,0.6-0.6,0.7c-0.2,0.2-0.4,0.2-0.6,0.2
																					c-0.3,0-0.5-0.1-0.6-0.3c-0.1-0.2-0.2-0.5-0.2-0.8c0-0.4,0.1-0.8,0.2-1.2c0.2-0.4,0.4-0.7,0.7-0.9
																					C84,163,84.3,162.9,84.6,162.9L84.6,162.9z"/>
																				<g class="st40">
																					<defs>
																						<polygon id="SVGID_39_" points="6.5,187.4 202,187.4 202,13.8 6.5,13.8 6.5,187.4 																						"/>
																					</defs>
																					<clipPath id="SVGID_40_">
																						<use xlink:href="#SVGID_39_"  style="overflow:visible;"/>
																					</clipPath>
																					<path class="st41" d="M125.3,60.8c0-2.1,1.7-3.8,3.8-3.8c2.1,0,3.8,1.7,3.8,3.8c0,2.1-1.7,3.8-3.8,3.8
																						C127,64.6,125.3,62.9,125.3,60.8L125.3,60.8z"/>
																					<path class="st42" d="M125.3,60.8c0-2.1,1.7-3.8,3.8-3.8c2.1,0,3.8,1.7,3.8,3.8c0,2.1-1.7,3.8-3.8,3.8
																						C127,64.6,125.3,62.9,125.3,60.8L125.3,60.8z"/>
																					<g class="st43">
																						<defs>
																							<polygon id="SVGID_41_" points="6.5,187.4 202,187.4 202,13.8 6.5,13.8 6.5,187.4 																							
																								"/>
																						</defs>
																						<clipPath id="SVGID_42_">
																							<use xlink:href="#SVGID_41_"  style="overflow:visible;"/>
																						</clipPath>
																						<path class="st44" d="M93.2,91.3c-0.2,0-0.4,0-0.5,0L92,93.9h0.4c0.3,0,0.6,0,0.8-0.1s0.4-0.2,0.5-0.3
																							c0.1-0.1,0.2-0.3,0.3-0.5c0.1-0.2,0.1-0.4,0.1-0.7c0-0.3-0.1-0.6-0.2-0.7C93.8,91.4,93.5,91.3,93.2,91.3
																							L93.2,91.3z M91.4,91h1.9c0.3,0,0.6,0,0.8,0.1s0.4,0.1,0.5,0.2c0.1,0.1,0.2,0.2,0.3,0.4
																							c0.1,0.2,0.1,0.4,0.1,0.6c0,0.4-0.1,0.8-0.3,1.1c-0.2,0.3-0.5,0.5-0.8,0.7s-0.8,0.2-1.2,0.2
																							c-0.3,0-0.5,0-0.7,0l-0.3,1.2c0,0.1,0,0.2-0.1,0.3c0,0.1,0,0.1,0,0.2c0,0.1,0,0.1,0,0.2c0,0.1,0,0.2,0,0.2
																							c0,0,0.1,0.1,0.1,0.1c0.1,0,0.2,0,0.3,0.1l0,0.2h-1.7l0-0.2c0.1,0,0.2,0,0.2-0.1c0.1,0,0.1-0.1,0.1-0.2
																							c0-0.1,0.1-0.1,0.1-0.2c0-0.1,0.1-0.3,0.1-0.6l0.7-3.2c0.1-0.3,0.1-0.5,0.1-0.7c0-0.1,0-0.2-0.1-0.3
																							c-0.1-0.1-0.2-0.1-0.3-0.1L91.4,91z"/>
																						<g class="st45">
																							<defs>
																								<polygon id="SVGID_43_" points="6.5,187.4 202,187.4 202,13.8 6.5,13.8 6.5,187.4 																								
																									"/>
																							</defs>
																							<clipPath id="SVGID_44_">
																								<use xlink:href="#SVGID_43_"  style="overflow:visible;"/>
																							</clipPath>
																							<path class="st46" d="M118.7,161.8l0.1,0.3c-0.5,0.2-1,0.5-1.2,1.1c-0.3,0.5-0.4,1.2-0.4,2
																								c0,0.8,0.1,1.5,0.4,2c0.3,0.5,0.7,0.9,1.2,1.1l-0.1,0.3c-0.7-0.2-1.2-0.6-1.6-1.2c-0.4-0.6-0.5-1.3-0.5-2.2
																								c0-0.8,0.2-1.6,0.6-2.2C117.5,162.3,118,161.9,118.7,161.8L118.7,161.8z"/>
																							<g class="st47">
																								<defs>
																									<polygon id="SVGID_45_" points="6.5,187.4 202,187.4 202,13.8 6.5,13.8 6.5,187.4 
																																																			"/>
																								</defs>
																								<clipPath id="SVGID_46_">
																									<use xlink:href="#SVGID_45_"  style="overflow:visible;"/>
																								</clipPath>
																								<path class="st48" d="M121.2,163.7c-0.2,0-0.5,0.1-0.7,0.3c-0.2,0.2-0.3,0.5-0.5,0.8
																									c-0.1,0.3-0.2,0.7-0.2,1c0,0.2,0,0.4,0.1,0.5c0.1,0.1,0.2,0.2,0.3,0.2c0.2,0,0.3-0.1,0.5-0.2
																									c0.1-0.1,0.3-0.3,0.5-0.6c0.2-0.2,0.3-0.5,0.3-0.9l0-0.2c0-0.1,0-0.2,0-0.3c0-0.1,0-0.1,0-0.2
																									c0-0.2,0-0.3-0.1-0.4C121.5,163.7,121.4,163.7,121.2,163.7L121.2,163.7z M121.1,163.4c0.2,0,0.3,0,0.4,0.1
																									c0.1,0,0.3,0.1,0.4,0.2l0.3-0.2l0.2,0.1l-0.5,2.2c-0.1,0.2-0.1,0.4-0.1,0.5c0,0.1,0,0.2,0,0.2
																									s0.1,0.1,0.1,0.1c0.1,0,0.1,0,0.2-0.1s0.2-0.2,0.3-0.3l0.2,0.2c-0.2,0.2-0.4,0.4-0.5,0.5
																									c-0.1,0.1-0.3,0.1-0.5,0.1c-0.1,0-0.3,0-0.3-0.1s-0.1-0.2-0.1-0.4c0-0.1,0-0.3,0.1-0.4l0,0
																									c-0.2,0.3-0.4,0.6-0.6,0.7c-0.2,0.2-0.4,0.2-0.6,0.2c-0.3,0-0.5-0.1-0.6-0.3c-0.1-0.2-0.2-0.5-0.2-0.8
																									c0-0.4,0.1-0.8,0.2-1.2c0.2-0.4,0.4-0.7,0.7-0.9C120.5,163.5,120.8,163.4,121.1,163.4L121.1,163.4z"/>
																								<g class="st49">
																									<defs>
																										<polygon id="SVGID_47_" points="6.5,187.4 202,187.4 202,13.8 6.5,13.8 6.5,187.4 
																																																					"/>
																									</defs>
																									<clipPath id="SVGID_48_">
																										<use xlink:href="#SVGID_47_"  style="overflow:visible;"/>
																									</clipPath>
																									<polygon class="st50" points="127.2,162.5 127.7,162.5 127.7,164.5 129.6,164.5 129.6,165 127.7,165 
																										127.7,167 127.2,167 127.2,165 125.2,165 125.2,164.5 127.2,164.5 127.2,162.5 																									
																										"/>
																									<g class="st51">
																										<defs>
																											<polygon id="SVGID_49_" points="6.5,187.4 202,187.4 202,13.8 6.5,13.8 6.5,187.4 
																																																							"/>
																										</defs>
																										<clipPath id="SVGID_50_">
																											<use xlink:href="#SVGID_49_"  style="overflow:visible;"/>
																										</clipPath>
																										<path class="st52" d="M135.5,163.8c-0.4,0.2-0.7,0.4-0.9,0.8c-0.2,0.4-0.3,0.8-0.3,1.2
																											c0,0.5,0.2,0.8,0.7,0.8c0.2,0,0.4-0.1,0.5-0.2c0.2-0.1,0.3-0.3,0.4-0.5c0.1-0.2,0.1-0.5,0.1-0.7
																											c0-0.3,0-0.5-0.1-0.7C135.8,164.2,135.7,164,135.5,163.8L135.5,163.8z M139.5,163.7
																											c-0.2,0-0.5,0.1-0.7,0.3c-0.2,0.2-0.3,0.5-0.5,0.8c-0.1,0.3-0.2,0.7-0.2,1c0,0.2,0,0.4,0.1,0.5
																											c0.1,0.1,0.2,0.2,0.3,0.2c0.2,0,0.3-0.1,0.5-0.2c0.1-0.1,0.3-0.3,0.5-0.6s0.3-0.5,0.3-0.9l0-0.2
																											c0-0.1,0-0.2,0-0.3c0-0.1,0-0.1,0-0.2c0-0.2,0-0.3-0.1-0.4C139.8,163.7,139.7,163.7,139.5,163.7
																											L139.5,163.7z M139.4,163.4c0.2,0,0.3,0,0.4,0.1c0.1,0,0.3,0.1,0.4,0.2l0.3-0.2l0.2,0.1l-0.5,2.2
																											c-0.1,0.2-0.1,0.4-0.1,0.5c0,0.1,0,0.2,0,0.2c0,0,0.1,0.1,0.1,0.1c0.1,0,0.1,0,0.2-0.1
																											c0.1-0.1,0.2-0.2,0.3-0.3l0.2,0.2c-0.2,0.2-0.4,0.4-0.5,0.5c-0.1,0.1-0.3,0.1-0.5,0.1
																											c-0.1,0-0.3,0-0.3-0.1s-0.1-0.2-0.1-0.4c0-0.1,0-0.3,0.1-0.4l0,0c-0.2,0.3-0.4,0.6-0.6,0.7
																											c-0.2,0.2-0.4,0.2-0.6,0.2c-0.3,0-0.5-0.1-0.6-0.3c-0.1-0.2-0.2-0.5-0.2-0.8c0-0.4,0.1-0.8,0.2-1.2
																											c0.2-0.4,0.4-0.7,0.7-0.9C138.7,163.5,139.1,163.4,139.4,163.4L139.4,163.4z M135.9,161.8
																											c0.2,0,0.4,0,0.6,0.1c0.2,0.1,0.4,0.2,0.7,0.4l-0.1,0.6h-0.3c-0.1-0.3-0.2-0.5-0.3-0.6
																											c-0.1-0.1-0.3-0.2-0.5-0.2c-0.2,0-0.3,0-0.4,0.1c-0.1,0.1-0.1,0.2-0.1,0.3c0,0.1,0,0.1,0,0.2
																											c0,0.1,0.1,0.2,0.2,0.3c0.1,0.1,0.2,0.3,0.4,0.5c0.2,0.3,0.4,0.5,0.5,0.6c0.1,0.2,0.2,0.3,0.2,0.5
																											c0,0.2,0.1,0.4,0.1,0.6c0,0.3-0.1,0.6-0.2,0.9c-0.1,0.3-0.3,0.5-0.6,0.7c-0.3,0.2-0.6,0.2-0.9,0.2
																											c-0.3,0-0.5,0-0.7-0.1c-0.2-0.1-0.3-0.2-0.4-0.4c-0.1-0.2-0.1-0.4-0.1-0.6c0-0.5,0.1-0.9,0.4-1.3
																											c0.3-0.4,0.7-0.7,1.2-0.9c-0.2-0.2-0.3-0.4-0.4-0.5c-0.1-0.2-0.1-0.3-0.1-0.4c0-0.1,0-0.3,0.1-0.4
																											c0.1-0.1,0.2-0.2,0.4-0.3C135.4,161.8,135.6,161.8,135.9,161.8L135.9,161.8z"/>
																										<g class="st53">
																											<defs>
																												<polygon id="SVGID_51_" points="6.5,187.4 202,187.4 202,13.8 6.5,13.8 6.5,187.4 
																																																									"/>
																											</defs>
																											<clipPath id="SVGID_52_">
																												<use xlink:href="#SVGID_51_"  style="overflow:visible;"/>
																											</clipPath>
																											<path class="st54" d="M141.6,161.8c0.7,0.2,1.2,0.6,1.6,1.2c0.4,0.6,0.6,1.3,0.6,2.2
																												c0,0.9-0.2,1.6-0.5,2.2c-0.4,0.6-0.9,1-1.6,1.2l-0.1-0.3c0.5-0.2,0.9-0.5,1.2-1.1c0.3-0.5,0.4-1.2,0.4-2
																												c0-0.8-0.1-1.5-0.4-2c-0.3-0.5-0.7-0.9-1.2-1.1L141.6,161.8z"/>
																											<g class="st55">
																												<defs>
																													<polygon id="SVGID_53_" points="6.5,187.4 202,187.4 202,13.8 6.5,13.8 6.5,187.4 
																																																											"/>
																												</defs>
																												<clipPath id="SVGID_54_">
																													<use xlink:href="#SVGID_53_"  style="overflow:visible;"/>
																												</clipPath>
																												<line class="st56" x1="164.1" y1="37.9" x2="34.6" y2="119.8"/>
																											</g>
																										</g>
																									</g>
																								</g>
																							</g>
																						</g>
																					</g>
																				</g>
																			</g>
																		</g>
																	</g>
																</g>
															</g>
														</g>
													</g>
												</g>
											</g>
										</g>
									</g>
								</g>
							</g>
						</g>
					</g>
				</g>
			</g>
		</g>
	</g>
</g>
<g>
	<path class="st57" d="M128,167.3c0,1.6-0.2,2.9-0.5,2.9l-21.6,0c-0.3,0-0.5,1.3-0.5,2.9c0-1.6-0.2-2.9-0.5-2.9H83.4
		c-0.3,0-0.5-1.3-0.5-2.9"/>
	<g>
		<defs>
			<polygon id="SVGID_55_" points="82.5,186 128.4,186 128.4,167.2 82.5,167.2 82.5,186 			"/>
		</defs>
		<clipPath id="SVGID_56_">
			<use xlink:href="#SVGID_55_"  style="overflow:visible;"/>
		</clipPath>
		<path class="st58" d="M103.8,179.7c-0.4,0.2-0.7,0.4-0.9,0.8c-0.2,0.4-0.3,0.8-0.3,1.2c0,0.5,0.2,0.8,0.7,0.8
			c0.2,0,0.4-0.1,0.5-0.2c0.2-0.1,0.3-0.3,0.4-0.5c0.1-0.2,0.1-0.5,0.1-0.7c0-0.3,0-0.5-0.1-0.7S104,180,103.8,179.7L103.8,179.7z
			 M107.8,179.7c-0.2,0-0.5,0.1-0.7,0.3c-0.2,0.2-0.3,0.5-0.5,0.8c-0.1,0.3-0.2,0.7-0.2,1c0,0.2,0,0.4,0.1,0.5
			c0.1,0.1,0.2,0.2,0.3,0.2c0.2,0,0.3-0.1,0.5-0.2c0.1-0.1,0.3-0.3,0.5-0.6c0.2-0.2,0.3-0.5,0.3-0.9l0-0.2c0-0.1,0-0.2,0-0.3
			c0-0.1,0-0.1,0-0.2c0-0.2,0-0.3-0.1-0.4C108.1,179.7,108,179.7,107.8,179.7L107.8,179.7z M107.7,179.4c0.2,0,0.3,0,0.4,0.1
			c0.1,0,0.3,0.1,0.4,0.2l0.3-0.2l0.2,0.1l-0.5,2.2c-0.1,0.2-0.1,0.4-0.1,0.5c0,0.1,0,0.2,0,0.2c0,0,0.1,0.1,0.1,0.1
			c0.1,0,0.1,0,0.2-0.1s0.2-0.2,0.3-0.3l0.2,0.2c-0.2,0.2-0.4,0.4-0.5,0.5s-0.3,0.1-0.5,0.1c-0.1,0-0.3,0-0.3-0.1
			c-0.1-0.1-0.1-0.2-0.1-0.4c0-0.1,0-0.3,0.1-0.4l0,0c-0.2,0.3-0.4,0.6-0.6,0.7c-0.2,0.2-0.4,0.2-0.6,0.2c-0.3,0-0.5-0.1-0.6-0.3
			c-0.1-0.2-0.2-0.5-0.2-0.8c0-0.4,0.1-0.8,0.2-1.2c0.2-0.4,0.4-0.7,0.7-0.9C107.1,179.5,107.4,179.4,107.7,179.4L107.7,179.4z
			 M104.2,177.7c0.2,0,0.4,0,0.6,0.1s0.4,0.2,0.7,0.4l-0.1,0.6H105c-0.1-0.3-0.2-0.5-0.3-0.6c-0.1-0.1-0.3-0.2-0.5-0.2
			c-0.2,0-0.3,0-0.4,0.1c-0.1,0.1-0.1,0.2-0.1,0.3c0,0.1,0,0.1,0,0.2c0,0.1,0.1,0.2,0.2,0.3c0.1,0.1,0.2,0.3,0.4,0.5
			c0.2,0.3,0.4,0.5,0.5,0.6c0.1,0.2,0.2,0.3,0.2,0.5c0,0.2,0.1,0.4,0.1,0.6c0,0.3-0.1,0.6-0.2,0.9s-0.3,0.5-0.6,0.7
			c-0.3,0.2-0.6,0.2-0.9,0.2c-0.3,0-0.5,0-0.7-0.1c-0.2-0.1-0.3-0.2-0.4-0.4c-0.1-0.2-0.1-0.4-0.1-0.6c0-0.5,0.1-0.9,0.4-1.3
			c0.3-0.4,0.7-0.7,1.2-0.9c-0.2-0.2-0.3-0.4-0.4-0.5c-0.1-0.2-0.1-0.3-0.1-0.4c0-0.1,0-0.3,0.1-0.4c0.1-0.1,0.2-0.2,0.4-0.3
			C103.8,177.8,104,177.7,104.2,177.7L104.2,177.7z"/>
	</g>
</g>
<g>
	<path class="st59" d="M5.8,57.2c0.2,0,0.3,0,0.5,0l-0.1,0.5H5.9c0-0.1-0.1-0.2-0.1-0.2c0,0-0.1-0.1-0.2-0.1c-0.1,0-0.2,0-0.3,0.1
		c-0.1,0.1-0.1,0.1-0.2,0.3S5.1,58.1,5,58.3L5,58.6h0.7l-0.1,0.3H4.9l-0.5,2.4c-0.1,0.4-0.2,0.7-0.4,0.9c-0.2,0.2-0.4,0.3-0.7,0.3
		c-0.1,0-0.1,0-0.2,0l0-0.2c0,0,0.1,0,0.1,0c0.1,0,0.2,0,0.2-0.1s0.1-0.1,0.2-0.2c0.1-0.1,0.1-0.2,0.1-0.4l0.6-2.6H4l0-0.2
		c0.1,0,0.2,0,0.3,0c0.1,0,0.1,0,0.1-0.1c0,0,0.1-0.1,0.1-0.1c0,0,0-0.1,0.1-0.2c0.1-0.3,0.2-0.6,0.4-0.7
		C5.2,57.3,5.5,57.2,5.8,57.2L5.8,57.2z"/>
	<path class="st59" d="M8.6,57.2l0.1,0.2c-0.4,0.1-0.7,0.4-1,0.8c-0.2,0.4-0.3,0.9-0.3,1.5c0,0.6,0.1,1.2,0.3,1.6
		c0.2,0.4,0.5,0.7,0.9,0.8l-0.1,0.2c-0.5-0.1-0.9-0.4-1.2-0.9S7,60.5,7,59.8c0-0.7,0.1-1.2,0.4-1.7S8.1,57.4,8.6,57.2L8.6,57.2z"/>
	<path class="st59" d="M10.6,58.7c-0.2,0-0.4,0.1-0.5,0.2c-0.2,0.2-0.3,0.4-0.4,0.6s-0.1,0.5-0.1,0.8c0,0.2,0,0.3,0.1,0.4
		c0.1,0.1,0.1,0.1,0.3,0.1c0.1,0,0.2-0.1,0.4-0.2c0.1-0.1,0.2-0.3,0.4-0.4c0.1-0.2,0.2-0.4,0.3-0.7l0-0.1c0-0.1,0-0.1,0-0.2
		c0-0.1,0-0.1,0-0.2c0-0.1,0-0.2-0.1-0.3C10.8,58.8,10.7,58.7,10.6,58.7L10.6,58.7z M10.5,58.5c0.1,0,0.2,0,0.3,0
		c0.1,0,0.2,0.1,0.3,0.1l0.3-0.2l0.2,0l-0.4,1.7c0,0.2-0.1,0.3-0.1,0.4c0,0.1,0,0.1,0,0.2c0,0,0.1,0,0.1,0c0.1,0,0.1,0,0.2-0.1
		s0.2-0.1,0.3-0.3l0.2,0.2c-0.2,0.2-0.3,0.3-0.4,0.4s-0.2,0.1-0.4,0.1c-0.1,0-0.2,0-0.3-0.1c-0.1-0.1-0.1-0.2-0.1-0.3
		c0-0.1,0-0.2,0.1-0.3l0,0c-0.2,0.3-0.3,0.4-0.5,0.6c-0.2,0.1-0.3,0.2-0.5,0.2c-0.2,0-0.4-0.1-0.5-0.2s-0.2-0.4-0.2-0.6
		c0-0.3,0.1-0.6,0.2-0.9c0.1-0.3,0.3-0.5,0.5-0.7C10,58.6,10.3,58.5,10.5,58.5L10.5,58.5z"/>
	<polygon class="st59" points="15.2,57.8 15.6,57.8 15.6,59.4 17.1,59.4 17.1,59.8 15.6,59.8 15.6,61.3 15.2,61.3 15.2,59.8 
		13.7,59.8 13.7,59.4 15.2,59.4 15.2,57.8 	"/>
	<path class="st59" d="M20.5,58.8c-0.3,0.1-0.5,0.3-0.7,0.6s-0.3,0.6-0.3,1c0,0.4,0.2,0.6,0.6,0.6c0.1,0,0.3,0,0.4-0.1
		c0.1-0.1,0.2-0.2,0.3-0.4c0.1-0.2,0.1-0.4,0.1-0.6c0-0.2,0-0.4-0.1-0.6S20.6,59,20.5,58.8L20.5,58.8z M23.6,58.7
		c-0.2,0-0.4,0.1-0.5,0.2c-0.2,0.2-0.3,0.4-0.4,0.6s-0.1,0.5-0.1,0.8c0,0.2,0,0.3,0.1,0.4c0.1,0.1,0.1,0.1,0.3,0.1
		c0.1,0,0.2-0.1,0.4-0.2c0.1-0.1,0.2-0.3,0.4-0.4c0.1-0.2,0.2-0.4,0.3-0.7l0-0.1c0-0.1,0-0.1,0-0.2s0-0.1,0-0.2c0-0.1,0-0.2-0.1-0.3
		C23.8,58.8,23.7,58.7,23.6,58.7L23.6,58.7z M23.5,58.5c0.1,0,0.2,0,0.3,0c0.1,0,0.2,0.1,0.3,0.1l0.3-0.2l0.2,0l-0.4,1.7
		c0,0.2-0.1,0.3-0.1,0.4c0,0.1,0,0.1,0,0.2c0,0,0.1,0,0.1,0c0.1,0,0.1,0,0.2-0.1c0.1,0,0.2-0.1,0.3-0.3l0.2,0.2
		c-0.2,0.2-0.3,0.3-0.4,0.4c-0.1,0.1-0.2,0.1-0.4,0.1c-0.1,0-0.2,0-0.3-0.1c-0.1-0.1-0.1-0.2-0.1-0.3c0-0.1,0-0.2,0.1-0.3l0,0
		c-0.2,0.3-0.3,0.4-0.5,0.6c-0.2,0.1-0.3,0.2-0.5,0.2c-0.2,0-0.4-0.1-0.5-0.2c-0.1-0.2-0.2-0.4-0.2-0.6c0-0.3,0.1-0.6,0.2-0.9
		s0.3-0.5,0.5-0.7C23,58.6,23.3,58.5,23.5,58.5L23.5,58.5z M20.8,57.2c0.2,0,0.3,0,0.5,0.1c0.2,0.1,0.3,0.2,0.5,0.3l-0.1,0.4h-0.3
		c-0.1-0.2-0.2-0.4-0.3-0.5c-0.1-0.1-0.3-0.1-0.4-0.1c-0.1,0-0.2,0-0.3,0.1c-0.1,0.1-0.1,0.1-0.1,0.2c0,0.1,0,0.1,0,0.2
		c0,0.1,0.1,0.1,0.1,0.2c0.1,0.1,0.2,0.2,0.3,0.4c0.2,0.2,0.3,0.4,0.4,0.5s0.1,0.3,0.2,0.4c0,0.1,0.1,0.3,0.1,0.4
		c0,0.2-0.1,0.4-0.2,0.7c-0.1,0.2-0.3,0.4-0.5,0.5c-0.2,0.1-0.4,0.2-0.7,0.2c-0.2,0-0.4,0-0.6-0.1c-0.2-0.1-0.3-0.2-0.3-0.3
		c-0.1-0.1-0.1-0.3-0.1-0.5c0-0.4,0.1-0.7,0.3-1c0.2-0.3,0.5-0.5,1-0.7c-0.1-0.2-0.3-0.3-0.3-0.4s-0.1-0.2-0.1-0.3
		c0-0.1,0-0.2,0.1-0.3c0.1-0.1,0.2-0.2,0.3-0.2S20.6,57.2,20.8,57.2L20.8,57.2z"/>
	<path class="st59" d="M25.2,57.2c0.5,0.1,0.9,0.4,1.2,0.9c0.3,0.5,0.4,1,0.4,1.7c0,0.7-0.1,1.2-0.4,1.7c-0.3,0.5-0.7,0.8-1.2,0.9
		l-0.1-0.2c0.4-0.1,0.7-0.4,0.9-0.8c0.2-0.4,0.3-0.9,0.3-1.6c0-0.6-0.1-1.1-0.3-1.5c-0.2-0.4-0.5-0.7-1-0.8L25.2,57.2z"/>
</g>
<g>
	<path class="st59" d="M136.3,64.2c-0.3,0-0.5,0.1-0.7,0.3c-0.2,0.2-0.4,0.4-0.6,0.8c-0.2,0.3-0.3,0.7-0.4,1.1
		c-0.1,0.4-0.1,0.8-0.1,1.1c0,0.7,0.3,1.1,0.8,1.1c0.3,0,0.6-0.2,0.9-0.5s0.5-0.7,0.7-1.3c0.2-0.5,0.3-1,0.3-1.5
		c0-0.3-0.1-0.6-0.2-0.8C136.7,64.3,136.5,64.2,136.3,64.2L136.3,64.2z M136.3,63.9c0.5,0,0.8,0.1,1,0.4c0.2,0.3,0.4,0.6,0.4,1.1
		c0,0.3-0.1,0.7-0.2,1.1c-0.1,0.4-0.2,0.8-0.4,1.1s-0.4,0.6-0.6,0.8c-0.2,0.2-0.5,0.3-0.8,0.4c0.1,0.2,0.1,0.3,0.2,0.4
		s0.1,0.2,0.1,0.3c0,0.1,0.1,0.1,0.1,0.2c0,0,0.1,0.1,0.1,0.1s0.1,0,0.1,0c0.1,0,0.2,0,0.3-0.1c0.1-0.1,0.2-0.1,0.3-0.3l0.2,0.2
		c-0.2,0.2-0.4,0.3-0.5,0.4c-0.2,0.1-0.3,0.1-0.5,0.1c-0.2,0-0.4,0-0.5-0.1c-0.1-0.1-0.2-0.2-0.3-0.4c-0.1-0.2-0.2-0.4-0.3-0.7
		c-0.4,0-0.7-0.2-1-0.4c-0.2-0.3-0.3-0.6-0.3-1.1c0-0.4,0.1-0.8,0.2-1.2c0.1-0.4,0.3-0.8,0.5-1.2c0.2-0.3,0.5-0.6,0.8-0.8
		C135.6,64,135.9,63.9,136.3,63.9L136.3,63.9z"/>
	<path class="st59" d="M164.7,62.3c0.7,0.2,1.3,0.7,1.7,1.5c0.4,0.8,0.6,1.8,0.6,2.9c0,1.1-0.2,2.1-0.6,2.9c-0.4,0.8-1,1.3-1.7,1.5
		l-0.1-0.3c0.6-0.2,1-0.7,1.3-1.4c0.3-0.7,0.4-1.6,0.4-2.7c0-1.1-0.1-2-0.4-2.7c-0.3-0.7-0.7-1.2-1.3-1.4L164.7,62.3z M142.9,62.3
		l0.1,0.3c-0.6,0.2-1,0.7-1.3,1.4c-0.3,0.7-0.4,1.6-0.4,2.7c0,1.1,0.1,2,0.4,2.7c0.3,0.7,0.7,1.2,1.3,1.4l-0.1,0.3
		c-0.7-0.2-1.3-0.7-1.7-1.5c-0.4-0.8-0.6-1.8-0.6-2.9c0-1.1,0.2-2.1,0.6-2.9C141.6,63,142.2,62.5,142.9,62.3L142.9,62.3z"/>
	<path class="st59" d="M145.5,65.6c-0.2,0-0.5,0.1-0.7,0.3c-0.2,0.2-0.3,0.5-0.5,0.8c-0.1,0.3-0.2,0.7-0.2,1c0,0.2,0,0.4,0.1,0.5
		s0.2,0.2,0.3,0.2c0.2,0,0.3-0.1,0.5-0.2c0.1-0.1,0.3-0.3,0.5-0.6c0.2-0.2,0.3-0.5,0.3-0.9l0-0.2c0-0.1,0-0.2,0-0.3
		c0-0.1,0-0.1,0-0.2c0-0.2,0-0.3-0.1-0.4S145.6,65.6,145.5,65.6L145.5,65.6z M145.4,65.3c0.2,0,0.3,0,0.4,0.1c0.1,0,0.3,0.1,0.4,0.2
		l0.3-0.2l0.2,0.1l-0.5,2.2c-0.1,0.2-0.1,0.4-0.1,0.5c0,0.1,0,0.2,0,0.2c0,0,0.1,0.1,0.1,0.1c0.1,0,0.1,0,0.2-0.1
		c0.1-0.1,0.2-0.2,0.3-0.3l0.2,0.2c-0.2,0.2-0.4,0.4-0.5,0.5c-0.1,0.1-0.3,0.1-0.5,0.1c-0.1,0-0.3,0-0.3-0.1s-0.1-0.2-0.1-0.4
		c0-0.1,0-0.3,0.1-0.4l0,0c-0.2,0.3-0.4,0.6-0.6,0.7c-0.2,0.2-0.4,0.2-0.6,0.2c-0.3,0-0.5-0.1-0.6-0.3c-0.1-0.2-0.2-0.5-0.2-0.8
		c0-0.4,0.1-0.8,0.2-1.2s0.4-0.7,0.7-0.9C144.7,65.4,145.1,65.3,145.4,65.3L145.4,65.3z"/>
	<path class="st59" d="M147.8,67.9h0.6c0,0.2,0,0.3,0,0.5c0,0.2,0,0.3-0.1,0.5c-0.1,0.1-0.1,0.3-0.3,0.4c-0.1,0.1-0.3,0.3-0.5,0.4
		l-0.2-0.2c0.1-0.1,0.2-0.2,0.3-0.3c0.1-0.1,0.1-0.2,0.1-0.3c0-0.1,0-0.3,0-0.4C147.8,68.3,147.8,68.1,147.8,67.9L147.8,67.9z"/>
	<path class="st59" d="M153.3,63.7c0.2,0,0.4,0,0.6,0.1l-0.1,0.6h-0.3c0-0.1-0.1-0.2-0.1-0.3s-0.1-0.1-0.2-0.1c-0.1,0-0.2,0-0.3,0.1
		c-0.1,0.1-0.2,0.2-0.2,0.3c-0.1,0.1-0.1,0.3-0.2,0.6l-0.1,0.4h0.9l-0.1,0.4h-0.9l-0.7,3.1c-0.1,0.5-0.3,0.9-0.5,1.1
		c-0.2,0.3-0.5,0.4-0.8,0.4c-0.1,0-0.2,0-0.2,0L150,70c0,0,0.1,0,0.2,0c0.1,0,0.2,0,0.3-0.1c0.1-0.1,0.1-0.1,0.2-0.3
		c0.1-0.1,0.1-0.3,0.2-0.6l0.8-3.4H151l0.1-0.2c0.2,0,0.3,0,0.3,0c0.1,0,0.1,0,0.2-0.1c0,0,0.1-0.1,0.1-0.1c0-0.1,0.1-0.1,0.1-0.3
		c0.1-0.4,0.3-0.7,0.6-1C152.6,63.8,152.9,63.7,153.3,63.7L153.3,63.7z"/>
	<path class="st59" d="M161.6,63.4c0.7,0.2,1.2,0.6,1.6,1.2c0.4,0.6,0.6,1.3,0.6,2.2c0,0.9-0.2,1.6-0.5,2.2c-0.4,0.6-0.9,1-1.6,1.2
		l-0.1-0.3c0.5-0.2,0.9-0.5,1.2-1.1s0.4-1.2,0.4-2c0-0.8-0.1-1.5-0.4-2c-0.3-0.5-0.7-0.9-1.2-1.1L161.6,63.4z M157,63.4l0.1,0.3
		c-0.5,0.2-1,0.5-1.2,1.1c-0.3,0.5-0.4,1.2-0.4,2c0,0.8,0.1,1.5,0.4,2s0.7,0.9,1.2,1.1l-0.1,0.3c-0.7-0.2-1.2-0.6-1.6-1.2
		c-0.4-0.6-0.5-1.3-0.5-2.2c0-0.8,0.2-1.6,0.6-2.2C155.8,63.9,156.3,63.6,157,63.4L157,63.4z"/>
	<path class="st59" d="M159.5,65.6c-0.2,0-0.5,0.1-0.7,0.3c-0.2,0.2-0.3,0.5-0.5,0.8c-0.1,0.3-0.2,0.7-0.2,1c0,0.2,0,0.4,0.1,0.5
		c0.1,0.1,0.2,0.2,0.3,0.2c0.2,0,0.3-0.1,0.5-0.2c0.1-0.1,0.3-0.3,0.5-0.6c0.2-0.2,0.3-0.5,0.3-0.9l0-0.2c0-0.1,0-0.2,0-0.3
		c0-0.1,0-0.1,0-0.2c0-0.2,0-0.3-0.1-0.4S159.6,65.6,159.5,65.6L159.5,65.6z M159.4,65.3c0.2,0,0.3,0,0.4,0.1c0.1,0,0.3,0.1,0.4,0.2
		l0.3-0.2l0.2,0.1l-0.5,2.2c-0.1,0.2-0.1,0.4-0.1,0.5c0,0.1,0,0.2,0,0.2c0,0,0.1,0.1,0.1,0.1c0.1,0,0.1,0,0.2-0.1
		c0.1-0.1,0.2-0.2,0.3-0.3l0.2,0.2c-0.2,0.2-0.4,0.4-0.5,0.5c-0.1,0.1-0.3,0.1-0.5,0.1c-0.1,0-0.3,0-0.3-0.1s-0.1-0.2-0.1-0.4
		c0-0.1,0-0.3,0.1-0.4l0,0c-0.2,0.3-0.4,0.6-0.6,0.7c-0.2,0.2-0.4,0.2-0.6,0.2c-0.3,0-0.5-0.1-0.6-0.3c-0.1-0.2-0.2-0.5-0.2-0.8
		c0-0.4,0.1-0.8,0.2-1.2s0.4-0.7,0.7-0.9C158.7,65.4,159.1,65.3,159.4,65.3L159.4,65.3z"/>
</g>
<g>
	<path class="st59" d="M157.7,47.1c-0.1,0-0.3,0.1-0.4,0.2c-0.1,0.1-0.2,0.3-0.3,0.5c0.2,0,0.3,0,0.5,0c0.1,0,0.2-0.1,0.3-0.2
		c0.1-0.1,0.1-0.2,0.1-0.3c0-0.1,0-0.1-0.1-0.2S157.8,47.1,157.7,47.1L157.7,47.1z M157.8,47c0.2,0,0.3,0,0.4,0.1
		c0.1,0.1,0.1,0.2,0.1,0.3c0,0.2-0.1,0.4-0.3,0.5c-0.2,0.1-0.5,0.2-0.9,0.2c0,0.1,0,0.2,0,0.3c0,0.1,0,0.2,0.1,0.3s0.1,0.1,0.3,0.1
		c0.1,0,0.2,0,0.3-0.1c0.1-0.1,0.2-0.1,0.3-0.2l0.1,0.1c-0.1,0.1-0.3,0.2-0.4,0.3c-0.1,0.1-0.3,0.1-0.4,0.1c-0.2,0-0.3-0.1-0.4-0.2
		c-0.1-0.1-0.2-0.3-0.2-0.5c0-0.1,0-0.3,0.1-0.4s0.1-0.3,0.2-0.4c0.1-0.1,0.2-0.2,0.4-0.3C157.5,47,157.6,47,157.8,47L157.8,47z
		 M152.2,46.2h2l-0.2,0.7h-0.2c0-0.1,0-0.2,0-0.3c0-0.1,0-0.1,0-0.1c0,0,0-0.1-0.1-0.1c0,0-0.1,0-0.1,0h-0.3l-0.4,1.9
		c0,0.1,0,0.1,0,0.1c0,0,0,0.1,0,0.1c0,0,0,0.1,0,0.1c0,0,0,0.1,0,0.1c0,0,0,0,0.1,0c0,0,0.1,0,0.1,0l0,0.1h-0.8l0-0.1
		c0.1,0,0.1,0,0.1,0c0,0,0,0,0.1-0.1c0,0,0-0.1,0.1-0.1c0-0.1,0-0.1,0.1-0.3l0.4-1.9h-0.2c-0.1,0-0.1,0-0.2,0c0,0-0.1,0.1-0.1,0.1
		s-0.1,0.2-0.2,0.3H152L152.2,46.2L152.2,46.2z M155.3,46.1h0.1l-0.3,1.3l0,0c0.1-0.2,0.2-0.3,0.3-0.4c0.1-0.1,0.2-0.1,0.3-0.1
		c0.1,0,0.2,0,0.3,0.1s0.1,0.2,0.1,0.3c0,0.1,0,0.2-0.1,0.3l-0.1,0.5c0,0.1-0.1,0.2-0.1,0.3c0,0.1,0,0.1,0,0.1c0,0,0,0,0.1,0
		c0,0,0.1,0,0.1,0c0,0,0.1-0.1,0.2-0.2l0.1,0.1c-0.1,0.1-0.2,0.2-0.3,0.3c-0.1,0-0.2,0.1-0.3,0.1c-0.1,0-0.2,0-0.2-0.1
		s-0.1-0.1-0.1-0.2c0-0.1,0-0.2,0.1-0.4l0.1-0.3c0-0.1,0-0.2,0.1-0.3c0-0.1,0-0.1,0-0.1c0-0.1,0-0.2,0-0.2c0,0-0.1-0.1-0.1-0.1
		c-0.1,0-0.1,0-0.2,0.1c-0.1,0-0.1,0.1-0.2,0.2c-0.1,0.1-0.1,0.2-0.2,0.3s-0.1,0.2-0.1,0.3l-0.2,0.8h-0.3l0.5-2.2c0-0.1,0-0.2,0-0.3
		c0-0.1,0-0.1,0-0.1c0,0-0.1,0-0.2,0l0-0.1L155.3,46.1L155.3,46.1z"/>
	<path class="st59" d="M167.3,47.2c-0.1,0-0.1,0-0.2,0.1c-0.1,0-0.1,0.1-0.2,0.2c-0.1,0.1-0.1,0.2-0.2,0.3c0,0.1-0.1,0.2-0.1,0.3
		l0,0.1c0,0.1,0,0.1,0,0.2c0,0,0,0.1,0,0.1c0,0.1,0,0.2,0.1,0.2c0,0,0.1,0.1,0.2,0.1c0.1,0,0.1,0,0.2,0c0.1,0,0.1-0.1,0.2-0.1
		c0,0,0.1-0.1,0.1-0.2c0-0.1,0.1-0.2,0.1-0.2c0-0.1,0.1-0.2,0.1-0.3c0-0.1,0-0.2,0-0.3c0-0.1,0-0.2-0.1-0.3
		C167.4,47.3,167.4,47.2,167.3,47.2L167.3,47.2z M164.9,47.1c-0.1,0-0.3,0.1-0.4,0.2s-0.2,0.3-0.2,0.4c-0.1,0.2-0.1,0.4-0.1,0.5
		c0,0.1,0,0.2,0.1,0.3c0,0.1,0.1,0.1,0.2,0.1c0.1,0,0.2,0,0.3-0.1c0.1-0.1,0.2-0.2,0.3-0.3c0.1-0.1,0.1-0.3,0.2-0.5l0-0.1
		c0-0.1,0-0.1,0-0.1c0,0,0-0.1,0-0.1c0-0.1,0-0.2-0.1-0.2C165.1,47.2,165,47.1,164.9,47.1L164.9,47.1z M160.8,47.1
		c-0.1,0-0.3,0.1-0.4,0.2c-0.1,0.1-0.2,0.3-0.2,0.4c-0.1,0.2-0.1,0.4-0.1,0.5c0,0.1,0,0.2,0.1,0.3c0,0.1,0.1,0.1,0.2,0.1
		c0.1,0,0.1,0,0.2-0.1c0.1,0,0.1-0.1,0.2-0.2c0.1-0.1,0.1-0.2,0.2-0.3c0-0.1,0.1-0.2,0.1-0.3c0-0.1,0-0.2,0-0.3c0-0.1,0-0.2-0.1-0.2
		C161,47.2,160.9,47.1,160.8,47.1L160.8,47.1z M166.5,47c0.1,0,0.1,0,0.2,0.1c0,0.1,0.1,0.1,0.1,0.2c0,0.1,0,0.1,0,0.2l0,0
		c0.2-0.4,0.5-0.5,0.7-0.5c0.1,0,0.3,0.1,0.3,0.2c0.1,0.1,0.1,0.3,0.1,0.5c0,0.2,0,0.4-0.1,0.6c-0.1,0.2-0.2,0.4-0.4,0.5
		c-0.2,0.1-0.3,0.2-0.5,0.2c-0.2,0-0.3,0-0.4-0.1l-0.1,0.4c0,0.1,0,0.2,0,0.2c0,0.1,0,0.1,0,0.1c0,0,0.1,0,0.2,0l0,0.1h-0.6l0.5-2.1
		c0-0.1,0-0.2,0-0.3c0-0.1,0-0.1,0-0.1c0,0,0,0-0.1,0c0,0-0.1,0-0.1,0c0,0-0.1,0.1-0.2,0.2l-0.1-0.1c0.1-0.1,0.2-0.2,0.3-0.3
		S166.4,47,166.5,47L166.5,47z M164.9,47c0.1,0,0.2,0,0.2,0c0.1,0,0.1,0.1,0.2,0.1l0.2-0.1l0.1,0l-0.3,1.2c0,0.1,0,0.2,0,0.3
		c0,0.1,0,0.1,0,0.1c0,0,0,0,0.1,0c0,0,0.1,0,0.1,0c0,0,0.1-0.1,0.2-0.2l0.1,0.1c-0.1,0.1-0.2,0.2-0.3,0.3c-0.1,0.1-0.2,0.1-0.3,0.1
		c-0.1,0-0.1,0-0.2-0.1c0-0.1-0.1-0.1-0.1-0.2c0-0.1,0-0.1,0-0.2l0,0c-0.1,0.2-0.2,0.3-0.4,0.4s-0.2,0.1-0.4,0.1
		c-0.1,0-0.3-0.1-0.3-0.2c-0.1-0.1-0.1-0.3-0.1-0.5c0-0.2,0-0.4,0.1-0.6c0.1-0.2,0.2-0.4,0.4-0.5C164.5,47,164.7,47,164.9,47
		L164.9,47z M162.4,47c0.1,0,0.1,0,0.2,0.1c0,0.1,0.1,0.1,0.1,0.2c0,0.1,0,0.1,0,0.2l0,0c0.1-0.2,0.2-0.3,0.4-0.4
		c0.1-0.1,0.2-0.1,0.4-0.1c0.1,0,0.2,0,0.2,0l-0.1,0.4h-0.2c0-0.1,0-0.1,0-0.1c0,0,0-0.1-0.1-0.1c0,0,0,0-0.1,0c0,0-0.1,0-0.2,0.1
		c-0.1,0-0.1,0.1-0.2,0.2c-0.1,0.1-0.1,0.2-0.2,0.2c0,0.1-0.1,0.2-0.1,0.3l-0.2,0.8H162l0.3-1.2c0-0.1,0-0.1,0-0.2c0,0,0-0.1,0-0.1
		c0-0.1,0-0.1,0-0.1c0,0,0,0-0.1,0c0,0-0.1,0-0.1,0c0,0-0.1,0.1-0.2,0.2l-0.1-0.1c0.1-0.1,0.2-0.2,0.3-0.3
		C162.2,47,162.3,47,162.4,47L162.4,47z M160.8,47c0.1,0,0.2,0,0.2,0c0.1,0,0.1,0.1,0.2,0.1l0.2-0.1l0.1,0l-0.2,0.9
		c0,0.1,0,0.2-0.1,0.5c-0.1,0.3-0.1,0.5-0.1,0.6c0,0.1-0.1,0.2-0.1,0.3c0,0.1-0.1,0.2-0.2,0.2c-0.1,0.1-0.2,0.1-0.3,0.2
		c-0.1,0-0.2,0.1-0.4,0.1c-0.5,0-0.7-0.1-0.7-0.4c0-0.1,0-0.1,0.1-0.2c0-0.1,0.1-0.1,0.2-0.2l0.1,0.1c0,0,0,0.1-0.1,0.1
		c0,0,0,0.1,0,0.1c0,0,0,0.1,0,0.1c0,0.1,0,0.2,0.1,0.2c0.1,0,0.2,0.1,0.3,0.1c0.2,0,0.3,0,0.4-0.1c0.1-0.1,0.2-0.2,0.2-0.3
		c0.1-0.2,0.1-0.4,0.2-0.7l0,0c-0.1,0.2-0.2,0.3-0.3,0.4c-0.1,0.1-0.2,0.1-0.3,0.1c-0.1,0-0.3-0.1-0.3-0.2c-0.1-0.1-0.1-0.3-0.1-0.5
		c0-0.2,0-0.4,0.1-0.6c0.1-0.2,0.2-0.4,0.4-0.5C160.4,47.1,160.6,47,160.8,47L160.8,47z M169.1,46.1h0.1l-0.3,1.3l0,0
		c0.1-0.2,0.2-0.3,0.3-0.4c0.1-0.1,0.2-0.1,0.3-0.1c0.1,0,0.2,0,0.3,0.1s0.1,0.2,0.1,0.3c0,0.1,0,0.2-0.1,0.3l-0.1,0.5
		c0,0.1-0.1,0.2-0.1,0.3c0,0.1,0,0.1,0,0.1c0,0,0,0,0.1,0c0,0,0.1,0,0.1,0c0,0,0.1-0.1,0.2-0.2l0.1,0.1c-0.1,0.1-0.2,0.2-0.3,0.3
		c-0.1,0-0.2,0.1-0.3,0.1c-0.1,0-0.2,0-0.2-0.1s-0.1-0.1-0.1-0.2c0-0.1,0-0.2,0.1-0.4l0.1-0.3c0-0.1,0-0.2,0.1-0.3
		c0-0.1,0-0.1,0-0.1c0-0.1,0-0.2,0-0.2s-0.1-0.1-0.1-0.1c-0.1,0-0.1,0-0.2,0.1c-0.1,0-0.1,0.1-0.2,0.2c-0.1,0.1-0.1,0.2-0.2,0.3
		c0,0.1-0.1,0.2-0.1,0.3l-0.2,0.8h-0.3l0.5-2.2c0-0.1,0-0.2,0-0.3c0-0.1,0-0.1,0-0.1c0,0-0.1,0-0.2,0l0-0.1L169.1,46.1L169.1,46.1z"
		/>
	<path class="st59" d="M172.5,47.1c-0.1,0-0.3,0.1-0.4,0.2c-0.1,0.1-0.2,0.3-0.2,0.5s-0.1,0.4-0.1,0.5c0,0.1,0,0.2,0.1,0.3
		c0.1,0.1,0.1,0.1,0.3,0.1c0.1,0,0.2-0.1,0.3-0.2c0.1-0.1,0.2-0.3,0.2-0.5c0.1-0.2,0.1-0.4,0.1-0.5c0-0.1,0-0.2-0.1-0.3
		C172.7,47.2,172.6,47.1,172.5,47.1L172.5,47.1z M172.5,47c0.2,0,0.4,0.1,0.5,0.2c0.1,0.1,0.2,0.3,0.2,0.5c0,0.2,0,0.3-0.1,0.5
		c-0.1,0.2-0.1,0.3-0.2,0.4c-0.1,0.1-0.2,0.2-0.3,0.3c-0.1,0.1-0.3,0.1-0.4,0.1c-0.2,0-0.4-0.1-0.5-0.2c-0.1-0.1-0.2-0.3-0.2-0.5
		c0-0.1,0-0.2,0-0.4c0-0.2,0.1-0.3,0.2-0.5c0.1-0.1,0.2-0.2,0.3-0.3C172.2,47,172.3,47,172.5,47L172.5,47z M175.2,46.1
		c0.1,0,0.2,0,0.3,0l-0.1,0.3h-0.2c0-0.1,0-0.1-0.1-0.2c0,0-0.1,0-0.1,0c-0.1,0-0.1,0-0.2,0.1c-0.1,0-0.1,0.1-0.1,0.2
		c0,0.1-0.1,0.2-0.1,0.3l0,0.2h0.5l0,0.2h-0.5l-0.4,1.7c-0.1,0.3-0.2,0.5-0.3,0.6c-0.1,0.1-0.3,0.2-0.5,0.2c-0.1,0-0.1,0-0.1,0
		l0-0.2c0,0,0,0,0.1,0c0.1,0,0.1,0,0.1,0c0,0,0.1-0.1,0.1-0.2c0-0.1,0.1-0.2,0.1-0.3l0.4-1.8h-0.3l0-0.1c0.1,0,0.1,0,0.2,0
		c0,0,0.1,0,0.1,0c0,0,0,0,0.1-0.1c0,0,0-0.1,0.1-0.2c0.1-0.2,0.2-0.4,0.3-0.5C174.8,46.2,175,46.1,175.2,46.1L175.2,46.1z"/>
	<path class="st59" d="M157.2,51.6c0.1,0,0.1,0,0.1,0c0,0,0.1,0,0.1,0.1c0,0,0,0.1,0.1,0.1c0,0,0,0.1,0.1,0.1s0,0.1,0,0.2
		c0,0.2,0.1,0.3,0.1,0.5c0,0.2,0.1,0.4,0.1,0.5c0.1-0.2,0.2-0.4,0.3-0.5c0.1-0.2,0.2-0.3,0.2-0.5c0-0.1,0.1-0.2,0.1-0.3
		c0-0.1,0-0.1,0-0.1c0,0-0.1,0-0.1,0l0-0.1h0.5l0.1,0.1c-0.1,0.3-0.2,0.6-0.4,0.9c-0.2,0.3-0.4,0.6-0.6,0.9
		c-0.2,0.3-0.4,0.5-0.5,0.6c-0.1,0.1-0.2,0.1-0.3,0.2c-0.1,0-0.1,0-0.2,0c0,0-0.1,0-0.1,0c0,0-0.1,0-0.1,0l0.1-0.4h0.2
		c0,0.1,0,0.1,0.1,0.1c0.1,0,0.2,0,0.3-0.1c0.1-0.1,0.2-0.2,0.4-0.4c0-0.2-0.1-0.5-0.2-0.8c-0.1-0.3-0.1-0.6-0.1-0.6
		c0-0.1-0.1-0.2-0.1-0.2c0,0,0,0-0.1,0c0,0-0.1,0-0.1,0.1c0,0-0.1,0.1-0.1,0.2l-0.1-0.1c0.1-0.1,0.2-0.2,0.3-0.3
		C157,51.6,157.1,51.6,157.2,51.6L157.2,51.6z"/>
	<path class="st59" d="M160.2,52.6h2.4v0.3h-2.4V52.6L160.2,52.6z M160.2,51.8h2.4v0.3h-2.4V51.8L160.2,51.8z"/>
	<path class="st59" d="M165.8,50.7c0.1,0,0.2,0,0.3,0l-0.1,0.3h-0.2c0-0.1,0-0.1-0.1-0.2c0,0-0.1,0-0.1,0c-0.1,0-0.1,0-0.2,0.1
		c-0.1,0-0.1,0.1-0.1,0.2c0,0.1-0.1,0.2-0.1,0.3l0,0.2h0.5l0,0.2h-0.5l-0.4,1.7c-0.1,0.3-0.2,0.5-0.3,0.6c-0.1,0.1-0.3,0.2-0.5,0.2
		c-0.1,0-0.1,0-0.1,0l0-0.2c0,0,0,0,0.1,0c0.1,0,0.1,0,0.1,0c0,0,0.1-0.1,0.1-0.2s0.1-0.2,0.1-0.3l0.4-1.8h-0.3l0-0.1
		c0.1,0,0.1,0,0.2,0c0,0,0.1,0,0.1,0c0,0,0,0,0.1-0.1c0,0,0-0.1,0.1-0.2c0.1-0.2,0.2-0.4,0.3-0.5C165.4,50.8,165.6,50.7,165.8,50.7
		L165.8,50.7z"/>
	<path class="st59" d="M167.7,50.7l0.1,0.1c-0.3,0.1-0.5,0.3-0.7,0.6c-0.1,0.3-0.2,0.7-0.2,1.1c0,0.5,0.1,0.8,0.2,1.1
		c0.1,0.3,0.4,0.5,0.7,0.6l0,0.1c-0.4-0.1-0.7-0.3-0.9-0.6c-0.2-0.3-0.3-0.7-0.3-1.2c0-0.5,0.1-0.9,0.3-1.2S167.4,50.8,167.7,50.7
		L167.7,50.7z"/>
	<path class="st59" d="M168.7,51.6c0,0,0.1,0,0.1,0c0,0,0.1,0,0.1,0c0,0,0,0,0.1,0.1c0,0,0,0.1,0.1,0.1c0,0.1,0,0.1,0,0.2
		c0,0.1,0,0.2,0,0.2h0c0.1-0.2,0.2-0.3,0.3-0.4c0.1-0.1,0.1-0.1,0.2-0.2s0.1-0.1,0.1-0.1c0,0,0.1,0,0.2,0c0.1,0,0.1,0,0.1,0
		l-0.1,0.4h-0.1c0-0.1,0-0.1-0.1-0.1c0,0,0,0,0,0s0,0,0,0c0,0,0,0-0.1,0.1c0,0-0.1,0.1-0.1,0.1s-0.1,0.1-0.1,0.2l-0.1,0.2
		c0,0.1,0,0.2,0.1,0.3s0,0.2,0.1,0.2c0,0.1,0,0.1,0,0.1c0,0,0,0.1,0,0.1s0,0,0,0s0,0,0.1,0c0,0,0.1,0,0.1,0c0,0,0.1-0.1,0.1-0.2
		l0.1,0.1c-0.1,0.1-0.2,0.2-0.2,0.3c-0.1,0.1-0.2,0.1-0.3,0.1c-0.1,0-0.1,0-0.1,0c0,0-0.1-0.1-0.1-0.1c0,0-0.1-0.1-0.1-0.2
		c0-0.2-0.1-0.3-0.1-0.4h0c-0.1,0.2-0.2,0.3-0.3,0.4c-0.1,0.1-0.1,0.1-0.2,0.2c0,0-0.1,0.1-0.1,0.1s-0.1,0-0.2,0c-0.1,0-0.1,0-0.1,0
		l0.1-0.4h0.1c0,0.1,0,0.1,0.1,0.1c0,0,0,0,0.1,0c0,0,0,0,0.1-0.1c0,0,0.1-0.1,0.2-0.2c0.1-0.1,0.2-0.2,0.3-0.4c0-0.1,0-0.2-0.1-0.3
		c0-0.1,0-0.2-0.1-0.3c0-0.1,0-0.1-0.1-0.2c0,0,0,0,0-0.1c0,0,0,0-0.1,0c0,0-0.1,0-0.1,0c0,0,0,0-0.1,0.1c0,0-0.1,0.1-0.1,0.1
		l-0.1-0.1c0.1-0.1,0.2-0.2,0.2-0.3C168.5,51.6,168.6,51.6,168.7,51.6L168.7,51.6z"/>
	<path class="st59" d="M170.3,50.7c0.4,0.1,0.7,0.3,0.9,0.6s0.3,0.7,0.3,1.2c0,0.5-0.1,0.9-0.3,1.2c-0.2,0.3-0.5,0.5-0.9,0.6l0-0.1
		c0.3-0.1,0.5-0.3,0.7-0.6c0.1-0.3,0.2-0.7,0.2-1.1c0-0.4-0.1-0.8-0.2-1.1c-0.1-0.3-0.4-0.5-0.7-0.6L170.3,50.7z"/>
</g>
</svg>
