<?xml version="1.0" encoding="utf-8"?>
<!-- Generator: Adobe Illustrator 23.0.2, SVG Export Plug-In . SVG Version: 6.00 Build 0)  -->
<svg version="1.0" id="Layer_1" xmlns="http://www.w3.org/2000/svg" xmlns:xlink="http://www.w3.org/1999/xlink" x="0px" y="0px"
	 viewBox="0 0 200 200" style="enable-background:new 0 0 200 200;" xml:space="preserve">
<style type="text/css">
	.st0{fill:none;stroke:#000000;stroke-width:1.2999;stroke-miterlimit:8;}
	.st1{fill-rule:evenodd;clip-rule:evenodd;}
	.st2{clip-path:url(#SVGID_2_);fill:none;stroke:#000000;stroke-width:1.2999;stroke-miterlimit:8;}
	.st3{clip-path:url(#SVGID_2_);fill-rule:evenodd;clip-rule:evenodd;}
	.st4{clip-path:url(#SVGID_2_);}
	.st5{clip-path:url(#SVGID_4_);fill-rule:evenodd;clip-rule:evenodd;}
	.st6{clip-path:url(#SVGID_4_);}
	.st7{clip-path:url(#SVGID_6_);fill-rule:evenodd;clip-rule:evenodd;}
	.st8{clip-path:url(#SVGID_6_);}
	.st9{clip-path:url(#SVGID_8_);fill-rule:evenodd;clip-rule:evenodd;}
	.st10{clip-path:url(#SVGID_8_);}
	.st11{clip-path:url(#SVGID_10_);fill-rule:evenodd;clip-rule:evenodd;}
	.st12{clip-path:url(#SVGID_10_);}
	.st13{clip-path:url(#SVGID_12_);fill-rule:evenodd;clip-rule:evenodd;}
	.st14{clip-path:url(#SVGID_12_);}
	.st15{clip-path:url(#SVGID_14_);fill-rule:evenodd;clip-rule:evenodd;}
	.st16{clip-path:url(#SVGID_14_);}
	.st17{clip-path:url(#SVGID_16_);fill-rule:evenodd;clip-rule:evenodd;}
	.st18{clip-path:url(#SVGID_16_);}
	.st19{clip-path:url(#SVGID_18_);fill-rule:evenodd;clip-rule:evenodd;}
	.st20{clip-path:url(#SVGID_18_);}
	.st21{clip-path:url(#SVGID_20_);fill-rule:evenodd;clip-rule:evenodd;}
	.st22{clip-path:url(#SVGID_20_);}
	.st23{clip-path:url(#SVGID_22_);fill-rule:evenodd;clip-rule:evenodd;}
	.st24{clip-path:url(#SVGID_22_);}
	.st25{clip-path:url(#SVGID_24_);fill-rule:evenodd;clip-rule:evenodd;}
	.st26{clip-path:url(#SVGID_24_);}
	.st27{clip-path:url(#SVGID_26_);fill-rule:evenodd;clip-rule:evenodd;}
	.st28{clip-path:url(#SVGID_26_);}
	.st29{clip-path:url(#SVGID_28_);fill-rule:evenodd;clip-rule:evenodd;}
	.st30{clip-path:url(#SVGID_28_);}
	.st31{clip-path:url(#SVGID_30_);fill-rule:evenodd;clip-rule:evenodd;}
	.st32{clip-path:url(#SVGID_30_);}
	.st33{clip-path:url(#SVGID_32_);fill-rule:evenodd;clip-rule:evenodd;}
	.st34{clip-path:url(#SVGID_32_);}
	.st35{clip-path:url(#SVGID_34_);fill-rule:evenodd;clip-rule:evenodd;}
	.st36{clip-path:url(#SVGID_34_);}
	.st37{clip-path:url(#SVGID_36_);fill-rule:evenodd;clip-rule:evenodd;}
	.st38{clip-path:url(#SVGID_36_);}
	.st39{clip-path:url(#SVGID_38_);fill:none;stroke:#000000;stroke-width:0.9749;stroke-miterlimit:8;}
</style>
<g>
	<line class="st0" x1="9.2" y1="115.8" x2="175.2" y2="116.7"/>
	<polygon class="st1" points="174.6,114.7 178.5,116.7 174.6,118.6 174.6,114.7 	"/>
	<g>
		<defs>
			<polygon id="SVGID_1_" points="9.1,198.3 195.3,198.3 195.3,-0.2 9.1,-0.2 9.1,198.3 			"/>
		</defs>
		<clipPath id="SVGID_2_">
			<use xlink:href="#SVGID_1_"  style="overflow:visible;"/>
		</clipPath>
		<line class="st2" x1="25.4" y1="185.9" x2="25.4" y2="16.6"/>
		<polygon class="st3" points="27.3,17.3 25.4,13.4 23.4,17.3 27.3,17.3 		"/>
		<g class="st4">
			<defs>
				<polygon id="SVGID_3_" points="9.1,198.3 195.3,198.3 195.3,-0.2 9.1,-0.2 9.1,198.3 				"/>
			</defs>
			<clipPath id="SVGID_4_">
				<use xlink:href="#SVGID_3_"  style="overflow:visible;"/>
			</clipPath>
			<path class="st5" d="M14.9,8.6c0.2,0,0.4,0,0.5,0.1c0.1,0,0.2,0.1,0.3,0.2s0.2,0.2,0.3,0.4c0.1,0.2,0.1,0.4,0.2,0.6
				s0.1,0.5,0.2,0.9c0.1,0.7,0.2,1.3,0.4,2.1c0.1,0.7,0.2,1.4,0.3,2c0.5-0.7,0.9-1.4,1.3-2.1c0.3-0.7,0.6-1.3,0.7-1.8
				c0.1-0.5,0.2-0.9,0.2-1.2c0-0.2-0.1-0.4-0.2-0.5c-0.1-0.1-0.3-0.1-0.5-0.2l0.1-0.4h2l0.2,0.4c-0.4,1.1-0.9,2.2-1.6,3.4
				c-0.6,1.2-1.4,2.4-2.2,3.5c-0.8,1.1-1.5,1.9-2,2.4c-0.4,0.3-0.7,0.6-1.1,0.7c-0.3,0.1-0.6,0.2-0.9,0.2c-0.1,0-0.2,0-0.4,0
				c-0.1,0-0.2,0-0.3-0.1l0.3-1.5h0.6c0,0.3,0.1,0.5,0.3,0.5c0.3,0,0.6-0.2,1-0.6s0.9-0.9,1.4-1.7c-0.1-0.9-0.3-2-0.6-3.2
				c-0.3-1.3-0.4-2.2-0.5-2.5c-0.1-0.4-0.2-0.6-0.3-0.7c-0.1-0.1-0.2-0.1-0.3-0.1c-0.2,0-0.3,0.1-0.5,0.2s-0.3,0.4-0.5,0.7L12.8,10
				c0.4-0.5,0.7-0.9,1-1.1C14.1,8.7,14.5,8.6,14.9,8.6L14.9,8.6z"/>
			<g class="st6">
				<defs>
					<polygon id="SVGID_5_" points="9.1,198.3 195.3,198.3 195.3,-0.2 9.1,-0.2 9.1,198.3 					"/>
				</defs>
				<clipPath id="SVGID_6_">
					<use xlink:href="#SVGID_5_"  style="overflow:visible;"/>
				</clipPath>
				<path class="st7" d="M182.7,122.6c0.2,0,0.3,0,0.4,0.1c0.1,0,0.2,0.1,0.3,0.2c0.1,0.1,0.2,0.2,0.2,0.3s0.1,0.3,0.2,0.5
					c0.1,0.2,0.1,0.4,0.2,0.7s0.1,0.6,0.2,0.9h0.1c0.5-0.7,0.9-1.2,1.1-1.5s0.5-0.6,0.6-0.7c0.2-0.2,0.3-0.3,0.5-0.3
					c0.2-0.1,0.4-0.1,0.6-0.1c0.2,0,0.4,0,0.6,0.1l-0.3,1.4h-0.5c0-0.2-0.1-0.3-0.3-0.3c0,0-0.1,0-0.1,0c-0.1,0-0.1,0-0.2,0.1
					c-0.1,0.1-0.2,0.1-0.3,0.3c-0.1,0.1-0.3,0.3-0.5,0.5c-0.2,0.2-0.4,0.4-0.5,0.7l-0.5,0.6c0.1,0.5,0.2,0.9,0.3,1.3
					c0.1,0.4,0.2,0.7,0.2,0.9c0.1,0.2,0.1,0.4,0.2,0.6c0,0.1,0.1,0.2,0.2,0.3c0.1,0.1,0.1,0.1,0.2,0.1s0.1,0,0.2,0
					c0.1,0,0.3-0.1,0.4-0.2s0.3-0.3,0.6-0.7l0.5,0.3c-0.4,0.5-0.7,0.9-1,1.1c-0.3,0.2-0.6,0.3-1,0.3c-0.2,0-0.4,0-0.6-0.1
					c-0.2-0.1-0.3-0.2-0.4-0.4c-0.1-0.2-0.2-0.4-0.3-0.8c-0.2-0.6-0.3-1.1-0.3-1.5h-0.1c-0.5,0.8-0.9,1.3-1.2,1.6
					c-0.3,0.3-0.5,0.6-0.6,0.7c-0.2,0.2-0.3,0.3-0.5,0.3c-0.2,0.1-0.4,0.1-0.6,0.1c-0.2,0-0.4,0-0.6-0.1l0.3-1.4h0.5
					c0,0.2,0.1,0.3,0.3,0.3c0.1,0,0.1,0,0.2-0.1c0.1,0,0.2-0.1,0.3-0.3c0.1-0.1,0.4-0.4,0.6-0.7c0.3-0.3,0.6-0.8,1.1-1.4
					c-0.1-0.4-0.2-0.8-0.2-1.2c-0.1-0.4-0.2-0.7-0.3-1c-0.1-0.3-0.2-0.5-0.2-0.6s-0.1-0.2-0.2-0.2c-0.1,0-0.1-0.1-0.2-0.1
					c-0.1,0-0.2,0-0.3,0.1c-0.1,0-0.2,0.1-0.3,0.3c-0.1,0.1-0.2,0.3-0.4,0.6l-0.5-0.3c0.3-0.5,0.6-0.8,0.9-1.1
					C182,122.7,182.3,122.6,182.7,122.6L182.7,122.6z"/>
				<g class="st8">
					<defs>
						<polygon id="SVGID_7_" points="9.1,198.3 195.3,198.3 195.3,-0.2 9.1,-0.2 9.1,198.3 						"/>
					</defs>
					<clipPath id="SVGID_8_">
						<use xlink:href="#SVGID_7_"  style="overflow:visible;"/>
					</clipPath>
					<path class="st9" d="M17.2,123.2c-0.5,0-1,0.2-1.4,0.7c-0.4,0.4-0.7,1.1-0.9,1.9s-0.3,1.5-0.3,2.1c0,0.6,0.1,1,0.3,1.2
						s0.6,0.4,1,0.4c0.5,0,0.9-0.2,1.3-0.7c0.4-0.4,0.7-1.1,0.9-1.9c0.2-0.8,0.3-1.5,0.3-2.1c0-0.5-0.1-1-0.3-1.2
						S17.6,123.2,17.2,123.2L17.2,123.2z M17.3,122.6c0.8,0,1.4,0.2,1.9,0.7c0.4,0.4,0.6,1.1,0.6,1.9c0,0.6-0.1,1.2-0.3,1.9
						s-0.5,1.2-0.8,1.7c-0.4,0.5-0.8,0.8-1.3,1c-0.5,0.2-1.1,0.3-1.7,0.3c-0.8,0-1.4-0.2-1.8-0.7s-0.7-1.1-0.7-1.9
						c0-0.4,0.1-0.9,0.2-1.4c0.2-0.7,0.4-1.4,0.8-1.9c0.4-0.5,0.8-1,1.4-1.2C16.1,122.7,16.7,122.6,17.3,122.6L17.3,122.6z"/>
					<g class="st10">
						<defs>
							<polygon id="SVGID_9_" points="9.1,198.3 195.3,198.3 195.3,-0.2 9.1,-0.2 9.1,198.3 							"/>
						</defs>
						<clipPath id="SVGID_10_">
							<use xlink:href="#SVGID_9_"  style="overflow:visible;"/>
						</clipPath>
						<path class="st11" d="M105.6,191.2c-0.3,0-0.5,0.1-0.7,0.4s-0.4,0.6-0.5,1.1c0.4,0,0.7,0,0.9-0.1c0.3-0.1,0.5-0.2,0.6-0.3
							c0.1-0.1,0.2-0.3,0.2-0.6c0-0.2,0-0.3-0.1-0.4C105.9,191.2,105.8,191.2,105.6,191.2L105.6,191.2z M93.1,191.2
							c-0.3,0-0.5,0.1-0.7,0.3s-0.4,0.5-0.5,0.8c-0.1,0.4-0.2,0.7-0.2,1.1c0,0.3,0,0.5,0.1,0.6c0.1,0.1,0.2,0.2,0.4,0.2
							c0.1,0,0.3,0,0.4-0.1c0.1-0.1,0.3-0.2,0.4-0.4s0.3-0.4,0.3-0.6s0.2-0.4,0.2-0.7c0.1-0.3,0.1-0.5,0.1-0.7c0-0.2,0-0.3-0.1-0.4
							C93.5,191.2,93.3,191.2,93.1,191.2L93.1,191.2z M89.3,190.9h0.2l-0.5,2.4c-0.1,0.2-0.1,0.4-0.1,0.6c0,0.1,0,0.2,0,0.2
							s0.1,0.1,0.2,0.1c0.1,0,0.2,0,0.2-0.1c0.1-0.1,0.2-0.2,0.4-0.4l0.2,0.2c-0.2,0.3-0.5,0.4-0.6,0.5c-0.2,0.1-0.3,0.1-0.5,0.1
							c-0.2,0-0.3-0.1-0.4-0.2c-0.1-0.1-0.1-0.3-0.1-0.5c0-0.2,0-0.4,0.1-0.7l0.3-1.2c0.1-0.3,0.1-0.4,0.1-0.6c0-0.1,0-0.2-0.1-0.2
							c-0.1,0-0.2-0.1-0.3-0.1l0-0.2L89.3,190.9L89.3,190.9z M105.8,190.9c0.3,0,0.5,0.1,0.7,0.2c0.2,0.1,0.2,0.3,0.2,0.6
							c0,0.4-0.2,0.8-0.6,1c-0.4,0.2-1,0.3-1.8,0.3c0,0.2,0,0.3,0,0.5c0,0.3,0.1,0.5,0.2,0.6c0.1,0.1,0.3,0.2,0.5,0.2
							c0.2,0,0.4-0.1,0.6-0.2s0.4-0.3,0.6-0.5l0.2,0.2c-0.2,0.3-0.5,0.5-0.7,0.6s-0.5,0.2-0.9,0.2c-0.4,0-0.7-0.1-0.9-0.3
							c-0.2-0.2-0.3-0.5-0.3-0.9c0-0.3,0-0.6,0.1-0.9s0.2-0.6,0.4-0.8s0.4-0.4,0.7-0.6S105.4,190.9,105.8,190.9L105.8,190.9z
							 M100.7,190.9c0.2,0,0.3,0.1,0.4,0.2c0.1,0.1,0.1,0.2,0.1,0.4c0,0.1,0,0.3-0.1,0.4l0,0c0.2-0.3,0.5-0.6,0.7-0.7
							c0.2-0.2,0.5-0.2,0.7-0.2c0.2,0,0.3,0,0.5,0l-0.2,0.9h-0.4c0-0.1,0-0.2-0.1-0.2c0-0.1-0.1-0.1-0.1-0.1c0,0-0.1,0-0.1,0
							c-0.1,0-0.2,0-0.3,0.1c-0.1,0.1-0.2,0.2-0.4,0.4c-0.1,0.2-0.2,0.3-0.3,0.5c-0.1,0.2-0.1,0.4-0.2,0.6l-0.4,1.6H100l0.6-2.4
							c0-0.2,0.1-0.3,0.1-0.4s0-0.2,0-0.2c0-0.1,0-0.2,0-0.2s-0.1-0.1-0.2-0.1c-0.1,0-0.2,0-0.2,0.1s-0.2,0.2-0.4,0.4l-0.2-0.2
							c0.2-0.2,0.4-0.4,0.6-0.5S100.5,190.9,100.7,190.9L100.7,190.9z M96.2,190.9c0.2,0,0.3,0.1,0.4,0.2s0.1,0.3,0.1,0.4
							c0,0.2,0,0.5-0.1,0.8l-0.2,0.7c0,0.2-0.1,0.3-0.1,0.4c0,0.1,0,0.2,0,0.2c0,0.1,0,0.1,0,0.2c0,0.2,0,0.3,0.1,0.4
							c0.1,0.1,0.2,0.1,0.3,0.1c0.1,0,0.2,0,0.3-0.1c0.1-0.1,0.3-0.2,0.4-0.4c0.1-0.2,0.2-0.3,0.3-0.5c0.1-0.2,0.2-0.4,0.2-0.6
							l0.4-1.6H99l-0.6,2.4c-0.1,0.2-0.1,0.4-0.1,0.6c0,0.1,0,0.2,0,0.2s0.1,0.1,0.2,0.1c0.1,0,0.2,0,0.2-0.1
							c0.1-0.1,0.2-0.2,0.4-0.4l0.2,0.2c-0.2,0.2-0.4,0.4-0.6,0.5c-0.2,0.1-0.3,0.2-0.5,0.2c-0.2,0-0.3-0.1-0.4-0.2
							c-0.1-0.1-0.1-0.2-0.1-0.4c0-0.1,0-0.3,0.1-0.4l0,0c-0.3,0.4-0.5,0.6-0.7,0.8s-0.5,0.3-0.7,0.3s-0.4-0.1-0.5-0.2
							c-0.1-0.1-0.2-0.3-0.2-0.6c0-0.2,0-0.4,0.1-0.7l0.2-1c0.1-0.3,0.1-0.5,0.1-0.6c0-0.1,0-0.2,0-0.2c0,0-0.1-0.1-0.2-0.1
							c-0.1,0-0.2,0-0.2,0.1s-0.2,0.2-0.4,0.4l-0.2-0.2c0.2-0.2,0.4-0.4,0.5-0.4c0.1-0.1,0.2-0.1,0.3-0.2
							C96,190.9,96.1,190.9,96.2,190.9L96.2,190.9z M93.1,190.9c0.2,0,0.3,0,0.5,0.1s0.3,0.1,0.4,0.2l0.4-0.3l0.2,0.1l-0.4,1.8
							c0,0.1-0.1,0.4-0.2,0.9c-0.1,0.5-0.2,0.9-0.3,1.1s-0.1,0.4-0.2,0.6c-0.1,0.2-0.2,0.3-0.4,0.5c-0.2,0.1-0.3,0.2-0.6,0.3
							c-0.2,0.1-0.5,0.1-0.8,0.1c-1,0-1.4-0.3-1.4-0.8c0-0.1,0-0.3,0.1-0.4c0.1-0.1,0.2-0.2,0.4-0.4l0.3,0.2c0,0.1-0.1,0.1-0.1,0.2
							s-0.1,0.1-0.1,0.2c0,0.1,0,0.1,0,0.2c0,0.2,0.1,0.3,0.2,0.4s0.3,0.1,0.6,0.1c0.3,0,0.6-0.1,0.8-0.2c0.2-0.1,0.4-0.4,0.5-0.7
							c0.1-0.3,0.3-0.8,0.4-1.4l-0.1,0c-0.2,0.3-0.5,0.6-0.7,0.7s-0.4,0.2-0.7,0.2c-0.3,0-0.5-0.1-0.6-0.3s-0.2-0.5-0.2-0.9
							c0-0.4,0.1-0.9,0.3-1.3c0.2-0.4,0.4-0.7,0.7-1C92.4,191,92.7,190.9,93.1,190.9L93.1,190.9z M89.2,189.5h0.7l-0.2,0.7H89
							L89.2,189.5L89.2,189.5z M87,189.1c0.2,0,0.5,0,0.6,0.1l-0.1,0.6h-0.3c0-0.1-0.1-0.2-0.1-0.3c-0.1-0.1-0.1-0.1-0.3-0.1
							c-0.1,0-0.3,0-0.4,0.1c-0.1,0.1-0.2,0.2-0.3,0.4c-0.1,0.2-0.1,0.4-0.2,0.6l-0.1,0.4h1l-0.1,0.4h-1l-0.7,3.3
							c-0.1,0.6-0.3,1-0.5,1.2c-0.2,0.3-0.5,0.4-0.9,0.4c-0.1,0-0.2,0-0.3,0l0.1-0.3c0,0,0.1,0,0.2,0c0.1,0,0.2,0,0.3-0.1
							s0.2-0.2,0.2-0.3c0.1-0.1,0.1-0.3,0.2-0.6l0.8-3.6h-0.6l0.1-0.3c0.2,0,0.3,0,0.4,0s0.1,0,0.2-0.1c0,0,0.1-0.1,0.1-0.1
							s0.1-0.2,0.1-0.3c0.1-0.5,0.3-0.8,0.6-1C86.3,189.3,86.6,189.1,87,189.1L87,189.1z"/>
						<g class="st12">
							<defs>
								<polygon id="SVGID_11_" points="9.1,198.3 195.3,198.3 195.3,-0.2 9.1,-0.2 9.1,198.3 								"/>
							</defs>
							<clipPath id="SVGID_12_">
								<use xlink:href="#SVGID_11_"  style="overflow:visible;"/>
							</clipPath>
							<path class="st13" d="M111.9,189.1l0.1,0.3c-0.6,0.2-1,0.6-1.3,1.1s-0.4,1.3-0.4,2.1c0,0.9,0.1,1.6,0.4,2.2
								c0.3,0.6,0.7,1,1.3,1.2l-0.1,0.3c-0.7-0.2-1.3-0.6-1.7-1.3c-0.4-0.6-0.6-1.4-0.6-2.3c0-0.9,0.2-1.7,0.6-2.3
								S111.2,189.3,111.9,189.1L111.9,189.1z"/>
							<g class="st14">
								<defs>
									<polygon id="SVGID_13_" points="9.1,198.3 195.3,198.3 195.3,-0.2 9.1,-0.2 9.1,198.3 									"/>
								</defs>
								<clipPath id="SVGID_14_">
									<use xlink:href="#SVGID_13_"  style="overflow:visible;"/>
								</clipPath>
								<path class="st15" d="M114.7,189.3h0.2c0,0.2,0,0.6,0,1v3.3c0,0.1,0,0.3,0,0.3c0,0.1,0,0.1,0.1,0.2c0,0,0.1,0.1,0.2,0.1
									s0.2,0,0.3,0.1s0.3,0,0.5,0v0.3h-2.8v-0.3c0.3,0,0.5,0,0.6-0.1c0.1,0,0.2-0.1,0.3-0.1c0.1,0,0.1-0.1,0.1-0.2s0-0.2,0-0.4
									v-3.1c0-0.1,0-0.2-0.1-0.2s-0.1-0.1-0.2-0.1c-0.1,0-0.2,0-0.3,0.1s-0.3,0.2-0.6,0.3l-0.2-0.3L114.7,189.3L114.7,189.3z"/>
								<g class="st16">
									<defs>
										<polygon id="SVGID_15_" points="9.1,198.3 195.3,198.3 195.3,-0.2 9.1,-0.2 9.1,198.3 										"/>
									</defs>
									<clipPath id="SVGID_16_">
										<use xlink:href="#SVGID_15_"  style="overflow:visible;"/>
									</clipPath>
									<path class="st17" d="M118.7,189.3c0.3,0,0.5,0,0.8,0.1c0.2,0.1,0.4,0.2,0.5,0.4c0.1,0.2,0.2,0.4,0.2,0.6
										c0,0.2,0,0.4-0.1,0.6c-0.1,0.2-0.2,0.3-0.4,0.4c-0.2,0.1-0.4,0.2-0.6,0.4v0c0.2,0,0.3,0.1,0.4,0.1c0.1,0.1,0.3,0.2,0.4,0.3
										c0.1,0.1,0.2,0.2,0.3,0.4s0.1,0.3,0.1,0.5c0,0.3-0.1,0.6-0.2,0.8c-0.1,0.2-0.3,0.4-0.6,0.5c-0.3,0.1-0.6,0.2-1,0.2
										c-0.2,0-0.5,0-0.7-0.1c-0.3,0-0.5-0.1-0.7-0.2v-0.8h0.5c0.1,0.3,0.2,0.5,0.4,0.6c0.1,0.1,0.3,0.2,0.6,0.2
										c0.3,0,0.6-0.1,0.7-0.3c0.2-0.2,0.3-0.4,0.3-0.8c0-0.4-0.1-0.7-0.3-0.8c-0.2-0.2-0.6-0.3-1-0.3h-0.3v-0.3
										c0.3,0,0.6-0.1,0.9-0.2c0.2-0.1,0.4-0.3,0.5-0.4c0.1-0.2,0.2-0.4,0.2-0.6c0-0.3-0.1-0.5-0.2-0.7s-0.4-0.2-0.7-0.2
										c-0.2,0-0.4,0.1-0.6,0.2s-0.3,0.3-0.3,0.6h-0.5v-0.7c0.3-0.1,0.6-0.2,0.8-0.3C118.2,189.4,118.5,189.3,118.7,189.3
										L118.7,189.3z"/>
									<g class="st18">
										<defs>
											<polygon id="SVGID_17_" points="9.1,198.3 195.3,198.3 195.3,-0.2 9.1,-0.2 9.1,198.3 											"/>
										</defs>
										<clipPath id="SVGID_18_">
											<use xlink:href="#SVGID_17_"  style="overflow:visible;"/>
										</clipPath>
										<path class="st19" d="M121.1,189.1c0.7,0.2,1.3,0.6,1.7,1.3c0.4,0.6,0.6,1.4,0.6,2.3c0,0.9-0.2,1.7-0.6,2.3
											c-0.4,0.6-1,1.1-1.7,1.3L121,196c0.6-0.2,1-0.6,1.3-1.2c0.3-0.6,0.4-1.3,0.4-2.2c0-0.9-0.1-1.6-0.4-2.1
											c-0.3-0.6-0.7-0.9-1.3-1.1L121.1,189.1z"/>
										<g class="st20">
											<defs>
												<polygon id="SVGID_19_" points="9.1,198.3 195.3,198.3 195.3,-0.2 9.1,-0.2 9.1,198.3 												"/>
											</defs>
											<clipPath id="SVGID_20_">
												<use xlink:href="#SVGID_19_"  style="overflow:visible;"/>
											</clipPath>
											<path class="st21" d="M96.2,21c0.2,0,0.3,0,0.4,0.1c0.1,0,0.2,0.1,0.2,0.2c0.1,0.1,0.1,0.2,0.2,0.3
												c0.1,0.1,0.1,0.3,0.2,0.4c0,0.2,0.1,0.4,0.2,0.7c0.1,0.5,0.2,1,0.3,1.6c0.1,0.6,0.2,1.1,0.2,1.6c0.4-0.6,0.7-1.1,1-1.6
												c0.3-0.5,0.5-1,0.6-1.4c0.1-0.4,0.2-0.7,0.2-1c0-0.2,0-0.3-0.1-0.4c-0.1-0.1-0.2-0.1-0.4-0.1l0.1-0.3h1.6l0.2,0.3
												c-0.3,0.8-0.7,1.7-1.2,2.6c-0.5,0.9-1.1,1.8-1.7,2.7c-0.6,0.9-1.1,1.5-1.6,1.9c-0.3,0.3-0.6,0.5-0.8,0.6
												c-0.2,0.1-0.4,0.1-0.7,0.1c-0.1,0-0.2,0-0.3,0c-0.1,0-0.2,0-0.3-0.1l0.3-1.1h0.5c0,0.3,0.1,0.4,0.3,0.4
												c0.2,0,0.5-0.1,0.8-0.4c0.3-0.3,0.7-0.7,1.1-1.3c-0.1-0.7-0.3-1.5-0.5-2.5c-0.2-1-0.3-1.7-0.4-1.9
												c-0.1-0.3-0.2-0.5-0.3-0.6c-0.1-0.1-0.1-0.1-0.2-0.1c-0.1,0-0.2,0.1-0.4,0.2c-0.1,0.1-0.2,0.3-0.4,0.5l-0.4-0.3
												c0.3-0.4,0.5-0.7,0.8-0.9C95.7,21,95.9,21,96.2,21L96.2,21z"/>
											<g class="st22">
												<defs>
													<polygon id="SVGID_21_" points="9.1,198.3 195.3,198.3 195.3,-0.2 9.1,-0.2 9.1,198.3 													"/>
												</defs>
												<clipPath id="SVGID_22_">
													<use xlink:href="#SVGID_21_"  style="overflow:visible;"/>
												</clipPath>
												<path class="st23" d="M105.5,24.1h7.3v0.8h-7.3V24.1L105.5,24.1z M105.5,21.6h7.3v0.8h-7.3V21.6L105.5,21.6z"/>
												<g class="st24">
													<defs>
														<polygon id="SVGID_23_" points="9.1,198.3 195.3,198.3 195.3,-0.2 9.1,-0.2 9.1,198.3 														"/>
													</defs>
													<clipPath id="SVGID_24_">
														<use xlink:href="#SVGID_23_"  style="overflow:visible;"/>
													</clipPath>
													<path class="st25" d="M124.4,21c0.2,0,0.4,0,0.6,0.1c0.2,0,0.3,0.1,0.4,0.2c0.1,0.1,0.2,0.2,0.3,0.4
														c0.1,0.2,0.1,0.3,0.2,0.5c0,0.2,0.1,0.5,0.1,0.8v2.2c0,0.3,0,0.5,0,0.6c0,0.1,0,0.2,0.1,0.3c0,0.1,0.1,0.1,0.2,0.2
														c0.1,0,0.2,0.1,0.4,0.1v0.3h-2.3v-0.3c0.2,0,0.3-0.1,0.3-0.1c0.1,0,0.1-0.1,0.2-0.1c0-0.1,0.1-0.2,0.1-0.3
														c0-0.1,0-0.3,0-0.6v-1.5c0-0.3,0-0.5,0-0.8s0-0.4-0.1-0.6c0-0.1-0.1-0.3-0.1-0.3c-0.1-0.1-0.1-0.1-0.2-0.2
														c-0.1-0.1-0.2-0.1-0.3-0.1c-0.1,0-0.2-0.1-0.4-0.1c-0.2,0-0.3,0-0.4,0.1c-0.1,0.1-0.3,0.2-0.5,0.3
														c-0.2,0.1-0.3,0.3-0.4,0.4c-0.1,0.1-0.1,0.3-0.1,0.5v2.2c0,0.3,0,0.6,0,0.7c0,0.1,0.1,0.2,0.2,0.3
														c0.1,0.1,0.2,0.1,0.4,0.2v0.3h-2.3v-0.3c0.2,0,0.3-0.1,0.3-0.1c0.1,0,0.1-0.1,0.2-0.1c0-0.1,0.1-0.2,0.1-0.3
														c0-0.1,0-0.3,0-0.6v-2.6c0-0.3,0-0.5,0-0.6c0-0.2,0-0.3-0.1-0.4c0-0.1-0.1-0.2-0.2-0.2c-0.1,0-0.2-0.1-0.4-0.1V21
														l1.4-0.1h0.4l-0.1,1l0.1,0c0.3-0.3,0.5-0.5,0.7-0.6s0.4-0.2,0.5-0.3C124,21,124.2,21,124.4,21L124.4,21z M118.9,18.2
														h0.4v7c0,0.3,0,0.6,0,0.7c0,0.1,0.1,0.2,0.2,0.3c0.1,0.1,0.2,0.1,0.4,0.2v0.3h-2.3v-0.3c0.2-0.1,0.3-0.1,0.4-0.2
														c0.1-0.1,0.1-0.1,0.2-0.2s0.1-0.2,0.1-0.3s0-0.3,0-0.5v-5c0-0.4,0-0.6,0-0.8c0-0.1,0-0.3,0-0.4c0-0.1-0.1-0.2-0.1-0.2
														c0-0.1-0.1-0.1-0.2-0.1c-0.1,0-0.2-0.1-0.4-0.1v-0.3L118.9,18.2L118.9,18.2z"/>
													<g class="st26">
														<defs>
															<polygon id="SVGID_25_" points="9.1,198.3 195.3,198.3 195.3,-0.2 9.1,-0.2 9.1,198.3 															"/>
														</defs>
														<clipPath id="SVGID_26_">
															<use xlink:href="#SVGID_25_"  style="overflow:visible;"/>
														</clipPath>
														<path class="st27" d="M131.5,20.9c0.1,0,0.2,0,0.3,0c0.1,0,0.2,0.1,0.2,0.1c0.1,0.1,0.1,0.1,0.2,0.2
															c0.1,0.1,0.1,0.2,0.2,0.4c0.1,0.2,0.1,0.3,0.1,0.6c0,0.2,0.1,0.5,0.1,0.7h0.1c0.4-0.5,0.7-0.9,0.9-1.2
															c0.2-0.2,0.4-0.4,0.5-0.6c0.1-0.1,0.3-0.2,0.4-0.3s0.3-0.1,0.5-0.1c0.2,0,0.3,0,0.5,0.1l-0.2,1.1h-0.4
															c0-0.2-0.1-0.2-0.2-0.2c0,0-0.1,0-0.1,0c0,0-0.1,0-0.1,0.1c-0.1,0-0.1,0.1-0.3,0.2c-0.1,0.1-0.2,0.3-0.4,0.4
															c-0.1,0.2-0.3,0.3-0.4,0.5l-0.4,0.5c0.1,0.4,0.1,0.7,0.2,1c0.1,0.3,0.1,0.5,0.2,0.7c0,0.2,0.1,0.3,0.1,0.4
															c0,0.1,0.1,0.2,0.1,0.2c0,0.1,0.1,0.1,0.1,0.1c0,0,0.1,0,0.2,0c0.1,0,0.2,0,0.3-0.1c0.1-0.1,0.2-0.3,0.4-0.6l0.4,0.3
															c-0.3,0.4-0.5,0.7-0.7,0.9c-0.2,0.2-0.5,0.3-0.8,0.3c-0.2,0-0.3,0-0.4-0.1c-0.1-0.1-0.2-0.2-0.3-0.3
															c-0.1-0.1-0.2-0.3-0.2-0.6c-0.1-0.5-0.2-0.9-0.2-1.2h-0.1c-0.4,0.6-0.7,1-0.9,1.3c-0.2,0.3-0.4,0.4-0.5,0.6
															c-0.1,0.1-0.3,0.2-0.4,0.3c-0.1,0-0.3,0.1-0.5,0.1c-0.2,0-0.3,0-0.5-0.1l0.2-1.1h0.4c0,0.2,0.1,0.2,0.2,0.2
															c0.1,0,0.1,0,0.2,0c0.1,0,0.1-0.1,0.3-0.2c0.1-0.1,0.3-0.3,0.5-0.5c0.2-0.2,0.5-0.6,0.9-1.1c-0.1-0.3-0.1-0.6-0.2-0.9
															c-0.1-0.3-0.1-0.6-0.2-0.8c-0.1-0.2-0.1-0.4-0.2-0.5s-0.1-0.1-0.1-0.2c0,0-0.1,0-0.2,0c-0.1,0-0.2,0-0.2,0.1
															c-0.1,0-0.1,0.1-0.2,0.2c-0.1,0.1-0.2,0.2-0.3,0.4l-0.4-0.3c0.2-0.4,0.5-0.7,0.7-0.8S131.2,20.9,131.5,20.9
															L131.5,20.9z"/>
														<g class="st28">
															<defs>
																<polygon id="SVGID_27_" points="9.1,198.3 195.3,198.3 195.3,-0.2 9.1,-0.2 9.1,198.3 																"/>
															</defs>
															<clipPath id="SVGID_28_">
																<use xlink:href="#SVGID_27_"  style="overflow:visible;"/>
															</clipPath>
															<path class="st29" d="M43.1,121.8l0.1,0.3c-0.7,0.2-1.2,0.6-1.5,1.3s-0.5,1.4-0.5,2.4c0,1,0.2,1.8,0.5,2.4
																c0.3,0.6,0.8,1.1,1.5,1.3l-0.1,0.3c-0.8-0.2-1.5-0.7-1.9-1.4c-0.4-0.7-0.7-1.6-0.7-2.6c0-1,0.2-1.9,0.7-2.6
																C41.7,122.5,42.3,122.1,43.1,121.8L43.1,121.8z"/>
															<g class="st30">
																<defs>
																	<polygon id="SVGID_29_" points="9.1,198.3 195.3,198.3 195.3,-0.2 9.1,-0.2 9.1,198.3 																	"/>
																</defs>
																<clipPath id="SVGID_30_">
																	<use xlink:href="#SVGID_29_"  style="overflow:visible;"/>
																</clipPath>
																<path class="st31" d="M46.1,122.1h0.2c0,0.3,0,0.6,0,1.1v3.6c0,0.2,0,0.3,0,0.4c0,0.1,0.1,0.2,0.1,0.2
																	s0.1,0.1,0.2,0.1c0.1,0,0.2,0.1,0.3,0.1c0.1,0,0.3,0,0.5,0v0.3h-3.1v-0.3c0.3,0,0.5,0,0.7-0.1
																	c0.1,0,0.2-0.1,0.3-0.1c0.1,0,0.1-0.1,0.2-0.2c0-0.1,0-0.2,0-0.4v-3.4c0-0.1,0-0.2-0.1-0.2c0-0.1-0.1-0.1-0.2-0.1
																	c-0.1,0-0.2,0-0.4,0.1c-0.2,0.1-0.4,0.2-0.6,0.4l-0.2-0.3L46.1,122.1L46.1,122.1z"/>
																<g class="st32">
																	<defs>
																		<polygon id="SVGID_31_" points="9.1,198.3 195.3,198.3 195.3,-0.2 9.1,-0.2 9.1,198.3 																		"/>
																	</defs>
																	<clipPath id="SVGID_32_">
																		<use xlink:href="#SVGID_31_"  style="overflow:visible;"/>
																	</clipPath>
																	<path class="st33" d="M48.8,127h0.7c0,0.2,0.1,0.4,0.1,0.6c0,0.2,0,0.4-0.1,0.5c-0.1,0.2-0.2,0.3-0.3,0.5
																		c-0.1,0.2-0.4,0.3-0.6,0.5l-0.2-0.3c0.1-0.1,0.2-0.3,0.3-0.4c0.1-0.1,0.1-0.2,0.1-0.4c0-0.1,0-0.3,0-0.5
																		C48.8,127.4,48.8,127.2,48.8,127L48.8,127z"/>
																	<g class="st34">
																		<defs>
																			<polygon id="SVGID_33_" points="9.1,198.3 195.3,198.3 195.3,-0.2 9.1,-0.2 9.1,198.3 																			"/>
																		</defs>
																		<clipPath id="SVGID_34_">
																			<use xlink:href="#SVGID_33_"  style="overflow:visible;"/>
																		</clipPath>
																		<path class="st35" d="M52.4,122.5c-0.2,0-0.4,0.1-0.5,0.2c-0.1,0.1-0.2,0.3-0.3,0.5c-0.1,0.2-0.1,0.5-0.2,0.8
																			c0,0.3-0.1,0.7-0.1,1.1c0,0.9,0.1,1.6,0.3,2s0.4,0.6,0.8,0.6c0.3,0,0.6-0.2,0.8-0.6c0.2-0.4,0.2-1,0.2-1.9
																			c0-0.7,0-1.2-0.1-1.6c-0.1-0.4-0.2-0.7-0.4-0.9C52.8,122.6,52.6,122.5,52.4,122.5L52.4,122.5z M52.4,122.1
																			c0.6,0,1.1,0.2,1.4,0.7s0.5,1.2,0.5,2.2c0,1-0.2,1.8-0.5,2.3c-0.3,0.5-0.8,0.8-1.4,0.8c-0.6,0-1.1-0.2-1.4-0.7
																			c-0.3-0.5-0.4-1.2-0.4-2.2c0-0.5,0-1,0.1-1.3c0.1-0.4,0.2-0.7,0.4-0.9c0.2-0.2,0.4-0.4,0.6-0.5
																			C51.9,122.2,52.2,122.1,52.4,122.1L52.4,122.1z"/>
																		<g class="st36">
																			<defs>
																				<polygon id="SVGID_35_" points="9.1,198.3 195.3,198.3 195.3,-0.2 9.1,-0.2 9.1,198.3 																				"/>
																			</defs>
																			<clipPath id="SVGID_36_">
																				<use xlink:href="#SVGID_35_"  style="overflow:visible;"/>
																			</clipPath>
																			<path class="st37" d="M55.1,121.8c0.8,0.2,1.5,0.7,1.9,1.4c0.4,0.7,0.7,1.6,0.7,2.6c0,1-0.2,1.9-0.7,2.6
																				c-0.4,0.7-1.1,1.2-1.9,1.4l-0.1-0.3c0.7-0.2,1.1-0.6,1.5-1.3c0.3-0.6,0.5-1.5,0.5-2.4c0-1-0.2-1.7-0.5-2.4
																				c-0.3-0.6-0.8-1.1-1.5-1.3L55.1,121.8z"/>
																			<g class="st38">
																				<defs>
																					<polygon id="SVGID_37_" points="9.1,198.3 195.3,198.3 195.3,-0.2 9.1,-0.2 9.1,198.3 																					
																						"/>
																				</defs>
																				<clipPath id="SVGID_38_">
																					<use xlink:href="#SVGID_37_"  style="overflow:visible;"/>
																				</clipPath>
																				<path class="st39" d="M30.9,185.7c0.9-23.4,0.9-46.2,6.3-69.3c5.4-23.2,10.2-35.6,28.1-67.8
																					c11.2-17.4,22.5-30.1,36.3-39.1"/>
																			</g>
																		</g>
																	</g>
																</g>
															</g>
														</g>
													</g>
												</g>
											</g>
										</g>
									</g>
								</g>
							</g>
						</g>
					</g>
				</g>
			</g>
		</g>
	</g>
</g>
</svg>
