<?xml version="1.0" encoding="utf-8"?>
<!-- Generator: Adobe Illustrator 23.0.2, SVG Export Plug-In . SVG Version: 6.00 Build 0)  -->
<svg version="1.1" id="Layer_1" xmlns="http://www.w3.org/2000/svg" xmlns:xlink="http://www.w3.org/1999/xlink" x="0px" y="0px"
	 viewBox="0 0 200 200" style="enable-background:new 0 0 200 200;" xml:space="preserve">
<style type="text/css">
	.st0{fill:none;stroke:#000000;stroke-width:1.0522;stroke-miterlimit:8;stroke-dasharray:7.1172,3.954;}
	.st1{clip-path:url(#SVGID_2_);fill:none;stroke:#000000;stroke-width:1.0522;stroke-miterlimit:8;stroke-dasharray:7.1172,3.954;}
	.st2{clip-path:url(#SVGID_2_);}
	.st3{clip-path:url(#SVGID_4_);fill:none;stroke:#000000;stroke-width:1.0521;stroke-miterlimit:8;}
	.st4{clip-path:url(#SVGID_4_);fill-rule:evenodd;clip-rule:evenodd;}
	.st5{clip-path:url(#SVGID_4_);}
	.st6{clip-path:url(#SVGID_6_);fill:none;stroke:#000000;stroke-width:1.0521;stroke-miterlimit:8;}
	.st7{clip-path:url(#SVGID_6_);fill-rule:evenodd;clip-rule:evenodd;}
	.st8{clip-path:url(#SVGID_6_);}
	.st9{clip-path:url(#SVGID_8_);fill-rule:evenodd;clip-rule:evenodd;}
	.st10{clip-path:url(#SVGID_8_);}
	.st11{clip-path:url(#SVGID_10_);fill-rule:evenodd;clip-rule:evenodd;}
	.st12{clip-path:url(#SVGID_10_);}
	.st13{clip-path:url(#SVGID_12_);fill-rule:evenodd;clip-rule:evenodd;}
	.st14{clip-path:url(#SVGID_12_);}
	.st15{clip-path:url(#SVGID_14_);fill-rule:evenodd;clip-rule:evenodd;}
	.st16{clip-path:url(#SVGID_14_);}
	.st17{clip-path:url(#SVGID_16_);fill-rule:evenodd;clip-rule:evenodd;}
	.st18{clip-path:url(#SVGID_16_);}
	.st19{clip-path:url(#SVGID_18_);fill-rule:evenodd;clip-rule:evenodd;}
	.st20{clip-path:url(#SVGID_18_);}
	.st21{clip-path:url(#SVGID_20_);fill-rule:evenodd;clip-rule:evenodd;}
	.st22{clip-path:url(#SVGID_20_);}
	.st23{clip-path:url(#SVGID_22_);fill:none;stroke:#000000;stroke-width:1.0521;stroke-miterlimit:8;}
	.st24{clip-path:url(#SVGID_22_);}
	.st25{clip-path:url(#SVGID_24_);fill-rule:evenodd;clip-rule:evenodd;}
	.st26{clip-path:url(#SVGID_24_);}
	.st27{clip-path:url(#SVGID_26_);fill-rule:evenodd;clip-rule:evenodd;}
	.st28{clip-path:url(#SVGID_26_);}
	.st29{clip-path:url(#SVGID_28_);fill-rule:evenodd;clip-rule:evenodd;}
	.st30{clip-path:url(#SVGID_28_);}
	.st31{clip-path:url(#SVGID_30_);fill-rule:evenodd;clip-rule:evenodd;}
	.st32{clip-path:url(#SVGID_30_);}
	.st33{clip-path:url(#SVGID_32_);fill-rule:evenodd;clip-rule:evenodd;}
	.st34{clip-path:url(#SVGID_32_);}
	.st35{clip-path:url(#SVGID_34_);fill-rule:evenodd;clip-rule:evenodd;}
	.st36{clip-path:url(#SVGID_34_);}
	.st37{clip-path:url(#SVGID_36_);fill-rule:evenodd;clip-rule:evenodd;}
	.st38{clip-path:url(#SVGID_36_);}
	.st39{clip-path:url(#SVGID_38_);fill-rule:evenodd;clip-rule:evenodd;}
	.st40{clip-path:url(#SVGID_38_);}
	.st41{clip-path:url(#SVGID_40_);fill-rule:evenodd;clip-rule:evenodd;}
	.st42{clip-path:url(#SVGID_40_);}
	.st43{clip-path:url(#SVGID_42_);fill-rule:evenodd;clip-rule:evenodd;}
	.st44{clip-path:url(#SVGID_42_);fill:none;stroke:#000000;stroke-width:0.3507;stroke-miterlimit:8;}
	.st45{clip-path:url(#SVGID_42_);}
	.st46{clip-path:url(#SVGID_44_);fill-rule:evenodd;clip-rule:evenodd;}
	.st47{clip-path:url(#SVGID_44_);}
	.st48{clip-path:url(#SVGID_46_);fill-rule:evenodd;clip-rule:evenodd;}
	.st49{clip-path:url(#SVGID_46_);}
	.st50{clip-path:url(#SVGID_48_);fill-rule:evenodd;clip-rule:evenodd;}
	.st51{clip-path:url(#SVGID_48_);}
	.st52{clip-path:url(#SVGID_50_);fill-rule:evenodd;clip-rule:evenodd;}
	.st53{clip-path:url(#SVGID_50_);}
	.st54{clip-path:url(#SVGID_52_);fill-rule:evenodd;clip-rule:evenodd;}
	.st55{fill-rule:evenodd;clip-rule:evenodd;}
</style>
<g>
	<line class="st0" x1="84.7" y1="75" x2="84.7" y2="157.9"/>
	<g>
		<defs>
			<polygon id="SVGID_1_" points="0,186.8 197.3,186.8 200,15.9 2.7,15.9 2.7,186.8 			"/>
		</defs>
		<clipPath id="SVGID_2_">
			<use xlink:href="#SVGID_1_"  style="overflow:visible;"/>
		</clipPath>
		<line class="st1" x1="84.7" y1="75" x2="33" y2="75"/>
		<g class="st2">
			<defs>
				<polygon id="SVGID_3_" points="0,186.8 197.3,186.8 200,15.9 2.7,15.9 2.7,186.8 				"/>
			</defs>
			<clipPath id="SVGID_4_">
				<use xlink:href="#SVGID_3_"  style="overflow:visible;"/>
			</clipPath>
			<line class="st3" x1="24.7" y1="158.2" x2="188.7" y2="158.2"/>
			<polygon class="st4" points="188.1,156.6 191.3,158.2 188.1,159.8 188.1,156.6 			"/>
			<g class="st5">
				<defs>
					<polygon id="SVGID_5_" points="0,186.8 197.3,186.8 200,15.9 2.7,15.9 2.7,186.8 					"/>
				</defs>
				<clipPath id="SVGID_6_">
					<use xlink:href="#SVGID_5_"  style="overflow:visible;"/>
				</clipPath>
				<line class="st6" x1="32.7" y1="166.5" x2="32.7" y2="29.5"/>
				<polygon class="st7" points="34.3,30 32.7,26.9 31.2,30 34.3,30 				"/>
				<g class="st8">
					<defs>
						<polygon id="SVGID_7_" points="0,186.8 197.3,186.8 200,15.9 2.7,15.9 2.7,186.8 						"/>
					</defs>
					<clipPath id="SVGID_8_">
						<use xlink:href="#SVGID_7_"  style="overflow:visible;"/>
					</clipPath>
					<path class="st9" d="M24.2,23c0.2,0,0.3,0,0.4,0.1c0.1,0,0.2,0.1,0.2,0.2c0.1,0.1,0.2,0.2,0.2,0.3c0.1,0.1,0.1,0.3,0.2,0.5
						c0,0.2,0.1,0.4,0.2,0.7c0.1,0.5,0.2,1.1,0.3,1.7c0.1,0.6,0.2,1.1,0.2,1.6c0.4-0.6,0.7-1.1,1-1.7s0.5-1,0.6-1.4
						c0.1-0.4,0.2-0.7,0.2-1c0-0.2,0-0.3-0.1-0.4s-0.2-0.1-0.4-0.1l0.1-0.3h1.6l0.2,0.3c-0.3,0.9-0.7,1.8-1.3,2.7
						c-0.5,1-1.1,1.9-1.8,2.8c-0.6,0.9-1.2,1.6-1.6,2c-0.3,0.3-0.6,0.5-0.9,0.6c-0.2,0.1-0.5,0.1-0.7,0.1c-0.1,0-0.2,0-0.3,0
						s-0.2,0-0.3-0.1l0.3-1.2H23c0,0.3,0.1,0.4,0.3,0.4c0.2,0,0.5-0.1,0.8-0.4c0.3-0.3,0.7-0.7,1.1-1.3c-0.1-0.7-0.3-1.6-0.5-2.6
						c-0.2-1.1-0.4-1.8-0.4-2c-0.1-0.3-0.2-0.5-0.3-0.6c-0.1-0.1-0.1-0.1-0.2-0.1c-0.1,0-0.3,0.1-0.4,0.2c-0.1,0.1-0.3,0.3-0.4,0.6
						l-0.4-0.3c0.3-0.4,0.5-0.7,0.8-0.9S23.9,23,24.2,23L24.2,23z"/>
					<g class="st10">
						<defs>
							<polygon id="SVGID_9_" points="0,186.8 197.3,186.8 200,15.9 2.7,15.9 2.7,186.8 							"/>
						</defs>
						<clipPath id="SVGID_10_">
							<use xlink:href="#SVGID_9_"  style="overflow:visible;"/>
						</clipPath>
						<path class="st11" d="M189.8,162.1c0.1,0,0.2,0,0.3,0c0.1,0,0.2,0.1,0.3,0.1c0.1,0.1,0.1,0.1,0.2,0.2c0.1,0.1,0.1,0.2,0.2,0.4
							c0.1,0.2,0.1,0.4,0.2,0.6c0,0.2,0.1,0.5,0.1,0.7h0.1c0.4-0.6,0.7-1,0.9-1.2c0.2-0.3,0.4-0.4,0.5-0.6s0.3-0.2,0.4-0.3
							c0.1-0.1,0.3-0.1,0.5-0.1c0.2,0,0.4,0,0.5,0.1l-0.2,1.1h-0.4c0-0.2-0.1-0.3-0.2-0.3c0,0-0.1,0-0.1,0c0,0-0.1,0-0.2,0.1
							c-0.1,0-0.1,0.1-0.3,0.2s-0.2,0.3-0.4,0.4c-0.1,0.2-0.3,0.4-0.4,0.5l-0.4,0.5c0.1,0.4,0.1,0.7,0.2,1c0.1,0.3,0.1,0.5,0.2,0.7
							c0.1,0.2,0.1,0.3,0.1,0.5c0,0.1,0.1,0.2,0.1,0.2c0,0.1,0.1,0.1,0.1,0.1c0,0,0.1,0,0.2,0c0.1,0,0.2,0,0.3-0.1
							c0.1-0.1,0.3-0.3,0.5-0.6l0.4,0.3c-0.3,0.4-0.5,0.7-0.8,0.9c-0.2,0.2-0.5,0.3-0.8,0.3c-0.2,0-0.3,0-0.5-0.1
							c-0.1-0.1-0.2-0.2-0.3-0.3s-0.2-0.4-0.2-0.7c-0.1-0.5-0.2-0.9-0.2-1.2h-0.1c-0.4,0.6-0.8,1.1-1,1.3c-0.2,0.3-0.4,0.5-0.5,0.6
							c-0.1,0.1-0.3,0.2-0.4,0.3c-0.1,0.1-0.3,0.1-0.5,0.1c-0.2,0-0.4,0-0.5-0.1l0.2-1.1h0.4c0,0.2,0.1,0.3,0.2,0.3
							c0.1,0,0.1,0,0.2,0s0.2-0.1,0.3-0.2c0.1-0.1,0.3-0.3,0.5-0.6s0.5-0.6,0.9-1.1c-0.1-0.3-0.1-0.6-0.2-0.9
							c-0.1-0.3-0.1-0.6-0.2-0.8s-0.1-0.4-0.2-0.5c0-0.1-0.1-0.1-0.1-0.2c-0.1,0-0.1,0-0.2,0c-0.1,0-0.2,0-0.2,0.1
							c-0.1,0-0.1,0.1-0.2,0.2c-0.1,0.1-0.2,0.2-0.3,0.5l-0.4-0.3c0.3-0.4,0.5-0.7,0.7-0.9C189.2,162.2,189.5,162.1,189.8,162.1
							L189.8,162.1z"/>
						<g class="st12">
							<defs>
								<polygon id="SVGID_11_" points="0,186.8 197.3,186.8 200,15.9 2.7,15.9 2.7,186.8 								"/>
							</defs>
							<clipPath id="SVGID_12_">
								<use xlink:href="#SVGID_11_"  style="overflow:visible;"/>
							</clipPath>
							<path class="st13" d="M26.2,162.6c-0.4,0-0.8,0.2-1.1,0.5c-0.3,0.4-0.6,0.9-0.8,1.5c-0.2,0.7-0.3,1.2-0.3,1.7
								c0,0.5,0.1,0.8,0.3,1c0.2,0.2,0.5,0.3,0.8,0.3c0.4,0,0.8-0.2,1.1-0.5c0.3-0.4,0.6-0.9,0.7-1.5c0.2-0.7,0.3-1.2,0.3-1.7
								c0-0.4-0.1-0.8-0.3-1C26.9,162.7,26.6,162.6,26.2,162.6L26.2,162.6z M26.3,162.1c0.7,0,1.2,0.2,1.5,0.5s0.5,0.9,0.5,1.5
								c0,0.5-0.1,1-0.2,1.5c-0.2,0.5-0.4,1-0.7,1.4c-0.3,0.4-0.6,0.6-1,0.8c-0.4,0.2-0.9,0.3-1.4,0.3c-0.6,0-1.1-0.2-1.5-0.5
								c-0.4-0.4-0.5-0.9-0.5-1.5c0-0.3,0-0.7,0.1-1.1c0.1-0.6,0.3-1.1,0.6-1.5c0.3-0.4,0.7-0.8,1.1-1
								C25.3,162.3,25.8,162.1,26.3,162.1L26.3,162.1z"/>
							<g class="st14">
								<defs>
									<polygon id="SVGID_13_" points="0,186.8 197.3,186.8 200,15.9 2.7,15.9 2.7,186.8 									"/>
								</defs>
								<clipPath id="SVGID_14_">
									<use xlink:href="#SVGID_13_"  style="overflow:visible;"/>
								</clipPath>
								<path class="st15" d="M110.4,179.5c-0.3,0-0.5,0.1-0.8,0.4c-0.3,0.3-0.5,0.7-0.6,1.1c0.4,0,0.7,0,1-0.1
									c0.3-0.1,0.5-0.2,0.6-0.3s0.2-0.3,0.2-0.6c0-0.2,0-0.3-0.1-0.4C110.7,179.6,110.6,179.5,110.4,179.5L110.4,179.5z M97,179.5
									c-0.3,0-0.5,0.1-0.8,0.3c-0.2,0.2-0.4,0.5-0.5,0.9c-0.1,0.4-0.2,0.8-0.2,1.1c0,0.3,0,0.5,0.1,0.6c0.1,0.1,0.2,0.2,0.4,0.2
									c0.1,0,0.3,0,0.4-0.1c0.1-0.1,0.3-0.2,0.4-0.5s0.3-0.4,0.4-0.6c0.1-0.2,0.2-0.4,0.2-0.7c0.1-0.3,0.1-0.5,0.1-0.7
									c0-0.2,0-0.4-0.1-0.5C97.3,179.6,97.2,179.5,97,179.5L97,179.5z M92.9,179.2h0.2l-0.6,2.6c-0.1,0.3-0.1,0.5-0.1,0.6
									c0,0.1,0,0.2,0.1,0.2c0,0,0.1,0.1,0.2,0.1c0.1,0,0.2,0,0.3-0.1c0.1-0.1,0.2-0.2,0.4-0.4l0.2,0.2c-0.3,0.3-0.5,0.5-0.7,0.6
									c-0.2,0.1-0.4,0.2-0.6,0.2c-0.2,0-0.3-0.1-0.4-0.2c-0.1-0.1-0.2-0.3-0.2-0.5c0-0.2,0-0.5,0.1-0.8l0.3-1.3
									c0.1-0.3,0.1-0.5,0.1-0.6c0-0.1,0-0.2-0.1-0.3c-0.1,0-0.2-0.1-0.3-0.1l0-0.2L92.9,179.2L92.9,179.2z M110.6,179.2
									c0.3,0,0.6,0.1,0.7,0.2c0.2,0.1,0.2,0.3,0.2,0.6c0,0.5-0.2,0.8-0.7,1c-0.4,0.2-1.1,0.3-1.9,0.3c0,0.2,0,0.3,0,0.5
									c0,0.3,0.1,0.5,0.2,0.6c0.1,0.1,0.3,0.2,0.6,0.2c0.3,0,0.5-0.1,0.7-0.2c0.2-0.1,0.4-0.3,0.6-0.5l0.3,0.3
									c-0.3,0.3-0.5,0.5-0.8,0.7c-0.3,0.1-0.6,0.2-1,0.2c-0.4,0-0.7-0.1-0.9-0.4c-0.2-0.2-0.3-0.6-0.3-1c0-0.3,0.1-0.6,0.2-0.9
									c0.1-0.3,0.3-0.6,0.5-0.9c0.2-0.3,0.5-0.5,0.8-0.6C109.9,179.3,110.2,179.2,110.6,179.2L110.6,179.2z M105.1,179.2
									c0.2,0,0.3,0.1,0.4,0.2c0.1,0.1,0.2,0.3,0.2,0.4c0,0.1,0,0.3-0.1,0.4l0.1,0c0.3-0.4,0.5-0.6,0.8-0.8
									c0.2-0.2,0.5-0.3,0.8-0.3c0.2,0,0.4,0,0.5,0l-0.2,0.9H107c0-0.1,0-0.2-0.1-0.3c0-0.1-0.1-0.1-0.1-0.1c0,0-0.1,0-0.2,0
									c-0.1,0-0.2,0-0.3,0.1c-0.1,0.1-0.2,0.2-0.4,0.4c-0.1,0.2-0.3,0.4-0.3,0.5c-0.1,0.2-0.2,0.4-0.2,0.6l-0.4,1.8h-0.7l0.6-2.6
									c0-0.2,0.1-0.3,0.1-0.4c0-0.1,0-0.2,0-0.2c0-0.1,0-0.2-0.1-0.2c0,0-0.1-0.1-0.2-0.1c-0.1,0-0.2,0-0.3,0.1
									c-0.1,0.1-0.2,0.2-0.4,0.4l-0.2-0.2c0.3-0.3,0.5-0.5,0.6-0.6C104.7,179.2,104.9,179.2,105.1,179.2L105.1,179.2z
									 M100.3,179.2c0.2,0,0.3,0.1,0.4,0.2s0.2,0.3,0.2,0.5c0,0.2,0,0.5-0.1,0.8l-0.2,0.7c0,0.2-0.1,0.3-0.1,0.4
									c0,0.1,0,0.2,0,0.3c0,0.1,0,0.1,0,0.2c0,0.2,0,0.3,0.1,0.4s0.2,0.1,0.3,0.1c0.1,0,0.2,0,0.4-0.1c0.1-0.1,0.3-0.2,0.4-0.4
									c0.1-0.2,0.3-0.4,0.4-0.5c0.1-0.2,0.2-0.4,0.2-0.6l0.4-1.8h0.7l-0.6,2.6c-0.1,0.3-0.1,0.5-0.1,0.6c0,0.1,0,0.2,0.1,0.2
									c0,0,0.1,0.1,0.2,0.1c0.1,0,0.2,0,0.3-0.1c0.1-0.1,0.2-0.2,0.4-0.4l0.2,0.2c-0.2,0.3-0.5,0.5-0.6,0.6
									c-0.2,0.1-0.4,0.2-0.6,0.2c-0.2,0-0.3-0.1-0.4-0.2c-0.1-0.1-0.2-0.3-0.2-0.4c0-0.1,0-0.3,0.1-0.5l0,0
									c-0.3,0.4-0.5,0.7-0.8,0.8c-0.2,0.2-0.5,0.3-0.7,0.3c-0.3,0-0.5-0.1-0.6-0.2c-0.1-0.1-0.2-0.4-0.2-0.6c0-0.2,0-0.4,0.1-0.7
									l0.3-1.1c0.1-0.3,0.1-0.5,0.1-0.6c0-0.1,0-0.2-0.1-0.2c0,0-0.1-0.1-0.2-0.1c-0.1,0-0.2,0-0.3,0.1c-0.1,0.1-0.2,0.2-0.4,0.4
									l-0.2-0.2c0.2-0.2,0.4-0.4,0.5-0.5c0.1-0.1,0.2-0.2,0.3-0.2S100.1,179.2,100.3,179.2L100.3,179.2z M96.9,179.2
									c0.2,0,0.3,0,0.5,0.1c0.2,0,0.3,0.1,0.5,0.2l0.4-0.3l0.3,0.1l-0.4,1.9c0,0.1-0.1,0.5-0.2,1c-0.1,0.6-0.2,1-0.3,1.2
									c-0.1,0.2-0.2,0.5-0.3,0.7s-0.2,0.4-0.4,0.5s-0.4,0.3-0.6,0.3c-0.2,0.1-0.5,0.1-0.8,0.1c-1,0-1.6-0.3-1.6-0.9
									c0-0.2,0-0.3,0.1-0.4c0.1-0.1,0.2-0.3,0.4-0.4l0.3,0.2c-0.1,0.1-0.1,0.1-0.1,0.2c0,0.1-0.1,0.1-0.1,0.2c0,0.1,0,0.1,0,0.2
									c0,0.2,0.1,0.4,0.2,0.5c0.1,0.1,0.4,0.1,0.7,0.1c0.3,0,0.6-0.1,0.8-0.2c0.2-0.2,0.4-0.4,0.5-0.7c0.1-0.3,0.3-0.8,0.4-1.5
									l-0.1,0c-0.3,0.4-0.5,0.6-0.7,0.8s-0.5,0.3-0.7,0.3c-0.3,0-0.5-0.1-0.7-0.3c-0.2-0.2-0.2-0.5-0.2-1c0-0.5,0.1-0.9,0.3-1.4
									c0.2-0.4,0.4-0.8,0.8-1C96.1,179.3,96.5,179.2,96.9,179.2L96.9,179.2z M92.8,177.6h0.7l-0.2,0.8h-0.7L92.8,177.6L92.8,177.6
									z M90.4,177.3c0.3,0,0.5,0,0.7,0.1l-0.2,0.7h-0.4c0-0.2-0.1-0.3-0.2-0.3c-0.1-0.1-0.2-0.1-0.3-0.1c-0.2,0-0.3,0-0.4,0.1
									s-0.2,0.2-0.3,0.4c-0.1,0.2-0.1,0.4-0.2,0.7l-0.1,0.4h1.1l-0.1,0.4h-1.1l-0.8,3.6c-0.1,0.6-0.3,1-0.6,1.3
									c-0.3,0.3-0.6,0.4-1,0.4c-0.1,0-0.2,0-0.3,0l0.1-0.4c0,0,0.1,0,0.2,0c0.1,0,0.2,0,0.3-0.1c0.1-0.1,0.2-0.2,0.2-0.3
									s0.1-0.4,0.2-0.6l0.9-3.9h-0.7l0.1-0.3c0.2,0,0.3,0,0.4,0c0.1,0,0.1,0,0.2-0.1c0,0,0.1-0.1,0.1-0.2c0-0.1,0.1-0.2,0.1-0.3
									c0.1-0.5,0.4-0.9,0.7-1.1S89.9,177.3,90.4,177.3L90.4,177.3z"/>
								<g class="st16">
									<defs>
										<polygon id="SVGID_15_" points="0,186.8 197.3,186.8 200,15.9 2.7,15.9 2.7,186.8 										"/>
									</defs>
									<clipPath id="SVGID_16_">
										<use xlink:href="#SVGID_15_"  style="overflow:visible;"/>
									</clipPath>
									<path class="st17" d="M117.2,177.2l0.1,0.3c-0.6,0.2-1.1,0.6-1.4,1.2c-0.3,0.6-0.5,1.4-0.5,2.3c0,1,0.2,1.7,0.5,2.4
										c0.3,0.6,0.8,1,1.4,1.2l-0.1,0.3c-0.8-0.2-1.4-0.7-1.8-1.4c-0.4-0.7-0.6-1.5-0.6-2.5c0-1,0.2-1.8,0.6-2.5
										C115.8,177.9,116.4,177.5,117.2,177.2L117.2,177.2z"/>
									<g class="st18">
										<defs>
											<polygon id="SVGID_17_" points="0,186.8 197.3,186.8 200,15.9 2.7,15.9 2.7,186.8 											"/>
										</defs>
										<clipPath id="SVGID_18_">
											<use xlink:href="#SVGID_17_"  style="overflow:visible;"/>
										</clipPath>
										<path class="st19" d="M119.8,177.9c-0.2,0-0.3,0.1-0.5,0.2c-0.1,0.1-0.2,0.3-0.3,0.5c-0.1,0.2-0.1,0.5-0.2,0.8
											c0,0.3,0,0.6,0,1c0,0.9,0.1,1.5,0.2,2c0.2,0.4,0.4,0.6,0.8,0.6c0.3,0,0.6-0.2,0.7-0.6c0.2-0.4,0.2-1,0.2-1.8
											c0-0.6,0-1.1-0.1-1.5c-0.1-0.4-0.2-0.7-0.3-0.8C120.2,177.9,120,177.9,119.8,177.9L119.8,177.9z M122.9,177.6h3.5v0.2
											l-2.4,5.4h-0.6V183l2.2-4.7v-0.1h-1.8c-0.1,0-0.2,0-0.3,0c-0.1,0-0.1,0.1-0.2,0.1c0,0-0.1,0.1-0.1,0.2
											c0,0.1-0.1,0.2-0.1,0.4h-0.4L122.9,177.6L122.9,177.6z M119.9,177.5c0.6,0,1,0.2,1.3,0.7c0.3,0.5,0.4,1.2,0.4,2.1
											c0,1-0.2,1.7-0.5,2.2c-0.3,0.5-0.8,0.7-1.4,0.7c-0.6,0-1-0.2-1.3-0.7c-0.3-0.5-0.4-1.2-0.4-2.1c0-0.5,0-0.9,0.1-1.3
											s0.2-0.7,0.4-0.9c0.2-0.2,0.4-0.4,0.6-0.5S119.6,177.5,119.9,177.5L119.9,177.5z"/>
										<g class="st20">
											<defs>
												<polygon id="SVGID_19_" points="0,186.8 197.3,186.8 200,15.9 2.7,15.9 2.7,186.8 												"/>
											</defs>
											<clipPath id="SVGID_20_">
												<use xlink:href="#SVGID_19_"  style="overflow:visible;"/>
											</clipPath>
											<path class="st21" d="M127.1,177.2c0.8,0.2,1.4,0.7,1.8,1.4c0.4,0.7,0.6,1.5,0.6,2.5c0,1-0.2,1.8-0.6,2.5
												c-0.4,0.7-1,1.2-1.8,1.4l-0.1-0.3c0.6-0.2,1.1-0.6,1.4-1.2s0.5-1.4,0.5-2.4c0-0.9-0.2-1.7-0.5-2.3
												c-0.3-0.6-0.8-1-1.4-1.2L127.1,177.2z"/>
											<g class="st22">
												<defs>
													<polygon id="SVGID_21_" points="0,186.8 197.3,186.8 200,15.9 2.7,15.9 2.7,186.8 													"/>
												</defs>
												<clipPath id="SVGID_22_">
													<use xlink:href="#SVGID_21_"  style="overflow:visible;"/>
												</clipPath>
												<path class="st23" d="M52,136.5c4.7-2.1,9.5-4.2,15-14.5c5.5-10.3,9-35,18.2-47.1C94.3,62.8,108,54.3,122,49.4
													c14-4.9,47.1-3.9,47.1-3.9l0,0l0,0"/>
												<g class="st24">
													<defs>
														<polygon id="SVGID_23_" points="0,186.8 197.3,186.8 200,15.9 2.7,15.9 2.7,186.8 														"/>
													</defs>
													<clipPath id="SVGID_24_">
														<use xlink:href="#SVGID_23_"  style="overflow:visible;"/>
													</clipPath>
													<path class="st25" d="M158.3,27.5c-0.2,0-0.4,0.1-0.6,0.3c-0.2,0.2-0.3,0.5-0.4,0.9c0.3,0,0.5,0,0.7-0.1
														c0.2-0.1,0.4-0.1,0.5-0.2c0.1-0.1,0.2-0.3,0.2-0.4c0-0.1,0-0.2-0.1-0.3S158.4,27.5,158.3,27.5L158.3,27.5z M158.4,27.3
														c0.2,0,0.4,0.1,0.6,0.2c0.1,0.1,0.2,0.3,0.2,0.5c0,0.3-0.2,0.6-0.5,0.8s-0.8,0.3-1.5,0.3c0,0.1,0,0.3,0,0.4
														c0,0.2,0,0.4,0.1,0.5c0.1,0.1,0.2,0.1,0.4,0.1c0.2,0,0.4,0,0.5-0.1c0.2-0.1,0.3-0.2,0.5-0.4l0.2,0.2
														c-0.2,0.2-0.4,0.4-0.6,0.5c-0.2,0.1-0.4,0.2-0.7,0.2c-0.3,0-0.5-0.1-0.7-0.3c-0.2-0.2-0.2-0.4-0.2-0.8
														c0-0.2,0-0.5,0.1-0.7c0.1-0.3,0.2-0.5,0.4-0.7c0.2-0.2,0.4-0.4,0.6-0.5C157.9,27.4,158.2,27.3,158.4,27.3L158.4,27.3z
														 M149.5,26.1h3.2l-0.2,1.1h-0.3c0-0.2,0-0.3,0-0.4c0-0.1,0-0.2-0.1-0.2c0-0.1-0.1-0.1-0.1-0.1s-0.1,0-0.2,0h-0.5
														l-0.7,3c0,0.1,0,0.1,0,0.2c0,0,0,0.1,0,0.1c0,0.1,0,0.1,0,0.1c0,0.1,0,0.1,0,0.1c0,0,0.1,0.1,0.1,0.1c0,0,0.1,0,0.2,0
														l0,0.2h-1.3l0-0.2c0.1,0,0.1,0,0.2,0c0,0,0.1-0.1,0.1-0.1c0,0,0.1-0.1,0.1-0.2s0.1-0.2,0.1-0.4l0.7-3h-0.4
														c-0.1,0-0.2,0-0.3,0.1s-0.2,0.1-0.2,0.2c-0.1,0.1-0.2,0.3-0.3,0.5h-0.3L149.5,26.1L149.5,26.1z M154.4,25.9h0.2
														l-0.5,2.1l0,0c0.2-0.3,0.4-0.4,0.6-0.6s0.3-0.2,0.5-0.2c0.2,0,0.3,0.1,0.4,0.2s0.2,0.3,0.2,0.5c0,0.1,0,0.3-0.1,0.6
														l-0.2,0.8c-0.1,0.2-0.1,0.4-0.1,0.5c0,0.1,0,0.1,0,0.2s0.1,0.1,0.1,0.1c0.1,0,0.1,0,0.2-0.1c0.1-0.1,0.2-0.1,0.3-0.3
														l0.2,0.2c-0.2,0.2-0.4,0.4-0.5,0.4c-0.1,0.1-0.3,0.1-0.4,0.1c-0.1,0-0.2,0-0.3-0.1c-0.1-0.1-0.1-0.2-0.1-0.4
														c0-0.1,0-0.3,0.1-0.6l0.1-0.5c0-0.2,0.1-0.3,0.1-0.4c0-0.1,0-0.2,0-0.2c0-0.1,0-0.2-0.1-0.3c0-0.1-0.1-0.1-0.2-0.1
														c-0.1,0-0.2,0-0.3,0.1c-0.1,0.1-0.2,0.2-0.3,0.3s-0.2,0.3-0.3,0.4s-0.1,0.3-0.2,0.5l-0.3,1.3h-0.5l0.8-3.5
														c0-0.2,0.1-0.4,0.1-0.5c0-0.1,0-0.1-0.1-0.2s-0.1-0.1-0.3-0.1l0-0.2L154.4,25.9L154.4,25.9z"/>
													<g class="st26">
														<defs>
															<polygon id="SVGID_25_" points="0,186.8 197.3,186.8 200,15.9 2.7,15.9 2.7,186.8 															"/>
														</defs>
														<clipPath id="SVGID_26_">
															<use xlink:href="#SVGID_25_"  style="overflow:visible;"/>
														</clipPath>
														<path class="st27" d="M173.7,27.7c-0.1,0-0.2,0-0.3,0.1c-0.1,0.1-0.2,0.2-0.3,0.3c-0.1,0.2-0.2,0.3-0.3,0.5
															c-0.1,0.2-0.1,0.3-0.2,0.5l0,0.1c0,0.1,0,0.2,0,0.2s0,0.1,0,0.2c0,0.2,0,0.3,0.1,0.3c0.1,0.1,0.2,0.1,0.4,0.1
															c0.1,0,0.2,0,0.3-0.1s0.2-0.1,0.3-0.2c0.1-0.1,0.2-0.2,0.2-0.3c0.1-0.1,0.1-0.2,0.2-0.4c0.1-0.1,0.1-0.3,0.1-0.5
															c0-0.2,0-0.3,0-0.4c0-0.2,0-0.4-0.1-0.5C173.9,27.7,173.8,27.7,173.7,27.7L173.7,27.7z M169.8,27.5
															c-0.2,0-0.4,0.1-0.6,0.3c-0.2,0.2-0.3,0.4-0.4,0.7c-0.1,0.3-0.1,0.6-0.1,0.9c0,0.2,0,0.4,0.1,0.5
															c0.1,0.1,0.2,0.2,0.3,0.2c0.1,0,0.3-0.1,0.4-0.2c0.1-0.1,0.3-0.3,0.4-0.5c0.1-0.2,0.2-0.5,0.3-0.8l0-0.1
															c0-0.1,0-0.2,0-0.2c0-0.1,0-0.1,0-0.2c0-0.2,0-0.3-0.1-0.3S170,27.5,169.8,27.5L169.8,27.5z M163.4,27.5
															c-0.2,0-0.4,0.1-0.6,0.3c-0.2,0.2-0.3,0.4-0.4,0.7c-0.1,0.3-0.1,0.6-0.1,0.9c0,0.2,0,0.4,0.1,0.5
															c0.1,0.1,0.2,0.2,0.3,0.2c0.1,0,0.2,0,0.3-0.1s0.2-0.2,0.3-0.3s0.2-0.3,0.3-0.4c0.1-0.1,0.1-0.3,0.2-0.5
															s0.1-0.4,0.1-0.6c0-0.2,0-0.3-0.1-0.3C163.6,27.6,163.5,27.5,163.4,27.5L163.4,27.5z M172.4,27.3c0.1,0,0.2,0,0.3,0.1
															c0.1,0.1,0.1,0.2,0.1,0.3c0,0.1,0,0.2-0.1,0.4l0,0c0.4-0.6,0.8-0.8,1.1-0.8c0.2,0,0.4,0.1,0.5,0.3
															c0.1,0.2,0.2,0.4,0.2,0.7c0,0.3-0.1,0.7-0.2,1s-0.3,0.6-0.6,0.8c-0.2,0.2-0.5,0.3-0.8,0.3c-0.3,0-0.5-0.1-0.7-0.2
															l-0.1,0.7c0,0.1,0,0.3,0,0.4c0,0.1,0,0.2,0.1,0.2c0,0,0.1,0.1,0.3,0.1l0,0.2h-1l0.7-3.3c0-0.2,0.1-0.3,0.1-0.5
															c0-0.1,0-0.1,0-0.2s-0.1-0.1-0.1-0.1c-0.1,0-0.1,0-0.2,0.1c-0.1,0.1-0.2,0.1-0.3,0.3l-0.2-0.2
															c0.2-0.2,0.3-0.3,0.5-0.4C172.1,27.3,172.2,27.3,172.4,27.3L172.4,27.3z M169.8,27.3c0.1,0,0.3,0,0.4,0
															s0.2,0.1,0.4,0.2l0.3-0.2l0.2,0l-0.5,2c0,0.2-0.1,0.3-0.1,0.5c0,0.1,0,0.1,0,0.2c0,0,0.1,0.1,0.1,0.1
															c0.1,0,0.1,0,0.2-0.1s0.2-0.1,0.3-0.3l0.2,0.2c-0.2,0.2-0.3,0.3-0.5,0.4s-0.3,0.1-0.4,0.1c-0.1,0-0.2,0-0.3-0.1
															c-0.1-0.1-0.1-0.2-0.1-0.3c0-0.1,0-0.2,0.1-0.4l0,0c-0.2,0.3-0.4,0.5-0.6,0.6s-0.4,0.2-0.6,0.2
															c-0.2,0-0.4-0.1-0.5-0.3c-0.1-0.2-0.2-0.4-0.2-0.7c0-0.4,0.1-0.7,0.2-1c0.1-0.3,0.3-0.6,0.6-0.8
															C169.2,27.4,169.5,27.3,169.8,27.3L169.8,27.3z M165.8,27.3c0.1,0,0.2,0,0.3,0.1c0.1,0.1,0.1,0.2,0.1,0.3
															c0,0.1,0,0.2-0.1,0.3l0,0c0.2-0.3,0.4-0.5,0.6-0.6s0.4-0.2,0.6-0.2c0.2,0,0.3,0,0.4,0l-0.1,0.7h-0.3
															c0-0.1,0-0.2-0.1-0.2c0,0,0-0.1-0.1-0.1c0,0-0.1,0-0.1,0c-0.1,0-0.2,0-0.2,0.1c-0.1,0.1-0.2,0.2-0.3,0.3
															c-0.1,0.1-0.2,0.3-0.3,0.4c-0.1,0.1-0.1,0.3-0.2,0.5l-0.3,1.3h-0.5l0.4-2c0-0.1,0-0.2,0.1-0.3c0-0.1,0-0.1,0-0.2
															c0-0.1,0-0.1,0-0.2c0,0-0.1-0.1-0.1-0.1c-0.1,0-0.1,0-0.2,0.1c-0.1,0.1-0.2,0.1-0.3,0.3l-0.2-0.2
															c0.2-0.2,0.3-0.3,0.5-0.4C165.6,27.3,165.7,27.3,165.8,27.3L165.8,27.3z M163.3,27.3c0.1,0,0.3,0,0.4,0
															c0.1,0,0.2,0.1,0.3,0.2l0.3-0.2l0.2,0l-0.3,1.4c0,0.1-0.1,0.4-0.2,0.8c-0.1,0.4-0.2,0.7-0.2,0.9
															c-0.1,0.2-0.1,0.3-0.2,0.5c-0.1,0.1-0.2,0.3-0.3,0.4c-0.1,0.1-0.3,0.2-0.4,0.3c-0.2,0.1-0.4,0.1-0.6,0.1
															c-0.8,0-1.2-0.2-1.2-0.7c0-0.1,0-0.2,0.1-0.3c0.1-0.1,0.2-0.2,0.3-0.3l0.2,0.2c0,0-0.1,0.1-0.1,0.1c0,0,0,0.1-0.1,0.1
															c0,0,0,0.1,0,0.2c0,0.2,0.1,0.3,0.2,0.3s0.3,0.1,0.5,0.1c0.3,0,0.5-0.1,0.6-0.2c0.2-0.1,0.3-0.3,0.4-0.6
															c0.1-0.3,0.2-0.6,0.3-1.1l0,0c-0.2,0.3-0.4,0.5-0.6,0.6c-0.2,0.1-0.4,0.2-0.6,0.2c-0.2,0-0.4-0.1-0.5-0.3
															c-0.1-0.2-0.2-0.4-0.2-0.7c0-0.4,0.1-0.7,0.2-1c0.1-0.3,0.3-0.6,0.6-0.8S163,27.3,163.3,27.3L163.3,27.3z M176.5,25.9
															h0.2l-0.5,2.1l0,0c0.2-0.3,0.4-0.4,0.6-0.6s0.3-0.2,0.5-0.2c0.2,0,0.3,0.1,0.4,0.2s0.2,0.3,0.2,0.5
															c0,0.1,0,0.3-0.1,0.6l-0.2,0.8c-0.1,0.2-0.1,0.4-0.1,0.5c0,0.1,0,0.1,0,0.2s0.1,0.1,0.1,0.1c0.1,0,0.1,0,0.2-0.1
															s0.2-0.1,0.3-0.3l0.2,0.2c-0.2,0.2-0.4,0.4-0.5,0.4c-0.1,0.1-0.3,0.1-0.4,0.1c-0.1,0-0.2,0-0.3-0.1
															c-0.1-0.1-0.1-0.2-0.1-0.4c0-0.1,0-0.3,0.1-0.6l0.1-0.5c0-0.2,0.1-0.3,0.1-0.4c0-0.1,0-0.2,0-0.2c0-0.1,0-0.2-0.1-0.3
															c0-0.1-0.1-0.1-0.2-0.1c-0.1,0-0.2,0-0.3,0.1c-0.1,0.1-0.2,0.2-0.3,0.3s-0.2,0.3-0.3,0.4s-0.1,0.3-0.2,0.5l-0.3,1.3
															h-0.5l0.8-3.5c0-0.2,0.1-0.4,0.1-0.5c0-0.1,0-0.1-0.1-0.2s-0.1-0.1-0.3-0.1l0-0.2L176.5,25.9L176.5,25.9z"/>
														<g class="st28">
															<defs>
																<polygon id="SVGID_27_" points="0,186.8 197.3,186.8 200,15.9 2.7,15.9 2.7,186.8 																"/>
															</defs>
															<clipPath id="SVGID_28_">
																<use xlink:href="#SVGID_27_"  style="overflow:visible;"/>
															</clipPath>
															<path class="st29" d="M181.9,27.6c-0.2,0-0.4,0.1-0.6,0.3c-0.2,0.2-0.3,0.4-0.4,0.8c-0.1,0.3-0.1,0.6-0.1,0.9
																c0,0.2,0,0.4,0.1,0.5s0.2,0.2,0.4,0.2c0.2,0,0.4-0.1,0.5-0.3c0.2-0.2,0.3-0.4,0.4-0.8c0.1-0.3,0.1-0.6,0.1-0.9
																c0-0.2,0-0.4-0.1-0.5C182.2,27.6,182,27.6,181.9,27.6L181.9,27.6z M181.9,27.3c0.3,0,0.6,0.1,0.8,0.3
																c0.2,0.2,0.3,0.4,0.3,0.8c0,0.2,0,0.5-0.1,0.8c-0.1,0.3-0.2,0.5-0.3,0.7c-0.1,0.2-0.3,0.3-0.5,0.4
																c-0.2,0.1-0.4,0.1-0.7,0.1c-0.3,0-0.6-0.1-0.7-0.3c-0.2-0.2-0.3-0.4-0.3-0.8c0-0.2,0-0.4,0.1-0.6
																c0.1-0.3,0.2-0.5,0.3-0.8c0.2-0.2,0.3-0.4,0.6-0.5S181.7,27.3,181.9,27.3L181.9,27.3z M186.2,25.9c0.2,0,0.4,0,0.5,0
																l-0.1,0.5h-0.3c0-0.1-0.1-0.2-0.1-0.3c0-0.1-0.1-0.1-0.2-0.1c-0.1,0-0.2,0-0.3,0.1c-0.1,0.1-0.2,0.2-0.2,0.3
																c-0.1,0.1-0.1,0.3-0.2,0.5l-0.1,0.3h0.8l-0.1,0.3h-0.8l-0.6,2.7c-0.1,0.4-0.2,0.8-0.4,1s-0.4,0.3-0.7,0.3
																c-0.1,0-0.2,0-0.2,0l0.1-0.3c0,0,0.1,0,0.1,0c0.1,0,0.2,0,0.2-0.1c0.1,0,0.1-0.1,0.2-0.2s0.1-0.3,0.2-0.5l0.7-2.9
																h-0.5l0-0.2c0.1,0,0.2,0,0.3,0c0.1,0,0.1,0,0.1-0.1c0,0,0.1-0.1,0.1-0.1c0,0,0.1-0.1,0.1-0.3
																c0.1-0.4,0.3-0.6,0.5-0.8C185.5,26,185.8,25.9,186.2,25.9L186.2,25.9z"/>
															<g class="st30">
																<defs>
																	<polygon id="SVGID_29_" points="0,186.8 197.3,186.8 200,15.9 2.7,15.9 2.7,186.8 																	"/>
																</defs>
																<clipPath id="SVGID_30_">
																	<use xlink:href="#SVGID_29_"  style="overflow:visible;"/>
																</clipPath>
																<path class="st31" d="M157.5,34.7c0.1,0,0.2,0,0.2,0c0,0,0.1,0,0.1,0.1c0,0,0.1,0.1,0.1,0.2c0,0.1,0.1,0.1,0.1,0.2
																	s0,0.2,0.1,0.4c0,0.3,0.1,0.5,0.1,0.8s0.1,0.6,0.1,0.8c0.2-0.3,0.4-0.6,0.5-0.8c0.1-0.3,0.2-0.5,0.3-0.7
																	s0.1-0.4,0.1-0.5c0-0.1,0-0.2-0.1-0.2c0,0-0.1-0.1-0.2-0.1l0-0.2h0.8l0.1,0.2c-0.2,0.4-0.4,0.9-0.6,1.4
																	c-0.3,0.5-0.6,1-0.9,1.4c-0.3,0.5-0.6,0.8-0.8,1c-0.2,0.1-0.3,0.2-0.4,0.3c-0.1,0-0.2,0.1-0.4,0.1c0,0-0.1,0-0.1,0
																	c-0.1,0-0.1,0-0.1,0l0.1-0.6h0.2c0,0.1,0,0.2,0.1,0.2c0.1,0,0.3-0.1,0.4-0.2c0.2-0.1,0.3-0.4,0.6-0.7
																	c-0.1-0.4-0.1-0.8-0.2-1.3c-0.1-0.5-0.2-0.9-0.2-1c0-0.2-0.1-0.3-0.1-0.3c0,0-0.1,0-0.1,0c-0.1,0-0.1,0-0.2,0.1
																	c-0.1,0.1-0.1,0.1-0.2,0.3l-0.2-0.1c0.1-0.2,0.3-0.4,0.4-0.4C157.2,34.7,157.4,34.7,157.5,34.7L157.5,34.7z"/>
																<g class="st32">
																	<defs>
																		<polygon id="SVGID_31_" points="0,186.8 197.3,186.8 200,15.9 2.7,15.9 2.7,186.8 																		"/>
																	</defs>
																	<clipPath id="SVGID_32_">
																		<use xlink:href="#SVGID_31_"  style="overflow:visible;"/>
																	</clipPath>
																	<path class="st33" d="M162.4,36.3h3.8v0.4h-3.8V36.3L162.4,36.3z M162.4,35h3.8v0.4h-3.8V35L162.4,35z"/>
																	<g class="st34">
																		<defs>
																			<polygon id="SVGID_33_" points="0,186.8 197.3,186.8 200,15.9 2.7,15.9 2.7,186.8 																			"/>
																		</defs>
																		<clipPath id="SVGID_34_">
																			<use xlink:href="#SVGID_33_"  style="overflow:visible;"/>
																		</clipPath>
																		<path class="st35" d="M171.3,33.2c0.2,0,0.4,0,0.5,0l-0.1,0.5h-0.3c0-0.1-0.1-0.2-0.1-0.3c0-0.1-0.1-0.1-0.2-0.1
																			c-0.1,0-0.2,0-0.3,0.1s-0.2,0.2-0.2,0.3c-0.1,0.1-0.1,0.3-0.2,0.5l-0.1,0.3h0.8l-0.1,0.3h-0.8l-0.6,2.7
																			c-0.1,0.4-0.2,0.8-0.4,1c-0.2,0.2-0.4,0.3-0.7,0.3c-0.1,0-0.2,0-0.2,0l0.1-0.3c0,0,0.1,0,0.1,0
																			c0.1,0,0.2,0,0.2-0.1s0.1-0.1,0.2-0.2c0.1-0.1,0.1-0.3,0.2-0.5l0.7-2.9h-0.5l0-0.2c0.1,0,0.2,0,0.3,0
																			s0.1,0,0.1-0.1s0.1-0.1,0.1-0.1s0.1-0.1,0.1-0.3c0.1-0.4,0.3-0.6,0.5-0.8C170.7,33.3,171,33.2,171.3,33.2
																			L171.3,33.2z"/>
																		<g class="st36">
																			<defs>
																				<polygon id="SVGID_35_" points="0,186.8 197.3,186.8 200,15.9 2.7,15.9 2.7,186.8 																				"/>
																			</defs>
																			<clipPath id="SVGID_36_">
																				<use xlink:href="#SVGID_35_"  style="overflow:visible;"/>
																			</clipPath>
																			<path class="st37" d="M174.5,33.2l0.1,0.2c-0.5,0.2-0.8,0.5-1.1,0.9c-0.2,0.5-0.3,1-0.3,1.7
																				c0,0.7,0.1,1.3,0.3,1.8s0.6,0.8,1.1,0.9l-0.1,0.2c-0.6-0.2-1.1-0.5-1.4-1s-0.5-1.2-0.5-1.9
																				c0-0.7,0.2-1.4,0.5-1.9S173.9,33.4,174.5,33.2L174.5,33.2z"/>
																			<g class="st38">
																				<defs>
																					<polygon id="SVGID_37_" points="0,186.8 197.3,186.8 200,15.9 2.7,15.9 2.7,186.8 																					"/>
																				</defs>
																				<clipPath id="SVGID_38_">
																					<use xlink:href="#SVGID_37_"  style="overflow:visible;"/>
																				</clipPath>
																				<path class="st39" d="M175.9,34.7c0.1,0,0.1,0,0.2,0s0.1,0,0.1,0.1s0.1,0.1,0.1,0.1c0,0,0.1,0.1,0.1,0.2
																					c0,0.1,0.1,0.2,0.1,0.3s0,0.2,0.1,0.4h0c0.2-0.3,0.3-0.5,0.4-0.6c0.1-0.1,0.2-0.2,0.3-0.3
																					c0.1-0.1,0.1-0.1,0.2-0.1c0.1,0,0.2,0,0.3,0c0.1,0,0.2,0,0.2,0l-0.1,0.6h-0.2c0-0.1,0-0.1-0.1-0.1
																					c0,0,0,0-0.1,0s0,0-0.1,0c0,0-0.1,0.1-0.1,0.1s-0.1,0.1-0.2,0.2c-0.1,0.1-0.1,0.2-0.2,0.3l-0.2,0.3
																					c0,0.2,0.1,0.4,0.1,0.5s0.1,0.3,0.1,0.4c0,0.1,0,0.2,0.1,0.2c0,0.1,0,0.1,0.1,0.1c0,0,0,0,0.1,0.1
																					c0,0,0.1,0,0.1,0c0.1,0,0.1,0,0.2-0.1c0.1,0,0.1-0.1,0.2-0.3l0.2,0.1c-0.1,0.2-0.3,0.4-0.4,0.5
																					c-0.1,0.1-0.3,0.1-0.4,0.1c-0.1,0-0.2,0-0.2,0c-0.1,0-0.1-0.1-0.2-0.2c0-0.1-0.1-0.2-0.1-0.3
																					c-0.1-0.3-0.1-0.5-0.1-0.6h0c-0.2,0.3-0.4,0.5-0.5,0.7s-0.2,0.2-0.3,0.3c-0.1,0.1-0.1,0.1-0.2,0.1s-0.2,0-0.3,0
																					c-0.1,0-0.2,0-0.2,0l0.1-0.6h0.2c0,0.1,0,0.1,0.1,0.1c0,0,0.1,0,0.1,0c0,0,0.1-0.1,0.1-0.1
																					c0.1-0.1,0.1-0.2,0.2-0.3c0.1-0.1,0.3-0.3,0.5-0.6c0-0.2-0.1-0.3-0.1-0.5s-0.1-0.3-0.1-0.4
																					c0-0.1-0.1-0.2-0.1-0.3c0,0,0-0.1-0.1-0.1c0,0-0.1,0-0.1,0c0,0-0.1,0-0.1,0c0,0-0.1,0.1-0.1,0.1
																					c0,0-0.1,0.1-0.2,0.2l-0.2-0.1c0.1-0.2,0.3-0.3,0.4-0.4S175.7,34.7,175.9,34.7L175.9,34.7z"/>
																				<g class="st40">
																					<defs>
																						<polygon id="SVGID_39_" points="0,186.8 197.3,186.8 200,15.9 2.7,15.9 2.7,186.8 																						"/>
																					</defs>
																					<clipPath id="SVGID_40_">
																						<use xlink:href="#SVGID_39_"  style="overflow:visible;"/>
																					</clipPath>
																					<path class="st41" d="M178.5,33.2c0.6,0.2,1.1,0.5,1.4,1s0.5,1.2,0.5,1.9c0,0.7-0.2,1.4-0.5,1.9
																						s-0.8,0.9-1.4,1l-0.1-0.2c0.5-0.2,0.8-0.5,1.1-0.9c0.2-0.5,0.3-1.1,0.3-1.8c0-0.7-0.1-1.3-0.3-1.7
																						c-0.2-0.5-0.6-0.8-1.1-0.9L178.5,33.2z"/>
																					<g class="st42">
																						<defs>
																							<polygon id="SVGID_41_" points="0,186.8 197.3,186.8 200,15.9 2.7,15.9 2.7,186.8 																							
																								"/>
																						</defs>
																						<clipPath id="SVGID_42_">
																							<use xlink:href="#SVGID_41_"  style="overflow:visible;"/>
																						</clipPath>
																						<path class="st43" d="M81.4,74.9c0-2,1.7-3.7,3.7-3.7s3.7,1.7,3.7,3.7c0,2-1.7,3.7-3.7,3.7
																							S81.4,76.9,81.4,74.9L81.4,74.9z"/>
																						<path class="st44" d="M81.4,74.9c0-2,1.7-3.7,3.7-3.7s3.7,1.7,3.7,3.7c0,2-1.7,3.7-3.7,3.7
																							S81.4,76.9,81.4,74.9L81.4,74.9z"/>
																						<g class="st45">
																							<defs>
																								<polygon id="SVGID_43_" points="0,186.8 197.3,186.8 200,15.9 2.7,15.9 2.7,186.8 																								
																									"/>
																							</defs>
																							<clipPath id="SVGID_44_">
																								<use xlink:href="#SVGID_43_"  style="overflow:visible;"/>
																							</clipPath>
																							<path class="st46" d="M11.2,70.3c0.4,0,0.8,0,1,0.1l-0.2,1h-0.5c-0.1-0.2-0.1-0.4-0.2-0.5
																								c-0.1-0.1-0.2-0.2-0.4-0.2c-0.2,0-0.4,0.1-0.6,0.2s-0.3,0.3-0.4,0.6c-0.1,0.3-0.2,0.6-0.3,1l-0.2,0.7h1.6
																								l-0.1,0.6H9.2l-1.1,5.4c-0.2,0.9-0.5,1.6-0.9,2c-0.4,0.4-0.9,0.7-1.5,0.7c-0.2,0-0.3,0-0.4,0l0.1-0.5
																								c0,0,0.1,0,0.3,0c0.2,0,0.3,0,0.5-0.1s0.3-0.3,0.4-0.5c0.1-0.2,0.2-0.6,0.3-1l1.3-5.9h-1l0.1-0.4
																								c0.3,0,0.5,0,0.6-0.1s0.2-0.1,0.3-0.1s0.1-0.1,0.2-0.2s0.1-0.3,0.2-0.5c0.2-0.7,0.6-1.3,1-1.7
																								C9.9,70.4,10.5,70.3,11.2,70.3L11.2,70.3z"/>
																							<g class="st47">
																								<defs>
																									<polygon id="SVGID_45_" points="0,186.8 197.3,186.8 200,15.9 2.7,15.9 2.7,186.8 
																																																			"/>
																								</defs>
																								<clipPath id="SVGID_46_">
																									<use xlink:href="#SVGID_45_"  style="overflow:visible;"/>
																								</clipPath>
																								<path class="st48" d="M17.6,70.2l0.2,0.5c-1,0.3-1.7,0.9-2.1,1.9c-0.5,0.9-0.7,2.1-0.7,3.5
																									c0,1.4,0.2,2.6,0.7,3.6c0.5,0.9,1.2,1.6,2.1,1.9l-0.1,0.5c-1.2-0.3-2.1-1-2.8-2s-1-2.3-1-3.8
																									c0-1.5,0.3-2.8,1-3.8S16.4,70.5,17.6,70.2L17.6,70.2z"/>
																								<g class="st49">
																									<defs>
																										<polygon id="SVGID_47_" points="0,186.8 197.3,186.8 200,15.9 2.7,15.9 2.7,186.8 
																																																					"/>
																									</defs>
																									<clipPath id="SVGID_48_">
																										<use xlink:href="#SVGID_47_"  style="overflow:visible;"/>
																									</clipPath>
																									<path class="st50" d="M21.9,73.6c-0.4,0-0.8,0.2-1.1,0.5c-0.3,0.3-0.6,0.8-0.8,1.4
																										c-0.2,0.6-0.3,1.1-0.3,1.7c0,0.4,0.1,0.7,0.2,1s0.3,0.3,0.6,0.3c0.3,0,0.5-0.1,0.8-0.4
																										c0.3-0.2,0.5-0.6,0.8-1s0.5-0.9,0.6-1.5l0.1-0.3c0-0.2,0.1-0.3,0.1-0.4c0-0.1,0-0.3,0-0.4
																										c0-0.3-0.1-0.5-0.2-0.7C22.5,73.7,22.3,73.6,21.9,73.6L21.9,73.6z M21.8,73.1c0.3,0,0.5,0,0.7,0.1
																										s0.5,0.2,0.7,0.3l0.6-0.4l0.4,0.1l-0.9,3.9c-0.1,0.4-0.1,0.7-0.1,0.9c0,0.2,0,0.3,0.1,0.4
																										c0.1,0.1,0.1,0.1,0.3,0.1c0.1,0,0.3-0.1,0.4-0.2s0.3-0.3,0.6-0.6l0.4,0.3c-0.4,0.4-0.7,0.7-0.9,0.8
																										c-0.3,0.2-0.5,0.2-0.8,0.2c-0.3,0-0.5-0.1-0.6-0.3c-0.2-0.2-0.2-0.4-0.2-0.7c0-0.2,0-0.5,0.1-0.7l-0.1,0
																										c-0.4,0.6-0.8,1-1.1,1.3c-0.4,0.3-0.7,0.4-1.1,0.4c-0.5,0-0.8-0.2-1.1-0.5c-0.2-0.3-0.4-0.8-0.4-1.4
																										c0-0.7,0.1-1.4,0.4-2s0.7-1.2,1.1-1.5S21.2,73.1,21.8,73.1L21.8,73.1z"/>
																									<g class="st51">
																										<defs>
																											<polygon id="SVGID_49_" points="0,186.8 197.3,186.8 200,15.9 2.7,15.9 2.7,186.8 
																																																							"/>
																										</defs>
																										<clipPath id="SVGID_50_">
																											<use xlink:href="#SVGID_49_"  style="overflow:visible;"/>
																										</clipPath>
																										<path class="st52" d="M25.7,70.2c1.2,0.3,2.1,1,2.8,2c0.6,1.1,1,2.3,1,3.8c0,1.5-0.3,2.8-1,3.8
																											c-0.6,1-1.6,1.7-2.8,2l-0.1-0.5c0.9-0.3,1.7-0.9,2.1-1.9s0.7-2.1,0.7-3.6c0-1.4-0.2-2.5-0.7-3.5
																											c-0.5-0.9-1.2-1.5-2.1-1.9L25.7,70.2z"/>
																										<g class="st53">
																											<defs>
																												<polygon id="SVGID_51_" points="0,186.8 197.3,186.8 200,15.9 2.7,15.9 2.7,186.8 
																																																									"/>
																											</defs>
																											<clipPath id="SVGID_52_">
																												<use xlink:href="#SVGID_51_"  style="overflow:visible;"/>
																											</clipPath>
																											<path class="st54" d="M85.2,164.1c-0.4,0-0.8,0.2-1.1,0.5c-0.3,0.3-0.6,0.8-0.8,1.4
																												c-0.2,0.6-0.3,1.1-0.3,1.7c0,0.4,0.1,0.7,0.2,1c0.1,0.2,0.3,0.3,0.6,0.3c0.3,0,0.5-0.1,0.8-0.4
																												c0.3-0.2,0.5-0.6,0.8-1c0.3-0.4,0.5-0.9,0.6-1.5l0.1-0.3c0-0.2,0.1-0.3,0.1-0.4c0-0.1,0-0.3,0-0.4
																												c0-0.3-0.1-0.5-0.2-0.7C85.8,164.2,85.6,164.1,85.2,164.1L85.2,164.1z M85.1,163.7c0.3,0,0.5,0,0.7,0.1
																												c0.2,0.1,0.5,0.2,0.7,0.3l0.6-0.4l0.4,0.1l-0.9,3.9c-0.1,0.4-0.1,0.7-0.1,0.9c0,0.2,0,0.3,0.1,0.4
																												c0.1,0.1,0.1,0.1,0.3,0.1c0.1,0,0.3-0.1,0.4-0.2c0.1-0.1,0.3-0.3,0.6-0.6l0.4,0.3
																												c-0.4,0.4-0.7,0.7-0.9,0.8c-0.3,0.2-0.5,0.2-0.8,0.2c-0.3,0-0.5-0.1-0.6-0.3s-0.2-0.4-0.2-0.7
																												c0-0.2,0-0.5,0.1-0.7l-0.1,0c-0.4,0.6-0.8,1-1.1,1.3c-0.4,0.3-0.7,0.4-1.1,0.4c-0.5,0-0.8-0.2-1.1-0.5
																												c-0.2-0.3-0.4-0.8-0.4-1.4c0-0.7,0.1-1.4,0.4-2s0.7-1.2,1.1-1.5C84,163.8,84.5,163.7,85.1,163.7
																												L85.1,163.7z"/>
																										</g>
																									</g>
																								</g>
																							</g>
																						</g>
																					</g>
																				</g>
																			</g>
																		</g>
																	</g>
																</g>
															</g>
														</g>
													</g>
												</g>
											</g>
										</g>
									</g>
								</g>
							</g>
						</g>
					</g>
				</g>
			</g>
		</g>
	</g>
</g>
<g>
	<path class="st55" d="M94.6,72.7c-0.1,0-0.3,0-0.4,0l-0.4,1.9h0.3c0.3,0,0.5,0,0.6-0.1c0.2-0.1,0.3-0.1,0.4-0.2s0.2-0.2,0.2-0.4
		s0.1-0.3,0.1-0.5c0-0.2-0.1-0.4-0.2-0.5S94.9,72.7,94.6,72.7L94.6,72.7z M93.3,72.4h1.4c0.3,0,0.5,0,0.6,0.1c0.2,0,0.3,0.1,0.4,0.2
		c0.1,0.1,0.2,0.2,0.2,0.3c0.1,0.1,0.1,0.3,0.1,0.4c0,0.3-0.1,0.6-0.2,0.8c-0.2,0.2-0.4,0.4-0.6,0.5c-0.3,0.1-0.6,0.2-0.9,0.2
		c-0.2,0-0.4,0-0.5,0l-0.2,0.9c0,0.1,0,0.2,0,0.2c0,0,0,0.1,0,0.2c0,0.1,0,0.1,0,0.1c0,0.1,0,0.1,0,0.2c0,0,0.1,0.1,0.1,0.1
		c0,0,0.1,0,0.2,0l0,0.2h-1.3l0-0.2c0.1,0,0.1,0,0.2-0.1c0,0,0.1-0.1,0.1-0.1c0-0.1,0.1-0.1,0.1-0.2c0-0.1,0.1-0.2,0.1-0.4l0.5-2.5
		c0-0.2,0.1-0.4,0.1-0.5c0-0.1,0-0.2-0.1-0.2c0,0-0.1-0.1-0.2-0.1L93.3,72.4z"/>
	<path class="st55" d="M99,72.1l0.1,0.2c-0.5,0.2-0.9,0.5-1.1,1c-0.2,0.5-0.4,1.1-0.4,1.8c0,0.7,0.1,1.4,0.4,1.9s0.6,0.8,1.1,1
		L99,78.2c-0.6-0.2-1.1-0.5-1.4-1.1c-0.3-0.5-0.5-1.2-0.5-2c0-0.8,0.2-1.4,0.5-2C97.9,72.7,98.4,72.3,99,72.1L99,72.1z"/>
	<path class="st55" d="M101.2,73.9c-0.2,0-0.4,0.1-0.6,0.3c-0.2,0.2-0.3,0.4-0.4,0.7c-0.1,0.3-0.1,0.6-0.1,0.9c0,0.2,0,0.4,0.1,0.5
		s0.2,0.2,0.3,0.2c0.1,0,0.3-0.1,0.4-0.2c0.1-0.1,0.3-0.3,0.4-0.5c0.1-0.2,0.2-0.5,0.3-0.8l0-0.1c0-0.1,0-0.2,0-0.2
		c0-0.1,0-0.1,0-0.2c0-0.2,0-0.3-0.1-0.4S101.4,73.9,101.2,73.9L101.2,73.9z M101.2,73.7c0.1,0,0.3,0,0.4,0c0.1,0,0.2,0.1,0.4,0.2
		l0.3-0.2l0.2,0.1l-0.5,2c0,0.2-0.1,0.4-0.1,0.5c0,0.1,0,0.1,0,0.2c0,0,0.1,0.1,0.1,0.1c0.1,0,0.1,0,0.2-0.1
		c0.1-0.1,0.2-0.2,0.3-0.3l0.2,0.2c-0.2,0.2-0.4,0.4-0.5,0.4c-0.1,0.1-0.3,0.1-0.4,0.1c-0.1,0-0.2,0-0.3-0.1
		c-0.1-0.1-0.1-0.2-0.1-0.3c0-0.1,0-0.2,0.1-0.4l0,0c-0.2,0.3-0.4,0.5-0.6,0.7c-0.2,0.1-0.4,0.2-0.6,0.2c-0.2,0-0.4-0.1-0.5-0.3
		s-0.2-0.4-0.2-0.7c0-0.4,0.1-0.7,0.2-1.1c0.1-0.3,0.3-0.6,0.6-0.8C100.6,73.8,100.9,73.7,101.2,73.7L101.2,73.7z"/>
	<path class="st55" d="M103.4,76h0.6c0,0.1,0,0.3,0,0.4c0,0.1,0,0.3-0.1,0.4c-0.1,0.1-0.1,0.2-0.2,0.4c-0.1,0.1-0.3,0.3-0.5,0.4
		l-0.2-0.2c0.1-0.1,0.2-0.2,0.2-0.3c0-0.1,0.1-0.2,0.1-0.3c0-0.1,0-0.2,0-0.4C103.4,76.4,103.4,76.2,103.4,76L103.4,76z"/>
	<path class="st55" d="M108.5,72.2c0.2,0,0.4,0,0.5,0.1l-0.1,0.5h-0.3c0-0.1-0.1-0.2-0.1-0.3s-0.1-0.1-0.2-0.1c-0.1,0-0.2,0-0.3,0.1
		c-0.1,0.1-0.2,0.2-0.2,0.3c-0.1,0.1-0.1,0.3-0.2,0.5l-0.1,0.3h0.8l-0.1,0.3h-0.8l-0.6,2.8c-0.1,0.5-0.2,0.8-0.5,1
		c-0.2,0.2-0.5,0.3-0.8,0.3c-0.1,0-0.2,0-0.2,0l0.1-0.3c0,0,0.1,0,0.2,0c0.1,0,0.2,0,0.2-0.1c0.1,0,0.1-0.1,0.2-0.3
		c0.1-0.1,0.1-0.3,0.2-0.5l0.7-3h-0.5l0-0.2c0.1,0,0.2,0,0.3,0s0.1,0,0.1-0.1c0,0,0.1-0.1,0.1-0.1c0,0,0.1-0.1,0.1-0.3
		c0.1-0.4,0.3-0.7,0.5-0.9C107.8,72.3,108.1,72.2,108.5,72.2L108.5,72.2z"/>
	<path class="st55" d="M115.9,71.9c0.6,0.2,1.1,0.5,1.4,1.1s0.5,1.2,0.5,2c0,0.8-0.2,1.4-0.5,2s-0.8,0.9-1.4,1.1l-0.1-0.2
		c0.5-0.2,0.9-0.5,1.1-1s0.4-1.1,0.4-1.9c0-0.7-0.1-1.3-0.4-1.8c-0.2-0.5-0.6-0.8-1.1-1L115.9,71.9z M111.7,71.9l0.1,0.2
		c-0.5,0.2-0.9,0.5-1.1,1c-0.2,0.5-0.4,1.1-0.4,1.8c0,0.7,0.1,1.4,0.4,1.9s0.6,0.8,1.1,1l-0.1,0.2c-0.6-0.2-1.1-0.5-1.4-1.1
		s-0.5-1.2-0.5-2c0-0.8,0.2-1.4,0.5-2S111.1,72,111.7,71.9L111.7,71.9z"/>
	<path class="st55" d="M114,73.9c-0.2,0-0.4,0.1-0.6,0.3c-0.2,0.2-0.3,0.4-0.4,0.7c-0.1,0.3-0.1,0.6-0.1,0.9c0,0.2,0,0.4,0.1,0.5
		s0.2,0.2,0.3,0.2c0.1,0,0.3-0.1,0.4-0.2c0.1-0.1,0.3-0.3,0.4-0.5c0.1-0.2,0.2-0.5,0.3-0.8l0-0.1c0-0.1,0-0.2,0-0.2
		c0-0.1,0-0.1,0-0.2c0-0.2,0-0.3-0.1-0.4C114.3,74,114.1,73.9,114,73.9L114,73.9z M113.9,73.7c0.1,0,0.3,0,0.4,0
		c0.1,0,0.2,0.1,0.4,0.2l0.3-0.2l0.2,0.1l-0.5,2c0,0.2-0.1,0.4-0.1,0.5c0,0.1,0,0.1,0,0.2c0,0,0.1,0.1,0.1,0.1c0.1,0,0.1,0,0.2-0.1
		c0.1-0.1,0.2-0.2,0.3-0.3l0.2,0.2c-0.2,0.2-0.4,0.4-0.5,0.4c-0.1,0.1-0.3,0.1-0.4,0.1c-0.1,0-0.2,0-0.3-0.1
		c-0.1-0.1-0.1-0.2-0.1-0.3c0-0.1,0-0.2,0.1-0.4l0,0c-0.2,0.3-0.4,0.5-0.6,0.7c-0.2,0.1-0.4,0.2-0.6,0.2c-0.2,0-0.4-0.1-0.5-0.3
		c-0.1-0.2-0.2-0.4-0.2-0.7c0-0.4,0.1-0.7,0.2-1.1c0.1-0.3,0.3-0.6,0.6-0.8C113.3,73.8,113.6,73.7,113.9,73.7L113.9,73.7z"/>
	<path class="st55" d="M118.7,72.1c0.6,0.2,1.1,0.5,1.4,1.1c0.3,0.5,0.5,1.2,0.5,2c0,0.8-0.2,1.4-0.5,2c-0.3,0.5-0.8,0.9-1.4,1.1
		l-0.1-0.2c0.5-0.2,0.9-0.5,1.1-1c0.2-0.5,0.4-1.1,0.4-1.9c0-0.7-0.1-1.3-0.4-1.8c-0.2-0.5-0.6-0.8-1.1-1L118.7,72.1z"/>
</g>
</svg>
