<?xml version="1.0" encoding="utf-8"?>
<!-- Generator: Adobe Illustrator 23.0.2, SVG Export Plug-In . SVG Version: 6.00 Build 0)  -->
<svg version="1.0" id="Layer_1" xmlns="http://www.w3.org/2000/svg" xmlns:xlink="http://www.w3.org/1999/xlink" x="0px" y="0px"
	 viewBox="0 0 200 200" style="enable-background:new 0 0 200 200;" xml:space="preserve">
<style type="text/css">
	.st0{fill:none;stroke:#000000;stroke-width:1.1372;stroke-miterlimit:8;stroke-dasharray:5.3851,4.4876;}
	.st1{clip-path:url(#SVGID_2_);fill:none;stroke:#000000;stroke-width:1.1372;stroke-miterlimit:8;stroke-dasharray:5.3851,4.4876;}
	.st2{clip-path:url(#SVGID_2_);}
	.st3{clip-path:url(#SVGID_4_);fill:none;stroke:#000000;stroke-width:1.1375;stroke-miterlimit:8;}
	.st4{clip-path:url(#SVGID_4_);fill-rule:evenodd;clip-rule:evenodd;}
	.st5{clip-path:url(#SVGID_4_);}
	.st6{clip-path:url(#SVGID_6_);fill:none;stroke:#000000;stroke-width:1.1375;stroke-miterlimit:8;}
	.st7{clip-path:url(#SVGID_6_);fill-rule:evenodd;clip-rule:evenodd;}
	.st8{clip-path:url(#SVGID_6_);}
	.st9{clip-path:url(#SVGID_8_);fill-rule:evenodd;clip-rule:evenodd;}
	.st10{clip-path:url(#SVGID_8_);}
	.st11{clip-path:url(#SVGID_10_);fill-rule:evenodd;clip-rule:evenodd;}
	.st12{clip-path:url(#SVGID_10_);}
	.st13{clip-path:url(#SVGID_12_);fill-rule:evenodd;clip-rule:evenodd;}
	.st14{clip-path:url(#SVGID_12_);}
	.st15{clip-path:url(#SVGID_14_);fill-rule:evenodd;clip-rule:evenodd;}
	.st16{clip-path:url(#SVGID_14_);}
	.st17{clip-path:url(#SVGID_16_);fill-rule:evenodd;clip-rule:evenodd;}
	.st18{clip-path:url(#SVGID_16_);}
	.st19{clip-path:url(#SVGID_18_);fill-rule:evenodd;clip-rule:evenodd;}
	.st20{clip-path:url(#SVGID_18_);}
	.st21{clip-path:url(#SVGID_20_);fill-rule:evenodd;clip-rule:evenodd;}
	.st22{clip-path:url(#SVGID_20_);}
	.st23{clip-path:url(#SVGID_22_);fill:none;stroke:#000000;stroke-width:1.1375;stroke-miterlimit:8;}
	.st24{clip-path:url(#SVGID_22_);}
	.st25{clip-path:url(#SVGID_24_);fill-rule:evenodd;clip-rule:evenodd;}
	.st26{clip-path:url(#SVGID_24_);}
	.st27{clip-path:url(#SVGID_26_);fill-rule:evenodd;clip-rule:evenodd;}
	.st28{clip-path:url(#SVGID_26_);}
	.st29{clip-path:url(#SVGID_28_);fill-rule:evenodd;clip-rule:evenodd;}
	.st30{clip-path:url(#SVGID_28_);}
	.st31{clip-path:url(#SVGID_30_);fill-rule:evenodd;clip-rule:evenodd;}
	.st32{clip-path:url(#SVGID_30_);}
	.st33{clip-path:url(#SVGID_32_);fill-rule:evenodd;clip-rule:evenodd;}
	.st34{clip-path:url(#SVGID_32_);}
	.st35{clip-path:url(#SVGID_34_);fill-rule:evenodd;clip-rule:evenodd;}
	.st36{clip-path:url(#SVGID_34_);}
	.st37{clip-path:url(#SVGID_36_);fill-rule:evenodd;clip-rule:evenodd;}
	.st38{clip-path:url(#SVGID_36_);}
	.st39{clip-path:url(#SVGID_38_);fill-rule:evenodd;clip-rule:evenodd;}
	.st40{clip-path:url(#SVGID_38_);}
	.st41{clip-path:url(#SVGID_40_);fill-rule:evenodd;clip-rule:evenodd;}
	.st42{clip-path:url(#SVGID_40_);}
	.st43{clip-path:url(#SVGID_42_);fill-rule:evenodd;clip-rule:evenodd;}
	.st44{clip-path:url(#SVGID_42_);fill:none;stroke:#000000;stroke-width:0.3792;stroke-miterlimit:8;}
	.st45{clip-path:url(#SVGID_42_);}
	.st46{clip-path:url(#SVGID_44_);fill-rule:evenodd;clip-rule:evenodd;}
	.st47{clip-path:url(#SVGID_44_);}
	.st48{clip-path:url(#SVGID_46_);fill:none;stroke:#000000;stroke-width:1.1375;stroke-miterlimit:8;}
	.st49{clip-path:url(#SVGID_46_);}
	.st50{clip-path:url(#SVGID_48_);fill-rule:evenodd;clip-rule:evenodd;}
	.st51{clip-path:url(#SVGID_48_);}
	.st52{clip-path:url(#SVGID_50_);fill-rule:evenodd;clip-rule:evenodd;}
	.st53{clip-path:url(#SVGID_50_);}
	.st54{clip-path:url(#SVGID_52_);fill-rule:evenodd;clip-rule:evenodd;}
	.st55{clip-path:url(#SVGID_52_);}
	.st56{clip-path:url(#SVGID_54_);fill-rule:evenodd;clip-rule:evenodd;}
</style>
<g>
	<line class="st0" x1="74.6" y1="96.2" x2="74.1" y2="166.5"/>
	<g>
		<defs>
			<polygon id="SVGID_1_" points="3.7,188.7 198.7,188.7 198.7,13 3.7,13 3.7,188.7 			"/>
		</defs>
		<clipPath id="SVGID_2_">
			<use xlink:href="#SVGID_1_"  style="overflow:visible;"/>
		</clipPath>
		<line class="st1" x1="74.1" y1="92.4" x2="18.2" y2="92.4"/>
		<g class="st2">
			<defs>
				<polygon id="SVGID_3_" points="3.7,188.7 198.7,188.7 198.7,13 3.7,13 3.7,188.7 				"/>
			</defs>
			<clipPath id="SVGID_4_">
				<use xlink:href="#SVGID_3_"  style="overflow:visible;"/>
			</clipPath>
			<line class="st3" x1="9.3" y1="166.8" x2="186.5" y2="166.8"/>
			<polygon class="st4" points="185.9,165.1 189.3,166.8 185.9,168.5 185.9,165.1 			"/>
			<g class="st5">
				<defs>
					<polygon id="SVGID_5_" points="3.7,188.7 198.7,188.7 198.7,13 3.7,13 3.7,188.7 					"/>
				</defs>
				<clipPath id="SVGID_6_">
					<use xlink:href="#SVGID_5_"  style="overflow:visible;"/>
				</clipPath>
				<line class="st6" x1="18" y1="175.8" x2="18" y2="27.6"/>
				<polygon class="st7" points="19.7,28.2 18,24.8 16.3,28.2 19.7,28.2 				"/>
				<g class="st8">
					<defs>
						<polygon id="SVGID_7_" points="3.7,188.7 198.7,188.7 198.7,13 3.7,13 3.7,188.7 						"/>
					</defs>
					<clipPath id="SVGID_8_">
						<use xlink:href="#SVGID_7_"  style="overflow:visible;"/>
					</clipPath>
					<path class="st9" d="M8.7,20.7c0.2,0,0.3,0,0.5,0.1c0.1,0,0.2,0.1,0.3,0.2s0.2,0.2,0.2,0.3s0.1,0.3,0.2,0.5
						c0.1,0.2,0.1,0.4,0.2,0.8c0.1,0.6,0.2,1.2,0.3,1.8c0.1,0.6,0.2,1.2,0.3,1.8c0.4-0.6,0.8-1.2,1.1-1.8c0.3-0.6,0.5-1.1,0.6-1.6
						c0.1-0.4,0.2-0.8,0.2-1.1c0-0.2,0-0.4-0.1-0.4s-0.2-0.1-0.5-0.1l0.1-0.3h1.8l0.2,0.3c-0.3,0.9-0.8,1.9-1.4,3
						c-0.6,1-1.2,2.1-2,3.1c-0.7,1-1.3,1.7-1.8,2.1c-0.3,0.3-0.6,0.5-0.9,0.6C7.7,30,7.4,30,7.2,30c-0.1,0-0.2,0-0.3,0
						c-0.1,0-0.2,0-0.3-0.1l0.3-1.3h0.5c0,0.3,0.1,0.4,0.3,0.4c0.3,0,0.6-0.2,0.9-0.5c0.3-0.3,0.7-0.8,1.2-1.5
						c-0.1-0.8-0.3-1.7-0.5-2.8c-0.2-1.2-0.4-1.9-0.5-2.2c-0.1-0.3-0.2-0.6-0.3-0.6c-0.1-0.1-0.1-0.1-0.2-0.1
						c-0.1,0-0.3,0.1-0.4,0.2c-0.1,0.1-0.3,0.3-0.5,0.6L7,21.9c0.3-0.5,0.6-0.8,0.9-1C8.1,20.7,8.4,20.7,8.7,20.7L8.7,20.7z"/>
					<g class="st10">
						<defs>
							<polygon id="SVGID_9_" points="3.7,188.7 198.7,188.7 198.7,13 3.7,13 3.7,188.7 							"/>
						</defs>
						<clipPath id="SVGID_10_">
							<use xlink:href="#SVGID_9_"  style="overflow:visible;"/>
						</clipPath>
						<path class="st11" d="M187.8,171.1c0.1,0,0.3,0,0.4,0s0.2,0.1,0.3,0.1c0.1,0.1,0.2,0.1,0.2,0.2c0.1,0.1,0.1,0.2,0.2,0.4
							c0.1,0.2,0.1,0.4,0.2,0.7c0.1,0.3,0.1,0.5,0.1,0.8h0.1c0.4-0.6,0.7-1,1-1.3c0.2-0.3,0.4-0.5,0.6-0.6c0.2-0.1,0.3-0.2,0.4-0.3
							c0.1-0.1,0.3-0.1,0.6-0.1c0.2,0,0.4,0,0.5,0.1l-0.3,1.2h-0.5c0-0.2-0.1-0.3-0.2-0.3c0,0-0.1,0-0.1,0c0,0-0.1,0-0.2,0.1
							s-0.2,0.1-0.3,0.3c-0.1,0.1-0.3,0.3-0.4,0.5c-0.2,0.2-0.3,0.4-0.5,0.6l-0.5,0.6c0.1,0.4,0.2,0.8,0.2,1.1
							c0.1,0.3,0.1,0.6,0.2,0.8c0.1,0.2,0.1,0.4,0.1,0.5s0.1,0.2,0.1,0.3s0.1,0.1,0.1,0.1c0.1,0,0.1,0,0.2,0c0.1,0,0.2,0,0.3-0.1
							c0.1-0.1,0.3-0.3,0.5-0.6l0.4,0.3c-0.3,0.5-0.6,0.8-0.8,1c-0.3,0.2-0.5,0.3-0.9,0.3c-0.2,0-0.4,0-0.5-0.1
							c-0.1-0.1-0.2-0.2-0.3-0.3c-0.1-0.2-0.2-0.4-0.3-0.7c-0.1-0.6-0.2-1-0.3-1.3h-0.1c-0.5,0.7-0.8,1.1-1,1.4
							c-0.2,0.3-0.4,0.5-0.6,0.6s-0.3,0.2-0.4,0.3c-0.1,0.1-0.3,0.1-0.6,0.1c-0.2,0-0.4,0-0.5-0.1l0.3-1.2h0.5
							c0,0.2,0.1,0.3,0.2,0.3c0.1,0,0.1,0,0.2,0c0.1,0,0.2-0.1,0.3-0.2c0.1-0.1,0.3-0.3,0.5-0.6c0.2-0.3,0.6-0.7,1-1.2
							c-0.1-0.4-0.1-0.7-0.2-1s-0.1-0.6-0.2-0.9c-0.1-0.3-0.1-0.5-0.2-0.5c0-0.1-0.1-0.1-0.2-0.2c-0.1,0-0.1,0-0.2,0
							c-0.1,0-0.2,0-0.3,0.1c-0.1,0-0.2,0.1-0.2,0.2c-0.1,0.1-0.2,0.3-0.4,0.5l-0.4-0.3c0.3-0.4,0.5-0.7,0.8-0.9
							C187.1,171.2,187.4,171.1,187.8,171.1L187.8,171.1z"/>
						<g class="st12">
							<defs>
								<polygon id="SVGID_11_" points="3.7,188.7 198.7,188.7 198.7,13 3.7,13 3.7,188.7 								"/>
							</defs>
							<clipPath id="SVGID_12_">
								<use xlink:href="#SVGID_11_"  style="overflow:visible;"/>
							</clipPath>
							<path class="st13" d="M10.9,171.6c-0.5,0-0.9,0.2-1.2,0.6c-0.3,0.4-0.6,0.9-0.8,1.7c-0.2,0.7-0.3,1.3-0.3,1.9
								c0,0.5,0.1,0.8,0.3,1.1c0.2,0.2,0.5,0.3,0.9,0.3c0.4,0,0.8-0.2,1.2-0.6c0.3-0.4,0.6-0.9,0.8-1.6c0.2-0.7,0.3-1.3,0.3-1.9
								c0-0.5-0.1-0.8-0.3-1.1C11.6,171.7,11.3,171.6,10.9,171.6L10.9,171.6z M11,171.1c0.7,0,1.3,0.2,1.6,0.6s0.6,0.9,0.6,1.7
								c0,0.5-0.1,1.1-0.3,1.7s-0.4,1.1-0.7,1.5s-0.7,0.7-1.1,0.9c-0.4,0.2-0.9,0.3-1.5,0.3c-0.7,0-1.2-0.2-1.6-0.6
								c-0.4-0.4-0.6-0.9-0.6-1.7c0-0.4,0.1-0.8,0.2-1.2c0.1-0.6,0.4-1.2,0.7-1.7s0.7-0.8,1.2-1.1S10.5,171.1,11,171.1L11,171.1z"/>
							<g class="st14">
								<defs>
									<polygon id="SVGID_13_" points="3.7,188.7 198.7,188.7 198.7,13 3.7,13 3.7,188.7 									"/>
								</defs>
								<clipPath id="SVGID_14_">
									<use xlink:href="#SVGID_13_"  style="overflow:visible;"/>
								</clipPath>
								<path class="st15" d="M107.1,182.5c-0.2,0-0.4,0.1-0.6,0.3c-0.2,0.2-0.4,0.5-0.5,0.9c0.3,0,0.6,0,0.8-0.1s0.4-0.1,0.5-0.3
									c0.1-0.1,0.2-0.3,0.2-0.5c0-0.1,0-0.2-0.1-0.3C107.3,182.5,107.2,182.5,107.1,182.5L107.1,182.5z M96.2,182.5
									c-0.2,0-0.4,0.1-0.6,0.3c-0.2,0.2-0.3,0.4-0.4,0.7c-0.1,0.3-0.2,0.6-0.2,0.9c0,0.2,0,0.4,0.1,0.5s0.2,0.2,0.3,0.2
									c0.1,0,0.2,0,0.3-0.1c0.1-0.1,0.2-0.2,0.4-0.4c0.1-0.2,0.2-0.3,0.3-0.5c0.1-0.2,0.1-0.3,0.2-0.6c0-0.2,0.1-0.4,0.1-0.6
									c0-0.2,0-0.3-0.1-0.4S96.3,182.5,96.2,182.5L96.2,182.5z M92.8,182.3H93l-0.5,2.1c0,0.2-0.1,0.4-0.1,0.5c0,0.1,0,0.2,0,0.2
									c0,0,0.1,0.1,0.1,0.1c0.1,0,0.1,0,0.2-0.1c0.1-0.1,0.2-0.2,0.3-0.3l0.2,0.2c-0.2,0.2-0.4,0.4-0.5,0.5
									c-0.1,0.1-0.3,0.1-0.5,0.1c-0.1,0-0.3-0.1-0.3-0.2c-0.1-0.1-0.1-0.2-0.1-0.4c0-0.2,0-0.4,0.1-0.6l0.2-1.1
									c0.1-0.2,0.1-0.4,0.1-0.5c0-0.1,0-0.2-0.1-0.2c0,0-0.1-0.1-0.3-0.1l0-0.2L92.8,182.3L92.8,182.3z M107.2,182.2
									c0.3,0,0.5,0.1,0.6,0.2s0.2,0.3,0.2,0.5c0,0.4-0.2,0.7-0.5,0.8c-0.4,0.2-0.9,0.3-1.6,0.3c0,0.1,0,0.3,0,0.4
									c0,0.2,0,0.4,0.1,0.5c0.1,0.1,0.2,0.2,0.4,0.2c0.2,0,0.4,0,0.6-0.1c0.2-0.1,0.3-0.2,0.5-0.4l0.2,0.2
									c-0.2,0.2-0.4,0.4-0.7,0.5c-0.2,0.1-0.5,0.2-0.8,0.2c-0.3,0-0.6-0.1-0.7-0.3c-0.2-0.2-0.3-0.5-0.3-0.8c0-0.2,0-0.5,0.1-0.8
									c0.1-0.3,0.2-0.5,0.4-0.7c0.2-0.2,0.4-0.4,0.6-0.5C106.7,182.3,106.9,182.2,107.2,182.2L107.2,182.2z M102.8,182.2
									c0.1,0,0.3,0,0.3,0.1c0.1,0.1,0.1,0.2,0.1,0.4c0,0.1,0,0.2-0.1,0.3l0,0c0.2-0.3,0.4-0.5,0.6-0.6s0.4-0.2,0.6-0.2
									c0.2,0,0.3,0,0.4,0l-0.2,0.7h-0.3c0-0.1,0-0.2-0.1-0.2s-0.1-0.1-0.1-0.1c0,0-0.1,0-0.1,0c-0.1,0-0.2,0-0.3,0.1
									c-0.1,0.1-0.2,0.2-0.3,0.3c-0.1,0.1-0.2,0.3-0.3,0.4c-0.1,0.1-0.1,0.3-0.2,0.5l-0.3,1.4h-0.6l0.5-2.1c0-0.1,0.1-0.2,0.1-0.3
									c0-0.1,0-0.1,0-0.2c0-0.1,0-0.2,0-0.2c0,0-0.1-0.1-0.1-0.1c-0.1,0-0.1,0-0.2,0.1c-0.1,0.1-0.2,0.2-0.3,0.3l-0.2-0.2
									c0.2-0.2,0.4-0.4,0.5-0.5C102.5,182.3,102.6,182.2,102.8,182.2L102.8,182.2z M98.9,182.2c0.1,0,0.3,0,0.3,0.1
									s0.1,0.2,0.1,0.4c0,0.2,0,0.4-0.1,0.7l-0.1,0.6c0,0.1-0.1,0.3-0.1,0.3s0,0.2,0,0.2s0,0.1,0,0.1c0,0.2,0,0.3,0.1,0.3
									c0.1,0.1,0.1,0.1,0.2,0.1c0.1,0,0.2,0,0.3-0.1c0.1-0.1,0.2-0.2,0.3-0.3s0.2-0.3,0.3-0.4c0.1-0.1,0.1-0.3,0.2-0.5l0.3-1.4
									h0.6l-0.5,2.1c0,0.2-0.1,0.4-0.1,0.5c0,0.1,0,0.2,0,0.2c0,0,0.1,0.1,0.1,0.1c0.1,0,0.1,0,0.2-0.1c0.1-0.1,0.2-0.2,0.3-0.3
									l0.2,0.2c-0.2,0.2-0.4,0.4-0.5,0.5c-0.1,0.1-0.3,0.1-0.5,0.1c-0.1,0-0.2,0-0.3-0.1s-0.1-0.2-0.1-0.4c0-0.1,0-0.3,0.1-0.4
									l0,0c-0.2,0.3-0.4,0.5-0.6,0.7c-0.2,0.1-0.4,0.2-0.6,0.2c-0.2,0-0.4-0.1-0.5-0.2c-0.1-0.1-0.2-0.3-0.2-0.5
									c0-0.1,0-0.3,0.1-0.6l0.2-0.9c0.1-0.2,0.1-0.4,0.1-0.5c0-0.1,0-0.2,0-0.2c0,0-0.1-0.1-0.1-0.1c-0.1,0-0.1,0-0.2,0.1
									c-0.1,0.1-0.2,0.2-0.3,0.3l-0.2-0.2c0.2-0.2,0.3-0.3,0.4-0.4c0.1-0.1,0.2-0.1,0.3-0.2C98.7,182.3,98.8,182.2,98.9,182.2
									L98.9,182.2z M96.1,182.2c0.1,0,0.3,0,0.4,0c0.1,0,0.2,0.1,0.4,0.2l0.3-0.2l0.2,0.1l-0.3,1.6c0,0.1-0.1,0.4-0.2,0.8
									c-0.1,0.5-0.2,0.8-0.2,1c-0.1,0.2-0.1,0.4-0.2,0.5c-0.1,0.2-0.2,0.3-0.3,0.4c-0.1,0.1-0.3,0.2-0.5,0.3
									c-0.2,0.1-0.4,0.1-0.7,0.1c-0.8,0-1.3-0.2-1.3-0.7c0-0.1,0-0.2,0.1-0.3c0.1-0.1,0.2-0.2,0.4-0.3l0.2,0.2
									c0,0.1-0.1,0.1-0.1,0.2c0,0,0,0.1-0.1,0.1c0,0,0,0.1,0,0.2c0,0.2,0.1,0.3,0.2,0.4s0.3,0.1,0.5,0.1c0.3,0,0.5-0.1,0.7-0.2
									c0.2-0.1,0.3-0.3,0.4-0.6s0.2-0.7,0.3-1.2l0,0c-0.2,0.3-0.4,0.5-0.6,0.6c-0.2,0.1-0.4,0.2-0.6,0.2c-0.2,0-0.4-0.1-0.6-0.3
									c-0.1-0.2-0.2-0.4-0.2-0.8c0-0.4,0.1-0.7,0.2-1.1c0.1-0.3,0.4-0.6,0.6-0.8C95.5,182.3,95.8,182.2,96.1,182.2L96.1,182.2z
									 M92.7,181h0.6l-0.2,0.6h-0.6L92.7,181L92.7,181z M90.8,180.7c0.2,0,0.4,0,0.6,0.1l-0.1,0.6H91c0-0.1-0.1-0.2-0.1-0.3
									s-0.1-0.1-0.2-0.1c-0.1,0-0.2,0-0.3,0.1s-0.2,0.2-0.2,0.3c-0.1,0.1-0.1,0.3-0.2,0.6l-0.1,0.4h0.9l-0.1,0.3h-0.9l-0.6,2.9
									c-0.1,0.5-0.3,0.8-0.5,1.1c-0.2,0.2-0.5,0.4-0.8,0.4c-0.1,0-0.2,0-0.2,0l0.1-0.3c0,0,0.1,0,0.2,0c0.1,0,0.2,0,0.3-0.1
									c0.1-0.1,0.1-0.1,0.2-0.3c0.1-0.1,0.1-0.3,0.2-0.5l0.7-3.2h-0.6l0-0.2c0.1,0,0.3,0,0.3,0s0.1,0,0.2-0.1c0,0,0.1-0.1,0.1-0.1
									c0,0,0.1-0.1,0.1-0.3c0.1-0.4,0.3-0.7,0.5-0.9C90.2,180.8,90.5,180.7,90.8,180.7L90.8,180.7z"/>
								<g class="st16">
									<defs>
										<polygon id="SVGID_15_" points="3.7,188.7 198.7,188.7 198.7,13 3.7,13 3.7,188.7 										"/>
									</defs>
									<clipPath id="SVGID_16_">
										<use xlink:href="#SVGID_15_"  style="overflow:visible;"/>
									</clipPath>
									<path class="st17" d="M112.6,180.7l0.1,0.3c-0.5,0.2-0.9,0.5-1.2,1s-0.4,1.1-0.4,1.9c0,0.8,0.1,1.4,0.4,1.9s0.6,0.8,1.1,1
										l-0.1,0.3c-0.7-0.2-1.1-0.5-1.5-1.1c-0.3-0.6-0.5-1.3-0.5-2.1c0-0.8,0.2-1.5,0.5-2.1C111.5,181.2,112,180.8,112.6,180.7
										L112.6,180.7z"/>
									<g class="st18">
										<defs>
											<polygon id="SVGID_17_" points="3.7,188.7 198.7,188.7 198.7,13 3.7,13 3.7,188.7 											"/>
										</defs>
										<clipPath id="SVGID_18_">
											<use xlink:href="#SVGID_17_"  style="overflow:visible;"/>
										</clipPath>
										<path class="st19" d="M118.5,181.2c-0.2,0-0.3,0-0.4,0.1c-0.1,0.1-0.2,0.1-0.3,0.2c-0.1,0.1-0.1,0.2-0.2,0.4s0,0.3,0,0.4
											c0,0.3,0.1,0.6,0.2,0.8c0.1,0.2,0.3,0.3,0.6,0.3c0.1,0,0.2,0,0.2,0c0.1,0,0.2,0,0.2-0.1c0.1,0,0.1-0.1,0.2-0.1
											c0.1,0,0.1-0.1,0.2-0.1c0,0,0,0,0.1-0.1c0,0,0-0.1,0-0.1c0,0,0-0.1,0-0.2c0-0.3,0-0.6-0.1-0.8c-0.1-0.2-0.2-0.4-0.3-0.5
											C118.9,181.2,118.7,181.2,118.5,181.2L118.5,181.2z M114.8,181.2c-0.2,0-0.3,0-0.4,0.1c-0.1,0.1-0.2,0.2-0.2,0.4
											s-0.1,0.4-0.1,0.6c0,0.2,0,0.5,0,0.8c0,0.7,0.1,1.3,0.2,1.6s0.3,0.5,0.6,0.5c0.3,0,0.5-0.2,0.6-0.5
											c0.1-0.3,0.2-0.8,0.2-1.5c0-0.5,0-0.9-0.1-1.2c-0.1-0.3-0.2-0.5-0.3-0.7S114.9,181.2,114.8,181.2L114.8,181.2z
											 M118.6,180.9c0.5,0,0.8,0.2,1.1,0.5s0.4,0.8,0.4,1.4c0,0.6-0.1,1-0.3,1.4c-0.2,0.4-0.4,0.7-0.8,0.9
											c-0.3,0.2-0.7,0.4-1.1,0.4l-0.1-0.2v-0.2c0.3,0,0.6-0.1,0.8-0.2s0.4-0.3,0.5-0.6c0.1-0.3,0.2-0.6,0.3-1.1l0,0
											c-0.2,0.1-0.4,0.2-0.6,0.3s-0.4,0.1-0.6,0.1c-0.3,0-0.5-0.1-0.6-0.2c-0.2-0.1-0.3-0.3-0.4-0.5c-0.1-0.2-0.1-0.4-0.1-0.7
											c0-0.2,0-0.4,0.1-0.6s0.2-0.3,0.3-0.5c0.1-0.1,0.3-0.2,0.5-0.3C118.1,180.9,118.3,180.9,118.6,180.9L118.6,180.9z
											 M114.8,180.9c0.5,0,0.8,0.2,1.1,0.6c0.2,0.4,0.4,0.9,0.4,1.7c0,0.8-0.1,1.4-0.4,1.8c-0.3,0.4-0.6,0.6-1.1,0.6
											c-0.5,0-0.8-0.2-1.1-0.6c-0.2-0.4-0.4-1-0.4-1.7c0-0.4,0-0.8,0.1-1.1c0.1-0.3,0.2-0.5,0.3-0.7c0.1-0.2,0.3-0.3,0.5-0.4
											C114.4,180.9,114.6,180.9,114.8,180.9L114.8,180.9z"/>
										<g class="st20">
											<defs>
												<polygon id="SVGID_19_" points="3.7,188.7 198.7,188.7 198.7,13 3.7,13 3.7,188.7 												"/>
											</defs>
											<clipPath id="SVGID_20_">
												<use xlink:href="#SVGID_19_"  style="overflow:visible;"/>
											</clipPath>
											<path class="st21" d="M120.6,180.7c0.6,0.2,1.1,0.5,1.5,1.1c0.3,0.6,0.5,1.3,0.5,2.1c0,0.8-0.2,1.5-0.5,2.1
												c-0.3,0.6-0.8,0.9-1.5,1.1l-0.1-0.3c0.5-0.2,0.9-0.5,1.1-1s0.4-1.1,0.4-1.9c0-0.8-0.1-1.4-0.4-1.9s-0.6-0.8-1.2-1
												L120.6,180.7z"/>
											<g class="st22">
												<defs>
													<polygon id="SVGID_21_" points="3.7,188.7 198.7,188.7 198.7,13 3.7,13 3.7,188.7 													"/>
												</defs>
												<clipPath id="SVGID_22_">
													<use xlink:href="#SVGID_21_"  style="overflow:visible;"/>
												</clipPath>
												<path class="st23" d="M38.7,158.8c5.1-2.3,10.2-4.6,16.2-15.7c6-11.1,9.7-37.8,19.6-50.9c9.9-13.1,24.7-22.3,39.8-27.6
													c15.1-5.3,50.9-4.3,50.9-4.3l0,0l0,0"/>
												<g class="st24">
													<defs>
														<polygon id="SVGID_23_" points="3.7,188.7 198.7,188.7 198.7,13 3.7,13 3.7,188.7 														"/>
													</defs>
													<clipPath id="SVGID_24_">
														<use xlink:href="#SVGID_23_"  style="overflow:visible;"/>
													</clipPath>
													<path class="st25" d="M151.5,50.6c-0.1,0-0.3,0.1-0.4,0.2c-0.1,0.1-0.2,0.3-0.3,0.6c0.2,0,0.4,0,0.5-0.1
														c0.1,0,0.2-0.1,0.3-0.2c0.1-0.1,0.1-0.2,0.1-0.3c0-0.1,0-0.1-0.1-0.2S151.6,50.6,151.5,50.6L151.5,50.6z M151.6,50.5
														c0.2,0,0.3,0,0.4,0.1c0.1,0.1,0.1,0.2,0.1,0.3c0,0.2-0.1,0.4-0.3,0.5c-0.2,0.1-0.5,0.2-1,0.2c0,0.1,0,0.2,0,0.3
														c0,0.1,0,0.2,0.1,0.3s0.1,0.1,0.3,0.1c0.1,0,0.2,0,0.3-0.1c0.1-0.1,0.2-0.1,0.3-0.3l0.1,0.1c-0.1,0.1-0.3,0.3-0.4,0.3
														c-0.1,0.1-0.3,0.1-0.5,0.1c-0.2,0-0.4-0.1-0.5-0.2c-0.1-0.1-0.2-0.3-0.2-0.5c0-0.1,0-0.3,0.1-0.5
														c0.1-0.2,0.1-0.3,0.2-0.4c0.1-0.1,0.2-0.2,0.4-0.3C151.3,50.5,151.4,50.5,151.6,50.5L151.6,50.5z M145.7,49.7h2.1
														l-0.2,0.7h-0.2c0-0.1,0-0.2,0-0.3s0-0.1,0-0.2c0,0,0-0.1-0.1-0.1c0,0-0.1,0-0.1,0h-0.3l-0.4,2c0,0.1,0,0.1,0,0.1
														c0,0,0,0.1,0,0.1c0,0,0,0.1,0,0.1c0,0,0,0.1,0,0.1c0,0,0,0,0.1,0.1c0,0,0.1,0,0.1,0l0,0.1h-0.9l0-0.1
														c0.1,0,0.1,0,0.1,0c0,0,0,0,0.1-0.1c0,0,0-0.1,0.1-0.1s0-0.2,0.1-0.3l0.4-2h-0.3c-0.1,0-0.2,0-0.2,0
														c-0.1,0-0.1,0.1-0.2,0.1c-0.1,0.1-0.1,0.2-0.2,0.3h-0.2L145.7,49.7L145.7,49.7z M149,49.5h0.1l-0.4,1.4l0,0
														c0.1-0.2,0.3-0.3,0.4-0.4c0.1-0.1,0.2-0.1,0.3-0.1c0.1,0,0.2,0,0.3,0.1c0.1,0.1,0.1,0.2,0.1,0.3c0,0.1,0,0.2-0.1,0.4
														l-0.1,0.5c0,0.1-0.1,0.3-0.1,0.3c0,0.1,0,0.1,0,0.1s0,0,0.1,0c0,0,0.1,0,0.1-0.1s0.1-0.1,0.2-0.2l0.1,0.1
														c-0.1,0.1-0.2,0.2-0.3,0.3c-0.1,0.1-0.2,0.1-0.3,0.1c-0.1,0-0.2,0-0.2-0.1c-0.1-0.1-0.1-0.1-0.1-0.2
														c0-0.1,0-0.2,0.1-0.4l0.1-0.4c0-0.1,0.1-0.2,0.1-0.3c0-0.1,0-0.1,0-0.1c0-0.1,0-0.2,0-0.2c0,0-0.1-0.1-0.2-0.1
														c-0.1,0-0.1,0-0.2,0.1c-0.1,0-0.1,0.1-0.2,0.2c-0.1,0.1-0.1,0.2-0.2,0.3c0,0.1-0.1,0.2-0.1,0.3l-0.2,0.9h-0.4l0.5-2.3
														c0-0.1,0-0.2,0-0.3c0-0.1,0-0.1-0.1-0.1c0,0-0.1,0-0.2,0l0-0.1L149,49.5L149,49.5z"/>
													<g class="st26">
														<defs>
															<polygon id="SVGID_25_" points="3.7,188.7 198.7,188.7 198.7,13 3.7,13 3.7,188.7 															"/>
														</defs>
														<clipPath id="SVGID_26_">
															<use xlink:href="#SVGID_25_"  style="overflow:visible;"/>
														</clipPath>
														<path class="st27" d="M161.6,50.7c-0.1,0-0.1,0-0.2,0.1c-0.1,0-0.1,0.1-0.2,0.2c-0.1,0.1-0.1,0.2-0.2,0.3
															c0,0.1-0.1,0.2-0.1,0.3l0,0.1c0,0.1,0,0.1,0,0.2c0,0,0,0.1,0,0.1c0,0.1,0,0.2,0.1,0.2c0,0,0.1,0.1,0.2,0.1
															c0.1,0,0.1,0,0.2,0c0.1,0,0.1-0.1,0.2-0.1c0.1-0.1,0.1-0.1,0.1-0.2c0-0.1,0.1-0.2,0.1-0.3c0-0.1,0.1-0.2,0.1-0.3
															c0-0.1,0-0.2,0-0.3c0-0.1,0-0.2-0.1-0.3C161.8,50.8,161.7,50.7,161.6,50.7L161.6,50.7z M159.1,50.6
															c-0.1,0-0.3,0.1-0.4,0.2c-0.1,0.1-0.2,0.3-0.3,0.5c-0.1,0.2-0.1,0.4-0.1,0.6c0,0.1,0,0.2,0.1,0.3
															c0,0.1,0.1,0.1,0.2,0.1c0.1,0,0.2,0,0.3-0.1c0.1-0.1,0.2-0.2,0.3-0.3c0.1-0.1,0.2-0.3,0.2-0.5l0-0.1
															c0-0.1,0-0.1,0-0.1c0,0,0-0.1,0-0.1c0-0.1,0-0.2-0.1-0.2S159.2,50.6,159.1,50.6L159.1,50.6z M154.8,50.6
															c-0.1,0-0.3,0.1-0.4,0.2c-0.1,0.1-0.2,0.3-0.3,0.5c-0.1,0.2-0.1,0.4-0.1,0.6c0,0.1,0,0.2,0.1,0.3
															c0,0.1,0.1,0.1,0.2,0.1c0.1,0,0.1,0,0.2-0.1s0.1-0.1,0.2-0.2c0.1-0.1,0.1-0.2,0.2-0.3c0-0.1,0.1-0.2,0.1-0.4
															c0-0.1,0-0.3,0-0.4c0-0.1,0-0.2-0.1-0.2C155,50.7,154.9,50.6,154.8,50.6L154.8,50.6z M160.8,50.5c0.1,0,0.2,0,0.2,0.1
															c0,0.1,0.1,0.1,0.1,0.2c0,0.1,0,0.2,0,0.2l0,0c0.3-0.4,0.5-0.6,0.8-0.6c0.1,0,0.3,0.1,0.3,0.2
															c0.1,0.1,0.1,0.3,0.1,0.5c0,0.2,0,0.4-0.1,0.7c-0.1,0.2-0.2,0.4-0.4,0.5c-0.2,0.1-0.3,0.2-0.5,0.2
															c-0.2,0-0.3,0-0.5-0.1l-0.1,0.4c0,0.1,0,0.2,0,0.2c0,0.1,0,0.1,0,0.1c0,0,0.1,0,0.2,0l0,0.1h-0.6l0.5-2.2
															c0-0.1,0-0.2,0-0.3c0-0.1,0-0.1,0-0.1c0,0,0,0-0.1,0c0,0-0.1,0-0.1,0.1c0,0-0.1,0.1-0.2,0.2l-0.1-0.1
															c0.1-0.1,0.2-0.2,0.3-0.3C160.6,50.5,160.7,50.5,160.8,50.5L160.8,50.5z M159.1,50.5c0.1,0,0.2,0,0.2,0
															c0.1,0,0.2,0.1,0.2,0.1l0.2-0.1l0.1,0l-0.3,1.3c0,0.1,0,0.2,0,0.3c0,0.1,0,0.1,0,0.1c0,0,0,0,0.1,0c0,0,0.1,0,0.1-0.1
															s0.1-0.1,0.2-0.2l0.1,0.1c-0.1,0.1-0.2,0.2-0.3,0.3c-0.1,0.1-0.2,0.1-0.3,0.1c-0.1,0-0.2,0-0.2-0.1
															c-0.1-0.1-0.1-0.1-0.1-0.2c0-0.1,0-0.2,0-0.2l0,0c-0.1,0.2-0.3,0.3-0.4,0.4c-0.1,0.1-0.2,0.1-0.4,0.1
															c-0.1,0-0.3-0.1-0.3-0.2c-0.1-0.1-0.1-0.3-0.1-0.5c0-0.2,0-0.5,0.1-0.7c0.1-0.2,0.2-0.4,0.4-0.5
															C158.7,50.5,158.9,50.5,159.1,50.5L159.1,50.5z M156.5,50.5c0.1,0,0.2,0,0.2,0.1c0,0.1,0.1,0.1,0.1,0.2
															c0,0.1,0,0.1,0,0.2l0,0c0.1-0.2,0.3-0.3,0.4-0.4c0.1-0.1,0.2-0.1,0.4-0.1c0.1,0,0.2,0,0.2,0l-0.1,0.5h-0.2
															c0-0.1,0-0.1,0-0.1c0,0,0-0.1-0.1-0.1c0,0,0,0-0.1,0c0,0-0.1,0-0.2,0.1s-0.1,0.1-0.2,0.2c-0.1,0.1-0.1,0.2-0.2,0.3
															c0,0.1-0.1,0.2-0.1,0.3l-0.2,0.9h-0.4l0.3-1.3c0-0.1,0-0.1,0-0.2s0-0.1,0-0.1c0-0.1,0-0.1,0-0.1c0,0,0,0-0.1,0
															c0,0-0.1,0-0.1,0.1c0,0-0.1,0.1-0.2,0.2l-0.1-0.1c0.1-0.1,0.2-0.2,0.3-0.3C156.3,50.5,156.4,50.5,156.5,50.5
															L156.5,50.5z M154.8,50.5c0.1,0,0.2,0,0.2,0c0.1,0,0.2,0.1,0.2,0.1l0.2-0.1l0.1,0l-0.2,1c0,0.1,0,0.2-0.1,0.5
															c-0.1,0.3-0.1,0.5-0.1,0.6c0,0.1-0.1,0.2-0.1,0.3c-0.1,0.1-0.1,0.2-0.2,0.3c-0.1,0.1-0.2,0.1-0.3,0.2
															c-0.1,0-0.3,0.1-0.4,0.1c-0.5,0-0.8-0.1-0.8-0.4c0-0.1,0-0.1,0.1-0.2s0.1-0.1,0.2-0.2l0.1,0.1c0,0,0,0.1-0.1,0.1
															c0,0,0,0.1,0,0.1s0,0.1,0,0.1c0,0.1,0,0.2,0.1,0.2c0.1,0,0.2,0.1,0.3,0.1c0.2,0,0.3,0,0.4-0.1
															c0.1-0.1,0.2-0.2,0.3-0.4c0.1-0.2,0.1-0.4,0.2-0.8l0,0c-0.1,0.2-0.3,0.3-0.4,0.4c-0.1,0.1-0.2,0.1-0.4,0.1
															c-0.1,0-0.3-0.1-0.3-0.2c-0.1-0.1-0.1-0.3-0.1-0.5c0-0.2,0-0.5,0.1-0.7c0.1-0.2,0.2-0.4,0.4-0.5
															C154.4,50.5,154.6,50.5,154.8,50.5L154.8,50.5z M163.5,49.5h0.1l-0.4,1.4l0,0c0.1-0.2,0.3-0.3,0.4-0.4
															c0.1-0.1,0.2-0.1,0.3-0.1c0.1,0,0.2,0,0.3,0.1c0.1,0.1,0.1,0.2,0.1,0.3c0,0.1,0,0.2-0.1,0.4l-0.1,0.5
															c0,0.1-0.1,0.3-0.1,0.3c0,0.1,0,0.1,0,0.1s0,0,0.1,0c0,0,0.1,0,0.1-0.1s0.1-0.1,0.2-0.2l0.1,0.1
															c-0.1,0.1-0.2,0.2-0.3,0.3c-0.1,0.1-0.2,0.1-0.3,0.1c-0.1,0-0.2,0-0.2-0.1c-0.1-0.1-0.1-0.1-0.1-0.2
															c0-0.1,0-0.2,0.1-0.4l0.1-0.4c0-0.1,0.1-0.2,0.1-0.3c0-0.1,0-0.1,0-0.1c0-0.1,0-0.2,0-0.2c0,0-0.1-0.1-0.2-0.1
															c-0.1,0-0.1,0-0.2,0.1c-0.1,0-0.1,0.1-0.2,0.2c-0.1,0.1-0.1,0.2-0.2,0.3c0,0.1-0.1,0.2-0.1,0.3l-0.2,0.9h-0.4l0.5-2.3
															c0-0.1,0-0.2,0-0.3c0-0.1,0-0.1-0.1-0.1c0,0-0.1,0-0.2,0l0-0.1L163.5,49.5L163.5,49.5z"/>
														<g class="st28">
															<defs>
																<polygon id="SVGID_27_" points="3.7,188.7 198.7,188.7 198.7,13 3.7,13 3.7,188.7 																"/>
															</defs>
															<clipPath id="SVGID_28_">
																<use xlink:href="#SVGID_27_"  style="overflow:visible;"/>
															</clipPath>
															<path class="st29" d="M167.1,50.6c-0.1,0-0.3,0.1-0.4,0.2c-0.1,0.1-0.2,0.3-0.2,0.5c-0.1,0.2-0.1,0.4-0.1,0.6
																c0,0.1,0,0.3,0.1,0.3c0.1,0.1,0.2,0.1,0.3,0.1c0.1,0,0.3-0.1,0.4-0.2s0.2-0.3,0.2-0.5c0.1-0.2,0.1-0.4,0.1-0.6
																c0-0.1,0-0.3-0.1-0.3C167.3,50.7,167.2,50.6,167.1,50.6L167.1,50.6z M167.1,50.5c0.2,0,0.4,0.1,0.5,0.2
																c0.1,0.1,0.2,0.3,0.2,0.5c0,0.2,0,0.3-0.1,0.5c-0.1,0.2-0.1,0.3-0.2,0.5s-0.2,0.2-0.3,0.3c-0.1,0.1-0.3,0.1-0.5,0.1
																c-0.2,0-0.4-0.1-0.5-0.2c-0.1-0.1-0.2-0.3-0.2-0.5c0-0.1,0-0.2,0-0.4c0-0.2,0.1-0.4,0.2-0.5c0.1-0.1,0.2-0.3,0.4-0.3
																C166.8,50.5,166.9,50.5,167.1,50.5L167.1,50.5z M169.9,49.5c0.1,0,0.2,0,0.3,0l-0.1,0.3H170c0-0.1,0-0.1-0.1-0.2
																s-0.1-0.1-0.1-0.1c-0.1,0-0.1,0-0.2,0.1c-0.1,0-0.1,0.1-0.1,0.2c0,0.1-0.1,0.2-0.1,0.3l-0.1,0.2h0.5l0,0.2h-0.5
																l-0.4,1.8c-0.1,0.3-0.2,0.5-0.3,0.7c-0.1,0.1-0.3,0.2-0.5,0.2c-0.1,0-0.1,0-0.1,0l0-0.2c0,0,0,0,0.1,0
																c0.1,0,0.1,0,0.2,0c0,0,0.1-0.1,0.1-0.2c0-0.1,0.1-0.2,0.1-0.3l0.4-1.9h-0.3l0-0.1c0.1,0,0.2,0,0.2,0
																c0,0,0.1,0,0.1,0c0,0,0,0,0.1-0.1c0,0,0-0.1,0.1-0.2c0.1-0.2,0.2-0.4,0.3-0.6C169.5,49.6,169.7,49.5,169.9,49.5
																L169.9,49.5z"/>
															<g class="st30">
																<defs>
																	<polygon id="SVGID_29_" points="3.7,188.7 198.7,188.7 198.7,13 3.7,13 3.7,188.7 																	"/>
																</defs>
																<clipPath id="SVGID_30_">
																	<use xlink:href="#SVGID_29_"  style="overflow:visible;"/>
																</clipPath>
																<path class="st31" d="M151,55.3c0.1,0,0.1,0,0.1,0c0,0,0.1,0,0.1,0.1c0,0,0.1,0.1,0.1,0.1c0,0,0,0.1,0.1,0.2
																	c0,0.1,0,0.1,0.1,0.2c0,0.2,0.1,0.4,0.1,0.6c0,0.2,0.1,0.4,0.1,0.5c0.1-0.2,0.2-0.4,0.3-0.6
																	c0.1-0.2,0.2-0.3,0.2-0.5c0-0.1,0.1-0.2,0.1-0.3c0-0.1,0-0.1,0-0.1c0,0-0.1,0-0.1,0l0-0.1h0.5l0.1,0.1
																	c-0.1,0.3-0.2,0.6-0.4,0.9c-0.2,0.3-0.4,0.6-0.6,0.9c-0.2,0.3-0.4,0.5-0.5,0.6c-0.1,0.1-0.2,0.2-0.3,0.2
																	c-0.1,0-0.2,0-0.2,0c0,0-0.1,0-0.1,0c0,0-0.1,0-0.1,0l0.1-0.4h0.2c0,0.1,0,0.1,0.1,0.1c0.1,0,0.2,0,0.3-0.1
																	c0.1-0.1,0.2-0.2,0.4-0.4c0-0.2-0.1-0.5-0.2-0.9c-0.1-0.4-0.1-0.6-0.1-0.7c0-0.1-0.1-0.2-0.1-0.2c0,0,0,0-0.1,0
																	c0,0-0.1,0-0.1,0.1c0,0-0.1,0.1-0.1,0.2l-0.1-0.1c0.1-0.1,0.2-0.2,0.3-0.3C150.8,55.4,150.9,55.3,151,55.3L151,55.3
																	z"/>
																<g class="st32">
																	<defs>
																		<polygon id="SVGID_31_" points="3.7,188.7 198.7,188.7 198.7,13 3.7,13 3.7,188.7 																		"/>
																	</defs>
																	<clipPath id="SVGID_32_">
																		<use xlink:href="#SVGID_31_"  style="overflow:visible;"/>
																	</clipPath>
																	<path class="st33" d="M154.2,56.4h2.5v0.3h-2.5V56.4L154.2,56.4z M154.2,55.6h2.5v0.3h-2.5V55.6L154.2,55.6z"/>
																	<g class="st34">
																		<defs>
																			<polygon id="SVGID_33_" points="3.7,188.7 198.7,188.7 198.7,13 3.7,13 3.7,188.7 																			"/>
																		</defs>
																		<clipPath id="SVGID_34_">
																			<use xlink:href="#SVGID_33_"  style="overflow:visible;"/>
																		</clipPath>
																		<path class="st35" d="M160.1,54.4c0.1,0,0.2,0,0.3,0l-0.1,0.3h-0.2c0-0.1,0-0.1-0.1-0.2c0,0-0.1-0.1-0.1-0.1
																			c-0.1,0-0.1,0-0.2,0.1c-0.1,0-0.1,0.1-0.1,0.2c0,0.1-0.1,0.2-0.1,0.3l-0.1,0.2h0.5l0,0.2h-0.5l-0.4,1.8
																			c-0.1,0.3-0.2,0.5-0.3,0.7c-0.1,0.1-0.3,0.2-0.5,0.2c-0.1,0-0.1,0-0.1,0l0-0.2c0,0,0,0,0.1,0c0.1,0,0.1,0,0.2,0
																			c0,0,0.1-0.1,0.1-0.2s0.1-0.2,0.1-0.3l0.4-1.9h-0.3l0-0.1c0.1,0,0.2,0,0.2,0c0,0,0.1,0,0.1,0c0,0,0,0,0.1-0.1
																			c0,0,0-0.1,0.1-0.2c0.1-0.2,0.2-0.4,0.3-0.6C159.6,54.5,159.8,54.4,160.1,54.4L160.1,54.4z"/>
																		<g class="st36">
																			<defs>
																				<polygon id="SVGID_35_" points="3.7,188.7 198.7,188.7 198.7,13 3.7,13 3.7,188.7 																				"/>
																			</defs>
																			<clipPath id="SVGID_36_">
																				<use xlink:href="#SVGID_35_"  style="overflow:visible;"/>
																			</clipPath>
																			<path class="st37" d="M162.1,54.4l0.1,0.2c-0.3,0.1-0.6,0.3-0.7,0.6c-0.2,0.3-0.2,0.7-0.2,1.1
																				c0,0.5,0.1,0.9,0.2,1.2c0.2,0.3,0.4,0.5,0.7,0.6l0,0.2c-0.4-0.1-0.7-0.3-0.9-0.7c-0.2-0.3-0.3-0.8-0.3-1.3
																				c0-0.5,0.1-0.9,0.3-1.3C161.4,54.7,161.7,54.5,162.1,54.4L162.1,54.4z"/>
																			<g class="st38">
																				<defs>
																					<polygon id="SVGID_37_" points="3.7,188.7 198.7,188.7 198.7,13 3.7,13 3.7,188.7 																					"/>
																				</defs>
																				<clipPath id="SVGID_38_">
																					<use xlink:href="#SVGID_37_"  style="overflow:visible;"/>
																				</clipPath>
																				<path class="st39" d="M163.1,55.3c0,0,0.1,0,0.1,0c0,0,0.1,0,0.1,0c0,0,0,0,0.1,0.1c0,0,0,0.1,0.1,0.1
																					c0,0.1,0,0.1,0.1,0.2c0,0.1,0,0.2,0,0.2h0c0.1-0.2,0.2-0.3,0.3-0.4s0.1-0.1,0.2-0.2c0,0,0.1-0.1,0.1-0.1
																					s0.1,0,0.2,0c0.1,0,0.1,0,0.2,0l-0.1,0.4h-0.1c0-0.1,0-0.1-0.1-0.1c0,0,0,0,0,0c0,0,0,0-0.1,0c0,0,0,0-0.1,0.1
																					c0,0-0.1,0.1-0.1,0.1c0,0.1-0.1,0.1-0.1,0.2l-0.1,0.2c0,0.1,0,0.2,0.1,0.3c0,0.1,0,0.2,0.1,0.2
																					c0,0.1,0,0.1,0,0.2c0,0,0,0.1,0,0.1c0,0,0,0,0,0c0,0,0,0,0.1,0c0,0,0.1,0,0.1,0s0.1-0.1,0.2-0.2l0.1,0.1
																					c-0.1,0.1-0.2,0.2-0.3,0.3c-0.1,0.1-0.2,0.1-0.3,0.1c-0.1,0-0.1,0-0.1,0c0,0-0.1-0.1-0.1-0.1
																					c0,0-0.1-0.1-0.1-0.2c0-0.2-0.1-0.3-0.1-0.4h0c-0.1,0.2-0.3,0.3-0.3,0.4c-0.1,0.1-0.1,0.2-0.2,0.2
																					c0,0-0.1,0.1-0.1,0.1c0,0-0.1,0-0.2,0c-0.1,0-0.1,0-0.2,0l0.1-0.4h0.1c0,0.1,0,0.1,0.1,0.1c0,0,0,0,0.1,0
																					c0,0,0.1,0,0.1-0.1c0,0,0.1-0.1,0.2-0.2c0.1-0.1,0.2-0.2,0.3-0.4c0-0.1,0-0.2-0.1-0.3c0-0.1,0-0.2-0.1-0.3
																					c0-0.1,0-0.1-0.1-0.2c0,0,0,0,0-0.1c0,0,0,0-0.1,0c0,0-0.1,0-0.1,0c0,0,0,0-0.1,0.1s-0.1,0.1-0.1,0.2l-0.1-0.1
																					c0.1-0.1,0.2-0.2,0.2-0.3S163,55.3,163.1,55.3L163.1,55.3z"/>
																				<g class="st40">
																					<defs>
																						<polygon id="SVGID_39_" points="3.7,188.7 198.7,188.7 198.7,13 3.7,13 3.7,188.7 																						"/>
																					</defs>
																					<clipPath id="SVGID_40_">
																						<use xlink:href="#SVGID_39_"  style="overflow:visible;"/>
																					</clipPath>
																					<path class="st41" d="M164.8,54.4c0.4,0.1,0.7,0.3,0.9,0.7s0.3,0.8,0.3,1.3c0,0.5-0.1,0.9-0.3,1.3
																						c-0.2,0.3-0.5,0.6-0.9,0.7l0-0.2c0.3-0.1,0.5-0.3,0.7-0.6c0.2-0.3,0.2-0.7,0.2-1.2c0-0.5-0.1-0.8-0.2-1.1
																						c-0.2-0.3-0.4-0.5-0.7-0.6L164.8,54.4z"/>
																					<g class="st42">
																						<defs>
																							<polygon id="SVGID_41_" points="3.7,188.7 198.7,188.7 198.7,13 3.7,13 3.7,188.7 																							
																								"/>
																						</defs>
																						<clipPath id="SVGID_42_">
																							<use xlink:href="#SVGID_41_"  style="overflow:visible;"/>
																						</clipPath>
																						<path class="st43" d="M70.5,92.2c0-2.2,1.8-4,4-4c2.2,0,4,1.8,4,4c0,2.2-1.8,4-4,4
																							C72.3,96.2,70.5,94.4,70.5,92.2L70.5,92.2z"/>
																						<path class="st44" d="M70.5,92.2c0-2.2,1.8-4,4-4c2.2,0,4,1.8,4,4c0,2.2-1.8,4-4,4
																							C72.3,96.2,70.5,94.4,70.5,92.2L70.5,92.2z"/>
																						<g class="st45">
																							<defs>
																								<polygon id="SVGID_43_" points="3.7,188.7 198.7,188.7 198.7,13 3.7,13 3.7,188.7 																								
																									"/>
																							</defs>
																							<clipPath id="SVGID_44_">
																								<use xlink:href="#SVGID_43_"  style="overflow:visible;"/>
																							</clipPath>
																							<path class="st46" d="M84.1,94.6c-0.2,0-0.4,0-0.6,0L83,97.3h0.5c0.4,0,0.6,0,0.9-0.1
																								c0.2-0.1,0.4-0.2,0.5-0.3c0.1-0.2,0.2-0.3,0.3-0.6s0.1-0.4,0.1-0.7c0-0.3-0.1-0.6-0.3-0.8
																								C84.8,94.7,84.5,94.6,84.1,94.6L84.1,94.6z M82.3,94.2h2c0.4,0,0.6,0,0.9,0.1c0.2,0.1,0.4,0.1,0.6,0.3
																								c0.1,0.1,0.3,0.3,0.3,0.4c0.1,0.2,0.1,0.4,0.1,0.6c0,0.4-0.1,0.8-0.3,1.2s-0.5,0.6-0.9,0.7
																								c-0.4,0.2-0.8,0.2-1.3,0.2c-0.3,0-0.6,0-0.8,0L82.6,99c0,0.1,0,0.2-0.1,0.3c0,0.1,0,0.1,0,0.2
																								c0,0.1,0,0.1,0,0.2c0,0.1,0,0.2,0,0.2c0,0.1,0.1,0.1,0.1,0.1c0.1,0,0.2,0,0.3,0.1l0,0.2h-1.8l0-0.2
																								c0.1,0,0.2,0,0.3-0.1c0.1,0,0.1-0.1,0.1-0.2c0-0.1,0.1-0.2,0.1-0.3c0-0.1,0.1-0.3,0.1-0.6l0.8-3.4
																								c0.1-0.3,0.1-0.5,0.1-0.7c0-0.1,0-0.2-0.1-0.3s-0.2-0.1-0.3-0.1L82.3,94.2z"/>
																							<g class="st47">
																								<defs>
																									<polygon id="SVGID_45_" points="3.7,188.7 198.7,188.7 198.7,13 3.7,13 3.7,188.7 
																																																			"/>
																								</defs>
																								<clipPath id="SVGID_46_">
																									<use xlink:href="#SVGID_45_"  style="overflow:visible;"/>
																								</clipPath>
																								<line class="st48" x1="115.7" y1="32.3" x2="38.7" y2="144.4"/>
																								<g class="st49">
																									<defs>
																										<polygon id="SVGID_47_" points="3.7,188.7 198.7,188.7 198.7,13 3.7,13 3.7,188.7 
																																																					"/>
																									</defs>
																									<clipPath id="SVGID_48_">
																										<use xlink:href="#SVGID_47_"  style="overflow:visible;"/>
																									</clipPath>
																									<path class="st50" d="M77.2,37.9c-0.1,0-0.3,0.1-0.4,0.2c-0.1,0.1-0.2,0.3-0.3,0.4s-0.2,0.4-0.2,0.7l0,0.1
																										c0,0.1,0,0.3,0,0.4c0,0.1,0,0.2,0.1,0.3c0,0.1,0.1,0.1,0.2,0.1c0.1,0,0.2,0,0.3-0.1c0.1,0,0.2-0.1,0.2-0.2
																										c0.1-0.1,0.1-0.2,0.2-0.4c0.1-0.2,0.1-0.3,0.2-0.6c0-0.2,0.1-0.4,0.1-0.6c0-0.1,0-0.3-0.1-0.3
																										C77.4,37.9,77.3,37.9,77.2,37.9L77.2,37.9z M80.7,37.7c-0.2,0-0.3,0.1-0.5,0.3c-0.1,0.2-0.3,0.4-0.4,0.8
																										c0.4,0,0.6-0.1,0.8-0.2c0.2-0.1,0.3-0.3,0.3-0.5c0-0.1,0-0.2-0.1-0.2S80.8,37.7,80.7,37.7L80.7,37.7z
																										 M73.3,37.7c-0.2,0-0.3,0.1-0.4,0.2c-0.1,0.2-0.2,0.4-0.3,0.7c-0.1,0.3-0.1,0.6-0.1,0.9
																										c0,0.2,0,0.3,0.1,0.4c0.1,0.1,0.2,0.1,0.3,0.1c0.2,0,0.3-0.1,0.4-0.2c0.1-0.2,0.2-0.4,0.3-0.7
																										c0.1-0.3,0.1-0.6,0.1-0.9c0-0.2,0-0.3-0.1-0.4C73.6,37.8,73.5,37.7,73.3,37.7L73.3,37.7z M80.8,37.4
																										c0.6,0,0.9,0.2,0.9,0.7c0,0.1,0,0.3-0.1,0.4c-0.1,0.1-0.2,0.2-0.3,0.3S80.9,39,80.7,39
																										c-0.3,0.1-0.6,0.1-0.9,0.1c0,0.1,0,0.2,0,0.4c0,0.2,0,0.3,0.1,0.4S80,40,80.2,40c0.2,0,0.3,0,0.5-0.1
																										c0.1-0.1,0.3-0.2,0.5-0.4l0.2,0.2c-0.2,0.2-0.4,0.4-0.6,0.5c-0.2,0.1-0.5,0.2-0.7,0.2
																										c-0.2,0-0.4,0-0.6-0.1c-0.2-0.1-0.3-0.2-0.4-0.4c-0.1-0.2-0.1-0.3-0.1-0.6c0-0.1,0-0.2,0-0.4
																										c0-0.2,0.1-0.4,0.2-0.6c0.1-0.2,0.2-0.4,0.4-0.5c0.2-0.1,0.3-0.3,0.5-0.3C80.3,37.5,80.5,37.4,80.8,37.4
																										L80.8,37.4z M75.9,37.4c0.2,0,0.3,0,0.4,0.1c0.1,0.1,0.1,0.2,0.1,0.4c0,0,0,0.1,0,0.1l0,0
																										c0.2-0.2,0.4-0.4,0.5-0.5c0.2-0.1,0.4-0.2,0.6-0.2c0.2,0,0.4,0.1,0.5,0.2s0.2,0.4,0.2,0.7
																										c0,0.3,0,0.5-0.1,0.8c-0.1,0.3-0.2,0.5-0.3,0.7c-0.1,0.2-0.3,0.3-0.5,0.4c-0.2,0.1-0.5,0.2-0.7,0.2
																										c-0.2,0-0.3,0-0.5-0.1l-0.1,0.5c0,0.1,0,0.2,0,0.2c0,0,0,0.1,0,0.1c0,0.1,0,0.1,0.1,0.2
																										c0,0,0.1,0.1,0.2,0.1l0,0.2h-1.2l0.7-3.3c0-0.1,0-0.2,0-0.3c0-0.1,0-0.1,0-0.2c0,0-0.1-0.1-0.1-0.1
																										c-0.1,0-0.1,0-0.2,0.1c-0.1,0.1-0.2,0.1-0.2,0.2L74.9,38c0.2-0.2,0.4-0.3,0.5-0.4
																										C75.6,37.5,75.8,37.4,75.9,37.4L75.9,37.4z M73.4,37.4c0.2,0,0.4,0,0.6,0.1c0.2,0.1,0.3,0.2,0.4,0.4
																										c0.1,0.2,0.1,0.3,0.1,0.6c0,0.3,0,0.5-0.1,0.8c-0.1,0.3-0.2,0.5-0.4,0.7c-0.2,0.2-0.3,0.3-0.5,0.4
																										c-0.2,0.1-0.4,0.1-0.7,0.1c-0.2,0-0.4,0-0.6-0.1c-0.2-0.1-0.3-0.2-0.4-0.4c-0.1-0.2-0.1-0.4-0.1-0.6
																										c0-0.2,0-0.5,0.1-0.7c0.1-0.3,0.2-0.5,0.3-0.7c0.2-0.2,0.3-0.3,0.6-0.4S73.1,37.4,73.4,37.4L73.4,37.4z
																										 M68,36.3c0.2,0,0.4,0,0.5,0c0.2,0,0.3,0.1,0.5,0.1l-0.2,0.8h-0.4c0-0.2,0-0.4-0.1-0.5s-0.2-0.2-0.4-0.2
																										c-0.2,0-0.4,0.1-0.5,0.2c-0.1,0.1-0.2,0.3-0.2,0.5c0,0.1,0,0.3,0.1,0.4c0.1,0.1,0.2,0.3,0.4,0.4
																										c0.2,0.1,0.3,0.2,0.4,0.4c0.1,0.1,0.2,0.2,0.2,0.3c0,0.1,0.1,0.2,0.1,0.4c0,0.2,0,0.4-0.1,0.5
																										c-0.1,0.2-0.2,0.3-0.3,0.4c-0.1,0.1-0.3,0.2-0.5,0.3c-0.2,0.1-0.4,0.1-0.7,0.1c-0.2,0-0.4,0-0.6,0
																										c-0.2,0-0.4-0.1-0.6-0.1l0.2-0.9h0.4c0,0.2,0,0.3,0.1,0.4c0,0.1,0.1,0.2,0.2,0.2c0.1,0,0.2,0.1,0.3,0.1
																										c0.2,0,0.4-0.1,0.5-0.2c0.1-0.1,0.2-0.3,0.2-0.5c0-0.1,0-0.2-0.1-0.3s-0.1-0.2-0.2-0.3
																										c-0.1-0.1-0.2-0.2-0.4-0.3c-0.2-0.1-0.3-0.3-0.4-0.5c-0.1-0.2-0.1-0.3-0.1-0.5c0-0.2,0-0.3,0.1-0.5
																										c0.1-0.1,0.2-0.3,0.3-0.4c0.1-0.1,0.3-0.2,0.5-0.3C67.5,36.4,67.7,36.3,68,36.3L68,36.3z M70.8,36.2h0.3
																										l-0.8,3.3c0,0.1,0,0.3,0,0.3c0,0.1,0,0.1,0,0.2c0,0,0.1,0,0.1,0c0.1,0,0.1,0,0.2-0.1
																										c0.1-0.1,0.2-0.1,0.3-0.2l0.2,0.2c-0.2,0.2-0.4,0.3-0.5,0.4c-0.2,0.1-0.3,0.1-0.5,0.1
																										c-0.2,0-0.4-0.1-0.5-0.2c-0.1-0.1-0.1-0.3-0.1-0.5c0-0.1,0-0.3,0.1-0.5l0.5-2.3c0-0.2,0.1-0.3,0.1-0.4
																										c0,0,0-0.1,0-0.1c0,0,0,0,0-0.1c0,0,0,0-0.1,0c0,0-0.1,0-0.2,0l0-0.2L70.8,36.2L70.8,36.2z"/>
																									<g class="st51">
																										<defs>
																											<polygon id="SVGID_49_" points="3.7,188.7 198.7,188.7 198.7,13 3.7,13 3.7,188.7 
																																																							"/>
																										</defs>
																										<clipPath id="SVGID_50_">
																											<use xlink:href="#SVGID_49_"  style="overflow:visible;"/>
																										</clipPath>
																										<path class="st52" d="M85.3,37.7c-0.2,0-0.3,0.1-0.5,0.3c-0.1,0.2-0.3,0.4-0.3,0.7
																											c-0.1,0.3-0.1,0.6-0.1,0.8c0,0.1,0,0.3,0.1,0.3c0,0.1,0.1,0.1,0.2,0.1c0.1,0,0.3-0.1,0.4-0.2
																											c0.1-0.1,0.2-0.3,0.3-0.4c0.1-0.2,0.2-0.4,0.2-0.7l0-0.1c0-0.1,0-0.3,0-0.4c0-0.1,0-0.2-0.1-0.3
																											C85.5,37.8,85.4,37.7,85.3,37.7L85.3,37.7z M85.3,37.4c0.3,0,0.5,0.1,0.8,0.2l0.3-0.2l0.3,0l-0.5,2
																											c0,0.1,0,0.2,0,0.3c0,0.1,0,0.1,0,0.2c0,0,0.1,0.1,0.1,0.1c0.1,0,0.1,0,0.2-0.1c0.1-0.1,0.2-0.1,0.2-0.2
																											l0.2,0.2c-0.2,0.2-0.4,0.3-0.5,0.4c-0.1,0.1-0.3,0.1-0.5,0.1c-0.2,0-0.3,0-0.4-0.1
																											c-0.1-0.1-0.1-0.2-0.1-0.4c0,0,0-0.1,0-0.1l0,0c-0.1,0.2-0.3,0.3-0.4,0.4s-0.2,0.2-0.3,0.2
																											c-0.1,0-0.2,0.1-0.4,0.1c-0.2,0-0.4-0.1-0.5-0.2c-0.1-0.2-0.2-0.4-0.2-0.7c0-0.3,0-0.5,0.1-0.8
																											c0.1-0.3,0.2-0.5,0.3-0.7c0.1-0.2,0.3-0.3,0.5-0.4C84.8,37.5,85,37.4,85.3,37.4L85.3,37.4z M88.2,36.7
																											h0.7l-0.2,0.7h0.7l-0.1,0.4h-0.7L88.4,39c0,0.2-0.1,0.4-0.1,0.5c0,0.1,0,0.2,0,0.3c0,0.1,0,0.2,0.1,0.2
																											c0,0,0.1,0.1,0.1,0.1c0.1,0,0.2,0,0.3-0.1s0.2-0.2,0.3-0.3l0.2,0.2c-0.2,0.2-0.4,0.4-0.5,0.5
																											c-0.2,0.1-0.4,0.1-0.6,0.1c-0.2,0-0.4-0.1-0.5-0.2c-0.1-0.1-0.2-0.3-0.2-0.5c0-0.1,0-0.2,0-0.3
																											c0-0.1,0-0.2,0.1-0.4l0.3-1.3h-0.5l0.1-0.2c0.1,0,0.2,0,0.3,0c0.1,0,0.1-0.1,0.2-0.1
																											c0-0.1,0.1-0.1,0.1-0.2C88.1,37.1,88.2,37,88.2,36.7L88.2,36.7z"/>
																										<g class="st53">
																											<defs>
																												<polygon id="SVGID_51_" points="3.7,188.7 198.7,188.7 198.7,13 3.7,13 3.7,188.7 
																																																									"/>
																											</defs>
																											<clipPath id="SVGID_52_">
																												<use xlink:href="#SVGID_51_"  style="overflow:visible;"/>
																											</clipPath>
																											<path class="st54" d="M93.3,37.9c-0.1,0-0.3,0.1-0.4,0.2c-0.1,0.1-0.2,0.3-0.3,0.4
																												c-0.1,0.2-0.2,0.4-0.2,0.7l0,0.1c0,0.1,0,0.3,0,0.4c0,0.1,0,0.2,0.1,0.3s0.1,0.1,0.2,0.1
																												c0.1,0,0.2,0,0.3-0.1s0.2-0.1,0.2-0.2c0.1-0.1,0.1-0.2,0.2-0.4c0.1-0.2,0.1-0.3,0.2-0.6
																												c0-0.2,0.1-0.4,0.1-0.6c0-0.1,0-0.3-0.1-0.3C93.5,37.9,93.4,37.9,93.3,37.9L93.3,37.9z M96.7,37.7
																												c-0.2,0-0.3,0.1-0.4,0.2c-0.1,0.2-0.2,0.4-0.3,0.7c-0.1,0.3-0.1,0.6-0.1,0.9c0,0.2,0,0.3,0.1,0.4
																												c0.1,0.1,0.2,0.1,0.3,0.1c0.2,0,0.3-0.1,0.4-0.2c0.1-0.2,0.2-0.4,0.3-0.7c0.1-0.3,0.1-0.6,0.1-0.9
																												c0-0.2,0-0.3-0.1-0.4C96.9,37.8,96.8,37.7,96.7,37.7L96.7,37.7z M99.7,37.4h0.3l-0.5,2
																												c0,0.1,0,0.1,0,0.2c0,0,0,0.1,0,0.2c0,0.1,0,0.1,0,0.2c0,0,0.1,0,0.1,0c0.1,0,0.1,0,0.2-0.1
																												c0.1-0.1,0.2-0.1,0.3-0.2l0.2,0.2c-0.2,0.2-0.4,0.3-0.5,0.4c-0.2,0.1-0.3,0.1-0.5,0.1
																												c-0.2,0-0.4-0.1-0.5-0.2c-0.1-0.1-0.1-0.3-0.1-0.5c0-0.1,0-0.3,0.1-0.5l0.2-1c0-0.2,0.1-0.3,0.1-0.4
																												c0-0.1,0-0.1-0.1-0.2c0,0-0.1-0.1-0.2-0.1l0-0.2L99.7,37.4L99.7,37.4z M101.5,37.4c0.2,0,0.3,0,0.4,0.1
																												c0.1,0.1,0.1,0.2,0.1,0.4c0,0,0,0.1,0,0.1l0,0c0.2-0.2,0.4-0.4,0.5-0.5c0.2-0.1,0.4-0.2,0.6-0.2
																												c0.2,0,0.4,0.1,0.5,0.2s0.2,0.3,0.2,0.5c0,0.1,0,0.1,0,0.2c0,0.1,0,0.2,0,0.3l-0.2,0.9
																												c0,0.1-0.1,0.2-0.1,0.3c0,0.1,0,0.1,0,0.2c0,0,0.1,0,0.1,0c0.1,0,0.1,0,0.2-0.1c0.1-0.1,0.2-0.1,0.3-0.2
																												l0.2,0.2c-0.2,0.2-0.4,0.3-0.5,0.4c-0.2,0.1-0.3,0.1-0.5,0.1c-0.2,0-0.4-0.1-0.5-0.2
																												c-0.1-0.1-0.1-0.3-0.1-0.5c0-0.1,0-0.3,0.1-0.6l0.1-0.5c0-0.1,0.1-0.3,0.1-0.4c0-0.1,0-0.2,0-0.3
																												c0-0.1,0-0.2-0.1-0.2c0,0-0.1-0.1-0.2-0.1c-0.1,0-0.2,0.1-0.3,0.2c-0.1,0.1-0.2,0.2-0.3,0.4
																												c-0.1,0.1-0.1,0.3-0.2,0.5l-0.3,1.5h-0.8l0.5-2.1c0-0.1,0-0.2,0-0.3c0-0.1,0-0.1,0-0.2
																												c0,0-0.1-0.1-0.1-0.1c-0.1,0-0.1,0-0.2,0.1c-0.1,0.1-0.2,0.1-0.2,0.2l-0.2-0.2c0.2-0.2,0.4-0.3,0.5-0.4
																												C101.2,37.5,101.4,37.4,101.5,37.4L101.5,37.4z M96.8,37.4c0.2,0,0.4,0,0.6,0.1c0.2,0.1,0.3,0.2,0.4,0.4
																												c0.1,0.2,0.1,0.3,0.1,0.6c0,0.3,0,0.5-0.1,0.8c-0.1,0.3-0.2,0.5-0.4,0.7s-0.3,0.3-0.5,0.4
																												c-0.2,0.1-0.4,0.1-0.7,0.1c-0.2,0-0.4,0-0.6-0.1c-0.2-0.1-0.3-0.2-0.4-0.4c-0.1-0.2-0.1-0.4-0.1-0.6
																												c0-0.2,0-0.5,0.1-0.7c0.1-0.3,0.2-0.5,0.3-0.7s0.3-0.3,0.6-0.4C96.3,37.5,96.5,37.4,96.8,37.4L96.8,37.4
																												z M92,37.4c0.2,0,0.3,0,0.4,0.1c0.1,0.1,0.1,0.2,0.1,0.4c0,0,0,0.1,0,0.1l0,0c0.2-0.2,0.4-0.4,0.5-0.5
																												c0.2-0.1,0.4-0.2,0.6-0.2s0.4,0.1,0.5,0.2c0.1,0.2,0.2,0.4,0.2,0.7c0,0.3,0,0.5-0.1,0.8
																												c-0.1,0.3-0.2,0.5-0.3,0.7c-0.1,0.2-0.3,0.3-0.5,0.4c-0.2,0.1-0.5,0.2-0.7,0.2c-0.2,0-0.3,0-0.5-0.1
																												L92,40.9c0,0.1,0,0.2,0,0.2c0,0,0,0.1,0,0.1c0,0.1,0,0.1,0.1,0.2s0.1,0.1,0.2,0.1l0,0.2H91l0.7-3.3
																												c0-0.1,0-0.2,0-0.3c0-0.1,0-0.1,0-0.2c0,0-0.1-0.1-0.1-0.1c-0.1,0-0.1,0-0.2,0.1s-0.2,0.1-0.2,0.2L91,38
																												c0.2-0.2,0.4-0.3,0.5-0.4C91.7,37.5,91.9,37.4,92,37.4L92,37.4z M105.6,36.7h0.7l-0.2,0.7h0.7l-0.1,0.4
																												H106l-0.3,1.2c0,0.2-0.1,0.4-0.1,0.5c0,0.1,0,0.2,0,0.3c0,0.1,0,0.2,0.1,0.2c0,0,0.1,0.1,0.1,0.1
																												c0.1,0,0.2,0,0.3-0.1c0.1-0.1,0.2-0.2,0.3-0.3l0.2,0.2c-0.2,0.2-0.4,0.4-0.5,0.5
																												c-0.2,0.1-0.4,0.1-0.6,0.1c-0.2,0-0.4-0.1-0.5-0.2c-0.1-0.1-0.2-0.3-0.2-0.5c0-0.1,0-0.2,0-0.3
																												c0-0.1,0-0.2,0.1-0.4l0.3-1.3h-0.5l0.1-0.2c0.1,0,0.2,0,0.3,0c0.1,0,0.1-0.1,0.2-0.1s0.1-0.1,0.1-0.2
																												C105.5,37.1,105.5,37,105.6,36.7L105.6,36.7z M99.4,36.3h0.8L100,37h-0.8L99.4,36.3L99.4,36.3z"/>
																											<g class="st55">
																												<defs>
																													<polygon id="SVGID_53_" points="3.7,188.7 198.7,188.7 198.7,13 3.7,13 3.7,188.7 
																																																											"/>
																												</defs>
																												<clipPath id="SVGID_54_">
																													<use xlink:href="#SVGID_53_"  style="overflow:visible;"/>
																												</clipPath>
																												<path class="st56" d="M86.7,44.1l-0.9,1.7h1l0-0.7c0-0.3,0-0.5,0-0.6C86.8,44.4,86.8,44.3,86.7,44.1
																													L86.7,44.1z M86.7,43.4h0.9l0.1,3.2c0,0.1,0,0.2,0,0.3c0,0.1,0,0.2,0.1,0.2s0.1,0.1,0.1,0.1
																													c0,0,0.1,0,0.1,0.1l0,0.2h-1.5l0-0.2c0.1,0,0.2,0,0.2-0.1s0.1-0.1,0.1-0.2c0-0.1,0-0.2,0-0.3
																													c0-0.1,0-0.2,0-0.3l0-0.3h-1.2l0,0.1c-0.1,0.2-0.2,0.3-0.2,0.5c0,0.1-0.1,0.2-0.1,0.3
																													c0,0.1,0.1,0.2,0.3,0.2l0,0.2h-1.2l0-0.2c0.1,0,0.1,0,0.2-0.1c0.1,0,0.1-0.1,0.1-0.2
																													c0-0.1,0.1-0.2,0.2-0.3L86.7,43.4z"/>
																											</g>
																										</g>
																									</g>
																								</g>
																							</g>
																						</g>
																					</g>
																				</g>
																			</g>
																		</g>
																	</g>
																</g>
															</g>
														</g>
													</g>
												</g>
											</g>
										</g>
									</g>
								</g>
							</g>
						</g>
					</g>
				</g>
			</g>
		</g>
	</g>
</g>
</svg>
