<?xml version="1.0" encoding="utf-8"?>
<!-- Generator: Adobe Illustrator 23.0.2, SVG Export Plug-In . SVG Version: 6.00 Build 0)  -->
<svg version="1.1" id="Layer_1" xmlns="http://www.w3.org/2000/svg" xmlns:xlink="http://www.w3.org/1999/xlink" x="0px" y="0px"
	 viewBox="0 0 200 200" style="enable-background:new 0 0 200 200;" xml:space="preserve">
<style type="text/css">
	.st0{clip-path:url(#SVGID_2_);}
	.st1{clip-path:url(#SVGID_4_);}
	.st2{clip-path:url(#SVGID_6_);}
	.st3{clip-path:url(#SVGID_8_);}
	.st4{clip-path:url(#SVGID_10_);}
	.st5{clip-path:url(#SVGID_12_);}
	.st6{clip-path:url(#SVGID_14_);}
	.st7{clip-path:url(#SVGID_16_);}
	.st8{clip-path:url(#SVGID_18_);}
	.st9{clip-path:url(#SVGID_20_);}
	.st10{clip-path:url(#SVGID_22_);}
	.st11{clip-path:url(#SVGID_24_);}
	.st12{clip-path:url(#SVGID_26_);}
	.st13{clip-path:url(#SVGID_28_);}
	.st14{clip-path:url(#SVGID_30_);}
	.st15{clip-path:url(#SVGID_32_);}
	.st16{clip-path:url(#SVGID_34_);}
	.st17{fill:none;stroke:#000000;stroke-width:0.8891;stroke-miterlimit:8;}
	.st18{fill-rule:evenodd;clip-rule:evenodd;}
	.st19{clip-path:url(#SVGID_38_);fill:none;stroke:#000000;stroke-width:0.8891;stroke-miterlimit:8;}
	.st20{clip-path:url(#SVGID_38_);fill-rule:evenodd;clip-rule:evenodd;}
	.st21{clip-path:url(#SVGID_38_);}
	.st22{clip-path:url(#SVGID_40_);fill-rule:evenodd;clip-rule:evenodd;}
	.st23{clip-path:url(#SVGID_40_);}
	.st24{clip-path:url(#SVGID_42_);fill-rule:evenodd;clip-rule:evenodd;}
	.st25{clip-path:url(#SVGID_42_);}
	.st26{clip-path:url(#SVGID_44_);fill-rule:evenodd;clip-rule:evenodd;}
	.st27{clip-path:url(#SVGID_44_);}
	.st28{clip-path:url(#SVGID_46_);fill-rule:evenodd;clip-rule:evenodd;}
	.st29{clip-path:url(#SVGID_46_);}
	.st30{clip-path:url(#SVGID_48_);fill-rule:evenodd;clip-rule:evenodd;}
	.st31{clip-path:url(#SVGID_48_);}
	.st32{clip-path:url(#SVGID_50_);fill-rule:evenodd;clip-rule:evenodd;}
	.st33{clip-path:url(#SVGID_50_);}
	.st34{clip-path:url(#SVGID_52_);fill-rule:evenodd;clip-rule:evenodd;}
	.st35{clip-path:url(#SVGID_52_);}
	.st36{clip-path:url(#SVGID_54_);fill-rule:evenodd;clip-rule:evenodd;}
	.st37{clip-path:url(#SVGID_54_);}
	.st38{clip-path:url(#SVGID_56_);fill-rule:evenodd;clip-rule:evenodd;}
	.st39{clip-path:url(#SVGID_56_);}
	.st40{clip-path:url(#SVGID_58_);fill-rule:evenodd;clip-rule:evenodd;}
	.st41{clip-path:url(#SVGID_58_);}
	.st42{clip-path:url(#SVGID_60_);fill-rule:evenodd;clip-rule:evenodd;}
	.st43{clip-path:url(#SVGID_60_);}
	.st44{clip-path:url(#SVGID_62_);fill-rule:evenodd;clip-rule:evenodd;}
	.st45{clip-path:url(#SVGID_62_);}
	.st46{clip-path:url(#SVGID_64_);}
	.st47{fill:none;stroke:#000000;stroke-width:0.6669;stroke-miterlimit:8;}
	.st48{fill:none;stroke:#000000;stroke-width:0.6669;stroke-miterlimit:8;stroke-dasharray:3.8623,1.5449;}
	.st49{clip-path:url(#SVGID_66_);}
	.st50{fill:none;stroke:#000000;stroke-width:0.6669;stroke-miterlimit:8;stroke-dasharray:3.9472,1.5789;}
	.st51{clip-path:url(#SVGID_68_);fill-rule:evenodd;clip-rule:evenodd;}
	.st52{clip-path:url(#SVGID_68_);}
	.st53{clip-path:url(#SVGID_70_);fill-rule:evenodd;clip-rule:evenodd;}
	.st54{clip-path:url(#SVGID_70_);}
	.st55{clip-path:url(#SVGID_72_);fill:none;stroke:#000000;stroke-width:0.6598;stroke-miterlimit:8;}
	.st56{clip-path:url(#SVGID_74_);}
	.st57{clip-path:url(#SVGID_76_);}
	.st58{clip-path:url(#SVGID_78_);}
	.st59{clip-path:url(#SVGID_80_);}
	.st60{clip-path:url(#SVGID_82_);}
	.st61{clip-path:url(#SVGID_84_);}
	.st62{clip-path:url(#SVGID_86_);}
	.st63{clip-path:url(#SVGID_88_);}
	.st64{clip-path:url(#SVGID_90_);}
	.st65{clip-path:url(#SVGID_92_);}
	.st66{clip-path:url(#SVGID_94_);}
	.st67{clip-path:url(#SVGID_96_);}
	.st68{clip-path:url(#SVGID_98_);}
	.st69{clip-path:url(#SVGID_100_);}
	.st70{clip-path:url(#SVGID_102_);}
	.st71{clip-path:url(#SVGID_104_);}
	.st72{clip-path:url(#SVGID_106_);}
	.st73{fill-rule:evenodd;clip-rule:evenodd;fill:none;stroke:#000000;stroke-width:0.3;}
	.st74{fill:#FFFFFF;stroke:#231F20;stroke-width:0.8798;stroke-miterlimit:10;}
</style>
<g>
	<g>
		<g>
			<g>
				<defs>
					<polygon id="SVGID_1_" points="-9,172.2 184.3,172.2 201,31.6 7.8,31.6 7.8,172.2 					"/>
				</defs>
				<clipPath id="SVGID_2_">
					<use xlink:href="#SVGID_1_"  style="overflow:visible;"/>
				</clipPath>
				<g class="st0">
					<defs>
						<polygon id="SVGID_3_" points="-9,172.2 184.3,172.2 201,31.6 7.8,31.6 7.8,172.2 						"/>
					</defs>
					<clipPath id="SVGID_4_">
						<use xlink:href="#SVGID_3_"  style="overflow:visible;"/>
					</clipPath>
					<g class="st1">
						<defs>
							<polygon id="SVGID_5_" points="-9,172.2 184.3,172.2 201,31.6 7.8,31.6 7.8,172.2 							"/>
						</defs>
						<clipPath id="SVGID_6_">
							<use xlink:href="#SVGID_5_"  style="overflow:visible;"/>
						</clipPath>
						<g class="st2">
							<defs>
								<polygon id="SVGID_7_" points="-9,172.2 184.3,172.2 201,31.6 7.8,31.6 7.8,172.2 								"/>
							</defs>
							<clipPath id="SVGID_8_">
								<use xlink:href="#SVGID_7_"  style="overflow:visible;"/>
							</clipPath>
							<g class="st3">
								<defs>
									<polygon id="SVGID_9_" points="-9,172.2 184.3,172.2 201,31.6 7.8,31.6 7.8,172.2 									"/>
								</defs>
								<clipPath id="SVGID_10_">
									<use xlink:href="#SVGID_9_"  style="overflow:visible;"/>
								</clipPath>
								<g class="st4">
									<defs>
										<polygon id="SVGID_11_" points="-9,172.2 184.3,172.2 201,31.6 7.8,31.6 7.8,172.2 										"/>
									</defs>
									<clipPath id="SVGID_12_">
										<use xlink:href="#SVGID_11_"  style="overflow:visible;"/>
									</clipPath>
									<g class="st5">
										<defs>
											<polygon id="SVGID_13_" points="-9,172.2 184.3,172.2 201,31.6 7.8,31.6 7.8,172.2 											"/>
										</defs>
										<clipPath id="SVGID_14_">
											<use xlink:href="#SVGID_13_"  style="overflow:visible;"/>
										</clipPath>
										<g class="st6">
											<defs>
												<polygon id="SVGID_15_" points="-9,172.2 184.3,172.2 201,31.6 7.8,31.6 7.8,172.2 												"/>
											</defs>
											<clipPath id="SVGID_16_">
												<use xlink:href="#SVGID_15_"  style="overflow:visible;"/>
											</clipPath>
											<g class="st7">
												<defs>
													<polygon id="SVGID_17_" points="-9,172.2 184.3,172.2 201,31.6 7.8,31.6 7.8,172.2 													"/>
												</defs>
												<clipPath id="SVGID_18_">
													<use xlink:href="#SVGID_17_"  style="overflow:visible;"/>
												</clipPath>
												<g class="st8">
													<defs>
														<polygon id="SVGID_19_" points="-9,172.2 184.3,172.2 201,31.6 7.8,31.6 7.8,172.2 														"/>
													</defs>
													<clipPath id="SVGID_20_">
														<use xlink:href="#SVGID_19_"  style="overflow:visible;"/>
													</clipPath>
													<g class="st9">
														<defs>
															<polygon id="SVGID_21_" points="-9,172.2 184.3,172.2 201,31.6 7.8,31.6 7.8,172.2 															"/>
														</defs>
														<clipPath id="SVGID_22_">
															<use xlink:href="#SVGID_21_"  style="overflow:visible;"/>
														</clipPath>
														<g class="st10">
															<defs>
																<polygon id="SVGID_23_" points="-9,172.2 184.3,172.2 201,31.6 7.8,31.6 7.8,172.2 																"/>
															</defs>
															<clipPath id="SVGID_24_">
																<use xlink:href="#SVGID_23_"  style="overflow:visible;"/>
															</clipPath>
															<g class="st11">
																<defs>
																	<polygon id="SVGID_25_" points="-9,172.2 184.3,172.2 201,31.6 7.8,31.6 7.8,172.2 																	"/>
																</defs>
																<clipPath id="SVGID_26_">
																	<use xlink:href="#SVGID_25_"  style="overflow:visible;"/>
																</clipPath>
																<g class="st12">
																	<defs>
																		<polygon id="SVGID_27_" points="-9,172.2 184.3,172.2 201,31.6 7.8,31.6 7.8,172.2 																		"/>
																	</defs>
																	<clipPath id="SVGID_28_">
																		<use xlink:href="#SVGID_27_"  style="overflow:visible;"/>
																	</clipPath>
																	<g class="st13">
																		<defs>
																			<polygon id="SVGID_29_" points="-9,172.2 184.3,172.2 201,31.6 7.8,31.6 7.8,172.2 																			"/>
																		</defs>
																		<clipPath id="SVGID_30_">
																			<use xlink:href="#SVGID_29_"  style="overflow:visible;"/>
																		</clipPath>
																		<g class="st14">
																			<defs>
																				<polygon id="SVGID_31_" points="-9,172.2 184.3,172.2 201,31.6 7.8,31.6 7.8,172.2 																				"/>
																			</defs>
																			<clipPath id="SVGID_32_">
																				<use xlink:href="#SVGID_31_"  style="overflow:visible;"/>
																			</clipPath>
																			<g class="st15">
																				<defs>
																					<polygon id="SVGID_33_" points="-9,172.2 184.3,172.2 201,31.6 7.8,31.6 7.8,172.2 																					"/>
																				</defs>
																				<clipPath id="SVGID_34_">
																					<use xlink:href="#SVGID_33_"  style="overflow:visible;"/>
																				</clipPath>
																				<g class="st16">
																					<defs>
																						<polygon id="SVGID_35_" points="-9,172.2 184.3,172.2 201,31.6 7.8,31.6 7.8,172.2 																						"/>
																					</defs>
																					<clipPath id="SVGID_36_">
																						<use xlink:href="#SVGID_35_"  style="overflow:visible;"/>
																					</clipPath>
																				</g>
																			</g>
																		</g>
																	</g>
																</g>
															</g>
														</g>
													</g>
												</g>
											</g>
										</g>
									</g>
								</g>
							</g>
						</g>
					</g>
				</g>
			</g>
		</g>
		<g>
			<line class="st17" x1="8.9" y1="151.9" x2="186.9" y2="152.4"/>
			<polygon class="st18" points="186.5,151.1 189.2,152.4 186.5,153.7 186.5,151.1 			"/>
			<g>
				<defs>
					<polygon id="SVGID_37_" points="-9,172.2 184.3,172.2 201,31.6 7.8,31.6 7.8,172.2 					"/>
				</defs>
				<clipPath id="SVGID_38_">
					<use xlink:href="#SVGID_37_"  style="overflow:visible;"/>
				</clipPath>
				<line class="st19" x1="93.5" y1="158.9" x2="93.5" y2="43.1"/>
				<polygon class="st20" points="94.8,43.6 93.5,40.9 92.2,43.6 94.8,43.6 				"/>
				<g class="st21">
					<defs>
						<polygon id="SVGID_39_" points="-9,172.2 184.3,172.2 201,31.6 7.8,31.6 7.8,172.2 						"/>
					</defs>
					<clipPath id="SVGID_40_">
						<use xlink:href="#SVGID_39_"  style="overflow:visible;"/>
					</clipPath>
					<path class="st22" d="M86.3,37.7c0.1,0,0.3,0,0.4,0.1c0.1,0,0.1,0.1,0.2,0.1c0.1,0.1,0.1,0.2,0.2,0.3s0.1,0.2,0.1,0.4
						c0,0.1,0.1,0.3,0.1,0.6c0.1,0.4,0.2,0.9,0.2,1.4c0.1,0.5,0.1,1,0.2,1.4c0.3-0.5,0.6-1,0.9-1.4s0.4-0.9,0.5-1.2
						c0.1-0.3,0.2-0.6,0.2-0.8c0-0.2,0-0.3-0.1-0.3C89.1,38.1,89,38,88.8,38l0.1-0.3h1.4l0.1,0.3c-0.3,0.7-0.6,1.5-1.1,2.3
						c-0.4,0.8-1,1.6-1.5,2.4c-0.5,0.8-1,1.3-1.4,1.7c-0.3,0.2-0.5,0.4-0.7,0.5C85.5,45,85.3,45,85.1,45c-0.1,0-0.2,0-0.3,0
						s-0.2,0-0.2,0l0.2-1h0.4c0,0.2,0.1,0.3,0.2,0.3c0.2,0,0.4-0.1,0.7-0.4c0.3-0.3,0.6-0.6,0.9-1.1c-0.1-0.6-0.2-1.3-0.4-2.2
						c-0.2-0.9-0.3-1.5-0.4-1.7c-0.1-0.3-0.1-0.4-0.2-0.5c0,0-0.1-0.1-0.2-0.1c-0.1,0-0.2,0-0.3,0.1c-0.1,0.1-0.2,0.2-0.4,0.5
						l-0.3-0.2c0.2-0.4,0.5-0.6,0.7-0.8C85.8,37.7,86,37.7,86.3,37.7L86.3,37.7z"/>
					<g class="st23">
						<defs>
							<polygon id="SVGID_41_" points="-9,172.2 184.3,172.2 201,31.6 7.8,31.6 7.8,172.2 							"/>
						</defs>
						<clipPath id="SVGID_42_">
							<use xlink:href="#SVGID_41_"  style="overflow:visible;"/>
						</clipPath>
						<path class="st24" d="M192.4,155.2c0.1,0,0.2,0,0.3,0c0.1,0,0.2,0.1,0.2,0.1c0.1,0.1,0.1,0.1,0.2,0.2c0,0.1,0.1,0.2,0.1,0.3
							s0.1,0.3,0.1,0.5s0.1,0.4,0.1,0.6h0.1c0.3-0.5,0.6-0.8,0.8-1s0.3-0.4,0.4-0.5c0.1-0.1,0.2-0.2,0.3-0.2c0.1,0,0.3-0.1,0.4-0.1
							c0.2,0,0.3,0,0.4,0.1l-0.2,0.9h-0.4c0-0.1-0.1-0.2-0.2-0.2c0,0-0.1,0-0.1,0s-0.1,0-0.1,0.1c-0.1,0-0.1,0.1-0.2,0.2
							c-0.1,0.1-0.2,0.2-0.3,0.4s-0.2,0.3-0.4,0.5l-0.4,0.4c0.1,0.3,0.1,0.6,0.2,0.9c0.1,0.2,0.1,0.4,0.1,0.6c0,0.2,0.1,0.3,0.1,0.4
							c0,0.1,0.1,0.2,0.1,0.2c0,0,0.1,0.1,0.1,0.1c0,0,0.1,0,0.1,0c0.1,0,0.2,0,0.3-0.1c0.1-0.1,0.2-0.2,0.4-0.5l0.3,0.2
							c-0.2,0.4-0.5,0.6-0.7,0.8c-0.2,0.1-0.4,0.2-0.7,0.2c-0.1,0-0.3,0-0.4-0.1c-0.1-0.1-0.2-0.1-0.3-0.3c-0.1-0.1-0.1-0.3-0.2-0.6
							c-0.1-0.4-0.2-0.8-0.2-1h-0.1c-0.4,0.5-0.6,0.9-0.8,1.1c-0.2,0.2-0.3,0.4-0.4,0.5c-0.1,0.1-0.2,0.2-0.3,0.2
							c-0.1,0-0.3,0.1-0.4,0.1c-0.2,0-0.3,0-0.4-0.1l0.2-0.9h0.4c0,0.1,0.1,0.2,0.2,0.2c0,0,0.1,0,0.2,0s0.1-0.1,0.2-0.2
							s0.2-0.3,0.4-0.5c0.2-0.2,0.4-0.5,0.8-1c-0.1-0.3-0.1-0.5-0.2-0.8s-0.1-0.5-0.2-0.7c-0.1-0.2-0.1-0.4-0.1-0.4
							c0-0.1-0.1-0.1-0.1-0.1c0,0-0.1,0-0.2,0c-0.1,0-0.1,0-0.2,0c-0.1,0-0.1,0.1-0.2,0.2c-0.1,0.1-0.2,0.2-0.3,0.4l-0.3-0.2
							c0.2-0.3,0.4-0.6,0.6-0.7S192.1,155.2,192.4,155.2L192.4,155.2z"/>
						<g class="st25">
							<defs>
								<polygon id="SVGID_43_" points="-9,172.2 184.3,172.2 201,31.6 7.8,31.6 7.8,172.2 								"/>
							</defs>
							<clipPath id="SVGID_44_">
								<use xlink:href="#SVGID_43_"  style="overflow:visible;"/>
							</clipPath>
							<path class="st26" d="M88,155.7c-0.4,0-0.7,0.2-0.9,0.5c-0.3,0.3-0.5,0.7-0.6,1.3c-0.2,0.6-0.2,1-0.2,1.5
								c0,0.4,0.1,0.7,0.2,0.8c0.2,0.2,0.4,0.3,0.7,0.3c0.3,0,0.6-0.2,0.9-0.5c0.3-0.3,0.5-0.7,0.6-1.3c0.2-0.6,0.2-1,0.2-1.5
								c0-0.4-0.1-0.7-0.2-0.8C88.5,155.8,88.3,155.7,88,155.7L88,155.7z M88.1,155.3c0.6,0,1,0.2,1.3,0.5c0.3,0.3,0.4,0.7,0.4,1.3
								c0,0.4-0.1,0.8-0.2,1.3c-0.1,0.5-0.3,0.8-0.6,1.2c-0.2,0.3-0.5,0.5-0.9,0.7s-0.7,0.2-1.2,0.2c-0.5,0-1-0.2-1.3-0.5
								c-0.3-0.3-0.4-0.7-0.4-1.3c0-0.3,0-0.6,0.1-1c0.1-0.5,0.3-0.9,0.5-1.3s0.6-0.7,0.9-0.8S87.6,155.3,88.1,155.3L88.1,155.3z"/>
							<g class="st27">
								<defs>
									<polygon id="SVGID_45_" points="-9,172.2 184.3,172.2 201,31.6 7.8,31.6 7.8,172.2 									"/>
								</defs>
								<clipPath id="SVGID_46_">
									<use xlink:href="#SVGID_45_"  style="overflow:visible;"/>
								</clipPath>
								<path class="st28" d="M102.1,167.3c-0.2,0-0.3,0.1-0.5,0.3c-0.2,0.2-0.3,0.4-0.4,0.7c0.2,0,0.5,0,0.6-0.1
									c0.2,0,0.3-0.1,0.4-0.2c0.1-0.1,0.1-0.2,0.1-0.4c0-0.1,0-0.2-0.1-0.2C102.2,167.3,102.2,167.3,102.1,167.3L102.1,167.3z
									 M93.5,167.3c-0.2,0-0.3,0.1-0.5,0.2c-0.1,0.1-0.3,0.3-0.3,0.6c-0.1,0.2-0.1,0.5-0.1,0.7c0,0.2,0,0.3,0.1,0.4
									c0.1,0.1,0.1,0.1,0.2,0.1c0.1,0,0.2,0,0.3-0.1c0.1-0.1,0.2-0.2,0.3-0.3c0.1-0.1,0.2-0.3,0.2-0.4s0.1-0.3,0.1-0.4
									c0-0.2,0.1-0.3,0.1-0.5c0-0.1,0-0.2-0.1-0.3C93.7,167.3,93.6,167.3,93.5,167.3L93.5,167.3z M90.9,167.1h0.2l-0.4,1.7
									c0,0.2-0.1,0.3-0.1,0.4c0,0.1,0,0.1,0,0.2s0.1,0,0.1,0c0.1,0,0.1,0,0.2-0.1c0.1,0,0.1-0.1,0.3-0.2l0.1,0.1
									c-0.2,0.2-0.3,0.3-0.4,0.4s-0.2,0.1-0.4,0.1c-0.1,0-0.2,0-0.3-0.1s-0.1-0.2-0.1-0.3c0-0.1,0-0.3,0.1-0.5l0.2-0.9
									c0-0.2,0.1-0.3,0.1-0.4c0-0.1,0-0.1-0.1-0.2c0,0-0.1,0-0.2,0l0-0.1L90.9,167.1L90.9,167.1z M102.1,167.1
									c0.2,0,0.4,0,0.5,0.1c0.1,0.1,0.2,0.2,0.2,0.4c0,0.3-0.1,0.5-0.4,0.7c-0.3,0.1-0.7,0.2-1.2,0.2c0,0.1,0,0.2,0,0.3
									c0,0.2,0,0.3,0.1,0.4s0.2,0.1,0.3,0.1c0.2,0,0.3,0,0.4-0.1c0.1-0.1,0.3-0.2,0.4-0.3l0.2,0.2c-0.2,0.2-0.3,0.3-0.5,0.4
									c-0.2,0.1-0.4,0.1-0.6,0.1c-0.3,0-0.4-0.1-0.6-0.2s-0.2-0.4-0.2-0.6c0-0.2,0-0.4,0.1-0.6c0.1-0.2,0.2-0.4,0.3-0.6
									c0.1-0.2,0.3-0.3,0.5-0.4C101.7,167.1,101.9,167.1,102.1,167.1L102.1,167.1z M98.7,167.1c0.1,0,0.2,0,0.3,0.1
									s0.1,0.2,0.1,0.3c0,0.1,0,0.2,0,0.3l0,0c0.2-0.2,0.3-0.4,0.5-0.5c0.2-0.1,0.3-0.2,0.5-0.2c0.1,0,0.2,0,0.3,0l-0.1,0.6h-0.3
									c0-0.1,0-0.1,0-0.2c0,0,0-0.1-0.1-0.1c0,0-0.1,0-0.1,0c-0.1,0-0.1,0-0.2,0.1c-0.1,0.1-0.2,0.1-0.2,0.3
									c-0.1,0.1-0.2,0.2-0.2,0.3c-0.1,0.1-0.1,0.2-0.1,0.4l-0.2,1.1h-0.5l0.4-1.7c0-0.1,0-0.2,0-0.2c0-0.1,0-0.1,0-0.1
									c0-0.1,0-0.1,0-0.2c0,0-0.1,0-0.1,0c-0.1,0-0.1,0-0.2,0.1s-0.1,0.1-0.2,0.2l-0.1-0.1c0.2-0.2,0.3-0.3,0.4-0.4
									C98.4,167.1,98.5,167.1,98.7,167.1L98.7,167.1z M95.6,167.1c0.1,0,0.2,0,0.3,0.1s0.1,0.2,0.1,0.3c0,0.1,0,0.3-0.1,0.5
									l-0.1,0.5c0,0.1-0.1,0.2-0.1,0.3s0,0.1,0,0.2c0,0,0,0.1,0,0.1c0,0.1,0,0.2,0.1,0.3s0.1,0.1,0.2,0.1c0.1,0,0.2,0,0.2-0.1
									c0.1-0.1,0.2-0.1,0.3-0.3c0.1-0.1,0.2-0.2,0.2-0.3c0.1-0.1,0.1-0.2,0.1-0.4l0.2-1.1h0.5l-0.4,1.7c0,0.2-0.1,0.3-0.1,0.4
									c0,0.1,0,0.1,0,0.2s0.1,0,0.1,0c0.1,0,0.1,0,0.2-0.1c0.1,0,0.1-0.1,0.3-0.2l0.1,0.1c-0.2,0.2-0.3,0.3-0.4,0.4
									c-0.1,0.1-0.2,0.1-0.4,0.1c-0.1,0-0.2,0-0.3-0.1s-0.1-0.2-0.1-0.3c0-0.1,0-0.2,0.1-0.3l0,0c-0.2,0.2-0.3,0.4-0.5,0.5
									c-0.2,0.1-0.3,0.2-0.5,0.2c-0.2,0-0.3,0-0.4-0.1c-0.1-0.1-0.1-0.2-0.1-0.4c0-0.1,0-0.3,0.1-0.5l0.2-0.7
									c0-0.2,0.1-0.3,0.1-0.4c0-0.1,0-0.1,0-0.2c0,0-0.1,0-0.1,0c-0.1,0-0.1,0-0.2,0.1c-0.1,0-0.1,0.1-0.2,0.2l-0.1-0.1
									c0.1-0.1,0.3-0.3,0.3-0.3c0.1-0.1,0.1-0.1,0.2-0.1C95.5,167.1,95.6,167.1,95.6,167.1L95.6,167.1z M93.5,167.1
									c0.1,0,0.2,0,0.3,0s0.2,0.1,0.3,0.1l0.2-0.2l0.2,0l-0.3,1.2c0,0.1-0.1,0.3-0.1,0.6c-0.1,0.4-0.1,0.6-0.2,0.8
									c0,0.2-0.1,0.3-0.2,0.4c-0.1,0.1-0.2,0.2-0.3,0.3s-0.2,0.2-0.4,0.2c-0.1,0.1-0.3,0.1-0.5,0.1c-0.7,0-1-0.2-1-0.6
									c0-0.1,0-0.2,0.1-0.3c0.1-0.1,0.2-0.2,0.3-0.3l0.2,0.2c0,0-0.1,0.1-0.1,0.1c0,0,0,0.1,0,0.1s0,0.1,0,0.1
									c0,0.1,0,0.2,0.1,0.3c0.1,0.1,0.2,0.1,0.4,0.1c0.2,0,0.4,0,0.5-0.1c0.1-0.1,0.2-0.3,0.3-0.5c0.1-0.2,0.2-0.5,0.3-1l0,0
									c-0.2,0.2-0.3,0.4-0.5,0.5c-0.1,0.1-0.3,0.2-0.5,0.2c-0.2,0-0.3-0.1-0.4-0.2c-0.1-0.1-0.2-0.3-0.2-0.6
									c0-0.3,0.1-0.6,0.2-0.9c0.1-0.3,0.3-0.5,0.5-0.7C93,167.2,93.2,167.1,93.5,167.1L93.5,167.1z M90.8,166.1h0.5l-0.1,0.5h-0.5
									L90.8,166.1L90.8,166.1z M89.4,165.9c0.2,0,0.3,0,0.4,0l-0.1,0.4h-0.2c0-0.1-0.1-0.2-0.1-0.2c0,0-0.1-0.1-0.2-0.1
									c-0.1,0-0.2,0-0.3,0.1s-0.1,0.1-0.2,0.2c0,0.1-0.1,0.3-0.1,0.4l-0.1,0.3h0.7l-0.1,0.3h-0.7l-0.5,2.3
									c-0.1,0.4-0.2,0.7-0.4,0.8c-0.2,0.2-0.4,0.3-0.6,0.3c-0.1,0-0.1,0-0.2,0l0-0.2c0,0,0.1,0,0.1,0c0.1,0,0.1,0,0.2-0.1
									c0.1,0,0.1-0.1,0.2-0.2c0-0.1,0.1-0.2,0.1-0.4l0.6-2.5h-0.4l0-0.2c0.1,0,0.2,0,0.3,0c0.1,0,0.1,0,0.1-0.1
									c0,0,0.1-0.1,0.1-0.1c0,0,0-0.1,0.1-0.2c0.1-0.3,0.2-0.5,0.4-0.7C88.8,166,89.1,165.9,89.4,165.9L89.4,165.9z"/>
								<g class="st29">
									<defs>
										<polygon id="SVGID_47_" points="-9,172.2 184.3,172.2 201,31.6 7.8,31.6 7.8,172.2 										"/>
									</defs>
									<clipPath id="SVGID_48_">
										<use xlink:href="#SVGID_47_"  style="overflow:visible;"/>
									</clipPath>
									<path class="st30" d="M106.4,165.9l0.1,0.2c-0.4,0.1-0.7,0.4-0.9,0.8c-0.2,0.4-0.3,0.9-0.3,1.5c0,0.6,0.1,1.1,0.3,1.5
										c0.2,0.4,0.5,0.7,0.9,0.8l-0.1,0.2c-0.5-0.1-0.9-0.4-1.2-0.9s-0.4-1-0.4-1.6c0-0.6,0.1-1.2,0.4-1.6
										C105.5,166.3,105.9,166,106.4,165.9L106.4,165.9z"/>
									<g class="st31">
										<defs>
											<polygon id="SVGID_49_" points="-9,172.2 184.3,172.2 201,31.6 7.8,31.6 7.8,172.2 											"/>
										</defs>
										<clipPath id="SVGID_50_">
											<use xlink:href="#SVGID_49_"  style="overflow:visible;"/>
										</clipPath>
										<path class="st32" d="M111,166c0.3,0,0.6,0.1,0.7,0.2c0.2,0.1,0.2,0.3,0.2,0.6c0,0.1,0,0.2,0,0.3c0,0.1,0,0.2-0.1,0.2
											c0,0.1-0.1,0.2-0.2,0.2c-0.1,0.1-0.1,0.2-0.2,0.3c-0.1,0.1-0.2,0.2-0.4,0.4c-0.3,0.3-0.6,0.7-0.7,0.9h1c0.1,0,0.2,0,0.2,0
											s0.1,0,0.1-0.1c0,0,0.1-0.1,0.1-0.1c0,0,0-0.1,0.1-0.2h0.2l0,0.8h-2.1v-0.1c0.1-0.2,0.2-0.4,0.3-0.6
											c0.1-0.2,0.3-0.4,0.5-0.7c0.2-0.2,0.3-0.4,0.4-0.5c0.1-0.1,0.2-0.2,0.2-0.3c0-0.1,0.1-0.2,0.1-0.3c0-0.1,0-0.2,0-0.2
											c0-0.1,0-0.2-0.1-0.3c0-0.1-0.1-0.2-0.2-0.2c-0.1-0.1-0.2-0.1-0.3-0.1c-0.3,0-0.5,0.2-0.7,0.5h-0.3v-0.5
											c0.2-0.1,0.4-0.2,0.6-0.2C110.7,166.1,110.9,166,111,166L111,166z M108.3,166h0.1c0,0.2,0,0.4,0,0.7v2.2
											c0,0.1,0,0.2,0,0.2c0,0.1,0,0.1,0.1,0.1c0,0,0.1,0.1,0.1,0.1s0.1,0,0.2,0c0.1,0,0.2,0,0.3,0v0.2h-1.9v-0.2
											c0.2,0,0.3,0,0.4,0c0.1,0,0.1,0,0.2-0.1c0,0,0.1-0.1,0.1-0.1s0-0.1,0-0.3v-2.1c0-0.1,0-0.1,0-0.2c0,0-0.1,0-0.1,0
											c-0.1,0-0.1,0-0.2,0.1c-0.1,0.1-0.2,0.1-0.4,0.2l-0.1-0.2L108.3,166L108.3,166z"/>
										<g class="st33">
											<defs>
												<polygon id="SVGID_51_" points="-9,172.2 184.3,172.2 201,31.6 7.8,31.6 7.8,172.2 												"/>
											</defs>
											<clipPath id="SVGID_52_">
												<use xlink:href="#SVGID_51_"  style="overflow:visible;"/>
											</clipPath>
											<path class="st34" d="M112.6,165.9c0.5,0.1,0.9,0.4,1.2,0.9c0.3,0.4,0.4,1,0.4,1.6c0,0.6-0.1,1.2-0.4,1.6
												s-0.7,0.7-1.2,0.9l-0.1-0.2c0.4-0.1,0.7-0.4,0.9-0.8c0.2-0.4,0.3-0.9,0.3-1.5c0-0.6-0.1-1.1-0.3-1.5
												c-0.2-0.4-0.5-0.6-0.9-0.8L112.6,165.9z"/>
											<g class="st35">
												<defs>
													<polygon id="SVGID_53_" points="-9,172.2 184.3,172.2 201,31.6 7.8,31.6 7.8,172.2 													"/>
												</defs>
												<clipPath id="SVGID_54_">
													<use xlink:href="#SVGID_53_"  style="overflow:visible;"/>
												</clipPath>
												<path class="st36" d="M157,57.1c0.1,0,0.2,0,0.3,0c0.1,0,0.1,0.1,0.2,0.1c0.1,0,0.1,0.1,0.1,0.2c0,0.1,0.1,0.2,0.1,0.3
													c0,0.1,0.1,0.3,0.1,0.5c0.1,0.3,0.1,0.7,0.2,1.1c0.1,0.4,0.1,0.7,0.2,1.1c0.3-0.4,0.5-0.7,0.7-1.1
													c0.2-0.4,0.3-0.7,0.4-0.9c0.1-0.3,0.1-0.5,0.1-0.7c0-0.1,0-0.2-0.1-0.3s-0.1-0.1-0.3-0.1l0-0.2h1.1l0.1,0.2
													c-0.2,0.6-0.5,1.2-0.8,1.8c-0.3,0.6-0.7,1.2-1.2,1.9c-0.4,0.6-0.8,1-1.1,1.3c-0.2,0.2-0.4,0.3-0.6,0.4
													c-0.1,0.1-0.3,0.1-0.5,0.1c-0.1,0-0.1,0-0.2,0c-0.1,0-0.1,0-0.2,0l0.2-0.8h0.3c0,0.2,0.1,0.3,0.2,0.3
													c0.2,0,0.3-0.1,0.5-0.3c0.2-0.2,0.5-0.5,0.7-0.9c-0.1-0.5-0.2-1-0.3-1.7c-0.1-0.7-0.2-1.2-0.3-1.3
													c-0.1-0.2-0.1-0.3-0.2-0.4c0,0-0.1-0.1-0.1-0.1c-0.1,0-0.2,0-0.2,0.1c-0.1,0.1-0.2,0.2-0.3,0.4l-0.3-0.2
													c0.2-0.3,0.4-0.5,0.5-0.6C156.6,57.1,156.8,57.1,157,57.1L157,57.1z"/>
												<g class="st37">
													<defs>
														<polygon id="SVGID_55_" points="-9,172.2 184.3,172.2 201,31.6 7.8,31.6 7.8,172.2 														"/>
													</defs>
													<clipPath id="SVGID_56_">
														<use xlink:href="#SVGID_55_"  style="overflow:visible;"/>
													</clipPath>
													<path class="st38" d="M163.4,59.2h5v0.5h-5V59.2L163.4,59.2z M163.4,57.5h5v0.5h-5V57.5L163.4,57.5z"/>
													<g class="st39">
														<defs>
															<polygon id="SVGID_57_" points="-9,172.2 184.3,172.2 201,31.6 7.8,31.6 7.8,172.2 															"/>
														</defs>
														<clipPath id="SVGID_58_">
															<use xlink:href="#SVGID_57_"  style="overflow:visible;"/>
														</clipPath>
														<path class="st40" d="M173.9,57.4c-0.3,0-0.5,0.1-0.8,0.4c-0.3,0.3-0.4,0.6-0.6,1.1c0.4,0,0.7,0,1-0.1
															c0.3-0.1,0.5-0.2,0.6-0.3c0.1-0.1,0.2-0.3,0.2-0.6c0-0.2,0-0.3-0.1-0.4C174.1,57.4,174,57.4,173.9,57.4L173.9,57.4z
															 M174,57.1c0.3,0,0.6,0.1,0.7,0.2c0.2,0.1,0.2,0.3,0.2,0.6c0,0.5-0.2,0.8-0.6,1c-0.4,0.2-1.1,0.3-1.9,0.3
															c0,0.2,0,0.3,0,0.5c0,0.3,0.1,0.5,0.2,0.6c0.1,0.1,0.3,0.2,0.5,0.2c0.2,0,0.5-0.1,0.7-0.2c0.2-0.1,0.4-0.3,0.6-0.5
															l0.3,0.3c-0.3,0.3-0.5,0.5-0.8,0.7c-0.3,0.1-0.6,0.2-0.9,0.2c-0.4,0-0.7-0.1-0.9-0.4c-0.2-0.2-0.3-0.6-0.3-1
															c0-0.3,0.1-0.6,0.2-0.9s0.3-0.6,0.5-0.9c0.2-0.3,0.5-0.5,0.8-0.6C173.4,57.2,173.7,57.1,174,57.1L174,57.1z"/>
														<g class="st41">
															<defs>
																<polygon id="SVGID_59_" points="-9,172.2 184.3,172.2 201,31.6 7.8,31.6 7.8,172.2 																"/>
															</defs>
															<clipPath id="SVGID_60_">
																<use xlink:href="#SVGID_59_"  style="overflow:visible;"/>
															</clipPath>
															<path class="st42" d="M177.3,55c0.1,0,0.2,0,0.3,0.1c0.1,0,0.1,0.1,0.2,0.2c0,0.1,0.1,0.2,0.1,0.3s0.1,0.3,0.1,0.5h0
																c0.1-0.2,0.2-0.3,0.3-0.4c0.1-0.1,0.2-0.2,0.2-0.3c0.1-0.1,0.1-0.1,0.2-0.2c0.1,0,0.1-0.1,0.2-0.1
																c0.1,0,0.1,0,0.2-0.1c0.1,0,0.1,0,0.2,0c0.1,0,0.2,0,0.3,0.1l-0.1,0.6h-0.2c0-0.1,0-0.1-0.1-0.1c0,0,0,0-0.1,0
																s-0.1,0-0.1,0c0,0-0.1,0.1-0.1,0.1c0,0-0.1,0.1-0.2,0.2c-0.1,0.1-0.1,0.2-0.2,0.2c-0.1,0.1-0.2,0.2-0.3,0.3
																c0.1,0.3,0.1,0.5,0.1,0.7c0,0.2,0.1,0.3,0.1,0.4s0.1,0.1,0.1,0.2c0,0,0.1,0,0.1,0c0,0,0.1,0,0.1,0c0,0,0.1,0,0.1-0.1
																c0,0,0.1-0.1,0.1-0.1c0-0.1,0.1-0.1,0.1-0.2l0.2,0.1c-0.1,0.1-0.2,0.2-0.2,0.3c-0.1,0.1-0.1,0.1-0.2,0.2
																c-0.1,0-0.1,0.1-0.2,0.1c-0.1,0-0.1,0-0.2,0c-0.1,0-0.1,0-0.2,0c-0.1,0-0.1-0.1-0.2-0.1c0,0-0.1-0.1-0.1-0.1
																s0-0.1-0.1-0.2c0-0.1,0-0.1-0.1-0.2c0-0.1,0-0.1,0-0.2c0-0.1,0-0.1,0-0.2c0,0,0-0.1,0-0.1h0
																c-0.1,0.2-0.2,0.3-0.3,0.4c-0.1,0.1-0.2,0.2-0.2,0.3c-0.1,0.1-0.1,0.2-0.2,0.2c-0.1,0.1-0.1,0.1-0.2,0.1
																c-0.1,0-0.1,0.1-0.2,0.1c-0.1,0-0.1,0-0.2,0c-0.1,0-0.2,0-0.3-0.1l0.1-0.6h0.3c0,0.1,0,0.1,0.1,0.1c0,0,0,0,0.1,0
																c0,0,0,0,0.1,0s0.1,0,0.1-0.1s0.1-0.1,0.2-0.2c0.1-0.1,0.1-0.2,0.2-0.3c0.1-0.1,0.2-0.2,0.3-0.4
																c0-0.2-0.1-0.3-0.1-0.4c0-0.1-0.1-0.2-0.1-0.3c0-0.1,0-0.2-0.1-0.2c0-0.1,0-0.1-0.1-0.1c0,0,0-0.1-0.1-0.1
																c0,0-0.1,0-0.1,0c0,0-0.1,0-0.1,0c0,0-0.1,0-0.1,0.1c0,0-0.1,0.1-0.1,0.1c0,0-0.1,0.1-0.1,0.2l-0.2-0.1
																c0.1-0.1,0.2-0.2,0.2-0.3c0.1-0.1,0.1-0.1,0.2-0.2c0.1,0,0.1-0.1,0.2-0.1C177.1,55,177.2,55,177.3,55L177.3,55z"/>
															<g class="st43">
																<defs>
																	<polygon id="SVGID_61_" points="-9,172.2 184.3,172.2 201,31.6 7.8,31.6 7.8,172.2 																	"/>
																</defs>
																<clipPath id="SVGID_62_">
																	<use xlink:href="#SVGID_61_"  style="overflow:visible;"/>
																</clipPath>
																<path class="st44" d="M87.5,126h0.2c0,0.2,0,0.4,0,0.8v2.5c0,0.1,0,0.2,0,0.3c0,0.1,0,0.1,0.1,0.1
																	c0,0,0.1,0.1,0.1,0.1c0.1,0,0.1,0,0.2,0s0.2,0,0.4,0v0.2h-2.1v-0.2c0.2,0,0.4,0,0.5,0c0.1,0,0.2,0,0.2-0.1
																	s0.1-0.1,0.1-0.1c0-0.1,0-0.2,0-0.3v-2.4c0-0.1,0-0.1,0-0.2c0,0-0.1-0.1-0.1-0.1c-0.1,0-0.1,0-0.3,0.1
																	c-0.1,0.1-0.3,0.2-0.4,0.3l-0.1-0.2L87.5,126L87.5,126z"/>
																<g class="st45">
																	<defs>
																		<polygon id="SVGID_63_" points="-9,172.2 184.3,172.2 201,31.6 7.8,31.6 7.8,172.2 																		"/>
																	</defs>
																	<clipPath id="SVGID_64_">
																		<use xlink:href="#SVGID_63_"  style="overflow:visible;"/>
																	</clipPath>
																	<g class="st46">
																		<g>
																			<line class="st47" x1="93.7" y1="107.3" x2="95.8" y2="107.3"/>
																			<line class="st48" x1="97.4" y1="107.3" x2="112.8" y2="107.3"/>
																			<line class="st47" x1="113.6" y1="107.3" x2="115.6" y2="107.3"/>
																		</g>
																	</g>
																	<g class="st46">
																		<defs>
																			<polygon id="SVGID_65_" points="-9,172.2 184.3,172.2 201,31.6 7.8,31.6 7.8,172.2 																			"/>
																		</defs>
																		<clipPath id="SVGID_66_">
																			<use xlink:href="#SVGID_65_"  style="overflow:visible;"/>
																		</clipPath>
																		<g class="st49">
																			<g>
																				<line class="st47" x1="115.9" y1="151.7" x2="115.9" y2="149.6"/>
																				<line class="st50" x1="115.9" y1="148.1" x2="115.7" y2="110.2"/>
																				<line class="st47" x1="115.7" y1="109.4" x2="115.6" y2="107.3"/>
																			</g>
																		</g>
																		<g class="st49">
																			<defs>
																				<polygon id="SVGID_67_" points="-9,172.2 184.3,172.2 201,31.6 7.8,31.6 7.8,172.2 																				"/>
																			</defs>
																			<clipPath id="SVGID_68_">
																				<use xlink:href="#SVGID_67_"  style="overflow:visible;"/>
																			</clipPath>
																			<path class="st51" d="M121,155.2h0.2c0,0.2,0,0.4,0,0.8v2.5c0,0.1,0,0.2,0,0.3s0,0.1,0.1,0.1s0.1,0.1,0.1,0.1
																				c0.1,0,0.1,0,0.2,0s0.2,0,0.4,0v0.2h-2.1V159c0.2,0,0.4,0,0.5,0c0.1,0,0.2,0,0.2-0.1c0,0,0.1-0.1,0.1-0.1
																				c0-0.1,0-0.2,0-0.3v-2.4c0-0.1,0-0.1,0-0.2c0,0-0.1-0.1-0.1-0.1c-0.1,0-0.1,0-0.3,0.1c-0.1,0.1-0.3,0.2-0.4,0.3
																				l-0.1-0.2L121,155.2L121,155.2z"/>
																			<g class="st52">
																				<defs>
																					<polygon id="SVGID_69_" points="-9,172.2 184.3,172.2 201,31.6 7.8,31.6 7.8,172.2 																					"/>
																				</defs>
																				<clipPath id="SVGID_70_">
																					<use xlink:href="#SVGID_69_"  style="overflow:visible;"/>
																				</clipPath>
																				<path class="st53" d="M88.1,105.7c-0.2,0-0.4,0.1-0.6,0.3c-0.2,0.2-0.3,0.5-0.4,0.8c0.3,0,0.5,0,0.7-0.1
																					c0.2,0,0.3-0.1,0.4-0.2c0.1-0.1,0.2-0.2,0.2-0.4c0-0.1,0-0.2-0.1-0.3C88.3,105.8,88.2,105.7,88.1,105.7
																					L88.1,105.7z M88.2,105.5c0.2,0,0.4,0,0.5,0.1c0.1,0.1,0.2,0.2,0.2,0.4c0,0.3-0.2,0.6-0.5,0.7
																					c-0.3,0.2-0.8,0.2-1.4,0.2c0,0.1,0,0.2,0,0.4c0,0.2,0,0.4,0.1,0.4c0.1,0.1,0.2,0.1,0.4,0.1c0.2,0,0.3,0,0.5-0.1
																					c0.1-0.1,0.3-0.2,0.5-0.4l0.2,0.2c-0.2,0.2-0.4,0.4-0.6,0.5c-0.2,0.1-0.4,0.2-0.7,0.2c-0.3,0-0.5-0.1-0.7-0.3
																					c-0.2-0.2-0.2-0.4-0.2-0.7c0-0.2,0-0.4,0.1-0.7c0.1-0.2,0.2-0.4,0.3-0.6c0.2-0.2,0.3-0.3,0.5-0.4
																					C87.8,105.6,88,105.5,88.2,105.5L88.2,105.5z"/>
																				<g class="st54">
																					<defs>
																						<polygon id="SVGID_71_" points="-9,172.2 184.3,172.2 201,31.6 7.8,31.6 7.8,172.2 																						"/>
																					</defs>
																					<clipPath id="SVGID_72_">
																						<use xlink:href="#SVGID_71_"  style="overflow:visible;"/>
																					</clipPath>
																					<path class="st55" d="M8.9,151.9c26.7,0.8,60.9-1.4,81.7-16.8c25.4-18.8,39.8-50.1,59.3-89.7"/>
																				</g>
																			</g>
																		</g>
																	</g>
																</g>
															</g>
														</g>
													</g>
												</g>
											</g>
										</g>
									</g>
								</g>
							</g>
						</g>
					</g>
				</g>
			</g>
		</g>
		<g>
			<g>
				<defs>
					<polygon id="SVGID_73_" points="-9,172.2 184.3,172.2 201,31.6 7.8,31.6 7.8,172.2 					"/>
				</defs>
				<clipPath id="SVGID_74_">
					<use xlink:href="#SVGID_73_"  style="overflow:visible;"/>
				</clipPath>
				<g class="st56">
					<defs>
						<polygon id="SVGID_75_" points="-9,172.2 184.3,172.2 201,31.6 7.8,31.6 7.8,172.2 						"/>
					</defs>
					<clipPath id="SVGID_76_">
						<use xlink:href="#SVGID_75_"  style="overflow:visible;"/>
					</clipPath>
					<g class="st57">
						<defs>
							<polygon id="SVGID_77_" points="-9,172.2 184.3,172.2 201,31.6 7.8,31.6 7.8,172.2 							"/>
						</defs>
						<clipPath id="SVGID_78_">
							<use xlink:href="#SVGID_77_"  style="overflow:visible;"/>
						</clipPath>
						<g class="st58">
							<defs>
								<polygon id="SVGID_79_" points="-9,172.2 184.3,172.2 201,31.6 7.8,31.6 7.8,172.2 								"/>
							</defs>
							<clipPath id="SVGID_80_">
								<use xlink:href="#SVGID_79_"  style="overflow:visible;"/>
							</clipPath>
							<g class="st59">
								<defs>
									<polygon id="SVGID_81_" points="-9,172.2 184.3,172.2 201,31.6 7.8,31.6 7.8,172.2 									"/>
								</defs>
								<clipPath id="SVGID_82_">
									<use xlink:href="#SVGID_81_"  style="overflow:visible;"/>
								</clipPath>
								<g class="st60">
									<defs>
										<polygon id="SVGID_83_" points="-9,172.2 184.3,172.2 201,31.6 7.8,31.6 7.8,172.2 										"/>
									</defs>
									<clipPath id="SVGID_84_">
										<use xlink:href="#SVGID_83_"  style="overflow:visible;"/>
									</clipPath>
									<g class="st61">
										<defs>
											<polygon id="SVGID_85_" points="-9,172.2 184.3,172.2 201,31.6 7.8,31.6 7.8,172.2 											"/>
										</defs>
										<clipPath id="SVGID_86_">
											<use xlink:href="#SVGID_85_"  style="overflow:visible;"/>
										</clipPath>
										<g class="st62">
											<defs>
												<polygon id="SVGID_87_" points="-9,172.2 184.3,172.2 201,31.6 7.8,31.6 7.8,172.2 												"/>
											</defs>
											<clipPath id="SVGID_88_">
												<use xlink:href="#SVGID_87_"  style="overflow:visible;"/>
											</clipPath>
											<g class="st63">
												<defs>
													<polygon id="SVGID_89_" points="-9,172.2 184.3,172.2 201,31.6 7.8,31.6 7.8,172.2 													"/>
												</defs>
												<clipPath id="SVGID_90_">
													<use xlink:href="#SVGID_89_"  style="overflow:visible;"/>
												</clipPath>
												<g class="st64">
													<defs>
														<polygon id="SVGID_91_" points="-9,172.2 184.3,172.2 201,31.6 7.8,31.6 7.8,172.2 														"/>
													</defs>
													<clipPath id="SVGID_92_">
														<use xlink:href="#SVGID_91_"  style="overflow:visible;"/>
													</clipPath>
													<g class="st65">
														<defs>
															<polygon id="SVGID_93_" points="-9,172.2 184.3,172.2 201,31.6 7.8,31.6 7.8,172.2 															"/>
														</defs>
														<clipPath id="SVGID_94_">
															<use xlink:href="#SVGID_93_"  style="overflow:visible;"/>
														</clipPath>
														<g class="st66">
															<defs>
																<polygon id="SVGID_95_" points="-9,172.2 184.3,172.2 201,31.6 7.8,31.6 7.8,172.2 																"/>
															</defs>
															<clipPath id="SVGID_96_">
																<use xlink:href="#SVGID_95_"  style="overflow:visible;"/>
															</clipPath>
															<g class="st67">
																<defs>
																	<polygon id="SVGID_97_" points="-9,172.2 184.3,172.2 201,31.6 7.8,31.6 7.8,172.2 																	"/>
																</defs>
																<clipPath id="SVGID_98_">
																	<use xlink:href="#SVGID_97_"  style="overflow:visible;"/>
																</clipPath>
																<g class="st68">
																	<defs>
																		<polygon id="SVGID_99_" points="-9,172.2 184.3,172.2 201,31.6 7.8,31.6 7.8,172.2 																		"/>
																	</defs>
																	<clipPath id="SVGID_100_">
																		<use xlink:href="#SVGID_99_"  style="overflow:visible;"/>
																	</clipPath>
																	<g class="st69">
																		<defs>
																			<polygon id="SVGID_101_" points="-9,172.2 184.3,172.2 201,31.6 7.8,31.6 7.8,172.2 																			"/>
																		</defs>
																		<clipPath id="SVGID_102_">
																			<use xlink:href="#SVGID_101_"  style="overflow:visible;"/>
																		</clipPath>
																		<g class="st70">
																			<defs>
																				<polygon id="SVGID_103_" points="-9,172.2 184.3,172.2 201,31.6 7.8,31.6 7.8,172.2 																				"/>
																			</defs>
																			<clipPath id="SVGID_104_">
																				<use xlink:href="#SVGID_103_"  style="overflow:visible;"/>
																			</clipPath>
																			<g class="st71">
																				<defs>
																					<polygon id="SVGID_105_" points="-9,172.2 184.3,172.2 201,31.6 7.8,31.6 7.8,172.2 																					"/>
																				</defs>
																				<clipPath id="SVGID_106_">
																					<use xlink:href="#SVGID_105_"  style="overflow:visible;"/>
																				</clipPath>
																				<g class="st72">
																					<defs>
																						<polygon id="SVGID_107_" points="-9,172.2 184.3,172.2 201,31.6 7.8,31.6 7.8,172.2 																						
																							"/>
																					</defs>
																					<clipPath id="SVGID_108_">
																						<use xlink:href="#SVGID_107_"  style="overflow:visible;"/>
																					</clipPath>
																				</g>
																			</g>
																		</g>
																	</g>
																</g>
															</g>
														</g>
													</g>
												</g>
											</g>
										</g>
									</g>
								</g>
							</g>
						</g>
					</g>
				</g>
			</g>
		</g>
	</g>
	<line class="st73" x1="-9" y1="-22.4" x2="-9" y2="13.6"/>
	<line class="st73" x1="-63" y1="31.6" x2="-27" y2="31.6"/>
	<line class="st73" x1="-63" y1="172.2" x2="-27" y2="172.2"/>
	<line class="st73" x1="-9" y1="226.2" x2="-9" y2="190.2"/>
	<line class="st73" x1="201" y1="-22.4" x2="201" y2="13.6"/>
	<line class="st73" x1="255" y1="31.6" x2="219" y2="31.6"/>
	<line class="st73" x1="255" y1="172.2" x2="219" y2="172.2"/>
	<line class="st73" x1="201" y1="226.2" x2="201" y2="190.2"/>
</g>
<g>
	<path class="st18" d="M122.6,103.8l0.1,0.3c-0.7,0.2-1.2,0.7-1.5,1.3c-0.3,0.6-0.5,1.4-0.5,2.4c0,1,0.2,1.8,0.5,2.5
		c0.3,0.7,0.8,1.1,1.5,1.3l-0.1,0.3c-0.8-0.2-1.5-0.7-1.9-1.4s-0.7-1.6-0.7-2.6c0-1,0.2-1.9,0.7-2.6
		C121.1,104.5,121.7,104,122.6,103.8L122.6,103.8z"/>
	<path class="st18" d="M125.6,104h0.2c0,0.3,0,0.7,0,1.1v3.7c0,0.2,0,0.3,0,0.4c0,0.1,0.1,0.2,0.1,0.2c0,0.1,0.1,0.1,0.2,0.1
		c0.1,0,0.2,0.1,0.3,0.1c0.1,0,0.3,0,0.5,0v0.3h-3.2v-0.3c0.3,0,0.5,0,0.7-0.1s0.2-0.1,0.3-0.1c0.1,0,0.1-0.1,0.2-0.2
		c0-0.1,0-0.2,0-0.4v-3.5c0-0.1,0-0.2-0.1-0.3c0-0.1-0.1-0.1-0.2-0.1c-0.1,0-0.2,0-0.4,0.1s-0.4,0.2-0.6,0.4l-0.2-0.3L125.6,104
		L125.6,104z"/>
	<path class="st18" d="M128.3,109h0.8c0,0.2,0.1,0.4,0.1,0.6c0,0.2,0,0.4-0.1,0.5c-0.1,0.2-0.2,0.3-0.3,0.5s-0.4,0.3-0.6,0.5
		l-0.2-0.3c0.1-0.1,0.3-0.3,0.3-0.4c0.1-0.1,0.1-0.2,0.1-0.4c0-0.1,0-0.3,0-0.5C128.3,109.4,128.3,109.2,128.3,109L128.3,109z"/>
	<path class="st18" d="M133.8,106.1c-0.3,0-0.6,0.1-0.8,0.4c-0.3,0.3-0.5,0.7-0.6,1.2c0.4,0,0.8,0,1-0.1c0.3-0.1,0.5-0.2,0.7-0.3
		c0.2-0.2,0.2-0.4,0.2-0.6c0-0.2,0-0.3-0.1-0.4S133.9,106.1,133.8,106.1L133.8,106.1z M133.9,105.8c0.3,0,0.6,0.1,0.8,0.2
		c0.2,0.1,0.3,0.4,0.3,0.7c0,0.5-0.2,0.9-0.7,1.1c-0.5,0.2-1.1,0.4-2,0.4c0,0.2-0.1,0.4-0.1,0.6c0,0.3,0.1,0.5,0.2,0.7
		c0.1,0.1,0.3,0.2,0.6,0.2c0.3,0,0.5-0.1,0.7-0.2c0.2-0.1,0.4-0.3,0.7-0.5l0.3,0.3c-0.3,0.3-0.6,0.5-0.8,0.7c-0.3,0.2-0.6,0.2-1,0.2
		c-0.4,0-0.7-0.1-1-0.4c-0.2-0.3-0.3-0.6-0.3-1.1c0-0.3,0.1-0.6,0.2-1c0.1-0.4,0.3-0.7,0.5-0.9c0.2-0.3,0.5-0.5,0.8-0.6
		C133.3,105.9,133.6,105.8,133.9,105.8L133.9,105.8z"/>
	<path class="st18" d="M135.8,103.8c0.8,0.2,1.5,0.7,1.9,1.4s0.7,1.6,0.7,2.6c0,1-0.2,1.9-0.7,2.6c-0.4,0.7-1.1,1.2-1.9,1.4
		l-0.1-0.3c0.7-0.2,1.2-0.7,1.5-1.3c0.3-0.7,0.5-1.5,0.5-2.5c0-1-0.2-1.8-0.5-2.4c-0.3-0.6-0.8-1.1-1.5-1.3L135.8,103.8z"/>
</g>
<path class="st74" d="M74.3,135.1"/>
<path class="st18" d="M181.8,157.1c0.1,0,0.2,0,0.3,0c0.1,0,0.1,0.1,0.2,0.1c0.1,0,0.1,0.1,0.1,0.2c0,0.1,0.1,0.2,0.1,0.3
	s0.1,0.3,0.1,0.5c0,0.2,0.1,0.4,0.1,0.6h0c0.3-0.4,0.5-0.7,0.7-0.9c0.2-0.2,0.3-0.3,0.4-0.4c0.1-0.1,0.2-0.2,0.3-0.2
	c0.1,0,0.2-0.1,0.4-0.1c0.1,0,0.3,0,0.4,0.1l-0.2,0.8h-0.3c0-0.1-0.1-0.2-0.2-0.2c0,0-0.1,0-0.1,0s-0.1,0-0.1,0.1
	c0,0-0.1,0.1-0.2,0.2c-0.1,0.1-0.2,0.2-0.3,0.3c-0.1,0.1-0.2,0.3-0.3,0.4l-0.3,0.4c0.1,0.3,0.1,0.6,0.2,0.8c0,0.2,0.1,0.4,0.1,0.5
	c0,0.1,0.1,0.3,0.1,0.3c0,0.1,0.1,0.1,0.1,0.2s0.1,0.1,0.1,0.1c0,0,0.1,0,0.1,0c0.1,0,0.2,0,0.2-0.1c0.1-0.1,0.2-0.2,0.3-0.4
	l0.3,0.2c-0.2,0.3-0.4,0.5-0.6,0.7c-0.2,0.1-0.4,0.2-0.6,0.2c-0.1,0-0.2,0-0.3-0.1s-0.2-0.1-0.2-0.2c-0.1-0.1-0.1-0.3-0.2-0.5
	c-0.1-0.4-0.2-0.7-0.2-0.9h0c-0.3,0.5-0.6,0.8-0.7,1c-0.2,0.2-0.3,0.3-0.4,0.4c-0.1,0.1-0.2,0.2-0.3,0.2s-0.2,0.1-0.4,0.1
	c-0.1,0-0.3,0-0.4-0.1l0.2-0.8h0.3c0,0.1,0.1,0.2,0.2,0.2c0,0,0.1,0,0.1,0s0.1-0.1,0.2-0.2c0.1-0.1,0.2-0.2,0.4-0.4s0.4-0.5,0.7-0.8
	c0-0.2-0.1-0.5-0.1-0.7s-0.1-0.4-0.2-0.6c-0.1-0.2-0.1-0.3-0.1-0.4c0-0.1-0.1-0.1-0.1-0.1c0,0-0.1,0-0.1,0c-0.1,0-0.1,0-0.2,0
	c-0.1,0-0.1,0.1-0.2,0.2c-0.1,0.1-0.1,0.2-0.2,0.3l-0.3-0.2c0.2-0.3,0.4-0.5,0.6-0.7C181.4,157.2,181.6,157.1,181.8,157.1
	L181.8,157.1z"/>
</svg>
