<?xml version="1.0" encoding="utf-8"?>
<!-- Generator: Adobe Illustrator 23.0.2, SVG Export Plug-In . SVG Version: 6.00 Build 0)  -->
<svg version="1.0" id="Layer_1" xmlns="http://www.w3.org/2000/svg" xmlns:xlink="http://www.w3.org/1999/xlink" x="0px" y="0px"
	 viewBox="0 0 215.6 175.4" style="enable-background:new 0 0 215.6 175.4;" xml:space="preserve">
<style type="text/css">
	.st0{fill:none;stroke:#0303C3;stroke-width:1.093;stroke-miterlimit:8;stroke-dasharray:6,5;}
	.st1{clip-path:url(#SVGID_2_);fill:none;stroke:#0303C3;stroke-width:1.093;stroke-miterlimit:8;stroke-dasharray:6,5;}
	.st2{clip-path:url(#SVGID_2_);}
	
		.st3{clip-path:url(#SVGID_4_);fill:none;stroke:#000000;stroke-width:1.0931;stroke-miterlimit:8;stroke-dasharray:41645.3867,13881.7959;}
	.st4{clip-path:url(#SVGID_4_);}
	
		.st5{clip-path:url(#SVGID_6_);fill:none;stroke:#000000;stroke-width:1.0931;stroke-miterlimit:8;stroke-dasharray:41645.3867,13881.7959;}
	.st6{clip-path:url(#SVGID_6_);}
	.st7{clip-path:url(#SVGID_8_);fill:none;stroke:#000000;stroke-width:1.0931;stroke-miterlimit:8;}
	.st8{clip-path:url(#SVGID_8_);fill-rule:evenodd;clip-rule:evenodd;}
	.st9{clip-path:url(#SVGID_8_);}
	.st10{clip-path:url(#SVGID_10_);fill:none;stroke:#000000;stroke-width:1.0931;stroke-miterlimit:8;}
	.st11{clip-path:url(#SVGID_10_);fill-rule:evenodd;clip-rule:evenodd;}
	.st12{clip-path:url(#SVGID_10_);}
	.st13{clip-path:url(#SVGID_12_);fill-rule:evenodd;clip-rule:evenodd;}
	.st14{clip-path:url(#SVGID_12_);}
	.st15{clip-path:url(#SVGID_14_);fill-rule:evenodd;clip-rule:evenodd;}
	.st16{clip-path:url(#SVGID_14_);}
	.st17{clip-path:url(#SVGID_16_);fill-rule:evenodd;clip-rule:evenodd;}
	.st18{clip-path:url(#SVGID_16_);}
	.st19{clip-path:url(#SVGID_18_);fill-rule:evenodd;clip-rule:evenodd;}
	.st20{clip-path:url(#SVGID_18_);}
	.st21{clip-path:url(#SVGID_20_);fill-rule:evenodd;clip-rule:evenodd;}
	.st22{clip-path:url(#SVGID_20_);}
	.st23{clip-path:url(#SVGID_22_);fill-rule:evenodd;clip-rule:evenodd;}
	.st24{clip-path:url(#SVGID_22_);}
	.st25{clip-path:url(#SVGID_24_);fill-rule:evenodd;clip-rule:evenodd;}
	.st26{clip-path:url(#SVGID_24_);}
	.st27{clip-path:url(#SVGID_26_);fill:none;stroke:#000000;stroke-width:1.0931;stroke-miterlimit:8;}
	.st28{clip-path:url(#SVGID_26_);}
	.st29{clip-path:url(#SVGID_28_);fill-rule:evenodd;clip-rule:evenodd;}
	.st30{clip-path:url(#SVGID_28_);}
	.st31{clip-path:url(#SVGID_30_);fill-rule:evenodd;clip-rule:evenodd;}
	.st32{clip-path:url(#SVGID_30_);}
	.st33{clip-path:url(#SVGID_32_);fill-rule:evenodd;clip-rule:evenodd;}
	.st34{clip-path:url(#SVGID_32_);}
	.st35{clip-path:url(#SVGID_34_);fill-rule:evenodd;clip-rule:evenodd;}
	.st36{clip-path:url(#SVGID_34_);}
	.st37{clip-path:url(#SVGID_36_);fill-rule:evenodd;clip-rule:evenodd;}
	.st38{clip-path:url(#SVGID_36_);}
	.st39{clip-path:url(#SVGID_38_);fill-rule:evenodd;clip-rule:evenodd;}
	.st40{clip-path:url(#SVGID_38_);}
	.st41{clip-path:url(#SVGID_40_);fill-rule:evenodd;clip-rule:evenodd;fill:#0303C3;}
	.st42{clip-path:url(#SVGID_40_);fill:none;stroke:#0303C3;stroke-width:0.3644;stroke-miterlimit:8;}
	.st43{clip-path:url(#SVGID_40_);}
	.st44{clip-path:url(#SVGID_42_);fill-rule:evenodd;clip-rule:evenodd;}
	.st45{clip-path:url(#SVGID_42_);}
	.st46{clip-path:url(#SVGID_44_);fill-rule:evenodd;clip-rule:evenodd;fill:#0303C3;}
	.st47{clip-path:url(#SVGID_44_);}
	.st48{clip-path:url(#SVGID_46_);fill-rule:evenodd;clip-rule:evenodd;fill:#0303C3;}
	.st49{clip-path:url(#SVGID_46_);}
	.st50{clip-path:url(#SVGID_48_);fill-rule:evenodd;clip-rule:evenodd;fill:#0303C3;}
	.st51{clip-path:url(#SVGID_48_);}
	.st52{clip-path:url(#SVGID_50_);fill-rule:evenodd;clip-rule:evenodd;fill:#0303C3;}
	.st53{clip-path:url(#SVGID_50_);}
	.st54{clip-path:url(#SVGID_52_);fill-rule:evenodd;clip-rule:evenodd;fill:#0303C3;}
	.st55{clip-path:url(#SVGID_52_);}
	.st56{clip-path:url(#SVGID_54_);fill:none;stroke:#0303C3;stroke-width:1.0931;stroke-miterlimit:8;}
	.st57{fill:none;stroke:#0303C3;stroke-width:0.8198;stroke-miterlimit:8;}
	.st58{clip-path:url(#SVGID_56_);fill-rule:evenodd;clip-rule:evenodd;fill:#0303C3;}
	.st59{fill-rule:evenodd;clip-rule:evenodd;fill:#0303C3;}
	.st60{fill-rule:evenodd;clip-rule:evenodd;}
</style>
<g>
	<line class="st0" x1="144.6" y1="47.6" x2="144.6" y2="145"/>
	<g>
		<defs>
			<polygon id="SVGID_1_" points="20.5,173.1 218.3,173.1 218.3,-2.6 20.5,-2.6 20.5,173.1 			"/>
		</defs>
		<clipPath id="SVGID_2_">
			<use xlink:href="#SVGID_1_"  style="overflow:visible;"/>
		</clipPath>
		<line class="st1" x1="144.6" y1="45" x2="44.9" y2="45"/>
		<g class="st2">
			<defs>
				<polygon id="SVGID_3_" points="20.5,173.1 218.3,173.1 218.3,-2.6 20.5,-2.6 20.5,173.1 				"/>
			</defs>
			<clipPath id="SVGID_4_">
				<use xlink:href="#SVGID_3_"  style="overflow:visible;"/>
			</clipPath>
			<line class="st3" x1="99" y1="77.5" x2="98.5" y2="145"/>
			<g class="st4">
				<defs>
					<polygon id="SVGID_5_" points="20.5,173.1 218.3,173.1 218.3,-2.6 20.5,-2.6 20.5,173.1 					"/>
				</defs>
				<clipPath id="SVGID_6_">
					<use xlink:href="#SVGID_5_"  style="overflow:visible;"/>
				</clipPath>
				<line class="st5" x1="98.5" y1="73.8" x2="44.9" y2="73.8"/>
				<g class="st6">
					<defs>
						<polygon id="SVGID_7_" points="20.5,173.1 218.3,173.1 218.3,-2.6 20.5,-2.6 20.5,173.1 						"/>
					</defs>
					<clipPath id="SVGID_8_">
						<use xlink:href="#SVGID_7_"  style="overflow:visible;"/>
					</clipPath>
					<line class="st7" x1="36.2" y1="145.3" x2="206.5" y2="145.3"/>
					<polygon class="st8" points="206,143.7 209.3,145.3 206,146.9 206,143.7 					"/>
					<g class="st9">
						<defs>
							<polygon id="SVGID_9_" points="20.5,173.1 218.3,173.1 218.3,-2.6 20.5,-2.6 20.5,173.1 							"/>
						</defs>
						<clipPath id="SVGID_10_">
							<use xlink:href="#SVGID_9_"  style="overflow:visible;"/>
						</clipPath>
						<line class="st10" x1="44.6" y1="153.9" x2="44.6" y2="11.6"/>
						<polygon class="st11" points="46.2,12.1 44.6,8.8 42.9,12.1 46.2,12.1 						"/>
						<g class="st12">
							<defs>
								<polygon id="SVGID_11_" points="20.5,173.1 218.3,173.1 218.3,-2.6 20.5,-2.6 20.5,173.1 								"/>
							</defs>
							<clipPath id="SVGID_12_">
								<use xlink:href="#SVGID_11_"  style="overflow:visible;"/>
							</clipPath>
							<path class="st13" d="M35.7,4.8c0.2,0,0.3,0,0.4,0.1c0.1,0,0.2,0.1,0.3,0.2c0.1,0.1,0.2,0.2,0.2,0.3s0.1,0.3,0.2,0.5
								c0,0.2,0.1,0.4,0.2,0.8c0.1,0.6,0.2,1.1,0.3,1.7s0.2,1.2,0.2,1.7c0.4-0.6,0.8-1.2,1.1-1.8s0.5-1.1,0.6-1.5
								c0.1-0.4,0.2-0.8,0.2-1c0-0.2,0-0.3-0.1-0.4c-0.1-0.1-0.2-0.1-0.4-0.1l0.1-0.3h1.7l0.2,0.3c-0.3,0.9-0.8,1.8-1.3,2.9
								c-0.5,1-1.2,2-1.9,3c-0.7,0.9-1.2,1.6-1.7,2c-0.3,0.3-0.6,0.5-0.9,0.6c-0.2,0.1-0.5,0.1-0.7,0.1c-0.1,0-0.2,0-0.3,0
								c-0.1,0-0.2,0-0.3-0.1l0.3-1.2h0.5c0,0.3,0.1,0.4,0.3,0.4c0.2,0,0.5-0.2,0.9-0.5c0.3-0.3,0.7-0.8,1.2-1.4
								c-0.1-0.7-0.3-1.6-0.5-2.7c-0.2-1.1-0.4-1.8-0.4-2.1c-0.1-0.3-0.2-0.5-0.3-0.6c-0.1-0.1-0.1-0.1-0.2-0.1
								c-0.1,0-0.3,0.1-0.4,0.2c-0.1,0.1-0.3,0.3-0.4,0.6L34,6.1c0.3-0.4,0.6-0.8,0.8-0.9S35.4,4.8,35.7,4.8L35.7,4.8z"/>
							<g class="st14">
								<defs>
									<polygon id="SVGID_13_" points="20.5,173.1 218.3,173.1 218.3,-2.6 20.5,-2.6 20.5,173.1 									"/>
								</defs>
								<clipPath id="SVGID_14_">
									<use xlink:href="#SVGID_13_"  style="overflow:visible;"/>
								</clipPath>
								<path class="st15" d="M207.8,149.4c0.1,0,0.2,0,0.3,0s0.2,0.1,0.3,0.1c0.1,0.1,0.1,0.1,0.2,0.2c0.1,0.1,0.1,0.2,0.2,0.4
									s0.1,0.4,0.2,0.6c0,0.2,0.1,0.5,0.1,0.8h0.1c0.4-0.6,0.7-1,0.9-1.3c0.2-0.3,0.4-0.5,0.5-0.6c0.1-0.1,0.3-0.2,0.4-0.3
									c0.1-0.1,0.3-0.1,0.5-0.1c0.2,0,0.4,0,0.5,0.1l-0.3,1.2h-0.4c0-0.2-0.1-0.3-0.2-0.3c0,0-0.1,0-0.1,0c0,0-0.1,0-0.2,0.1
									c-0.1,0-0.2,0.1-0.3,0.2c-0.1,0.1-0.3,0.3-0.4,0.5c-0.1,0.2-0.3,0.4-0.5,0.6l-0.4,0.5c0.1,0.4,0.1,0.8,0.2,1.1
									c0.1,0.3,0.1,0.5,0.2,0.7c0.1,0.2,0.1,0.4,0.1,0.5c0,0.1,0.1,0.2,0.1,0.3c0,0.1,0.1,0.1,0.1,0.1s0.1,0,0.2,0
									c0.1,0,0.2,0,0.3-0.1c0.1-0.1,0.3-0.3,0.5-0.6l0.4,0.3c-0.3,0.4-0.6,0.8-0.8,0.9c-0.2,0.2-0.5,0.3-0.9,0.3
									c-0.2,0-0.3,0-0.5-0.1s-0.2-0.2-0.3-0.3s-0.2-0.4-0.2-0.7c-0.1-0.5-0.2-1-0.2-1.3h-0.1c-0.5,0.6-0.8,1.1-1,1.4
									c-0.2,0.3-0.4,0.5-0.5,0.6c-0.1,0.1-0.3,0.2-0.4,0.3c-0.1,0.1-0.3,0.1-0.5,0.1c-0.2,0-0.4,0-0.5-0.1l0.3-1.2h0.4
									c0,0.2,0.1,0.3,0.2,0.3c0.1,0,0.1,0,0.2,0c0.1,0,0.2-0.1,0.3-0.2c0.1-0.1,0.3-0.3,0.5-0.6s0.5-0.7,0.9-1.2
									c-0.1-0.3-0.1-0.7-0.2-1s-0.1-0.6-0.2-0.9c-0.1-0.3-0.1-0.4-0.2-0.5c0-0.1-0.1-0.1-0.2-0.2c-0.1,0-0.1,0-0.2,0
									c-0.1,0-0.2,0-0.2,0.1c-0.1,0-0.2,0.1-0.2,0.2c-0.1,0.1-0.2,0.3-0.3,0.5l-0.4-0.3c0.3-0.4,0.5-0.7,0.8-0.9
									C207.1,149.5,207.4,149.4,207.8,149.4L207.8,149.4z"/>
								<g class="st16">
									<defs>
										<polygon id="SVGID_15_" points="20.5,173.1 218.3,173.1 218.3,-2.6 20.5,-2.6 20.5,173.1 										"/>
									</defs>
									<clipPath id="SVGID_16_">
										<use xlink:href="#SVGID_15_"  style="overflow:visible;"/>
									</clipPath>
									<path class="st17" d="M37.8,149.9c-0.4,0-0.8,0.2-1.2,0.6c-0.3,0.4-0.6,0.9-0.8,1.6c-0.2,0.7-0.3,1.3-0.3,1.8
										c0,0.5,0.1,0.8,0.3,1c0.2,0.2,0.5,0.3,0.9,0.3c0.4,0,0.8-0.2,1.1-0.6s0.6-0.9,0.8-1.6c0.2-0.7,0.3-1.3,0.3-1.8
										c0-0.5-0.1-0.8-0.3-1C38.5,150,38.2,149.9,37.8,149.9L37.8,149.9z M37.9,149.4c0.7,0,1.2,0.2,1.6,0.6
										c0.4,0.4,0.5,0.9,0.5,1.6c0,0.5-0.1,1-0.3,1.6c-0.2,0.6-0.4,1-0.7,1.4s-0.7,0.7-1.1,0.9s-0.9,0.3-1.4,0.3
										c-0.7,0-1.2-0.2-1.5-0.6c-0.4-0.4-0.5-0.9-0.5-1.6c0-0.3,0.1-0.7,0.2-1.2c0.1-0.6,0.4-1.1,0.7-1.6s0.7-0.8,1.2-1
										C36.9,149.5,37.4,149.4,37.9,149.4L37.9,149.4z"/>
									<g class="st18">
										<defs>
											<polygon id="SVGID_17_" points="20.5,173.1 218.3,173.1 218.3,-2.6 20.5,-2.6 20.5,173.1 											"/>
										</defs>
										<clipPath id="SVGID_18_">
											<use xlink:href="#SVGID_17_"  style="overflow:visible;"/>
										</clipPath>
										<path class="st19" d="M64.2,167.1c-0.2,0-0.4,0.1-0.6,0.3c-0.2,0.2-0.4,0.5-0.5,0.9c0.3,0,0.6,0,0.8-0.1
											c0.2-0.1,0.4-0.1,0.5-0.2s0.2-0.3,0.2-0.5c0-0.1,0-0.2-0.1-0.3S64.4,167.1,64.2,167.1L64.2,167.1z M53.7,167.1
											c-0.2,0-0.4,0.1-0.6,0.3c-0.2,0.2-0.3,0.4-0.4,0.7s-0.1,0.6-0.1,0.9c0,0.2,0,0.4,0.1,0.5s0.2,0.2,0.3,0.2
											c0.1,0,0.2,0,0.3-0.1c0.1-0.1,0.2-0.2,0.3-0.4c0.1-0.2,0.2-0.3,0.3-0.5c0.1-0.1,0.1-0.3,0.2-0.6s0.1-0.4,0.1-0.6
											c0-0.2,0-0.3-0.1-0.4C54,167.1,53.9,167.1,53.7,167.1L53.7,167.1z M50.5,166.9h0.2l-0.5,2.1c0,0.2-0.1,0.4-0.1,0.5
											c0,0.1,0,0.1,0,0.2c0,0,0.1,0.1,0.1,0.1c0.1,0,0.1,0,0.2-0.1s0.2-0.2,0.3-0.3l0.2,0.2c-0.2,0.2-0.4,0.4-0.5,0.4
											c-0.1,0.1-0.3,0.1-0.4,0.1c-0.1,0-0.2-0.1-0.3-0.2c-0.1-0.1-0.1-0.2-0.1-0.4c0-0.2,0-0.4,0.1-0.6l0.2-1
											c0-0.2,0.1-0.4,0.1-0.5c0-0.1,0-0.2-0.1-0.2c0,0-0.1-0.1-0.3-0.1l0-0.2L50.5,166.9L50.5,166.9z M64.3,166.8
											c0.3,0,0.5,0.1,0.6,0.2c0.1,0.1,0.2,0.3,0.2,0.5c0,0.4-0.2,0.6-0.5,0.8c-0.3,0.2-0.8,0.3-1.5,0.3c0,0.1,0,0.3,0,0.4
											c0,0.2,0,0.4,0.1,0.5c0.1,0.1,0.2,0.2,0.4,0.2c0.2,0,0.4,0,0.5-0.1c0.2-0.1,0.3-0.2,0.5-0.4l0.2,0.2
											c-0.2,0.2-0.4,0.4-0.6,0.5c-0.2,0.1-0.5,0.2-0.7,0.2c-0.3,0-0.5-0.1-0.7-0.3c-0.2-0.2-0.3-0.5-0.3-0.8
											c0-0.2,0-0.5,0.1-0.7c0.1-0.3,0.2-0.5,0.4-0.7s0.4-0.4,0.6-0.5S64.1,166.8,64.3,166.8L64.3,166.8z M60.1,166.8
											c0.1,0,0.2,0,0.3,0.1c0.1,0.1,0.1,0.2,0.1,0.3c0,0.1,0,0.2-0.1,0.3l0,0c0.2-0.3,0.4-0.5,0.6-0.6c0.2-0.1,0.4-0.2,0.6-0.2
											c0.2,0,0.3,0,0.4,0l-0.2,0.7h-0.3c0-0.1,0-0.2-0.1-0.2c0,0-0.1-0.1-0.1-0.1s-0.1,0-0.1,0c-0.1,0-0.2,0-0.3,0.1
											c-0.1,0.1-0.2,0.2-0.3,0.3c-0.1,0.1-0.2,0.3-0.3,0.4c-0.1,0.1-0.1,0.3-0.2,0.5L60,170h-0.6l0.5-2c0-0.1,0-0.2,0.1-0.3
											c0-0.1,0-0.1,0-0.2c0-0.1,0-0.1,0-0.2c0,0-0.1-0.1-0.1-0.1c-0.1,0-0.1,0-0.2,0.1c-0.1,0.1-0.2,0.2-0.3,0.3l-0.2-0.2
											c0.2-0.2,0.4-0.4,0.5-0.4C59.8,166.9,59.9,166.8,60.1,166.8L60.1,166.8z M56.3,166.8c0.1,0,0.2,0,0.3,0.1
											c0.1,0.1,0.1,0.2,0.1,0.4c0,0.2,0,0.4-0.1,0.6l-0.1,0.6c0,0.1-0.1,0.3-0.1,0.3c0,0.1,0,0.1,0,0.2c0,0.1,0,0.1,0,0.1
											c0,0.1,0,0.3,0.1,0.3s0.1,0.1,0.2,0.1c0.1,0,0.2,0,0.3-0.1c0.1-0.1,0.2-0.2,0.3-0.3c0.1-0.1,0.2-0.3,0.3-0.4
											c0.1-0.1,0.1-0.3,0.2-0.5l0.3-1.4h0.6l-0.5,2c0,0.2-0.1,0.4-0.1,0.5c0,0.1,0,0.1,0,0.2c0,0,0.1,0.1,0.1,0.1
											c0.1,0,0.1,0,0.2-0.1c0.1-0.1,0.2-0.2,0.3-0.3l0.2,0.2c-0.2,0.2-0.4,0.4-0.5,0.4c-0.1,0.1-0.3,0.1-0.4,0.1
											c-0.1,0-0.2,0-0.3-0.1c-0.1-0.1-0.1-0.2-0.1-0.3c0-0.1,0-0.2,0.1-0.4l0,0c-0.2,0.3-0.4,0.5-0.6,0.7
											c-0.2,0.1-0.4,0.2-0.6,0.2c-0.2,0-0.4-0.1-0.5-0.2c-0.1-0.1-0.2-0.3-0.2-0.5c0-0.1,0-0.3,0.1-0.6l0.2-0.8
											c0.1-0.2,0.1-0.4,0.1-0.5c0-0.1,0-0.1,0-0.2c0,0-0.1-0.1-0.1-0.1c-0.1,0-0.1,0-0.2,0.1c-0.1,0.1-0.2,0.2-0.3,0.3l-0.2-0.2
											c0.2-0.2,0.3-0.3,0.4-0.4c0.1-0.1,0.2-0.1,0.3-0.1C56.1,166.9,56.2,166.8,56.3,166.8L56.3,166.8z M53.7,166.8
											c0.1,0,0.3,0,0.4,0c0.1,0,0.2,0.1,0.4,0.2l0.3-0.2l0.2,0.1l-0.3,1.5c0,0.1-0.1,0.4-0.2,0.8c-0.1,0.4-0.2,0.8-0.2,1
											c-0.1,0.2-0.1,0.4-0.2,0.5c-0.1,0.2-0.2,0.3-0.3,0.4c-0.1,0.1-0.3,0.2-0.5,0.3c-0.2,0.1-0.4,0.1-0.6,0.1
											c-0.8,0-1.2-0.2-1.2-0.7c0-0.1,0-0.2,0.1-0.3c0.1-0.1,0.2-0.2,0.3-0.3l0.2,0.2c0,0-0.1,0.1-0.1,0.1c0,0,0,0.1-0.1,0.1
											s0,0.1,0,0.2c0,0.2,0.1,0.3,0.2,0.4c0.1,0.1,0.3,0.1,0.5,0.1c0.3,0,0.5-0.1,0.6-0.2c0.2-0.1,0.3-0.3,0.4-0.6
											c0.1-0.3,0.2-0.7,0.3-1.2l0,0c-0.2,0.3-0.4,0.5-0.6,0.6c-0.2,0.1-0.4,0.2-0.6,0.2c-0.2,0-0.4-0.1-0.5-0.3
											c-0.1-0.2-0.2-0.4-0.2-0.7c0-0.4,0.1-0.7,0.2-1.1c0.1-0.3,0.3-0.6,0.6-0.8S53.4,166.8,53.7,166.8L53.7,166.8z M50.4,165.6
											H51l-0.1,0.6h-0.6L50.4,165.6L50.4,165.6z M48.6,165.4c0.2,0,0.4,0,0.5,0.1l-0.1,0.5h-0.3c0-0.1-0.1-0.2-0.1-0.3
											s-0.1-0.1-0.2-0.1c-0.1,0-0.2,0-0.3,0.1c-0.1,0.1-0.2,0.2-0.2,0.3c-0.1,0.1-0.1,0.3-0.2,0.5l-0.1,0.3h0.8l-0.1,0.3h-0.8
											L47,170c-0.1,0.5-0.2,0.8-0.5,1c-0.2,0.2-0.5,0.3-0.8,0.3c-0.1,0-0.2,0-0.2,0l0.1-0.3c0,0,0.1,0,0.2,0
											c0.1,0,0.2,0,0.2-0.1c0.1,0,0.1-0.1,0.2-0.3c0.1-0.1,0.1-0.3,0.2-0.5l0.7-3h-0.5l0-0.2c0.1,0,0.2,0,0.3,0
											c0.1,0,0.1,0,0.1-0.1s0.1-0.1,0.1-0.1s0.1-0.1,0.1-0.3c0.1-0.4,0.3-0.7,0.5-0.9C48,165.5,48.3,165.4,48.6,165.4
											L48.6,165.4z"/>
										<g class="st20">
											<defs>
												<polygon id="SVGID_19_" points="20.5,173.1 218.3,173.1 218.3,-2.6 20.5,-2.6 20.5,173.1 												"/>
											</defs>
											<clipPath id="SVGID_20_">
												<use xlink:href="#SVGID_19_"  style="overflow:visible;"/>
											</clipPath>
											<path class="st21" d="M69.5,165.3l0.1,0.2c-0.5,0.2-0.9,0.5-1.1,1s-0.4,1.1-0.4,1.8c0,0.7,0.1,1.4,0.4,1.8s0.6,0.8,1.1,1
												l-0.1,0.2c-0.6-0.2-1.1-0.5-1.4-1.1c-0.3-0.5-0.5-1.2-0.5-2c0-0.8,0.2-1.4,0.5-2S68.9,165.5,69.5,165.3L69.5,165.3z"/>
											<g class="st22">
												<defs>
													<polygon id="SVGID_21_" points="20.5,173.1 218.3,173.1 218.3,-2.6 20.5,-2.6 20.5,173.1 													"/>
												</defs>
												<clipPath id="SVGID_22_">
													<use xlink:href="#SVGID_21_"  style="overflow:visible;"/>
												</clipPath>
												<path class="st23" d="M75.2,167.8c-0.2,0-0.3,0-0.4,0.1s-0.2,0.1-0.3,0.2c-0.1,0.1-0.1,0.2-0.1,0.3c0,0.1,0,0.2,0,0.4
													c0,0.1,0,0.3,0,0.4c0,0.1,0.1,0.2,0.2,0.3c0.1,0.1,0.2,0.2,0.3,0.2s0.2,0.1,0.4,0.1c0.2,0,0.3,0,0.4-0.1
													c0.1-0.1,0.2-0.2,0.3-0.3c0.1-0.1,0.1-0.3,0.1-0.5c0-0.2,0-0.4-0.1-0.5s-0.2-0.3-0.3-0.3
													C75.5,167.9,75.4,167.8,75.2,167.8L75.2,167.8z M75.2,165.8c-0.3,0-0.5,0.1-0.6,0.2c-0.1,0.1-0.2,0.4-0.2,0.6
													c0,0.1,0,0.2,0,0.4c0,0.1,0.1,0.2,0.1,0.3c0.1,0.1,0.2,0.1,0.3,0.2s0.2,0.1,0.4,0.1c0.2,0,0.3,0,0.4-0.1
													c0.1-0.1,0.2-0.2,0.3-0.3c0.1-0.1,0.1-0.3,0.1-0.5c0-0.2,0-0.4-0.1-0.5c-0.1-0.1-0.2-0.2-0.3-0.3
													C75.5,165.8,75.4,165.8,75.2,165.8L75.2,165.8z M71.6,165.8c-0.1,0-0.3,0-0.4,0.1c-0.1,0.1-0.2,0.2-0.2,0.4
													c-0.1,0.2-0.1,0.4-0.1,0.6s0,0.5,0,0.8c0,0.7,0.1,1.2,0.2,1.5c0.1,0.3,0.3,0.5,0.6,0.5c0.3,0,0.4-0.2,0.6-0.5
													c0.1-0.3,0.2-0.8,0.2-1.4c0-0.5,0-0.9-0.1-1.2c-0.1-0.3-0.2-0.5-0.3-0.7C71.9,165.9,71.8,165.8,71.6,165.8L71.6,165.8z
													 M75.2,165.5c0.3,0,0.6,0,0.8,0.1c0.2,0.1,0.4,0.2,0.5,0.4s0.2,0.4,0.2,0.6c0,0.2-0.1,0.4-0.2,0.6
													c-0.1,0.2-0.3,0.3-0.5,0.4l0,0c0.2,0.1,0.4,0.2,0.5,0.4c0.1,0.2,0.2,0.4,0.2,0.7c0,0.2-0.1,0.5-0.2,0.7
													s-0.3,0.3-0.5,0.4c-0.2,0.1-0.5,0.2-0.8,0.2c-0.3,0-0.5,0-0.7-0.1s-0.4-0.2-0.5-0.4c-0.1-0.2-0.2-0.4-0.2-0.6
													c0-0.2,0-0.3,0.1-0.5c0.1-0.1,0.1-0.2,0.3-0.3c0.1-0.1,0.2-0.2,0.4-0.2l0,0c-0.5-0.2-0.7-0.5-0.7-1
													c0-0.2,0.1-0.4,0.2-0.6c0.1-0.2,0.3-0.3,0.5-0.4C74.7,165.6,75,165.5,75.2,165.5L75.2,165.5z M71.6,165.5
													c0.5,0,0.8,0.2,1,0.5s0.3,0.9,0.3,1.6c0,0.8-0.1,1.3-0.4,1.7c-0.2,0.4-0.6,0.6-1.1,0.6c-0.5,0-0.8-0.2-1-0.5
													c-0.2-0.4-0.3-0.9-0.3-1.7c0-0.4,0-0.7,0.1-1s0.2-0.5,0.3-0.7c0.1-0.2,0.3-0.3,0.4-0.4S71.4,165.5,71.6,165.5
													L71.6,165.5z"/>
												<g class="st24">
													<defs>
														<polygon id="SVGID_23_" points="20.5,173.1 218.3,173.1 218.3,-2.6 20.5,-2.6 20.5,173.1 														"/>
													</defs>
													<clipPath id="SVGID_24_">
														<use xlink:href="#SVGID_23_"  style="overflow:visible;"/>
													</clipPath>
													<path class="st25" d="M77.2,165.3c0.6,0.2,1.1,0.5,1.4,1.1s0.5,1.2,0.5,2c0,0.8-0.2,1.4-0.5,2
														c-0.3,0.5-0.8,0.9-1.4,1.1l-0.1-0.2c0.5-0.2,0.9-0.5,1.1-1c0.2-0.5,0.4-1.1,0.4-1.8c0-0.7-0.1-1.3-0.4-1.8
														s-0.6-0.8-1.1-1L77.2,165.3z"/>
													<g class="st26">
														<defs>
															<polygon id="SVGID_25_" points="20.5,173.1 218.3,173.1 218.3,-2.6 20.5,-2.6 20.5,173.1 															"/>
														</defs>
														<clipPath id="SVGID_26_">
															<use xlink:href="#SVGID_25_"  style="overflow:visible;"/>
														</clipPath>
														<path class="st27" d="M64.6,137.6c4.9-2.2,9.8-4.4,15.6-15c5.7-10.7,9.3-36.4,18.9-49c9.5-12.6,23.7-21.4,38.3-26.5
															c14.5-5.1,48.9-4.1,48.9-4.1l0,0l0,0"/>
														<g class="st28">
															<defs>
																<polygon id="SVGID_27_" points="20.5,173.1 218.3,173.1 218.3,-2.6 20.5,-2.6 20.5,173.1 																"/>
															</defs>
															<clipPath id="SVGID_28_">
																<use xlink:href="#SVGID_27_"  style="overflow:visible;"/>
															</clipPath>
															<path class="st29" d="M95.1,73.6c0-2.1,1.7-3.8,3.8-3.8c2.1,0,3.8,1.7,3.8,3.8c0,2.1-1.7,3.8-3.8,3.8
																C96.8,77.5,95.1,75.7,95.1,73.6L95.1,73.6z"/>
															<g class="st30">
																<defs>
																	<polygon id="SVGID_29_" points="20.5,173.1 218.3,173.1 218.3,-2.6 20.5,-2.6 20.5,173.1 																	"/>
																</defs>
																<clipPath id="SVGID_30_">
																	<use xlink:href="#SVGID_29_"  style="overflow:visible;"/>
																</clipPath>
																<path class="st31" d="M27.3,68.7c0.3,0,0.5,0,0.7,0.1l-0.2,0.7h-0.4c0-0.2-0.1-0.3-0.2-0.4
																	c-0.1-0.1-0.2-0.1-0.3-0.1c-0.2,0-0.3,0-0.4,0.1c-0.1,0.1-0.2,0.2-0.3,0.4s-0.2,0.4-0.2,0.7L26,70.8h1.1L27,71.2
																	h-1.1l-0.8,3.7c-0.1,0.6-0.3,1.1-0.6,1.4c-0.3,0.3-0.6,0.5-1,0.5c-0.1,0-0.2,0-0.3,0l0.1-0.4c0,0,0.1,0,0.2,0
																	c0.1,0,0.2,0,0.3-0.1c0.1-0.1,0.2-0.2,0.3-0.3c0.1-0.2,0.2-0.4,0.2-0.7l0.9-4.1h-0.7l0.1-0.3c0.2,0,0.3,0,0.4,0
																	c0.1,0,0.1,0,0.2-0.1s0.1-0.1,0.1-0.2c0-0.1,0.1-0.2,0.1-0.4c0.2-0.5,0.4-0.9,0.7-1.2
																	C26.4,68.9,26.8,68.7,27.3,68.7L27.3,68.7z"/>
																<g class="st32">
																	<defs>
																		<polygon id="SVGID_31_" points="20.5,173.1 218.3,173.1 218.3,-2.6 20.5,-2.6 20.5,173.1 																		"/>
																	</defs>
																	<clipPath id="SVGID_32_">
																		<use xlink:href="#SVGID_31_"  style="overflow:visible;"/>
																	</clipPath>
																	<path class="st33" d="M31.7,68.7l0.1,0.3c-0.7,0.2-1.2,0.6-1.5,1.3s-0.5,1.4-0.5,2.4c0,1,0.2,1.8,0.5,2.5
																		s0.8,1.1,1.5,1.3l-0.1,0.3c-0.8-0.2-1.5-0.7-1.9-1.4c-0.4-0.7-0.7-1.6-0.7-2.6c0-1,0.2-1.9,0.7-2.6
																		S30.9,68.9,31.7,68.7L31.7,68.7z"/>
																	<g class="st34">
																		<defs>
																			<polygon id="SVGID_33_" points="20.5,173.1 218.3,173.1 218.3,-2.6 20.5,-2.6 20.5,173.1 																			"/>
																		</defs>
																		<clipPath id="SVGID_34_">
																			<use xlink:href="#SVGID_33_"  style="overflow:visible;"/>
																		</clipPath>
																		<path class="st35" d="M34.7,71.1c-0.3,0-0.6,0.1-0.8,0.4c-0.2,0.2-0.4,0.6-0.5,1s-0.2,0.8-0.2,1.2
																			c0,0.3,0,0.5,0.1,0.7c0.1,0.1,0.2,0.2,0.4,0.2c0.2,0,0.4-0.1,0.6-0.2c0.2-0.2,0.4-0.4,0.6-0.7
																			c0.2-0.3,0.3-0.6,0.4-1l0-0.2c0-0.1,0-0.2,0.1-0.3c0-0.1,0-0.2,0-0.3c0-0.2,0-0.4-0.1-0.5
																			C35.1,71.1,34.9,71.1,34.7,71.1L34.7,71.1z M34.6,70.7c0.2,0,0.4,0,0.5,0.1s0.3,0.1,0.5,0.2l0.4-0.3l0.3,0.1
																			l-0.6,2.7c-0.1,0.3-0.1,0.5-0.1,0.6c0,0.1,0,0.2,0.1,0.2c0,0.1,0.1,0.1,0.2,0.1c0.1,0,0.2,0,0.3-0.1
																			c0.1-0.1,0.2-0.2,0.4-0.4l0.2,0.2c-0.3,0.3-0.5,0.5-0.7,0.6c-0.2,0.1-0.4,0.2-0.6,0.2c-0.2,0-0.3-0.1-0.4-0.2
																			s-0.2-0.3-0.2-0.5c0-0.2,0-0.3,0.1-0.5l-0.1,0c-0.3,0.4-0.5,0.7-0.8,0.9c-0.2,0.2-0.5,0.3-0.8,0.3
																			c-0.3,0-0.6-0.1-0.7-0.4c-0.2-0.2-0.3-0.6-0.3-1c0-0.5,0.1-1,0.3-1.4c0.2-0.5,0.5-0.8,0.8-1.1
																			C33.9,70.8,34.2,70.7,34.6,70.7L34.6,70.7z"/>
																		<g class="st36">
																			<defs>
																				<polygon id="SVGID_35_" points="20.5,173.1 218.3,173.1 218.3,-2.6 20.5,-2.6 20.5,173.1 																				
																					"/>
																			</defs>
																			<clipPath id="SVGID_36_">
																				<use xlink:href="#SVGID_35_"  style="overflow:visible;"/>
																			</clipPath>
																			<path class="st37" d="M37.4,68.7c0.8,0.2,1.5,0.7,1.9,1.4s0.7,1.6,0.7,2.6c0,1-0.2,1.9-0.7,2.6s-1.1,1.2-1.9,1.4
																				l-0.1-0.3c0.7-0.2,1.1-0.7,1.5-1.3c0.3-0.6,0.5-1.5,0.5-2.5c0-1-0.2-1.8-0.5-2.4c-0.3-0.6-0.8-1.1-1.5-1.3
																				L37.4,68.7z"/>
																			<g class="st38">
																				<defs>
																					<polygon id="SVGID_37_" points="20.5,173.1 218.3,173.1 218.3,-2.6 20.5,-2.6 20.5,173.1 
																																											"/>
																				</defs>
																				<clipPath id="SVGID_38_">
																					<use xlink:href="#SVGID_37_"  style="overflow:visible;"/>
																				</clipPath>
																				<path class="st39" d="M99.6,148.6c-0.2,0-0.5,0.1-0.7,0.3s-0.3,0.5-0.5,0.8c-0.1,0.3-0.2,0.7-0.2,1
																					c0,0.2,0,0.4,0.1,0.6c0.1,0.1,0.2,0.2,0.3,0.2c0.2,0,0.3-0.1,0.5-0.2c0.2-0.1,0.3-0.3,0.5-0.6
																					c0.2-0.3,0.3-0.5,0.3-0.9l0-0.2c0-0.1,0-0.2,0-0.3c0-0.1,0-0.1,0-0.2c0-0.2,0-0.3-0.1-0.4
																					S99.8,148.6,99.6,148.6L99.6,148.6z M99.6,148.3c0.2,0,0.3,0,0.4,0.1c0.1,0,0.3,0.1,0.4,0.2l0.3-0.2l0.2,0.1
																					l-0.5,2.3c-0.1,0.2-0.1,0.4-0.1,0.5c0,0.1,0,0.2,0,0.2c0,0,0.1,0.1,0.1,0.1c0.1,0,0.1,0,0.2-0.1
																					c0.1-0.1,0.2-0.2,0.3-0.3l0.2,0.2c-0.2,0.2-0.4,0.4-0.5,0.5c-0.2,0.1-0.3,0.1-0.5,0.1c-0.1,0-0.3,0-0.4-0.1
																					c-0.1-0.1-0.1-0.2-0.1-0.4c0-0.1,0-0.3,0.1-0.4l0,0c-0.2,0.3-0.4,0.6-0.6,0.7c-0.2,0.2-0.4,0.2-0.6,0.2
																					c-0.3,0-0.5-0.1-0.6-0.3c-0.1-0.2-0.2-0.5-0.2-0.8c0-0.4,0.1-0.8,0.2-1.2c0.2-0.4,0.4-0.7,0.7-0.9
																					C98.9,148.4,99.2,148.3,99.6,148.3L99.6,148.3z"/>
																				<g class="st40">
																					<defs>
																						<polygon id="SVGID_39_" points="20.5,173.1 218.3,173.1 218.3,-2.6 20.5,-2.6 20.5,173.1 
																																													"/>
																					</defs>
																					<clipPath id="SVGID_40_">
																						<use xlink:href="#SVGID_39_"  style="overflow:visible;"/>
																					</clipPath>
																					<path class="st41" d="M140.8,45c0-2.1,1.7-3.8,3.8-3.8s3.8,1.7,3.8,3.8c0,2.1-1.7,3.8-3.8,3.8
																						S140.8,47.1,140.8,45L140.8,45z"/>
																					<path class="st42" d="M140.8,45c0-2.1,1.7-3.8,3.8-3.8s3.8,1.7,3.8,3.8c0,2.1-1.7,3.8-3.8,3.8
																						S140.8,47.1,140.8,45L140.8,45z"/>
																					<g class="st43">
																						<defs>
																							<polygon id="SVGID_41_" points="20.5,173.1 218.3,173.1 218.3,-2.6 20.5,-2.6 20.5,173.1 
																																															"/>
																						</defs>
																						<clipPath id="SVGID_42_">
																							<use xlink:href="#SVGID_41_"  style="overflow:visible;"/>
																						</clipPath>
																						<path class="st44" d="M108.2,75.9c-0.2,0-0.4,0-0.6,0l-0.6,2.6h0.4c0.3,0,0.6,0,0.8-0.1
																							c0.2-0.1,0.4-0.2,0.5-0.3c0.1-0.1,0.2-0.3,0.3-0.5c0.1-0.2,0.1-0.4,0.1-0.7c0-0.3-0.1-0.6-0.3-0.7
																							C108.9,76,108.6,75.9,108.2,75.9L108.2,75.9z M106.4,75.5h1.9c0.3,0,0.6,0,0.8,0.1c0.2,0.1,0.4,0.1,0.5,0.2
																							c0.1,0.1,0.2,0.2,0.3,0.4c0.1,0.2,0.1,0.4,0.1,0.6c0,0.4-0.1,0.8-0.3,1.1c-0.2,0.3-0.5,0.5-0.8,0.7
																							s-0.8,0.2-1.2,0.2c-0.3,0-0.5,0-0.7,0l-0.3,1.3c0,0.1,0,0.2-0.1,0.3c0,0.1,0,0.1,0,0.2c0,0.1,0,0.1,0,0.2
																							c0,0.1,0,0.2,0,0.2s0.1,0.1,0.1,0.1s0.2,0,0.3,0.1l0,0.2h-1.8l0-0.2c0.1,0,0.2,0,0.2-0.1s0.1-0.1,0.1-0.2
																							c0-0.1,0.1-0.2,0.1-0.2s0.1-0.3,0.1-0.6l0.7-3.3c0.1-0.3,0.1-0.5,0.1-0.7c0-0.1,0-0.2-0.1-0.3
																							s-0.2-0.1-0.3-0.1L106.4,75.5z"/>
																						<g class="st45">
																							<defs>
																								<polygon id="SVGID_43_" points="20.5,173.1 218.3,173.1 218.3,-2.6 20.5,-2.6 20.5,173.1 
																																																	"/>
																							</defs>
																							<clipPath id="SVGID_44_">
																								<use xlink:href="#SVGID_43_"  style="overflow:visible;"/>
																							</clipPath>
																							<path class="st46" d="M134,147.2l0.1,0.3c-0.6,0.2-1,0.5-1.2,1.1c-0.3,0.5-0.4,1.2-0.4,2
																								c0,0.8,0.1,1.5,0.4,2.1c0.3,0.5,0.7,0.9,1.2,1.1l-0.1,0.3c-0.7-0.2-1.2-0.6-1.6-1.2
																								c-0.4-0.6-0.6-1.3-0.6-2.2c0-0.9,0.2-1.6,0.6-2.2C132.8,147.7,133.4,147.3,134,147.2L134,147.2z"/>
																							<g class="st47">
																								<defs>
																									<polygon id="SVGID_45_" points="20.5,173.1 218.3,173.1 218.3,-2.6 20.5,-2.6 20.5,173.1 
																																																			"/>
																								</defs>
																								<clipPath id="SVGID_46_">
																									<use xlink:href="#SVGID_45_"  style="overflow:visible;"/>
																								</clipPath>
																								<path class="st48" d="M136.5,149.1c-0.2,0-0.5,0.1-0.7,0.3c-0.2,0.2-0.3,0.5-0.5,0.8
																									c-0.1,0.3-0.2,0.7-0.2,1c0,0.2,0,0.4,0.1,0.6c0.1,0.1,0.2,0.2,0.3,0.2c0.2,0,0.3-0.1,0.5-0.2
																									c0.2-0.1,0.3-0.3,0.5-0.6c0.2-0.3,0.3-0.5,0.3-0.9l0-0.2c0-0.1,0-0.2,0-0.3c0-0.1,0-0.1,0-0.2
																									c0-0.2,0-0.3-0.1-0.4C136.9,149.2,136.7,149.1,136.5,149.1L136.5,149.1z M136.5,148.8c0.2,0,0.3,0,0.4,0.1
																									c0.1,0,0.3,0.1,0.4,0.2l0.3-0.2l0.2,0.1l-0.5,2.3c-0.1,0.2-0.1,0.4-0.1,0.5c0,0.1,0,0.2,0,0.2
																									s0.1,0.1,0.1,0.1c0.1,0,0.1,0,0.2-0.1c0.1-0.1,0.2-0.2,0.3-0.3l0.2,0.2c-0.2,0.2-0.4,0.4-0.5,0.5
																									c-0.2,0.1-0.3,0.1-0.5,0.1c-0.1,0-0.3,0-0.4-0.1c-0.1-0.1-0.1-0.2-0.1-0.4c0-0.1,0-0.3,0.1-0.4l0,0
																									c-0.2,0.3-0.4,0.6-0.6,0.7c-0.2,0.2-0.4,0.2-0.6,0.2c-0.3,0-0.5-0.1-0.6-0.3c-0.1-0.2-0.2-0.5-0.2-0.8
																									c0-0.4,0.1-0.8,0.2-1.2c0.2-0.4,0.4-0.7,0.7-0.9C135.8,148.9,136.1,148.8,136.5,148.8L136.5,148.8z"/>
																								<g class="st49">
																									<defs>
																										<polygon id="SVGID_47_" points="20.5,173.1 218.3,173.1 218.3,-2.6 20.5,-2.6 20.5,173.1 
																																																					"/>
																									</defs>
																									<clipPath id="SVGID_48_">
																										<use xlink:href="#SVGID_47_"  style="overflow:visible;"/>
																									</clipPath>
																									<polygon class="st50" points="142.6,147.9 143.1,147.9 143.1,150 145,150 145,150.5 143.1,150.5 
																										143.1,152.5 142.6,152.5 142.6,150.5 140.7,150.5 140.7,150 142.6,150 142.6,147.9 
																																																			"/>
																									<g class="st51">
																										<defs>
																											<polygon id="SVGID_49_" points="20.5,173.1 218.3,173.1 218.3,-2.6 20.5,-2.6 20.5,173.1 
																																																							"/>
																										</defs>
																										<clipPath id="SVGID_50_">
																											<use xlink:href="#SVGID_49_"  style="overflow:visible;"/>
																										</clipPath>
																										<path class="st52" d="M151,149.2c-0.4,0.2-0.7,0.4-0.9,0.8c-0.2,0.4-0.3,0.8-0.3,1.3
																											c0,0.6,0.2,0.8,0.7,0.8c0.2,0,0.4-0.1,0.5-0.2c0.2-0.1,0.3-0.3,0.4-0.5c0.1-0.2,0.1-0.5,0.1-0.7
																											c0-0.3,0-0.5-0.1-0.8C151.3,149.6,151.2,149.4,151,149.2L151,149.2z M155,149.1c-0.2,0-0.5,0.1-0.7,0.3
																											c-0.2,0.2-0.3,0.5-0.5,0.8c-0.1,0.3-0.2,0.7-0.2,1c0,0.2,0,0.4,0.1,0.6c0.1,0.1,0.2,0.2,0.3,0.2
																											c0.2,0,0.3-0.1,0.5-0.2c0.2-0.1,0.3-0.3,0.5-0.6c0.2-0.3,0.3-0.5,0.3-0.9l0-0.2c0-0.1,0-0.2,0-0.3
																											c0-0.1,0-0.1,0-0.2c0-0.2,0-0.3-0.1-0.4S155.2,149.1,155,149.1L155,149.1z M155,148.8
																											c0.2,0,0.3,0,0.4,0.1c0.1,0,0.3,0.1,0.4,0.2l0.3-0.2l0.2,0.1l-0.5,2.3c-0.1,0.2-0.1,0.4-0.1,0.5
																											c0,0.1,0,0.2,0,0.2s0.1,0.1,0.1,0.1c0.1,0,0.1,0,0.2-0.1c0.1-0.1,0.2-0.2,0.3-0.3l0.2,0.2
																											c-0.2,0.2-0.4,0.4-0.5,0.5c-0.2,0.1-0.3,0.1-0.5,0.1c-0.1,0-0.3,0-0.4-0.1s-0.1-0.2-0.1-0.4
																											c0-0.1,0-0.3,0.1-0.4l0,0c-0.2,0.3-0.4,0.6-0.6,0.7c-0.2,0.2-0.4,0.2-0.6,0.2c-0.3,0-0.5-0.1-0.6-0.3
																											c-0.1-0.2-0.2-0.5-0.2-0.8c0-0.4,0.1-0.8,0.2-1.2c0.2-0.4,0.4-0.7,0.7-0.9
																											C154.3,148.9,154.6,148.8,155,148.8L155,148.8z M151.4,147.2c0.2,0,0.4,0,0.6,0.1
																											c0.2,0.1,0.4,0.2,0.7,0.4l-0.1,0.6h-0.3c-0.1-0.3-0.2-0.5-0.4-0.6s-0.3-0.2-0.5-0.2c-0.2,0-0.3,0-0.4,0.1
																											c-0.1,0.1-0.1,0.2-0.1,0.3c0,0.1,0,0.1,0,0.2s0.1,0.2,0.2,0.3c0.1,0.1,0.2,0.3,0.4,0.5
																											c0.2,0.3,0.4,0.5,0.5,0.6c0.1,0.2,0.2,0.3,0.2,0.5c0,0.2,0.1,0.4,0.1,0.6c0,0.3-0.1,0.6-0.2,0.9
																											c-0.1,0.3-0.3,0.5-0.6,0.7c-0.3,0.2-0.6,0.2-0.9,0.2c-0.3,0-0.6,0-0.7-0.1c-0.2-0.1-0.3-0.2-0.4-0.4
																											c-0.1-0.2-0.1-0.4-0.1-0.6c0-0.5,0.1-0.9,0.4-1.3c0.3-0.4,0.7-0.7,1.2-0.9c-0.2-0.2-0.3-0.4-0.4-0.5
																											c-0.1-0.2-0.1-0.3-0.1-0.4c0-0.1,0-0.3,0.1-0.4s0.2-0.2,0.4-0.3C151,147.2,151.2,147.2,151.4,147.2
																											L151.4,147.2z"/>
																										<g class="st53">
																											<defs>
																												<polygon id="SVGID_51_" points="20.5,173.1 218.3,173.1 218.3,-2.6 20.5,-2.6 20.5,173.1 
																																																									"/>
																											</defs>
																											<clipPath id="SVGID_52_">
																												<use xlink:href="#SVGID_51_"  style="overflow:visible;"/>
																											</clipPath>
																											<path class="st54" d="M157.2,147.2c0.7,0.2,1.2,0.6,1.6,1.2c0.4,0.6,0.6,1.3,0.6,2.2
																												c0,0.9-0.2,1.6-0.6,2.2c-0.4,0.6-0.9,1-1.6,1.2l-0.1-0.3c0.5-0.2,1-0.5,1.2-1.1c0.3-0.5,0.4-1.2,0.4-2.1
																												c0-0.8-0.1-1.5-0.4-2c-0.3-0.5-0.7-0.9-1.2-1.1L157.2,147.2z"/>
																											<g class="st55">
																												<defs>
																													<polygon id="SVGID_53_" points="20.5,173.1 218.3,173.1 218.3,-2.6 20.5,-2.6 20.5,173.1 
																																																											"/>
																												</defs>
																												<clipPath id="SVGID_54_">
																													<use xlink:href="#SVGID_53_"  style="overflow:visible;"/>
																												</clipPath>
																												<line class="st56" x1="180" y1="21.8" x2="49" y2="104.7"/>
																											</g>
																										</g>
																									</g>
																								</g>
																							</g>
																						</g>
																					</g>
																				</g>
																			</g>
																		</g>
																	</g>
																</g>
															</g>
														</g>
													</g>
												</g>
											</g>
										</g>
									</g>
								</g>
							</g>
						</g>
					</g>
				</g>
			</g>
		</g>
	</g>
</g>
<g>
	<path class="st57" d="M144.4,153.7c0,1.6-0.2,3-0.5,3l-21.8,0c-0.3,0-0.5,1.3-0.5,3c0-1.6-0.2-3-0.5-3H99.3c-0.3,0-0.5-1.3-0.5-3"
		/>
	<g>
		<defs>
			<polygon id="SVGID_55_" points="98.4,172.7 144.8,172.7 144.8,153.7 98.4,153.7 98.4,172.7 			"/>
		</defs>
		<clipPath id="SVGID_56_">
			<use xlink:href="#SVGID_55_"  style="overflow:visible;"/>
		</clipPath>
		<path class="st58" d="M120,166.4c-0.4,0.2-0.7,0.4-0.9,0.8c-0.2,0.4-0.3,0.8-0.3,1.3c0,0.6,0.2,0.8,0.7,0.8c0.2,0,0.4-0.1,0.5-0.2
			c0.2-0.1,0.3-0.3,0.4-0.5c0.1-0.2,0.1-0.5,0.1-0.7c0-0.3,0-0.5-0.1-0.8C120.3,166.8,120.2,166.6,120,166.4L120,166.4z M124,166.3
			c-0.2,0-0.5,0.1-0.7,0.3c-0.2,0.2-0.3,0.5-0.5,0.8c-0.1,0.3-0.2,0.7-0.2,1c0,0.2,0,0.4,0.1,0.6c0.1,0.1,0.2,0.2,0.3,0.2
			c0.2,0,0.3-0.1,0.5-0.2c0.2-0.1,0.3-0.3,0.5-0.6c0.2-0.3,0.3-0.5,0.3-0.9l0-0.2c0-0.1,0-0.2,0-0.3c0-0.1,0-0.1,0-0.2
			c0-0.2,0-0.3-0.1-0.4S124.2,166.3,124,166.3L124,166.3z M123.9,166c0.2,0,0.3,0,0.4,0.1c0.1,0,0.3,0.1,0.4,0.2l0.3-0.2l0.2,0.1
			l-0.5,2.3c-0.1,0.2-0.1,0.4-0.1,0.5c0,0.1,0,0.2,0,0.2s0.1,0.1,0.1,0.1c0.1,0,0.1,0,0.2-0.1s0.2-0.2,0.3-0.3l0.2,0.2
			c-0.2,0.2-0.4,0.4-0.5,0.5c-0.2,0.1-0.3,0.1-0.5,0.1c-0.1,0-0.3,0-0.4-0.1c-0.1-0.1-0.1-0.2-0.1-0.4c0-0.1,0-0.3,0.1-0.4l0,0
			c-0.2,0.3-0.4,0.6-0.6,0.7c-0.2,0.2-0.4,0.2-0.6,0.2c-0.3,0-0.5-0.1-0.6-0.3s-0.2-0.5-0.2-0.8c0-0.4,0.1-0.8,0.2-1.2
			c0.2-0.4,0.4-0.7,0.7-0.9C123.3,166.1,123.6,166,123.9,166L123.9,166z M120.3,164.3c0.2,0,0.4,0,0.6,0.1c0.2,0.1,0.4,0.2,0.7,0.4
			l-0.1,0.6h-0.3c-0.1-0.3-0.2-0.5-0.4-0.6c-0.2-0.1-0.3-0.2-0.5-0.2c-0.2,0-0.3,0-0.4,0.1c-0.1,0.1-0.1,0.2-0.1,0.3
			c0,0.1,0,0.1,0,0.2c0,0.1,0.1,0.2,0.2,0.3c0.1,0.1,0.2,0.3,0.4,0.5c0.2,0.3,0.4,0.5,0.5,0.6c0.1,0.2,0.2,0.3,0.2,0.5
			c0,0.2,0.1,0.4,0.1,0.6c0,0.3-0.1,0.6-0.2,0.9c-0.1,0.3-0.3,0.5-0.6,0.7c-0.3,0.2-0.6,0.2-0.9,0.2c-0.3,0-0.6,0-0.7-0.1
			c-0.2-0.1-0.3-0.2-0.4-0.4c-0.1-0.2-0.1-0.4-0.1-0.6c0-0.5,0.1-0.9,0.4-1.3s0.7-0.7,1.2-0.9c-0.2-0.2-0.3-0.4-0.4-0.5
			s-0.1-0.3-0.1-0.4c0-0.1,0-0.3,0.1-0.4c0.1-0.1,0.2-0.2,0.4-0.3C119.9,164.4,120.1,164.3,120.3,164.3L120.3,164.3z"/>
	</g>
</g>
<g>
	<path class="st59" d="M6.2,39.5c0.3,0,0.5,0,0.7,0.1l-0.2,0.7H6.3c0-0.2-0.1-0.3-0.2-0.4c-0.1-0.1-0.2-0.1-0.3-0.1
		c-0.2,0-0.3,0-0.4,0.1c-0.1,0.1-0.2,0.2-0.3,0.4S5,40.8,5,41.1l-0.1,0.5H6L5.9,42H4.8L4,45.7c-0.1,0.6-0.3,1.1-0.6,1.4
		c-0.3,0.3-0.6,0.5-1,0.5c-0.1,0-0.2,0-0.3,0l0.1-0.4c0,0,0.1,0,0.2,0c0.1,0,0.2,0,0.3-0.1c0.1-0.1,0.2-0.2,0.3-0.3
		c0.1-0.2,0.2-0.4,0.2-0.7L4.1,42H3.3l0.1-0.3c0.2,0,0.3,0,0.4,0c0.1,0,0.1,0,0.2-0.1c0,0,0.1-0.1,0.1-0.2c0-0.1,0.1-0.2,0.1-0.4
		c0.2-0.5,0.4-0.9,0.7-1.2C5.3,39.6,5.7,39.5,6.2,39.5L6.2,39.5z"/>
	<path class="st59" d="M10.6,39.5l0.1,0.3C10,40,9.5,40.5,9.2,41.1c-0.3,0.6-0.5,1.4-0.5,2.4c0,1,0.2,1.8,0.5,2.5
		c0.3,0.6,0.8,1.1,1.5,1.3l-0.1,0.3c-0.8-0.2-1.5-0.7-1.9-1.4S8,44.6,8,43.5c0-1,0.2-1.9,0.7-2.6C9.1,40.2,9.7,39.7,10.6,39.5
		L10.6,39.5z"/>
	<path class="st59" d="M13.6,41.8c-0.3,0-0.6,0.1-0.8,0.4s-0.4,0.6-0.5,1c-0.1,0.4-0.2,0.8-0.2,1.2c0,0.3,0,0.5,0.1,0.7
		c0.1,0.1,0.2,0.2,0.4,0.2c0.2,0,0.4-0.1,0.6-0.2c0.2-0.2,0.4-0.4,0.6-0.7s0.3-0.6,0.4-1l0-0.2c0-0.1,0-0.2,0.1-0.3
		c0-0.1,0-0.2,0-0.3c0-0.2,0-0.4-0.1-0.5C14,41.9,13.8,41.8,13.6,41.8L13.6,41.8z M13.5,41.5c0.2,0,0.4,0,0.5,0.1
		c0.2,0,0.3,0.1,0.5,0.2l0.4-0.3l0.3,0.1l-0.6,2.7c-0.1,0.3-0.1,0.5-0.1,0.6c0,0.1,0,0.2,0.1,0.2c0,0.1,0.1,0.1,0.2,0.1
		c0.1,0,0.2,0,0.3-0.1c0.1-0.1,0.2-0.2,0.4-0.4l0.2,0.2c-0.3,0.3-0.5,0.5-0.7,0.6s-0.4,0.2-0.6,0.2c-0.2,0-0.3-0.1-0.4-0.2
		c-0.1-0.1-0.2-0.3-0.2-0.5c0-0.2,0-0.3,0.1-0.5l-0.1,0c-0.3,0.4-0.5,0.7-0.8,0.9c-0.2,0.2-0.5,0.3-0.8,0.3c-0.3,0-0.6-0.1-0.7-0.4
		c-0.2-0.2-0.3-0.6-0.3-1c0-0.5,0.1-1,0.3-1.4c0.2-0.5,0.5-0.8,0.8-1.1C12.7,41.6,13.1,41.5,13.5,41.5L13.5,41.5z"/>
	<polygon class="st59" points="20.8,40.4 21.4,40.4 21.4,42.9 23.8,42.9 23.8,43.4 21.4,43.4 21.4,45.9 20.8,45.9 20.8,43.4 
		18.5,43.4 18.5,42.9 20.8,42.9 20.8,40.4 	"/>
	<path class="st59" d="M29,41.9c-0.4,0.2-0.8,0.5-1.1,1c-0.3,0.4-0.4,0.9-0.4,1.5c0,0.7,0.3,1,0.9,1c0.2,0,0.4-0.1,0.6-0.2
		c0.2-0.2,0.3-0.4,0.4-0.6c0.1-0.3,0.2-0.6,0.2-0.9c0-0.3,0-0.6-0.1-0.9C29.4,42.5,29.2,42.2,29,41.9L29,41.9z M33.8,41.8
		c-0.3,0-0.6,0.1-0.8,0.4c-0.2,0.2-0.4,0.6-0.5,1c-0.1,0.4-0.2,0.8-0.2,1.2c0,0.3,0,0.5,0.1,0.7c0.1,0.1,0.2,0.2,0.4,0.2
		c0.2,0,0.4-0.1,0.6-0.2c0.2-0.2,0.4-0.4,0.6-0.7s0.3-0.6,0.4-1l0-0.2c0-0.1,0-0.2,0.1-0.3c0-0.1,0-0.2,0-0.3c0-0.2,0-0.4-0.1-0.5
		C34.2,41.9,34,41.8,33.8,41.8L33.8,41.8z M33.7,41.5c0.2,0,0.4,0,0.5,0.1c0.2,0,0.3,0.1,0.5,0.2l0.4-0.3l0.3,0.1l-0.6,2.7
		c-0.1,0.3-0.1,0.5-0.1,0.6c0,0.1,0,0.2,0.1,0.2c0,0.1,0.1,0.1,0.2,0.1c0.1,0,0.2,0,0.3-0.1c0.1-0.1,0.2-0.2,0.4-0.4l0.2,0.2
		c-0.3,0.3-0.5,0.5-0.7,0.6s-0.4,0.2-0.6,0.2c-0.2,0-0.3-0.1-0.4-0.2S34,45.3,34,45.1c0-0.2,0-0.3,0.1-0.5l-0.1,0
		c-0.3,0.4-0.5,0.7-0.8,0.9c-0.2,0.2-0.5,0.3-0.8,0.3c-0.3,0-0.6-0.1-0.7-0.4s-0.3-0.6-0.3-1c0-0.5,0.1-1,0.3-1.4
		c0.2-0.5,0.5-0.8,0.8-1.1C32.9,41.6,33.3,41.5,33.7,41.5L33.7,41.5z M29.4,39.5c0.2,0,0.5,0,0.7,0.1s0.5,0.2,0.8,0.5l-0.1,0.7h-0.4
		c-0.1-0.3-0.2-0.5-0.4-0.7c-0.2-0.2-0.4-0.2-0.7-0.2c-0.2,0-0.3,0-0.5,0.1c-0.1,0.1-0.2,0.2-0.2,0.4c0,0.1,0,0.2,0.1,0.2
		c0,0.1,0.1,0.2,0.2,0.3s0.3,0.3,0.5,0.6c0.3,0.3,0.4,0.6,0.6,0.8c0.1,0.2,0.2,0.4,0.3,0.6c0.1,0.2,0.1,0.4,0.1,0.7
		c0,0.4-0.1,0.7-0.2,1c-0.2,0.3-0.4,0.6-0.7,0.8c-0.3,0.2-0.7,0.3-1.1,0.3c-0.4,0-0.7-0.1-0.9-0.2c-0.2-0.1-0.4-0.3-0.5-0.5
		s-0.2-0.4-0.2-0.7c0-0.6,0.2-1.1,0.5-1.6c0.3-0.5,0.8-0.8,1.5-1.1c-0.2-0.3-0.4-0.5-0.5-0.7c-0.1-0.2-0.2-0.4-0.2-0.5
		c0-0.2,0-0.3,0.1-0.5c0.1-0.1,0.2-0.3,0.4-0.3C28.9,39.6,29.2,39.5,29.4,39.5L29.4,39.5z"/>
	<path class="st59" d="M36.4,39.5c0.8,0.2,1.5,0.7,1.9,1.4c0.4,0.7,0.7,1.6,0.7,2.6c0,1-0.2,1.9-0.7,2.6s-1.1,1.2-1.9,1.4l-0.1-0.3
		c0.7-0.2,1.1-0.7,1.5-1.3c0.3-0.6,0.5-1.5,0.5-2.5c0-1-0.2-1.8-0.5-2.4c-0.3-0.6-0.8-1.1-1.5-1.3L36.4,39.5z"/>
</g>
<g>
	<path class="st59" d="M152.8,49.5c-0.3,0-0.5,0.1-0.7,0.3c-0.2,0.2-0.4,0.4-0.6,0.8c-0.2,0.3-0.3,0.7-0.4,1.1
		c-0.1,0.4-0.1,0.8-0.1,1.1c0,0.7,0.3,1.1,0.8,1.1c0.3,0,0.6-0.2,0.9-0.5s0.5-0.7,0.7-1.3c0.2-0.5,0.3-1.1,0.3-1.5
		c0-0.4-0.1-0.6-0.2-0.8C153.3,49.6,153.1,49.5,152.8,49.5L152.8,49.5z M152.8,49.1c0.5,0,0.8,0.1,1.1,0.4c0.2,0.3,0.4,0.7,0.4,1.2
		c0,0.3-0.1,0.7-0.2,1.1c-0.1,0.4-0.2,0.8-0.4,1.1s-0.4,0.6-0.6,0.8c-0.2,0.2-0.5,0.3-0.8,0.4c0.1,0.2,0.1,0.3,0.2,0.4
		c0,0.1,0.1,0.2,0.1,0.3c0,0.1,0.1,0.1,0.1,0.2c0,0,0.1,0.1,0.1,0.1c0,0,0.1,0,0.1,0c0.1,0,0.2,0,0.3-0.1c0.1-0.1,0.2-0.1,0.3-0.3
		l0.2,0.2c-0.2,0.2-0.4,0.4-0.5,0.4c-0.2,0.1-0.3,0.1-0.5,0.1c-0.2,0-0.4,0-0.5-0.1s-0.2-0.2-0.3-0.4c-0.1-0.2-0.2-0.4-0.3-0.8
		c-0.4,0-0.8-0.2-1-0.4c-0.2-0.3-0.3-0.6-0.3-1.1c0-0.4,0.1-0.8,0.2-1.2c0.1-0.4,0.3-0.8,0.5-1.2c0.2-0.3,0.5-0.6,0.8-0.8
		S152.5,49.1,152.8,49.1L152.8,49.1z"/>
	<path class="st59" d="M181.6,47.6c0.7,0.2,1.3,0.7,1.7,1.5c0.4,0.8,0.6,1.8,0.6,2.9c0,1.1-0.2,2.1-0.6,2.9s-1,1.3-1.7,1.5l-0.1-0.3
		c0.6-0.2,1-0.7,1.3-1.4c0.3-0.7,0.4-1.6,0.4-2.7c0-1.1-0.1-2-0.4-2.7c-0.3-0.7-0.7-1.2-1.3-1.4L181.6,47.6z M159.5,47.6l0.1,0.3
		c-0.6,0.2-1,0.7-1.3,1.4c-0.3,0.7-0.4,1.6-0.4,2.7c0,1.1,0.1,2,0.4,2.7c0.3,0.7,0.7,1.2,1.3,1.4l-0.1,0.3c-0.7-0.2-1.3-0.7-1.7-1.5
		c-0.4-0.8-0.6-1.8-0.6-2.9c0-1.1,0.2-2.1,0.6-2.9C158.2,48.3,158.8,47.8,159.5,47.6L159.5,47.6z"/>
	<path class="st59" d="M162.1,50.9c-0.2,0-0.5,0.1-0.7,0.3c-0.2,0.2-0.3,0.5-0.5,0.8c-0.1,0.3-0.2,0.7-0.2,1c0,0.2,0,0.4,0.1,0.6
		c0.1,0.1,0.2,0.2,0.3,0.2c0.2,0,0.3-0.1,0.5-0.2c0.2-0.1,0.3-0.3,0.5-0.6c0.2-0.3,0.3-0.5,0.3-0.9l0-0.2c0-0.1,0-0.2,0-0.3
		c0-0.1,0-0.1,0-0.2c0-0.2,0-0.3-0.1-0.4C162.4,50.9,162.3,50.9,162.1,50.9L162.1,50.9z M162,50.6c0.2,0,0.3,0,0.4,0.1
		c0.1,0,0.3,0.1,0.4,0.2l0.3-0.2l0.2,0.1l-0.5,2.3c-0.1,0.2-0.1,0.4-0.1,0.5c0,0.1,0,0.2,0,0.2c0,0,0.1,0.1,0.1,0.1
		c0.1,0,0.1,0,0.2-0.1s0.2-0.2,0.3-0.3l0.2,0.2c-0.2,0.2-0.4,0.4-0.5,0.5c-0.2,0.1-0.3,0.1-0.5,0.1c-0.1,0-0.3,0-0.4-0.1
		c-0.1-0.1-0.1-0.2-0.1-0.4c0-0.1,0-0.3,0.1-0.4l0,0c-0.2,0.3-0.4,0.6-0.6,0.7c-0.2,0.2-0.4,0.2-0.6,0.2c-0.3,0-0.5-0.1-0.6-0.3
		c-0.1-0.2-0.2-0.5-0.2-0.8c0-0.4,0.1-0.8,0.2-1.2c0.2-0.4,0.4-0.7,0.7-0.9C161.4,50.7,161.7,50.6,162,50.6L162,50.6z"/>
	<path class="st59" d="M164.5,53.2h0.6c0,0.2,0,0.3,0,0.5c0,0.2,0,0.3-0.1,0.5c-0.1,0.1-0.1,0.3-0.3,0.4c-0.1,0.1-0.3,0.3-0.5,0.5
		l-0.2-0.2c0.1-0.1,0.2-0.2,0.3-0.3c0.1-0.1,0.1-0.2,0.1-0.3s0-0.3,0-0.4C164.5,53.6,164.5,53.4,164.5,53.2L164.5,53.2z"/>
	<path class="st59" d="M170.1,49c0.2,0,0.4,0,0.6,0.1l-0.1,0.6h-0.3c0-0.1-0.1-0.2-0.1-0.3c-0.1-0.1-0.1-0.1-0.2-0.1
		c-0.1,0-0.3,0-0.3,0.1c-0.1,0.1-0.2,0.2-0.2,0.3c-0.1,0.1-0.1,0.3-0.2,0.6l-0.1,0.4h0.9l-0.1,0.4h-0.9l-0.7,3.1
		c-0.1,0.5-0.3,0.9-0.5,1.2c-0.2,0.3-0.5,0.4-0.9,0.4c-0.1,0-0.2,0-0.2,0l0.1-0.3c0,0,0.1,0,0.2,0c0.1,0,0.2,0,0.3-0.1
		c0.1-0.1,0.1-0.1,0.2-0.3c0.1-0.1,0.1-0.3,0.2-0.6l0.8-3.4h-0.6l0.1-0.2c0.2,0,0.3,0,0.3,0c0.1,0,0.1,0,0.2-0.1
		c0,0,0.1-0.1,0.1-0.1c0-0.1,0.1-0.2,0.1-0.3c0.1-0.4,0.3-0.7,0.6-1C169.4,49.1,169.7,49,170.1,49L170.1,49z"/>
	<path class="st59" d="M178.5,48.6c0.7,0.2,1.2,0.6,1.6,1.2c0.4,0.6,0.6,1.3,0.6,2.2c0,0.9-0.2,1.6-0.6,2.2s-0.9,1-1.6,1.2l-0.1-0.3
		c0.5-0.2,1-0.5,1.2-1.1c0.3-0.5,0.4-1.2,0.4-2.1c0-0.8-0.1-1.5-0.4-2c-0.3-0.5-0.7-0.9-1.2-1.1L178.5,48.6z M173.8,48.6l0.1,0.3
		c-0.6,0.2-1,0.5-1.2,1.1c-0.3,0.5-0.4,1.2-0.4,2c0,0.8,0.1,1.5,0.4,2.1c0.3,0.5,0.7,0.9,1.2,1.1l-0.1,0.3c-0.7-0.2-1.2-0.6-1.6-1.2
		c-0.4-0.6-0.6-1.3-0.6-2.2c0-0.9,0.2-1.6,0.6-2.2C172.6,49.2,173.1,48.8,173.8,48.6L173.8,48.6z"/>
	<path class="st59" d="M176.3,50.9c-0.2,0-0.5,0.1-0.7,0.3c-0.2,0.2-0.3,0.5-0.5,0.8c-0.1,0.3-0.2,0.7-0.2,1c0,0.2,0,0.4,0.1,0.6
		c0.1,0.1,0.2,0.2,0.3,0.2c0.2,0,0.3-0.1,0.5-0.2c0.2-0.1,0.3-0.3,0.5-0.6c0.2-0.3,0.3-0.5,0.3-0.9l0-0.2c0-0.1,0-0.2,0-0.3
		c0-0.1,0-0.1,0-0.2c0-0.2,0-0.3-0.1-0.4C176.6,50.9,176.5,50.9,176.3,50.9L176.3,50.9z M176.2,50.6c0.2,0,0.3,0,0.4,0.1
		c0.1,0,0.3,0.1,0.4,0.2l0.3-0.2l0.2,0.1l-0.5,2.3c-0.1,0.2-0.1,0.4-0.1,0.5c0,0.1,0,0.2,0,0.2c0,0,0.1,0.1,0.1,0.1
		c0.1,0,0.1,0,0.2-0.1c0.1-0.1,0.2-0.2,0.3-0.3l0.2,0.2c-0.2,0.2-0.4,0.4-0.5,0.5c-0.2,0.1-0.3,0.1-0.5,0.1c-0.1,0-0.3,0-0.4-0.1
		c-0.1-0.1-0.1-0.2-0.1-0.4c0-0.1,0-0.3,0.1-0.4l0,0c-0.2,0.3-0.4,0.6-0.6,0.7c-0.2,0.2-0.4,0.2-0.6,0.2c-0.3,0-0.5-0.1-0.6-0.3
		c-0.1-0.2-0.2-0.5-0.2-0.8c0-0.4,0.1-0.8,0.2-1.2c0.2-0.4,0.4-0.7,0.7-0.9C175.6,50.7,175.9,50.6,176.2,50.6L176.2,50.6z"/>
</g>
<g>
	<path class="st60" d="M174.5,32.2c-0.1,0-0.3,0.1-0.4,0.2c-0.1,0.1-0.2,0.3-0.3,0.5c0.2,0,0.3,0,0.5-0.1c0.1,0,0.2-0.1,0.3-0.2
		c0.1-0.1,0.1-0.2,0.1-0.3c0-0.1,0-0.1-0.1-0.2C174.6,32.2,174.6,32.2,174.5,32.2L174.5,32.2z M174.6,32c0.2,0,0.3,0,0.4,0.1
		c0.1,0.1,0.1,0.2,0.1,0.3c0,0.2-0.1,0.4-0.3,0.5c-0.2,0.1-0.5,0.2-0.9,0.2c0,0.1,0,0.2,0,0.3c0,0.1,0,0.2,0.1,0.3
		c0.1,0.1,0.1,0.1,0.3,0.1c0.1,0,0.2,0,0.3-0.1c0.1-0.1,0.2-0.1,0.3-0.2l0.1,0.1c-0.1,0.1-0.3,0.2-0.4,0.3c-0.1,0.1-0.3,0.1-0.5,0.1
		c-0.2,0-0.3-0.1-0.4-0.2c-0.1-0.1-0.2-0.3-0.2-0.5c0-0.1,0-0.3,0.1-0.5c0.1-0.2,0.1-0.3,0.2-0.4c0.1-0.1,0.2-0.2,0.4-0.3
		C174.3,32.1,174.4,32,174.6,32L174.6,32z M168.9,31.3h2.1l-0.2,0.7h-0.2c0-0.1,0-0.2,0-0.3c0-0.1,0-0.1,0-0.1s0-0.1-0.1-0.1
		c0,0-0.1,0-0.1,0h-0.3l-0.4,1.9c0,0.1,0,0.1,0,0.1c0,0,0,0.1,0,0.1c0,0,0,0.1,0,0.1c0,0,0,0.1,0,0.1c0,0,0,0,0.1,0.1
		c0,0,0.1,0,0.1,0l0,0.1H169l0-0.1c0.1,0,0.1,0,0.1,0c0,0,0,0,0.1-0.1c0,0,0-0.1,0.1-0.1c0-0.1,0-0.1,0.1-0.3l0.4-1.9h-0.2
		c-0.1,0-0.1,0-0.2,0c0,0-0.1,0.1-0.1,0.1s-0.1,0.2-0.2,0.3h-0.2L168.9,31.3L168.9,31.3z M172,31.1h0.1l-0.3,1.4l0,0
		c0.1-0.2,0.2-0.3,0.4-0.4c0.1-0.1,0.2-0.1,0.3-0.1c0.1,0,0.2,0,0.3,0.1s0.1,0.2,0.1,0.3c0,0.1,0,0.2-0.1,0.4l-0.1,0.5
		c0,0.1-0.1,0.2-0.1,0.3c0,0.1,0,0.1,0,0.1c0,0,0,0,0.1,0c0,0,0.1,0,0.1,0c0,0,0.1-0.1,0.2-0.2l0.1,0.1c-0.1,0.1-0.2,0.2-0.3,0.3
		c-0.1,0-0.2,0.1-0.3,0.1c-0.1,0-0.2,0-0.2-0.1c-0.1-0.1-0.1-0.1-0.1-0.2c0-0.1,0-0.2,0.1-0.4l0.1-0.3c0-0.1,0.1-0.2,0.1-0.3
		c0-0.1,0-0.1,0-0.1c0-0.1,0-0.2,0-0.2s-0.1-0.1-0.1-0.1c-0.1,0-0.1,0-0.2,0.1c-0.1,0-0.1,0.1-0.2,0.2c-0.1,0.1-0.1,0.2-0.2,0.3
		s-0.1,0.2-0.1,0.3l-0.2,0.9h-0.3l0.5-2.2c0-0.1,0-0.2,0-0.3c0-0.1,0-0.1-0.1-0.1c0,0-0.1,0-0.2,0l0-0.1L172,31.1L172,31.1z"/>
	<path class="st60" d="M184.2,32.3c-0.1,0-0.1,0-0.2,0.1s-0.1,0.1-0.2,0.2c-0.1,0.1-0.1,0.2-0.2,0.3c0,0.1-0.1,0.2-0.1,0.3l0,0.1
		c0,0.1,0,0.1,0,0.2c0,0,0,0.1,0,0.1c0,0.1,0,0.2,0.1,0.2c0,0,0.1,0.1,0.2,0.1c0.1,0,0.1,0,0.2,0c0.1,0,0.1-0.1,0.2-0.1
		c0.1,0,0.1-0.1,0.1-0.2s0.1-0.2,0.1-0.2c0-0.1,0.1-0.2,0.1-0.3c0-0.1,0-0.2,0-0.3c0-0.1,0-0.2-0.1-0.3
		C184.4,32.3,184.3,32.3,184.2,32.3L184.2,32.3z M181.8,32.2c-0.1,0-0.3,0.1-0.4,0.2c-0.1,0.1-0.2,0.3-0.3,0.4
		c-0.1,0.2-0.1,0.4-0.1,0.5c0,0.1,0,0.2,0.1,0.3c0,0.1,0.1,0.1,0.2,0.1c0.1,0,0.2,0,0.3-0.1c0.1-0.1,0.2-0.2,0.3-0.3
		c0.1-0.1,0.2-0.3,0.2-0.5l0-0.1c0-0.1,0-0.1,0-0.1c0,0,0-0.1,0-0.1c0-0.1,0-0.2-0.1-0.2S181.9,32.2,181.8,32.2L181.8,32.2z
		 M177.7,32.2c-0.1,0-0.3,0.1-0.4,0.2c-0.1,0.1-0.2,0.3-0.3,0.4c-0.1,0.2-0.1,0.4-0.1,0.5c0,0.1,0,0.2,0.1,0.3
		c0,0.1,0.1,0.1,0.2,0.1c0.1,0,0.1,0,0.2-0.1c0.1,0,0.1-0.1,0.2-0.2c0.1-0.1,0.1-0.2,0.2-0.3c0-0.1,0.1-0.2,0.1-0.3
		c0-0.1,0-0.3,0-0.4c0-0.1,0-0.2-0.1-0.2C177.8,32.2,177.8,32.2,177.7,32.2L177.7,32.2z M183.4,32c0.1,0,0.1,0,0.2,0.1
		c0,0.1,0.1,0.1,0.1,0.2c0,0.1,0,0.2,0,0.2l0,0c0.2-0.4,0.5-0.5,0.7-0.5c0.1,0,0.3,0.1,0.3,0.2c0.1,0.1,0.1,0.3,0.1,0.5
		c0,0.2,0,0.4-0.1,0.6c-0.1,0.2-0.2,0.4-0.4,0.5c-0.2,0.1-0.3,0.2-0.5,0.2c-0.2,0-0.3,0-0.4-0.1l-0.1,0.4c0,0.1,0,0.2,0,0.2
		c0,0.1,0,0.1,0,0.1c0,0,0.1,0,0.2,0l0,0.1h-0.6l0.5-2.1c0-0.1,0-0.2,0-0.3c0-0.1,0-0.1,0-0.1c0,0,0,0-0.1,0c0,0-0.1,0-0.1,0.1
		c0,0-0.1,0.1-0.2,0.2l-0.1-0.1c0.1-0.1,0.2-0.2,0.3-0.3C183.2,32.1,183.3,32,183.4,32L183.4,32z M181.8,32c0.1,0,0.2,0,0.2,0
		c0.1,0,0.2,0.1,0.2,0.1l0.2-0.1l0.1,0l-0.3,1.2c0,0.1,0,0.2,0,0.3c0,0.1,0,0.1,0,0.1c0,0,0,0,0.1,0c0,0,0.1,0,0.1,0
		c0,0,0.1-0.1,0.2-0.2l0.1,0.1c-0.1,0.1-0.2,0.2-0.3,0.3c-0.1,0.1-0.2,0.1-0.3,0.1c-0.1,0-0.1,0-0.2-0.1s-0.1-0.1-0.1-0.2
		c0-0.1,0-0.1,0-0.2l0,0c-0.1,0.2-0.2,0.3-0.4,0.4s-0.2,0.1-0.4,0.1c-0.1,0-0.3-0.1-0.3-0.2c-0.1-0.1-0.1-0.3-0.1-0.5
		c0-0.2,0-0.4,0.1-0.6s0.2-0.4,0.4-0.5C181.4,32.1,181.6,32,181.8,32L181.8,32z M179.2,32c0.1,0,0.1,0,0.2,0.1
		c0,0.1,0.1,0.1,0.1,0.2c0,0.1,0,0.1,0,0.2l0,0c0.1-0.2,0.3-0.3,0.4-0.4c0.1-0.1,0.2-0.1,0.4-0.1c0.1,0,0.2,0,0.2,0l-0.1,0.4h-0.2
		c0-0.1,0-0.1,0-0.1c0,0,0-0.1-0.1-0.1c0,0,0,0-0.1,0c0,0-0.1,0-0.2,0.1c-0.1,0-0.1,0.1-0.2,0.2c-0.1,0.1-0.1,0.2-0.2,0.2
		c0,0.1-0.1,0.2-0.1,0.3l-0.2,0.9h-0.3l0.3-1.2c0-0.1,0-0.1,0-0.2s0-0.1,0-0.1c0-0.1,0-0.1,0-0.1c0,0,0,0-0.1,0c0,0-0.1,0-0.1,0.1
		s-0.1,0.1-0.2,0.2l-0.1-0.1c0.1-0.1,0.2-0.2,0.3-0.3C179,32.1,179.1,32,179.2,32L179.2,32z M177.6,32c0.1,0,0.2,0,0.2,0
		c0.1,0,0.1,0.1,0.2,0.1l0.2-0.1l0.1,0l-0.2,0.9c0,0.1,0,0.2-0.1,0.5c-0.1,0.3-0.1,0.5-0.1,0.6c0,0.1-0.1,0.2-0.1,0.3
		c0,0.1-0.1,0.2-0.2,0.2c-0.1,0.1-0.2,0.1-0.3,0.2c-0.1,0-0.2,0.1-0.4,0.1c-0.5,0-0.7-0.1-0.7-0.4c0-0.1,0-0.1,0.1-0.2
		c0-0.1,0.1-0.1,0.2-0.2l0.1,0.1c0,0,0,0.1-0.1,0.1c0,0,0,0.1,0,0.1c0,0,0,0.1,0,0.1c0,0.1,0,0.2,0.1,0.2c0.1,0,0.2,0.1,0.3,0.1
		c0.2,0,0.3,0,0.4-0.1c0.1-0.1,0.2-0.2,0.3-0.4c0.1-0.2,0.1-0.4,0.2-0.7l0,0c-0.1,0.2-0.2,0.3-0.4,0.4c-0.1,0.1-0.2,0.1-0.4,0.1
		c-0.1,0-0.3-0.1-0.3-0.2c-0.1-0.1-0.1-0.3-0.1-0.5c0-0.2,0-0.4,0.1-0.6c0.1-0.2,0.2-0.4,0.4-0.5C177.3,32.1,177.5,32,177.6,32
		L177.6,32z M186,31.1h0.1l-0.3,1.4l0,0c0.1-0.2,0.2-0.3,0.4-0.4c0.1-0.1,0.2-0.1,0.3-0.1c0.1,0,0.2,0,0.3,0.1
		c0.1,0.1,0.1,0.2,0.1,0.3c0,0.1,0,0.2-0.1,0.4l-0.1,0.5c0,0.1-0.1,0.2-0.1,0.3c0,0.1,0,0.1,0,0.1c0,0,0,0,0.1,0c0,0,0.1,0,0.1,0
		c0,0,0.1-0.1,0.2-0.2l0.1,0.1c-0.1,0.1-0.2,0.2-0.3,0.3c-0.1,0-0.2,0.1-0.3,0.1c-0.1,0-0.2,0-0.2-0.1c-0.1-0.1-0.1-0.1-0.1-0.2
		c0-0.1,0-0.2,0.1-0.4l0.1-0.3c0-0.1,0.1-0.2,0.1-0.3c0-0.1,0-0.1,0-0.1c0-0.1,0-0.2,0-0.2s-0.1-0.1-0.1-0.1c-0.1,0-0.1,0-0.2,0.1
		c-0.1,0-0.1,0.1-0.2,0.2c-0.1,0.1-0.1,0.2-0.2,0.3c0,0.1-0.1,0.2-0.1,0.3l-0.2,0.9h-0.3l0.5-2.2c0-0.1,0-0.2,0-0.3
		c0-0.1,0-0.1-0.1-0.1c0,0-0.1,0-0.2,0l0-0.1L186,31.1L186,31.1z"/>
	<path class="st60" d="M189.4,32.2c-0.1,0-0.3,0.1-0.4,0.2c-0.1,0.1-0.2,0.3-0.2,0.5s-0.1,0.4-0.1,0.5c0,0.1,0,0.3,0.1,0.3
		c0.1,0.1,0.1,0.1,0.3,0.1c0.1,0,0.2-0.1,0.3-0.2c0.1-0.1,0.2-0.3,0.2-0.5c0.1-0.2,0.1-0.4,0.1-0.5c0-0.1,0-0.2-0.1-0.3
		S189.6,32.2,189.4,32.2L189.4,32.2z M189.5,32c0.2,0,0.4,0.1,0.5,0.2c0.1,0.1,0.2,0.3,0.2,0.5c0,0.2,0,0.3-0.1,0.5
		c-0.1,0.2-0.1,0.3-0.2,0.4c-0.1,0.1-0.2,0.2-0.3,0.3c-0.1,0.1-0.3,0.1-0.4,0.1c-0.2,0-0.4-0.1-0.5-0.2s-0.2-0.3-0.2-0.5
		c0-0.1,0-0.2,0-0.4c0-0.2,0.1-0.3,0.2-0.5c0.1-0.1,0.2-0.2,0.4-0.3C189.2,32.1,189.3,32,189.5,32L189.5,32z M192.2,31.1
		c0.1,0,0.2,0,0.3,0l-0.1,0.3h-0.2c0-0.1,0-0.1-0.1-0.2c0,0-0.1,0-0.1,0c-0.1,0-0.1,0-0.2,0.1c-0.1,0-0.1,0.1-0.1,0.2
		c0,0.1-0.1,0.2-0.1,0.3l0,0.2h0.5l0,0.2h-0.5l-0.4,1.7c-0.1,0.3-0.2,0.5-0.3,0.6c-0.1,0.1-0.3,0.2-0.5,0.2c-0.1,0-0.1,0-0.1,0
		l0-0.2c0,0,0,0,0.1,0c0.1,0,0.1,0,0.2,0c0,0,0.1-0.1,0.1-0.2c0-0.1,0.1-0.2,0.1-0.3l0.4-1.9h-0.3l0-0.1c0.1,0,0.2,0,0.2,0
		c0,0,0.1,0,0.1,0c0,0,0,0,0.1-0.1c0,0,0-0.1,0.1-0.2c0.1-0.2,0.2-0.4,0.3-0.5C191.8,31.2,192,31.1,192.2,31.1L192.2,31.1z"/>
	<path class="st60" d="M174,36.7c0.1,0,0.1,0,0.1,0c0,0,0.1,0,0.1,0.1c0,0,0,0.1,0.1,0.1c0,0,0,0.1,0.1,0.1c0,0.1,0,0.1,0.1,0.2
		c0,0.2,0.1,0.3,0.1,0.5c0,0.2,0.1,0.4,0.1,0.5c0.1-0.2,0.2-0.4,0.3-0.5c0.1-0.2,0.2-0.3,0.2-0.5c0-0.1,0.1-0.2,0.1-0.3
		c0-0.1,0-0.1,0-0.1c0,0-0.1,0-0.1,0l0-0.1h0.5l0.1,0.1c-0.1,0.3-0.2,0.6-0.4,0.9c-0.2,0.3-0.4,0.6-0.6,0.9
		c-0.2,0.3-0.4,0.5-0.5,0.6c-0.1,0.1-0.2,0.2-0.3,0.2c-0.1,0-0.1,0-0.2,0c0,0-0.1,0-0.1,0c0,0-0.1,0-0.1,0l0.1-0.4h0.2
		c0,0.1,0,0.1,0.1,0.1c0.1,0,0.2,0,0.3-0.1c0.1-0.1,0.2-0.2,0.4-0.4c0-0.2-0.1-0.5-0.2-0.8c-0.1-0.3-0.1-0.6-0.1-0.6
		c0-0.1-0.1-0.2-0.1-0.2c0,0,0,0-0.1,0c0,0-0.1,0-0.1,0.1c0,0-0.1,0.1-0.1,0.2l-0.1-0.1c0.1-0.1,0.2-0.2,0.3-0.3
		C173.8,36.7,173.9,36.7,174,36.7L174,36.7z"/>
	<path class="st60" d="M177,37.8h2.4V38H177V37.8L177,37.8z M177,36.9h2.4v0.3H177V36.9L177,36.9z"/>
	<path class="st60" d="M182.7,35.8c0.1,0,0.2,0,0.3,0l-0.1,0.3h-0.2c0-0.1,0-0.1-0.1-0.2c0,0-0.1,0-0.1,0c-0.1,0-0.1,0-0.2,0.1
		c-0.1,0-0.1,0.1-0.1,0.2c0,0.1-0.1,0.2-0.1,0.3l0,0.2h0.5l0,0.2h-0.5l-0.4,1.7c-0.1,0.3-0.2,0.5-0.3,0.6s-0.3,0.2-0.5,0.2
		c-0.1,0-0.1,0-0.1,0l0-0.2c0,0,0,0,0.1,0c0.1,0,0.1,0,0.2,0c0,0,0.1-0.1,0.1-0.2c0-0.1,0.1-0.2,0.1-0.3l0.4-1.9h-0.3l0-0.1
		c0.1,0,0.2,0,0.2,0c0,0,0.1,0,0.1,0c0,0,0,0,0.1-0.1c0,0,0-0.1,0.1-0.2c0.1-0.2,0.2-0.4,0.3-0.5C182.3,35.9,182.5,35.8,182.7,35.8
		L182.7,35.8z"/>
	<path class="st60" d="M184.7,35.8l0.1,0.2c-0.3,0.1-0.5,0.3-0.7,0.6c-0.1,0.3-0.2,0.7-0.2,1.1c0,0.5,0.1,0.8,0.2,1.1
		s0.4,0.5,0.7,0.6l0,0.2c-0.4-0.1-0.7-0.3-0.9-0.7s-0.3-0.7-0.3-1.2c0-0.5,0.1-0.9,0.3-1.2C184,36.1,184.3,35.9,184.7,35.8
		L184.7,35.8z"/>
	<path class="st60" d="M185.6,36.7c0,0,0.1,0,0.1,0c0,0,0.1,0,0.1,0c0,0,0,0,0.1,0.1c0,0,0,0.1,0.1,0.1c0,0.1,0,0.1,0,0.2
		s0,0.2,0,0.2h0c0.1-0.2,0.2-0.3,0.3-0.4c0.1-0.1,0.1-0.1,0.2-0.2c0,0,0.1-0.1,0.1-0.1s0.1,0,0.2,0c0.1,0,0.1,0,0.2,0l-0.1,0.4h-0.1
		c0-0.1,0-0.1-0.1-0.1c0,0,0,0,0,0s0,0,0,0c0,0,0,0-0.1,0.1c0,0-0.1,0.1-0.1,0.1c0,0.1-0.1,0.1-0.1,0.2l-0.1,0.2
		c0,0.1,0,0.2,0.1,0.3s0,0.2,0.1,0.2c0,0.1,0,0.1,0,0.1c0,0,0,0.1,0,0.1s0,0,0,0c0,0,0,0,0.1,0c0,0,0.1,0,0.1,0c0,0,0.1-0.1,0.1-0.2
		l0.1,0.1c-0.1,0.1-0.2,0.2-0.2,0.3c-0.1,0.1-0.2,0.1-0.3,0.1c-0.1,0-0.1,0-0.1,0c0,0-0.1-0.1-0.1-0.1c0,0-0.1-0.1-0.1-0.2
		c0-0.2-0.1-0.3-0.1-0.4h0c-0.1,0.2-0.2,0.3-0.3,0.4c-0.1,0.1-0.1,0.1-0.2,0.2c0,0-0.1,0.1-0.1,0.1c0,0-0.1,0-0.2,0
		c-0.1,0-0.1,0-0.2,0l0.1-0.4h0.1c0,0.1,0,0.1,0.1,0.1c0,0,0,0,0.1,0c0,0,0,0,0.1-0.1c0,0,0.1-0.1,0.2-0.2c0.1-0.1,0.2-0.2,0.3-0.4
		c0-0.1,0-0.2-0.1-0.3c0-0.1,0-0.2-0.1-0.3c0-0.1,0-0.1-0.1-0.2c0,0,0,0,0-0.1c0,0,0,0-0.1,0c0,0-0.1,0-0.1,0c0,0,0,0-0.1,0.1
		c0,0-0.1,0.1-0.1,0.1l-0.1-0.1c0.1-0.1,0.2-0.2,0.2-0.3C185.4,36.7,185.5,36.7,185.6,36.7L185.6,36.7z"/>
	<path class="st60" d="M187.2,35.8c0.4,0.1,0.7,0.3,0.9,0.7c0.2,0.3,0.3,0.7,0.3,1.2c0,0.5-0.1,0.9-0.3,1.2s-0.5,0.6-0.9,0.7l0-0.2
		c0.3-0.1,0.5-0.3,0.7-0.6s0.2-0.7,0.2-1.1c0-0.4-0.1-0.8-0.2-1.1c-0.1-0.3-0.4-0.5-0.7-0.6L187.2,35.8z"/>
</g>
</svg>
