<?xml version="1.0" encoding="utf-8"?>
<!-- Generator: Adobe Illustrator 23.0.2, SVG Export Plug-In . SVG Version: 6.00 Build 0)  -->
<svg version="1.1" id="Layer_1" xmlns="http://www.w3.org/2000/svg" xmlns:xlink="http://www.w3.org/1999/xlink" x="0px" y="0px"
	 viewBox="0 0 200 200" style="enable-background:new 0 0 200 200;" xml:space="preserve">
<style type="text/css">
	.st0{fill:none;stroke:#000000;stroke-width:1.1469;stroke-miterlimit:8;}
	.st1{fill-rule:evenodd;clip-rule:evenodd;}
	.st2{clip-path:url(#SVGID_2_);fill:none;stroke:#000000;stroke-width:1.1469;stroke-miterlimit:8;}
	.st3{clip-path:url(#SVGID_2_);fill-rule:evenodd;clip-rule:evenodd;}
	.st4{clip-path:url(#SVGID_2_);}
	.st5{clip-path:url(#SVGID_4_);fill-rule:evenodd;clip-rule:evenodd;}
	.st6{clip-path:url(#SVGID_4_);}
	.st7{clip-path:url(#SVGID_6_);fill-rule:evenodd;clip-rule:evenodd;}
	.st8{clip-path:url(#SVGID_6_);}
	.st9{clip-path:url(#SVGID_8_);fill-rule:evenodd;clip-rule:evenodd;}
	.st10{clip-path:url(#SVGID_8_);}
	.st11{clip-path:url(#SVGID_10_);fill-rule:evenodd;clip-rule:evenodd;}
	.st12{clip-path:url(#SVGID_10_);}
	.st13{clip-path:url(#SVGID_12_);fill-rule:evenodd;clip-rule:evenodd;}
	.st14{clip-path:url(#SVGID_12_);}
	.st15{clip-path:url(#SVGID_14_);fill-rule:evenodd;clip-rule:evenodd;}
	.st16{clip-path:url(#SVGID_14_);}
	.st17{clip-path:url(#SVGID_16_);fill-rule:evenodd;clip-rule:evenodd;}
	.st18{clip-path:url(#SVGID_16_);}
	.st19{clip-path:url(#SVGID_18_);fill:none;stroke:#000000;stroke-width:1.1469;stroke-miterlimit:8;}
	.st20{clip-path:url(#SVGID_18_);}
	.st21{clip-path:url(#SVGID_20_);fill-rule:evenodd;clip-rule:evenodd;}
	.st22{clip-path:url(#SVGID_20_);}
	.st23{clip-path:url(#SVGID_22_);fill-rule:evenodd;clip-rule:evenodd;}
	.st24{clip-path:url(#SVGID_22_);}
	.st25{clip-path:url(#SVGID_24_);fill-rule:evenodd;clip-rule:evenodd;}
	.st26{clip-path:url(#SVGID_24_);}
	.st27{clip-path:url(#SVGID_26_);fill-rule:evenodd;clip-rule:evenodd;}
	.st28{clip-path:url(#SVGID_26_);}
	.st29{clip-path:url(#SVGID_28_);fill-rule:evenodd;clip-rule:evenodd;}
	.st30{clip-path:url(#SVGID_28_);}
	.st31{clip-path:url(#SVGID_30_);fill-rule:evenodd;clip-rule:evenodd;}
	.st32{clip-path:url(#SVGID_30_);}
	.st33{clip-path:url(#SVGID_32_);fill-rule:evenodd;clip-rule:evenodd;}
	.st34{clip-path:url(#SVGID_32_);}
	.st35{clip-path:url(#SVGID_34_);fill-rule:evenodd;clip-rule:evenodd;}
	.st36{clip-path:url(#SVGID_34_);}
	.st37{clip-path:url(#SVGID_36_);fill-rule:evenodd;clip-rule:evenodd;}
</style>
<g>
	<line class="st0" x1="8.3" y1="168.8" x2="187" y2="168.8"/>
	<polygon class="st1" points="186.4,167 189.8,168.8 186.4,170.5 186.4,167 	"/>
	<g>
		<defs>
			<polygon id="SVGID_1_" points="0.7,189.4 197.3,189.4 199.3,13.6 2.7,13.6 2.7,192.4 			"/>
		</defs>
		<clipPath id="SVGID_2_">
			<use xlink:href="#SVGID_1_"  style="overflow:visible;"/>
		</clipPath>
		<line class="st2" x1="17" y1="177.8" x2="17" y2="28.4"/>
		<polygon class="st3" points="18.8,29 17,25.6 15.3,29 18.8,29 		"/>
		<g class="st4">
			<defs>
				<polygon id="SVGID_3_" points="0.7,189.4 197.3,189.4 199.3,13.6 2.7,13.6 2.7,192.4 				"/>
			</defs>
			<clipPath id="SVGID_4_">
				<use xlink:href="#SVGID_3_"  style="overflow:visible;"/>
			</clipPath>
			<path class="st5" d="M7.7,21.4c0.2,0,0.3,0,0.5,0.1c0.1,0,0.2,0.1,0.3,0.2c0.1,0.1,0.2,0.2,0.2,0.3c0.1,0.1,0.1,0.3,0.2,0.5
				C8.9,22.7,9,22.9,9,23.3c0.1,0.6,0.2,1.2,0.3,1.8c0.1,0.6,0.2,1.2,0.3,1.8c0.4-0.6,0.8-1.2,1.1-1.8s0.5-1.1,0.7-1.6
				c0.1-0.4,0.2-0.8,0.2-1.1c0-0.2,0-0.4-0.1-0.4s-0.2-0.1-0.5-0.1l0.1-0.3h1.8l0.2,0.3c-0.3,0.9-0.8,1.9-1.4,3
				c-0.6,1-1.2,2.1-2,3.1c-0.7,1-1.3,1.7-1.8,2.1c-0.3,0.3-0.6,0.5-0.9,0.6c-0.2,0.1-0.5,0.1-0.8,0.1c-0.1,0-0.2,0-0.3,0
				s-0.2,0-0.3-0.1l0.3-1.3h0.5c0,0.3,0.1,0.4,0.3,0.4c0.3,0,0.6-0.2,0.9-0.5c0.3-0.3,0.8-0.8,1.2-1.5c-0.1-0.8-0.3-1.7-0.5-2.8
				c-0.2-1.2-0.4-1.9-0.5-2.2c-0.1-0.3-0.2-0.6-0.3-0.7c-0.1-0.1-0.1-0.1-0.2-0.1c-0.1,0-0.3,0.1-0.4,0.2c-0.1,0.1-0.3,0.3-0.5,0.6
				l-0.4-0.3c0.3-0.5,0.6-0.8,0.9-1C7.1,21.5,7.4,21.4,7.7,21.4L7.7,21.4z"/>
			<g class="st6">
				<defs>
					<polygon id="SVGID_5_" points="0.7,189.4 197.3,189.4 199.3,13.6 2.7,13.6 2.7,192.4 					"/>
				</defs>
				<clipPath id="SVGID_6_">
					<use xlink:href="#SVGID_5_"  style="overflow:visible;"/>
				</clipPath>
				<path class="st7" d="M188.3,173.1c0.1,0,0.3,0,0.4,0c0.1,0,0.2,0.1,0.3,0.1c0.1,0.1,0.2,0.1,0.2,0.3c0.1,0.1,0.1,0.2,0.2,0.4
					c0.1,0.2,0.1,0.4,0.2,0.7c0.1,0.3,0.1,0.5,0.1,0.8h0.1c0.4-0.6,0.8-1,1-1.3c0.2-0.3,0.4-0.5,0.6-0.6s0.3-0.2,0.4-0.3
					c0.1-0.1,0.3-0.1,0.6-0.1c0.2,0,0.4,0,0.5,0.1l-0.3,1.2H192c0-0.2-0.1-0.3-0.2-0.3c0,0-0.1,0-0.1,0c0,0-0.1,0-0.2,0.1
					c-0.1,0-0.2,0.1-0.3,0.3s-0.3,0.3-0.4,0.5c-0.2,0.2-0.3,0.4-0.5,0.6l-0.5,0.6c0.1,0.4,0.2,0.8,0.2,1.1c0.1,0.3,0.1,0.6,0.2,0.8
					s0.1,0.4,0.1,0.5c0,0.1,0.1,0.2,0.1,0.3c0,0.1,0.1,0.1,0.2,0.1c0.1,0,0.1,0,0.2,0c0.1,0,0.2,0,0.4-0.1c0.1-0.1,0.3-0.3,0.5-0.6
					l0.4,0.3c-0.3,0.5-0.6,0.8-0.9,1c-0.3,0.2-0.6,0.3-0.9,0.3c-0.2,0-0.4,0-0.5-0.1c-0.1-0.1-0.3-0.2-0.3-0.3
					c-0.1-0.2-0.2-0.4-0.3-0.7c-0.1-0.6-0.2-1-0.3-1.3h-0.1c-0.5,0.7-0.8,1.1-1.1,1.4s-0.4,0.5-0.6,0.6s-0.3,0.2-0.4,0.3
					s-0.3,0.1-0.6,0.1c-0.2,0-0.4,0-0.5-0.1l0.3-1.2h0.5c0,0.2,0.1,0.3,0.2,0.3c0.1,0,0.1,0,0.2-0.1s0.2-0.1,0.3-0.2
					s0.3-0.3,0.5-0.6s0.6-0.7,1-1.2c-0.1-0.4-0.1-0.7-0.2-1s-0.1-0.6-0.2-0.9c-0.1-0.3-0.1-0.5-0.2-0.6c0-0.1-0.1-0.1-0.2-0.2
					s-0.1-0.1-0.2-0.1c-0.1,0-0.2,0-0.3,0.1s-0.2,0.1-0.2,0.2c-0.1,0.1-0.2,0.3-0.4,0.5l-0.4-0.3c0.3-0.4,0.6-0.7,0.8-1
					C187.6,173.2,187.9,173.1,188.3,173.1L188.3,173.1z"/>
				<g class="st8">
					<defs>
						<polygon id="SVGID_7_" points="0.7,189.4 197.3,189.4 199.3,13.6 2.7,13.6 2.7,192.4 						"/>
					</defs>
					<clipPath id="SVGID_8_">
						<use xlink:href="#SVGID_7_"  style="overflow:visible;"/>
					</clipPath>
					<path class="st9" d="M9.9,173.6c-0.5,0-0.9,0.2-1.2,0.6c-0.3,0.4-0.6,0.9-0.8,1.7s-0.3,1.4-0.3,1.9c0,0.5,0.1,0.9,0.3,1.1
						c0.2,0.2,0.5,0.4,0.9,0.4c0.4,0,0.8-0.2,1.2-0.6c0.3-0.4,0.6-0.9,0.8-1.7c0.2-0.7,0.3-1.3,0.3-1.9c0-0.5-0.1-0.8-0.3-1.1
						S10.3,173.6,9.9,173.6L9.9,173.6z M10,173.1c0.7,0,1.3,0.2,1.6,0.6c0.4,0.4,0.6,1,0.6,1.7c0,0.5-0.1,1.1-0.3,1.7
						c-0.2,0.6-0.4,1.1-0.7,1.5s-0.7,0.7-1.1,0.9c-0.4,0.2-0.9,0.3-1.5,0.3c-0.7,0-1.2-0.2-1.6-0.6c-0.4-0.4-0.6-0.9-0.6-1.7
						c0-0.4,0.1-0.8,0.2-1.2c0.1-0.6,0.4-1.2,0.7-1.7s0.7-0.8,1.2-1.1C8.9,173.2,9.5,173.1,10,173.1L10,173.1z"/>
					<g class="st10">
						<defs>
							<polygon id="SVGID_9_" points="0.7,189.4 197.3,189.4 199.3,13.6 2.7,13.6 2.7,192.4 							"/>
						</defs>
						<clipPath id="SVGID_10_">
							<use xlink:href="#SVGID_9_"  style="overflow:visible;"/>
						</clipPath>
						<path class="st11" d="M103.5,181.5c-0.3,0-0.6,0.2-0.9,0.5c-0.3,0.3-0.5,0.7-0.6,1.2c0.4,0,0.8,0,1.1-0.1
							c0.3-0.1,0.5-0.2,0.7-0.3s0.2-0.4,0.2-0.6c0-0.2,0-0.3-0.1-0.4S103.7,181.5,103.5,181.5L103.5,181.5z M88.8,181.5
							c-0.3,0-0.6,0.1-0.8,0.4c-0.2,0.2-0.4,0.6-0.6,1c-0.1,0.4-0.2,0.8-0.2,1.2c0,0.3,0,0.5,0.1,0.7c0.1,0.2,0.2,0.2,0.4,0.2
							c0.2,0,0.3-0.1,0.5-0.2c0.2-0.1,0.3-0.3,0.5-0.5c0.2-0.2,0.3-0.4,0.4-0.6c0.1-0.2,0.2-0.5,0.2-0.8s0.1-0.6,0.1-0.8
							c0-0.2,0-0.4-0.1-0.5S89.1,181.5,88.8,181.5L88.8,181.5z M84.4,181.2h0.3L84,184c-0.1,0.3-0.1,0.5-0.1,0.7
							c0,0.1,0,0.2,0.1,0.3c0,0.1,0.1,0.1,0.2,0.1c0.1,0,0.2,0,0.3-0.1c0.1-0.1,0.2-0.2,0.4-0.4l0.3,0.3c-0.3,0.3-0.5,0.5-0.7,0.6
							c-0.2,0.1-0.4,0.2-0.6,0.2c-0.2,0-0.3-0.1-0.5-0.2c-0.1-0.1-0.2-0.3-0.2-0.5c0-0.2,0-0.5,0.1-0.9l0.3-1.5
							c0.1-0.3,0.1-0.5,0.1-0.7c0-0.1,0-0.2-0.1-0.3c-0.1,0-0.2-0.1-0.4-0.1l0-0.2L84.4,181.2L84.4,181.2z M103.7,181.1
							c0.4,0,0.6,0.1,0.8,0.2c0.2,0.1,0.3,0.4,0.3,0.7c0,0.5-0.2,0.9-0.7,1.1s-1.2,0.4-2.1,0.4c0,0.2-0.1,0.4-0.1,0.6
							c0,0.3,0.1,0.5,0.2,0.7c0.1,0.1,0.3,0.2,0.6,0.2c0.3,0,0.5-0.1,0.7-0.2c0.2-0.1,0.5-0.3,0.7-0.6l0.3,0.3
							c-0.3,0.3-0.6,0.6-0.9,0.7s-0.6,0.2-1,0.2c-0.4,0-0.8-0.1-1-0.4c-0.2-0.3-0.4-0.6-0.4-1.1c0-0.3,0.1-0.7,0.2-1
							c0.1-0.4,0.3-0.7,0.5-1c0.2-0.3,0.5-0.5,0.8-0.7S103.3,181.1,103.7,181.1L103.7,181.1z M97.7,181.1c0.2,0,0.3,0.1,0.4,0.2
							c0.1,0.1,0.2,0.3,0.2,0.5c0,0.1,0,0.3-0.1,0.5l0.1,0c0.3-0.4,0.6-0.7,0.8-0.9s0.5-0.3,0.8-0.3c0.2,0,0.4,0,0.5,0l-0.2,1h-0.5
							c0-0.1,0-0.2-0.1-0.3c0-0.1-0.1-0.1-0.1-0.1c0,0-0.1,0-0.2,0c-0.1,0-0.2,0-0.4,0.1s-0.3,0.2-0.4,0.4c-0.2,0.2-0.3,0.4-0.4,0.6
							s-0.2,0.4-0.2,0.7l-0.4,1.9h-0.8l0.6-2.8c0-0.2,0.1-0.3,0.1-0.4s0-0.2,0-0.2c0-0.1,0-0.2-0.1-0.3s-0.1-0.1-0.2-0.1
							c-0.1,0-0.2,0-0.3,0.1s-0.2,0.2-0.4,0.4l-0.3-0.3c0.3-0.3,0.5-0.5,0.7-0.6C97.3,181.2,97.5,181.1,97.7,181.1L97.7,181.1z
							 M92.5,181.1c0.2,0,0.3,0.1,0.5,0.2c0.1,0.1,0.2,0.3,0.2,0.5c0,0.2,0,0.5-0.1,0.9l-0.2,0.8c-0.1,0.2-0.1,0.4-0.1,0.5
							c0,0.1,0,0.2,0,0.3c0,0.1,0,0.1,0,0.2c0,0.2,0,0.4,0.1,0.4c0.1,0.1,0.2,0.1,0.3,0.1c0.1,0,0.3-0.1,0.4-0.2
							c0.1-0.1,0.3-0.3,0.5-0.5c0.2-0.2,0.3-0.4,0.4-0.6c0.1-0.2,0.2-0.4,0.2-0.7l0.4-1.9h0.8l-0.7,2.8c-0.1,0.3-0.1,0.5-0.1,0.7
							c0,0.1,0,0.2,0.1,0.3c0,0.1,0.1,0.1,0.2,0.1c0.1,0,0.2,0,0.3-0.1c0.1-0.1,0.2-0.2,0.4-0.4l0.3,0.3c-0.3,0.3-0.5,0.5-0.7,0.6
							c-0.2,0.1-0.4,0.2-0.6,0.2c-0.2,0-0.3-0.1-0.4-0.2c-0.1-0.1-0.2-0.3-0.2-0.5c0-0.2,0-0.3,0.1-0.5l-0.1,0
							c-0.3,0.4-0.6,0.7-0.8,0.9c-0.3,0.2-0.5,0.3-0.8,0.3s-0.5-0.1-0.6-0.2c-0.1-0.2-0.2-0.4-0.2-0.7c0-0.2,0-0.5,0.1-0.8l0.3-1.2
							c0.1-0.3,0.1-0.6,0.1-0.7c0-0.1,0-0.2-0.1-0.3c0-0.1-0.1-0.1-0.2-0.1c-0.1,0-0.2,0-0.3,0.1s-0.2,0.2-0.4,0.4l-0.3-0.3
							c0.3-0.3,0.4-0.4,0.6-0.5c0.1-0.1,0.3-0.2,0.4-0.2C92.2,181.1,92.3,181.1,92.5,181.1L92.5,181.1z M88.8,181.1
							c0.2,0,0.4,0,0.5,0.1s0.3,0.1,0.5,0.2l0.4-0.3l0.3,0.1l-0.5,2.1c0,0.1-0.1,0.5-0.2,1.1c-0.1,0.6-0.2,1.1-0.3,1.3
							s-0.2,0.5-0.3,0.7c-0.1,0.2-0.3,0.4-0.4,0.6c-0.2,0.2-0.4,0.3-0.7,0.4c-0.3,0.1-0.6,0.1-0.9,0.1c-1.1,0-1.7-0.3-1.7-1
							c0-0.2,0.1-0.3,0.2-0.5c0.1-0.1,0.3-0.3,0.5-0.4l0.3,0.3c-0.1,0.1-0.1,0.1-0.1,0.2c0,0.1-0.1,0.1-0.1,0.2c0,0.1,0,0.1,0,0.2
							c0,0.2,0.1,0.4,0.2,0.5s0.4,0.2,0.7,0.2c0.4,0,0.7-0.1,0.9-0.2c0.2-0.2,0.4-0.4,0.6-0.8c0.2-0.4,0.3-0.9,0.5-1.7l-0.1,0
							c-0.3,0.4-0.6,0.7-0.8,0.9c-0.2,0.2-0.5,0.3-0.8,0.3c-0.3,0-0.6-0.1-0.8-0.4c-0.2-0.2-0.3-0.6-0.3-1c0-0.5,0.1-1,0.3-1.5
							s0.5-0.8,0.8-1.1C87.9,181.3,88.3,181.1,88.8,181.1L88.8,181.1z M84.3,179.4h0.8l-0.2,0.9h-0.8L84.3,179.4L84.3,179.4z
							 M81.7,179.1c0.3,0,0.5,0,0.8,0.1l-0.2,0.8h-0.4c0-0.2-0.1-0.3-0.2-0.4c-0.1-0.1-0.2-0.1-0.3-0.1c-0.2,0-0.3,0-0.4,0.1
							c-0.1,0.1-0.2,0.2-0.3,0.4s-0.2,0.4-0.2,0.7l-0.1,0.5h1.2l-0.1,0.5h-1.2l-0.8,3.9c-0.1,0.6-0.3,1.1-0.6,1.4s-0.6,0.5-1.1,0.5
							c-0.1,0-0.2,0-0.3,0l0.1-0.4c0,0,0.1,0,0.2,0c0.1,0,0.2,0,0.3-0.1c0.1-0.1,0.2-0.2,0.3-0.4c0.1-0.2,0.2-0.4,0.2-0.7l1-4.3
							h-0.8l0.1-0.3c0.2,0,0.3,0,0.4,0c0.1,0,0.2-0.1,0.2-0.1c0,0,0.1-0.1,0.1-0.2c0-0.1,0.1-0.2,0.1-0.4c0.2-0.5,0.4-0.9,0.7-1.2
							C80.8,179.2,81.2,179.1,81.7,179.1L81.7,179.1z"/>
						<g class="st12">
							<defs>
								<polygon id="SVGID_11_" points="0.7,189.4 197.3,189.4 199.3,13.6 2.7,13.6 2.7,192.4 								"/>
							</defs>
							<clipPath id="SVGID_12_">
								<use xlink:href="#SVGID_11_"  style="overflow:visible;"/>
							</clipPath>
							<path class="st13" d="M111,179l0.1,0.3c-0.7,0.2-1.2,0.7-1.6,1.3c-0.3,0.7-0.5,1.5-0.5,2.5c0,1,0.2,1.9,0.5,2.6
								c0.3,0.7,0.8,1.1,1.5,1.4l-0.1,0.3c-0.9-0.2-1.5-0.7-2-1.5c-0.5-0.8-0.7-1.7-0.7-2.8c0-1.1,0.2-2,0.7-2.8
								C109.4,179.7,110.1,179.2,111,179L111,179z"/>
							<g class="st14">
								<defs>
									<polygon id="SVGID_13_" points="0.7,189.4 197.3,189.4 199.3,13.6 2.7,13.6 2.7,192.4 									"/>
								</defs>
								<clipPath id="SVGID_14_">
									<use xlink:href="#SVGID_13_"  style="overflow:visible;"/>
								</clipPath>
								<path class="st15" d="M119.1,182.3c-0.1,0-0.3,0-0.4,0s-0.3,0.1-0.4,0.1c-0.1,0.1-0.2,0.1-0.3,0.2c0,0-0.1,0.1-0.1,0.1
									c0,0.1,0,0.1-0.1,0.2c0,0.1,0,0.2,0,0.4c0,0.6,0.1,1,0.3,1.3s0.5,0.4,0.9,0.4c0.2,0,0.4,0,0.6-0.1c0.2-0.1,0.3-0.2,0.4-0.3
									c0.1-0.1,0.2-0.3,0.2-0.5s0.1-0.4,0.1-0.6c0-0.4-0.1-0.8-0.3-1C119.7,182.4,119.4,182.3,119.1,182.3L119.1,182.3z
									 M113.8,179.7c-0.2,0-0.4,0.1-0.5,0.2c-0.1,0.1-0.3,0.3-0.3,0.5s-0.1,0.5-0.2,0.8c0,0.3-0.1,0.7-0.1,1.1
									c0,1,0.1,1.7,0.3,2.1c0.2,0.5,0.5,0.7,0.8,0.7c0.4,0,0.6-0.2,0.8-0.6c0.2-0.4,0.3-1.1,0.3-2c0-0.7,0-1.2-0.1-1.7
									c-0.1-0.4-0.2-0.7-0.4-0.9C114.2,179.8,114,179.7,113.8,179.7L113.8,179.7z M120.2,179.3l0.2,0.2v0.2
									c-0.5,0-0.9,0.1-1.2,0.3s-0.7,0.5-0.9,0.9s-0.4,0.8-0.5,1.4l0,0c0.3-0.2,0.5-0.3,0.7-0.4c0.2-0.1,0.5-0.1,0.8-0.1
									c0.3,0,0.6,0.1,0.9,0.2c0.2,0.1,0.4,0.4,0.5,0.6c0.1,0.3,0.2,0.6,0.2,0.9c0,0.4-0.1,0.7-0.2,1c-0.1,0.3-0.4,0.5-0.7,0.7
									c-0.3,0.2-0.7,0.3-1.2,0.3c-0.7,0-1.1-0.2-1.5-0.6c-0.3-0.4-0.5-1-0.5-1.8c0-0.5,0.1-1,0.3-1.5c0.2-0.5,0.4-0.9,0.7-1.2
									c0.3-0.3,0.7-0.6,1.1-0.8S119.8,179.3,120.2,179.3L120.2,179.3z M113.8,179.3c0.7,0,1.1,0.3,1.5,0.8
									c0.3,0.5,0.5,1.3,0.5,2.3c0,1.1-0.2,1.9-0.5,2.4c-0.3,0.5-0.8,0.8-1.5,0.8c-0.6,0-1.1-0.3-1.4-0.8c-0.3-0.5-0.5-1.3-0.5-2.3
									c0-0.5,0-1,0.1-1.4s0.2-0.7,0.4-1c0.2-0.3,0.4-0.5,0.6-0.6C113.3,179.4,113.5,179.3,113.8,179.3L113.8,179.3z"/>
								<g class="st16">
									<defs>
										<polygon id="SVGID_15_" points="0.7,189.4 197.3,189.4 199.3,13.6 2.7,13.6 2.7,192.4 										"/>
									</defs>
									<clipPath id="SVGID_16_">
										<use xlink:href="#SVGID_15_"  style="overflow:visible;"/>
									</clipPath>
									<path class="st17" d="M121.7,179c0.9,0.2,1.5,0.7,2,1.5c0.5,0.8,0.7,1.7,0.7,2.8c0,1.1-0.2,2-0.7,2.8
										c-0.5,0.8-1.1,1.3-2,1.5l-0.1-0.3c0.7-0.2,1.2-0.7,1.5-1.4c0.3-0.7,0.5-1.5,0.5-2.6c0-1-0.2-1.8-0.5-2.5s-0.9-1.1-1.6-1.3
										L121.7,179z"/>
									<g class="st18">
										<defs>
											<polygon id="SVGID_17_" points="0.7,189.4 197.3,189.4 199.3,13.6 2.7,13.6 2.7,192.4 											"/>
										</defs>
										<clipPath id="SVGID_18_">
											<use xlink:href="#SVGID_17_"  style="overflow:visible;"/>
										</clipPath>
										<path class="st19" d="M38,145.1c5.2-2.3,10.3-4.6,16.3-15.8c6-11.2,9.8-38.1,19.8-51.3S99,55.5,114.3,50.2
											c15.2-5.4,51.3-4.3,51.3-4.3l0,0l0,0"/>
										<g class="st20">
											<defs>
												<polygon id="SVGID_19_" points="0.7,189.4 197.3,189.4 199.3,13.6 2.7,13.6 2.7,192.4 												"/>
											</defs>
											<clipPath id="SVGID_20_">
												<use xlink:href="#SVGID_19_"  style="overflow:visible;"/>
											</clipPath>
											<path class="st21" d="M153.9,26.4c-0.2,0-0.4,0.1-0.7,0.3s-0.4,0.5-0.5,0.9c0.3,0,0.6,0,0.8-0.1s0.4-0.1,0.5-0.3
												c0.1-0.1,0.2-0.3,0.2-0.5c0-0.1,0-0.2-0.1-0.3C154.1,26.4,154,26.4,153.9,26.4L153.9,26.4z M154,26.1
												c0.3,0,0.5,0.1,0.6,0.2c0.1,0.1,0.2,0.3,0.2,0.5c0,0.4-0.2,0.7-0.5,0.9c-0.4,0.2-0.9,0.3-1.6,0.3c0,0.1,0,0.3,0,0.4
												c0,0.2,0,0.4,0.1,0.5c0.1,0.1,0.2,0.2,0.5,0.2c0.2,0,0.4,0,0.6-0.1s0.3-0.2,0.5-0.4l0.2,0.2c-0.2,0.2-0.4,0.4-0.7,0.5
												c-0.2,0.1-0.5,0.2-0.8,0.2c-0.3,0-0.6-0.1-0.8-0.3s-0.3-0.5-0.3-0.8c0-0.2,0-0.5,0.1-0.8c0.1-0.3,0.2-0.5,0.4-0.7
												c0.2-0.2,0.4-0.4,0.6-0.5C153.5,26.1,153.8,26.1,154,26.1L154,26.1z M144.3,24.8h3.5l-0.3,1.2h-0.3c0-0.2,0-0.4,0-0.5
												s0-0.2-0.1-0.2s-0.1-0.1-0.1-0.1c0,0-0.1,0-0.2,0h-0.5l-0.7,3.3c0,0.1,0,0.2,0,0.2s0,0.1,0,0.2c0,0.1,0,0.1,0,0.2
												c0,0.1,0,0.1,0,0.2c0,0,0.1,0.1,0.1,0.1s0.1,0,0.2,0l0,0.2h-1.4l0-0.2c0.1,0,0.2,0,0.2-0.1c0,0,0.1-0.1,0.1-0.1
												s0.1-0.1,0.1-0.2s0.1-0.3,0.1-0.5l0.7-3.3h-0.4c-0.1,0-0.2,0-0.3,0.1c-0.1,0-0.2,0.1-0.2,0.2c-0.1,0.1-0.2,0.3-0.3,0.6
												h-0.3L144.3,24.8L144.3,24.8z M149.7,24.6h0.2l-0.6,2.3l0,0c0.2-0.3,0.4-0.5,0.6-0.6c0.2-0.1,0.4-0.2,0.6-0.2
												c0.2,0,0.4,0.1,0.5,0.2c0.1,0.1,0.2,0.3,0.2,0.5c0,0.1,0,0.3-0.1,0.6l-0.2,0.9c-0.1,0.2-0.1,0.4-0.1,0.5
												c0,0.1,0,0.2,0,0.2c0,0,0.1,0.1,0.1,0.1c0.1,0,0.1,0,0.2-0.1c0.1-0.1,0.2-0.2,0.3-0.3l0.2,0.2c-0.2,0.2-0.4,0.4-0.5,0.5
												c-0.1,0.1-0.3,0.1-0.5,0.1c-0.1,0-0.3-0.1-0.3-0.2c-0.1-0.1-0.1-0.2-0.1-0.4c0-0.1,0-0.4,0.1-0.6l0.1-0.6
												c0.1-0.2,0.1-0.4,0.1-0.5c0-0.1,0-0.2,0-0.2c0-0.2,0-0.3-0.1-0.3c-0.1-0.1-0.1-0.1-0.3-0.1c-0.1,0-0.2,0-0.3,0.1
												s-0.2,0.2-0.4,0.3c-0.1,0.2-0.2,0.3-0.3,0.4s-0.1,0.3-0.2,0.5l-0.3,1.5h-0.6l0.9-3.8c0.1-0.2,0.1-0.4,0.1-0.5
												c0-0.1,0-0.2-0.1-0.2c-0.1,0-0.2-0.1-0.3-0.1l0-0.2L149.7,24.6L149.7,24.6z"/>
											<g class="st22">
												<defs>
													<polygon id="SVGID_21_" points="0.7,189.4 197.3,189.4 199.3,13.6 2.7,13.6 2.7,192.4 													"/>
												</defs>
												<clipPath id="SVGID_22_">
													<use xlink:href="#SVGID_21_"  style="overflow:visible;"/>
												</clipPath>
												<path class="st23" d="M170.6,26.5c-0.1,0-0.2,0-0.3,0.1c-0.1,0.1-0.2,0.2-0.4,0.4c-0.1,0.2-0.2,0.3-0.3,0.5
													c-0.1,0.2-0.1,0.4-0.2,0.6l0,0.1c0,0.1,0,0.2,0,0.3c0,0.1,0,0.1,0,0.2c0,0.2,0,0.3,0.1,0.4c0.1,0.1,0.2,0.1,0.4,0.1
													c0.1,0,0.2,0,0.3-0.1c0.1,0,0.2-0.1,0.3-0.2s0.2-0.2,0.2-0.3s0.1-0.3,0.2-0.4c0.1-0.2,0.1-0.3,0.1-0.5
													c0-0.2,0-0.3,0-0.5c0-0.2,0-0.4-0.1-0.5C170.9,26.5,170.8,26.5,170.6,26.5L170.6,26.5z M166.5,26.4
													c-0.2,0-0.4,0.1-0.6,0.3c-0.2,0.2-0.3,0.4-0.4,0.7c-0.1,0.3-0.2,0.6-0.2,0.9c0,0.2,0,0.4,0.1,0.5
													c0.1,0.1,0.2,0.2,0.3,0.2c0.1,0,0.3-0.1,0.4-0.2c0.1-0.1,0.3-0.3,0.4-0.5c0.2-0.2,0.3-0.5,0.3-0.8l0-0.1
													c0-0.1,0-0.2,0-0.2c0-0.1,0-0.1,0-0.2c0-0.2,0-0.3-0.1-0.4C166.8,26.4,166.7,26.4,166.5,26.4L166.5,26.4z M159.4,26.4
													c-0.2,0-0.4,0.1-0.6,0.3c-0.2,0.2-0.3,0.4-0.4,0.7s-0.2,0.6-0.2,0.9c0,0.2,0,0.4,0.1,0.5c0.1,0.1,0.2,0.2,0.3,0.2
													c0.1,0,0.2,0,0.3-0.1c0.1-0.1,0.2-0.2,0.4-0.4c0.1-0.2,0.2-0.3,0.3-0.5c0.1-0.2,0.1-0.3,0.2-0.6
													c0.1-0.2,0.1-0.4,0.1-0.6c0-0.2,0-0.3-0.1-0.4C159.7,26.4,159.6,26.4,159.4,26.4L159.4,26.4z M169.2,26.1
													c0.1,0,0.2,0,0.3,0.1c0.1,0.1,0.1,0.2,0.1,0.4c0,0.1,0,0.3-0.1,0.4l0,0c0.4-0.6,0.8-0.9,1.2-0.9c0.2,0,0.4,0.1,0.6,0.3
													c0.1,0.2,0.2,0.4,0.2,0.8c0,0.4-0.1,0.7-0.2,1.1c-0.1,0.4-0.4,0.6-0.6,0.9c-0.3,0.2-0.6,0.3-0.9,0.3
													c-0.3,0-0.5-0.1-0.7-0.2L169,30c0,0.2-0.1,0.3-0.1,0.4c0,0.1,0,0.2,0.1,0.2c0.1,0,0.1,0.1,0.3,0.1l0,0.2h-1l0.8-3.6
													c0-0.2,0.1-0.4,0.1-0.5c0-0.1,0-0.2,0-0.2c0,0-0.1-0.1-0.1-0.1c-0.1,0-0.1,0-0.2,0.1c-0.1,0.1-0.2,0.2-0.3,0.3l-0.2-0.2
													c0.2-0.2,0.4-0.4,0.5-0.5S169.1,26.1,169.2,26.1L169.2,26.1z M166.4,26.1c0.1,0,0.3,0,0.4,0c0.1,0,0.3,0.1,0.4,0.2
													l0.3-0.2l0.2,0.1l-0.5,2.1c0,0.2-0.1,0.4-0.1,0.5c0,0.1,0,0.2,0,0.2c0,0,0.1,0.1,0.1,0.1c0.1,0,0.1,0,0.2-0.1
													c0.1-0.1,0.2-0.2,0.3-0.3l0.2,0.2c-0.2,0.2-0.4,0.4-0.5,0.5c-0.1,0.1-0.3,0.1-0.5,0.1c-0.1,0-0.2,0-0.3-0.1
													s-0.1-0.2-0.1-0.4c0-0.1,0-0.3,0.1-0.4l0,0c-0.2,0.3-0.4,0.5-0.6,0.7c-0.2,0.1-0.4,0.2-0.6,0.2c-0.2,0-0.4-0.1-0.6-0.3
													c-0.1-0.2-0.2-0.4-0.2-0.8c0-0.4,0.1-0.8,0.2-1.1s0.4-0.6,0.6-0.8S166.1,26.1,166.4,26.1L166.4,26.1z M162.1,26.1
													c0.1,0,0.3,0,0.3,0.1s0.1,0.2,0.1,0.4c0,0.1,0,0.2-0.1,0.3l0,0c0.2-0.3,0.4-0.5,0.6-0.7c0.2-0.1,0.4-0.2,0.6-0.2
													c0.2,0,0.3,0,0.4,0l-0.2,0.8h-0.3c0-0.1,0-0.2-0.1-0.2s-0.1-0.1-0.1-0.1s-0.1,0-0.1,0c-0.1,0-0.2,0-0.3,0.1
													c-0.1,0.1-0.2,0.2-0.3,0.3c-0.1,0.1-0.2,0.3-0.3,0.4c-0.1,0.1-0.1,0.3-0.2,0.5l-0.3,1.5h-0.6l0.5-2.1
													c0-0.1,0.1-0.2,0.1-0.3c0-0.1,0-0.1,0-0.2c0-0.1,0-0.2,0-0.2c0,0-0.1-0.1-0.1-0.1c-0.1,0-0.1,0-0.2,0.1
													c-0.1,0.1-0.2,0.2-0.3,0.3l-0.2-0.2c0.2-0.2,0.4-0.4,0.5-0.5S162,26.1,162.1,26.1L162.1,26.1z M159.4,26.1
													c0.1,0,0.3,0,0.4,0.1s0.3,0.1,0.4,0.2l0.3-0.2l0.2,0.1l-0.3,1.6c0,0.1-0.1,0.4-0.2,0.8c-0.1,0.5-0.2,0.8-0.2,1
													c-0.1,0.2-0.1,0.4-0.2,0.5c-0.1,0.2-0.2,0.3-0.3,0.4c-0.1,0.1-0.3,0.2-0.5,0.3c-0.2,0.1-0.4,0.1-0.7,0.1
													c-0.8,0-1.3-0.2-1.3-0.7c0-0.1,0-0.2,0.1-0.3s0.2-0.2,0.4-0.3l0.2,0.2c0,0.1-0.1,0.1-0.1,0.2c0,0.1,0,0.1-0.1,0.1
													s0,0.1,0,0.2c0,0.2,0.1,0.3,0.2,0.4c0.1,0.1,0.3,0.1,0.5,0.1c0.3,0,0.5-0.1,0.7-0.2c0.2-0.1,0.3-0.3,0.4-0.6
													c0.1-0.3,0.2-0.7,0.3-1.2l0,0c-0.2,0.3-0.4,0.5-0.6,0.7c-0.2,0.1-0.4,0.2-0.6,0.2c-0.2,0-0.4-0.1-0.6-0.3
													s-0.2-0.4-0.2-0.8c0-0.4,0.1-0.8,0.2-1.1c0.2-0.4,0.4-0.6,0.6-0.8S159,26.1,159.4,26.1L159.4,26.1z M173.8,24.6h0.2
													l-0.6,2.3l0,0c0.2-0.3,0.4-0.5,0.6-0.6c0.2-0.1,0.4-0.2,0.6-0.2c0.2,0,0.4,0.1,0.5,0.2c0.1,0.1,0.2,0.3,0.2,0.5
													c0,0.1,0,0.3-0.1,0.6l-0.2,0.9c-0.1,0.2-0.1,0.4-0.1,0.5c0,0.1,0,0.2,0,0.2c0,0,0.1,0.1,0.1,0.1c0.1,0,0.1,0,0.2-0.1
													s0.2-0.2,0.3-0.3l0.2,0.2c-0.2,0.2-0.4,0.4-0.5,0.5c-0.1,0.1-0.3,0.1-0.5,0.1c-0.1,0-0.3-0.1-0.3-0.2
													c-0.1-0.1-0.1-0.2-0.1-0.4c0-0.1,0-0.4,0.1-0.6l0.1-0.6c0.1-0.2,0.1-0.4,0.1-0.5c0-0.1,0-0.2,0-0.2c0-0.2,0-0.3-0.1-0.3
													c-0.1-0.1-0.1-0.1-0.3-0.1c-0.1,0-0.2,0-0.3,0.1c-0.1,0.1-0.2,0.2-0.4,0.3c-0.1,0.2-0.2,0.3-0.3,0.4
													c-0.1,0.1-0.1,0.3-0.2,0.5l-0.3,1.5h-0.6l0.9-3.8c0.1-0.2,0.1-0.4,0.1-0.5c0-0.1,0-0.2-0.1-0.2c-0.1,0-0.2-0.1-0.3-0.1
													l0-0.2L173.8,24.6L173.8,24.6z"/>
												<g class="st24">
													<defs>
														<polygon id="SVGID_23_" points="0.7,189.4 197.3,189.4 199.3,13.6 2.7,13.6 2.7,192.4 														"/>
													</defs>
													<clipPath id="SVGID_24_">
														<use xlink:href="#SVGID_23_"  style="overflow:visible;"/>
													</clipPath>
													<path class="st25" d="M179.6,26.4c-0.2,0-0.4,0.1-0.6,0.3c-0.2,0.2-0.3,0.5-0.4,0.8c-0.1,0.4-0.1,0.7-0.1,0.9
														c0,0.2,0.1,0.4,0.2,0.5c0.1,0.1,0.3,0.2,0.5,0.2c0.2,0,0.4-0.1,0.6-0.3s0.3-0.5,0.4-0.8c0.1-0.4,0.1-0.7,0.1-0.9
														c0-0.2,0-0.4-0.1-0.5C179.9,26.4,179.8,26.4,179.6,26.4L179.6,26.4z M179.6,26.1c0.4,0,0.6,0.1,0.8,0.3
														c0.2,0.2,0.3,0.5,0.3,0.8c0,0.3,0,0.5-0.1,0.8c-0.1,0.3-0.2,0.5-0.4,0.7s-0.3,0.4-0.6,0.5s-0.5,0.2-0.8,0.2
														c-0.3,0-0.6-0.1-0.8-0.3c-0.2-0.2-0.3-0.5-0.3-0.8c0-0.2,0-0.4,0.1-0.6c0.1-0.3,0.2-0.6,0.3-0.8
														c0.2-0.2,0.4-0.4,0.6-0.5C179.1,26.2,179.4,26.1,179.6,26.1L179.6,26.1z M184.3,24.5c0.2,0,0.4,0,0.6,0.1l-0.1,0.6
														h-0.3c0-0.1-0.1-0.2-0.1-0.3s-0.1-0.1-0.2-0.1c-0.1,0-0.2,0-0.3,0.1c-0.1,0.1-0.2,0.2-0.2,0.3
														c-0.1,0.1-0.1,0.3-0.2,0.6l-0.1,0.4h0.9l-0.1,0.3h-0.9l-0.6,2.9c-0.1,0.5-0.3,0.8-0.5,1.1c-0.2,0.2-0.5,0.4-0.8,0.4
														c-0.1,0-0.2,0-0.2,0l0.1-0.3c0,0,0.1,0,0.2,0c0.1,0,0.2,0,0.3-0.1c0.1-0.1,0.1-0.1,0.2-0.3s0.1-0.3,0.2-0.5l0.7-3.2
														h-0.6l0.1-0.2c0.2,0,0.3,0,0.3,0c0.1,0,0.1,0,0.2-0.1s0.1-0.1,0.1-0.1c0-0.1,0.1-0.1,0.1-0.3c0.1-0.4,0.3-0.7,0.5-0.9
														S183.9,24.5,184.3,24.5L184.3,24.5z"/>
													<g class="st26">
														<defs>
															<polygon id="SVGID_25_" points="0.7,189.4 197.3,189.4 199.3,13.6 2.7,13.6 2.7,192.4 															"/>
														</defs>
														<clipPath id="SVGID_26_">
															<use xlink:href="#SVGID_25_"  style="overflow:visible;"/>
														</clipPath>
														<path class="st27" d="M153,34.1c0.1,0,0.2,0,0.2,0c0,0,0.1,0,0.1,0.1c0,0,0.1,0.1,0.1,0.2c0,0.1,0.1,0.2,0.1,0.2
															c0,0.1,0.1,0.2,0.1,0.4c0.1,0.3,0.1,0.6,0.2,0.9s0.1,0.6,0.1,0.9c0.2-0.3,0.4-0.6,0.6-0.9c0.2-0.3,0.3-0.6,0.3-0.8
															c0.1-0.2,0.1-0.4,0.1-0.5c0-0.1,0-0.2-0.1-0.2c0,0-0.1-0.1-0.2-0.1l0-0.2h0.9l0.1,0.2c-0.2,0.5-0.4,1-0.7,1.5
															c-0.3,0.5-0.6,1-1,1.6c-0.4,0.5-0.6,0.8-0.9,1.1c-0.2,0.2-0.3,0.3-0.5,0.3c-0.1,0-0.2,0.1-0.4,0.1c0,0-0.1,0-0.2,0
															c-0.1,0-0.1,0-0.1,0l0.1-0.7h0.3c0,0.1,0,0.2,0.1,0.2c0.1,0,0.3-0.1,0.5-0.2c0.2-0.2,0.4-0.4,0.6-0.7
															c-0.1-0.4-0.2-0.9-0.3-1.4c-0.1-0.6-0.2-1-0.2-1.1c0-0.2-0.1-0.3-0.1-0.3c0,0-0.1,0-0.1,0c-0.1,0-0.1,0-0.2,0.1
															c-0.1,0.1-0.1,0.2-0.2,0.3l-0.2-0.1c0.2-0.2,0.3-0.4,0.4-0.5C152.7,34.2,152.9,34.1,153,34.1L153,34.1z"/>
														<g class="st28">
															<defs>
																<polygon id="SVGID_27_" points="0.7,189.4 197.3,189.4 199.3,13.6 2.7,13.6 2.7,192.4 																"/>
															</defs>
															<clipPath id="SVGID_28_">
																<use xlink:href="#SVGID_27_"  style="overflow:visible;"/>
															</clipPath>
															<path class="st29" d="M158.4,35.9h4.1v0.4h-4.1V35.9L158.4,35.9z M158.4,34.5h4.1v0.4h-4.1V34.5L158.4,34.5z"/>
															<g class="st30">
																<defs>
																	<polygon id="SVGID_29_" points="0.7,189.4 197.3,189.4 199.3,13.6 2.7,13.6 2.7,192.4 																	"/>
																</defs>
																<clipPath id="SVGID_30_">
																	<use xlink:href="#SVGID_29_"  style="overflow:visible;"/>
																</clipPath>
																<path class="st31" d="M168.1,32.6c0.2,0,0.4,0,0.6,0.1l-0.1,0.6h-0.3c0-0.1-0.1-0.2-0.1-0.3
																	c-0.1-0.1-0.1-0.1-0.2-0.1c-0.1,0-0.2,0-0.3,0.1c-0.1,0.1-0.2,0.2-0.2,0.3c-0.1,0.1-0.1,0.3-0.2,0.6l-0.1,0.4h0.9
																	l-0.1,0.3H167l-0.6,2.9c-0.1,0.5-0.3,0.8-0.5,1.1c-0.2,0.2-0.5,0.4-0.8,0.4c-0.1,0-0.2,0-0.2,0l0.1-0.3
																	c0,0,0.1,0,0.2,0c0.1,0,0.2,0,0.3-0.1c0.1-0.1,0.1-0.1,0.2-0.3c0.1-0.1,0.1-0.3,0.2-0.5l0.7-3.2h-0.6l0.1-0.2
																	c0.2,0,0.3,0,0.3,0c0.1,0,0.1,0,0.2-0.1c0,0,0.1-0.1,0.1-0.1c0-0.1,0.1-0.1,0.1-0.3c0.1-0.4,0.3-0.7,0.5-0.9
																	C167.4,32.7,167.7,32.6,168.1,32.6L168.1,32.6z"/>
																<g class="st32">
																	<defs>
																		<polygon id="SVGID_31_" points="0.7,189.4 197.3,189.4 199.3,13.6 2.7,13.6 2.7,192.4 																		"/>
																	</defs>
																	<clipPath id="SVGID_32_">
																		<use xlink:href="#SVGID_31_"  style="overflow:visible;"/>
																	</clipPath>
																	<path class="st33" d="M171.5,32.5l0.1,0.3c-0.5,0.2-0.9,0.5-1.2,1c-0.3,0.5-0.4,1.1-0.4,1.9c0,0.8,0.1,1.4,0.4,1.9
																		c0.3,0.5,0.6,0.8,1.2,1l-0.1,0.3c-0.7-0.2-1.2-0.5-1.5-1.1c-0.3-0.6-0.5-1.3-0.5-2.1c0-0.8,0.2-1.5,0.5-2.1
																		C170.4,33.1,170.9,32.7,171.5,32.5L171.5,32.5z"/>
																	<g class="st34">
																		<defs>
																			<polygon id="SVGID_33_" points="0.7,189.4 197.3,189.4 199.3,13.6 2.7,13.6 2.7,192.4 																			"/>
																		</defs>
																		<clipPath id="SVGID_34_">
																			<use xlink:href="#SVGID_33_"  style="overflow:visible;"/>
																		</clipPath>
																		<path class="st35" d="M173.1,34.1c0.1,0,0.1,0,0.2,0c0.1,0,0.1,0,0.1,0.1c0,0,0.1,0.1,0.1,0.1s0.1,0.1,0.1,0.2
																			c0,0.1,0.1,0.2,0.1,0.3c0,0.1,0,0.3,0.1,0.4h0c0.2-0.3,0.4-0.5,0.5-0.7c0.1-0.1,0.2-0.2,0.3-0.3
																			c0.1-0.1,0.1-0.1,0.2-0.1c0.1,0,0.2,0,0.3,0c0.1,0,0.2,0,0.3,0l-0.1,0.6h-0.2c0-0.1-0.1-0.1-0.1-0.1
																			c0,0,0,0-0.1,0s0,0-0.1,0c0,0-0.1,0.1-0.1,0.1c-0.1,0.1-0.1,0.1-0.2,0.2c-0.1,0.1-0.2,0.2-0.2,0.3l-0.2,0.3
																			c0,0.2,0.1,0.4,0.1,0.6c0,0.2,0.1,0.3,0.1,0.4c0,0.1,0.1,0.2,0.1,0.2s0,0.1,0.1,0.1s0,0.1,0.1,0.1s0.1,0,0.1,0
																			c0.1,0,0.1,0,0.2-0.1c0.1,0,0.1-0.2,0.2-0.3l0.2,0.1c-0.2,0.2-0.3,0.4-0.4,0.5c-0.1,0.1-0.3,0.1-0.5,0.1
																			c-0.1,0-0.2,0-0.2-0.1c-0.1,0-0.1-0.1-0.2-0.2c0-0.1-0.1-0.2-0.1-0.4c-0.1-0.3-0.1-0.5-0.1-0.7h0
																			c-0.2,0.3-0.4,0.6-0.5,0.7c-0.1,0.1-0.2,0.3-0.3,0.3c-0.1,0.1-0.1,0.1-0.2,0.1c-0.1,0-0.2,0-0.3,0
																			c-0.1,0-0.2,0-0.3,0l0.1-0.6h0.2c0,0.1,0.1,0.1,0.1,0.1c0,0,0.1,0,0.1,0c0,0,0.1-0.1,0.1-0.1
																			c0.1-0.1,0.2-0.2,0.3-0.3s0.3-0.3,0.5-0.6c0-0.2-0.1-0.3-0.1-0.5s-0.1-0.3-0.1-0.5s-0.1-0.2-0.1-0.3
																			c0,0-0.1-0.1-0.1-0.1s-0.1,0-0.1,0c0,0-0.1,0-0.1,0c0,0-0.1,0.1-0.1,0.1s-0.1,0.1-0.2,0.2l-0.2-0.1
																			c0.1-0.2,0.3-0.4,0.4-0.5C172.8,34.2,172.9,34.1,173.1,34.1L173.1,34.1z"/>
																		<g class="st36">
																			<defs>
																				<polygon id="SVGID_35_" points="0.7,189.4 197.3,189.4 199.3,13.6 2.7,13.6 2.7,192.4 																				"/>
																			</defs>
																			<clipPath id="SVGID_36_">
																				<use xlink:href="#SVGID_35_"  style="overflow:visible;"/>
																			</clipPath>
																			<path class="st37" d="M175.9,32.5c0.7,0.2,1.2,0.5,1.5,1.1c0.4,0.6,0.5,1.3,0.5,2.1c0,0.8-0.2,1.5-0.5,2.1
																				c-0.3,0.6-0.9,0.9-1.5,1.1l-0.1-0.3c0.5-0.2,0.9-0.5,1.2-1s0.4-1.2,0.4-1.9c0-0.8-0.1-1.4-0.4-1.9
																				s-0.6-0.8-1.2-1L175.9,32.5z"/>
																		</g>
																	</g>
																</g>
															</g>
														</g>
													</g>
												</g>
											</g>
										</g>
									</g>
								</g>
							</g>
						</g>
					</g>
				</g>
			</g>
		</g>
	</g>
</g>
</svg>
