<?xml version="1.0" encoding="utf-8"?>
<!-- Generator: Adobe Illustrator 23.0.2, SVG Export Plug-In . SVG Version: 6.00 Build 0)  -->
<svg version="1.0" id="Layer_1" xmlns="http://www.w3.org/2000/svg" xmlns:xlink="http://www.w3.org/1999/xlink" x="0px" y="0px"
	 viewBox="0 0 96 23" style="enable-background:new 0 0 96 23;" xml:space="preserve">
<rect x="2" y="1.5" style="fill:none;stroke:#00624C;stroke-width:0.5231;stroke-miterlimit:10;" width="92.5" height="20"/>
<g>
	<path style="fill-rule:evenodd;clip-rule:evenodd;fill:#00624C;" d="M55.1,8.5c-0.2,0-0.4,0.1-0.6,0.3c-0.2,0.2-0.3,0.5-0.4,0.8
		C54,9.9,54,10.2,54,10.5c0,0.2,0,0.4,0.1,0.5c0.1,0.1,0.2,0.2,0.4,0.2c0.2,0,0.4-0.1,0.6-0.3c0.2-0.2,0.3-0.5,0.4-0.8
		c0.1-0.3,0.1-0.6,0.1-0.9c0-0.2,0-0.4-0.1-0.5S55.3,8.5,55.1,8.5L55.1,8.5z M46.8,8.5c-0.2,0-0.4,0.1-0.6,0.3s-0.3,0.4-0.4,0.7
		c-0.1,0.3-0.1,0.6-0.1,0.9c0,0.2,0,0.4,0.1,0.5C45.8,11,45.9,11,46,11c0.1,0,0.3-0.1,0.4-0.2c0.1-0.1,0.3-0.3,0.4-0.5
		s0.2-0.5,0.3-0.8l0-0.1c0-0.1,0-0.2,0-0.2c0-0.1,0-0.1,0-0.2c0-0.2,0-0.3-0.1-0.4S47,8.5,46.8,8.5L46.8,8.5z M35.1,8.5
		c-0.2,0-0.4,0.1-0.6,0.3C34.3,9,34.1,9.3,34,9.7c0.3,0,0.6,0,0.8-0.1c0.2-0.1,0.4-0.1,0.5-0.2c0.1-0.1,0.2-0.3,0.2-0.5
		c0-0.1,0-0.2-0.1-0.3C35.3,8.5,35.2,8.5,35.1,8.5L35.1,8.5z M28.7,8.5c-0.2,0-0.4,0.1-0.6,0.3s-0.4,0.5-0.5,0.9
		c0.3,0,0.6,0,0.8-0.1c0.2-0.1,0.4-0.1,0.5-0.2s0.2-0.3,0.2-0.5c0-0.1,0-0.2-0.1-0.3C28.9,8.5,28.8,8.5,28.7,8.5L28.7,8.5z
		 M52.3,8.3h0.2L52,10.3c0,0.2-0.1,0.4-0.1,0.5c0,0.1,0,0.1,0,0.2c0,0,0.1,0.1,0.1,0.1c0.1,0,0.1,0,0.2-0.1c0.1-0.1,0.2-0.2,0.3-0.3
		l0.2,0.2c-0.2,0.2-0.4,0.4-0.5,0.4c-0.1,0.1-0.3,0.1-0.4,0.1c-0.1,0-0.2-0.1-0.3-0.2c-0.1-0.1-0.1-0.2-0.1-0.4c0-0.2,0-0.4,0.1-0.6
		l0.2-1c0-0.2,0.1-0.4,0.1-0.5c0-0.1,0-0.2-0.1-0.2c0,0-0.1-0.1-0.3-0.1l0-0.2L52.3,8.3L52.3,8.3z M44,8.3h0.2l-0.5,2.1
		c0,0.2-0.1,0.4-0.1,0.5c0,0.1,0,0.1,0,0.2c0,0,0.1,0.1,0.1,0.1c0.1,0,0.1,0,0.2-0.1c0.1-0.1,0.2-0.2,0.3-0.3l0.2,0.2
		c-0.2,0.2-0.4,0.4-0.5,0.4c-0.1,0.1-0.3,0.1-0.4,0.1c-0.1,0-0.2-0.1-0.3-0.2c-0.1-0.1-0.1-0.2-0.1-0.4c0-0.2,0-0.4,0.1-0.6l0.2-1
		c0-0.2,0.1-0.4,0.1-0.5c0-0.1,0-0.2-0.1-0.2c0,0-0.1-0.1-0.3-0.1l0-0.2L44,8.3L44,8.3z M18.7,8.3h0.2l-0.5,2.1
		c0,0.2-0.1,0.4-0.1,0.5c0,0.1,0,0.1,0,0.2s0.1,0.1,0.1,0.1c0.1,0,0.1,0,0.2-0.1c0.1-0.1,0.2-0.2,0.3-0.3l0.2,0.2
		c-0.2,0.2-0.4,0.4-0.5,0.4c-0.1,0.1-0.3,0.1-0.4,0.1c-0.1,0-0.2-0.1-0.3-0.2c-0.1-0.1-0.1-0.2-0.1-0.4c0-0.2,0-0.4,0.1-0.6l0.2-1
		c0-0.2,0.1-0.4,0.1-0.5c0-0.1,0-0.2-0.1-0.2c0,0-0.1-0.1-0.3-0.1l0-0.2L18.7,8.3L18.7,8.3z M55.1,8.2c0.3,0,0.6,0.1,0.8,0.3
		c0.2,0.2,0.3,0.5,0.3,0.8c0,0.2,0,0.5-0.1,0.8c-0.1,0.3-0.2,0.5-0.4,0.7s-0.3,0.3-0.5,0.4c-0.2,0.1-0.4,0.1-0.7,0.1
		c-0.3,0-0.6-0.1-0.8-0.3c-0.2-0.2-0.3-0.5-0.3-0.8c0-0.2,0-0.4,0.1-0.6c0.1-0.3,0.2-0.6,0.3-0.8c0.2-0.2,0.3-0.4,0.6-0.5
		C54.6,8.3,54.9,8.2,55.1,8.2L55.1,8.2z M57.5,8.2c0.1,0,0.2,0,0.3,0.1C57.9,8.5,58,8.6,58,8.7c0,0.1,0,0.2-0.1,0.4l0,0
		c0.2-0.3,0.4-0.5,0.6-0.7c0.2-0.1,0.4-0.2,0.6-0.2c0.2,0,0.4,0.1,0.5,0.2c0.1,0.1,0.2,0.3,0.2,0.5c0,0.1,0,0.3-0.1,0.6l-0.2,0.8
		c-0.1,0.2-0.1,0.4-0.1,0.5c0,0.1,0,0.1,0,0.2c0,0,0.1,0.1,0.1,0.1c0.1,0,0.1,0,0.2-0.1c0.1-0.1,0.2-0.2,0.3-0.3l0.2,0.2
		c-0.2,0.2-0.3,0.3-0.5,0.4c-0.1,0.1-0.3,0.1-0.5,0.1c-0.1,0-0.2,0-0.3-0.1s-0.1-0.2-0.1-0.4c0-0.1,0-0.3,0.1-0.6l0.1-0.6
		c0.1-0.2,0.1-0.3,0.1-0.4s0-0.2,0-0.2c0-0.1,0-0.3-0.1-0.3c0-0.1-0.1-0.1-0.2-0.1c-0.1,0-0.2,0-0.3,0.1c-0.1,0.1-0.2,0.2-0.3,0.3
		C58.1,9.2,58,9.3,58,9.5s-0.1,0.3-0.2,0.5l-0.3,1.4h-0.6l0.5-2c0-0.2,0.1-0.4,0.1-0.5c0-0.1,0-0.1,0-0.2c0,0-0.1-0.1-0.1-0.1
		c-0.1,0-0.1,0-0.2,0.1S56.9,8.8,56.8,9l-0.2-0.2c0.2-0.2,0.4-0.4,0.5-0.4C57.2,8.3,57.4,8.2,57.5,8.2L57.5,8.2z M46.7,8.2
		c0.1,0,0.3,0,0.4,0c0.1,0,0.2,0.1,0.4,0.2l0.3-0.2L48,8.3l-0.5,2c0,0.2-0.1,0.4-0.1,0.5c0,0.1,0,0.1,0,0.2c0,0,0.1,0.1,0.1,0.1
		c0.1,0,0.1,0,0.2-0.1c0.1-0.1,0.2-0.2,0.3-0.3l0.2,0.2c-0.2,0.2-0.4,0.4-0.5,0.4c-0.1,0.1-0.3,0.1-0.4,0.1c-0.1,0-0.2,0-0.3-0.1
		c-0.1-0.1-0.1-0.2-0.1-0.3c0-0.1,0-0.2,0.1-0.4l0,0c-0.2,0.3-0.4,0.5-0.6,0.7c-0.2,0.1-0.4,0.2-0.6,0.2c-0.2,0-0.4-0.1-0.5-0.3
		c-0.1-0.2-0.2-0.4-0.2-0.7c0-0.4,0.1-0.7,0.2-1.1c0.1-0.3,0.3-0.6,0.6-0.8S46.4,8.2,46.7,8.2L46.7,8.2z M37.3,8.2
		c0.1,0,0.2,0,0.3,0.1c0.1,0.1,0.1,0.2,0.1,0.3c0,0.1,0,0.2-0.1,0.4l0,0c0.2-0.3,0.4-0.5,0.6-0.7c0.2-0.1,0.4-0.2,0.6-0.2
		c0.2,0,0.4,0.1,0.5,0.2c0.1,0.1,0.2,0.3,0.2,0.5c0,0.1,0,0.3-0.1,0.6l-0.2,0.8c-0.1,0.2-0.1,0.4-0.1,0.5c0,0.1,0,0.1,0,0.2
		c0,0,0.1,0.1,0.1,0.1c0.1,0,0.1,0,0.2-0.1c0.1-0.1,0.2-0.2,0.3-0.3l0.2,0.2c-0.2,0.2-0.3,0.3-0.5,0.4c-0.1,0.1-0.3,0.1-0.5,0.1
		c-0.1,0-0.2,0-0.3-0.1s-0.1-0.2-0.1-0.4c0-0.1,0-0.3,0.1-0.6l0.1-0.6c0.1-0.2,0.1-0.3,0.1-0.4s0-0.2,0-0.2c0-0.1,0-0.3-0.1-0.3
		c0-0.1-0.1-0.1-0.2-0.1c-0.1,0-0.2,0-0.3,0.1C38.2,8.8,38.1,8.9,38,9c-0.1,0.1-0.2,0.3-0.3,0.4c-0.1,0.1-0.1,0.3-0.2,0.5l-0.3,1.4
		h-0.6l0.5-2c0-0.2,0.1-0.4,0.1-0.5c0-0.1,0-0.1,0-0.2c0,0-0.1-0.1-0.1-0.1c-0.1,0-0.1,0-0.2,0.1S36.7,8.8,36.5,9l-0.2-0.2
		c0.2-0.2,0.4-0.4,0.5-0.4C37,8.3,37.1,8.2,37.3,8.2L37.3,8.2z M35.2,8.2c0.3,0,0.5,0.1,0.6,0.2C35.9,8.5,36,8.7,36,8.9
		c0,0.4-0.2,0.6-0.5,0.8C35.1,9.9,34.6,10,34,10c0,0.1,0,0.3,0,0.4c0,0.2,0,0.4,0.1,0.5c0.1,0.1,0.2,0.2,0.4,0.2
		c0.2,0,0.4,0,0.5-0.1c0.2-0.1,0.3-0.2,0.5-0.4l0.2,0.2c-0.2,0.2-0.4,0.4-0.6,0.5s-0.5,0.2-0.7,0.2c-0.3,0-0.5-0.1-0.7-0.3
		c-0.2-0.2-0.3-0.5-0.3-0.8c0-0.2,0-0.5,0.1-0.7c0.1-0.3,0.2-0.5,0.4-0.7s0.4-0.4,0.6-0.5S34.9,8.2,35.2,8.2L35.2,8.2z M30.9,8.2
		c0.1,0,0.2,0,0.3,0.1c0.1,0.1,0.1,0.2,0.1,0.3c0,0.1,0,0.2-0.1,0.3l0,0c0.2-0.3,0.4-0.5,0.6-0.6c0.2-0.1,0.4-0.2,0.6-0.2
		c0.2,0,0.3,0,0.4,0L32.8,9h-0.3c0-0.1,0-0.2-0.1-0.2c0,0-0.1-0.1-0.1-0.1s-0.1,0-0.1,0c-0.1,0-0.2,0-0.3,0.1
		c-0.1,0.1-0.2,0.2-0.3,0.3c-0.1,0.1-0.2,0.3-0.3,0.4c-0.1,0.1-0.1,0.3-0.2,0.5l-0.3,1.4h-0.6l0.5-2c0-0.1,0-0.2,0.1-0.3
		c0-0.1,0-0.1,0-0.2c0-0.1,0-0.1,0-0.2c0,0-0.1-0.1-0.1-0.1c-0.1,0-0.1,0-0.2,0.1S30.3,8.8,30.2,9L30,8.8c0.2-0.2,0.4-0.4,0.5-0.4
		C30.6,8.3,30.8,8.2,30.9,8.2L30.9,8.2z M28.8,8.2c0.3,0,0.5,0.1,0.6,0.2c0.1,0.1,0.2,0.3,0.2,0.5c0,0.4-0.2,0.6-0.5,0.8
		c-0.3,0.2-0.8,0.3-1.5,0.3c0,0.1,0,0.3,0,0.4c0,0.2,0,0.4,0.1,0.5c0.1,0.1,0.2,0.2,0.4,0.2c0.2,0,0.4,0,0.5-0.1
		c0.2-0.1,0.3-0.2,0.5-0.4l0.2,0.2c-0.2,0.2-0.4,0.4-0.6,0.5c-0.2,0.1-0.5,0.2-0.7,0.2c-0.3,0-0.5-0.1-0.7-0.3
		c-0.2-0.2-0.3-0.5-0.3-0.8c0-0.2,0-0.5,0.1-0.7c0.1-0.3,0.2-0.5,0.4-0.7c0.2-0.2,0.4-0.4,0.6-0.5C28.3,8.3,28.6,8.2,28.8,8.2
		L28.8,8.2z M49.6,7.5h0.4l-0.2,0.8h1l-0.1,0.3h-1l-0.3,1.2c-0.1,0.2-0.1,0.4-0.1,0.5c0,0.1,0,0.2,0,0.3c0,0.3,0.1,0.4,0.3,0.4
		c0.1,0,0.2,0,0.3-0.1c0.1-0.1,0.2-0.2,0.4-0.4l0.2,0.2c-0.2,0.2-0.4,0.4-0.5,0.5c-0.2,0.1-0.4,0.2-0.5,0.2c-0.4,0-0.7-0.2-0.7-0.7
		c0-0.1,0-0.3,0.1-0.5l0.4-1.7h-0.5l0-0.2c0.1,0,0.2,0,0.3,0c0.1,0,0.1,0,0.2-0.1c0,0,0.1-0.1,0.1-0.1c0-0.1,0.1-0.1,0.1-0.2
		C49.5,7.9,49.6,7.7,49.6,7.5L49.6,7.5z M41.3,7.5h0.4l-0.2,0.8h1l-0.1,0.3h-1l-0.3,1.2c-0.1,0.2-0.1,0.4-0.1,0.5c0,0.1,0,0.2,0,0.3
		c0,0.3,0.1,0.4,0.3,0.4c0.1,0,0.2,0,0.3-0.1c0.1-0.1,0.2-0.2,0.4-0.4l0.2,0.2c-0.2,0.2-0.4,0.4-0.5,0.5c-0.2,0.1-0.4,0.2-0.5,0.2
		c-0.4,0-0.7-0.2-0.7-0.7c0-0.1,0-0.3,0.1-0.5L41,8.6h-0.5l0-0.2c0.1,0,0.2,0,0.3,0c0.1,0,0.1,0,0.2-0.1c0,0,0.1-0.1,0.1-0.1
		c0-0.1,0.1-0.1,0.1-0.2C41.2,7.9,41.2,7.7,41.3,7.5L41.3,7.5z M15.1,7.3c-0.1,0-0.2,0-0.3,0l-0.8,3.8c0.1,0,0.2,0,0.4,0
		c0.3,0,0.6-0.1,0.9-0.2c0.2-0.1,0.4-0.3,0.6-0.6c0.2-0.3,0.3-0.5,0.4-0.8s0.1-0.6,0.1-0.9c0-0.4-0.1-0.8-0.3-1
		C15.8,7.4,15.5,7.3,15.1,7.3L15.1,7.3z M52.2,7h0.6l-0.1,0.6h-0.6L52.2,7L52.2,7z M43.9,7h0.6l-0.1,0.6h-0.6L43.9,7L43.9,7z
		 M18.6,7h0.6L19,7.7h-0.6L18.6,7L18.6,7z M13.8,7h1.2c0.3,0,0.6,0,0.8,0.1c0.2,0,0.4,0.1,0.6,0.3c0.2,0.1,0.3,0.3,0.4,0.5
		c0.1,0.2,0.1,0.5,0.1,0.8c0,0.3,0,0.6-0.1,0.8c-0.1,0.3-0.2,0.5-0.3,0.7c-0.1,0.2-0.3,0.4-0.4,0.6c-0.2,0.2-0.3,0.3-0.5,0.4
		c-0.2,0.1-0.3,0.2-0.5,0.2c-0.2,0-0.4,0.1-0.7,0.1H13l0-0.2c0.1,0,0.1,0,0.2-0.1c0,0,0.1-0.1,0.1-0.1c0-0.1,0.1-0.1,0.1-0.2
		c0-0.1,0.1-0.2,0.1-0.4L14,7.9c0-0.2,0.1-0.4,0.1-0.5c0-0.1,0-0.2-0.1-0.2c-0.1,0-0.1-0.1-0.2-0.1L13.8,7z M26.1,6.7
		c0.2,0,0.4,0,0.5,0.1l-0.1,0.5h-0.3c0-0.1-0.1-0.2-0.1-0.3C26,7,26,7,25.9,7c-0.1,0-0.2,0-0.3,0.1s-0.2,0.2-0.2,0.3
		c-0.1,0.1-0.1,0.3-0.2,0.5l-0.1,0.3h0.8l-0.1,0.3H25l-0.6,2.8c-0.1,0.5-0.2,0.8-0.5,1s-0.5,0.3-0.8,0.3c-0.1,0-0.2,0-0.2,0l0.1-0.3
		c0,0,0.1,0,0.2,0c0.1,0,0.2,0,0.2-0.1c0.1,0,0.1-0.1,0.2-0.3c0.1-0.1,0.1-0.3,0.2-0.5l0.7-3H24l0-0.2c0.1,0,0.2,0,0.3,0
		c0.1,0,0.1,0,0.1-0.1c0,0,0.1-0.1,0.1-0.1c0,0,0.1-0.1,0.1-0.3c0.1-0.4,0.3-0.7,0.5-0.9S25.7,6.7,26.1,6.7L26.1,6.7z M22.5,6.7
		c0.2,0,0.4,0,0.5,0.1l-0.1,0.5h-0.3c0-0.1-0.1-0.2-0.1-0.3C22.4,7,22.4,7,22.3,7c-0.1,0-0.2,0-0.3,0.1c-0.1,0.1-0.2,0.2-0.2,0.3
		s-0.1,0.3-0.2,0.5l-0.1,0.3h0.8l-0.1,0.3h-0.8l-0.6,2.8c-0.1,0.5-0.2,0.8-0.5,1c-0.2,0.2-0.5,0.3-0.8,0.3c-0.1,0-0.2,0-0.2,0
		l0.1-0.3c0,0,0.1,0,0.2,0c0.1,0,0.2,0,0.2-0.1c0.1,0,0.1-0.1,0.2-0.3c0.1-0.1,0.1-0.3,0.2-0.5l0.7-3h-0.5l0-0.2c0.1,0,0.2,0,0.3,0
		s0.1,0,0.1-0.1c0,0,0.1-0.1,0.1-0.1C21,8.1,21,8,21,7.9c0.1-0.4,0.3-0.7,0.5-0.9C21.8,6.8,22.1,6.7,22.5,6.7L22.5,6.7z"/>
	<path style="fill-rule:evenodd;clip-rule:evenodd;fill:#00624C;" d="M28.7,13.7l0.1,0.1c-0.3,0.1-0.5,0.3-0.7,0.6
		c-0.1,0.3-0.2,0.6-0.2,1.1c0,0.4,0.1,0.8,0.2,1.1c0.1,0.3,0.4,0.5,0.7,0.6l0,0.1c-0.4-0.1-0.7-0.3-0.9-0.6
		c-0.2-0.3-0.3-0.7-0.3-1.2c0-0.5,0.1-0.8,0.3-1.2C28.1,14,28.3,13.8,28.7,13.7L28.7,13.7z"/>
	<path style="fill-rule:evenodd;clip-rule:evenodd;fill:#00624C;" d="M40.5,15.4c-0.1,0-0.1,0-0.2,0s-0.1,0-0.2,0
		c-0.1,0.1-0.1,0.2-0.2,0.4c-0.1,0.2-0.2,0.3-0.2,0.3c0.1,0,0.3,0.1,0.5,0.1c0.2,0,0.4,0,0.5,0c0.1,0,0.2-0.1,0.2-0.1
		c0-0.1,0.1-0.1,0.1-0.2c0-0.1,0-0.2-0.1-0.3C40.8,15.4,40.7,15.4,40.5,15.4L40.5,15.4z M34.8,15.4c-0.2,0-0.4,0-0.7,0.1
		c-0.1,0.1-0.1,0.2-0.2,0.3c-0.1,0.1-0.1,0.2-0.2,0.4c0.1,0,0.1,0,0.1,0c0,0,0.1,0,0.1,0c0,0,0.1,0,0.2,0c0.1,0,0.2,0,0.3-0.1
		c0.1-0.1,0.1-0.2,0.1-0.4h0.1c0,0.2,0,0.3,0.1,0.4c0.1,0.1,0.1,0.1,0.2,0.1c0.1,0,0.2,0,0.2-0.1c0.1-0.1,0.1-0.1,0.1-0.2
		c0-0.1,0-0.2-0.1-0.3C35.1,15.4,35,15.4,34.8,15.4L34.8,15.4z M29.8,15.4c-0.1,0-0.2,0-0.3,0.1c-0.1,0-0.1,0.1-0.1,0.1
		c0,0.1,0,0.1,0,0.2c0,0.2,0.1,0.3,0.2,0.4c0.1,0.1,0.3,0.2,0.5,0.2c0.1,0,0.1,0,0.2,0v-0.9C30.2,15.4,30,15.4,29.8,15.4L29.8,15.4z
		 M44.3,15.1c-0.1,0-0.2,0-0.2,0.1c-0.1,0-0.1,0.1-0.1,0.1c0.3,0,0.4,0,0.5,0c0,0,0,0,0-0.1c0,0,0-0.1-0.1-0.1
		C44.4,15.1,44.3,15.1,44.3,15.1L44.3,15.1z M30.5,15c-0.1,0.1-0.1,0.3-0.1,0.5c0,0,0.1,0,0.1,0s0.1,0,0.1-0.1c0,0,0-0.1,0-0.1
		c0-0.1,0-0.1-0.1-0.2C30.6,15.1,30.5,15,30.5,15L30.5,15z M44.3,14.8c0.1,0,0.2,0,0.2,0.1c0.1,0.1,0.1,0.1,0.1,0.2
		c0,0.1,0,0.2-0.1,0.3c0.1,0,0.1,0.1,0.2,0.2s0.1,0.2,0.1,0.3c0,0.2-0.1,0.3-0.2,0.5c-0.1,0.1-0.3,0.2-0.4,0.2c-0.1,0-0.2,0-0.3-0.1
		c-0.1,0-0.1-0.1-0.2-0.2c-0.1,0.1-0.1,0.2-0.2,0.2c-0.1,0-0.2,0.1-0.3,0.1c-0.2,0-0.3-0.1-0.4-0.2c-0.1-0.1-0.2-0.3-0.2-0.5
		c0-0.2,0.1-0.4,0.2-0.6c0.1-0.1,0.3-0.2,0.6-0.2v0.1c-0.2,0-0.3,0.1-0.4,0.2c-0.1,0.1-0.2,0.3-0.2,0.4c0,0.1,0,0.2,0.1,0.3
		s0.2,0.1,0.3,0.1c0.1,0,0.2,0,0.3-0.1c0.1-0.1,0.1-0.2,0.1-0.4h0.1c0,0.2,0,0.3,0.1,0.4c0.1,0.1,0.2,0.1,0.3,0.1
		c0.1,0,0.2,0,0.3-0.1c0.1-0.1,0.1-0.2,0.1-0.3c0-0.1,0-0.2-0.1-0.3c-0.1-0.1-0.2-0.1-0.3-0.1h-0.4c0-0.2,0.1-0.4,0.1-0.5
		C44,14.8,44.2,14.8,44.3,14.8L44.3,14.8z M39.9,14.8c0.2,0,0.4,0.1,0.4,0.4c0.1-0.1,0.3-0.2,0.5-0.3c0.2-0.1,0.3-0.1,0.5-0.1
		c0.3,0,0.5,0.1,0.7,0.3c0.2,0.2,0.3,0.4,0.3,0.7c0,0.2,0,0.4-0.1,0.5c-0.1,0.1-0.2,0.2-0.3,0.2c-0.1,0-0.2,0-0.3-0.1l0.1-0.1
		c0.1,0.1,0.1,0.1,0.2,0.1c0.1,0,0.1,0,0.2-0.1c0.1-0.1,0.1-0.2,0.1-0.3c0-0.1,0-0.3-0.1-0.4s-0.2-0.3-0.4-0.4
		c-0.1-0.1-0.3-0.1-0.5-0.1c-0.1,0-0.3,0-0.4,0.1c-0.1,0-0.3,0.1-0.4,0.2c0.1,0,0.1,0,0.2,0c0.2,0,0.3,0.1,0.4,0.2
		c0.1,0.1,0.2,0.2,0.2,0.4c0,0.2-0.1,0.4-0.3,0.5c-0.2,0.1-0.4,0.2-0.6,0.2c-0.2,0-0.4,0-0.6-0.1c-0.2-0.1-0.3-0.2-0.3-0.3l0.1-0.1
		c0,0.1,0.1,0.1,0.1,0.1c0,0,0.1,0,0.1-0.1c0-0.1,0.1-0.1,0.2-0.2c0.1-0.2,0.3-0.4,0.3-0.5c0-0.1,0-0.2-0.1-0.2
		c0-0.1-0.1-0.1-0.1-0.1c-0.1,0-0.1,0.1-0.2,0.2c0,0.1,0,0.1-0.1,0.1c0,0,0,0-0.1,0.1c0,0-0.1,0-0.1,0c0,0-0.1,0-0.1,0
		c0,0,0-0.1,0-0.1c0-0.1,0-0.2,0.1-0.2C39.7,14.8,39.8,14.8,39.9,14.8L39.9,14.8z M38.1,14.8c0.3,0,0.5,0.1,0.7,0.2
		c0.2,0.1,0.2,0.2,0.2,0.4c0,0.1-0.1,0.2-0.2,0.3c-0.1,0.1-0.2,0.1-0.4,0.1c-0.1,0-0.2,0-0.3-0.1c-0.1-0.1-0.1-0.2-0.1-0.3h-0.3
		v-0.1h1v0.1h-0.5c0,0.1,0.1,0.2,0.3,0.2c0.1,0,0.2,0,0.3-0.1c0.1,0,0.1-0.1,0.1-0.2c0-0.1-0.1-0.2-0.2-0.3
		c-0.1-0.1-0.3-0.1-0.6-0.1c-0.3,0-0.5,0.1-0.7,0.2c-0.2,0.2-0.3,0.4-0.3,0.7c0,0.3,0.1,0.6,0.3,0.8s0.5,0.3,0.7,0.3
		c0.3,0,0.5-0.1,0.6-0.2c0.2-0.1,0.2-0.3,0.2-0.6h0.1c0,0.3-0.1,0.5-0.3,0.7s-0.5,0.3-0.8,0.3c-0.3,0-0.5,0-0.7-0.1
		c-0.2-0.1-0.3-0.2-0.4-0.4c-0.1-0.2-0.1-0.4-0.1-0.5c0-0.3,0.1-0.6,0.4-0.9S37.7,14.8,38.1,14.8L38.1,14.8z M34,14.8
		c0.2,0,0.4,0.1,0.4,0.4c0.2-0.1,0.3-0.2,0.5-0.3c0.2-0.1,0.3-0.1,0.5-0.1c0.3,0,0.5,0.1,0.7,0.3c0.2,0.2,0.3,0.4,0.3,0.7
		c0,0.2,0,0.4-0.1,0.5c-0.1,0.1-0.2,0.2-0.3,0.2c-0.1,0-0.2,0-0.3-0.1l0.1-0.1c0.1,0.1,0.1,0.1,0.2,0.1c0.1,0,0.1,0,0.2-0.1
		c0.1-0.1,0.1-0.2,0.1-0.3c0-0.1,0-0.3-0.1-0.4s-0.2-0.3-0.4-0.4c-0.1-0.1-0.3-0.1-0.5-0.1c-0.1,0-0.3,0-0.4,0.1
		c-0.2,0.1-0.3,0.1-0.4,0.2c0.1,0,0.1,0,0.2-0.1c0.1,0,0.2,0,0.2,0c0.2,0,0.4,0.1,0.5,0.2c0.1,0.1,0.2,0.3,0.2,0.5
		c0,0.2,0,0.3-0.1,0.4c-0.1,0.1-0.2,0.1-0.3,0.1c-0.1,0-0.2,0-0.2-0.1c-0.1,0-0.1-0.1-0.2-0.2c0,0.1-0.1,0.2-0.2,0.2
		c-0.1,0-0.2,0.1-0.2,0.1c-0.1,0-0.1,0-0.2,0c0,0-0.1-0.1-0.1-0.1c0,0-0.1-0.1-0.1-0.1c-0.1,0-0.1,0.1-0.1,0.2l-0.1,0
		c0.1-0.3,0.2-0.6,0.3-0.7c0.1-0.2,0.2-0.3,0.4-0.4c0-0.1,0-0.2-0.1-0.2c0,0-0.1-0.1-0.1-0.1c-0.1,0-0.1,0.1-0.2,0.2
		c0,0.1,0,0.1-0.1,0.1c0,0,0,0-0.1,0.1s-0.1,0-0.1,0c0,0-0.1,0-0.1,0c0,0,0-0.1,0-0.1c0-0.1,0-0.2,0.1-0.2
		C33.8,14.8,33.9,14.8,34,14.8L34,14.8z M30.5,14.7L30.5,14.7C30.6,14.7,30.6,14.7,30.5,14.7C30.6,14.8,30.6,14.8,30.5,14.7
		c0.1,0.1,0.1,0.1,0.1,0.2s0.1,0.1,0.1,0.1c0.1,0.1,0.2,0.2,0.2,0.3c0,0.1,0,0.2-0.1,0.2c-0.1,0.1-0.1,0.1-0.2,0.1
		c-0.1,0-0.1,0-0.2,0v0.7c0.2,0,0.3-0.1,0.4-0.2l0.1,0.1c-0.1,0.1-0.3,0.1-0.5,0.2v1h-0.1v-1c-0.1,0-0.2,0-0.4,0
		c-0.3,0-0.5-0.1-0.6-0.2c-0.1-0.1-0.2-0.3-0.2-0.5c0-0.2,0.1-0.3,0.2-0.4c0.1-0.1,0.3-0.2,0.6-0.2H30c0.1,0,0.2,0,0.2,0
		c0-0.1-0.1-0.2-0.1-0.2c-0.1-0.1-0.1-0.1-0.2-0.1c0,0-0.1,0-0.1,0c0,0-0.1,0.1-0.1,0.1c0,0.1-0.1,0.1-0.1,0.1c0,0,0,0-0.1,0
		c0,0-0.1,0-0.1,0c0,0,0-0.1,0-0.1c0-0.1,0-0.1,0.1-0.2c0.1-0.1,0.2-0.1,0.3-0.1c0.1,0,0.2,0,0.4,0.1c0.1,0.1,0.2,0.2,0.2,0.3
		C30.3,15.1,30.4,14.9,30.5,14.7L30.5,14.7z M32.1,14.2c0.3,0,0.5,0.1,0.8,0.3c0.2,0.2,0.3,0.5,0.3,0.9c0,0.4-0.1,0.6-0.3,0.8
		c-0.2,0.2-0.5,0.3-0.8,0.3c-0.3,0-0.5-0.1-0.7-0.2c-0.2-0.1-0.2-0.3-0.2-0.5c0-0.2,0.1-0.3,0.2-0.4c0.1-0.1,0.3-0.2,0.5-0.2h0
		c0-0.1,0-0.2-0.1-0.2c0-0.1-0.1-0.1-0.1-0.1c0,0-0.1,0-0.1,0c0,0-0.1,0.1-0.1,0.1c0,0.1-0.1,0.1-0.1,0.1c0,0-0.1,0-0.1,0
		c0,0-0.1,0-0.1,0c0,0,0-0.1,0-0.1c0-0.1,0-0.1,0.1-0.2c0.1-0.1,0.2-0.1,0.3-0.1c0.1,0,0.2,0.1,0.3,0.2c0.1,0.1,0.1,0.2,0.1,0.4
		c-0.3,0-0.5,0-0.6,0.1c-0.1,0.1-0.1,0.2-0.1,0.3c0,0.2,0.1,0.3,0.2,0.3c0.1,0.1,0.3,0.1,0.5,0.1c0.3,0,0.5-0.1,0.7-0.2
		c0.2-0.1,0.2-0.3,0.2-0.6c0-0.2,0-0.4-0.1-0.6c-0.1-0.2-0.2-0.3-0.3-0.4c-0.1-0.1-0.3-0.1-0.4-0.1c-0.1,0-0.3,0-0.4,0.1
		c-0.1,0.1-0.2,0.2-0.3,0.3l-0.1-0.1c0.1-0.2,0.2-0.3,0.4-0.4C31.8,14.2,32,14.2,32.1,14.2L32.1,14.2z"/>
	<path style="fill-rule:evenodd;clip-rule:evenodd;fill:#00624C;" d="M45.1,13.7c0.4,0.1,0.7,0.3,0.9,0.6c0.2,0.3,0.3,0.7,0.3,1.2
		c0,0.5-0.1,0.8-0.3,1.2c-0.2,0.3-0.5,0.5-0.9,0.6l0-0.1c0.3-0.1,0.5-0.3,0.7-0.6c0.1-0.3,0.2-0.7,0.2-1.1c0-0.4-0.1-0.8-0.2-1.1
		c-0.1-0.3-0.4-0.5-0.7-0.6L45.1,13.7z"/>
</g>
<g>
	<path style="fill-rule:evenodd;clip-rule:evenodd;fill:#00624C;" d="M73.2,5c-0.3,0-0.5,0.1-0.7,0.3c-0.2,0.2-0.4,0.5-0.5,0.8
		c-0.1,0.4-0.2,0.7-0.2,1.1c0,0.3,0,0.5,0.1,0.6C72.1,8,72.2,8,72.4,8c0.1,0,0.2,0,0.2-0.1c0.1,0,0.2-0.1,0.3-0.2
		c0.1-0.1,0.2-0.2,0.3-0.3c0.1-0.1,0.2-0.2,0.2-0.3s0.1-0.2,0.2-0.4c0.1-0.2,0.1-0.3,0.2-0.5l0-0.2c0-0.2,0.1-0.4,0.1-0.5
		c0-0.2,0-0.3-0.1-0.4S73.4,5,73.2,5L73.2,5z M74.8,3H75l-0.9,4.2C74,7.4,74,7.6,74,7.7c0,0.1,0,0.2,0,0.2c0,0,0.1,0.1,0.2,0.1
		c0.1,0,0.2,0,0.2-0.1s0.2-0.2,0.4-0.4L75,7.8c-0.2,0.2-0.4,0.4-0.6,0.5c-0.2,0.1-0.3,0.2-0.5,0.2c-0.2,0-0.3-0.1-0.4-0.2
		c-0.1-0.1-0.1-0.2-0.1-0.4c0-0.1,0-0.3,0.1-0.4l0,0c-0.2,0.4-0.5,0.6-0.7,0.8c-0.2,0.2-0.4,0.2-0.7,0.2c-0.3,0-0.5-0.1-0.6-0.3
		s-0.2-0.5-0.2-0.9c0-0.4,0.1-0.9,0.3-1.3c0.2-0.4,0.4-0.7,0.7-0.9c0.3-0.2,0.6-0.3,1-0.3c0.2,0,0.3,0,0.4,0s0.3,0.1,0.4,0.2
		l0.2-0.9c0-0.1,0-0.2,0.1-0.3s0-0.2,0-0.3c0-0.1,0-0.1,0-0.2c0,0-0.1-0.1-0.1-0.1s-0.1,0-0.3,0l0-0.2L74.8,3L74.8,3z"/>
	<path style="fill-rule:evenodd;clip-rule:evenodd;fill:#00624C;" d="M76.8,4.7c0.1,0,0.2,0,0.3,0c0.1,0,0.1,0.1,0.2,0.1
		s0.1,0.1,0.1,0.2c0,0.1,0.1,0.2,0.1,0.3c0,0.1,0.1,0.3,0.1,0.4c0.1,0.3,0.1,0.7,0.2,1c0.1,0.4,0.1,0.7,0.1,1c0.2-0.4,0.5-0.7,0.6-1
		c0.2-0.3,0.3-0.6,0.4-0.9C78.9,5.7,79,5.5,79,5.3c0-0.1,0-0.2-0.1-0.2C78.8,5,78.8,5,78.6,5l0-0.2h1L79.8,5
		c-0.2,0.5-0.5,1.1-0.8,1.7c-0.3,0.6-0.7,1.2-1.1,1.7c-0.4,0.6-0.7,1-1,1.2c-0.2,0.2-0.4,0.3-0.5,0.4c-0.1,0.1-0.3,0.1-0.4,0.1
		c-0.1,0-0.1,0-0.2,0c-0.1,0-0.1,0-0.2,0l0.2-0.7H76c0,0.2,0.1,0.2,0.2,0.2c0.1,0,0.3-0.1,0.5-0.3c0.2-0.2,0.4-0.5,0.7-0.8
		c-0.1-0.4-0.2-1-0.3-1.6c-0.1-0.7-0.2-1.1-0.3-1.2c-0.1-0.2-0.1-0.3-0.2-0.4c0,0-0.1,0-0.1,0c-0.1,0-0.2,0-0.2,0.1
		c-0.1,0.1-0.2,0.2-0.3,0.3l-0.2-0.2C76,5.2,76.1,5,76.3,4.9C76.4,4.8,76.6,4.7,76.8,4.7L76.8,4.7z"/>
	<path style="fill-rule:evenodd;clip-rule:evenodd;fill:#00624C;" d="M73.3,16.1c-0.3,0-0.5,0.1-0.7,0.3c-0.2,0.2-0.4,0.5-0.5,0.8
		C72,17.6,72,17.9,72,18.3c0,0.3,0,0.5,0.1,0.6c0.1,0.1,0.2,0.2,0.4,0.2c0.1,0,0.2,0,0.2-0.1c0.1,0,0.2-0.1,0.3-0.2
		c0.1-0.1,0.2-0.2,0.3-0.3s0.2-0.2,0.2-0.3s0.1-0.2,0.2-0.4s0.1-0.3,0.2-0.5l0-0.2c0-0.2,0.1-0.4,0.1-0.5c0-0.2,0-0.3-0.1-0.4
		C73.6,16.1,73.5,16.1,73.3,16.1L73.3,16.1z M74.9,14.1h0.2l-0.9,4.2c-0.1,0.2-0.1,0.4-0.1,0.6c0,0.1,0,0.2,0,0.2s0.1,0.1,0.2,0.1
		c0.1,0,0.2,0,0.2-0.1c0.1-0.1,0.2-0.2,0.4-0.4l0.2,0.2c-0.2,0.2-0.4,0.4-0.6,0.5s-0.3,0.2-0.5,0.2c-0.2,0-0.3-0.1-0.4-0.2
		c-0.1-0.1-0.1-0.2-0.1-0.4c0-0.1,0-0.3,0.1-0.4l0,0c-0.2,0.4-0.5,0.6-0.7,0.8c-0.2,0.2-0.4,0.2-0.7,0.2c-0.3,0-0.5-0.1-0.6-0.3
		c-0.2-0.2-0.2-0.5-0.2-0.9c0-0.4,0.1-0.9,0.3-1.3c0.2-0.4,0.4-0.7,0.7-0.9c0.3-0.2,0.6-0.3,1-0.3c0.2,0,0.3,0,0.4,0
		s0.3,0.1,0.4,0.2l0.2-0.9c0-0.1,0-0.2,0.1-0.3c0-0.1,0-0.2,0-0.3c0-0.1,0-0.1,0-0.2c0,0-0.1-0.1-0.1-0.1s-0.1,0-0.3,0l0-0.2
		L74.9,14.1L74.9,14.1z"/>
	<path style="fill-rule:evenodd;clip-rule:evenodd;fill:#00624C;" d="M77.1,15.8c0.1,0,0.1,0,0.2,0s0.1,0,0.2,0.1
		c0,0,0.1,0.1,0.1,0.1c0,0.1,0.1,0.1,0.1,0.2s0.1,0.2,0.1,0.4c0,0.1,0.1,0.3,0.1,0.5h0c0.2-0.3,0.4-0.6,0.6-0.7
		c0.1-0.2,0.2-0.3,0.3-0.4c0.1-0.1,0.2-0.1,0.2-0.2c0.1,0,0.2,0,0.3,0c0.1,0,0.2,0,0.3,0l-0.2,0.7h-0.3c0-0.1-0.1-0.2-0.1-0.2
		c0,0,0,0-0.1,0c0,0-0.1,0-0.1,0s-0.1,0.1-0.2,0.1s-0.2,0.2-0.2,0.3s-0.2,0.2-0.3,0.3L78,17.5c0,0.2,0.1,0.5,0.1,0.6
		s0.1,0.3,0.1,0.4c0,0.1,0.1,0.2,0.1,0.3s0,0.1,0.1,0.2c0,0,0.1,0.1,0.1,0.1c0,0,0.1,0,0.1,0c0.1,0,0.1,0,0.2-0.1
		c0.1-0.1,0.2-0.2,0.3-0.4l0.2,0.2c-0.2,0.3-0.3,0.4-0.5,0.6c-0.1,0.1-0.3,0.2-0.5,0.2c-0.1,0-0.2,0-0.3-0.1c-0.1,0-0.1-0.1-0.2-0.2
		c-0.1-0.1-0.1-0.2-0.1-0.4c-0.1-0.3-0.1-0.6-0.1-0.7h0c-0.3,0.4-0.5,0.6-0.6,0.8s-0.2,0.3-0.3,0.4c-0.1,0.1-0.2,0.1-0.2,0.2
		c-0.1,0-0.2,0-0.3,0c-0.1,0-0.2,0-0.3,0l0.2-0.7h0.3c0,0.1,0.1,0.2,0.1,0.2c0,0,0.1,0,0.1,0c0,0,0.1-0.1,0.2-0.1
		c0.1-0.1,0.2-0.2,0.3-0.3c0.1-0.2,0.3-0.4,0.6-0.7c0-0.2-0.1-0.4-0.1-0.6c0-0.2-0.1-0.4-0.1-0.5c0-0.2-0.1-0.3-0.1-0.3
		c0,0-0.1-0.1-0.1-0.1c0,0-0.1,0-0.1,0c-0.1,0-0.1,0-0.1,0c0,0-0.1,0.1-0.1,0.1c-0.1,0.1-0.1,0.2-0.2,0.3l-0.2-0.2
		c0.2-0.2,0.3-0.4,0.5-0.5C76.7,15.8,76.9,15.8,77.1,15.8L77.1,15.8z"/>
	<polygon style="fill-rule:evenodd;clip-rule:evenodd;fill:#00624C;" points="70.8,11.8 75.4,11.8 80,11.8 80,12.3 75.4,12.3 
		70.8,12.3 70.8,11.8 	"/>
</g>
</svg>
