<?xml version="1.0" encoding="utf-8"?>
<!-- Generator: Adobe Illustrator 23.0.2, SVG Export Plug-In . SVG Version: 6.00 Build 0)  -->
<svg version="1.0" id="Layer_1" xmlns="http://www.w3.org/2000/svg" xmlns:xlink="http://www.w3.org/1999/xlink" x="0px" y="0px"
	 viewBox="0 0 95 23" style="enable-background:new 0 0 95 23;" xml:space="preserve">
<rect x="1" y="1.5" style="fill:none;stroke:#00004C;stroke-width:0.5231;stroke-miterlimit:10;" width="92.5" height="20"/>
<g>
	<path style="fill-rule:evenodd;clip-rule:evenodd;fill:#000066;" d="M44.7,7c-0.2,0-0.4,0.1-0.6,0.3c-0.2,0.2-0.3,0.5-0.4,0.8
		c-0.1,0.3-0.1,0.7-0.1,0.9c0,0.2,0,0.4,0.1,0.5s0.2,0.2,0.4,0.2c0.2,0,0.4-0.1,0.6-0.3C44.9,9.2,45,9,45.1,8.6
		c0.1-0.3,0.1-0.6,0.1-0.9c0-0.2,0-0.4-0.1-0.5C45,7.1,44.9,7,44.7,7L44.7,7z M36.3,7c-0.2,0-0.4,0.1-0.6,0.3
		c-0.2,0.2-0.3,0.4-0.4,0.7c-0.1,0.3-0.1,0.6-0.1,0.9c0,0.2,0,0.4,0.1,0.5c0.1,0.1,0.2,0.2,0.3,0.2c0.1,0,0.3-0.1,0.4-0.2
		c0.1-0.1,0.3-0.3,0.4-0.5c0.1-0.2,0.2-0.5,0.3-0.8l0-0.1c0-0.1,0-0.2,0-0.2c0-0.1,0-0.1,0-0.2c0-0.2,0-0.3-0.1-0.4
		C36.6,7.1,36.5,7,36.3,7L36.3,7z M29.5,7c-0.2,0-0.4,0.1-0.6,0.3c-0.2,0.2-0.3,0.4-0.4,0.7c-0.1,0.3-0.2,0.6-0.2,0.9
		c0,0.2,0,0.4,0.1,0.5c0.1,0.1,0.2,0.2,0.3,0.2c0.1,0,0.2,0,0.3-0.1c0.1-0.1,0.2-0.2,0.3-0.4s0.2-0.3,0.3-0.5s0.1-0.3,0.2-0.6
		c0-0.2,0.1-0.4,0.1-0.6c0-0.2,0-0.3-0.1-0.4C29.8,7.1,29.7,7,29.5,7L29.5,7z M22.7,7c-0.2,0-0.4,0.1-0.6,0.3
		c-0.2,0.2-0.4,0.5-0.5,0.9c0.3,0,0.6,0,0.8-0.1s0.4-0.1,0.5-0.3c0.1-0.1,0.2-0.3,0.2-0.5c0-0.1,0-0.2-0.1-0.3S22.8,7,22.7,7L22.7,7
		z M41.9,6.8h0.2l-0.5,2.1c0,0.2-0.1,0.4-0.1,0.5c0,0.1,0,0.1,0,0.2c0,0,0.1,0.1,0.1,0.1c0.1,0,0.1,0,0.2-0.1
		c0.1-0.1,0.2-0.2,0.3-0.3l0.2,0.2c-0.2,0.2-0.4,0.4-0.5,0.5c-0.1,0.1-0.3,0.1-0.4,0.1c-0.1,0-0.3-0.1-0.3-0.2C41,9.7,41,9.6,41,9.4
		c0-0.2,0-0.4,0.1-0.6l0.2-1.1c0-0.2,0.1-0.4,0.1-0.5c0-0.1,0-0.2-0.1-0.2C41.3,7,41.2,7,41,7l0-0.2L41.9,6.8L41.9,6.8z M44.7,6.8
		c0.3,0,0.6,0.1,0.8,0.3c0.2,0.2,0.3,0.5,0.3,0.8c0,0.3,0,0.5-0.1,0.8c-0.1,0.3-0.2,0.5-0.4,0.7S45,9.7,44.8,9.8S44.3,10,44,10
		c-0.3,0-0.6-0.1-0.8-0.3C43.1,9.5,43,9.2,43,8.9c0-0.2,0-0.4,0.1-0.6c0.1-0.3,0.2-0.6,0.3-0.8C43.6,7.3,43.7,7.1,44,7
		C44.2,6.8,44.5,6.8,44.7,6.8L44.7,6.8z M47.2,6.8c0.1,0,0.2,0,0.3,0.1c0.1,0.1,0.1,0.2,0.1,0.4c0,0.1,0,0.2-0.1,0.4l0,0
		C47.8,7.3,48,7.1,48.2,7c0.2-0.1,0.4-0.2,0.6-0.2c0.2,0,0.4,0.1,0.5,0.2c0.1,0.1,0.2,0.3,0.2,0.5c0,0.1,0,0.3-0.1,0.6l-0.2,0.8
		C49,9.1,49,9.3,49,9.3c0,0.1,0,0.1,0,0.2c0,0,0.1,0.1,0.1,0.1c0.1,0,0.1,0,0.2-0.1c0.1-0.1,0.2-0.2,0.3-0.3l0.2,0.2
		c-0.2,0.2-0.3,0.3-0.5,0.4c-0.1,0.1-0.3,0.1-0.5,0.1c-0.1,0-0.3-0.1-0.3-0.2c-0.1-0.1-0.1-0.2-0.1-0.4c0-0.1,0-0.3,0.1-0.6l0.1-0.6
		c0.1-0.2,0.1-0.4,0.1-0.4s0-0.2,0-0.2c0-0.1,0-0.3-0.1-0.3c0-0.1-0.1-0.1-0.2-0.1c-0.1,0-0.2,0-0.3,0.1c-0.1,0.1-0.2,0.2-0.3,0.3
		c-0.1,0.1-0.2,0.3-0.3,0.4c-0.1,0.1-0.1,0.3-0.2,0.5l-0.3,1.4h-0.6L47,7.9c0-0.2,0.1-0.4,0.1-0.5c0-0.1,0-0.1,0-0.2
		c0,0-0.1-0.1-0.1-0.1c-0.1,0-0.1,0-0.2,0.1s-0.2,0.2-0.3,0.3l-0.2-0.2c0.2-0.2,0.4-0.4,0.5-0.4C46.9,6.8,47,6.8,47.2,6.8L47.2,6.8z
		 M36.2,6.8c0.1,0,0.3,0,0.4,0c0.1,0,0.2,0.1,0.4,0.2l0.3-0.2l0.2,0.1L37,8.9C37,9.1,37,9.2,37,9.3c0,0.1,0,0.1,0,0.2
		c0,0,0.1,0.1,0.1,0.1c0.1,0,0.1,0,0.2-0.1c0.1-0.1,0.2-0.2,0.3-0.3l0.2,0.2c-0.2,0.2-0.4,0.4-0.5,0.4c-0.1,0.1-0.3,0.1-0.4,0.1
		c-0.1,0-0.2,0-0.3-0.1c-0.1-0.1-0.1-0.2-0.1-0.4c0-0.1,0-0.2,0.1-0.4l0,0c-0.2,0.3-0.4,0.5-0.6,0.7c-0.2,0.1-0.4,0.2-0.6,0.2
		c-0.2,0-0.4-0.1-0.6-0.3c-0.1-0.2-0.2-0.4-0.2-0.8c0-0.4,0.1-0.7,0.2-1.1c0.1-0.3,0.3-0.6,0.6-0.8C35.6,6.9,35.9,6.8,36.2,6.8
		L36.2,6.8z M32.1,6.8c0.1,0,0.2,0,0.3,0.1c0.1,0.1,0.1,0.2,0.1,0.4c0,0.1,0,0.2-0.1,0.3l0,0c0.2-0.3,0.4-0.5,0.6-0.6
		c0.2-0.1,0.4-0.2,0.6-0.2c0.2,0,0.3,0,0.4,0L34,7.5h-0.3c0-0.1,0-0.2-0.1-0.2c0,0-0.1-0.1-0.1-0.1s-0.1,0-0.1,0
		c-0.1,0-0.2,0-0.3,0.1c-0.1,0.1-0.2,0.2-0.3,0.3S32.6,7.9,32.5,8c-0.1,0.1-0.1,0.3-0.2,0.5L32,9.9h-0.6L32,7.9c0-0.1,0-0.2,0.1-0.3
		c0-0.1,0-0.1,0-0.2c0-0.1,0-0.1,0-0.2s-0.1-0.1-0.1-0.1c-0.1,0-0.1,0-0.2,0.1s-0.2,0.2-0.3,0.3l-0.2-0.2c0.2-0.2,0.4-0.4,0.5-0.4
		S31.9,6.8,32.1,6.8L32.1,6.8z M29.4,6.8c0.1,0,0.3,0,0.4,0c0.1,0,0.2,0.1,0.4,0.2l0.3-0.2l0.2,0.1l-0.3,1.5c0,0.1-0.1,0.4-0.2,0.8
		c-0.1,0.5-0.2,0.8-0.2,1s-0.1,0.4-0.2,0.5c-0.1,0.2-0.2,0.3-0.3,0.4s-0.3,0.2-0.5,0.3c-0.2,0.1-0.4,0.1-0.7,0.1
		c-0.8,0-1.2-0.2-1.2-0.7c0-0.1,0-0.2,0.1-0.3s0.2-0.2,0.4-0.3l0.2,0.2c0,0-0.1,0.1-0.1,0.1c0,0,0,0.1-0.1,0.1c0,0,0,0.1,0,0.2
		c0,0.2,0.1,0.3,0.2,0.4c0.1,0.1,0.3,0.1,0.5,0.1c0.3,0,0.5-0.1,0.6-0.2c0.2-0.1,0.3-0.3,0.4-0.6c0.1-0.3,0.2-0.7,0.3-1.2l0,0
		c-0.2,0.3-0.4,0.5-0.6,0.6S28.7,10,28.5,10c-0.2,0-0.4-0.1-0.5-0.3c-0.1-0.2-0.2-0.4-0.2-0.8c0-0.4,0.1-0.7,0.2-1.1
		c0.1-0.3,0.3-0.6,0.6-0.8S29.1,6.8,29.4,6.8L29.4,6.8z M24.9,6.8c0.1,0,0.2,0,0.3,0.1c0.1,0.1,0.1,0.2,0.1,0.4c0,0.1,0,0.2-0.1,0.3
		l0,0c0.2-0.3,0.4-0.5,0.6-0.6c0.2-0.1,0.4-0.2,0.6-0.2c0.2,0,0.3,0,0.4,0l-0.2,0.7h-0.3c0-0.1,0-0.2-0.1-0.2c0,0-0.1-0.1-0.1-0.1
		s-0.1,0-0.1,0c-0.1,0-0.2,0-0.3,0.1c-0.1,0.1-0.2,0.2-0.3,0.3c-0.1,0.1-0.2,0.3-0.3,0.4c-0.1,0.1-0.1,0.3-0.2,0.5l-0.3,1.4h-0.6
		l0.5-2.1c0-0.1,0-0.2,0.1-0.3c0-0.1,0-0.1,0-0.2c0-0.1,0-0.1,0-0.2s-0.1-0.1-0.1-0.1c-0.1,0-0.1,0-0.2,0.1
		c-0.1,0.1-0.2,0.2-0.3,0.3L24,7.3c0.2-0.2,0.4-0.4,0.5-0.4C24.6,6.8,24.7,6.8,24.9,6.8L24.9,6.8z M22.8,6.8c0.3,0,0.5,0.1,0.6,0.2
		c0.1,0.1,0.2,0.3,0.2,0.5c0,0.4-0.2,0.6-0.5,0.8c-0.3,0.2-0.9,0.3-1.5,0.3c0,0.1,0,0.3,0,0.4c0,0.2,0,0.4,0.1,0.5
		c0.1,0.1,0.2,0.2,0.4,0.2c0.2,0,0.4,0,0.5-0.1c0.2-0.1,0.3-0.2,0.5-0.4l0.2,0.2c-0.2,0.2-0.4,0.4-0.6,0.5c-0.2,0.1-0.5,0.2-0.7,0.2
		c-0.3,0-0.6-0.1-0.7-0.3s-0.3-0.5-0.3-0.8c0-0.2,0-0.5,0.1-0.7s0.2-0.5,0.4-0.7s0.4-0.4,0.6-0.5C22.3,6.8,22.5,6.8,22.8,6.8
		L22.8,6.8z M15.2,6.8c0.1,0,0.2,0,0.3,0.1s0.1,0.2,0.1,0.4c0,0.1,0,0.2-0.1,0.4l0,0C15.8,7.3,16,7.1,16.2,7s0.4-0.2,0.6-0.2
		c0.2,0,0.4,0.1,0.5,0.2s0.2,0.3,0.2,0.5c0,0.1,0,0.3-0.1,0.6l-0.2,0.8C17.1,9.1,17,9.3,17,9.3c0,0.1,0,0.1,0,0.2
		c0,0,0.1,0.1,0.1,0.1c0.1,0,0.1,0,0.2-0.1c0.1-0.1,0.2-0.2,0.3-0.3l0.2,0.2c-0.2,0.2-0.3,0.3-0.5,0.4C17.3,9.9,17.1,10,17,10
		c-0.1,0-0.3-0.1-0.3-0.2c-0.1-0.1-0.1-0.2-0.1-0.4c0-0.1,0-0.3,0.1-0.6l0.1-0.6c0.1-0.2,0.1-0.4,0.1-0.4s0-0.2,0-0.2
		c0-0.1,0-0.3-0.1-0.3c0-0.1-0.1-0.1-0.2-0.1c-0.1,0-0.2,0-0.3,0.1c-0.1,0.1-0.2,0.2-0.3,0.3c-0.1,0.1-0.2,0.3-0.3,0.4
		c-0.1,0.1-0.1,0.3-0.2,0.5l-0.3,1.4h-0.6l0.5-2.1c0-0.2,0.1-0.4,0.1-0.5c0-0.1,0-0.1,0-0.2S15,7.1,15,7.1c-0.1,0-0.1,0-0.2,0.1
		c-0.1,0.1-0.2,0.2-0.3,0.3l-0.2-0.2c0.2-0.2,0.4-0.4,0.5-0.4C14.9,6.8,15,6.8,15.2,6.8L15.2,6.8z M39.2,6h0.4l-0.2,0.8h1l-0.1,0.3
		h-1l-0.3,1.3C39,8.6,39,8.8,39,8.9c0,0.1,0,0.2,0,0.3c0,0.3,0.1,0.4,0.3,0.4c0.1,0,0.2,0,0.3-0.1s0.2-0.2,0.4-0.4l0.2,0.2
		c-0.2,0.2-0.4,0.4-0.5,0.5c-0.2,0.1-0.4,0.2-0.5,0.2c-0.5,0-0.7-0.2-0.7-0.7c0-0.1,0-0.3,0.1-0.5l0.4-1.7h-0.5l0-0.2
		c0.1,0,0.2,0,0.3,0c0.1,0,0.1,0,0.2-0.1c0,0,0.1-0.1,0.1-0.1C39,6.6,39,6.6,39,6.5C39.1,6.4,39.1,6.2,39.2,6L39.2,6z M19.3,6h0.4
		l-0.2,0.8h1l-0.1,0.3h-1l-0.3,1.3c-0.1,0.2-0.1,0.4-0.1,0.5s0,0.2,0,0.3c0,0.3,0.1,0.4,0.3,0.4c0.1,0,0.2,0,0.3-0.1
		c0.1-0.1,0.2-0.2,0.4-0.4l0.2,0.2c-0.2,0.2-0.4,0.4-0.5,0.5c-0.2,0.1-0.4,0.2-0.5,0.2c-0.5,0-0.7-0.2-0.7-0.7c0-0.1,0-0.3,0.1-0.5
		l0.4-1.7h-0.5l0-0.2c0.1,0,0.2,0,0.3,0c0.1,0,0.1,0,0.2-0.1c0,0,0.1-0.1,0.1-0.1c0-0.1,0.1-0.1,0.1-0.2C19.1,6.4,19.2,6.2,19.3,6
		L19.3,6z M41.8,5.6h0.6l-0.1,0.6h-0.6L41.8,5.6L41.8,5.6z M12.7,5.5H14l0,0.2c-0.1,0-0.1,0-0.2,0.1c0,0-0.1,0.1-0.1,0.1
		c0,0-0.1,0.1-0.1,0.2c0,0.1-0.1,0.2-0.1,0.4L12.9,9c0,0.1,0,0.2-0.1,0.3c0,0.1,0,0.1,0,0.2c0,0.1,0,0.2,0.1,0.2
		c0,0,0.1,0.1,0.2,0.1l0,0.2h-1.3l0-0.2c0.1,0,0.1,0,0.2-0.1c0,0,0.1-0.1,0.1-0.1c0-0.1,0.1-0.1,0.1-0.2c0-0.1,0.1-0.2,0.1-0.4
		l0.5-2.5C13,6.2,13,6.1,13,5.9c0-0.1,0-0.2-0.1-0.2c-0.1,0-0.1-0.1-0.2-0.1L12.7,5.5z"/>
</g>
<g>
	<path style="fill-rule:evenodd;clip-rule:evenodd;fill:#000057;" d="M18.9,12.5l0.1,0.2c-0.4,0.1-0.6,0.3-0.8,0.7
		c-0.2,0.3-0.3,0.8-0.3,1.3c0,0.5,0.1,1,0.3,1.3c0.2,0.3,0.4,0.6,0.8,0.7l-0.1,0.2c-0.4-0.1-0.8-0.4-1-0.8c-0.2-0.4-0.4-0.9-0.4-1.4
		c0-0.5,0.1-1,0.4-1.4C18.1,12.9,18.4,12.6,18.9,12.5L18.9,12.5z"/>
	<path style="fill-rule:evenodd;clip-rule:evenodd;fill:#000057;" d="M34,14.5c-0.1,0-0.1,0-0.2,0c-0.1,0-0.2,0-0.2,0.1
		c-0.1,0.1-0.2,0.2-0.3,0.4c-0.1,0.2-0.2,0.3-0.2,0.4c0.1,0,0.3,0.1,0.6,0.1c0.3,0,0.5,0,0.6,0c0.1,0,0.2-0.1,0.3-0.1
		c0.1-0.1,0.1-0.2,0.1-0.3c0-0.1-0.1-0.2-0.2-0.3C34.3,14.5,34.2,14.5,34,14.5L34,14.5z M27.2,14.5c-0.2,0-0.5,0.1-0.8,0.2
		c-0.1,0.1-0.2,0.2-0.2,0.3c-0.1,0.1-0.1,0.3-0.2,0.4c0.1,0,0.1,0,0.2,0c0.1,0,0.1,0,0.2,0c0.1,0,0.1,0,0.2,0c0.1,0,0.3-0.1,0.3-0.2
		c0.1-0.1,0.1-0.3,0.1-0.5h0.2c0,0.2,0,0.3,0.1,0.5c0.1,0.1,0.2,0.2,0.3,0.2c0.1,0,0.2,0,0.3-0.1c0.1-0.1,0.1-0.2,0.1-0.3
		c0-0.2-0.1-0.3-0.2-0.4C27.6,14.5,27.4,14.5,27.2,14.5L27.2,14.5z M23.1,14.5c-0.1,0-0.1,0-0.2,0c-0.1,0-0.2,0-0.2,0.1
		c-0.1,0.1-0.2,0.2-0.3,0.4c-0.1,0.2-0.2,0.3-0.2,0.4c0.1,0,0.3,0.1,0.6,0.1c0.3,0,0.5,0,0.6,0c0.1,0,0.2-0.1,0.3-0.1
		c0.1-0.1,0.1-0.2,0.1-0.3c0-0.1-0.1-0.2-0.2-0.3C23.4,14.5,23.3,14.5,23.1,14.5L23.1,14.5z M20.2,14.5c-0.1,0-0.2,0-0.3,0.1
		c-0.1,0-0.1,0.1-0.2,0.2c0,0.1-0.1,0.1-0.1,0.3c0,0.2,0.1,0.3,0.2,0.5c0.1,0.1,0.3,0.2,0.6,0.2c0.1,0,0.2,0,0.3,0v-1.1
		C20.6,14.5,20.5,14.5,20.2,14.5L20.2,14.5z M38.5,14.1c-0.1,0-0.2,0-0.3,0.1c-0.1,0-0.1,0.1-0.1,0.2c0.3,0,0.5,0,0.6,0
		c0,0,0,0,0-0.1c0-0.1,0-0.1-0.1-0.1C38.6,14.1,38.5,14.1,38.5,14.1L38.5,14.1z M21,14c-0.1,0.2-0.1,0.4-0.1,0.6
		c0,0,0.1,0.1,0.2,0.1s0.1,0,0.2-0.1c0,0,0.1-0.1,0.1-0.2c0-0.1,0-0.1-0.1-0.2C21.1,14.1,21.1,14,21,14L21,14z M38.5,13.7
		c0.1,0,0.2,0,0.3,0.1c0.1,0.1,0.1,0.1,0.1,0.2c0,0.1,0,0.2-0.1,0.3c0.1,0.1,0.2,0.1,0.2,0.2c0.1,0.1,0.1,0.2,0.1,0.3
		c0,0.2-0.1,0.4-0.2,0.6c-0.1,0.2-0.3,0.2-0.5,0.2c-0.1,0-0.2,0-0.3-0.1c-0.1-0.1-0.2-0.1-0.2-0.2c-0.1,0.1-0.2,0.2-0.2,0.2
		c-0.1,0.1-0.2,0.1-0.3,0.1c-0.2,0-0.4-0.1-0.5-0.2c-0.1-0.2-0.2-0.4-0.2-0.6c0-0.3,0.1-0.5,0.3-0.7c0.2-0.2,0.4-0.3,0.7-0.3v0.2
		c-0.2,0-0.4,0.1-0.5,0.2c-0.2,0.1-0.2,0.3-0.2,0.5c0,0.2,0,0.3,0.1,0.4c0.1,0.1,0.2,0.2,0.4,0.2c0.2,0,0.3-0.1,0.4-0.2
		c0.1-0.1,0.1-0.3,0.1-0.5h0.2c0,0.2,0,0.4,0.1,0.5c0.1,0.1,0.2,0.2,0.4,0.2c0.2,0,0.3,0,0.4-0.1c0.1-0.1,0.1-0.2,0.1-0.4
		c0-0.1,0-0.3-0.1-0.3c-0.1-0.1-0.2-0.1-0.4-0.1H38c0-0.2,0.1-0.4,0.2-0.5C38.2,13.8,38.3,13.7,38.5,13.7L38.5,13.7z M33.2,13.7
		c0.3,0,0.4,0.2,0.5,0.5c0.2-0.2,0.4-0.3,0.6-0.4c0.2-0.1,0.4-0.1,0.6-0.1c0.3,0,0.6,0.1,0.9,0.3c0.2,0.2,0.3,0.5,0.3,0.8
		c0,0.2-0.1,0.4-0.2,0.6c-0.1,0.2-0.2,0.3-0.4,0.3c-0.1,0-0.2,0-0.3-0.1l0.1-0.1c0.1,0.1,0.1,0.1,0.2,0.1c0.1,0,0.2,0,0.2-0.1
		c0.1-0.1,0.1-0.2,0.1-0.4c0-0.2-0.1-0.3-0.2-0.5c-0.1-0.2-0.3-0.3-0.4-0.4c-0.2-0.1-0.4-0.2-0.5-0.2c-0.2,0-0.3,0-0.5,0.1
		s-0.3,0.1-0.4,0.2c0.1,0,0.2,0,0.2,0c0.2,0,0.4,0.1,0.5,0.2c0.1,0.1,0.2,0.3,0.2,0.5c0,0.3-0.1,0.4-0.3,0.6
		c-0.2,0.1-0.5,0.2-0.7,0.2c-0.3,0-0.5,0-0.7-0.1c-0.2-0.1-0.3-0.2-0.4-0.4l0.1-0.1c0.1,0.1,0.1,0.1,0.1,0.1c0,0,0.1,0,0.1-0.1
		c0-0.1,0.1-0.2,0.2-0.3c0.2-0.3,0.3-0.5,0.4-0.6c0-0.1,0-0.2-0.1-0.3c-0.1-0.1-0.1-0.1-0.2-0.1c-0.1,0-0.2,0.1-0.2,0.2
		c0,0.1,0,0.1-0.1,0.1c0,0,0,0-0.1,0.1c0,0-0.1,0-0.1,0c-0.1,0-0.1,0-0.1-0.1c0,0,0-0.1,0-0.2c0-0.1,0-0.2,0.1-0.3
		C33,13.8,33.1,13.7,33.2,13.7L33.2,13.7z M31.1,13.7c0.3,0,0.6,0.1,0.8,0.2c0.2,0.1,0.3,0.3,0.3,0.5c0,0.2-0.1,0.3-0.2,0.4
		c-0.1,0.1-0.3,0.2-0.5,0.2c-0.2,0-0.3,0-0.4-0.1s-0.1-0.2-0.1-0.4h-0.4v-0.1h1.2v0.1h-0.6c0,0.1,0.2,0.2,0.4,0.2
		c0.1,0,0.2,0,0.3-0.1c0.1-0.1,0.1-0.1,0.1-0.2c0-0.1-0.1-0.2-0.2-0.3c-0.2-0.1-0.4-0.1-0.7-0.1c-0.3,0-0.6,0.1-0.9,0.3
		c-0.2,0.2-0.4,0.5-0.4,0.8c0,0.4,0.1,0.7,0.4,0.9c0.2,0.3,0.5,0.4,0.9,0.4c0.3,0,0.6-0.1,0.8-0.2c0.2-0.2,0.3-0.4,0.3-0.7h0.1
		c0,0.3-0.1,0.6-0.3,0.8c-0.2,0.2-0.5,0.3-1,0.3c-0.3,0-0.6-0.1-0.8-0.2c-0.2-0.1-0.4-0.3-0.5-0.5c-0.1-0.2-0.2-0.4-0.2-0.7
		c0-0.4,0.1-0.8,0.4-1C30.2,13.9,30.6,13.7,31.1,13.7L31.1,13.7z M26.2,13.7c0.3,0,0.4,0.1,0.5,0.4c0.2-0.1,0.4-0.3,0.6-0.3
		c0.2-0.1,0.4-0.1,0.5-0.1c0.3,0,0.6,0.1,0.9,0.3c0.2,0.2,0.3,0.5,0.3,0.8c0,0.2-0.1,0.4-0.2,0.6c-0.1,0.2-0.2,0.3-0.4,0.3
		c-0.1,0-0.2,0-0.3-0.1l0.1-0.1c0.1,0.1,0.1,0.1,0.2,0.1c0.1,0,0.2,0,0.2-0.1c0.1-0.1,0.1-0.2,0.1-0.4c0-0.2-0.1-0.3-0.2-0.5
		c-0.1-0.2-0.3-0.3-0.4-0.4C28,14.1,27.8,14,27.6,14c-0.1,0-0.3,0-0.5,0.1c-0.2,0.1-0.3,0.2-0.5,0.3c0.1,0,0.2,0,0.3-0.1
		c0.1,0,0.2,0,0.3,0c0.3,0,0.5,0.1,0.6,0.2c0.2,0.2,0.2,0.4,0.2,0.6c0,0.2,0,0.3-0.1,0.5c-0.1,0.1-0.2,0.2-0.4,0.2
		c-0.1,0-0.2,0-0.3-0.1c-0.1-0.1-0.2-0.1-0.2-0.2c-0.1,0.1-0.1,0.2-0.2,0.2c-0.1,0.1-0.2,0.1-0.3,0.1c-0.1,0-0.2,0-0.2,0
		c-0.1,0-0.1-0.1-0.2-0.1c0,0-0.1-0.1-0.1-0.1c-0.1,0-0.1,0.1-0.2,0.2l-0.1-0.1c0.1-0.4,0.3-0.7,0.4-0.9c0.1-0.2,0.3-0.4,0.5-0.5
		c0-0.1,0-0.2-0.1-0.2c0-0.1-0.1-0.1-0.2-0.1c-0.1,0-0.2,0.1-0.2,0.2c0,0.1,0,0.1-0.1,0.1c0,0,0,0-0.1,0.1c0,0-0.1,0-0.1,0
		c-0.1,0-0.1,0-0.1-0.1c0,0,0-0.1,0-0.2c0-0.1,0-0.2,0.1-0.3C25.9,13.8,26,13.7,26.2,13.7L26.2,13.7z M22.3,13.7
		c0.3,0,0.4,0.2,0.5,0.5c0.2-0.2,0.4-0.3,0.6-0.4c0.2-0.1,0.4-0.1,0.6-0.1c0.3,0,0.6,0.1,0.9,0.3c0.2,0.2,0.3,0.5,0.3,0.8v2h-2.1
		c-0.1,0-0.2,0-0.3-0.1c-0.1-0.1-0.1-0.2-0.1-0.3c0-0.1,0-0.2,0.1-0.3C22.9,16,23,16,23.1,16c0.2,0,0.4,0.1,0.5,0.3l-0.1,0.1
		c-0.1-0.2-0.2-0.2-0.3-0.2c-0.1,0-0.2,0-0.2,0.1c-0.1,0.1-0.1,0.1-0.1,0.2c0,0.1,0,0.2,0.1,0.2c0.1,0,0.1,0.1,0.2,0.1H25v-1.1
		c-0.1,0.1-0.2,0.2-0.4,0.2c-0.1,0-0.2,0-0.3-0.1l0.1-0.1c0.1,0.1,0.1,0.1,0.2,0.1c0.1,0,0.2,0,0.2-0.1c0.1-0.1,0.1-0.2,0.1-0.4
		c0-0.2-0.1-0.3-0.2-0.5c-0.1-0.2-0.3-0.3-0.4-0.4C24.2,14.1,24,14,23.8,14c-0.2,0-0.3,0-0.5,0.1c-0.2,0.1-0.3,0.1-0.4,0.2
		c0.1,0,0.2,0,0.2,0c0.2,0,0.4,0.1,0.5,0.2c0.1,0.1,0.2,0.3,0.2,0.5c0,0.3-0.1,0.4-0.3,0.6c-0.2,0.1-0.5,0.2-0.7,0.2
		c-0.3,0-0.5,0-0.7-0.1c-0.2-0.1-0.3-0.2-0.4-0.4l0.1-0.1c0.1,0.1,0.1,0.1,0.1,0.1c0,0,0.1,0,0.1-0.1c0-0.1,0.1-0.2,0.2-0.3
		c0.2-0.3,0.3-0.5,0.4-0.6c0-0.1,0-0.2-0.1-0.3c-0.1-0.1-0.1-0.1-0.2-0.1c-0.1,0-0.2,0.1-0.2,0.2c0,0.1,0,0.1-0.1,0.1
		c0,0,0,0-0.1,0.1c0,0-0.1,0-0.1,0c-0.1,0-0.1,0-0.1-0.1c0,0,0-0.1,0-0.2c0-0.1,0-0.2,0.1-0.3C22.1,13.8,22.2,13.7,22.3,13.7
		L22.3,13.7z M21,13.7h0.1c0,0,0,0,0,0C21.1,13.8,21.1,13.8,21,13.7c0.1,0.1,0.1,0.2,0.1,0.2c0,0,0.1,0.1,0.1,0.1
		c0.1,0.1,0.2,0.2,0.2,0.3c0,0.1,0,0.2-0.1,0.3c-0.1,0.1-0.2,0.1-0.3,0.1c-0.1,0-0.1,0-0.2,0v0.9c0.2,0,0.4-0.1,0.5-0.2l0.1,0.1
		c-0.2,0.1-0.4,0.2-0.6,0.2v1.2h-0.1v-1.2c-0.1,0-0.3,0-0.4,0c-0.3,0-0.6-0.1-0.7-0.2c-0.2-0.1-0.3-0.3-0.3-0.6
		c0-0.2,0.1-0.4,0.2-0.5c0.2-0.1,0.4-0.2,0.7-0.2h0.2c0.1,0,0.2,0,0.3,0c0-0.1-0.1-0.2-0.2-0.3s-0.1-0.1-0.2-0.1c0,0-0.1,0-0.1,0
		c0,0-0.1,0.1-0.1,0.1c-0.1,0.1-0.1,0.1-0.1,0.1c0,0-0.1,0-0.1,0c0,0-0.1,0-0.1-0.1c0,0,0-0.1,0-0.1c0-0.1,0-0.1,0.1-0.2
		c0.1-0.1,0.2-0.1,0.3-0.1c0.2,0,0.3,0,0.4,0.1c0.1,0.1,0.2,0.2,0.3,0.4C20.8,14.1,20.8,13.9,21,13.7L21,13.7z"/>
	<path style="fill-rule:evenodd;clip-rule:evenodd;fill:#000057;" d="M39.5,12.5c0.4,0.1,0.8,0.4,1,0.8s0.4,0.9,0.4,1.4
		c0,0.5-0.1,1-0.4,1.4c-0.2,0.4-0.6,0.6-1,0.8l-0.1-0.2c0.4-0.1,0.6-0.3,0.8-0.7c0.2-0.3,0.3-0.8,0.3-1.3c0-0.5-0.1-0.9-0.3-1.3
		c-0.2-0.3-0.4-0.6-0.8-0.7L39.5,12.5z"/>
</g>
<g>
	<path style="fill-rule:evenodd;clip-rule:evenodd;fill:#000051;" d="M68.4,3.7c0.1,0,0.2,0,0.3,0c0.1,0,0.2,0,0.2,0.1l-0.1,0.6
		h-0.3c0-0.1,0-0.2-0.1-0.2c0-0.1-0.1-0.1-0.2-0.1c-0.3,0-0.5,0.3-0.6,0.9c-0.1,0.6-0.2,2.4-0.3,5.2c-0.1,2.6-0.3,4.3-0.6,5.2
		c-0.3,0.9-0.7,1.4-1.2,1.4c-0.1,0-0.2,0-0.3,0c-0.1,0-0.2,0-0.2-0.1l0.1-0.7h0.3c0,0.1,0.1,0.2,0.1,0.3c0,0.1,0.1,0.1,0.2,0.1
		c0.2,0,0.4-0.3,0.5-0.9c0.2-0.6,0.3-2.2,0.4-4.9c0.1-2.8,0.3-4.7,0.6-5.6C67.4,4.1,67.8,3.7,68.4,3.7L68.4,3.7z"/>
	<path style="fill-rule:evenodd;clip-rule:evenodd;fill:#000051;" d="M73.5,7.7c0.2,0,0.4,0,0.5,0l-0.1,0.5h-0.3
		c0-0.1-0.1-0.2-0.1-0.2S73.4,8,73.3,8C73.2,8,73.1,8,73,8c-0.1,0.1-0.1,0.2-0.2,0.3s-0.1,0.3-0.2,0.5l-0.1,0.3h0.8l-0.1,0.3h-0.8
		l-0.6,2.6c-0.1,0.4-0.2,0.8-0.4,1c-0.2,0.2-0.4,0.3-0.7,0.3c-0.1,0-0.1,0-0.2,0l0.1-0.3c0,0,0.1,0,0.1,0c0.1,0,0.2,0,0.2-0.1
		c0.1,0,0.1-0.1,0.2-0.2c0.1-0.1,0.1-0.3,0.2-0.5L72,9.5h-0.5l0-0.2c0.1,0,0.2,0,0.3,0c0.1,0,0.1,0,0.1-0.1C72,9.1,72,9.1,72,9
		c0,0,0.1-0.1,0.1-0.2c0.1-0.4,0.3-0.6,0.5-0.8C72.8,7.8,73.1,7.7,73.5,7.7L73.5,7.7z"/>
	<path style="fill-rule:evenodd;clip-rule:evenodd;fill:#000051;" d="M76.5,7.7l0.1,0.2c-0.5,0.2-0.8,0.5-1,0.9
		c-0.2,0.4-0.3,1-0.3,1.7c0,0.7,0.1,1.3,0.3,1.7c0.2,0.5,0.6,0.8,1,0.9l-0.1,0.2c-0.6-0.2-1-0.5-1.3-1c-0.3-0.5-0.5-1.1-0.5-1.8
		c0-0.7,0.2-1.3,0.5-1.8C75.5,8.2,75.9,7.8,76.5,7.7L76.5,7.7z"/>
	<path style="fill-rule:evenodd;clip-rule:evenodd;fill:#000051;" d="M77.9,9.1c0.1,0,0.1,0,0.2,0s0.1,0,0.1,0.1s0.1,0.1,0.1,0.1
		s0.1,0.1,0.1,0.2s0.1,0.2,0.1,0.3c0,0.1,0,0.2,0.1,0.4h0c0.2-0.3,0.3-0.5,0.4-0.6c0.1-0.1,0.2-0.2,0.2-0.3c0.1-0.1,0.1-0.1,0.2-0.1
		c0.1,0,0.1,0,0.2,0c0.1,0,0.2,0,0.2,0l-0.1,0.5h-0.2c0-0.1,0-0.1-0.1-0.1c0,0,0,0-0.1,0c0,0,0,0-0.1,0c0,0-0.1,0.1-0.1,0.1
		c-0.1,0.1-0.1,0.1-0.2,0.2c-0.1,0.1-0.1,0.2-0.2,0.3l-0.2,0.3c0,0.2,0.1,0.4,0.1,0.5c0,0.1,0.1,0.3,0.1,0.3c0,0.1,0,0.2,0.1,0.2
		s0,0.1,0.1,0.1c0,0,0,0,0.1,0.1s0,0,0.1,0c0.1,0,0.1,0,0.2-0.1c0.1,0,0.1-0.1,0.2-0.3l0.2,0.1c-0.1,0.2-0.3,0.4-0.4,0.4
		c-0.1,0.1-0.2,0.1-0.4,0.1c-0.1,0-0.2,0-0.2,0c-0.1,0-0.1-0.1-0.2-0.1c0-0.1-0.1-0.2-0.1-0.3c-0.1-0.3-0.1-0.4-0.1-0.6h0
		c-0.2,0.3-0.4,0.5-0.5,0.6c-0.1,0.1-0.2,0.2-0.3,0.3c-0.1,0.1-0.1,0.1-0.2,0.1c-0.1,0-0.1,0-0.2,0c-0.1,0-0.2,0-0.2,0l0.1-0.5h0.2
		c0,0.1,0,0.1,0.1,0.1c0,0,0.1,0,0.1,0c0,0,0.1-0.1,0.1-0.1s0.1-0.1,0.2-0.3c0.1-0.1,0.2-0.3,0.4-0.5c0-0.2-0.1-0.3-0.1-0.5
		c0-0.1-0.1-0.3-0.1-0.4c0-0.1-0.1-0.2-0.1-0.2c0,0,0-0.1-0.1-0.1c0,0-0.1,0-0.1,0c0,0-0.1,0-0.1,0c0,0-0.1,0.1-0.1,0.1
		c0,0-0.1,0.1-0.2,0.2l-0.2-0.1c0.1-0.2,0.2-0.3,0.4-0.4C77.6,9.1,77.7,9.1,77.9,9.1L77.9,9.1z"/>
	<path style="fill-rule:evenodd;clip-rule:evenodd;fill:#000051;" d="M80.4,7.7c0.6,0.2,1,0.5,1.3,1c0.3,0.5,0.5,1.1,0.5,1.8
		c0,0.7-0.2,1.3-0.5,1.8s-0.8,0.8-1.3,1l-0.1-0.2c0.5-0.2,0.8-0.5,1-0.9c0.2-0.5,0.3-1,0.3-1.7c0-0.7-0.1-1.2-0.3-1.7
		c-0.2-0.4-0.6-0.7-1-0.9L80.4,7.7z"/>
	<path style="fill-rule:evenodd;clip-rule:evenodd;fill:#000051;" d="M85.6,9.3c-0.2,0-0.4,0.1-0.5,0.2c-0.2,0.2-0.3,0.4-0.4,0.7
		s-0.1,0.6-0.1,0.8c0,0.2,0,0.4,0.1,0.5c0.1,0.1,0.2,0.2,0.3,0.2c0.1,0,0.1,0,0.2,0c0.1,0,0.1-0.1,0.2-0.1s0.1-0.1,0.2-0.2
		c0.1-0.1,0.1-0.2,0.2-0.3s0.1-0.2,0.2-0.3c0-0.1,0.1-0.3,0.1-0.4l0-0.1c0-0.1,0-0.3,0-0.4c0-0.2,0-0.3-0.1-0.3S85.8,9.3,85.6,9.3
		L85.6,9.3z M88.4,9.1c0.1,0,0.1,0,0.2,0s0.1,0,0.1,0.1c0,0,0.1,0.1,0.1,0.1s0.1,0.1,0.1,0.2S89,9.7,89,9.8s0,0.2,0.1,0.4h0
		c0.2-0.3,0.3-0.5,0.4-0.6c0.1-0.1,0.2-0.2,0.2-0.3c0.1-0.1,0.1-0.1,0.2-0.1c0.1,0,0.1,0,0.2,0c0.1,0,0.2,0,0.2,0l-0.1,0.5h-0.2
		c0-0.1,0-0.1-0.1-0.1c0,0,0,0-0.1,0c0,0,0,0-0.1,0c0,0-0.1,0.1-0.1,0.1c-0.1,0.1-0.1,0.1-0.2,0.2s-0.1,0.2-0.2,0.3l-0.2,0.3
		c0,0.2,0.1,0.4,0.1,0.5c0,0.1,0.1,0.3,0.1,0.3c0,0.1,0,0.2,0.1,0.2c0,0.1,0,0.1,0.1,0.1c0,0,0,0,0.1,0.1c0,0,0,0,0.1,0
		c0.1,0,0.1,0,0.2-0.1c0.1,0,0.1-0.1,0.2-0.3l0.2,0.1c-0.1,0.2-0.3,0.4-0.4,0.4c-0.1,0.1-0.2,0.1-0.4,0.1c-0.1,0-0.2,0-0.2,0
		c-0.1,0-0.1-0.1-0.2-0.1c0-0.1-0.1-0.2-0.1-0.3c-0.1-0.3-0.1-0.4-0.1-0.6h0c-0.2,0.3-0.4,0.5-0.5,0.6s-0.2,0.2-0.3,0.3
		C88,11.9,87.9,12,87.8,12s-0.1,0-0.2,0c-0.1,0-0.2,0-0.2,0l0.1-0.5h0.2c0,0.1,0,0.1,0.1,0.1c0,0,0.1,0,0.1,0c0,0,0.1-0.1,0.1-0.1
		s0.1-0.1,0.2-0.3c0.1-0.1,0.2-0.3,0.4-0.5c0-0.2-0.1-0.3-0.1-0.5c0-0.1-0.1-0.3-0.1-0.4c0-0.1-0.1-0.2-0.1-0.2s0-0.1-0.1-0.1
		c0,0-0.1,0-0.1,0c0,0-0.1,0-0.1,0c0,0-0.1,0.1-0.1,0.1c0,0-0.1,0.1-0.2,0.2l-0.2-0.1c0.1-0.2,0.2-0.3,0.4-0.4
		C88.1,9.1,88.3,9.1,88.4,9.1L88.4,9.1z M86.9,7.7H87L86.3,11c0,0.2-0.1,0.3-0.1,0.4c0,0.1,0,0.1,0,0.2c0,0,0.1,0.1,0.1,0.1
		c0.1,0,0.1,0,0.2-0.1c0.1,0,0.2-0.1,0.3-0.3l0.2,0.2c-0.2,0.2-0.3,0.3-0.5,0.4c-0.1,0.1-0.3,0.1-0.4,0.1c-0.1,0-0.2,0-0.3-0.1
		c-0.1-0.1-0.1-0.2-0.1-0.3c0-0.1,0-0.2,0.1-0.3l0,0c-0.2,0.3-0.4,0.5-0.5,0.6s-0.4,0.2-0.5,0.2c-0.2,0-0.4-0.1-0.5-0.2
		S84,11.4,84,11.1c0-0.3,0.1-0.7,0.2-1c0.1-0.3,0.3-0.6,0.6-0.7c0.2-0.2,0.5-0.3,0.8-0.3c0.1,0,0.2,0,0.3,0c0.1,0,0.2,0.1,0.3,0.1
		l0.2-0.7c0-0.1,0-0.1,0-0.2c0-0.1,0-0.1,0-0.2s0-0.1,0-0.1c0,0-0.1-0.1-0.1-0.1s-0.1,0-0.2,0l0-0.2L86.9,7.7L86.9,7.7z"/>
</g>
</svg>
