<?xml version="1.0" encoding="utf-8"?>
<!-- Generator: Adobe Illustrator 23.0.2, SVG Export Plug-In . SVG Version: 6.00 Build 0)  -->
<svg version="1.0" id="Layer_1" xmlns="http://www.w3.org/2000/svg" xmlns:xlink="http://www.w3.org/1999/xlink" x="0px" y="0px"
	 viewBox="0 0 220 220" style="enable-background:new 0 0 220 220;" xml:space="preserve">
<style type="text/css">
	.st0{fill-rule:evenodd;clip-rule:evenodd;fill:#FFFFFF;}
	.st1{fill:url(#SVGID_1_);}
	.st2{fill:none;stroke:#000000;stroke-width:0.422;stroke-miterlimit:8;}
	.st3{fill:none;stroke:#000000;stroke-width:0.422;stroke-miterlimit:8;stroke-dasharray:4.8106,1.9243;}
	.st4{fill:none;stroke:#000000;stroke-width:0.422;stroke-miterlimit:8;stroke-dasharray:4.9266,1.9706;}
	.st5{fill:none;stroke:#000000;stroke-width:0.422;stroke-miterlimit:8;stroke-dasharray:4.989,1.9956;}
	.st6{fill:none;stroke:#000000;stroke-width:0.422;stroke-miterlimit:8;stroke-dasharray:5.0985,2.0394;}
	.st7{clip-path:url(#SVGID_3_);fill:none;stroke:#000000;stroke-width:1.2653;stroke-miterlimit:8;}
	.st8{clip-path:url(#SVGID_3_);fill-rule:evenodd;clip-rule:evenodd;}
	.st9{clip-path:url(#SVGID_3_);}
	.st10{clip-path:url(#SVGID_5_);fill:none;stroke:#000000;stroke-width:1.2653;stroke-miterlimit:8;}
	.st11{clip-path:url(#SVGID_5_);fill-rule:evenodd;clip-rule:evenodd;}
	.st12{clip-path:url(#SVGID_5_);}
	.st13{clip-path:url(#SVGID_7_);fill-rule:evenodd;clip-rule:evenodd;}
	.st14{clip-path:url(#SVGID_7_);}
	.st15{clip-path:url(#SVGID_9_);fill-rule:evenodd;clip-rule:evenodd;}
	.st16{clip-path:url(#SVGID_9_);}
	.st17{clip-path:url(#SVGID_11_);fill-rule:evenodd;clip-rule:evenodd;}
	.st18{clip-path:url(#SVGID_11_);}
	.st19{clip-path:url(#SVGID_13_);}
	.st20{clip-path:url(#SVGID_15_);}
	.st21{clip-path:url(#SVGID_17_);}
	.st22{clip-path:url(#SVGID_19_);}
	.st23{clip-path:url(#SVGID_21_);}
	.st24{clip-path:url(#SVGID_23_);}
	.st25{clip-path:url(#SVGID_25_);}
	.st26{clip-path:url(#SVGID_27_);}
	.st27{clip-path:url(#SVGID_29_);}
	.st28{clip-path:url(#SVGID_31_);}
	.st29{clip-path:url(#SVGID_33_);}
	.st30{clip-path:url(#SVGID_35_);}
	.st31{clip-path:url(#SVGID_37_);}
	.st32{clip-path:url(#SVGID_39_);fill:none;stroke:#000000;stroke-width:1.2653;stroke-miterlimit:8;}
	.st33{clip-path:url(#SVGID_39_);}
	.st34{clip-path:url(#SVGID_41_);fill-rule:evenodd;clip-rule:evenodd;fill:#0303C3;}
	.st35{clip-path:url(#SVGID_41_);}
	.st36{clip-path:url(#SVGID_43_);fill-rule:evenodd;clip-rule:evenodd;fill:#0303C3;}
	.st37{fill-rule:evenodd;clip-rule:evenodd;}
</style>
<g>
	<polygon class="st0" points="40,91.8 40,179.6 178,180.2 177.7,89.4 140.7,89.7 125.7,86 111.3,79.9 99.4,76.8 89.9,75.9 
		79.8,77.4 66.9,81.4 47,89.4 40,91.8 40,91.8 	"/>
	<g>
		<linearGradient id="SVGID_1_" gradientUnits="userSpaceOnUse" x1="39.9927" y1="128.0499" x2="178.0093" y2="128.0499">
			<stop  offset="2.024560e-07" style="stop-color:#0303C3;stop-opacity:0.5"/>
			<stop  offset="0.4877" style="stop-color:#FFFFFF;stop-opacity:0"/>
			<stop  offset="1" style="stop-color:#1414C7;stop-opacity:0.6"/>
		</linearGradient>
		<path class="st1" d="M40,91.8v87.7l138,0.6l-0.3-90.8c-5,0.5-10.3,0.8-15.9,0.9c-7.6,0.2-14.6-0.1-21.1-0.6
			c-2.1-0.3-4.5-0.7-6.9-1.3c-3-0.7-5.7-1.5-8.1-2.4c-4.8-2-9.6-4.1-14.4-6.1l-11.9-3.1l-9.5-0.9l-10.1,1.5c-4.3,1.3-8.6,2.7-12.9,4
			c-1.5,0.4-3.1,0.8-4.7,1.3c-5.9,1.8-11,4.2-15.2,6.7C44.7,90.2,42.3,91,40,91.8z"/>
		<g>
			<path class="st2" d="M42.4,91c-0.8,0.3-1.6,0.5-2.4,0.8v2.5"/>
			<line class="st3" x1="40" y1="96.3" x2="40" y2="176.1"/>
			<polyline class="st2" points="40,177.1 40,179.6 42.5,179.6 			"/>
			<line class="st4" x1="44.5" y1="179.6" x2="174.5" y2="180.2"/>
			<polyline class="st2" points="175.5,180.2 178,180.2 178,177.7 			"/>
			<line class="st5" x1="178" y1="175.7" x2="177.7" y2="92.9"/>
			<path class="st2" d="M177.7,91.9l0-2.5c-0.8,0.1-1.7,0.1-2.5,0.2"/>
			<path class="st6" d="M173.2,89.8c-3.6,0.3-7.4,0.4-11.4,0.5c-7.6,0.2-14.6-0.1-21.1-0.6c-2.1-0.3-4.5-0.7-6.9-1.3
				c-3-0.7-5.7-1.5-8.1-2.4c-4.8-2-9.6-4.1-14.4-6.1l-11.9-3.1l-9.5-0.9l-10.1,1.5c-4.3,1.3-8.6,2.7-12.9,4
				c-1.5,0.4-3.1,0.8-4.7,1.3c-5.9,1.8-11,4.2-15.2,6.7c-1.2,0.4-2.5,0.9-3.7,1.3"/>
		</g>
	</g>
	<g>
		<defs>
			<polyline id="SVGID_2_" points="218.6,214.3 218.6,8.7 1.6,8.7 1.6,214.3 1.6,214.3 			"/>
		</defs>
		<clipPath id="SVGID_3_">
			<use xlink:href="#SVGID_2_"  style="overflow:visible;"/>
		</clipPath>
		<line class="st7" x1="7.8" y1="179.9" x2="205" y2="179.9"/>
		<polygon class="st8" points="204.3,178 208.1,179.9 204.3,181.8 204.3,178 		"/>
		<g class="st9">
			<defs>
				<polyline id="SVGID_4_" points="218.6,214.3 218.6,8.7 1.6,8.7 1.6,214.3 1.6,214.3 				"/>
			</defs>
			<clipPath id="SVGID_5_">
				<use xlink:href="#SVGID_4_"  style="overflow:visible;"/>
			</clipPath>
			<line class="st10" x1="17.4" y1="189.9" x2="17.4" y2="25.1"/>
			<polygon class="st11" points="19.3,25.8 17.4,22 15.5,25.8 19.3,25.8 			"/>
			<g class="st12">
				<defs>
					<polyline id="SVGID_6_" points="218.6,214.3 218.6,8.7 1.6,8.7 1.6,214.3 1.6,214.3 					"/>
				</defs>
				<clipPath id="SVGID_7_">
					<use xlink:href="#SVGID_6_"  style="overflow:visible;"/>
				</clipPath>
				<path class="st13" d="M7.2,17.3c0.2,0,0.4,0,0.5,0.1c0.1,0,0.2,0.1,0.3,0.2s0.2,0.2,0.3,0.4c0.1,0.2,0.1,0.3,0.2,0.5
					c0.1,0.2,0.1,0.5,0.2,0.9c0.1,0.6,0.2,1.3,0.3,2s0.2,1.4,0.3,2c0.5-0.7,0.9-1.4,1.2-2s0.6-1.2,0.7-1.7c0.1-0.5,0.2-0.9,0.2-1.2
					c0-0.2,0-0.4-0.1-0.5c-0.1-0.1-0.3-0.1-0.5-0.1l0.1-0.4h1.9l0.2,0.4c-0.4,1-0.9,2.1-1.5,3.3c-0.6,1.1-1.4,2.3-2.2,3.4
					c-0.8,1.1-1.4,1.9-1.9,2.4c-0.4,0.3-0.7,0.6-1,0.7c-0.3,0.1-0.6,0.2-0.9,0.2c-0.1,0-0.2,0-0.4,0c-0.1,0-0.2,0-0.3-0.1l0.3-1.4
					h0.6c0,0.3,0.1,0.5,0.3,0.5c0.3,0,0.6-0.2,1-0.5c0.4-0.4,0.8-0.9,1.3-1.6c-0.1-0.9-0.3-1.9-0.6-3.1c-0.3-1.3-0.4-2.1-0.5-2.4
					c-0.1-0.4-0.2-0.6-0.3-0.7c-0.1-0.1-0.2-0.1-0.3-0.1c-0.2,0-0.3,0.1-0.4,0.2c-0.1,0.1-0.3,0.4-0.5,0.7l-0.5-0.3
					c0.3-0.5,0.7-0.9,1-1.1C6.5,17.4,6.8,17.3,7.2,17.3L7.2,17.3z"/>
				<g class="st14">
					<defs>
						<polyline id="SVGID_8_" points="218.6,214.3 218.6,8.7 1.6,8.7 1.6,214.3 1.6,214.3 						"/>
					</defs>
					<clipPath id="SVGID_9_">
						<use xlink:href="#SVGID_8_"  style="overflow:visible;"/>
					</clipPath>
					<path class="st15" d="M206.4,184.6c0.2,0,0.3,0,0.4,0.1c0.1,0,0.2,0.1,0.3,0.2c0.1,0.1,0.2,0.2,0.2,0.3s0.1,0.3,0.2,0.5
						c0.1,0.2,0.1,0.4,0.2,0.7s0.1,0.6,0.2,0.9h0.1c0.5-0.7,0.8-1.2,1.1-1.5c0.2-0.3,0.5-0.5,0.6-0.7c0.2-0.2,0.3-0.3,0.5-0.3
						c0.2-0.1,0.4-0.1,0.6-0.1c0.2,0,0.4,0,0.6,0.1l-0.3,1.3h-0.5c0-0.2-0.1-0.3-0.3-0.3c0,0-0.1,0-0.1,0c0,0-0.1,0-0.2,0.1
						s-0.2,0.1-0.3,0.3c-0.1,0.1-0.3,0.3-0.5,0.5c-0.2,0.2-0.4,0.4-0.5,0.7l-0.5,0.6c0.1,0.5,0.2,0.9,0.3,1.2s0.1,0.6,0.2,0.9
						s0.1,0.4,0.2,0.5s0.1,0.2,0.2,0.3c0.1,0.1,0.1,0.1,0.2,0.1c0.1,0,0.1,0,0.2,0c0.1,0,0.3-0.1,0.4-0.2s0.3-0.3,0.5-0.7l0.5,0.3
						c-0.3,0.5-0.7,0.9-0.9,1.1c-0.3,0.2-0.6,0.3-1,0.3c-0.2,0-0.4,0-0.5-0.1s-0.3-0.2-0.4-0.4c-0.1-0.2-0.2-0.4-0.3-0.8
						c-0.2-0.6-0.2-1.1-0.3-1.5h-0.1c-0.5,0.7-0.9,1.3-1.2,1.6c-0.3,0.3-0.5,0.6-0.6,0.7c-0.2,0.2-0.3,0.3-0.5,0.3
						c-0.2,0.1-0.4,0.1-0.6,0.1c-0.2,0-0.4,0-0.6-0.1l0.3-1.3h0.5c0,0.2,0.1,0.3,0.3,0.3c0.1,0,0.1,0,0.2-0.1c0.1,0,0.2-0.1,0.3-0.3
						c0.1-0.1,0.3-0.4,0.6-0.7c0.3-0.3,0.6-0.8,1.1-1.4c-0.1-0.4-0.2-0.8-0.2-1.1c-0.1-0.4-0.2-0.7-0.2-1c-0.1-0.3-0.2-0.5-0.2-0.6
						c-0.1-0.1-0.1-0.2-0.2-0.2s-0.1-0.1-0.2-0.1c-0.1,0-0.2,0-0.3,0.1c-0.1,0-0.2,0.1-0.3,0.2s-0.2,0.3-0.4,0.5l-0.5-0.3
						c0.3-0.5,0.6-0.8,0.9-1.1C205.6,184.8,206,184.6,206.4,184.6L206.4,184.6z"/>
					<g class="st16">
						<defs>
							<polyline id="SVGID_10_" points="218.6,214.3 218.6,8.7 1.6,8.7 1.6,214.3 1.6,214.3 							"/>
						</defs>
						<clipPath id="SVGID_11_">
							<use xlink:href="#SVGID_10_"  style="overflow:visible;"/>
						</clipPath>
						<path class="st17" d="M9.6,185.2c-0.5,0-1,0.2-1.3,0.6s-0.7,1-0.9,1.8S7,189.2,7,189.8c0,0.5,0.1,0.9,0.3,1.2
							c0.2,0.3,0.6,0.4,1,0.4c0.5,0,0.9-0.2,1.3-0.7c0.4-0.4,0.7-1,0.9-1.8c0.2-0.8,0.3-1.5,0.3-2.1c0-0.5-0.1-0.9-0.3-1.2
							C10.4,185.4,10.1,185.2,9.6,185.2L9.6,185.2z M9.8,184.6c0.8,0,1.4,0.2,1.8,0.6c0.4,0.4,0.6,1.1,0.6,1.9
							c0,0.6-0.1,1.2-0.3,1.8c-0.2,0.7-0.5,1.2-0.8,1.6s-0.8,0.8-1.2,1s-1,0.3-1.7,0.3c-0.8,0-1.4-0.2-1.8-0.6
							c-0.4-0.4-0.6-1-0.6-1.9c0-0.4,0.1-0.9,0.2-1.4c0.2-0.7,0.4-1.3,0.8-1.8s0.8-0.9,1.3-1.2S9.1,184.6,9.8,184.6L9.8,184.6z"/>
						<g class="st18">
							<defs>
								<polyline id="SVGID_12_" points="218.6,214.3 218.6,8.7 1.6,8.7 1.6,214.3 1.6,214.3 								"/>
							</defs>
							<clipPath id="SVGID_13_">
								<use xlink:href="#SVGID_12_"  style="overflow:visible;"/>
							</clipPath>
							<g class="st19">
								<defs>
									<polyline id="SVGID_14_" points="218.6,214.3 218.6,8.7 1.6,8.7 1.6,214.3 1.6,214.3 									"/>
								</defs>
								<clipPath id="SVGID_15_">
									<use xlink:href="#SVGID_14_"  style="overflow:visible;"/>
								</clipPath>
								<g class="st20">
									<defs>
										<polyline id="SVGID_16_" points="218.6,214.3 218.6,8.7 1.6,8.7 1.6,214.3 1.6,214.3 										"/>
									</defs>
									<clipPath id="SVGID_17_">
										<use xlink:href="#SVGID_16_"  style="overflow:visible;"/>
									</clipPath>
									<g class="st21">
										<defs>
											<polyline id="SVGID_18_" points="218.6,214.3 218.6,8.7 1.6,8.7 1.6,214.3 1.6,214.3 											"/>
										</defs>
										<clipPath id="SVGID_19_">
											<use xlink:href="#SVGID_18_"  style="overflow:visible;"/>
										</clipPath>
										<g class="st22">
											<defs>
												<polyline id="SVGID_20_" points="218.6,214.3 218.6,8.7 1.6,8.7 1.6,214.3 1.6,214.3 												"/>
											</defs>
											<clipPath id="SVGID_21_">
												<use xlink:href="#SVGID_20_"  style="overflow:visible;"/>
											</clipPath>
											<g class="st23">
												<defs>
													<polyline id="SVGID_22_" points="218.6,214.3 218.6,8.7 1.6,8.7 1.6,214.3 1.6,214.3 													"/>
												</defs>
												<clipPath id="SVGID_23_">
													<use xlink:href="#SVGID_22_"  style="overflow:visible;"/>
												</clipPath>
												<g class="st24">
													<defs>
														<polyline id="SVGID_24_" points="218.6,214.3 218.6,8.7 1.6,8.7 1.6,214.3 1.6,214.3 														"/>
													</defs>
													<clipPath id="SVGID_25_">
														<use xlink:href="#SVGID_24_"  style="overflow:visible;"/>
													</clipPath>
													<g class="st25">
														<defs>
															<polyline id="SVGID_26_" points="218.6,214.3 218.6,8.7 1.6,8.7 1.6,214.3 1.6,214.3 															"/>
														</defs>
														<clipPath id="SVGID_27_">
															<use xlink:href="#SVGID_26_"  style="overflow:visible;"/>
														</clipPath>
														<g class="st26">
															<defs>
																<polyline id="SVGID_28_" points="218.6,214.3 218.6,8.7 1.6,8.7 1.6,214.3 1.6,214.3 																"/>
															</defs>
															<clipPath id="SVGID_29_">
																<use xlink:href="#SVGID_28_"  style="overflow:visible;"/>
															</clipPath>
															<g class="st27">
																<defs>
																	<polyline id="SVGID_30_" points="218.6,214.3 218.6,8.7 1.6,8.7 1.6,214.3 1.6,214.3 																	"/>
																</defs>
																<clipPath id="SVGID_31_">
																	<use xlink:href="#SVGID_30_"  style="overflow:visible;"/>
																</clipPath>
																<g class="st28">
																	<defs>
																		<polyline id="SVGID_32_" points="218.6,214.3 218.6,8.7 1.6,8.7 1.6,214.3 1.6,214.3 																		"/>
																	</defs>
																	<clipPath id="SVGID_33_">
																		<use xlink:href="#SVGID_32_"  style="overflow:visible;"/>
																	</clipPath>
																	<g class="st29">
																		<defs>
																			<polyline id="SVGID_34_" points="218.6,214.3 218.6,8.7 1.6,8.7 1.6,214.3 1.6,214.3 																			"/>
																		</defs>
																		<clipPath id="SVGID_35_">
																			<use xlink:href="#SVGID_34_"  style="overflow:visible;"/>
																		</clipPath>
																		<g class="st30">
																			<defs>
																				<polyline id="SVGID_36_" points="218.6,214.3 218.6,8.7 1.6,8.7 1.6,214.3 1.6,214.3 																				"/>
																			</defs>
																			<clipPath id="SVGID_37_">
																				<use xlink:href="#SVGID_36_"  style="overflow:visible;"/>
																			</clipPath>
																			<g class="st31">
																				<defs>
																					<polyline id="SVGID_38_" points="218.6,214.3 218.6,8.7 1.6,8.7 1.6,214.3 1.6,214.3 																					"/>
																				</defs>
																				<clipPath id="SVGID_39_">
																					<use xlink:href="#SVGID_38_"  style="overflow:visible;"/>
																				</clipPath>
																				<path class="st32" d="M40,92.2c17.5-7.9,35-15.7,51.2-16.2c16.2-0.5,31.5,10.9,46,13.2
																					c14.5,2.3,40.8,0.6,40.8,0.6l0,0"/>
																				<g class="st33">
																					<defs>
																						<polyline id="SVGID_40_" points="218.6,214.3 218.6,8.7 1.6,8.7 1.6,214.3 1.6,214.3 																						
																							"/>
																					</defs>
																					<clipPath id="SVGID_41_">
																						<use xlink:href="#SVGID_40_"  style="overflow:visible;"/>
																					</clipPath>
																					<path class="st34" d="M40.8,184.6c-0.4,0-0.8,0.2-1.1,0.5s-0.6,0.7-0.7,1.3c-0.2,0.5-0.3,1.1-0.3,1.6
																						c0,0.4,0.1,0.7,0.2,0.9c0.1,0.2,0.3,0.3,0.5,0.3c0.3,0,0.5-0.1,0.7-0.3c0.2-0.2,0.5-0.5,0.8-0.9
																						c0.3-0.4,0.4-0.9,0.5-1.4l0.1-0.2c0-0.2,0.1-0.3,0.1-0.4c0-0.1,0-0.2,0-0.4c0-0.3-0.1-0.5-0.2-0.7
																						S41.1,184.6,40.8,184.6L40.8,184.6z M40.7,184.1c0.2,0,0.5,0,0.7,0.1c0.2,0.1,0.4,0.2,0.7,0.3l0.5-0.4l0.4,0.1
																						l-0.8,3.7c-0.1,0.4-0.1,0.6-0.1,0.9c0,0.2,0,0.3,0.1,0.3c0,0.1,0.1,0.1,0.2,0.1c0.1,0,0.2,0,0.4-0.1
																						c0.1-0.1,0.3-0.3,0.6-0.5l0.3,0.3c-0.3,0.4-0.6,0.6-0.9,0.8c-0.2,0.2-0.5,0.2-0.8,0.2c-0.2,0-0.4-0.1-0.6-0.2
																						c-0.1-0.2-0.2-0.4-0.2-0.6c0-0.2,0-0.4,0.1-0.7l-0.1,0c-0.4,0.5-0.7,0.9-1,1.2c-0.3,0.2-0.7,0.4-1,0.4
																						c-0.4,0-0.7-0.2-1-0.5c-0.2-0.3-0.3-0.8-0.3-1.3c0-0.7,0.1-1.3,0.4-1.9c0.3-0.6,0.6-1.1,1.1-1.4
																						C39.6,184.3,40.1,184.1,40.7,184.1L40.7,184.1z"/>
																					<g class="st35">
																						<defs>
																							<polyline id="SVGID_42_" points="218.6,214.3 218.6,8.7 1.6,8.7 1.6,214.3 1.6,214.3 
																																															"/>
																						</defs>
																						<clipPath id="SVGID_43_">
																							<use xlink:href="#SVGID_42_"  style="overflow:visible;"/>
																						</clipPath>
																						<path class="st36" d="M179.2,186.8c-0.2,0-0.4,0.1-0.5,0.2c-0.2,0.1-0.4,0.3-0.6,0.6
																							c-0.2,0.3-0.4,0.5-0.5,0.8c-0.1,0.3-0.3,0.6-0.4,1.1l-0.1,0.2c-0.1,0.3-0.1,0.5-0.1,0.8
																							c0,0.3,0.1,0.5,0.2,0.7c0.1,0.1,0.4,0.2,0.7,0.2c0.2,0,0.3,0,0.4-0.1c0.1-0.1,0.3-0.1,0.4-0.3
																							c0.1-0.1,0.3-0.3,0.4-0.5c0.1-0.2,0.3-0.4,0.4-0.7c0.1-0.3,0.2-0.6,0.3-0.9c0.1-0.3,0.1-0.6,0.1-0.9
																							c0-0.4-0.1-0.7-0.2-0.9C179.6,186.9,179.4,186.8,179.2,186.8L179.2,186.8z M178.2,183.5h0.3l-1,4l0.1,0
																							c0.4-0.5,0.7-0.9,1-1.1c0.3-0.2,0.7-0.3,1-0.3c0.4,0,0.7,0.2,1,0.5c0.2,0.3,0.3,0.8,0.3,1.3
																							c0,0.6-0.1,1.3-0.4,1.9c-0.3,0.6-0.6,1.1-1.1,1.5c-0.5,0.4-1,0.5-1.5,0.5c-0.5,0-1-0.1-1.4-0.4l-0.5,0.4
																							l-0.4-0.1l1.5-6.6c0.1-0.4,0.1-0.7,0.1-0.9c0-0.2,0-0.3-0.1-0.3c-0.1-0.1-0.3-0.1-0.5-0.1l0.1-0.3
																							L178.2,183.5L178.2,183.5z"/>
																					</g>
																				</g>
																			</g>
																		</g>
																	</g>
																</g>
															</g>
														</g>
													</g>
												</g>
											</g>
										</g>
									</g>
								</g>
							</g>
						</g>
					</g>
				</g>
			</g>
		</g>
	</g>
</g>
<g>
	<path class="st37" d="M157.7,73.1c0.1,0,0.1,0,0.2,0c0,0,0.1,0,0.1,0.1s0.1,0.1,0.1,0.1c0,0.1,0.1,0.1,0.1,0.2c0,0.1,0,0.2,0.1,0.3
		c0,0.2,0.1,0.5,0.1,0.7c0,0.3,0.1,0.5,0.1,0.7c0.2-0.3,0.3-0.5,0.5-0.8c0.1-0.2,0.2-0.5,0.3-0.6c0.1-0.2,0.1-0.3,0.1-0.4
		c0-0.1,0-0.1-0.1-0.2c0,0-0.1,0-0.2-0.1l0-0.1h0.7l0.1,0.1c-0.1,0.4-0.3,0.8-0.6,1.2c-0.2,0.4-0.5,0.8-0.8,1.3
		c-0.3,0.4-0.5,0.7-0.7,0.9c-0.1,0.1-0.3,0.2-0.4,0.3c-0.1,0-0.2,0.1-0.3,0.1c0,0-0.1,0-0.1,0c-0.1,0-0.1,0-0.1,0l0.1-0.5h0.2
		c0,0.1,0,0.2,0.1,0.2c0.1,0,0.2-0.1,0.4-0.2s0.3-0.3,0.5-0.6c-0.1-0.3-0.1-0.7-0.2-1.2c-0.1-0.5-0.2-0.8-0.2-0.9
		c0-0.1-0.1-0.2-0.1-0.3c0,0-0.1,0-0.1,0c-0.1,0-0.1,0-0.2,0.1s-0.1,0.1-0.2,0.2l-0.2-0.1c0.1-0.2,0.2-0.3,0.4-0.4
		S157.6,73.1,157.7,73.1L157.7,73.1z"/>
	<path class="st37" d="M162.1,74.5h3.4v0.4h-3.4V74.5L162.1,74.5z M162.1,73.4h3.4v0.4h-3.4V73.4L162.1,73.4z"/>
	<path class="st37" d="M170,71.8c0.2,0,0.3,0,0.5,0l-0.1,0.5h-0.2c0-0.1-0.1-0.2-0.1-0.2c0,0-0.1-0.1-0.2-0.1c-0.1,0-0.2,0-0.3,0.1
		s-0.1,0.1-0.2,0.3s-0.1,0.3-0.1,0.5l-0.1,0.3h0.7l-0.1,0.3h-0.7l-0.5,2.4c-0.1,0.4-0.2,0.7-0.4,0.9c-0.2,0.2-0.4,0.3-0.7,0.3
		c-0.1,0-0.1,0-0.2,0l0-0.2c0,0,0.1,0,0.1,0c0.1,0,0.2,0,0.2-0.1c0.1,0,0.1-0.1,0.2-0.2c0.1-0.1,0.1-0.2,0.1-0.4l0.6-2.6h-0.5l0-0.2
		c0.1,0,0.2,0,0.3,0c0.1,0,0.1,0,0.1-0.1s0.1-0.1,0.1-0.1c0,0,0-0.1,0.1-0.2c0.1-0.3,0.2-0.6,0.4-0.7
		C169.4,71.9,169.7,71.8,170,71.8L170,71.8z"/>
	<path class="st37" d="M176.4,71.6c0.5,0.1,0.9,0.4,1.2,0.9s0.4,1,0.4,1.7c0,0.7-0.1,1.2-0.4,1.7c-0.3,0.5-0.7,0.8-1.2,0.9l-0.1-0.2
		c0.4-0.1,0.7-0.4,0.9-0.8s0.3-0.9,0.3-1.6c0-0.6-0.1-1.1-0.3-1.5s-0.5-0.7-1-0.8L176.4,71.6z M172.8,71.6l0.1,0.2
		c-0.4,0.1-0.7,0.4-0.9,0.8s-0.3,0.9-0.3,1.5c0,0.6,0.1,1.2,0.3,1.6s0.5,0.7,0.9,0.8l-0.1,0.2c-0.5-0.1-0.9-0.4-1.2-0.9
		c-0.3-0.5-0.4-1-0.4-1.7c0-0.7,0.1-1.2,0.4-1.7S172.3,71.7,172.8,71.6L172.8,71.6z"/>
	<path class="st37" d="M174.1,73.1c0.1,0,0.1,0,0.1,0c0,0,0.1,0,0.1,0.1c0,0,0.1,0.1,0.1,0.1c0,0,0.1,0.1,0.1,0.2
		c0,0.1,0,0.2,0.1,0.3c0,0.1,0,0.2,0.1,0.3h0c0.2-0.2,0.3-0.4,0.4-0.5s0.2-0.2,0.2-0.3c0.1-0.1,0.1-0.1,0.2-0.1s0.1,0,0.2,0
		c0.1,0,0.2,0,0.2,0l-0.1,0.5h-0.2c0-0.1,0-0.1-0.1-0.1c0,0,0,0-0.1,0c0,0,0,0-0.1,0c0,0-0.1,0.1-0.1,0.1c-0.1,0.1-0.1,0.1-0.2,0.2
		c-0.1,0.1-0.1,0.2-0.2,0.2l-0.2,0.2c0,0.2,0.1,0.3,0.1,0.5s0.1,0.2,0.1,0.3s0,0.2,0.1,0.2c0,0,0,0.1,0.1,0.1s0,0,0.1,0.1s0,0,0.1,0
		c0,0,0.1,0,0.1-0.1c0,0,0.1-0.1,0.2-0.3l0.2,0.1c-0.1,0.2-0.2,0.3-0.3,0.4s-0.2,0.1-0.4,0.1c-0.1,0-0.1,0-0.2,0
		c-0.1,0-0.1-0.1-0.1-0.1c0-0.1-0.1-0.2-0.1-0.3c-0.1-0.2-0.1-0.4-0.1-0.5h0c-0.2,0.3-0.3,0.5-0.4,0.6c-0.1,0.1-0.2,0.2-0.2,0.3
		c-0.1,0.1-0.1,0.1-0.2,0.1c-0.1,0-0.1,0-0.2,0c-0.1,0-0.2,0-0.2,0l0.1-0.5h0.2c0,0.1,0,0.1,0.1,0.1c0,0,0.1,0,0.1,0
		c0,0,0.1,0,0.1-0.1s0.1-0.1,0.2-0.2c0.1-0.1,0.2-0.3,0.4-0.5c0-0.1-0.1-0.3-0.1-0.4c0-0.1-0.1-0.3-0.1-0.4c0-0.1-0.1-0.2-0.1-0.2
		c0,0,0-0.1-0.1-0.1c0,0-0.1,0-0.1,0c0,0-0.1,0-0.1,0s-0.1,0-0.1,0.1c0,0-0.1,0.1-0.1,0.2l-0.2-0.1c0.1-0.2,0.2-0.3,0.3-0.4
		C173.8,73.1,173.9,73.1,174.1,73.1L174.1,73.1z"/>
	<path class="st37" d="M165.2,81.6c-0.2,0-0.4,0.1-0.5,0.2c-0.1,0.1-0.2,0.2-0.2,0.4c0,0.1,0.1,0.1,0.3,0.1c0.1,0,0.2,0,0.3,0
		c0,0,0.1-0.1,0.1-0.1c0-0.1,0-0.2,0-0.3V81.6z M167.4,80.8c-0.2,0-0.5,0.1-0.6,0.2c-0.1,0.1-0.1,0.2-0.2,0.4
		c-0.1,0.2-0.2,0.4-0.2,0.5c0.1,0,0.2-0.1,0.3-0.1c0.1,0,0.2,0,0.3,0c0.1,0,0.2,0,0.3,0c0.4,0,0.6,0,0.8-0.1
		c0.1-0.1,0.2-0.2,0.2-0.4c0-0.1-0.1-0.3-0.2-0.4C167.8,80.9,167.6,80.8,167.4,80.8L167.4,80.8z M172.2,80.4c-0.1,0-0.2,0-0.3,0.1
		s-0.1,0.1-0.1,0.2c0.4,0,0.6,0,0.7,0c0,0,0-0.1,0-0.1c0-0.1,0-0.1-0.1-0.2S172.3,80.4,172.2,80.4L172.2,80.4z M172.3,80
		c0.1,0,0.2,0,0.3,0.1c0.1,0.1,0.1,0.2,0.1,0.3c0,0.1,0,0.3-0.1,0.4c0.1,0.1,0.2,0.2,0.3,0.3c0.1,0.1,0.1,0.3,0.1,0.4
		c0,0.3-0.1,0.5-0.2,0.7c-0.2,0.2-0.4,0.3-0.6,0.3c-0.1,0-0.3,0-0.4-0.1c-0.1-0.1-0.2-0.2-0.3-0.3c-0.1,0.1-0.2,0.2-0.3,0.3
		c-0.1,0.1-0.2,0.1-0.4,0.1c-0.3,0-0.5-0.1-0.6-0.3c-0.2-0.2-0.2-0.4-0.2-0.8c0-0.3,0.1-0.6,0.3-0.8c0.2-0.2,0.5-0.3,0.8-0.3v0.2
		c-0.2,0-0.4,0.1-0.6,0.2c-0.2,0.2-0.3,0.4-0.3,0.6c0,0.2,0.1,0.3,0.2,0.5s0.3,0.2,0.5,0.2c0.2,0,0.3-0.1,0.4-0.2
		c0.1-0.1,0.1-0.3,0.1-0.6h0.2c0,0.3,0,0.4,0.1,0.6c0.1,0.1,0.2,0.2,0.4,0.2c0.2,0,0.4-0.1,0.5-0.2c0.1-0.1,0.2-0.3,0.2-0.4
		c0-0.2-0.1-0.3-0.2-0.4c-0.1-0.1-0.3-0.1-0.5-0.1h-0.6c0-0.3,0.1-0.5,0.2-0.7C171.9,80.1,172.1,80,172.3,80L172.3,80z M166.5,80
		c0.3,0,0.5,0.1,0.5,0.4c0.2-0.1,0.4-0.2,0.5-0.3c0.2-0.1,0.3-0.1,0.5-0.1c0.4,0,0.7,0.1,0.9,0.4c0.2,0.3,0.4,0.6,0.4,1
		c0,0.3-0.1,0.5-0.2,0.7c-0.1,0.2-0.3,0.3-0.5,0.3c-0.1,0-0.2-0.1-0.4-0.2l0.1-0.1c0.1,0.1,0.2,0.1,0.2,0.1c0.1,0,0.2-0.1,0.3-0.2
		c0.1-0.1,0.1-0.3,0.1-0.5c0-0.3-0.1-0.6-0.3-0.9s-0.5-0.4-0.8-0.4c-0.2,0-0.3,0-0.5,0.1c-0.1,0.1-0.3,0.2-0.5,0.3
		c0.1,0,0.3-0.1,0.4-0.1c0.3,0,0.5,0.1,0.7,0.3c0.2,0.2,0.3,0.4,0.3,0.6c0,0.3-0.1,0.5-0.3,0.6s-0.5,0.2-0.8,0.2
		c-0.2,0-0.4-0.1-0.6-0.2c-0.1-0.1-0.1-0.1-0.2-0.1c-0.1,0-0.2,0.1-0.2,0.2l-0.2-0.1c0.1-0.4,0.2-0.7,0.4-1s0.3-0.5,0.5-0.8
		c0-0.1,0-0.1-0.1-0.2c-0.1-0.1-0.1-0.1-0.2-0.1c0,0-0.1,0-0.1,0c0,0,0,0.1-0.1,0.2c0,0.1-0.1,0.2-0.1,0.3c0,0-0.1,0.1-0.2,0.1
		c-0.1,0-0.1,0-0.2-0.1c0,0-0.1-0.1-0.1-0.2c0-0.1,0-0.2,0.1-0.4C166.2,80.1,166.4,80,166.5,80L166.5,80z M164.3,79.1
		c-0.3,0-0.5,0-0.7,0.1s-0.2,0.2-0.2,0.3c0,0.2,0.1,0.3,0.2,0.4c0.1,0.1,0.3,0.1,0.6,0.2c0.1-0.1,0.2-0.1,0.4-0.1c0,0,0.1,0,0.2,0
		c0.2,0,0.3-0.1,0.4-0.2c0.1-0.1,0.1-0.2,0.1-0.3c0-0.1-0.1-0.3-0.2-0.3S164.6,79.1,164.3,79.1L164.3,79.1z M164.3,78.6
		c0.4,0,0.7,0.1,0.8,0.2s0.3,0.4,0.3,0.6c0,0.1,0,0.3-0.1,0.4c-0.1,0.1-0.2,0.2-0.3,0.3c0.1,0.1,0.3,0.2,0.3,0.4s0.1,0.4,0.1,0.6
		c0,0.7-0.1,1.3-0.3,1.7s-0.4,0.7-0.7,0.8c-0.3,0.1-0.5,0.2-0.7,0.2c-0.3,0-0.5-0.1-0.8-0.2s-0.4-0.4-0.6-0.7l0.1-0.1
		c0.2,0.2,0.3,0.3,0.5,0.4s0.4,0.2,0.7,0.2c0.3,0,0.5-0.1,0.8-0.2c0.3-0.2,0.4-0.4,0.6-0.7c-0.1,0-0.2,0-0.3,0c-0.2,0-0.3,0-0.4-0.1
		s-0.1-0.1-0.1-0.3c0-0.1,0-0.2,0.1-0.3c0.1-0.1,0.1-0.2,0.3-0.3c0.1-0.1,0.3-0.1,0.6-0.1c0-0.3-0.1-0.6-0.2-0.8s-0.3-0.3-0.6-0.3
		c-0.2,0-0.3,0.1-0.4,0.2c-0.1,0.1-0.2,0.3-0.3,0.5l0,0c0,0,0,0,0.1,0c0.1,0,0.2,0.1,0.3,0.2c0.1,0.1,0.1,0.2,0.1,0.4
		c0,0.2-0.1,0.4-0.2,0.6c-0.2,0.2-0.4,0.3-0.6,0.3c-0.3,0-0.5-0.1-0.7-0.3c-0.2-0.2-0.3-0.5-0.3-0.8c0-0.3,0.1-0.6,0.2-0.8
		c0.1-0.2,0.3-0.4,0.6-0.4l0.1,0.2c-0.2,0-0.3,0.1-0.5,0.3s-0.2,0.4-0.2,0.6c0,0.3,0.1,0.5,0.2,0.6c0.2,0.2,0.4,0.3,0.6,0.3
		c0.1,0,0.2,0,0.3-0.1c0.1-0.1,0.1-0.2,0.1-0.3c0-0.1,0-0.2-0.1-0.2c0,0-0.1-0.1-0.1-0.1c-0.1,0-0.2,0.1-0.2,0.2l-0.1,0
		c0.1-0.3,0.2-0.5,0.3-0.7c0.1-0.2,0.2-0.3,0.3-0.4c-0.3,0-0.5-0.1-0.6-0.2c-0.1-0.1-0.2-0.3-0.2-0.5c0-0.2,0.1-0.4,0.3-0.6
		S163.9,78.6,164.3,78.6L164.3,78.6z"/>
</g>
<g>
	<path class="st37" d="M93.2,194.5h1.7c0,0.1-0.1,0.3-0.2,0.5c-0.1,0.2-0.2,0.3-0.3,0.5c0.1,0,0.3,0,0.4,0c0.2,0,0.3,0,0.5,0
		c-0.1,0.2-0.3,0.6-0.6,0.9c-0.2,0.3-0.3,0.6-0.3,0.8c0,0.3,0.1,0.6,0.3,0.8s0.4,0.3,0.7,0.3c0.1,0,0.2,0,0.3-0.1l0,0.3
		c-0.2,0.2-0.5,0.2-0.8,0.2c-0.4,0-0.6-0.1-0.9-0.3c-0.2-0.2-0.3-0.5-0.3-0.9c0-0.2,0-0.3,0.1-0.5c0.1-0.2,0.2-0.4,0.5-0.7
		c0.3-0.4,0.5-0.6,0.5-0.7h-0.2c-0.1,0-0.3,0-0.5,0c-0.2,0-0.3,0.1-0.4,0.1c0.3-0.5,0.5-0.8,0.6-1.1h-1.2V194.5L93.2,194.5z
		 M99.8,194.1c-0.2,0-0.3,0-0.4,0.1s-0.2,0.2-0.2,0.3h0.1c0.4,0,0.7,0.1,0.9,0.2c0.1-0.1,0.1-0.2,0.1-0.2c0-0.1,0-0.2-0.1-0.2
		C100.1,194.1,100,194.1,99.8,194.1L99.8,194.1z M105.7,194.1c-0.2,0-0.4,0-0.5,0.1c-0.1,0.1-0.2,0.2-0.2,0.3c0.7,0,1,0,1.1,0
		c0,0,0-0.1,0-0.2c0-0.1,0-0.2-0.1-0.2C106,194.1,105.9,194.1,105.7,194.1L105.7,194.1z M91,193.7c-0.5,0-0.9,0.2-1.2,0.5
		c-0.4,0.3-0.5,0.7-0.5,1.2c0,0.4,0.1,0.7,0.4,0.9c0.2,0.2,0.6,0.4,1,0.4c0.4,0,0.9-0.2,1.3-0.5s0.6-0.7,0.6-1.2
		c0-0.4-0.1-0.7-0.4-1C91.8,193.8,91.4,193.7,91,193.7L91,193.7z M105.9,193.4c0.2,0,0.4,0.1,0.5,0.2s0.2,0.3,0.2,0.5
		c0,0.2-0.1,0.4-0.2,0.6c0.2,0.1,0.3,0.3,0.4,0.5s0.2,0.4,0.2,0.6c0,0.4-0.1,0.8-0.4,1.1s-0.6,0.5-1,0.5c-0.2,0-0.4-0.1-0.6-0.2
		c-0.2-0.1-0.3-0.3-0.5-0.5c-0.1,0.2-0.3,0.4-0.5,0.5c-0.2,0.1-0.4,0.2-0.6,0.2c-0.4,0-0.7-0.2-1-0.5s-0.4-0.7-0.4-1.2
		c0-0.5,0.2-1,0.5-1.3c0.3-0.3,0.8-0.5,1.3-0.5v0.3c-0.4,0-0.7,0.1-1,0.4s-0.4,0.6-0.4,1c0,0.3,0.1,0.6,0.3,0.8
		c0.2,0.2,0.5,0.3,0.8,0.3c0.3,0,0.6-0.1,0.7-0.3c0.2-0.2,0.2-0.5,0.2-0.9h0.3c0,0.4,0.1,0.7,0.2,0.9c0.2,0.2,0.4,0.3,0.7,0.3
		c0.3,0,0.6-0.1,0.8-0.3c0.2-0.2,0.3-0.4,0.3-0.7c0-0.3-0.1-0.5-0.3-0.6c-0.2-0.1-0.4-0.2-0.8-0.2h-0.9c0-0.5,0.1-0.8,0.3-1.1
		S105.5,193.4,105.9,193.4L105.9,193.4z M97.6,193.4c0.3,0,0.5,0.1,0.7,0.4c0.2,0.2,0.3,0.6,0.3,1c-0.7,0-1.1,0.1-1.4,0.3
		s-0.3,0.4-0.3,0.6c0,0.4,0.2,0.6,0.5,0.8c0.3,0.1,0.8,0.2,1.4,0.2c0.7,0,1.2-0.1,1.5-0.2c0.3-0.2,0.5-0.4,0.5-0.7
		c0-0.3-0.1-0.5-0.4-0.7c-0.2-0.2-0.6-0.3-1-0.3h-0.4c0-0.4,0.1-0.8,0.3-1s0.4-0.4,0.7-0.4c0.2,0,0.4,0.1,0.5,0.2s0.2,0.3,0.2,0.5
		c0,0.2-0.1,0.4-0.2,0.7c0.2,0.1,0.3,0.2,0.4,0.4c0.1,0.2,0.1,0.4,0.1,0.6c0,0.5-0.2,0.9-0.6,1.2s-1,0.4-1.7,0.4
		c-0.7,0-1.3-0.1-1.7-0.4c-0.4-0.3-0.6-0.7-0.6-1.2c0-0.4,0.1-0.7,0.4-0.9c0.3-0.2,0.7-0.4,1.3-0.4h0.1c0-0.2-0.1-0.4-0.1-0.5
		c-0.1-0.1-0.2-0.2-0.3-0.2c-0.1,0-0.2,0-0.2,0.1c-0.1,0-0.1,0.1-0.2,0.3c-0.1,0.1-0.1,0.2-0.2,0.3c-0.1,0-0.1,0.1-0.2,0.1
		c-0.1,0-0.2,0-0.2-0.1c-0.1-0.1-0.1-0.2-0.1-0.3c0-0.2,0.1-0.3,0.2-0.5C97.1,193.5,97.3,193.4,97.6,193.4L97.6,193.4z M93.1,191.8
		c0.1,0,0.2,0,0.2,0.1c0,0.1,0,0.1,0,0.1c0,0.2-0.2,0.4-0.6,0.7c-0.4,0.3-0.9,0.6-1.5,0.8c0.6,0.1,1,0.3,1.3,0.6
		c0.3,0.4,0.5,0.8,0.5,1.3c0,0.6-0.2,1.1-0.7,1.5s-1,0.6-1.5,0.6c-0.6,0-1-0.2-1.4-0.5c-0.3-0.4-0.5-0.8-0.5-1.3
		c0-0.4,0.1-0.8,0.4-1.2s0.8-0.7,1.6-1.1c0.6-0.3,1-0.5,1.3-0.7s0.5-0.4,0.7-0.6C93,191.8,93,191.8,93.1,191.8L93.1,191.8z"/>
	<path class="st37" d="M113.1,190.9l0.1,0.3c-0.7,0.2-1.2,0.7-1.6,1.3c-0.3,0.7-0.5,1.5-0.5,2.5c0,1,0.2,1.9,0.5,2.6
		c0.3,0.7,0.9,1.1,1.5,1.4l-0.1,0.3c-0.9-0.2-1.5-0.7-2-1.5s-0.7-1.7-0.7-2.8c0-1.1,0.2-2,0.7-2.8
		C111.6,191.7,112.3,191.2,113.1,190.9L113.1,190.9z"/>
	<path class="st37" d="M116,191.6c-0.2,0-0.4,0.1-0.5,0.2s-0.3,0.3-0.3,0.5c-0.1,0.2-0.1,0.5-0.2,0.8c0,0.3-0.1,0.7-0.1,1.1
		c0,1,0.1,1.7,0.3,2.1s0.5,0.7,0.8,0.7c0.4,0,0.6-0.2,0.8-0.6c0.2-0.4,0.3-1.1,0.3-2c0-0.7,0-1.2-0.1-1.7c-0.1-0.4-0.2-0.7-0.4-0.9
		S116.2,191.6,116,191.6L116,191.6z M116,191.2c0.7,0,1.1,0.3,1.5,0.8c0.3,0.5,0.5,1.3,0.5,2.3c0,1.1-0.2,1.9-0.5,2.4
		c-0.3,0.5-0.8,0.8-1.5,0.8c-0.6,0-1.1-0.3-1.4-0.8c-0.3-0.5-0.5-1.3-0.5-2.3c0-0.6,0-1,0.1-1.4c0.1-0.4,0.2-0.7,0.4-1
		c0.2-0.3,0.4-0.5,0.6-0.6C115.4,191.3,115.7,191.2,116,191.2L116,191.2z"/>
	<path class="st37" d="M121.1,191.2c0.6,0,1,0.1,1.3,0.4c0.3,0.2,0.4,0.6,0.4,1.1c0,0.2,0,0.3,0,0.4c0,0.1-0.1,0.3-0.1,0.4
		c-0.1,0.1-0.2,0.3-0.3,0.4c-0.1,0.1-0.2,0.3-0.4,0.5s-0.4,0.4-0.7,0.8c-0.6,0.6-1,1.1-1.3,1.6h1.7c0.1,0,0.3,0,0.4,0s0.2,0,0.2-0.1
		s0.1-0.1,0.1-0.2c0-0.1,0.1-0.2,0.1-0.3h0.4l-0.1,1.3h-3.7v-0.2c0.1-0.3,0.3-0.6,0.5-1c0.2-0.3,0.5-0.7,0.9-1.2
		c0.3-0.4,0.6-0.7,0.7-0.9c0.2-0.2,0.3-0.4,0.4-0.6c0.1-0.2,0.1-0.3,0.2-0.4c0-0.1,0.1-0.3,0.1-0.4c0-0.2,0-0.4-0.1-0.6
		c-0.1-0.2-0.2-0.3-0.3-0.4s-0.3-0.1-0.6-0.1c-0.6,0-0.9,0.3-1.1,0.9h-0.5v-0.9c0.4-0.2,0.7-0.3,1-0.4
		C120.6,191.3,120.9,191.2,121.1,191.2L121.1,191.2z"/>
	<path class="st37" d="M123.9,190.9c0.9,0.2,1.5,0.7,2,1.5c0.5,0.8,0.7,1.7,0.7,2.8c0,1.1-0.2,2-0.7,2.8s-1.1,1.3-2,1.5l-0.1-0.3
		c0.7-0.2,1.2-0.7,1.5-1.4s0.5-1.5,0.5-2.6c0-1-0.2-1.9-0.5-2.5c-0.3-0.7-0.9-1.1-1.6-1.3L123.9,190.9z"/>
</g>
</svg>
