<?xml version="1.0" encoding="utf-8"?>
<!-- Generator: Adobe Illustrator 23.0.2, SVG Export Plug-In . SVG Version: 6.00 Build 0)  -->
<svg version="1.0" id="Layer_1" xmlns="http://www.w3.org/2000/svg" xmlns:xlink="http://www.w3.org/1999/xlink" x="0px" y="0px"
	 viewBox="0 0 220 220" style="enable-background:new 0 0 220 220;" xml:space="preserve">
<style type="text/css">
	.st0{fill-rule:evenodd;clip-rule:evenodd;fill:#FFFFFF;}
	.st1{fill:url(#SVGID_1_);stroke:#0303C3;stroke-width:0.9495;stroke-miterlimit:8;}
	.st2{clip-path:url(#SVGID_3_);fill:none;stroke:#000000;stroke-width:0.422;stroke-miterlimit:8;}
	.st3{clip-path:url(#SVGID_3_);}
	.st4{clip-path:url(#SVGID_5_);fill:none;stroke:#000000;stroke-width:1.266;stroke-miterlimit:8;}
	.st5{clip-path:url(#SVGID_5_);fill-rule:evenodd;clip-rule:evenodd;}
	.st6{clip-path:url(#SVGID_5_);}
	.st7{clip-path:url(#SVGID_7_);fill:none;stroke:#000000;stroke-width:1.266;stroke-miterlimit:8;}
	.st8{clip-path:url(#SVGID_7_);fill-rule:evenodd;clip-rule:evenodd;}
	.st9{clip-path:url(#SVGID_7_);}
	.st10{clip-path:url(#SVGID_9_);fill-rule:evenodd;clip-rule:evenodd;}
	.st11{clip-path:url(#SVGID_9_);}
	.st12{clip-path:url(#SVGID_11_);fill-rule:evenodd;clip-rule:evenodd;}
	.st13{clip-path:url(#SVGID_11_);}
	.st14{clip-path:url(#SVGID_13_);fill-rule:evenodd;clip-rule:evenodd;}
	.st15{clip-path:url(#SVGID_13_);}
	.st16{clip-path:url(#SVGID_15_);}
	.st17{clip-path:url(#SVGID_17_);}
	.st18{clip-path:url(#SVGID_19_);}
	.st19{clip-path:url(#SVGID_21_);}
	.st20{clip-path:url(#SVGID_23_);}
	.st21{clip-path:url(#SVGID_25_);}
	.st22{clip-path:url(#SVGID_27_);}
	.st23{clip-path:url(#SVGID_29_);}
	.st24{clip-path:url(#SVGID_31_);}
	.st25{clip-path:url(#SVGID_33_);}
	.st26{clip-path:url(#SVGID_35_);}
	.st27{clip-path:url(#SVGID_37_);}
	.st28{clip-path:url(#SVGID_39_);}
	.st29{clip-path:url(#SVGID_41_);fill:none;stroke:#000000;stroke-width:1.266;stroke-miterlimit:8;}
	.st30{clip-path:url(#SVGID_41_);}
	.st31{clip-path:url(#SVGID_43_);fill-rule:evenodd;clip-rule:evenodd;}
	.st32{clip-path:url(#SVGID_43_);}
	.st33{clip-path:url(#SVGID_45_);fill-rule:evenodd;clip-rule:evenodd;}
	.st34{clip-path:url(#SVGID_45_);}
	.st35{clip-path:url(#SVGID_47_);}
	.st36{fill:none;stroke:#000000;stroke-width:0.633;stroke-miterlimit:8;}
	.st37{clip-path:url(#SVGID_49_);fill:none;stroke:#000000;stroke-width:0.633;stroke-miterlimit:8;}
	.st38{clip-path:url(#SVGID_49_);}
	.st39{clip-path:url(#SVGID_51_);fill-rule:evenodd;clip-rule:evenodd;}
	.st40{clip-path:url(#SVGID_51_);}
	.st41{clip-path:url(#SVGID_53_);fill-rule:evenodd;clip-rule:evenodd;}
	.st42{fill:none;stroke:#000000;stroke-width:0.422;stroke-miterlimit:8;stroke-dasharray:5,2;}
	.st43{fill-rule:evenodd;clip-rule:evenodd;}
</style>
<g>
	<polygon class="st0" points="86,76.1 94.7,76.1 94.7,180.2 86,180.2 86,76.1 	"/>
	<radialGradient id="SVGID_1_" cx="90.351" cy="128.1307" r="36.9177" gradientUnits="userSpaceOnUse">
		<stop  offset="0" style="stop-color:#0303C3;stop-opacity:0.6"/>
		<stop  offset="0" style="stop-color:#0505C4;stop-opacity:0.5819"/>
		<stop  offset="0" style="stop-color:#0E0EC5;stop-opacity:0.5712"/>
		<stop  offset="0" style="stop-color:#1C1CC9;stop-opacity:0.5626"/>
		<stop  offset="0" style="stop-color:#3030CD;stop-opacity:0.555"/>
		<stop  offset="0" style="stop-color:#3737CF;stop-opacity:0.5528"/>
		<stop  offset="9.867089e-02" style="stop-color:#3D3DD0;stop-opacity:0.5256"/>
		<stop  offset="0.2328" style="stop-color:#4F4FD5;stop-opacity:0.4886"/>
		<stop  offset="0.3874" style="stop-color:#6B6BDC;stop-opacity:0.4459"/>
		<stop  offset="0.5572" style="stop-color:#9393E5;stop-opacity:0.399"/>
		<stop  offset="0.7372" style="stop-color:#C5C5F1;stop-opacity:0.3494"/>
		<stop  offset="0.9162" style="stop-color:#FFFFFF;stop-opacity:0.3"/>
		<stop  offset="1" style="stop-color:#E9E9FA;stop-opacity:0.1369"/>
	</radialGradient>
	<path class="st1" d="M86,76.6c2.9-0.2,5.7-0.3,8.6-0.5v104.1H86C86,145.6,86,111.1,86,76.6z"/>
	<g>
		<defs>
			<polyline id="SVGID_2_" points="219,214.5 219,8.9 1.9,8.9 1.9,214.5 1.9,214.5 			"/>
		</defs>
		<clipPath id="SVGID_3_">
			<use xlink:href="#SVGID_2_"  style="overflow:visible;"/>
		</clipPath>
		<polygon class="st2" points="40.3,92 40.3,113.3 40.3,179.8 178.4,180.4 178.1,89.6 141,89.9 126,86.2 111.6,80.1 99.7,77 
			90.2,76.1 80.1,77.6 67.2,81.6 47.3,89.6 40.3,92 40.3,92 		"/>
		<g class="st3">
			<defs>
				<polyline id="SVGID_4_" points="219,214.5 219,8.9 1.9,8.9 1.9,214.5 1.9,214.5 				"/>
			</defs>
			<clipPath id="SVGID_5_">
				<use xlink:href="#SVGID_4_"  style="overflow:visible;"/>
			</clipPath>
			<line class="st4" x1="8.1" y1="180.2" x2="205.4" y2="180.2"/>
			<polygon class="st5" points="204.7,178.3 208.5,180.2 204.7,182.1 204.7,178.3 			"/>
			<g class="st6">
				<defs>
					<polyline id="SVGID_6_" points="219,214.5 219,8.9 1.9,8.9 1.9,214.5 1.9,214.5 					"/>
				</defs>
				<clipPath id="SVGID_7_">
					<use xlink:href="#SVGID_6_"  style="overflow:visible;"/>
				</clipPath>
				<line class="st7" x1="17.7" y1="190.1" x2="17.7" y2="25.3"/>
				<polygon class="st8" points="19.6,25.9 17.7,22.1 15.8,25.9 19.6,25.9 				"/>
				<g class="st9">
					<defs>
						<polyline id="SVGID_8_" points="219,214.5 219,8.9 1.9,8.9 1.9,214.5 1.9,214.5 						"/>
					</defs>
					<clipPath id="SVGID_9_">
						<use xlink:href="#SVGID_8_"  style="overflow:visible;"/>
					</clipPath>
					<path class="st10" d="M7.5,17.5c0.2,0,0.4,0,0.5,0.1c0.1,0,0.2,0.1,0.3,0.2c0.1,0.1,0.2,0.2,0.3,0.4c0.1,0.2,0.1,0.3,0.2,0.5
						c0.1,0.2,0.1,0.5,0.2,0.9c0.1,0.6,0.2,1.3,0.3,2s0.2,1.4,0.3,2c0.5-0.7,0.9-1.4,1.2-2c0.3-0.7,0.6-1.2,0.7-1.7s0.2-0.9,0.2-1.2
						c0-0.2,0-0.4-0.1-0.5c-0.1-0.1-0.3-0.1-0.5-0.1l0.1-0.4h2l0.2,0.4c-0.4,1-0.9,2.1-1.5,3.3c-0.6,1.1-1.4,2.3-2.2,3.4
						c-0.8,1.1-1.4,1.9-2,2.4c-0.4,0.3-0.7,0.6-1,0.7c-0.3,0.1-0.6,0.2-0.9,0.2c-0.1,0-0.2,0-0.4,0c-0.1,0-0.2,0-0.3-0.1l0.3-1.4H6
						c0,0.3,0.1,0.5,0.3,0.5c0.3,0,0.6-0.2,1-0.5c0.4-0.4,0.8-0.9,1.3-1.6c-0.1-0.9-0.3-1.9-0.6-3.1c-0.3-1.3-0.4-2.1-0.5-2.4
						c-0.1-0.4-0.2-0.6-0.3-0.7c-0.1-0.1-0.2-0.1-0.3-0.1c-0.2,0-0.3,0.1-0.4,0.2S6.2,18.9,6,19.2l-0.5-0.3c0.3-0.5,0.7-0.9,1-1.1
						S7.1,17.5,7.5,17.5L7.5,17.5z"/>
					<g class="st11">
						<defs>
							<polyline id="SVGID_10_" points="219,214.5 219,8.9 1.9,8.9 1.9,214.5 1.9,214.5 							"/>
						</defs>
						<clipPath id="SVGID_11_">
							<use xlink:href="#SVGID_10_"  style="overflow:visible;"/>
						</clipPath>
						<path class="st12" d="M206.8,184.9c0.2,0,0.3,0,0.4,0.1c0.1,0,0.2,0.1,0.3,0.2s0.2,0.2,0.2,0.3c0.1,0.1,0.1,0.3,0.2,0.5
							c0.1,0.2,0.1,0.4,0.2,0.7c0.1,0.3,0.1,0.6,0.2,0.9h0.1c0.5-0.7,0.8-1.2,1.1-1.5c0.2-0.3,0.5-0.5,0.6-0.7s0.3-0.3,0.5-0.3
							s0.4-0.1,0.6-0.1c0.2,0,0.4,0,0.6,0.1l-0.3,1.3h-0.5c0-0.2-0.1-0.3-0.3-0.3c0,0-0.1,0-0.1,0c0,0-0.1,0-0.2,0.1
							s-0.2,0.1-0.3,0.3c-0.1,0.1-0.3,0.3-0.5,0.5c-0.2,0.2-0.4,0.4-0.5,0.7l-0.5,0.6c0.1,0.5,0.2,0.9,0.3,1.2
							c0.1,0.3,0.1,0.6,0.2,0.9c0.1,0.2,0.1,0.4,0.2,0.5c0,0.1,0.1,0.2,0.2,0.3s0.1,0.1,0.2,0.1c0.1,0,0.1,0,0.2,0
							c0.1,0,0.3-0.1,0.4-0.2c0.1-0.1,0.3-0.3,0.5-0.7l0.5,0.3c-0.3,0.5-0.7,0.9-0.9,1.1c-0.3,0.2-0.6,0.3-1,0.3
							c-0.2,0-0.4,0-0.5-0.1c-0.1-0.1-0.3-0.2-0.4-0.4c-0.1-0.2-0.2-0.4-0.3-0.8c-0.2-0.6-0.2-1.1-0.3-1.5h-0.1
							c-0.5,0.7-0.9,1.3-1.2,1.6c-0.3,0.3-0.5,0.6-0.6,0.7c-0.2,0.2-0.3,0.3-0.5,0.3c-0.2,0.1-0.4,0.1-0.6,0.1c-0.2,0-0.4,0-0.6-0.1
							l0.3-1.3h0.5c0,0.2,0.1,0.3,0.3,0.3c0.1,0,0.1,0,0.2-0.1c0.1,0,0.2-0.1,0.3-0.3c0.1-0.1,0.3-0.4,0.6-0.7
							c0.3-0.3,0.6-0.8,1.1-1.4c-0.1-0.4-0.2-0.8-0.2-1.1c-0.1-0.4-0.2-0.7-0.2-1c-0.1-0.3-0.2-0.5-0.2-0.6s-0.1-0.2-0.2-0.2
							c-0.1,0-0.1-0.1-0.2-0.1c-0.1,0-0.2,0-0.3,0.1c-0.1,0-0.2,0.1-0.3,0.2s-0.2,0.3-0.4,0.5l-0.5-0.3c0.3-0.5,0.6-0.8,0.9-1.1
							C206,185,206.4,184.9,206.8,184.9L206.8,184.9z"/>
						<g class="st13">
							<defs>
								<polyline id="SVGID_12_" points="219,214.5 219,8.9 1.9,8.9 1.9,214.5 1.9,214.5 								"/>
							</defs>
							<clipPath id="SVGID_13_">
								<use xlink:href="#SVGID_12_"  style="overflow:visible;"/>
							</clipPath>
							<path class="st14" d="M9.9,185.5c-0.5,0-1,0.2-1.3,0.6s-0.7,1-0.9,1.8s-0.3,1.5-0.3,2.1c0,0.5,0.1,0.9,0.3,1.2
								c0.2,0.3,0.6,0.4,1,0.4c0.5,0,0.9-0.2,1.3-0.7c0.4-0.4,0.7-1,0.9-1.8s0.3-1.5,0.3-2.1c0-0.5-0.1-0.9-0.3-1.2
								C10.7,185.6,10.3,185.5,9.9,185.5L9.9,185.5z M10,184.9c0.8,0,1.4,0.2,1.8,0.6c0.4,0.4,0.6,1.1,0.6,1.9
								c0,0.6-0.1,1.2-0.3,1.8c-0.2,0.7-0.5,1.2-0.8,1.6s-0.8,0.8-1.2,1s-1,0.3-1.7,0.3c-0.8,0-1.4-0.2-1.8-0.6
								c-0.4-0.4-0.6-1-0.6-1.9c0-0.4,0.1-0.9,0.2-1.4c0.2-0.7,0.4-1.3,0.8-1.8c0.4-0.5,0.8-0.9,1.3-1.2C8.8,185,9.4,184.9,10,184.9
								L10,184.9z"/>
							<g class="st15">
								<defs>
									<polyline id="SVGID_14_" points="219,214.5 219,8.9 1.9,8.9 1.9,214.5 1.9,214.5 									"/>
								</defs>
								<clipPath id="SVGID_15_">
									<use xlink:href="#SVGID_14_"  style="overflow:visible;"/>
								</clipPath>
								<g class="st16">
									<defs>
										<polyline id="SVGID_16_" points="219,214.5 219,8.9 1.9,8.9 1.9,214.5 1.9,214.5 										"/>
									</defs>
									<clipPath id="SVGID_17_">
										<use xlink:href="#SVGID_16_"  style="overflow:visible;"/>
									</clipPath>
									<g class="st17">
										<defs>
											<polyline id="SVGID_18_" points="219,214.5 219,8.9 1.9,8.9 1.9,214.5 1.9,214.5 											"/>
										</defs>
										<clipPath id="SVGID_19_">
											<use xlink:href="#SVGID_18_"  style="overflow:visible;"/>
										</clipPath>
										<g class="st18">
											<defs>
												<polyline id="SVGID_20_" points="219,214.5 219,8.9 1.9,8.9 1.9,214.5 1.9,214.5 												"/>
											</defs>
											<clipPath id="SVGID_21_">
												<use xlink:href="#SVGID_20_"  style="overflow:visible;"/>
											</clipPath>
											<g class="st19">
												<defs>
													<polyline id="SVGID_22_" points="219,214.5 219,8.9 1.9,8.9 1.9,214.5 1.9,214.5 													"/>
												</defs>
												<clipPath id="SVGID_23_">
													<use xlink:href="#SVGID_22_"  style="overflow:visible;"/>
												</clipPath>
												<g class="st20">
													<defs>
														<polyline id="SVGID_24_" points="219,214.5 219,8.9 1.9,8.9 1.9,214.5 1.9,214.5 														"/>
													</defs>
													<clipPath id="SVGID_25_">
														<use xlink:href="#SVGID_24_"  style="overflow:visible;"/>
													</clipPath>
													<g class="st21">
														<defs>
															<polyline id="SVGID_26_" points="219,214.5 219,8.9 1.9,8.9 1.9,214.5 1.9,214.5 															"/>
														</defs>
														<clipPath id="SVGID_27_">
															<use xlink:href="#SVGID_26_"  style="overflow:visible;"/>
														</clipPath>
														<g class="st22">
															<defs>
																<polyline id="SVGID_28_" points="219,214.5 219,8.9 1.9,8.9 1.9,214.5 1.9,214.5 																"/>
															</defs>
															<clipPath id="SVGID_29_">
																<use xlink:href="#SVGID_28_"  style="overflow:visible;"/>
															</clipPath>
															<g class="st23">
																<defs>
																	<polyline id="SVGID_30_" points="219,214.5 219,8.9 1.9,8.9 1.9,214.5 1.9,214.5 																	"/>
																</defs>
																<clipPath id="SVGID_31_">
																	<use xlink:href="#SVGID_30_"  style="overflow:visible;"/>
																</clipPath>
																<g class="st24">
																	<defs>
																		<polyline id="SVGID_32_" points="219,214.5 219,8.9 1.9,8.9 1.9,214.5 1.9,214.5 																		"/>
																	</defs>
																	<clipPath id="SVGID_33_">
																		<use xlink:href="#SVGID_32_"  style="overflow:visible;"/>
																	</clipPath>
																	<g class="st25">
																		<defs>
																			<polyline id="SVGID_34_" points="219,214.5 219,8.9 1.9,8.9 1.9,214.5 1.9,214.5 																			"/>
																		</defs>
																		<clipPath id="SVGID_35_">
																			<use xlink:href="#SVGID_34_"  style="overflow:visible;"/>
																		</clipPath>
																		<g class="st26">
																			<defs>
																				<polyline id="SVGID_36_" points="219,214.5 219,8.9 1.9,8.9 1.9,214.5 1.9,214.5 																				"/>
																			</defs>
																			<clipPath id="SVGID_37_">
																				<use xlink:href="#SVGID_36_"  style="overflow:visible;"/>
																			</clipPath>
																			<g class="st27">
																				<defs>
																					<polyline id="SVGID_38_" points="219,214.5 219,8.9 1.9,8.9 1.9,214.5 1.9,214.5 																					"/>
																				</defs>
																				<clipPath id="SVGID_39_">
																					<use xlink:href="#SVGID_38_"  style="overflow:visible;"/>
																				</clipPath>
																				<g class="st28">
																					<defs>
																						<polyline id="SVGID_40_" points="219,214.5 219,8.9 1.9,8.9 1.9,214.5 1.9,214.5 																						"/>
																					</defs>
																					<clipPath id="SVGID_41_">
																						<use xlink:href="#SVGID_40_"  style="overflow:visible;"/>
																					</clipPath>
																					<path class="st29" d="M40.3,92.4c17.5-7.9,35-15.7,51.2-16.2c16.2-0.5,31.6,10.9,46,13.2
																						c14.5,2.3,40.8,0.6,40.8,0.6l0,0"/>
																					<g class="st30">
																						<defs>
																							<polyline id="SVGID_42_" points="219,214.5 219,8.9 1.9,8.9 1.9,214.5 1.9,214.5 																							"/>
																						</defs>
																						<clipPath id="SVGID_43_">
																							<use xlink:href="#SVGID_42_"  style="overflow:visible;"/>
																						</clipPath>
																						<path class="st31" d="M41.1,184.8c-0.4,0-0.8,0.2-1.1,0.5c-0.3,0.3-0.6,0.7-0.7,1.3c-0.2,0.5-0.3,1.1-0.3,1.6
																							c0,0.4,0.1,0.7,0.2,0.9s0.3,0.3,0.6,0.3c0.3,0,0.5-0.1,0.7-0.3c0.2-0.2,0.5-0.5,0.8-0.9
																							c0.3-0.4,0.4-0.9,0.6-1.4l0.1-0.2c0-0.2,0.1-0.3,0.1-0.4c0-0.1,0-0.2,0-0.4c0-0.3-0.1-0.5-0.2-0.7
																							S41.4,184.8,41.1,184.8L41.1,184.8z M41,184.4c0.2,0,0.5,0,0.7,0.1c0.2,0.1,0.4,0.2,0.7,0.3l0.5-0.4l0.4,0.1
																							l-0.8,3.7c-0.1,0.4-0.1,0.6-0.1,0.9c0,0.2,0,0.3,0.1,0.3c0,0.1,0.1,0.1,0.2,0.1c0.1,0,0.2,0,0.4-0.1
																							c0.1-0.1,0.3-0.3,0.6-0.5l0.3,0.3c-0.3,0.4-0.6,0.6-0.9,0.8c-0.2,0.2-0.5,0.2-0.8,0.2c-0.2,0-0.4-0.1-0.6-0.2
																							c-0.1-0.2-0.2-0.4-0.2-0.6c0-0.2,0-0.4,0.1-0.7l-0.1,0c-0.4,0.5-0.7,0.9-1,1.2c-0.3,0.2-0.7,0.4-1,0.4
																							c-0.4,0-0.7-0.2-1-0.5c-0.2-0.3-0.3-0.8-0.3-1.3c0-0.7,0.1-1.3,0.4-1.9c0.3-0.6,0.6-1.1,1.1-1.4
																							C39.9,184.5,40.4,184.4,41,184.4L41,184.4z"/>
																						<g class="st32">
																							<defs>
																								<polyline id="SVGID_44_" points="219,214.5 219,8.9 1.9,8.9 1.9,214.5 1.9,214.5 																								
																									"/>
																							</defs>
																							<clipPath id="SVGID_45_">
																								<use xlink:href="#SVGID_44_"  style="overflow:visible;"/>
																							</clipPath>
																							<path class="st33" d="M179.6,187.1c-0.2,0-0.4,0.1-0.5,0.2c-0.2,0.1-0.4,0.3-0.6,0.6s-0.4,0.5-0.5,0.8
																								c-0.1,0.3-0.3,0.6-0.4,1.1l-0.1,0.2c-0.1,0.3-0.1,0.5-0.1,0.8c0,0.3,0.1,0.5,0.2,0.7
																								c0.1,0.1,0.4,0.2,0.7,0.2c0.2,0,0.3,0,0.4-0.1c0.1-0.1,0.3-0.1,0.4-0.3c0.1-0.1,0.3-0.3,0.4-0.5
																								c0.1-0.2,0.3-0.4,0.4-0.7c0.1-0.3,0.2-0.6,0.3-0.9c0.1-0.3,0.1-0.6,0.1-0.9c0-0.4-0.1-0.7-0.2-0.9
																								C180,187.2,179.8,187.1,179.6,187.1L179.6,187.1z M178.6,183.7h0.3l-1,4l0.1,0c0.4-0.5,0.7-0.9,1-1.1
																								c0.3-0.2,0.7-0.3,1-0.3c0.4,0,0.7,0.2,1,0.5c0.2,0.3,0.3,0.8,0.3,1.3c0,0.6-0.1,1.3-0.4,1.9
																								c-0.3,0.6-0.6,1.1-1.1,1.5c-0.5,0.4-1,0.5-1.5,0.5c-0.5,0-1-0.1-1.4-0.4l-0.5,0.4l-0.4-0.1l1.5-6.6
																								c0.1-0.4,0.1-0.7,0.1-0.9c0-0.2,0-0.3-0.1-0.3c-0.1-0.1-0.3-0.1-0.5-0.1l0.1-0.3L178.6,183.7L178.6,183.7z"
																								/>
																							<g class="st34">
																								<defs>
																									<polyline id="SVGID_46_" points="219,214.5 219,8.9 1.9,8.9 1.9,214.5 1.9,214.5 
																																																			"/>
																								</defs>
																								<clipPath id="SVGID_47_">
																									<use xlink:href="#SVGID_46_"  style="overflow:visible;"/>
																								</clipPath>
																								<g class="st35">
																									<g>
																										<polyline class="st36" points="99.7,79.3 99.7,145.8 99.7,177.1 																										"/>
																										<g>
																											<path d="M99.7,79.5c0.7,0.7,2,1,2.9,1c-1.2-0.9-2.3-2.1-2.9-3.5c-0.6,1.4-1.7,2.6-2.9,3.5
																												C97.8,80.4,99,80.2,99.7,79.5z"/>
																										</g>
																										<g>
																											<path d="M99.7,176.9c0.7-0.7,2-1,2.9-1c-1.2,0.9-2.3,2.1-2.9,3.5c-0.6-1.4-1.7-2.6-2.9-3.5
																												C97.8,175.9,99,176.2,99.7,176.9z"/>
																										</g>
																									</g>
																								</g>
																								<g class="st35">
																									<defs>
																										<polyline id="SVGID_48_" points="219,214.5 219,8.9 1.9,8.9 1.9,214.5 1.9,214.5 
																																																					"/>
																									</defs>
																									<clipPath id="SVGID_49_">
																										<use xlink:href="#SVGID_48_"  style="overflow:visible;"/>
																									</clipPath>
																									<path class="st37" d="M94.7,182.1c0,1.2-0.4,2.2-0.9,2.2h-2.3c-0.5,0-0.9,1-0.9,2.2c0-1.2-0.4-2.2-0.9-2.2
																										h-2.7c-0.5,0-0.9-1-0.9-2.2"/>
																									<g class="st38">
																										<defs>
																											<polyline id="SVGID_50_" points="219,214.5 219,8.9 1.9,8.9 1.9,214.5 1.9,214.5 
																																																							"/>
																										</defs>
																										<clipPath id="SVGID_51_">
																											<use xlink:href="#SVGID_50_"  style="overflow:visible;"/>
																										</clipPath>
																										<path class="st39" d="M106.5,128.9c0.1,0,0.2,0,0.3,0c0,0,0.1,0.1,0.1,0.1c0,0,0.1,0.1,0.1,0.2
																											c0,0.1,0.1,0.2,0.1,0.3c0,0.1,0.1,0.2,0.1,0.4c0.1,0.3,0.1,0.7,0.2,1c0.1,0.4,0.1,0.7,0.1,1
																											c0.2-0.3,0.4-0.7,0.6-1c0.2-0.3,0.3-0.6,0.4-0.9c0.1-0.2,0.1-0.4,0.1-0.6c0-0.1,0-0.2-0.1-0.2
																											c0,0-0.1-0.1-0.3-0.1l0-0.2h1l0.1,0.2c-0.2,0.5-0.4,1.1-0.8,1.7c-0.3,0.6-0.7,1.1-1.1,1.7
																											c-0.4,0.5-0.7,0.9-1,1.2c-0.2,0.2-0.4,0.3-0.5,0.4c-0.1,0.1-0.3,0.1-0.4,0.1c-0.1,0-0.1,0-0.2,0
																											c-0.1,0-0.1,0-0.2,0l0.2-0.7h0.3c0,0.2,0.1,0.2,0.2,0.2c0.1,0,0.3-0.1,0.5-0.3c0.2-0.2,0.4-0.4,0.7-0.8
																											c-0.1-0.4-0.2-1-0.3-1.6c-0.1-0.7-0.2-1.1-0.3-1.2c-0.1-0.2-0.1-0.3-0.2-0.4c0,0-0.1,0-0.1,0
																											c-0.1,0-0.2,0-0.2,0.1c-0.1,0.1-0.2,0.2-0.3,0.3l-0.2-0.2c0.2-0.3,0.3-0.4,0.5-0.5
																											C106.1,128.9,106.3,128.9,106.5,128.9L106.5,128.9z"/>
																										<g class="st40">
																											<defs>
																												<polyline id="SVGID_52_" points="219,214.5 219,8.9 1.9,8.9 1.9,214.5 1.9,214.5 
																																																									"/>
																											</defs>
																											<clipPath id="SVGID_53_">
																												<use xlink:href="#SVGID_52_"  style="overflow:visible;"/>
																											</clipPath>
																											<path class="st41" d="M88.8,192.7c-0.4,0.2-0.7,0.4-0.9,0.8s-0.3,0.8-0.3,1.3c0,0.6,0.3,0.9,0.8,0.9
																												c0.2,0,0.4-0.1,0.5-0.2c0.2-0.1,0.3-0.3,0.4-0.6c0.1-0.2,0.1-0.5,0.1-0.8c0-0.3,0-0.6-0.1-0.8
																												C89.1,193.2,89,193,88.8,192.7L88.8,192.7z M92.1,192.3c0.1,0,0.1,0,0.2,0c0.1,0,0.1,0,0.2,0.1
																												c0,0,0.1,0.1,0.1,0.1c0,0.1,0.1,0.1,0.1,0.2c0,0.1,0.1,0.2,0.1,0.4c0,0.1,0.1,0.3,0.1,0.5h0
																												c0.2-0.3,0.4-0.6,0.5-0.7c0.1-0.2,0.2-0.3,0.3-0.3c0.1-0.1,0.2-0.1,0.2-0.2c0.1,0,0.2,0,0.3,0
																												c0.1,0,0.2,0,0.3,0l-0.1,0.7h-0.3c0-0.1-0.1-0.2-0.1-0.2c0,0,0,0-0.1,0c0,0-0.1,0-0.1,0
																												c0,0-0.1,0.1-0.2,0.1c-0.1,0.1-0.1,0.2-0.2,0.3c-0.1,0.1-0.2,0.2-0.3,0.3l-0.3,0.3
																												c0,0.2,0.1,0.4,0.1,0.6c0,0.2,0.1,0.3,0.1,0.4s0.1,0.2,0.1,0.3c0,0.1,0,0.1,0.1,0.2c0,0,0.1,0.1,0.1,0.1
																												s0.1,0,0.1,0c0.1,0,0.1,0,0.2-0.1c0.1-0.1,0.2-0.2,0.3-0.4l0.2,0.2c-0.2,0.3-0.3,0.4-0.5,0.5
																												c-0.1,0.1-0.3,0.2-0.5,0.2c-0.1,0-0.2,0-0.3-0.1s-0.1-0.1-0.2-0.2c-0.1-0.1-0.1-0.2-0.1-0.4
																												c-0.1-0.3-0.1-0.6-0.1-0.7h0c-0.3,0.4-0.5,0.6-0.6,0.8c-0.1,0.2-0.2,0.3-0.3,0.4
																												c-0.1,0.1-0.2,0.1-0.2,0.2c-0.1,0-0.2,0-0.3,0c-0.1,0-0.2,0-0.3,0l0.1-0.7h0.3c0,0.1,0.1,0.2,0.1,0.2
																												c0,0,0.1,0,0.1,0c0,0,0.1-0.1,0.2-0.1s0.2-0.2,0.3-0.3s0.3-0.4,0.5-0.7c0-0.2-0.1-0.4-0.1-0.6
																												c0-0.2-0.1-0.3-0.1-0.5c0-0.2-0.1-0.3-0.1-0.3s-0.1-0.1-0.1-0.1c0,0-0.1,0-0.1,0c-0.1,0-0.1,0-0.1,0
																												c0,0-0.1,0.1-0.1,0.1c0,0.1-0.1,0.1-0.2,0.3l-0.2-0.2c0.2-0.2,0.3-0.4,0.4-0.5
																												C91.7,192.4,91.9,192.3,92.1,192.3L92.1,192.3z M89.2,190.6c0.2,0,0.4,0,0.6,0.1
																												c0.2,0.1,0.5,0.2,0.7,0.4l-0.1,0.6h-0.3c-0.1-0.3-0.2-0.5-0.4-0.6c-0.2-0.1-0.3-0.2-0.6-0.2
																												c-0.2,0-0.3,0-0.4,0.1c-0.1,0.1-0.1,0.2-0.1,0.3c0,0.1,0,0.1,0,0.2c0,0.1,0.1,0.2,0.2,0.3
																												s0.2,0.3,0.4,0.5c0.2,0.3,0.4,0.5,0.5,0.7s0.2,0.3,0.2,0.5c0,0.2,0.1,0.4,0.1,0.6c0,0.3-0.1,0.6-0.2,0.9
																												c-0.1,0.3-0.4,0.5-0.6,0.7s-0.6,0.3-0.9,0.3c-0.3,0-0.6-0.1-0.8-0.2c-0.2-0.1-0.4-0.2-0.4-0.4
																												c-0.1-0.2-0.1-0.4-0.1-0.6c0-0.5,0.1-1,0.4-1.4c0.3-0.4,0.7-0.7,1.3-1c-0.2-0.2-0.3-0.4-0.4-0.6
																												c-0.1-0.2-0.1-0.3-0.1-0.5c0-0.2,0-0.3,0.1-0.4c0.1-0.1,0.2-0.2,0.4-0.3C88.7,190.7,89,190.6,89.2,190.6
																												L89.2,190.6z"/>
																										</g>
																									</g>
																								</g>
																							</g>
																						</g>
																					</g>
																				</g>
																			</g>
																		</g>
																	</g>
																</g>
															</g>
														</g>
													</g>
												</g>
											</g>
										</g>
									</g>
								</g>
							</g>
						</g>
					</g>
				</g>
			</g>
		</g>
	</g>
</g>
<path class="st42" d="M40.9,76.1"/>
<g>
	<path class="st43" d="M154.4,69.7c0.1,0,0.2,0,0.3,0c0.1,0,0.1,0.1,0.2,0.1c0.1,0,0.1,0.1,0.1,0.2c0,0.1,0.1,0.2,0.1,0.3
		c0,0.1,0.1,0.3,0.1,0.4c0.1,0.3,0.1,0.7,0.2,1c0.1,0.4,0.1,0.7,0.1,1c0.2-0.4,0.5-0.7,0.6-1c0.2-0.3,0.3-0.6,0.4-0.9
		s0.1-0.5,0.1-0.6c0-0.1,0-0.2-0.1-0.2c-0.1,0-0.1-0.1-0.3-0.1l0-0.2h1l0.1,0.2c-0.2,0.5-0.5,1.1-0.8,1.7c-0.3,0.6-0.7,1.2-1.1,1.8
		c-0.4,0.6-0.7,1-1,1.2c-0.2,0.2-0.4,0.3-0.5,0.4c-0.1,0.1-0.3,0.1-0.4,0.1c-0.1,0-0.1,0-0.2,0s-0.1,0-0.2,0l0.2-0.7h0.3
		c0,0.2,0.1,0.2,0.2,0.2c0.1,0,0.3-0.1,0.5-0.3c0.2-0.2,0.4-0.5,0.7-0.8c-0.1-0.4-0.2-1-0.3-1.6c-0.1-0.7-0.2-1.1-0.3-1.2
		c-0.1-0.2-0.1-0.3-0.2-0.4c0,0-0.1,0-0.1,0c-0.1,0-0.2,0-0.2,0.1c-0.1,0.1-0.2,0.2-0.3,0.3l-0.2-0.2c0.2-0.3,0.3-0.4,0.5-0.6
		S154.2,69.7,154.4,69.7L154.4,69.7z"/>
	<path class="st43" d="M160.4,71.7h4.7v0.5h-4.7V71.7L160.4,71.7z M160.4,70.2h4.7v0.5h-4.7V70.2L160.4,70.2z"/>
	<path class="st43" d="M171.3,68c0.2,0,0.5,0,0.6,0.1l-0.1,0.6h-0.3c0-0.1-0.1-0.2-0.1-0.3c-0.1-0.1-0.1-0.1-0.3-0.1
		c-0.1,0-0.3,0-0.4,0.1c-0.1,0.1-0.2,0.2-0.3,0.4s-0.1,0.4-0.2,0.6l-0.1,0.4h1l-0.1,0.4h-1l-0.7,3.3c-0.1,0.5-0.3,1-0.5,1.2
		c-0.2,0.3-0.5,0.4-0.9,0.4c-0.1,0-0.2,0-0.3,0l0.1-0.3c0,0,0.1,0,0.2,0c0.1,0,0.2,0,0.3-0.1c0.1-0.1,0.2-0.2,0.2-0.3
		c0.1-0.1,0.1-0.3,0.2-0.6l0.8-3.6h-0.6l0.1-0.3c0.2,0,0.3,0,0.4,0s0.1,0,0.2-0.1s0.1-0.1,0.1-0.1c0-0.1,0.1-0.2,0.1-0.3
		c0.1-0.5,0.3-0.8,0.6-1C170.5,68.1,170.9,68,171.3,68L171.3,68z"/>
	<path class="st43" d="M180.1,67.6c0.7,0.2,1.3,0.6,1.7,1.3s0.6,1.4,0.6,2.3c0,0.9-0.2,1.7-0.6,2.3s-1,1.1-1.7,1.3l-0.1-0.3
		c0.6-0.2,1-0.6,1.3-1.2s0.4-1.3,0.4-2.2c0-0.9-0.1-1.6-0.4-2.1s-0.7-0.9-1.3-1.1L180.1,67.6z M175.2,67.6l0.1,0.3
		c-0.6,0.2-1,0.6-1.3,1.1s-0.4,1.3-0.4,2.1c0,0.9,0.1,1.6,0.4,2.2s0.7,1,1.3,1.2l-0.1,0.3c-0.7-0.2-1.3-0.6-1.7-1.3
		c-0.4-0.6-0.6-1.4-0.6-2.3c0-0.9,0.2-1.7,0.6-2.3S174.5,67.8,175.2,67.6L175.2,67.6z"/>
	<path class="st43" d="M177,69.7c0.1,0,0.1,0,0.2,0c0.1,0,0.1,0,0.2,0.1c0,0,0.1,0.1,0.1,0.1s0.1,0.1,0.1,0.2c0,0.1,0.1,0.2,0.1,0.4
		s0.1,0.3,0.1,0.5h0c0.2-0.3,0.4-0.6,0.6-0.7c0.1-0.2,0.2-0.3,0.3-0.4c0.1-0.1,0.2-0.1,0.2-0.2c0.1,0,0.2,0,0.3,0c0.1,0,0.2,0,0.3,0
		l-0.2,0.7h-0.3c0-0.1-0.1-0.2-0.1-0.2c0,0,0,0-0.1,0c0,0-0.1,0-0.1,0c0,0-0.1,0.1-0.2,0.1s-0.2,0.2-0.2,0.3
		c-0.1,0.1-0.2,0.2-0.3,0.3l-0.3,0.3c0,0.2,0.1,0.5,0.1,0.6s0.1,0.3,0.1,0.4c0,0.1,0.1,0.2,0.1,0.3c0,0.1,0,0.1,0.1,0.2
		c0,0,0.1,0.1,0.1,0.1s0.1,0,0.1,0c0.1,0,0.1,0,0.2-0.1c0.1-0.1,0.2-0.2,0.3-0.4l0.2,0.2c-0.2,0.3-0.3,0.4-0.5,0.6
		c-0.1,0.1-0.3,0.2-0.5,0.2c-0.1,0-0.2,0-0.3-0.1c-0.1,0-0.1-0.1-0.2-0.2c-0.1-0.1-0.1-0.2-0.1-0.4c-0.1-0.3-0.1-0.6-0.1-0.7h0
		c-0.3,0.4-0.5,0.6-0.6,0.8c-0.1,0.2-0.2,0.3-0.3,0.4c-0.1,0.1-0.2,0.1-0.2,0.2c-0.1,0-0.2,0-0.3,0c-0.1,0-0.2,0-0.3,0l0.2-0.7h0.3
		c0,0.1,0.1,0.2,0.1,0.2c0,0,0.1,0,0.1,0c0,0,0.1-0.1,0.2-0.1c0.1-0.1,0.2-0.2,0.3-0.3s0.3-0.4,0.6-0.7c0-0.2-0.1-0.4-0.1-0.6
		c0-0.2-0.1-0.4-0.1-0.5c0-0.2-0.1-0.3-0.1-0.3s-0.1-0.1-0.1-0.1c0,0-0.1,0-0.1,0c-0.1,0-0.1,0-0.1,0c0,0-0.1,0.1-0.1,0.1
		c-0.1,0.1-0.1,0.2-0.2,0.3l-0.2-0.2c0.2-0.2,0.3-0.4,0.5-0.5C176.6,69.8,176.8,69.7,177,69.7L177,69.7z"/>
	<path class="st43" d="M164.7,81.5c-0.3,0-0.6,0.1-0.8,0.3c-0.2,0.2-0.3,0.3-0.3,0.5c0,0.1,0.1,0.2,0.4,0.2c0.2,0,0.3,0,0.4,0
		c0.1,0,0.1-0.1,0.2-0.2c0-0.1,0.1-0.3,0.1-0.5V81.5z M167.7,80.5c-0.3,0-0.6,0.1-0.9,0.3c-0.1,0.1-0.2,0.3-0.3,0.6
		c-0.1,0.3-0.2,0.5-0.3,0.7c0.1-0.1,0.2-0.1,0.4-0.1c0.1,0,0.2,0,0.4,0c0.2,0,0.3,0,0.4,0c0.5,0,0.8-0.1,1-0.2
		c0.2-0.1,0.3-0.3,0.3-0.5c0-0.2-0.1-0.4-0.3-0.6C168.3,80.6,168,80.5,167.7,80.5L167.7,80.5z M174.4,79.8c-0.2,0-0.3,0-0.4,0.1
		c-0.1,0.1-0.2,0.2-0.2,0.3c0.6,0,0.9,0,1,0c0,0,0-0.1,0-0.1c0-0.1,0-0.2-0.1-0.2C174.6,79.9,174.5,79.8,174.4,79.8L174.4,79.8z
		 M174.5,79.3c0.2,0,0.3,0.1,0.5,0.2s0.2,0.2,0.2,0.4c0,0.2,0,0.4-0.1,0.5c0.2,0.1,0.3,0.2,0.4,0.4c0.1,0.2,0.1,0.3,0.1,0.5
		c0,0.4-0.1,0.7-0.3,1c-0.2,0.3-0.5,0.4-0.9,0.4c-0.2,0-0.4,0-0.5-0.1c-0.2-0.1-0.3-0.2-0.4-0.4c-0.1,0.2-0.3,0.3-0.4,0.4
		c-0.2,0.1-0.3,0.1-0.5,0.1c-0.3,0-0.6-0.1-0.9-0.4c-0.2-0.3-0.3-0.6-0.3-1c0-0.4,0.1-0.8,0.4-1.1c0.3-0.3,0.6-0.4,1.1-0.5v0.3
		c-0.3,0-0.6,0.1-0.9,0.3c-0.3,0.2-0.4,0.5-0.4,0.9c0,0.3,0.1,0.5,0.2,0.6c0.2,0.2,0.4,0.3,0.7,0.3c0.3,0,0.5-0.1,0.6-0.3
		c0.1-0.2,0.2-0.4,0.2-0.8h0.3c0,0.3,0.1,0.6,0.2,0.8c0.1,0.2,0.3,0.3,0.6,0.3c0.3,0,0.5-0.1,0.7-0.2c0.2-0.2,0.2-0.4,0.2-0.6
		c0-0.2-0.1-0.4-0.2-0.5c-0.1-0.1-0.4-0.2-0.6-0.2h-0.8c0-0.4,0.1-0.7,0.3-0.9C174,79.4,174.2,79.3,174.5,79.3L174.5,79.3z
		 M166.5,79.3c0.4,0,0.6,0.2,0.8,0.6c0.3-0.2,0.5-0.3,0.7-0.4c0.2-0.1,0.4-0.1,0.7-0.1c0.5,0,0.9,0.2,1.3,0.5
		c0.3,0.3,0.5,0.8,0.5,1.4c0,0.4-0.1,0.7-0.3,1s-0.4,0.4-0.6,0.4c-0.2,0-0.3-0.1-0.5-0.2l0.2-0.2c0.1,0.1,0.2,0.2,0.3,0.2
		c0.2,0,0.3-0.1,0.4-0.2c0.1-0.2,0.2-0.4,0.2-0.6c0-0.5-0.2-0.9-0.5-1.3c-0.3-0.4-0.7-0.6-1.1-0.6c-0.2,0-0.5,0-0.7,0.1
		c-0.2,0.1-0.4,0.2-0.6,0.4c0.2-0.1,0.4-0.1,0.5-0.1c0.4,0,0.7,0.1,1,0.4c0.3,0.2,0.4,0.5,0.4,0.9c0,0.4-0.2,0.7-0.5,0.9
		c-0.3,0.2-0.7,0.3-1.1,0.3c-0.3,0-0.6-0.1-0.9-0.3c-0.1-0.1-0.2-0.1-0.3-0.1c-0.1,0-0.2,0.1-0.3,0.3l-0.2-0.1
		c0.1-0.5,0.3-1,0.5-1.4s0.4-0.8,0.7-1c0-0.1,0-0.2-0.1-0.3c-0.1-0.1-0.2-0.1-0.3-0.1c-0.1,0-0.1,0-0.1,0.1c0,0-0.1,0.1-0.1,0.3
		c0,0.2-0.1,0.3-0.1,0.3s-0.1,0.1-0.2,0.1c-0.1,0-0.2,0-0.2-0.1c-0.1-0.1-0.1-0.1-0.1-0.2c0-0.2,0.1-0.3,0.2-0.5
		C166.1,79.4,166.3,79.3,166.5,79.3L166.5,79.3z M163.4,78.1c-0.4,0-0.7,0-0.9,0.1c-0.2,0.1-0.3,0.2-0.3,0.4c0,0.2,0.1,0.4,0.3,0.5
		c0.2,0.1,0.5,0.2,0.8,0.2c0.2-0.1,0.3-0.1,0.5-0.1c0.1,0,0.1,0,0.3,0c0.2-0.1,0.4-0.1,0.5-0.3c0.1-0.1,0.2-0.2,0.2-0.4
		c0-0.2-0.1-0.3-0.3-0.4C164.2,78.1,163.8,78.1,163.4,78.1L163.4,78.1z M163.4,77.4c0.5,0,0.9,0.1,1.2,0.3c0.3,0.2,0.4,0.5,0.4,0.8
		c0,0.2,0,0.4-0.1,0.5s-0.2,0.3-0.4,0.4c0.2,0.1,0.4,0.3,0.5,0.5c0.1,0.2,0.2,0.5,0.2,0.8c0,1-0.1,1.7-0.4,2.3
		c-0.3,0.6-0.6,0.9-0.9,1.2c-0.4,0.2-0.7,0.3-1,0.3c-0.4,0-0.8-0.1-1.1-0.3c-0.3-0.2-0.6-0.5-0.9-1l0.2-0.2c0.2,0.3,0.4,0.5,0.7,0.6
		c0.3,0.1,0.6,0.2,0.9,0.2c0.4,0,0.7-0.1,1.1-0.3c0.3-0.2,0.6-0.5,0.8-0.9c-0.1,0-0.2,0-0.4,0c-0.3,0-0.5,0-0.6-0.1
		c-0.1-0.1-0.1-0.2-0.1-0.4c0-0.1,0-0.3,0.1-0.4c0.1-0.2,0.2-0.3,0.4-0.4s0.4-0.1,0.8-0.1c0-0.5-0.1-0.8-0.3-1
		c-0.2-0.2-0.5-0.4-0.8-0.4c-0.2,0-0.4,0.1-0.6,0.3c-0.2,0.2-0.3,0.4-0.4,0.8l0,0c0,0,0,0,0.1,0c0.2,0,0.3,0.1,0.4,0.2
		c0.1,0.1,0.2,0.3,0.2,0.5c0,0.3-0.1,0.5-0.3,0.8c-0.2,0.2-0.5,0.4-0.9,0.4c-0.4,0-0.7-0.2-0.9-0.5c-0.2-0.3-0.4-0.7-0.4-1.1
		c0-0.5,0.1-0.8,0.3-1.2c0.2-0.3,0.5-0.5,0.8-0.6l0.1,0.2c-0.3,0-0.5,0.2-0.6,0.4s-0.2,0.5-0.2,0.8c0,0.4,0.1,0.7,0.3,0.9
		c0.2,0.2,0.5,0.4,0.8,0.4c0.2,0,0.3-0.1,0.4-0.2c0.1-0.1,0.2-0.3,0.2-0.5c0-0.1,0-0.2-0.1-0.3c-0.1-0.1-0.1-0.1-0.2-0.1
		c-0.1,0-0.2,0.1-0.3,0.2l-0.2-0.1c0.1-0.4,0.2-0.7,0.4-1c0.1-0.3,0.3-0.5,0.4-0.6c-0.4-0.1-0.6-0.2-0.8-0.3
		c-0.2-0.2-0.3-0.4-0.3-0.7c0-0.3,0.1-0.6,0.4-0.8C162.6,77.5,162.9,77.4,163.4,77.4L163.4,77.4z"/>
</g>
<g>
	<path class="st43" d="M97.5,201.8h1.6c0,0.1-0.1,0.3-0.2,0.5c-0.1,0.2-0.2,0.3-0.3,0.5c0.1,0,0.3,0,0.4,0c0.2,0,0.3,0,0.5,0
		c-0.1,0.2-0.3,0.5-0.6,0.9c-0.2,0.3-0.3,0.6-0.3,0.8c0,0.3,0.1,0.6,0.3,0.8s0.4,0.3,0.7,0.3c0.1,0,0.2,0,0.3-0.1l0,0.3
		c-0.2,0.2-0.5,0.2-0.7,0.2c-0.3,0-0.6-0.1-0.9-0.3c-0.2-0.2-0.3-0.5-0.3-0.8c0-0.2,0-0.3,0.1-0.5c0.1-0.2,0.2-0.4,0.4-0.7
		c0.3-0.3,0.5-0.6,0.5-0.7H99c-0.1,0-0.2,0-0.4,0c-0.2,0-0.3,0.1-0.4,0.1c0.3-0.5,0.5-0.8,0.6-1.1h-1.2V201.8L97.5,201.8z
		 M104,201.3c-0.2,0-0.3,0-0.4,0.1c-0.1,0.1-0.1,0.2-0.2,0.3h0.1c0.4,0,0.7,0.1,0.9,0.2c0.1-0.1,0.1-0.2,0.1-0.2
		c0-0.1,0-0.2-0.1-0.2C104.2,201.3,104.1,201.3,104,201.3L104,201.3z M109.8,201.3c-0.2,0-0.4,0-0.5,0.1c-0.1,0.1-0.2,0.2-0.2,0.3
		c0.7,0,1,0,1.1,0c0,0,0-0.1,0-0.2c0-0.1,0-0.2-0.1-0.2C110.1,201.3,109.9,201.3,109.8,201.3L109.8,201.3z M95.3,200.9
		c-0.5,0-0.9,0.2-1.2,0.5c-0.3,0.3-0.5,0.7-0.5,1.2c0,0.4,0.1,0.7,0.4,0.9c0.2,0.2,0.6,0.4,1,0.4c0.4,0,0.9-0.1,1.2-0.4
		c0.4-0.3,0.6-0.7,0.6-1.2c0-0.4-0.1-0.7-0.4-0.9C96,201,95.7,200.9,95.3,200.9L95.3,200.9z M109.9,200.6c0.2,0,0.4,0.1,0.5,0.2
		c0.1,0.1,0.2,0.3,0.2,0.5c0,0.2-0.1,0.4-0.2,0.6c0.2,0.1,0.3,0.3,0.4,0.5c0.1,0.2,0.2,0.4,0.2,0.6c0,0.4-0.1,0.8-0.4,1.1
		c-0.3,0.3-0.6,0.5-1,0.5c-0.2,0-0.4-0.1-0.6-0.2c-0.2-0.1-0.3-0.3-0.4-0.5c-0.1,0.2-0.3,0.4-0.5,0.5c-0.2,0.1-0.4,0.2-0.6,0.2
		c-0.4,0-0.7-0.2-1-0.5c-0.3-0.3-0.4-0.7-0.4-1.2c0-0.5,0.2-1,0.5-1.3c0.3-0.3,0.8-0.5,1.3-0.5v0.3c-0.4,0-0.7,0.1-1,0.4
		c-0.3,0.3-0.4,0.6-0.4,1c0,0.3,0.1,0.5,0.3,0.8s0.5,0.3,0.8,0.3c0.3,0,0.5-0.1,0.7-0.3s0.2-0.5,0.2-0.9h0.3c0,0.4,0.1,0.7,0.2,0.9
		c0.2,0.2,0.4,0.3,0.7,0.3c0.3,0,0.6-0.1,0.8-0.3c0.2-0.2,0.3-0.4,0.3-0.7c0-0.3-0.1-0.5-0.3-0.6c-0.2-0.1-0.4-0.2-0.8-0.2h-0.9
		c0-0.5,0.1-0.8,0.3-1.1C109.3,200.7,109.6,200.6,109.9,200.6L109.9,200.6z M101.8,200.6c0.3,0,0.5,0.1,0.7,0.4
		c0.2,0.2,0.3,0.6,0.3,1c-0.7,0-1.1,0.1-1.3,0.3c-0.2,0.2-0.3,0.4-0.3,0.6c0,0.4,0.2,0.6,0.5,0.8c0.3,0.1,0.8,0.2,1.3,0.2
		c0.7,0,1.1-0.1,1.5-0.2s0.5-0.4,0.5-0.7c0-0.3-0.1-0.5-0.4-0.7c-0.2-0.2-0.6-0.3-1-0.3h-0.4c0-0.4,0.1-0.7,0.3-1
		c0.2-0.3,0.4-0.4,0.7-0.4c0.2,0,0.4,0.1,0.5,0.2c0.1,0.1,0.2,0.3,0.2,0.5c0,0.2-0.1,0.4-0.2,0.6c0.2,0.1,0.3,0.2,0.4,0.4
		c0.1,0.2,0.1,0.4,0.1,0.6c0,0.5-0.2,0.9-0.6,1.1c-0.4,0.3-1,0.4-1.7,0.4c-0.7,0-1.3-0.1-1.6-0.4s-0.6-0.7-0.6-1.1
		c0-0.4,0.1-0.7,0.4-0.9c0.3-0.2,0.7-0.4,1.2-0.4h0.1c0-0.2-0.1-0.4-0.1-0.5c-0.1-0.1-0.2-0.2-0.3-0.2c-0.1,0-0.2,0-0.2,0.1
		c-0.1,0-0.1,0.1-0.2,0.2c-0.1,0.1-0.1,0.2-0.2,0.3c-0.1,0-0.1,0.1-0.2,0.1c-0.1,0-0.2,0-0.2-0.1c-0.1-0.1-0.1-0.2-0.1-0.3
		c0-0.2,0.1-0.3,0.2-0.5C101.3,200.7,101.5,200.6,101.8,200.6L101.8,200.6z M97.3,199c0.1,0,0.2,0,0.2,0.1c0,0.1,0,0.1,0,0.1
		c0,0.2-0.2,0.4-0.6,0.7c-0.4,0.3-0.9,0.5-1.4,0.8c0.6,0.1,1,0.3,1.3,0.6c0.3,0.4,0.4,0.8,0.4,1.3c0,0.6-0.2,1.1-0.7,1.5
		c-0.5,0.4-1,0.6-1.5,0.6c-0.6,0-1-0.2-1.4-0.5c-0.3-0.4-0.5-0.8-0.5-1.3c0-0.4,0.1-0.8,0.4-1.2c0.3-0.4,0.8-0.7,1.6-1.1
		c0.6-0.3,1-0.5,1.3-0.7s0.5-0.4,0.7-0.6C97.2,199.1,97.3,199,97.3,199L97.3,199z"/>
	<path class="st43" d="M117.1,198.2l0.1,0.3c-0.7,0.2-1.2,0.7-1.5,1.3c-0.3,0.7-0.5,1.5-0.5,2.5c0,1,0.2,1.9,0.5,2.5
		c0.3,0.7,0.8,1.1,1.5,1.3l-0.1,0.3c-0.9-0.2-1.5-0.7-2-1.5c-0.5-0.7-0.7-1.7-0.7-2.7c0-1.1,0.2-2,0.7-2.7
		C115.6,198.9,116.2,198.4,117.1,198.2L117.1,198.2z"/>
	<path class="st43" d="M119.9,198.9c-0.2,0-0.4,0.1-0.5,0.2c-0.1,0.1-0.2,0.3-0.3,0.5s-0.1,0.5-0.2,0.8c0,0.3-0.1,0.7-0.1,1.1
		c0,1,0.1,1.7,0.3,2.1c0.2,0.4,0.5,0.7,0.8,0.7c0.4,0,0.6-0.2,0.8-0.6c0.2-0.4,0.3-1.1,0.3-2c0-0.7,0-1.2-0.1-1.6s-0.2-0.7-0.4-0.9
		S120.1,198.9,119.9,198.9L119.9,198.9z M119.9,198.5c0.6,0,1.1,0.2,1.4,0.7s0.5,1.3,0.5,2.3c0,1-0.2,1.8-0.5,2.4
		c-0.3,0.5-0.8,0.8-1.5,0.8c-0.6,0-1.1-0.3-1.4-0.8s-0.5-1.3-0.5-2.3c0-0.5,0-1,0.1-1.4c0.1-0.4,0.2-0.7,0.4-1
		c0.2-0.3,0.4-0.4,0.6-0.6C119.3,198.6,119.6,198.5,119.9,198.5L119.9,198.5z"/>
	<path class="st43" d="M125.2,199.5l-1.7,2.7v0.1h1.7v-1.1c0-0.3,0-0.6,0-0.9C125.2,200,125.2,199.7,125.2,199.5L125.2,199.5z
		 M125.3,198.5h0.6v3.8h0.1c0.2,0,0.3,0,0.4,0s0.1-0.1,0.2-0.1c0-0.1,0.1-0.2,0.1-0.3h0.3l-0.1,0.9h-1.1v0.7c0,0.2,0,0.3,0,0.4
		s0,0.2,0.1,0.2c0,0.1,0.1,0.1,0.1,0.1c0.1,0,0.2,0.1,0.3,0.1v0.2h-1.8v-0.2c0.2,0,0.3-0.1,0.4-0.2s0.1-0.1,0.1-0.2
		c0-0.1,0-0.3,0-0.5v-0.7h-2.5v-0.3L125.3,198.5L125.3,198.5z"/>
	<path class="st43" d="M127.7,198.2c0.9,0.2,1.5,0.7,2,1.5c0.5,0.8,0.7,1.7,0.7,2.7c0,1.1-0.2,2-0.7,2.7s-1.1,1.2-2,1.5l-0.1-0.3
		c0.7-0.2,1.2-0.7,1.5-1.3s0.5-1.5,0.5-2.5c0-1-0.2-1.8-0.5-2.5s-0.8-1.1-1.5-1.3L127.7,198.2z"/>
</g>
</svg>
