<?xml version="1.0" encoding="utf-8"?>
<!-- Generator: Adobe Illustrator 23.0.2, SVG Export Plug-In . SVG Version: 6.00 Build 0)  -->
<svg version="1.0" id="Layer_1" xmlns="http://www.w3.org/2000/svg" xmlns:xlink="http://www.w3.org/1999/xlink" x="0px" y="0px"
	 viewBox="0 0 215 145.5" style="enable-background:new 0 0 215 145.5;" xml:space="preserve">
<style type="text/css">
	.st0{fill-rule:evenodd;clip-rule:evenodd;}
	.st1{fill:none;stroke:#000000;stroke-width:0.6675;stroke-miterlimit:8;}
	.st2{clip-path:url(#SVGID_2_);fill-rule:evenodd;clip-rule:evenodd;}
	.st3{clip-path:url(#SVGID_2_);}
	.st4{clip-path:url(#SVGID_4_);fill-rule:evenodd;clip-rule:evenodd;}
	.st5{clip-path:url(#SVGID_4_);}
	.st6{clip-path:url(#SVGID_6_);}
	.st7{fill:none;stroke:#000000;stroke-width:0.445;stroke-miterlimit:8;}
	.st8{clip-path:url(#SVGID_8_);}
	.st9{clip-path:url(#SVGID_10_);}
	.st10{clip-path:url(#SVGID_12_);}
	.st11{clip-path:url(#SVGID_14_);}
	.st12{clip-path:url(#SVGID_16_);}
	.st13{clip-path:url(#SVGID_18_);}
	.st14{clip-path:url(#SVGID_20_);fill-rule:evenodd;clip-rule:evenodd;}
	.st15{clip-path:url(#SVGID_20_);}
	.st16{clip-path:url(#SVGID_22_);}
	.st17{clip-path:url(#SVGID_24_);}
	.st18{clip-path:url(#SVGID_26_);}
	.st19{clip-path:url(#SVGID_28_);}
	.st20{clip-path:url(#SVGID_30_);}
	.st21{clip-path:url(#SVGID_32_);}
	.st22{clip-path:url(#SVGID_34_);}
	.st23{clip-path:url(#SVGID_36_);}
	.st24{clip-path:url(#SVGID_38_);}
	.st25{clip-path:url(#SVGID_40_);}
	.st26{clip-path:url(#SVGID_42_);}
	.st27{clip-path:url(#SVGID_44_);}
	.st28{clip-path:url(#SVGID_46_);}
	.st29{clip-path:url(#SVGID_48_);}
	.st30{clip-path:url(#SVGID_50_);}
	.st31{clip-path:url(#SVGID_52_);fill:none;stroke:#0303C3;stroke-width:0.445;stroke-miterlimit:8;}
	.st32{clip-path:url(#SVGID_52_);}
	.st33{clip-path:url(#SVGID_54_);fill:none;stroke:#0303C3;stroke-width:0.445;stroke-miterlimit:8;}
	.st34{fill-rule:evenodd;clip-rule:evenodd;fill:#0303C3;}
</style>
<g>
	<path class="st0" d="M35.4,44.5h2.1l-0.1,0.3c-0.1,0-0.2,0.1-0.3,0.1S37,44.9,37,45s-0.1,0.2-0.1,0.3c0,0.1-0.1,0.4-0.2,0.7l-0.9,4
		c0,0.2-0.1,0.4-0.1,0.5s0,0.2,0,0.3c0,0.2,0,0.3,0.1,0.3c0.1,0.1,0.2,0.1,0.4,0.1l-0.1,0.3H34l0.1-0.3c0.1,0,0.2-0.1,0.3-0.1
		c0.1,0,0.1-0.1,0.2-0.2c0-0.1,0.1-0.2,0.1-0.3c0-0.1,0.1-0.4,0.2-0.7l0.9-4c0.1-0.3,0.1-0.6,0.1-0.8c0-0.2,0-0.3-0.1-0.3
		c-0.1-0.1-0.2-0.1-0.4-0.1L35.4,44.5z"/>
	<path class="st0" d="M41.9,49.3h6.4V50h-6.4V49.3L41.9,49.3z M41.9,47.1h6.4v0.7h-6.4V47.1L41.9,47.1z"/>
	<path class="st0" d="M61.1,37.1c0.2,0,0.4,0,0.5,0c0.2,0,0.3,0.1,0.4,0.1l-0.1,1.1h-0.6c0-0.2-0.1-0.3-0.1-0.4
		c-0.1-0.1-0.2-0.1-0.4-0.1c-0.5,0-0.8,0.5-1.1,1.6c-0.2,1.1-0.4,4.1-0.6,9.1c-0.2,4.5-0.5,7.5-1,9.1C57.5,59.2,56.8,60,56,60
		c-0.2,0-0.3,0-0.5,0c-0.1,0-0.3-0.1-0.4-0.1l0.1-1.1h0.5c0.1,0.2,0.1,0.4,0.2,0.5c0.1,0.1,0.2,0.1,0.4,0.1c0.3,0,0.6-0.5,0.9-1.6
		c0.3-1.1,0.5-3.9,0.7-8.5c0.2-5,0.5-8.2,1-9.8C59.3,37.9,60,37.1,61.1,37.1L61.1,37.1z"/>
	<path class="st0" d="M66.8,46.5c0.1,0,0.3,0,0.4,0.1c0.1,0,0.1,0.1,0.2,0.1s0.1,0.2,0.2,0.3c0.1,0.1,0.1,0.2,0.1,0.4
		c0,0.1,0.1,0.3,0.1,0.6c0.1,0.4,0.2,0.9,0.2,1.4s0.1,1,0.2,1.4c0.3-0.5,0.6-1,0.9-1.4c0.2-0.5,0.4-0.9,0.5-1.2
		c0.1-0.3,0.2-0.6,0.2-0.8c0-0.2,0-0.3-0.1-0.3s-0.2-0.1-0.4-0.1l0.1-0.3h1.4l0.1,0.3c-0.3,0.7-0.6,1.5-1.1,2.3
		c-0.4,0.8-1,1.6-1.5,2.4c-0.5,0.8-1,1.3-1.4,1.7c-0.3,0.2-0.5,0.4-0.7,0.5c-0.2,0.1-0.4,0.1-0.6,0.1c-0.1,0-0.2,0-0.3,0
		c-0.1,0-0.2,0-0.2,0l0.2-1h0.4c0,0.2,0.1,0.3,0.2,0.3c0.2,0,0.4-0.1,0.7-0.4c0.3-0.3,0.6-0.6,0.9-1.1c-0.1-0.6-0.2-1.3-0.4-2.2
		c-0.2-0.9-0.3-1.5-0.4-1.7c-0.1-0.3-0.1-0.4-0.2-0.5c0,0-0.1-0.1-0.2-0.1c-0.1,0-0.2,0-0.3,0.1c-0.1,0.1-0.2,0.2-0.4,0.5l-0.3-0.2
		c0.2-0.4,0.5-0.6,0.7-0.8C66.3,46.6,66.5,46.5,66.8,46.5L66.8,46.5z"/>
	<path class="st0" d="M76.9,47c-0.4,0-0.7,0.1-1,0.4s-0.5,0.7-0.7,1.2C75.1,49,75,49.5,75,50c0,0.4,0,0.6,0.1,0.8
		c0.1,0.2,0.3,0.3,0.5,0.3c0.1,0,0.2,0,0.3-0.1c0.1,0,0.2-0.1,0.3-0.2c0.1-0.1,0.2-0.2,0.4-0.4c0.1-0.1,0.2-0.3,0.3-0.5
		s0.2-0.3,0.3-0.5s0.2-0.5,0.2-0.7l0-0.2c0.1-0.3,0.1-0.5,0.1-0.7c0-0.3-0.1-0.5-0.2-0.6C77.3,47,77.1,47,76.9,47L76.9,47z
		 M81.8,46.5c0.1,0,0.2,0,0.3,0s0.2,0.1,0.2,0.1c0.1,0.1,0.1,0.1,0.2,0.2s0.1,0.2,0.1,0.3c0,0.1,0.1,0.3,0.1,0.5
		c0,0.2,0.1,0.4,0.1,0.6h0.1c0.3-0.5,0.6-0.8,0.8-1c0.2-0.2,0.3-0.4,0.4-0.5c0.1-0.1,0.2-0.2,0.3-0.2c0.1,0,0.3-0.1,0.4-0.1
		c0.2,0,0.3,0,0.4,0.1l-0.2,0.9h-0.4c0-0.1-0.1-0.2-0.2-0.2c0,0-0.1,0-0.1,0c0,0-0.1,0-0.1,0.1c-0.1,0-0.1,0.1-0.2,0.2
		c-0.1,0.1-0.2,0.2-0.3,0.4c-0.1,0.1-0.2,0.3-0.4,0.5L83,48.9c0.1,0.3,0.1,0.6,0.2,0.9c0.1,0.2,0.1,0.4,0.1,0.6
		c0,0.2,0.1,0.3,0.1,0.4c0,0.1,0.1,0.2,0.1,0.2c0,0,0.1,0.1,0.1,0.1s0.1,0,0.1,0c0.1,0,0.2,0,0.3-0.1s0.2-0.2,0.4-0.5l0.3,0.2
		c-0.2,0.4-0.5,0.6-0.7,0.8c-0.2,0.1-0.4,0.2-0.7,0.2c-0.1,0-0.3,0-0.4-0.1c-0.1-0.1-0.2-0.1-0.3-0.3c-0.1-0.1-0.1-0.3-0.2-0.6
		c-0.1-0.4-0.2-0.8-0.2-1h-0.1c-0.4,0.5-0.6,0.9-0.8,1.1s-0.3,0.4-0.4,0.5c-0.1,0.1-0.2,0.2-0.3,0.2c-0.1,0-0.3,0.1-0.4,0.1
		c-0.2,0-0.3,0-0.4-0.1l0.2-0.9h0.4c0,0.1,0.1,0.2,0.2,0.2c0,0,0.1,0,0.2,0c0.1,0,0.1-0.1,0.2-0.2s0.2-0.3,0.4-0.5s0.4-0.5,0.8-1
		c-0.1-0.3-0.1-0.5-0.2-0.8C82,48.2,82,48,81.9,47.8c-0.1-0.2-0.1-0.4-0.1-0.4c0-0.1-0.1-0.1-0.1-0.1s-0.1,0-0.2,0
		c-0.1,0-0.1,0-0.2,0c-0.1,0-0.1,0.1-0.2,0.2c-0.1,0.1-0.2,0.2-0.3,0.4l-0.3-0.2c0.2-0.3,0.4-0.6,0.6-0.7
		C81.3,46.6,81.5,46.5,81.8,46.5L81.8,46.5z M79.1,44.2h0.3l-1.3,5.8C78,50.3,78,50.5,78,50.7c0,0.1,0,0.2,0.1,0.3
		c0,0.1,0.1,0.1,0.2,0.1c0.1,0,0.2,0,0.3-0.1s0.3-0.2,0.5-0.5l0.3,0.3c-0.3,0.3-0.6,0.6-0.8,0.7s-0.5,0.2-0.7,0.2
		c-0.2,0-0.4-0.1-0.5-0.2c-0.1-0.1-0.2-0.3-0.2-0.6c0-0.2,0-0.4,0.1-0.6l-0.1,0c-0.3,0.5-0.7,0.8-0.9,1.1c-0.3,0.2-0.6,0.3-0.9,0.3
		c-0.4,0-0.7-0.1-0.9-0.4c-0.2-0.3-0.3-0.7-0.3-1.2c0-0.6,0.1-1.2,0.4-1.7c0.2-0.6,0.6-1,1-1.3c0.4-0.3,0.9-0.5,1.4-0.5
		c0.2,0,0.4,0,0.6,0.1c0.2,0,0.4,0.1,0.6,0.2l0.3-1.2c0-0.1,0.1-0.2,0.1-0.4c0-0.1,0-0.3,0-0.4c0-0.1,0-0.2-0.1-0.2
		c0-0.1-0.1-0.1-0.2-0.1c-0.1,0-0.2,0-0.4-0.1l0.1-0.3L79.1,44.2L79.1,44.2z"/>
	<path class="st0" d="M61.3,31c-0.1,0-0.2,0-0.4,0.1c-0.1,0.1-0.3,0.2-0.4,0.3c-0.1,0.1-0.3,0.3-0.4,0.5c-0.1,0.2-0.2,0.5-0.3,0.7
		c0,0.1,0,0.3-0.1,0.4c0,0.1,0,0.3,0,0.4c0,0.2,0,0.4,0.1,0.4s0.2,0.1,0.4,0.1c0.2,0,0.4-0.1,0.6-0.2c0.2-0.1,0.3-0.3,0.5-0.5
		c0.1-0.2,0.2-0.5,0.3-0.7c0.1-0.3,0.1-0.5,0.1-0.8c0-0.3,0-0.5-0.1-0.6C61.6,31.1,61.5,31,61.3,31L61.3,31z M60.4,29.2h0.3
		l-0.5,2.2l0.1,0c0.1-0.2,0.3-0.3,0.4-0.4c0.1-0.1,0.2-0.2,0.3-0.3c0.1-0.1,0.2-0.1,0.3-0.2c0.1,0,0.2-0.1,0.3-0.1
		c0.3,0,0.5,0.1,0.7,0.3c0.2,0.2,0.2,0.5,0.2,1c0,0.4-0.1,0.7-0.2,1c-0.1,0.3-0.3,0.6-0.5,0.9c-0.2,0.2-0.4,0.4-0.7,0.6
		s-0.5,0.2-0.8,0.2c-0.2,0-0.4,0-0.5-0.1c-0.2,0-0.3-0.1-0.5-0.2c-0.1,0-0.1,0.1-0.2,0.1c-0.1,0-0.1,0.1-0.2,0.1c0,0-0.1,0-0.1,0
		c-0.1,0-0.1,0-0.1,0l0.9-4.1c0-0.1,0-0.2,0.1-0.3c0-0.1,0-0.2,0-0.2c0,0,0-0.1,0-0.1c0,0,0-0.1-0.1-0.1s-0.1,0-0.2,0s-0.1,0-0.2,0
		l0.1-0.3L60.4,29.2L60.4,29.2z"/>
	<path class="st0" d="M57,63c-0.1,0-0.3,0-0.4,0.1c-0.1,0.1-0.2,0.2-0.4,0.3s-0.2,0.2-0.3,0.4c-0.1,0.1-0.2,0.3-0.2,0.5
		c-0.1,0.2-0.1,0.3-0.1,0.5s0,0.3,0,0.5c0,0.3,0,0.5,0.1,0.6c0.1,0.1,0.2,0.2,0.4,0.2c0.1,0,0.2,0,0.2,0c0.1,0,0.2-0.1,0.3-0.1
		c0.2-0.2,0.4-0.4,0.6-0.6c0.2-0.3,0.3-0.5,0.4-0.9c0-0.2,0.1-0.3,0.1-0.4c0-0.1,0-0.2,0-0.4c0-0.2,0-0.3-0.1-0.4
		C57.4,63.1,57.3,63,57,63L57,63z M57,62.6c0.2,0,0.4,0,0.5,0.1c0.2,0,0.3,0.1,0.4,0.2l0.4-0.3l0.3,0.1L58,65.2
		c0,0.1-0.1,0.3-0.1,0.4c0,0.1,0,0.2,0,0.2c0,0.1,0,0.2,0.1,0.2c0,0,0.1,0.1,0.2,0.1c0,0,0.1,0,0.1,0c0,0,0.1,0,0.1-0.1
		c0.1,0,0.1-0.1,0.2-0.1c0.1-0.1,0.1-0.1,0.2-0.2c0,0,0.1,0.1,0.1,0.1c0,0,0.1,0.1,0.1,0.1c-0.1,0.1-0.2,0.2-0.3,0.3
		c-0.1,0.1-0.2,0.2-0.3,0.2c-0.1,0.1-0.2,0.1-0.3,0.1c-0.1,0-0.2,0-0.3,0c-0.2,0-0.3-0.1-0.4-0.2c-0.1-0.1-0.2-0.3-0.2-0.5
		c0-0.1,0-0.2,0.1-0.3l-0.1,0c-0.1,0.2-0.3,0.3-0.4,0.5c-0.1,0.1-0.2,0.2-0.4,0.3c-0.1,0.1-0.2,0.1-0.4,0.2c-0.1,0-0.2,0.1-0.4,0.1
		c-0.3,0-0.5-0.1-0.7-0.3c-0.2-0.2-0.2-0.5-0.2-0.9c0-0.2,0-0.5,0.1-0.7c0.1-0.2,0.1-0.4,0.2-0.6c0.1-0.2,0.2-0.4,0.3-0.5
		c0.1-0.2,0.3-0.3,0.4-0.4c0.2-0.1,0.3-0.2,0.5-0.3C56.6,62.7,56.8,62.6,57,62.6L57,62.6z"/>
	<path class="st0" d="M89.5,49.3h6.4V50h-6.4V49.3L89.5,49.3z M89.5,47.1h6.4v0.7h-6.4V47.1L89.5,47.1z"/>
	<path class="st0" d="M100.2,44.5h2l-0.1,0.3c-0.1,0-0.3,0.1-0.3,0.1c-0.1,0.1-0.1,0.2-0.1,0.3c0,0.2,0,0.5,0.1,0.8l0.6,2l1.3-1.7
		c0.3-0.3,0.4-0.6,0.5-0.8c0.1-0.2,0.1-0.3,0.1-0.4c0-0.1,0-0.2-0.1-0.2c-0.1-0.1-0.2-0.1-0.3-0.1l0.1-0.3h2l-0.1,0.3
		c-0.1,0-0.2,0-0.2,0.1c-0.1,0-0.1,0.1-0.2,0.2c-0.1,0.1-0.2,0.2-0.3,0.4c-0.1,0.2-0.3,0.4-0.5,0.6l-2,2.6l-0.3,1.5
		c0,0.1-0.1,0.2-0.1,0.3c0,0.1,0,0.2,0,0.3s0,0.2,0,0.2c0,0.1,0,0.2,0.1,0.3c0,0.1,0.1,0.1,0.2,0.1c0.1,0,0.2,0,0.4,0.1l-0.1,0.3
		h-2.2l0.1-0.3c0.1,0,0.2,0,0.3-0.1c0.1,0,0.1-0.1,0.2-0.2s0.1-0.2,0.2-0.3c0.1-0.2,0.1-0.4,0.2-0.7l0.3-1.4l-0.8-2.6
		c-0.1-0.4-0.2-0.7-0.3-0.8c-0.1-0.1-0.1-0.2-0.2-0.3c-0.1-0.1-0.2-0.1-0.3-0.1L100.2,44.5z"/>
	<path class="st0" d="M120.7,49.4h6.4v0.7h-6.4V49.4L120.7,49.4z M120.7,47.3h6.4V48h-6.4V47.3L120.7,47.3z"/>
	<path class="st0" d="M131.4,44.6h2l-0.1,0.3c-0.1,0-0.3,0.1-0.3,0.1s-0.1,0.2-0.1,0.3c0,0.2,0,0.5,0.1,0.8l0.6,2l1.3-1.7
		c0.3-0.3,0.4-0.6,0.5-0.8s0.1-0.3,0.1-0.4c0-0.1,0-0.2-0.1-0.2c-0.1-0.1-0.2-0.1-0.3-0.1l0.1-0.3h2l-0.1,0.3c-0.1,0-0.2,0-0.2,0.1
		c-0.1,0-0.1,0.1-0.2,0.2c-0.1,0.1-0.2,0.2-0.3,0.4c-0.1,0.2-0.3,0.4-0.5,0.6l-2,2.6l-0.3,1.5c0,0.1-0.1,0.2-0.1,0.3s0,0.2,0,0.3
		c0,0.1,0,0.2,0,0.2c0,0.1,0,0.2,0.1,0.3c0,0.1,0.1,0.1,0.2,0.1c0.1,0,0.2,0,0.4,0.1l-0.1,0.3h-2.2l0.1-0.3c0.1,0,0.2,0,0.3-0.1
		s0.1-0.1,0.2-0.2c0.1-0.1,0.1-0.2,0.2-0.3c0.1-0.2,0.1-0.4,0.2-0.7l0.3-1.4l-0.8-2.6c-0.1-0.4-0.2-0.7-0.3-0.8
		c-0.1-0.1-0.1-0.2-0.2-0.3c-0.1-0.1-0.2-0.1-0.3-0.1L131.4,44.6z"/>
	<path class="st0" d="M148.3,43.8c1,0.3,1.8,0.8,2.3,1.7c0.5,0.9,0.8,2,0.8,3.2c0,1.3-0.3,2.3-0.8,3.2c-0.5,0.9-1.3,1.5-2.3,1.7
		l-0.1-0.4c0.8-0.3,1.4-0.8,1.8-1.6c0.4-0.8,0.6-1.8,0.6-3c0-1.2-0.2-2.2-0.6-2.9c-0.4-0.8-1-1.3-1.8-1.6L148.3,43.8z M141.6,43.8
		l0.1,0.4c-0.8,0.3-1.4,0.8-1.8,1.6c-0.4,0.8-0.6,1.8-0.6,2.9c0,1.2,0.2,2.2,0.6,3c0.4,0.8,1,1.3,1.8,1.6l-0.1,0.4
		c-1-0.3-1.8-0.8-2.3-1.7s-0.8-2-0.8-3.2c0-1.3,0.3-2.3,0.8-3.2C139.8,44.6,140.6,44,141.6,43.8L141.6,43.8z"/>
	<path class="st0" d="M145.6,47.3c-0.2,0-0.3,0.1-0.5,0.2s-0.3,0.3-0.5,0.5c-0.2,0.2-0.4,0.5-0.5,0.8c-0.1,0.3-0.2,0.6-0.3,1l0,0.2
		c-0.1,0.2-0.1,0.5-0.1,0.7c0,0.3,0.1,0.5,0.2,0.6c0.1,0.1,0.3,0.2,0.6,0.2c0.1,0,0.3,0,0.4-0.1c0.1,0,0.3-0.1,0.4-0.2
		c0.1-0.1,0.3-0.2,0.4-0.4s0.2-0.4,0.3-0.6c0.1-0.3,0.2-0.5,0.2-0.8c0.1-0.3,0.1-0.6,0.1-0.8c0-0.4-0.1-0.6-0.2-0.8
		S145.8,47.3,145.6,47.3L145.6,47.3z M144.7,44.3h0.3l-0.9,3.7l0.1,0c0.3-0.5,0.7-0.8,0.9-1s0.6-0.3,0.9-0.3c0.4,0,0.7,0.1,0.9,0.4
		c0.2,0.3,0.3,0.7,0.3,1.2c0,0.6-0.1,1.1-0.3,1.7c-0.2,0.6-0.6,1-1,1.3c-0.4,0.3-0.9,0.5-1.4,0.5c-0.5,0-0.9-0.1-1.2-0.3l-0.5,0.3
		l-0.3-0.1l1.4-6c0.1-0.4,0.1-0.6,0.1-0.8c0-0.1,0-0.2-0.1-0.3c-0.1-0.1-0.2-0.1-0.5-0.1l0.1-0.3L144.7,44.3L144.7,44.3z"/>
	<polygon class="st0" points="155.5,48.4 162,48.4 162,49 155.5,49 155.5,48.4 	"/>
	<path class="st0" d="M165.7,44.6h2l-0.1,0.3c-0.1,0-0.3,0.1-0.3,0.1c-0.1,0.1-0.1,0.2-0.1,0.3c0,0.2,0,0.5,0.1,0.8l0.6,2l1.3-1.7
		c0.3-0.3,0.4-0.6,0.5-0.8c0.1-0.2,0.1-0.3,0.1-0.4c0-0.1,0-0.2-0.1-0.2c-0.1-0.1-0.2-0.1-0.3-0.1l0.1-0.3h2l-0.1,0.3
		c-0.1,0-0.2,0-0.2,0.1c-0.1,0-0.1,0.1-0.2,0.2c-0.1,0.1-0.2,0.2-0.3,0.4c-0.1,0.2-0.3,0.4-0.5,0.6l-2,2.6l-0.3,1.5
		c0,0.1-0.1,0.2-0.1,0.3c0,0.1,0,0.2,0,0.3c0,0.1,0,0.2,0,0.2c0,0.1,0,0.2,0.1,0.3s0.1,0.1,0.2,0.1c0.1,0,0.2,0,0.4,0.1l-0.1,0.3
		H166l0.1-0.3c0.1,0,0.2,0,0.3-0.1c0.1,0,0.1-0.1,0.2-0.2c0.1-0.1,0.1-0.2,0.2-0.3c0.1-0.2,0.1-0.4,0.2-0.7l0.3-1.4l-0.8-2.6
		c-0.1-0.4-0.2-0.7-0.3-0.8c-0.1-0.1-0.1-0.2-0.2-0.3s-0.2-0.1-0.3-0.1L165.7,44.6z"/>
	<path class="st0" d="M175.9,44.2l0.1,0.4c-0.8,0.3-1.4,0.8-1.8,1.6c-0.4,0.8-0.6,1.8-0.6,2.9c0,1.2,0.2,2.2,0.6,3
		c0.4,0.8,1,1.3,1.8,1.6l-0.1,0.4c-1-0.3-1.8-0.8-2.3-1.7c-0.5-0.9-0.8-2-0.8-3.2c0-1.3,0.3-2.3,0.8-3.2
		C174.1,45.1,174.9,44.5,175.9,44.2L175.9,44.2z"/>
	<path class="st0" d="M179.6,47.1c-0.4,0-0.7,0.1-1,0.4c-0.3,0.3-0.5,0.7-0.7,1.2s-0.2,1-0.2,1.5c0,0.4,0,0.6,0.1,0.8
		s0.3,0.3,0.5,0.3c0.2,0,0.5-0.1,0.7-0.3c0.2-0.2,0.4-0.5,0.7-0.8s0.4-0.8,0.5-1.3l0-0.2c0-0.1,0.1-0.3,0.1-0.4c0-0.1,0-0.2,0-0.3
		c0-0.3-0.1-0.5-0.2-0.6C180.1,47.2,179.9,47.1,179.6,47.1L179.6,47.1z M179.5,46.7c0.2,0,0.4,0,0.6,0.1s0.4,0.1,0.6,0.3l0.5-0.3
		l0.3,0.1l-0.8,3.3c-0.1,0.3-0.1,0.6-0.1,0.8c0,0.1,0,0.2,0.1,0.3c0,0.1,0.1,0.1,0.2,0.1c0.1,0,0.2,0,0.3-0.1
		c0.1-0.1,0.3-0.2,0.5-0.5l0.3,0.3c-0.3,0.3-0.6,0.6-0.8,0.7c-0.2,0.1-0.5,0.2-0.7,0.2c-0.2,0-0.4-0.1-0.5-0.2
		c-0.1-0.1-0.2-0.3-0.2-0.6c0-0.2,0-0.4,0.1-0.6l-0.1,0c-0.3,0.5-0.7,0.8-0.9,1.1s-0.6,0.3-0.9,0.3c-0.4,0-0.7-0.1-0.9-0.4
		c-0.2-0.3-0.3-0.7-0.3-1.2c0-0.6,0.1-1.2,0.4-1.7c0.2-0.6,0.6-1,1-1.3C178.5,46.8,179,46.7,179.5,46.7L179.5,46.7z"/>
	<path class="st0" d="M182.8,44.2c1,0.3,1.8,0.8,2.3,1.7c0.5,0.9,0.8,2,0.8,3.2c0,1.3-0.3,2.3-0.8,3.2c-0.5,0.9-1.3,1.5-2.3,1.7
		l-0.1-0.4c0.8-0.3,1.4-0.8,1.8-1.6c0.4-0.8,0.6-1.8,0.6-3c0-1.2-0.2-2.2-0.6-2.9c-0.4-0.8-1-1.3-1.8-1.6L182.8,44.2z"/>
	<path class="st1" d="M109.2,32.8c0.6,0,1.1,0,1.1,0.1v29c0,0-0.5,0.1-1.1,0.1"/>
	<g>
		<defs>
			<polygon id="SVGID_1_" points="1.5,143.8 213.4,143.8 213.4,1.7 1.5,1.7 1.5,143.8 			"/>
		</defs>
		<clipPath id="SVGID_2_">
			<use xlink:href="#SVGID_1_"  style="overflow:visible;"/>
		</clipPath>
		<path class="st2" d="M115,61.3c-0.3,0-0.5,0.1-0.7,0.3c-0.2,0.2-0.4,0.5-0.5,0.9c-0.1,0.4-0.2,0.8-0.2,1.1c0,0.3,0,0.5,0.1,0.6
			c0.1,0.1,0.2,0.2,0.4,0.2c0.2,0,0.4-0.1,0.5-0.2c0.2-0.2,0.3-0.4,0.5-0.7s0.3-0.6,0.4-1l0-0.2c0-0.1,0-0.2,0-0.3
			c0-0.1,0-0.2,0-0.3c0-0.2,0-0.4-0.1-0.5C115.3,61.4,115.2,61.3,115,61.3L115,61.3z M114.9,61c0.2,0,0.3,0,0.5,0.1
			c0.2,0,0.3,0.1,0.5,0.2l0.4-0.3l0.3,0.1l-0.6,2.6c-0.1,0.3-0.1,0.5-0.1,0.6c0,0.1,0,0.2,0.1,0.2c0,0,0.1,0.1,0.2,0.1
			c0.1,0,0.2,0,0.3-0.1s0.2-0.2,0.4-0.4l0.2,0.2c-0.2,0.3-0.5,0.4-0.6,0.6c-0.2,0.1-0.4,0.2-0.6,0.2c-0.2,0-0.3-0.1-0.4-0.2
			s-0.1-0.3-0.1-0.4c0-0.1,0-0.3,0.1-0.5l-0.1,0c-0.3,0.4-0.5,0.7-0.7,0.8c-0.2,0.2-0.5,0.3-0.7,0.3c-0.3,0-0.5-0.1-0.7-0.3
			c-0.2-0.2-0.2-0.5-0.2-0.9c0-0.5,0.1-0.9,0.3-1.3c0.2-0.4,0.4-0.8,0.8-1C114.1,61.1,114.5,61,114.9,61L114.9,61z"/>
		<g class="st3">
			<defs>
				<polygon id="SVGID_3_" points="1.5,143.8 213.4,143.8 213.4,1.7 1.5,1.7 1.5,143.8 				"/>
			</defs>
			<clipPath id="SVGID_4_">
				<use xlink:href="#SVGID_3_"  style="overflow:visible;"/>
			</clipPath>
			<path class="st4" d="M115.3,32c-0.1,0-0.3,0-0.4,0.1c-0.1,0.1-0.3,0.2-0.4,0.4c-0.2,0.2-0.3,0.4-0.4,0.6
				c-0.1,0.2-0.2,0.5-0.2,0.8l0,0.2c0,0.2-0.1,0.4-0.1,0.6c0,0.2,0,0.4,0.1,0.5c0.1,0.1,0.2,0.1,0.5,0.1c0.1,0,0.2,0,0.3-0.1
				s0.2-0.1,0.3-0.2c0.1-0.1,0.2-0.2,0.3-0.3c0.1-0.1,0.2-0.3,0.3-0.5c0.1-0.2,0.1-0.4,0.2-0.6c0-0.2,0.1-0.4,0.1-0.7
				c0-0.3,0-0.5-0.1-0.6C115.6,32.1,115.4,32,115.3,32L115.3,32z M114.6,29.7h0.2l-0.7,2.8l0.1,0c0.3-0.4,0.5-0.6,0.7-0.8
				c0.2-0.2,0.5-0.2,0.7-0.2c0.3,0,0.5,0.1,0.7,0.3c0.2,0.2,0.2,0.5,0.2,0.9c0,0.4-0.1,0.9-0.3,1.3c-0.2,0.4-0.4,0.8-0.7,1
				c-0.3,0.3-0.7,0.4-1.1,0.4c-0.4,0-0.7-0.1-1-0.3l-0.4,0.3l-0.3-0.1l1-4.6c0.1-0.3,0.1-0.5,0.1-0.6c0-0.1,0-0.2-0.1-0.2
				c-0.1,0-0.2-0.1-0.4-0.1l0-0.2L114.6,29.7L114.6,29.7z"/>
			<g class="st5">
				<defs>
					<polygon id="SVGID_5_" points="1.5,143.8 213.4,143.8 213.4,1.7 1.5,1.7 1.5,143.8 					"/>
				</defs>
				<clipPath id="SVGID_6_">
					<use xlink:href="#SVGID_5_"  style="overflow:visible;"/>
				</clipPath>
				<g class="st6">
					<g>
						<path class="st7" d="M102.9,40.5c1.4-12.5,13.1-23,29-25.4"/>
						<g>
							<polygon points="104.7,39.3 103,39.9 101.4,39.1 102.8,43.1 							"/>
						</g>
					</g>
				</g>
				<g class="st6">
					<defs>
						<polygon id="SVGID_7_" points="1.5,143.8 213.4,143.8 213.4,1.7 1.5,1.7 1.5,143.8 						"/>
					</defs>
					<clipPath id="SVGID_8_">
						<use xlink:href="#SVGID_7_"  style="overflow:visible;"/>
					</clipPath>
					<g class="st8">
						<defs>
							<polygon id="SVGID_9_" points="1.5,143.8 213.4,143.8 213.4,1.7 1.5,1.7 1.5,143.8 							"/>
						</defs>
						<clipPath id="SVGID_10_">
							<use xlink:href="#SVGID_9_"  style="overflow:visible;"/>
						</clipPath>
						<g class="st9">
							<defs>
								<polygon id="SVGID_11_" points="1.5,143.8 213.4,143.8 213.4,1.7 1.5,1.7 1.5,143.8 								"/>
							</defs>
							<clipPath id="SVGID_12_">
								<use xlink:href="#SVGID_11_"  style="overflow:visible;"/>
							</clipPath>
							<g class="st10">
								<defs>
									<polygon id="SVGID_13_" points="1.5,143.8 213.4,143.8 213.4,1.7 1.5,1.7 1.5,143.8 									"/>
								</defs>
								<clipPath id="SVGID_14_">
									<use xlink:href="#SVGID_13_"  style="overflow:visible;"/>
								</clipPath>
								<g class="st11">
									<defs>
										<polygon id="SVGID_15_" points="1.5,143.8 213.4,143.8 213.4,1.7 1.5,1.7 1.5,143.8 										"/>
									</defs>
									<clipPath id="SVGID_16_">
										<use xlink:href="#SVGID_15_"  style="overflow:visible;"/>
									</clipPath>
									<g class="st12">
										<defs>
											<polygon id="SVGID_17_" points="1.5,143.8 213.4,143.8 213.4,1.7 1.5,1.7 1.5,143.8 											"/>
										</defs>
										<clipPath id="SVGID_18_">
											<use xlink:href="#SVGID_17_"  style="overflow:visible;"/>
										</clipPath>
										<g class="st13">
											<defs>
												<polygon id="SVGID_19_" points="1.5,143.8 213.4,143.8 213.4,1.7 1.5,1.7 1.5,143.8 												"/>
											</defs>
											<clipPath id="SVGID_20_">
												<use xlink:href="#SVGID_19_"  style="overflow:visible;"/>
											</clipPath>
											<path class="st14" d="M54.6,107.2c-0.2,0-0.3,0-0.4,0s-0.2-0.1-0.4-0.1"/>
											<g class="st15">
												<defs>
													<polygon id="SVGID_21_" points="1.5,143.8 213.4,143.8 213.4,1.7 1.5,1.7 1.5,143.8 													"/>
												</defs>
												<clipPath id="SVGID_22_">
													<use xlink:href="#SVGID_21_"  style="overflow:visible;"/>
												</clipPath>
												<g class="st16">
													<defs>
														<polygon id="SVGID_23_" points="1.5,143.8 213.4,143.8 213.4,1.7 1.5,1.7 1.5,143.8 														"/>
													</defs>
													<clipPath id="SVGID_24_">
														<use xlink:href="#SVGID_23_"  style="overflow:visible;"/>
													</clipPath>
													<g class="st17">
														<defs>
															<polygon id="SVGID_25_" points="1.5,143.8 213.4,143.8 213.4,1.7 1.5,1.7 1.5,143.8 															"/>
														</defs>
														<clipPath id="SVGID_26_">
															<use xlink:href="#SVGID_25_"  style="overflow:visible;"/>
														</clipPath>
														<g class="st18">
															<defs>
																<polygon id="SVGID_27_" points="1.5,143.8 213.4,143.8 213.4,1.7 1.5,1.7 1.5,143.8 																"/>
															</defs>
															<clipPath id="SVGID_28_">
																<use xlink:href="#SVGID_27_"  style="overflow:visible;"/>
															</clipPath>
															<g class="st19">
																<defs>
																	<polygon id="SVGID_29_" points="1.5,143.8 213.4,143.8 213.4,1.7 1.5,1.7 1.5,143.8 																	"/>
																</defs>
																<clipPath id="SVGID_30_">
																	<use xlink:href="#SVGID_29_"  style="overflow:visible;"/>
																</clipPath>
																<g class="st20">
																	<defs>
																		<polygon id="SVGID_31_" points="1.5,143.8 213.4,143.8 213.4,1.7 1.5,1.7 1.5,143.8 																		"/>
																	</defs>
																	<clipPath id="SVGID_32_">
																		<use xlink:href="#SVGID_31_"  style="overflow:visible;"/>
																	</clipPath>
																	<g class="st21">
																		<defs>
																			<polygon id="SVGID_33_" points="1.5,143.8 213.4,143.8 213.4,1.7 1.5,1.7 1.5,143.8 																			"/>
																		</defs>
																		<clipPath id="SVGID_34_">
																			<use xlink:href="#SVGID_33_"  style="overflow:visible;"/>
																		</clipPath>
																		<g class="st22">
																			<g>
																				<path class="st7" d="M98.8,110.6c1.5,13,15.3,19.7,32.8,20.6"/>
																				<g>
																					<polygon points="97.3,111.9 98.9,111.1 100.6,111.7 98.7,107.9 																					"/>
																				</g>
																			</g>
																		</g>
																		<g class="st22">
																			<defs>
																				<polygon id="SVGID_35_" points="1.5,143.8 213.4,143.8 213.4,1.7 1.5,1.7 1.5,143.8 																				"/>
																			</defs>
																			<clipPath id="SVGID_36_">
																				<use xlink:href="#SVGID_35_"  style="overflow:visible;"/>
																			</clipPath>
																			<g class="st23">
																				<defs>
																					<polygon id="SVGID_37_" points="1.5,143.8 213.4,143.8 213.4,1.7 1.5,1.7 1.5,143.8 																					"/>
																				</defs>
																				<clipPath id="SVGID_38_">
																					<use xlink:href="#SVGID_37_"  style="overflow:visible;"/>
																				</clipPath>
																				<g class="st24">
																					<defs>
																						<polygon id="SVGID_39_" points="1.5,143.8 213.4,143.8 213.4,1.7 1.5,1.7 1.5,143.8 																						
																							"/>
																					</defs>
																					<clipPath id="SVGID_40_">
																						<use xlink:href="#SVGID_39_"  style="overflow:visible;"/>
																					</clipPath>
																					<g class="st25">
																						<defs>
																							<polygon id="SVGID_41_" points="1.5,143.8 213.4,143.8 213.4,1.7 1.5,1.7 1.5,143.8 																							
																								"/>
																						</defs>
																						<clipPath id="SVGID_42_">
																							<use xlink:href="#SVGID_41_"  style="overflow:visible;"/>
																						</clipPath>
																						<g class="st26">
																							<defs>
																								<polygon id="SVGID_43_" points="1.5,143.8 213.4,143.8 213.4,1.7 1.5,1.7 1.5,143.8 
																																																	"/>
																							</defs>
																							<clipPath id="SVGID_44_">
																								<use xlink:href="#SVGID_43_"  style="overflow:visible;"/>
																							</clipPath>
																							<g class="st27">
																								<defs>
																									<polygon id="SVGID_45_" points="1.5,143.8 213.4,143.8 213.4,1.7 1.5,1.7 1.5,143.8 
																																																			"/>
																								</defs>
																								<clipPath id="SVGID_46_">
																									<use xlink:href="#SVGID_45_"  style="overflow:visible;"/>
																								</clipPath>
																								<g class="st28">
																									<defs>
																										<polygon id="SVGID_47_" points="1.5,143.8 213.4,143.8 213.4,1.7 1.5,1.7 1.5,143.8 
																																																					"/>
																									</defs>
																									<clipPath id="SVGID_48_">
																										<use xlink:href="#SVGID_47_"  style="overflow:visible;"/>
																									</clipPath>
																									<g class="st29">
																										<defs>
																											<polygon id="SVGID_49_" points="1.5,143.8 213.4,143.8 213.4,1.7 1.5,1.7 1.5,143.8 
																																																							"/>
																										</defs>
																										<clipPath id="SVGID_50_">
																											<use xlink:href="#SVGID_49_"  style="overflow:visible;"/>
																										</clipPath>
																										<g class="st30">
																											<defs>
																												<polygon id="SVGID_51_" points="1.5,143.8 213.4,143.8 213.4,1.7 1.5,1.7 1.5,143.8 
																																																									"/>
																											</defs>
																											<clipPath id="SVGID_52_">
																												<use xlink:href="#SVGID_51_"  style="overflow:visible;"/>
																											</clipPath>
																											<path class="st31" d="M1.8,25.6C1.8,12.5,12.3,2,25.4,2h164.3c13,0,23.6,10.6,23.6,23.6v94.4
																												c0,13-10.6,23.6-23.6,23.6H25.4c-13,0-23.6-10.6-23.6-23.6V25.6z"/>
																											<g class="st32">
																												<defs>
																													<polygon id="SVGID_53_" points="1.5,143.8 213.4,143.8 213.4,1.7 1.5,1.7 1.5,143.8 
																																																											"/>
																												</defs>
																												<clipPath id="SVGID_54_">
																													<use xlink:href="#SVGID_53_"  style="overflow:visible;"/>
																												</clipPath>
																												<line class="st33" x1="1.8" y1="72.7" x2="213.2" y2="72.7"/>
																											</g>
																										</g>
																									</g>
																								</g>
																							</g>
																						</g>
																					</g>
																				</g>
																			</g>
																		</g>
																	</g>
																</g>
															</g>
														</g>
													</g>
												</g>
											</g>
										</g>
									</g>
								</g>
							</g>
						</g>
					</g>
				</g>
			</g>
		</g>
	</g>
</g>
<g>
	<path class="st34" d="M27,17.7c-0.3,0-0.6,0.1-0.7,0.3c-0.2,0.2-0.3,0.3-0.3,0.5c0,0.1,0.1,0.2,0.4,0.2c0.2,0,0.3,0,0.4,0
		c0.1,0,0.1-0.1,0.2-0.2c0-0.1,0.1-0.3,0.1-0.5V17.7z M34.5,16.8c-0.3,0-0.6,0.1-0.8,0.3c-0.1,0.1-0.2,0.3-0.3,0.6
		c-0.1,0.3-0.2,0.5-0.3,0.7c0.1,0,0.2-0.1,0.4-0.1c0.1,0,0.2,0,0.4,0c0.2,0,0.3,0,0.4,0c0.5,0,0.8-0.1,1-0.2
		c0.2-0.1,0.3-0.3,0.3-0.5c0-0.2-0.1-0.4-0.3-0.6C35.1,16.9,34.8,16.8,34.5,16.8L34.5,16.8z M19.1,16.8c-0.1,0-0.2,0-0.4,0
		c-0.1,0-0.2,0.1-0.3,0.1c-0.1,0.1-0.3,0.3-0.5,0.7c-0.2,0.3-0.3,0.5-0.4,0.6c0.2,0.1,0.5,0.1,0.9,0.1c0.5,0,0.8,0,1-0.1
		c0.2,0,0.3-0.1,0.4-0.2c0.1-0.1,0.1-0.2,0.1-0.4c0-0.2-0.1-0.4-0.3-0.6C19.6,16.9,19.4,16.8,19.1,16.8L19.1,16.8z M33.4,15.6
		c0.4,0,0.6,0.2,0.7,0.5c0.2-0.2,0.5-0.3,0.7-0.4c0.2-0.1,0.4-0.1,0.6-0.1c0.5,0,0.9,0.2,1.2,0.5c0.3,0.3,0.5,0.8,0.5,1.4
		c0,0.4-0.1,0.7-0.3,1s-0.4,0.4-0.6,0.4c-0.2,0-0.3-0.1-0.5-0.2l0.1-0.2c0.1,0.1,0.2,0.2,0.3,0.2c0.1,0,0.3-0.1,0.4-0.2
		s0.2-0.4,0.2-0.6c0-0.4-0.1-0.8-0.4-1.2c-0.3-0.4-0.7-0.5-1.1-0.5c-0.2,0-0.5,0-0.6,0.1s-0.4,0.2-0.6,0.4c0.2-0.1,0.4-0.1,0.5-0.1
		c0.4,0,0.7,0.1,1,0.4c0.2,0.2,0.4,0.5,0.4,0.8c0,0.4-0.1,0.6-0.4,0.9c-0.3,0.2-0.6,0.3-1,0.3c-0.3,0-0.6-0.1-0.8-0.3
		c-0.1-0.1-0.2-0.1-0.3-0.1c-0.1,0-0.2,0.1-0.3,0.3l-0.2-0.1c0.1-0.5,0.3-1,0.5-1.4c0.2-0.4,0.4-0.7,0.7-1c0-0.1,0-0.2-0.1-0.3
		C33.7,16,33.6,16,33.5,16c-0.1,0-0.1,0-0.1,0.1c0,0-0.1,0.1-0.1,0.2c0,0.2-0.1,0.3-0.1,0.3c0,0.1-0.1,0.1-0.2,0.1
		c-0.1,0-0.2,0-0.2-0.1c-0.1-0.1-0.1-0.1-0.1-0.2c0-0.2,0.1-0.3,0.2-0.5C33,15.7,33.2,15.6,33.4,15.6L33.4,15.6z M29.6,14.5
		c-0.3,0-0.5,0-0.6,0.1c-0.1,0-0.2,0.1-0.2,0.2c0,0.1,0,0.1,0,0.1c0,0,0.1,0.1,0.2,0.1c0.1,0,0.3,0.1,0.5,0.1l0.8,0.1
		c0.3,0,0.5,0,0.6,0c0.2,0,0.3,0,0.4-0.1c0.1-0.1,0.1-0.1,0.1-0.2c0-0.1-0.1-0.2-0.4-0.3C30.6,14.5,30.2,14.5,29.6,14.5L29.6,14.5z
		 M20.7,14.5c-0.4,0-0.7,0.1-1,0.3c-0.3,0.2-0.5,0.6-0.7,1.2c0.4-0.3,0.9-0.4,1.3-0.4c0.4,0,0.8,0.1,1.2,0.3
		c0.1-0.2,0.2-0.4,0.2-0.6c0-0.3-0.1-0.5-0.3-0.7C21.3,14.5,21.1,14.5,20.7,14.5L20.7,14.5z M27.1,14.1v1c0.1,0,0.2,0.1,0.3,0.1
		c0.1,0,0.2,0,0.3-0.1c0.1-0.1,0.1-0.1,0.1-0.2c0-0.1,0-0.2-0.1-0.3c-0.1-0.1-0.2-0.2-0.4-0.3C27.2,14.2,27.1,14.1,27.1,14.1
		L27.1,14.1z M29.9,13.8c0.5,0,0.8,0.1,1.2,0.3c0.3,0.2,0.5,0.4,0.5,0.7c0,0.1,0,0.3-0.1,0.4c-0.1,0.1-0.2,0.2-0.4,0.2
		c0.2,0.1,0.4,0.3,0.6,0.6c0.1,0.3,0.2,0.5,0.2,0.8c0,0.7-0.2,1.2-0.6,1.6c-0.4,0.4-0.9,0.5-1.5,0.5c-0.5,0-0.9-0.1-1.2-0.4
		c-0.3-0.2-0.5-0.5-0.5-0.9c0-0.3,0.1-0.6,0.4-0.8h-0.4v-0.2h1.7c0-0.2-0.1-0.3-0.1-0.4C29.5,16,29.4,16,29.3,16
		c-0.1,0-0.1,0-0.2,0.1L29,16.3c-0.1,0.1-0.2,0.1-0.3,0.1c-0.2,0-0.3-0.1-0.3-0.3c0-0.1,0.1-0.2,0.2-0.3c0.1-0.1,0.3-0.2,0.5-0.2
		c0.3,0,0.5,0.1,0.7,0.3c0.1,0.2,0.2,0.5,0.2,0.9h-0.7c-0.3,0-0.5,0.1-0.6,0.2c-0.1,0.1-0.2,0.3-0.2,0.5c0,0.3,0.1,0.5,0.4,0.6
		c0.2,0.1,0.6,0.2,1.1,0.2c0.6,0,1-0.1,1.3-0.4c0.3-0.3,0.5-0.7,0.5-1.2c0-0.2-0.1-0.4-0.2-0.6c-0.1-0.2-0.2-0.3-0.4-0.4
		s-0.4-0.2-0.5-0.2c-0.2,0-0.4-0.1-0.8-0.1c-0.4,0-0.6-0.1-0.8-0.1s-0.3-0.1-0.4-0.2c-0.1-0.1-0.1-0.2-0.1-0.4
		c0-0.3,0.1-0.5,0.4-0.6C29.1,13.9,29.5,13.8,29.9,13.8L29.9,13.8z M20.8,13.8c0.4,0,0.7,0.1,0.9,0.4c0.2,0.3,0.4,0.6,0.4,0.9
		c0,0.3-0.1,0.6-0.3,0.9c0.2,0.2,0.3,0.4,0.4,0.6s0.1,0.5,0.1,0.8c0,0.4-0.1,0.7-0.3,1c-0.2,0.3-0.4,0.4-0.6,0.4
		c-0.2,0-0.3-0.1-0.5-0.2l0.1-0.2c0.1,0.1,0.2,0.2,0.3,0.2c0.1,0,0.3-0.1,0.4-0.2c0.1-0.2,0.2-0.4,0.2-0.6c0-0.3-0.1-0.5-0.3-0.8
		c-0.2-0.3-0.4-0.5-0.7-0.7c-0.3-0.2-0.6-0.3-0.9-0.3c-0.2,0-0.5,0-0.7,0.1c-0.3,0.1-0.5,0.2-0.7,0.4c0.1,0,0.2-0.1,0.4-0.1
		c0.3,0,0.6,0.1,0.8,0.3c0.2,0.2,0.4,0.5,0.4,0.8c0,0.4-0.2,0.7-0.5,0.9c-0.3,0.2-0.7,0.3-1.2,0.3c-0.4,0-0.8-0.1-1.1-0.2
		s-0.5-0.4-0.7-0.6L17,18c0.1,0.1,0.2,0.2,0.2,0.2c0.1,0,0.1-0.1,0.2-0.2s0.2-0.3,0.3-0.5c0.3-0.5,0.5-0.8,0.7-1
		c0-0.2-0.1-0.4-0.1-0.5c-0.1-0.1-0.2-0.2-0.3-0.2c-0.1,0-0.3,0.1-0.3,0.3c0,0.1-0.1,0.2-0.1,0.2c0,0-0.1,0.1-0.1,0.1
		c-0.1,0-0.1,0-0.2,0c-0.1,0-0.2,0-0.2-0.1C17,16.5,17,16.4,17,16.3c0-0.1,0.1-0.3,0.2-0.5c0.2-0.2,0.3-0.2,0.6-0.2
		c0.4,0,0.7,0.3,0.8,0.8l0.1-0.1c0.1-0.1,0.1-0.3,0.3-0.6c0.1-0.3,0.2-0.6,0.3-0.8c0.1-0.2,0.2-0.4,0.4-0.5c0.1-0.2,0.3-0.3,0.5-0.3
		C20.4,13.9,20.6,13.8,20.8,13.8L20.8,13.8z M26.8,13.8h0.2c0.1,0.1,0.2,0.2,0.4,0.3c0.2,0.1,0.3,0.2,0.4,0.3
		c0.1,0.1,0.1,0.2,0.1,0.4c0,0.2-0.1,0.3-0.2,0.4c-0.1,0.1-0.3,0.2-0.4,0.2c-0.1,0-0.2,0-0.4-0.1v0.8l0,0c0.2,0.2,0.3,0.6,0.3,1
		c0,0.4,0,0.8-0.1,1c0,0.2-0.1,0.4-0.1,0.5s-0.1,0.2-0.2,0.2c-0.1,0-0.2,0.1-0.4,0.1c-0.3,0-0.5,0-0.5-0.1c-0.1-0.1-0.1-0.2-0.1-0.4
		c0-0.1,0-0.3,0.1-0.4c0.1-0.2,0.2-0.3,0.4-0.4c0.2-0.1,0.4-0.1,0.7-0.1c0-0.4-0.1-0.8-0.3-1c-0.2-0.2-0.5-0.3-0.7-0.3
		c-0.2,0-0.4,0.1-0.6,0.2c-0.2,0.2-0.3,0.4-0.4,0.7l0,0c0,0,0,0,0.1,0c0.2,0,0.3,0.1,0.4,0.2c0.1,0.1,0.1,0.3,0.1,0.5
		c0,0.3-0.1,0.5-0.3,0.7c-0.2,0.2-0.5,0.4-0.9,0.4c-0.4,0-0.6-0.1-0.9-0.4c-0.2-0.3-0.3-0.7-0.3-1.1c0-0.5,0.1-0.9,0.4-1.3
		c0.3-0.3,0.6-0.5,1-0.5c0.2,0,0.3,0,0.4,0l0,0.2c-0.1,0-0.2,0-0.3,0c-0.3,0-0.6,0.1-0.8,0.3c-0.2,0.2-0.3,0.5-0.3,0.9
		c0,0.3,0.1,0.6,0.3,0.9c0.2,0.2,0.5,0.4,0.8,0.4c0.2,0,0.3-0.1,0.4-0.2c0.1-0.1,0.2-0.2,0.2-0.4c0-0.1,0-0.2-0.1-0.3
		c-0.1-0.1-0.1-0.1-0.2-0.1c-0.1,0-0.2,0.1-0.3,0.2l-0.2-0.1c0.2-0.7,0.4-1.1,0.7-1.4c0.3-0.3,0.6-0.4,0.9-0.4
		c0.2,0,0.4,0.1,0.6,0.2l0.1,0.1V13.8L26.8,13.8z"/>
	<path class="st34" d="M63.2,16.8c-0.1,0-0.2,0-0.4,0c-0.1,0-0.2,0.1-0.3,0.1c-0.1,0.1-0.3,0.3-0.5,0.7c-0.2,0.3-0.3,0.5-0.4,0.6
		c0.2,0.1,0.5,0.1,0.9,0.1c0.5,0,0.8,0,1-0.1c0.2,0,0.3-0.1,0.4-0.2c0.1-0.1,0.1-0.2,0.1-0.4c0-0.2-0.1-0.4-0.3-0.6
		C63.7,16.9,63.5,16.8,63.2,16.8L63.2,16.8z M52.3,16.8c-0.4,0-0.8,0.1-1.3,0.3c-0.1,0.2-0.3,0.3-0.4,0.6c-0.1,0.2-0.2,0.4-0.3,0.7
		c0.1,0,0.2-0.1,0.3-0.1c0.1,0,0.2,0,0.3,0c0.1,0,0.2,0,0.3,0c0.2,0,0.4-0.1,0.5-0.3c0.1-0.2,0.2-0.4,0.2-0.8h0.2
		c0,0.3,0.1,0.6,0.2,0.7c0.1,0.2,0.3,0.3,0.5,0.3c0.2,0,0.3-0.1,0.4-0.2c0.1-0.1,0.1-0.3,0.1-0.4c0-0.3-0.1-0.5-0.3-0.6
		C52.9,16.9,52.6,16.8,52.3,16.8L52.3,16.8z M45.8,16.8c-0.1,0-0.2,0-0.4,0c-0.1,0-0.2,0.1-0.3,0.1c-0.1,0.1-0.3,0.3-0.5,0.7
		c-0.2,0.3-0.3,0.5-0.4,0.6c0.2,0.1,0.5,0.1,0.9,0.1c0.5,0,0.8,0,1-0.1c0.2,0,0.3-0.1,0.4-0.2c0.1-0.1,0.1-0.2,0.1-0.4
		c0-0.2-0.1-0.4-0.3-0.6C46.3,16.9,46.1,16.8,45.8,16.8L45.8,16.8z M41.1,16.8c-0.2,0-0.4,0-0.5,0.1c-0.1,0.1-0.2,0.2-0.3,0.3
		c-0.1,0.1-0.1,0.2-0.1,0.4c0,0.3,0.1,0.6,0.3,0.8s0.5,0.3,1,0.3c0.1,0,0.3,0,0.5,0v-1.8C41.8,16.8,41.5,16.8,41.1,16.8L41.1,16.8z
		 M70.4,16.2c-0.2,0-0.3,0-0.4,0.1c-0.1,0.1-0.2,0.2-0.2,0.3c0.5,0,0.9,0,0.9,0c0,0,0-0.1,0-0.1c0-0.1,0-0.1-0.1-0.2
		C70.6,16.2,70.5,16.2,70.4,16.2L70.4,16.2z M42.4,16c-0.1,0.2-0.2,0.6-0.2,1c0.1,0.1,0.2,0.1,0.3,0.1c0.1,0,0.2,0,0.3-0.1
		c0.1-0.1,0.1-0.2,0.1-0.3c0-0.1-0.1-0.2-0.2-0.4C42.5,16.2,42.5,16.1,42.4,16L42.4,16z M70.5,15.6c0.2,0,0.3,0,0.4,0.1
		c0.1,0.1,0.2,0.2,0.2,0.4c0,0.2,0,0.4-0.1,0.5c0.2,0.1,0.3,0.2,0.4,0.4c0.1,0.2,0.1,0.3,0.1,0.5c0,0.3-0.1,0.7-0.3,0.9
		c-0.2,0.3-0.5,0.4-0.9,0.4c-0.2,0-0.4,0-0.5-0.1c-0.1-0.1-0.3-0.2-0.4-0.4c-0.1,0.2-0.2,0.3-0.4,0.4c-0.1,0.1-0.3,0.1-0.5,0.1
		c-0.3,0-0.6-0.1-0.8-0.4c-0.2-0.3-0.3-0.6-0.3-1c0-0.4,0.1-0.8,0.4-1.1c0.3-0.3,0.6-0.4,1.1-0.4v0.2c-0.3,0-0.6,0.1-0.8,0.3
		c-0.2,0.2-0.4,0.5-0.4,0.8c0,0.2,0.1,0.5,0.2,0.6c0.2,0.2,0.4,0.3,0.7,0.3c0.3,0,0.5-0.1,0.6-0.3c0.1-0.2,0.2-0.4,0.2-0.8h0.2
		c0,0.3,0.1,0.6,0.2,0.8c0.1,0.2,0.3,0.3,0.6,0.3c0.3,0,0.5-0.1,0.6-0.2c0.2-0.1,0.2-0.3,0.2-0.6c0-0.2-0.1-0.4-0.2-0.5
		c-0.1-0.1-0.3-0.2-0.6-0.2h-0.8c0-0.4,0.1-0.7,0.3-0.9C69.9,15.7,70.2,15.6,70.5,15.6L70.5,15.6z M61.9,15.6c0.4,0,0.7,0.3,0.8,0.8
		c0.3-0.3,0.6-0.4,0.9-0.6c0.3-0.1,0.6-0.2,1-0.2c0.5,0,1,0.2,1.4,0.5c0.4,0.3,0.5,0.8,0.5,1.4c0,0.4-0.1,0.7-0.3,1
		c-0.2,0.3-0.4,0.4-0.6,0.4c-0.2,0-0.3-0.1-0.5-0.2l0.1-0.2c0.1,0.1,0.2,0.2,0.3,0.2c0.1,0,0.3-0.1,0.4-0.2s0.2-0.4,0.2-0.6
		c0-0.3-0.1-0.5-0.3-0.8c-0.2-0.3-0.4-0.5-0.7-0.7c-0.3-0.2-0.6-0.3-0.9-0.3c-0.2,0-0.5,0-0.7,0.1c-0.3,0.1-0.5,0.2-0.7,0.4
		c0.1,0,0.2-0.1,0.4-0.1c0.3,0,0.6,0.1,0.8,0.3c0.2,0.2,0.4,0.5,0.4,0.8c0,0.4-0.2,0.7-0.5,0.9c-0.3,0.2-0.7,0.3-1.2,0.3
		c-0.4,0-0.8-0.1-1.1-0.2c-0.3-0.1-0.5-0.4-0.7-0.6l0.1-0.1c0.1,0.1,0.2,0.2,0.2,0.2c0.1,0,0.1-0.1,0.2-0.2c0.1-0.1,0.2-0.3,0.3-0.5
		c0.3-0.5,0.5-0.8,0.7-1c0-0.2-0.1-0.4-0.1-0.5c-0.1-0.1-0.2-0.2-0.3-0.2c-0.1,0-0.3,0.1-0.3,0.3c0,0.1-0.1,0.2-0.1,0.2
		c0,0-0.1,0.1-0.1,0.1c-0.1,0-0.1,0-0.2,0c-0.1,0-0.2,0-0.2-0.1c-0.1-0.1-0.1-0.1-0.1-0.2c0-0.1,0.1-0.3,0.2-0.5
		S61.7,15.6,61.9,15.6L61.9,15.6z M58.6,15.6c0.5,0,1,0.1,1.3,0.3c0.3,0.2,0.5,0.5,0.5,0.8c0,0.3-0.1,0.5-0.3,0.6
		c-0.2,0.2-0.4,0.2-0.7,0.2c-0.3,0-0.5-0.1-0.6-0.2c-0.1-0.1-0.2-0.3-0.2-0.6h-0.7v-0.2h1.9v0.2h-1c0,0.2,0.2,0.3,0.6,0.3
		c0.2,0,0.4,0,0.5-0.1s0.2-0.2,0.2-0.4c0-0.2-0.1-0.4-0.4-0.5c-0.2-0.1-0.6-0.2-1.1-0.2c-0.6,0-1,0.2-1.4,0.5
		c-0.4,0.3-0.6,0.8-0.6,1.3c0,0.6,0.2,1.1,0.6,1.5c0.4,0.4,0.9,0.6,1.4,0.6c0.5,0,0.9-0.1,1.2-0.4c0.3-0.3,0.4-0.6,0.4-1.1h0.2
		c0,0.5-0.2,1-0.5,1.3c-0.4,0.3-0.9,0.5-1.6,0.5c-0.5,0-0.9-0.1-1.3-0.3c-0.4-0.2-0.6-0.4-0.8-0.8c-0.2-0.3-0.3-0.7-0.3-1
		c0-0.7,0.2-1.2,0.7-1.7C57.2,15.9,57.8,15.6,58.6,15.6L58.6,15.6z M50.7,15.6c0.4,0,0.7,0.2,0.8,0.7c0.3-0.2,0.6-0.4,0.9-0.5
		c0.3-0.1,0.6-0.2,0.9-0.2c0.5,0,1,0.2,1.4,0.5c0.4,0.3,0.6,0.8,0.6,1.4c0,0.4-0.1,0.7-0.3,1c-0.2,0.3-0.4,0.4-0.6,0.4
		c-0.2,0-0.3-0.1-0.5-0.2l0.1-0.2c0.1,0.1,0.2,0.2,0.3,0.2c0.1,0,0.3-0.1,0.4-0.2s0.2-0.4,0.2-0.6c0-0.3-0.1-0.5-0.3-0.8
		c-0.2-0.3-0.4-0.5-0.7-0.7c-0.3-0.2-0.6-0.3-0.9-0.3c-0.2,0-0.5,0.1-0.8,0.2c-0.3,0.1-0.5,0.3-0.8,0.5c0.1,0,0.3-0.1,0.4-0.1
		c0.2,0,0.3,0,0.4,0c0.4,0,0.8,0.1,1,0.4c0.2,0.2,0.4,0.6,0.4,1c0,0.3-0.1,0.6-0.2,0.7s-0.4,0.3-0.6,0.3c-0.2,0-0.3,0-0.5-0.1
		c-0.1-0.1-0.2-0.2-0.3-0.4c-0.1,0.2-0.2,0.3-0.3,0.4c-0.1,0.1-0.3,0.1-0.4,0.1c-0.1,0-0.3,0-0.3-0.1c-0.1,0-0.2-0.1-0.3-0.2
		c-0.1-0.1-0.1-0.1-0.2-0.1c-0.1,0-0.2,0.1-0.3,0.3l-0.2-0.1c0.2-0.6,0.4-1.1,0.6-1.4c0.2-0.3,0.4-0.6,0.7-0.8
		c0-0.2-0.1-0.3-0.1-0.4C51,16,51,15.9,50.9,15.9c-0.1,0-0.3,0.1-0.3,0.3c0,0.1-0.1,0.2-0.1,0.2c0,0-0.1,0.1-0.1,0.1
		c-0.1,0-0.1,0-0.2,0c-0.1,0-0.2,0-0.2-0.1c-0.1-0.1-0.1-0.1-0.1-0.2c0-0.1,0.1-0.3,0.2-0.5S50.4,15.6,50.7,15.6L50.7,15.6z
		 M44.5,15.6c0.4,0,0.7,0.3,0.8,0.8c0.3-0.3,0.6-0.4,0.9-0.6c0.3-0.1,0.6-0.2,1-0.2c0.5,0,1,0.2,1.4,0.5c0.4,0.3,0.5,0.8,0.5,1.4
		v3.1h-3.3c-0.2,0-0.4-0.1-0.5-0.2c-0.1-0.1-0.2-0.3-0.2-0.5c0-0.2,0.1-0.4,0.2-0.5c0.1-0.1,0.3-0.2,0.5-0.2c0.4,0,0.6,0.2,0.8,0.5
		l-0.2,0.1c-0.1-0.3-0.3-0.4-0.5-0.4c-0.2,0-0.3,0-0.4,0.1c-0.1,0.1-0.1,0.2-0.1,0.3c0,0.1,0,0.3,0.1,0.3c0.1,0.1,0.2,0.1,0.3,0.1h3
		v-1.8c-0.2,0.2-0.4,0.4-0.6,0.4c-0.2,0-0.3-0.1-0.5-0.2l0.1-0.2c0.1,0.1,0.2,0.2,0.3,0.2c0.1,0,0.3-0.1,0.4-0.2
		c0.1-0.2,0.2-0.4,0.2-0.6c0-0.3-0.1-0.5-0.3-0.8c-0.2-0.3-0.4-0.5-0.7-0.7c-0.3-0.2-0.6-0.3-0.9-0.3c-0.2,0-0.5,0-0.7,0.1
		c-0.3,0.1-0.5,0.2-0.7,0.4c0.1,0,0.2-0.1,0.4-0.1c0.3,0,0.6,0.1,0.8,0.3s0.4,0.5,0.4,0.8c0,0.4-0.2,0.7-0.5,0.9
		c-0.3,0.2-0.7,0.3-1.2,0.3c-0.4,0-0.8-0.1-1.1-0.2s-0.5-0.4-0.7-0.6l0.1-0.1c0.1,0.1,0.2,0.2,0.2,0.2c0.1,0,0.1-0.1,0.2-0.2
		c0.1-0.1,0.2-0.3,0.3-0.5c0.3-0.5,0.5-0.8,0.7-1c0-0.2-0.1-0.4-0.1-0.5c-0.1-0.1-0.2-0.2-0.3-0.2c-0.1,0-0.3,0.1-0.3,0.3
		c0,0.1-0.1,0.2-0.1,0.2c0,0-0.1,0.1-0.1,0.1c-0.1,0-0.1,0-0.2,0c-0.1,0-0.2,0-0.2-0.1c-0.1-0.1-0.1-0.1-0.1-0.2
		c0-0.1,0.1-0.3,0.2-0.5S44.3,15.6,44.5,15.6L44.5,15.6z M42.4,15.5h0.2c0,0,0,0,0,0.1c0,0.1,0,0.1,0,0.1c0,0.1,0,0.1,0.1,0.2
		c0,0.1,0.1,0.1,0.2,0.2c0.2,0.2,0.3,0.3,0.3,0.5c0,0.2-0.1,0.3-0.2,0.4c-0.1,0.1-0.3,0.2-0.5,0.2c-0.1,0-0.2,0-0.3-0.1v1.4
		c0.4-0.1,0.6-0.2,0.9-0.3l0.1,0.2c-0.3,0.2-0.6,0.3-1,0.4v1.9h-0.2v-1.9c-0.2,0-0.5,0.1-0.7,0.1c-0.5,0-0.9-0.1-1.2-0.3
		c-0.3-0.2-0.4-0.5-0.4-0.9c0-0.3,0.1-0.6,0.4-0.8c0.2-0.2,0.6-0.3,1.1-0.3h0.2c0.2,0,0.3,0,0.4,0c-0.1-0.2-0.1-0.4-0.3-0.5
		c-0.1-0.1-0.2-0.2-0.3-0.2c-0.1,0-0.1,0-0.2,0c-0.1,0-0.1,0.1-0.2,0.2c-0.1,0.1-0.2,0.2-0.2,0.2c0,0-0.1,0-0.1,0
		c-0.1,0-0.1,0-0.2-0.1s-0.1-0.1-0.1-0.2c0-0.1,0.1-0.2,0.2-0.3s0.3-0.2,0.5-0.2c0.3,0,0.5,0.1,0.7,0.2c0.2,0.1,0.3,0.3,0.4,0.6
		C42,16.2,42.1,15.9,42.4,15.5L42.4,15.5z"/>
</g>
<g>
	<path class="st34" d="M18.1,84.8c-0.2,0-0.4,0-0.5,0.1c-0.1,0.1-0.2,0.2-0.3,0.2c-0.1,0.1-0.1,0.2-0.1,0.4c0,0.3,0.1,0.6,0.3,0.8
		c0.2,0.2,0.5,0.3,0.9,0.3c0.1,0,0.3,0,0.5,0v-1.8C18.8,84.8,18.5,84.8,18.1,84.8L18.1,84.8z M19.4,84c-0.1,0.2-0.2,0.6-0.2,0.9
		c0.1,0.1,0.2,0.1,0.3,0.1c0.1,0,0.2,0,0.3-0.1c0.1-0.1,0.1-0.2,0.1-0.3c0-0.1-0.1-0.2-0.2-0.4C19.5,84.1,19.5,84.1,19.4,84L19.4,84
		z M19.4,83.5h0.2c0,0,0,0,0,0.1c0,0.1,0,0.1,0,0.1c0,0.1,0,0.1,0.1,0.2c0,0.1,0.1,0.1,0.2,0.2c0.2,0.2,0.3,0.3,0.3,0.5
		c0,0.2-0.1,0.3-0.2,0.4c-0.1,0.1-0.3,0.2-0.5,0.2c-0.1,0-0.2,0-0.3-0.1v1.3c0.3-0.1,0.6-0.2,0.9-0.3l0.1,0.2
		c-0.3,0.2-0.6,0.3-1,0.4v1.9h-0.2v-1.8c-0.2,0-0.5,0.1-0.7,0.1c-0.5,0-0.9-0.1-1.2-0.3s-0.4-0.5-0.4-0.9c0-0.3,0.1-0.6,0.4-0.8
		c0.2-0.2,0.6-0.3,1.1-0.3h0.2c0.2,0,0.3,0,0.4,0c-0.1-0.2-0.1-0.4-0.3-0.5c-0.1-0.1-0.2-0.2-0.3-0.2c-0.1,0-0.1,0-0.2,0
		c-0.1,0-0.1,0.1-0.2,0.2c-0.1,0.1-0.2,0.2-0.2,0.2s-0.1,0-0.1,0c-0.1,0-0.1,0-0.2-0.1c0-0.1-0.1-0.1-0.1-0.2c0-0.1,0.1-0.2,0.2-0.3
		c0.1-0.1,0.3-0.1,0.5-0.1c0.2,0,0.5,0.1,0.7,0.2c0.2,0.1,0.3,0.3,0.4,0.6C19,84.2,19.1,83.9,19.4,83.5L19.4,83.5z"/>
	<path class="st34" d="M30.6,85.7c-0.3,0-0.5,0.1-0.7,0.3c-0.2,0.2-0.3,0.3-0.3,0.5c0,0.1,0.1,0.2,0.4,0.2c0.2,0,0.3,0,0.4,0
		c0.1,0,0.1-0.1,0.2-0.2s0.1-0.2,0.1-0.5V85.7z M37.9,84.8c-0.3,0-0.6,0.1-0.8,0.3c-0.1,0.1-0.2,0.3-0.3,0.6s-0.2,0.5-0.3,0.7
		c0.1,0,0.2-0.1,0.4-0.1c0.1,0,0.2,0,0.3,0c0.2,0,0.3,0,0.4,0c0.5,0,0.8-0.1,1-0.2c0.2-0.1,0.3-0.3,0.3-0.5c0-0.2-0.1-0.4-0.3-0.6
		C38.5,84.8,38.2,84.8,37.9,84.8L37.9,84.8z M22.8,84.8c-0.1,0-0.2,0-0.3,0c-0.1,0-0.2,0.1-0.3,0.1c-0.1,0.1-0.3,0.3-0.5,0.7
		c-0.2,0.3-0.3,0.5-0.4,0.6c0.2,0.1,0.5,0.1,0.9,0.1c0.4,0,0.8,0,0.9-0.1s0.3-0.1,0.4-0.2c0.1-0.1,0.1-0.2,0.1-0.4
		c0-0.2-0.1-0.4-0.2-0.5C23.3,84.8,23,84.8,22.8,84.8L22.8,84.8z M36.8,83.6c0.4,0,0.6,0.2,0.7,0.5c0.2-0.2,0.5-0.3,0.7-0.4
		c0.2-0.1,0.4-0.1,0.6-0.1c0.5,0,0.9,0.2,1.2,0.5c0.3,0.3,0.5,0.8,0.5,1.3c0,0.4-0.1,0.7-0.3,1s-0.4,0.4-0.6,0.4
		c-0.1,0-0.3-0.1-0.5-0.2l0.1-0.2c0.1,0.1,0.2,0.2,0.3,0.2c0.1,0,0.3-0.1,0.4-0.2s0.1-0.4,0.1-0.6c0-0.4-0.1-0.8-0.4-1.2
		c-0.3-0.4-0.7-0.5-1.1-0.5c-0.2,0-0.4,0-0.6,0.1c-0.2,0.1-0.4,0.2-0.6,0.4c0.2-0.1,0.4-0.1,0.5-0.1c0.4,0,0.7,0.1,0.9,0.3
		c0.2,0.2,0.4,0.5,0.4,0.8c0,0.3-0.1,0.6-0.4,0.8c-0.3,0.2-0.6,0.3-1,0.3c-0.3,0-0.6-0.1-0.8-0.3c-0.1-0.1-0.2-0.1-0.3-0.1
		c-0.1,0-0.2,0.1-0.3,0.3l-0.2-0.1c0.1-0.5,0.3-1,0.5-1.3c0.2-0.4,0.4-0.7,0.7-1c0-0.1,0-0.2-0.1-0.3C37.1,84,37.1,84,37,84
		c-0.1,0-0.1,0-0.1,0.1s-0.1,0.1-0.1,0.2c0,0.2-0.1,0.3-0.1,0.3c0,0.1-0.1,0.1-0.2,0.1c-0.1,0-0.2,0-0.2-0.1
		c-0.1-0.1-0.1-0.1-0.1-0.2c0-0.2,0.1-0.3,0.2-0.5C36.4,83.7,36.6,83.6,36.8,83.6L36.8,83.6z M33.1,82.5c-0.3,0-0.5,0-0.6,0.1
		c-0.1,0-0.2,0.1-0.2,0.2c0,0.1,0,0.1,0,0.1c0,0,0.1,0.1,0.2,0.1c0.1,0,0.3,0.1,0.5,0.1l0.7,0.1c0.3,0,0.5,0,0.6,0
		c0.2,0,0.3,0,0.4-0.1c0.1-0.1,0.1-0.1,0.1-0.2c0-0.1-0.1-0.2-0.4-0.3C34.1,82.5,33.7,82.5,33.1,82.5L33.1,82.5z M24.4,82.5
		c-0.4,0-0.7,0.1-0.9,0.3S23,83.4,22.8,84c0.4-0.3,0.9-0.4,1.3-0.4c0.4,0,0.8,0.1,1.1,0.3c0.1-0.2,0.2-0.4,0.2-0.6
		c0-0.3-0.1-0.5-0.3-0.6C25,82.5,24.7,82.5,24.4,82.5L24.4,82.5z M30.6,82.1v0.9c0.1,0,0.2,0.1,0.3,0.1c0.1,0,0.2,0,0.2-0.1
		c0.1-0.1,0.1-0.1,0.1-0.2c0-0.1,0-0.2-0.1-0.3c-0.1-0.1-0.2-0.2-0.4-0.3C30.7,82.2,30.7,82.2,30.6,82.1L30.6,82.1z M33.4,81.9
		c0.4,0,0.8,0.1,1.2,0.3c0.3,0.2,0.5,0.4,0.5,0.7c0,0.1,0,0.3-0.1,0.4c-0.1,0.1-0.2,0.2-0.4,0.2c0.2,0.1,0.4,0.3,0.6,0.6
		c0.1,0.3,0.2,0.5,0.2,0.8c0,0.7-0.2,1.2-0.6,1.6s-0.9,0.5-1.4,0.5c-0.5,0-0.9-0.1-1.2-0.3c-0.3-0.2-0.4-0.5-0.4-0.9
		c0-0.3,0.1-0.6,0.3-0.8h-0.4v-0.2h1.7c0-0.2-0.1-0.3-0.1-0.4C33,84,32.9,84,32.8,84c-0.1,0-0.1,0-0.2,0.1l-0.1,0.2
		c-0.1,0.1-0.2,0.1-0.3,0.1c-0.2,0-0.3-0.1-0.3-0.3c0-0.1,0.1-0.2,0.2-0.3s0.3-0.2,0.5-0.2c0.3,0,0.5,0.1,0.6,0.3
		c0.1,0.2,0.2,0.5,0.2,0.9h-0.7c-0.3,0-0.5,0.1-0.6,0.2C32,85.1,32,85.2,32,85.5c0,0.3,0.1,0.5,0.3,0.6c0.2,0.1,0.6,0.2,1.1,0.2
		c0.5,0,1-0.1,1.3-0.4s0.4-0.6,0.4-1.2c0-0.2-0.1-0.4-0.2-0.6c-0.1-0.2-0.2-0.3-0.4-0.4c-0.2-0.1-0.3-0.2-0.5-0.2
		c-0.2,0-0.4-0.1-0.8-0.1c-0.4,0-0.6-0.1-0.8-0.1c-0.1,0-0.3-0.1-0.4-0.2S32,82.9,32,82.7c0-0.3,0.1-0.5,0.4-0.6
		C32.6,81.9,33,81.9,33.4,81.9L33.4,81.9z M24.5,81.9c0.4,0,0.6,0.1,0.9,0.4c0.2,0.3,0.3,0.6,0.3,0.9c0,0.3-0.1,0.6-0.2,0.9
		c0.2,0.2,0.3,0.4,0.4,0.6c0.1,0.2,0.1,0.5,0.1,0.8c0,0.4-0.1,0.7-0.3,1c-0.2,0.3-0.4,0.4-0.6,0.4c-0.2,0-0.3-0.1-0.5-0.2l0.1-0.2
		c0.1,0.1,0.2,0.2,0.3,0.2c0.1,0,0.3-0.1,0.4-0.2c0.1-0.2,0.1-0.4,0.1-0.6c0-0.2-0.1-0.5-0.3-0.8s-0.4-0.5-0.7-0.7
		c-0.3-0.2-0.6-0.3-0.9-0.3c-0.2,0-0.5,0-0.7,0.1c-0.3,0.1-0.5,0.2-0.7,0.4c0.1,0,0.2-0.1,0.4-0.1c0.3,0,0.6,0.1,0.8,0.3
		c0.2,0.2,0.3,0.5,0.3,0.8c0,0.4-0.2,0.7-0.5,0.9s-0.7,0.3-1.2,0.3c-0.4,0-0.8-0.1-1.1-0.2s-0.5-0.3-0.7-0.6l0.1-0.1
		c0.1,0.1,0.2,0.2,0.2,0.2c0.1,0,0.1-0.1,0.2-0.2c0.1-0.1,0.2-0.3,0.3-0.5c0.3-0.5,0.5-0.8,0.6-0.9c0-0.2-0.1-0.4-0.1-0.5
		c-0.1-0.1-0.2-0.2-0.3-0.2c-0.1,0-0.2,0.1-0.3,0.3c0,0.1-0.1,0.2-0.1,0.2c0,0-0.1,0.1-0.1,0.1c-0.1,0-0.1,0-0.2,0
		c-0.1,0-0.2,0-0.2-0.1c-0.1-0.1-0.1-0.1-0.1-0.2c0-0.1,0.1-0.3,0.2-0.5c0.2-0.2,0.3-0.2,0.6-0.2c0.4,0,0.7,0.2,0.8,0.7l0.1-0.1
		c0.1-0.1,0.1-0.3,0.2-0.6c0.1-0.3,0.2-0.6,0.3-0.8c0.1-0.2,0.2-0.4,0.4-0.5s0.3-0.3,0.5-0.3C24,81.9,24.2,81.9,24.5,81.9L24.5,81.9
		z M30.4,81.8h0.2c0.1,0.1,0.2,0.2,0.4,0.3c0.2,0.1,0.3,0.2,0.4,0.3c0.1,0.1,0.1,0.2,0.1,0.4c0,0.2-0.1,0.3-0.2,0.4
		s-0.3,0.2-0.4,0.2c-0.1,0-0.2,0-0.3-0.1v0.8l0,0c0.2,0.2,0.3,0.6,0.3,0.9c0,0.4,0,0.7-0.1,1c0,0.2-0.1,0.4-0.1,0.5
		c-0.1,0.1-0.1,0.2-0.2,0.2c-0.1,0-0.2,0.1-0.4,0.1c-0.3,0-0.5,0-0.5-0.1c-0.1-0.1-0.1-0.2-0.1-0.4c0-0.1,0-0.3,0.1-0.4
		c0.1-0.2,0.2-0.3,0.3-0.4s0.4-0.1,0.7-0.1c0-0.4-0.1-0.8-0.3-1c-0.2-0.2-0.4-0.3-0.7-0.3c-0.2,0-0.4,0.1-0.6,0.2
		c-0.2,0.2-0.3,0.4-0.4,0.7l0,0c0,0,0,0,0.1,0c0.2,0,0.3,0.1,0.4,0.2s0.1,0.3,0.1,0.5c0,0.2-0.1,0.5-0.3,0.7
		c-0.2,0.2-0.5,0.4-0.8,0.4c-0.3,0-0.6-0.1-0.9-0.4c-0.2-0.3-0.3-0.6-0.3-1.1c0-0.5,0.1-0.9,0.4-1.2c0.3-0.3,0.6-0.5,1-0.5
		c0.2,0,0.3,0,0.3,0l0,0.2c-0.1,0-0.2,0-0.3,0c-0.3,0-0.6,0.1-0.8,0.3c-0.2,0.2-0.3,0.5-0.3,0.9c0,0.3,0.1,0.6,0.3,0.9
		c0.2,0.2,0.5,0.3,0.8,0.3c0.2,0,0.3-0.1,0.4-0.2c0.1-0.1,0.2-0.2,0.2-0.4c0-0.1,0-0.2-0.1-0.3c-0.1-0.1-0.1-0.1-0.2-0.1
		c-0.1,0-0.2,0.1-0.3,0.2l-0.2-0.1c0.2-0.7,0.4-1.1,0.7-1.4c0.2-0.3,0.5-0.4,0.9-0.4c0.2,0,0.4,0.1,0.6,0.2l0.1,0.1V81.8L30.4,81.8z
		"/>
	<path class="st34" d="M66.3,84.8c-0.1,0-0.2,0-0.3,0c-0.1,0-0.2,0.1-0.3,0.1c-0.1,0.1-0.3,0.3-0.5,0.7c-0.2,0.3-0.3,0.5-0.4,0.6
		c0.2,0.1,0.5,0.1,0.9,0.1c0.4,0,0.8,0,0.9-0.1s0.3-0.1,0.4-0.2c0.1-0.1,0.1-0.2,0.1-0.4c0-0.2-0.1-0.4-0.2-0.5
		C66.7,84.8,66.5,84.8,66.3,84.8L66.3,84.8z M55.5,84.8c-0.3,0-0.8,0.1-1.2,0.3c-0.1,0.2-0.3,0.3-0.4,0.5c-0.1,0.2-0.2,0.4-0.3,0.7
		c0.1,0,0.2-0.1,0.3-0.1c0.1,0,0.2,0,0.3,0c0.1,0,0.2,0,0.3,0c0.2,0,0.4-0.1,0.5-0.2c0.1-0.2,0.2-0.4,0.2-0.7h0.2
		c0,0.3,0.1,0.5,0.2,0.7s0.3,0.3,0.5,0.3c0.2,0,0.3-0.1,0.4-0.2c0.1-0.1,0.1-0.3,0.1-0.4c0-0.2-0.1-0.5-0.3-0.6
		C56.1,84.8,55.8,84.8,55.5,84.8L55.5,84.8z M49.1,84.8c-0.1,0-0.2,0-0.3,0c-0.1,0-0.2,0.1-0.3,0.1c-0.1,0.1-0.3,0.3-0.5,0.7
		c-0.2,0.3-0.3,0.5-0.4,0.6c0.2,0.1,0.5,0.1,0.9,0.1c0.4,0,0.8,0,0.9-0.1c0.2,0,0.3-0.1,0.4-0.2c0.1-0.1,0.1-0.2,0.1-0.4
		c0-0.2-0.1-0.4-0.2-0.5C49.5,84.8,49.3,84.8,49.1,84.8L49.1,84.8z M44.4,84.8c-0.2,0-0.4,0-0.5,0.1c-0.1,0.1-0.2,0.2-0.3,0.2
		c-0.1,0.1-0.1,0.2-0.1,0.4c0,0.3,0.1,0.6,0.3,0.8c0.2,0.2,0.5,0.3,0.9,0.3c0.1,0,0.3,0,0.5,0v-1.8C45.1,84.8,44.8,84.8,44.4,84.8
		L44.4,84.8z M73.3,84.2c-0.2,0-0.3,0-0.4,0.1c-0.1,0.1-0.1,0.2-0.2,0.3c0.5,0,0.8,0,0.9,0c0,0,0-0.1,0-0.1c0-0.1,0-0.1-0.1-0.2
		C73.5,84.2,73.4,84.2,73.3,84.2L73.3,84.2z M45.7,84c-0.1,0.2-0.2,0.6-0.2,0.9c0.1,0.1,0.2,0.1,0.3,0.1c0.1,0,0.2,0,0.3-0.1
		c0.1-0.1,0.1-0.2,0.1-0.3c0-0.1-0.1-0.2-0.2-0.4C45.8,84.1,45.8,84.1,45.7,84L45.7,84z M73.4,83.6c0.2,0,0.3,0,0.4,0.1
		c0.1,0.1,0.2,0.2,0.2,0.4c0,0.2,0,0.3-0.1,0.5c0.1,0.1,0.3,0.2,0.4,0.4c0.1,0.2,0.1,0.3,0.1,0.5c0,0.3-0.1,0.6-0.3,0.9
		c-0.2,0.3-0.5,0.4-0.8,0.4c-0.2,0-0.4,0-0.5-0.1c-0.1-0.1-0.3-0.2-0.4-0.4c-0.1,0.2-0.2,0.3-0.4,0.4c-0.1,0.1-0.3,0.1-0.5,0.1
		c-0.3,0-0.6-0.1-0.8-0.4c-0.2-0.3-0.3-0.6-0.3-1c0-0.4,0.1-0.8,0.4-1.1c0.3-0.3,0.6-0.4,1.1-0.4v0.2c-0.3,0-0.6,0.1-0.8,0.3
		c-0.2,0.2-0.4,0.5-0.4,0.8c0,0.2,0.1,0.4,0.2,0.6s0.4,0.3,0.7,0.3c0.3,0,0.4-0.1,0.6-0.2c0.1-0.2,0.2-0.4,0.2-0.7h0.2
		c0,0.3,0.1,0.6,0.2,0.7c0.1,0.2,0.3,0.2,0.6,0.2c0.3,0,0.5-0.1,0.6-0.2c0.2-0.1,0.2-0.3,0.2-0.6c0-0.2-0.1-0.4-0.2-0.5
		c-0.1-0.1-0.3-0.2-0.6-0.2h-0.8c0-0.4,0.1-0.7,0.2-0.9C72.9,83.7,73.1,83.6,73.4,83.6L73.4,83.6z M65,83.6c0.4,0,0.7,0.2,0.8,0.7
		c0.3-0.2,0.6-0.4,0.9-0.6c0.3-0.1,0.6-0.2,0.9-0.2c0.5,0,1,0.2,1.4,0.5c0.4,0.3,0.5,0.8,0.5,1.3c0,0.4-0.1,0.7-0.3,1
		c-0.2,0.3-0.4,0.4-0.6,0.4c-0.2,0-0.3-0.1-0.5-0.2l0.1-0.2c0.1,0.1,0.2,0.2,0.3,0.2c0.1,0,0.3-0.1,0.4-0.2c0.1-0.2,0.1-0.4,0.1-0.6
		c0-0.2-0.1-0.5-0.3-0.8c-0.2-0.3-0.4-0.5-0.7-0.7s-0.6-0.3-0.9-0.3c-0.2,0-0.5,0-0.7,0.1c-0.3,0.1-0.5,0.2-0.7,0.4
		c0.1,0,0.2-0.1,0.4-0.1c0.3,0,0.6,0.1,0.8,0.3c0.2,0.2,0.3,0.5,0.3,0.8c0,0.4-0.2,0.7-0.5,0.9c-0.3,0.2-0.7,0.3-1.2,0.3
		c-0.4,0-0.8-0.1-1.1-0.2c-0.3-0.1-0.5-0.3-0.7-0.6l0.1-0.1c0.1,0.1,0.2,0.2,0.2,0.2c0.1,0,0.1-0.1,0.2-0.2s0.2-0.3,0.3-0.5
		c0.3-0.5,0.5-0.8,0.6-0.9c0-0.2-0.1-0.4-0.1-0.5c-0.1-0.1-0.2-0.2-0.3-0.2c-0.1,0-0.2,0.1-0.3,0.3c0,0.1-0.1,0.2-0.1,0.2
		c0,0-0.1,0.1-0.1,0.1c-0.1,0-0.1,0-0.2,0c-0.1,0-0.2,0-0.2-0.1c-0.1-0.1-0.1-0.1-0.1-0.2c0-0.1,0.1-0.3,0.2-0.5
		C64.6,83.7,64.8,83.6,65,83.6L65,83.6z M61.7,83.6c0.5,0,1,0.1,1.3,0.3c0.3,0.2,0.5,0.5,0.5,0.8c0,0.2-0.1,0.5-0.3,0.6
		c-0.2,0.2-0.4,0.2-0.7,0.2c-0.2,0-0.4-0.1-0.6-0.2c-0.1-0.1-0.2-0.3-0.2-0.6h-0.7v-0.2h1.9v0.2h-1c0,0.2,0.2,0.3,0.6,0.3
		c0.2,0,0.4,0,0.5-0.1c0.1-0.1,0.2-0.2,0.2-0.4c0-0.2-0.1-0.4-0.4-0.5c-0.2-0.1-0.6-0.2-1.1-0.2c-0.5,0-1,0.2-1.4,0.5
		c-0.4,0.3-0.6,0.8-0.6,1.3c0,0.6,0.2,1.1,0.6,1.5c0.4,0.4,0.9,0.6,1.4,0.6c0.5,0,0.9-0.1,1.2-0.4c0.3-0.3,0.4-0.6,0.4-1.1h0.2
		c0,0.5-0.2,1-0.5,1.3c-0.3,0.3-0.9,0.5-1.6,0.5c-0.5,0-0.9-0.1-1.3-0.3c-0.3-0.2-0.6-0.4-0.8-0.8s-0.3-0.7-0.3-1
		c0-0.7,0.2-1.2,0.7-1.7C60.3,83.9,60.9,83.6,61.7,83.6L61.7,83.6z M53.9,83.6c0.4,0,0.7,0.2,0.8,0.7c0.3-0.2,0.6-0.4,0.9-0.5
		c0.3-0.1,0.6-0.2,0.9-0.2c0.5,0,1,0.2,1.3,0.5c0.4,0.3,0.5,0.8,0.5,1.3c0,0.4-0.1,0.7-0.3,1c-0.2,0.3-0.4,0.4-0.6,0.4
		c-0.2,0-0.3-0.1-0.5-0.2l0.1-0.2c0.1,0.1,0.2,0.2,0.3,0.2c0.1,0,0.3-0.1,0.4-0.2c0.1-0.2,0.1-0.4,0.1-0.6c0-0.2-0.1-0.5-0.3-0.8
		s-0.4-0.5-0.7-0.7s-0.6-0.3-0.9-0.3c-0.2,0-0.5,0.1-0.8,0.2c-0.3,0.1-0.5,0.3-0.8,0.4c0.1,0,0.3-0.1,0.4-0.1c0.2,0,0.3,0,0.4,0
		c0.4,0,0.8,0.1,1,0.4c0.2,0.2,0.4,0.6,0.4,1c0,0.3-0.1,0.6-0.2,0.7s-0.4,0.3-0.6,0.3c-0.2,0-0.3,0-0.4-0.1
		c-0.1-0.1-0.2-0.2-0.3-0.4c-0.1,0.2-0.2,0.3-0.3,0.4c-0.1,0.1-0.3,0.1-0.4,0.1c-0.1,0-0.2,0-0.3-0.1s-0.2-0.1-0.3-0.2
		c-0.1-0.1-0.1-0.1-0.2-0.1c-0.1,0-0.2,0.1-0.3,0.3l-0.2-0.1c0.2-0.6,0.4-1.1,0.6-1.4c0.2-0.3,0.4-0.6,0.7-0.8
		c0-0.2-0.1-0.3-0.1-0.4c-0.1-0.1-0.2-0.1-0.2-0.1c-0.1,0-0.2,0.1-0.3,0.3c0,0.1-0.1,0.2-0.1,0.2c0,0-0.1,0.1-0.1,0.1
		c-0.1,0-0.1,0-0.2,0c-0.1,0-0.2,0-0.2-0.1c-0.1-0.1-0.1-0.1-0.1-0.2c0-0.1,0.1-0.3,0.2-0.5C53.5,83.7,53.7,83.6,53.9,83.6
		L53.9,83.6z M47.8,83.6c0.4,0,0.7,0.2,0.8,0.7c0.3-0.2,0.6-0.4,0.9-0.6s0.6-0.2,0.9-0.2c0.5,0,1,0.2,1.4,0.5
		c0.4,0.3,0.5,0.8,0.5,1.3v3.1H49c-0.2,0-0.4-0.1-0.5-0.2c-0.1-0.1-0.2-0.3-0.2-0.5c0-0.2,0.1-0.4,0.2-0.5c0.1-0.1,0.3-0.2,0.5-0.2
		c0.4,0,0.6,0.2,0.8,0.5l-0.2,0.1c-0.1-0.2-0.3-0.4-0.5-0.4c-0.1,0-0.3,0-0.4,0.1c-0.1,0.1-0.1,0.2-0.1,0.3c0,0.1,0,0.3,0.1,0.3
		s0.2,0.1,0.3,0.1h3v-1.8c-0.2,0.2-0.4,0.3-0.6,0.3c-0.2,0-0.3-0.1-0.5-0.2l0.1-0.2c0.1,0.1,0.2,0.2,0.3,0.2c0.1,0,0.3-0.1,0.4-0.2
		s0.1-0.4,0.1-0.6c0-0.2-0.1-0.5-0.3-0.8c-0.2-0.3-0.4-0.5-0.7-0.7s-0.6-0.3-0.9-0.3c-0.2,0-0.5,0-0.7,0.1c-0.3,0.1-0.5,0.2-0.7,0.4
		c0.1,0,0.2-0.1,0.4-0.1c0.3,0,0.6,0.1,0.8,0.3c0.2,0.2,0.3,0.5,0.3,0.8c0,0.4-0.2,0.7-0.5,0.9s-0.7,0.3-1.2,0.3
		c-0.4,0-0.8-0.1-1.1-0.2S47,86.3,46.9,86l0.1-0.1c0.1,0.1,0.2,0.2,0.2,0.2c0.1,0,0.1-0.1,0.2-0.2s0.2-0.3,0.3-0.5
		c0.3-0.5,0.5-0.8,0.6-0.9c0-0.2-0.1-0.4-0.1-0.5c-0.1-0.1-0.2-0.2-0.3-0.2c-0.1,0-0.2,0.1-0.3,0.3c0,0.1-0.1,0.2-0.1,0.2
		c0,0-0.1,0.1-0.1,0.1c-0.1,0-0.1,0-0.2,0c-0.1,0-0.2,0-0.2-0.1C47,84.5,47,84.4,47,84.3c0-0.1,0.1-0.3,0.2-0.5
		C47.4,83.7,47.6,83.6,47.8,83.6L47.8,83.6z M45.7,83.5h0.2c0,0,0,0,0,0.1c0,0.1,0,0.1,0,0.1c0,0.1,0,0.1,0.1,0.2
		c0,0.1,0.1,0.1,0.2,0.2c0.2,0.2,0.3,0.3,0.3,0.5c0,0.2-0.1,0.3-0.2,0.4c-0.1,0.1-0.3,0.2-0.5,0.2c-0.1,0-0.2,0-0.3-0.1v1.3
		c0.3-0.1,0.6-0.2,0.9-0.3l0.1,0.2c-0.3,0.2-0.6,0.3-1,0.4v1.9h-0.2v-1.8c-0.2,0-0.5,0.1-0.7,0.1c-0.5,0-0.9-0.1-1.2-0.3
		s-0.4-0.5-0.4-0.9c0-0.3,0.1-0.6,0.4-0.8c0.2-0.2,0.6-0.3,1.1-0.3h0.2c0.2,0,0.3,0,0.4,0c-0.1-0.2-0.1-0.4-0.3-0.5
		c-0.1-0.1-0.2-0.2-0.3-0.2c-0.1,0-0.1,0-0.2,0c-0.1,0-0.1,0.1-0.2,0.2c-0.1,0.1-0.2,0.2-0.2,0.2c0,0-0.1,0-0.1,0
		c-0.1,0-0.1,0-0.2-0.1c0-0.1-0.1-0.1-0.1-0.2c0-0.1,0.1-0.2,0.2-0.3c0.1-0.1,0.3-0.1,0.5-0.1c0.2,0,0.5,0.1,0.7,0.2
		c0.2,0.1,0.3,0.3,0.4,0.6C45.3,84.2,45.4,83.9,45.7,83.5L45.7,83.5z"/>
</g>
<g>
	<path class="st0" d="M136,12.8c0.1,0,0.1,0,0.2,0c0,0,0.1,0,0.1,0.1c0,0,0.1,0.1,0.1,0.1c0,0,0.1,0.1,0.1,0.2
		c0,0.1,0.1,0.2,0.1,0.3c0,0.1,0,0.2,0.1,0.4h0c0.2-0.3,0.4-0.5,0.5-0.6c0.1-0.1,0.2-0.2,0.3-0.3s0.1-0.1,0.2-0.1s0.2,0,0.3,0
		c0.1,0,0.2,0,0.2,0l-0.1,0.6h-0.2c0-0.1,0-0.1-0.1-0.1c0,0,0,0-0.1,0c0,0,0,0-0.1,0s-0.1,0.1-0.1,0.1c-0.1,0.1-0.1,0.1-0.2,0.2
		s-0.1,0.2-0.2,0.3l-0.2,0.3c0,0.2,0.1,0.4,0.1,0.5c0,0.1,0.1,0.3,0.1,0.4c0,0.1,0,0.2,0.1,0.2s0,0.1,0.1,0.1c0,0,0,0,0.1,0.1
		c0,0,0.1,0,0.1,0c0.1,0,0.1,0,0.2-0.1c0.1,0,0.1-0.1,0.2-0.3l0.2,0.1c-0.1,0.2-0.3,0.4-0.4,0.5c-0.1,0.1-0.3,0.1-0.4,0.1
		c-0.1,0-0.2,0-0.2,0c-0.1,0-0.1-0.1-0.2-0.2c0-0.1-0.1-0.2-0.1-0.3c-0.1-0.3-0.1-0.5-0.1-0.6h0c-0.2,0.3-0.4,0.5-0.5,0.7
		c-0.1,0.1-0.2,0.2-0.3,0.3c-0.1,0.1-0.1,0.1-0.2,0.1c-0.1,0-0.2,0-0.3,0c-0.1,0-0.2,0-0.2,0l0.1-0.6h0.2c0,0.1,0,0.1,0.1,0.1
		c0,0,0.1,0,0.1,0c0,0,0.1-0.1,0.1-0.1c0.1-0.1,0.1-0.2,0.3-0.3c0.1-0.1,0.3-0.3,0.5-0.6c0-0.2-0.1-0.3-0.1-0.5
		c0-0.2-0.1-0.3-0.1-0.4s-0.1-0.2-0.1-0.3c0,0,0-0.1-0.1-0.1c0,0-0.1,0-0.1,0c0,0-0.1,0-0.1,0c0,0-0.1,0.1-0.1,0.1
		c0,0-0.1,0.1-0.2,0.2l-0.2-0.1c0.1-0.2,0.3-0.3,0.4-0.4C135.7,12.9,135.8,12.8,136,12.8L136,12.8z"/>
	<path class="st0" d="M142.3,12c-0.3,0-0.6,0-0.8,0.1c-0.2,0.1-0.3,0.2-0.3,0.4c0,0.2,0.1,0.3,0.2,0.4s0.4,0.2,0.7,0.2
		c0.1-0.1,0.3-0.1,0.4-0.1c0,0,0.1,0,0.2,0c0.2-0.1,0.3-0.1,0.4-0.2c0.1-0.1,0.1-0.2,0.1-0.3c0-0.2-0.1-0.3-0.3-0.4
		S142.7,12,142.3,12L142.3,12z M142.3,11.5c0.4,0,0.7,0.1,1,0.3s0.3,0.4,0.3,0.7c0,0.2,0,0.3-0.1,0.4c-0.1,0.1-0.2,0.2-0.4,0.3
		c0.2,0.1,0.3,0.3,0.4,0.4s0.1,0.4,0.1,0.7c0,0.4-0.1,0.8-0.3,1.1c-0.2,0.3-0.5,0.5-0.9,0.5c-0.1,0-0.2,0-0.3,0l0.1-0.2
		c0.1,0,0.2,0,0.3,0c0.3,0,0.5-0.1,0.7-0.3s0.2-0.5,0.2-0.8c0-0.3-0.1-0.6-0.3-0.8c-0.2-0.2-0.4-0.3-0.6-0.3c-0.2,0-0.3,0.1-0.5,0.2
		s-0.3,0.3-0.4,0.6l0,0c0,0,0,0,0.1,0c0.1,0,0.3,0.1,0.3,0.2c0.1,0.1,0.1,0.3,0.1,0.4c0,0.2-0.1,0.4-0.3,0.6s-0.4,0.3-0.7,0.3
		c-0.2,0-0.5-0.1-0.7-0.3c-0.2-0.2-0.3-0.5-0.3-0.8c0-0.2,0.1-0.5,0.3-0.6c0.2-0.2,0.4-0.3,0.7-0.3c0-0.1,0-0.3-0.1-0.3
		c0-0.1-0.1-0.1-0.2-0.1c-0.1,0-0.1,0-0.2,0c0,0-0.1,0.1-0.1,0.2c0,0.1-0.1,0.2-0.1,0.2c0,0-0.1,0-0.1,0c-0.1,0-0.1,0-0.2-0.1
		c0-0.1-0.1-0.1-0.1-0.2c0-0.1,0.1-0.2,0.2-0.3s0.3-0.2,0.4-0.2c0.2,0,0.4,0.1,0.5,0.2c0.1,0.2,0.2,0.4,0.2,0.7
		c-0.2,0-0.5,0.1-0.6,0.2c-0.2,0.1-0.3,0.3-0.3,0.5c0,0.2,0.1,0.3,0.3,0.5c0.2,0.1,0.4,0.2,0.6,0.2c0.2,0,0.3,0,0.4-0.1
		c0.1-0.1,0.2-0.2,0.2-0.4c0-0.1,0-0.2-0.1-0.3c0-0.1-0.1-0.1-0.2-0.1c-0.1,0-0.2,0.1-0.2,0.2l-0.2-0.1c0.1-0.3,0.2-0.6,0.3-0.8
		c0.1-0.2,0.2-0.4,0.4-0.5c-0.3,0-0.5-0.1-0.7-0.3c-0.1-0.1-0.2-0.3-0.2-0.6c0-0.3,0.1-0.5,0.3-0.7
		C141.6,11.6,141.9,11.5,142.3,11.5L142.3,11.5z"/>
	<path class="st0" d="M160.4,14c-0.3,0-0.5,0.1-0.7,0.2c-0.1,0.1-0.2,0.3-0.3,0.5c-0.1,0.2-0.2,0.4-0.2,0.6c0.1,0,0.2-0.1,0.3-0.1
		c0.1,0,0.2,0,0.3,0c0.2,0,0.3,0,0.4,0c0.4,0,0.7-0.1,0.9-0.2c0.2-0.1,0.3-0.3,0.3-0.4c0-0.2-0.1-0.3-0.2-0.5
		C160.8,14.1,160.6,14,160.4,14L160.4,14z M155.3,14c-0.1,0-0.2,0-0.3,0s-0.2,0.1-0.3,0.1c-0.1,0.1-0.2,0.3-0.4,0.6
		c-0.2,0.3-0.3,0.4-0.3,0.5c0.2,0.1,0.5,0.1,0.8,0.1c0.4,0,0.7,0,0.8-0.1c0.2,0,0.3-0.1,0.4-0.2c0.1-0.1,0.1-0.2,0.1-0.4
		c0-0.2-0.1-0.3-0.2-0.5C155.7,14.1,155.5,14,155.3,14L155.3,14z M147.4,14c-0.1,0-0.1,0-0.2,0.1c0,0.1-0.1,0.1-0.1,0.2
		c0,0.1,0,0.1,0.1,0.2c0,0,0.1,0.1,0.2,0.1s0.1,0,0.2-0.1c0.1,0,0.1-0.1,0.1-0.2c0-0.1,0-0.1-0.1-0.2C147.5,14,147.4,14,147.4,14
		L147.4,14z M154.1,13c0.4,0,0.6,0.2,0.7,0.7c0.2-0.2,0.5-0.4,0.8-0.5c0.3-0.1,0.5-0.2,0.8-0.2c0.5,0,0.9,0.1,1.2,0.4
		c0.3,0.3,0.5,0.7,0.5,1.2c0,0.3-0.1,0.6-0.2,0.9c-0.1,0.2-0.3,0.4-0.5,0.4c-0.1,0-0.3-0.1-0.4-0.2l0.1-0.2c0.1,0.1,0.2,0.1,0.3,0.1
		c0.1,0,0.2-0.1,0.3-0.2c0.1-0.1,0.1-0.3,0.1-0.5c0-0.2-0.1-0.4-0.2-0.7c-0.1-0.2-0.3-0.4-0.6-0.6c-0.2-0.2-0.5-0.2-0.8-0.2
		c-0.2,0-0.4,0-0.6,0.1c-0.2,0.1-0.4,0.2-0.6,0.3c0.1,0,0.2-0.1,0.3-0.1c0.3,0,0.5,0.1,0.7,0.3c0.2,0.2,0.3,0.4,0.3,0.7
		c0,0.4-0.1,0.6-0.4,0.8c-0.3,0.2-0.6,0.3-1,0.3c-0.4,0-0.7-0.1-0.9-0.2s-0.4-0.3-0.6-0.5l0.1-0.1c0.1,0.1,0.1,0.1,0.2,0.1
		c0.1,0,0.1,0,0.2-0.1c0.1-0.1,0.2-0.2,0.3-0.4c0.2-0.4,0.4-0.7,0.6-0.8c0-0.2-0.1-0.3-0.1-0.4c-0.1-0.1-0.1-0.1-0.2-0.1
		c-0.1,0-0.2,0.1-0.3,0.3c0,0.1-0.1,0.2-0.1,0.2c0,0,0,0.1-0.1,0.1c0,0-0.1,0-0.1,0c-0.1,0-0.1,0-0.2-0.1c0-0.1-0.1-0.1-0.1-0.2
		c0-0.1,0.1-0.3,0.2-0.4C153.8,13.1,153.9,13,154.1,13L154.1,13z M147.5,13c0.4,0,0.8,0.1,1.2,0.4c0.4,0.2,0.6,0.6,0.6,1.1H149
		c-0.1-0.4-0.2-0.7-0.5-0.9c-0.3-0.2-0.7-0.3-1.1-0.3c-0.4,0-0.7,0.1-1,0.3c-0.3,0.2-0.4,0.5-0.4,0.8c0,0.3,0.1,0.5,0.3,0.7
		c0.2,0.2,0.5,0.3,0.9,0.3c0.4,0,0.7-0.1,0.9-0.2c0.2-0.1,0.3-0.3,0.3-0.6c0-0.2-0.1-0.3-0.2-0.4c-0.1-0.1-0.3-0.2-0.5-0.2
		c0.1,0.1,0.1,0.2,0.1,0.3c0,0.1,0,0.2-0.1,0.3c-0.1,0.1-0.2,0.1-0.3,0.1c-0.1,0-0.2,0-0.3-0.1c-0.1-0.1-0.1-0.2-0.1-0.3
		c0-0.2,0.1-0.3,0.2-0.4c0.1-0.1,0.3-0.1,0.5-0.1c0.3,0,0.6,0.1,0.8,0.3c0.2,0.2,0.3,0.4,0.3,0.7c0,0.3-0.1,0.6-0.4,0.8
		c-0.3,0.2-0.6,0.4-1,0.4c-0.5,0-0.8-0.1-1.1-0.4c-0.3-0.3-0.4-0.6-0.4-1c0-0.4,0.1-0.7,0.4-1S146.9,13,147.5,13L147.5,13z
		 M151.1,12c0.5,0,0.9,0.2,1.2,0.6c0.3,0.4,0.5,0.9,0.5,1.4c0,0.6-0.2,1-0.5,1.4c-0.3,0.3-0.7,0.5-1.3,0.5c-0.5,0-0.8-0.1-1.1-0.3
		c-0.3-0.2-0.4-0.5-0.4-0.8c0-0.3,0.1-0.5,0.3-0.7c0.2-0.2,0.5-0.3,0.9-0.3h0.1c0-0.1,0-0.3-0.1-0.3s-0.1-0.1-0.2-0.1
		c-0.1,0-0.1,0-0.2,0c0,0-0.1,0.1-0.1,0.2c0,0.1-0.1,0.2-0.1,0.2c0,0-0.1,0-0.1,0c-0.1,0-0.1,0-0.2-0.1c0-0.1-0.1-0.1-0.1-0.2
		c0-0.1,0.1-0.2,0.2-0.3c0.1-0.1,0.3-0.2,0.4-0.2c0.2,0,0.4,0.1,0.5,0.2c0.1,0.2,0.2,0.4,0.2,0.7c-0.5,0-0.8,0.1-0.9,0.2
		c-0.2,0.1-0.2,0.3-0.2,0.4c0,0.3,0.1,0.4,0.3,0.5c0.2,0.1,0.5,0.1,0.9,0.1c0.5,0,0.9-0.1,1.1-0.3c0.3-0.2,0.4-0.6,0.4-1
		c0-0.4-0.1-0.7-0.2-0.9c-0.1-0.3-0.3-0.5-0.6-0.6c-0.2-0.1-0.5-0.2-0.7-0.2c-0.2,0-0.5,0.1-0.7,0.2c-0.2,0.1-0.4,0.3-0.6,0.5
		l-0.2-0.1c0.2-0.3,0.4-0.4,0.6-0.6C150.6,12.1,150.9,12,151.1,12L151.1,12z M162.5,11.7v0.8c0.1,0,0.2,0.1,0.2,0.1
		c0.1,0,0.2,0,0.2-0.1s0.1-0.1,0.1-0.2c0-0.1,0-0.2-0.1-0.3c-0.1-0.1-0.2-0.2-0.3-0.2C162.6,11.8,162.6,11.8,162.5,11.7L162.5,11.7z
		 M162.3,11.5h0.2c0.1,0.1,0.2,0.1,0.4,0.2c0.2,0.1,0.3,0.2,0.3,0.3c0.1,0.1,0.1,0.2,0.1,0.3c0,0.1,0,0.3-0.1,0.4
		c-0.1,0.1-0.2,0.1-0.4,0.1c-0.1,0-0.2,0-0.3-0.1V14c0,0.1,0.1,0.2,0.1,0.3c0,0.1,0,0.2,0,0.3c0,0.3-0.1,0.6-0.2,0.9
		c-0.1,0.2-0.3,0.4-0.5,0.4c-0.1,0-0.3-0.1-0.4-0.2l0.1-0.2c0.1,0.1,0.2,0.1,0.3,0.1c0.1,0,0.2-0.1,0.3-0.2c0.1-0.1,0.1-0.3,0.1-0.5
		c0-0.4-0.1-0.7-0.4-1c-0.3-0.3-0.6-0.5-0.9-0.5c-0.2,0-0.4,0-0.6,0.1c-0.2,0.1-0.3,0.2-0.5,0.4c0.2-0.1,0.3-0.1,0.5-0.1
		c0.3,0,0.6,0.1,0.8,0.3c0.2,0.2,0.3,0.4,0.3,0.7c0,0.3-0.1,0.5-0.4,0.7c-0.3,0.2-0.5,0.3-0.9,0.3c-0.3,0-0.5-0.1-0.7-0.2
		c-0.1-0.1-0.2-0.1-0.2-0.1c-0.1,0-0.2,0.1-0.2,0.2l-0.2-0.1c0.1-0.4,0.2-0.8,0.4-1.2c0.2-0.3,0.4-0.6,0.6-0.9c0-0.1,0-0.2-0.1-0.2
		c-0.1-0.1-0.1-0.1-0.2-0.1c-0.1,0-0.1,0-0.1,0.1c0,0-0.1,0.1-0.1,0.2c0,0.1-0.1,0.2-0.1,0.3c0,0-0.1,0.1-0.2,0.1
		c-0.1,0-0.1,0-0.2-0.1s-0.1-0.1-0.1-0.2c0-0.1,0.1-0.3,0.2-0.4c0.1-0.1,0.3-0.2,0.5-0.2c0.3,0,0.5,0.2,0.6,0.5
		c0.2-0.2,0.4-0.3,0.6-0.4s0.4-0.1,0.5-0.1c0.2,0,0.4,0,0.6,0.1s0.4,0.2,0.5,0.4V11.5z"/>
	<path class="st0" d="M168.4,14.8c-0.3,0-0.5,0.1-0.6,0.3c-0.2,0.1-0.2,0.3-0.2,0.4c0,0.1,0.1,0.1,0.4,0.1c0.2,0,0.3,0,0.3,0
		c0.1,0,0.1-0.1,0.1-0.2s0-0.2,0-0.4V14.8z M180.1,14c-0.3,0-0.7,0.1-1.1,0.2c-0.1,0.1-0.2,0.3-0.3,0.5c-0.1,0.2-0.2,0.4-0.3,0.6
		c0.1,0,0.2-0.1,0.2-0.1c0.1,0,0.2,0,0.2,0c0.1,0,0.2,0,0.3,0c0.2,0,0.4-0.1,0.5-0.2c0.1-0.1,0.2-0.4,0.2-0.6h0.2
		c0,0.3,0.1,0.5,0.2,0.6c0.1,0.2,0.2,0.2,0.4,0.2c0.2,0,0.3-0.1,0.4-0.2c0.1-0.1,0.1-0.2,0.1-0.4c0-0.2-0.1-0.4-0.2-0.6
		C180.7,14.1,180.4,14,180.1,14L180.1,14z M170.9,14c-0.3,0-0.5,0.1-0.7,0.2c-0.1,0.1-0.2,0.3-0.3,0.5c-0.1,0.2-0.2,0.4-0.2,0.6
		c0.1,0,0.2-0.1,0.3-0.1c0.1,0,0.2,0,0.3,0c0.2,0,0.3,0,0.4,0c0.4,0,0.7-0.1,0.9-0.2c0.2-0.1,0.3-0.3,0.3-0.4c0-0.2-0.1-0.3-0.2-0.5
		C171.4,14.1,171.2,14,170.9,14L170.9,14z M176.5,13.5c-0.2,0-0.3,0-0.4,0.1c-0.1,0.1-0.1,0.1-0.1,0.2c0.5,0,0.7,0,0.8,0
		c0,0,0-0.1,0-0.1c0-0.1,0-0.1-0.1-0.2C176.7,13.5,176.6,13.5,176.5,13.5L176.5,13.5z M176.6,13c0.1,0,0.3,0,0.4,0.1
		c0.1,0.1,0.2,0.2,0.2,0.3c0,0.2,0,0.3-0.1,0.5c0.1,0.1,0.2,0.2,0.3,0.3c0.1,0.1,0.1,0.3,0.1,0.5c0,0.3-0.1,0.6-0.3,0.8
		s-0.4,0.3-0.7,0.3c-0.2,0-0.3,0-0.4-0.1c-0.1-0.1-0.2-0.2-0.3-0.3c-0.1,0.2-0.2,0.3-0.3,0.3c-0.1,0.1-0.3,0.1-0.4,0.1
		c-0.3,0-0.5-0.1-0.7-0.3c-0.2-0.2-0.3-0.5-0.3-0.9c0-0.4,0.1-0.7,0.3-0.9c0.2-0.2,0.5-0.4,0.9-0.4v0.2c-0.3,0-0.5,0.1-0.7,0.3
		c-0.2,0.2-0.3,0.4-0.3,0.7c0,0.2,0.1,0.4,0.2,0.5c0.1,0.2,0.3,0.2,0.6,0.2c0.2,0,0.4-0.1,0.5-0.2s0.2-0.4,0.2-0.6h0.2
		c0,0.3,0.1,0.5,0.2,0.6c0.1,0.1,0.3,0.2,0.5,0.2c0.2,0,0.4-0.1,0.5-0.2c0.1-0.1,0.2-0.3,0.2-0.5c0-0.2-0.1-0.3-0.2-0.4
		c-0.1-0.1-0.3-0.1-0.5-0.1h-0.7c0-0.3,0.1-0.6,0.2-0.8C176.1,13.1,176.3,13,176.6,13L176.6,13z M169.9,13c0.3,0,0.5,0.2,0.6,0.5
		c0.2-0.2,0.4-0.3,0.6-0.4s0.4-0.1,0.5-0.1c0.4,0,0.8,0.1,1,0.4c0.3,0.3,0.4,0.7,0.4,1.2c0,0.3-0.1,0.6-0.2,0.9
		c-0.1,0.2-0.3,0.4-0.5,0.4c-0.1,0-0.3-0.1-0.4-0.2l0.1-0.2c0.1,0.1,0.2,0.1,0.3,0.1c0.1,0,0.2-0.1,0.3-0.2c0.1-0.1,0.1-0.3,0.1-0.5
		c0-0.4-0.1-0.7-0.4-1c-0.3-0.3-0.6-0.5-0.9-0.5c-0.2,0-0.4,0-0.6,0.1c-0.2,0.1-0.3,0.2-0.5,0.4c0.2-0.1,0.3-0.1,0.5-0.1
		c0.3,0,0.6,0.1,0.8,0.3c0.2,0.2,0.3,0.4,0.3,0.7c0,0.3-0.1,0.5-0.4,0.7s-0.5,0.3-0.9,0.3c-0.3,0-0.5-0.1-0.7-0.2
		c-0.1-0.1-0.2-0.1-0.2-0.1c-0.1,0-0.2,0.1-0.2,0.2l-0.2-0.1c0.1-0.4,0.2-0.8,0.4-1.2c0.2-0.3,0.4-0.6,0.6-0.9c0-0.1,0-0.2-0.1-0.2
		c-0.1-0.1-0.1-0.1-0.2-0.1c-0.1,0-0.1,0-0.1,0.1c0,0-0.1,0.1-0.1,0.2c0,0.1-0.1,0.2-0.1,0.3c0,0-0.1,0.1-0.2,0.1
		c-0.1,0-0.1,0-0.2-0.1s-0.1-0.1-0.1-0.2c0-0.1,0.1-0.3,0.2-0.4C169.6,13.1,169.8,13,169.9,13L169.9,13z M181.2,12
		c-0.3,0-0.6,0.1-0.8,0.3c-0.2,0.2-0.4,0.6-0.6,1.1c0.2-0.1,0.4-0.2,0.6-0.3c0.2-0.1,0.4-0.1,0.6-0.1c0.4,0,0.7,0.1,1,0.3
		c0.1-0.1,0.1-0.1,0.1-0.2c0-0.1,0.1-0.2,0.1-0.3c0-0.2-0.1-0.4-0.2-0.6S181.5,12,181.2,12L181.2,12z M167.4,12
		c-0.3,0-0.6,0-0.8,0.1c-0.2,0.1-0.3,0.2-0.3,0.4c0,0.2,0.1,0.3,0.2,0.4c0.2,0.1,0.4,0.2,0.7,0.2c0.1-0.1,0.3-0.1,0.4-0.1
		c0,0,0.1,0,0.2,0c0.2-0.1,0.3-0.1,0.4-0.2c0.1-0.1,0.1-0.2,0.1-0.3c0-0.2-0.1-0.3-0.3-0.4S167.7,12,167.4,12L167.4,12z M181.3,11.5
		c0.3,0,0.6,0.1,0.8,0.3c0.2,0.2,0.3,0.5,0.3,0.8c0,0.3-0.1,0.6-0.2,0.8c0.2,0.1,0.3,0.3,0.4,0.5c0.1,0.2,0.1,0.4,0.1,0.7
		c0,0.3-0.1,0.6-0.2,0.9c-0.1,0.2-0.3,0.4-0.5,0.4c-0.1,0-0.3-0.1-0.4-0.2l0.1-0.2c0.1,0.1,0.2,0.1,0.3,0.1c0.1,0,0.2-0.1,0.3-0.2
		c0.1-0.1,0.1-0.3,0.1-0.5c0-0.2-0.1-0.4-0.2-0.7c-0.1-0.2-0.3-0.4-0.6-0.6c-0.2-0.2-0.5-0.2-0.8-0.2c-0.2,0-0.4,0-0.7,0.1
		c-0.2,0.1-0.5,0.2-0.7,0.4c0.1,0,0.2-0.1,0.4-0.1c0.1,0,0.3,0,0.4,0c0.4,0,0.7,0.1,0.9,0.3c0.2,0.2,0.3,0.5,0.3,0.8
		c0,0.3-0.1,0.5-0.2,0.6c-0.1,0.2-0.3,0.2-0.5,0.2c-0.1,0-0.3,0-0.4-0.1s-0.2-0.2-0.3-0.3c-0.1,0.1-0.2,0.3-0.3,0.3
		c-0.1,0.1-0.3,0.1-0.4,0.1c-0.1,0-0.2,0-0.3-0.1c-0.1,0-0.1-0.1-0.2-0.2c-0.1-0.1-0.1-0.1-0.2-0.1c-0.1,0-0.2,0.1-0.2,0.2l-0.2-0.1
		c0.2-0.6,0.4-1,0.5-1.2c0.2-0.3,0.4-0.5,0.6-0.7c0-0.1-0.1-0.3-0.1-0.3c-0.1-0.1-0.1-0.1-0.2-0.1c-0.1,0-0.1,0-0.2,0.1
		s-0.1,0.1-0.1,0.2c0,0.1-0.1,0.2-0.2,0.3s-0.1,0.1-0.2,0.1c-0.1,0-0.1,0-0.2-0.1c0-0.1-0.1-0.1-0.1-0.2c0-0.1,0.1-0.3,0.2-0.4
		c0.1-0.1,0.3-0.2,0.5-0.2c0.4,0,0.6,0.2,0.7,0.6c0-0.1,0.1-0.3,0.2-0.6c0.1-0.3,0.2-0.5,0.3-0.7c0.1-0.2,0.2-0.3,0.3-0.5
		c0.1-0.1,0.3-0.2,0.4-0.3C180.9,11.5,181.1,11.5,181.3,11.5L181.3,11.5z M167.4,11.5c0.4,0,0.7,0.1,1,0.3s0.3,0.4,0.3,0.7
		c0,0.2,0,0.3-0.1,0.4c-0.1,0.1-0.2,0.2-0.4,0.3c0.2,0.1,0.3,0.3,0.4,0.4c0.1,0.2,0.1,0.4,0.1,0.7c0,0.8-0.1,1.4-0.3,1.9
		s-0.5,0.8-0.8,1c-0.3,0.2-0.6,0.3-0.8,0.3c-0.3,0-0.6-0.1-0.9-0.3c-0.3-0.2-0.5-0.5-0.7-0.8l0.2-0.1c0.2,0.2,0.4,0.4,0.6,0.5
		c0.2,0.1,0.5,0.2,0.8,0.2c0.3,0,0.6-0.1,0.9-0.3c0.3-0.2,0.5-0.4,0.7-0.8c-0.1,0-0.2,0-0.3,0c-0.2,0-0.4,0-0.5-0.1
		c-0.1-0.1-0.1-0.2-0.1-0.3c0-0.1,0-0.2,0.1-0.4c0.1-0.1,0.2-0.2,0.3-0.3c0.1-0.1,0.4-0.1,0.6-0.1c0-0.4-0.1-0.7-0.3-0.9
		c-0.2-0.2-0.4-0.3-0.6-0.3c-0.2,0-0.3,0.1-0.5,0.2s-0.3,0.3-0.4,0.6l0,0c0,0,0,0,0.1,0c0.1,0,0.3,0.1,0.3,0.2
		c0.1,0.1,0.1,0.3,0.1,0.4c0,0.2-0.1,0.4-0.3,0.6c-0.2,0.2-0.4,0.3-0.7,0.3c-0.3,0-0.6-0.1-0.7-0.4c-0.2-0.3-0.3-0.6-0.3-0.9
		c0-0.4,0.1-0.7,0.2-1c0.2-0.3,0.4-0.4,0.7-0.5l0.1,0.2c-0.2,0-0.4,0.2-0.5,0.3c-0.1,0.2-0.2,0.4-0.2,0.7c0,0.3,0.1,0.5,0.3,0.7
		c0.2,0.2,0.4,0.3,0.7,0.3c0.1,0,0.3,0,0.4-0.1c0.1-0.1,0.1-0.2,0.1-0.4c0-0.1,0-0.2-0.1-0.3c0-0.1-0.1-0.1-0.2-0.1
		c-0.1,0-0.2,0.1-0.2,0.2l-0.2-0.1c0.1-0.3,0.2-0.6,0.3-0.8c0.1-0.2,0.2-0.4,0.4-0.5c-0.3,0-0.5-0.1-0.7-0.3
		c-0.1-0.1-0.2-0.3-0.2-0.6c0-0.3,0.1-0.5,0.3-0.7C166.7,11.6,167,11.5,167.4,11.5L167.4,11.5z"/>
</g>
<g>
	<path class="st0" d="M136.4,130.4c0.1,0,0.1,0,0.2,0c0,0,0.1,0,0.1,0.1c0,0,0.1,0.1,0.1,0.1c0,0,0.1,0.1,0.1,0.2
		c0,0.1,0.1,0.2,0.1,0.3c0,0.1,0,0.2,0.1,0.4h0c0.2-0.3,0.4-0.5,0.5-0.6s0.2-0.2,0.3-0.3c0.1-0.1,0.1-0.1,0.2-0.1s0.2,0,0.3,0
		c0.1,0,0.2,0,0.2,0l-0.1,0.6h-0.2c0-0.1,0-0.1-0.1-0.1c0,0,0,0-0.1,0c0,0,0,0-0.1,0c0,0-0.1,0.1-0.1,0.1c-0.1,0.1-0.1,0.1-0.2,0.2
		c-0.1,0.1-0.1,0.2-0.2,0.3l-0.2,0.3c0,0.2,0.1,0.4,0.1,0.5c0,0.1,0.1,0.3,0.1,0.4c0,0.1,0,0.2,0.1,0.2c0,0.1,0,0.1,0.1,0.1
		c0,0,0,0,0.1,0.1c0,0,0.1,0,0.1,0c0.1,0,0.1,0,0.2-0.1c0.1,0,0.1-0.1,0.2-0.3l0.2,0.1c-0.1,0.2-0.3,0.4-0.4,0.5
		c-0.1,0.1-0.3,0.1-0.4,0.1c-0.1,0-0.2,0-0.2,0s-0.1-0.1-0.2-0.2s-0.1-0.2-0.1-0.3c-0.1-0.3-0.1-0.5-0.1-0.6h0
		c-0.2,0.3-0.4,0.5-0.5,0.7c-0.1,0.1-0.2,0.2-0.3,0.3c-0.1,0.1-0.1,0.1-0.2,0.1c-0.1,0-0.2,0-0.3,0c-0.1,0-0.2,0-0.2,0l0.1-0.6h0.2
		c0,0.1,0,0.1,0.1,0.1c0,0,0.1,0,0.1,0c0,0,0.1-0.1,0.1-0.1c0.1-0.1,0.1-0.2,0.3-0.3c0.1-0.1,0.3-0.3,0.5-0.6c0-0.2-0.1-0.3-0.1-0.5
		c0-0.2-0.1-0.3-0.1-0.4c0-0.1-0.1-0.2-0.1-0.3c0,0,0-0.1-0.1-0.1c0,0-0.1,0-0.1,0c0,0-0.1,0-0.1,0s-0.1,0.1-0.1,0.1
		c0,0-0.1,0.1-0.2,0.2l-0.2-0.1c0.1-0.2,0.3-0.3,0.4-0.4C136.1,130.4,136.3,130.4,136.4,130.4L136.4,130.4z"/>
	<path class="st0" d="M142.8,129.6c-0.3,0-0.6,0-0.8,0.1c-0.2,0.1-0.3,0.2-0.3,0.4c0,0.2,0.1,0.3,0.2,0.4s0.4,0.2,0.7,0.2
		c0.1-0.1,0.3-0.1,0.4-0.1c0,0,0.1,0,0.2,0c0.2-0.1,0.3-0.1,0.4-0.2c0.1-0.1,0.1-0.2,0.1-0.3c0-0.2-0.1-0.3-0.3-0.4
		C143.4,129.6,143.1,129.6,142.8,129.6L142.8,129.6z M142.8,129.1c0.4,0,0.7,0.1,1,0.3s0.3,0.4,0.3,0.7c0,0.2,0,0.3-0.1,0.4
		c-0.1,0.1-0.2,0.2-0.4,0.3c0.2,0.1,0.3,0.3,0.4,0.4c0.1,0.2,0.1,0.4,0.1,0.7c0,0.4-0.1,0.8-0.3,1.1c-0.2,0.3-0.5,0.5-0.9,0.5
		c-0.1,0-0.2,0-0.3,0l0.1-0.2c0.1,0,0.2,0,0.3,0c0.3,0,0.5-0.1,0.7-0.3s0.2-0.5,0.2-0.8c0-0.3-0.1-0.6-0.3-0.8
		c-0.2-0.2-0.4-0.3-0.6-0.3c-0.2,0-0.3,0.1-0.5,0.2s-0.3,0.3-0.4,0.6l0,0c0,0,0,0,0.1,0c0.1,0,0.3,0.1,0.3,0.2
		c0.1,0.1,0.1,0.3,0.1,0.4c0,0.2-0.1,0.4-0.3,0.6c-0.2,0.2-0.4,0.3-0.7,0.3c-0.2,0-0.5-0.1-0.7-0.3c-0.2-0.2-0.3-0.5-0.3-0.8
		c0-0.2,0.1-0.5,0.3-0.6c0.2-0.2,0.4-0.3,0.7-0.3c0-0.1,0-0.3-0.1-0.3c0-0.1-0.1-0.1-0.2-0.1c-0.1,0-0.1,0-0.2,0s-0.1,0.1-0.1,0.2
		c0,0.1-0.1,0.2-0.1,0.2s-0.1,0-0.1,0c-0.1,0-0.1,0-0.2-0.1c0-0.1-0.1-0.1-0.1-0.2c0-0.1,0.1-0.2,0.2-0.3c0.1-0.1,0.3-0.2,0.4-0.2
		c0.2,0,0.4,0.1,0.5,0.2c0.1,0.2,0.2,0.4,0.2,0.7c-0.2,0-0.5,0.1-0.6,0.2c-0.2,0.1-0.3,0.3-0.3,0.5c0,0.2,0.1,0.3,0.3,0.5
		c0.2,0.1,0.4,0.2,0.6,0.2c0.2,0,0.3,0,0.4-0.1c0.1-0.1,0.2-0.2,0.2-0.4c0-0.1,0-0.2-0.1-0.3c0-0.1-0.1-0.1-0.2-0.1
		c-0.1,0-0.2,0.1-0.2,0.2l-0.2-0.1c0.1-0.3,0.2-0.6,0.3-0.8s0.2-0.4,0.4-0.5c-0.3,0-0.5-0.1-0.7-0.3c-0.1-0.1-0.2-0.3-0.2-0.6
		c0-0.3,0.1-0.5,0.3-0.7C142.1,129.2,142.4,129.1,142.8,129.1L142.8,129.1z"/>
	<path class="st0" d="M160.8,131.6c-0.3,0-0.5,0.1-0.7,0.2c-0.1,0.1-0.2,0.3-0.3,0.5c-0.1,0.2-0.2,0.4-0.2,0.6
		c0.1,0,0.2-0.1,0.3-0.1c0.1,0,0.2,0,0.3,0c0.2,0,0.3,0,0.4,0c0.4,0,0.7-0.1,0.9-0.2s0.3-0.3,0.3-0.4c0-0.2-0.1-0.3-0.2-0.5
		C161.3,131.7,161,131.6,160.8,131.6L160.8,131.6z M155.7,131.6c-0.1,0-0.2,0-0.3,0s-0.2,0.1-0.3,0.1c-0.1,0.1-0.2,0.3-0.4,0.6
		c-0.2,0.3-0.3,0.4-0.3,0.5c0.2,0.1,0.5,0.1,0.8,0.1c0.4,0,0.7,0,0.8-0.1c0.2,0,0.3-0.1,0.4-0.2c0.1-0.1,0.1-0.2,0.1-0.4
		c0-0.2-0.1-0.3-0.2-0.5C156.1,131.6,155.9,131.6,155.7,131.6L155.7,131.6z M147.8,131.6c-0.1,0-0.1,0-0.2,0.1
		c0,0.1-0.1,0.1-0.1,0.2s0,0.1,0.1,0.2c0,0,0.1,0.1,0.2,0.1s0.1,0,0.2-0.1s0.1-0.1,0.1-0.2s0-0.1-0.1-0.2
		C147.9,131.6,147.9,131.6,147.8,131.6L147.8,131.6z M154.6,130.6c0.4,0,0.6,0.2,0.7,0.7c0.2-0.2,0.5-0.4,0.8-0.5
		c0.3-0.1,0.5-0.2,0.8-0.2c0.5,0,0.9,0.1,1.2,0.4c0.3,0.3,0.5,0.7,0.5,1.2c0,0.3-0.1,0.6-0.2,0.9c-0.1,0.2-0.3,0.4-0.5,0.4
		c-0.1,0-0.3-0.1-0.4-0.2l0.1-0.2c0.1,0.1,0.2,0.1,0.3,0.1c0.1,0,0.2-0.1,0.3-0.2s0.1-0.3,0.1-0.5c0-0.2-0.1-0.4-0.2-0.7
		c-0.1-0.2-0.3-0.4-0.6-0.6c-0.2-0.2-0.5-0.2-0.8-0.2c-0.2,0-0.4,0-0.6,0.1c-0.2,0.1-0.4,0.2-0.6,0.3c0.1,0,0.2-0.1,0.3-0.1
		c0.3,0,0.5,0.1,0.7,0.3c0.2,0.2,0.3,0.4,0.3,0.7c0,0.4-0.1,0.6-0.4,0.8s-0.6,0.3-1,0.3c-0.4,0-0.7-0.1-0.9-0.2s-0.4-0.3-0.6-0.5
		l0.1-0.1c0.1,0.1,0.1,0.1,0.2,0.1c0.1,0,0.1,0,0.2-0.1c0.1-0.1,0.2-0.2,0.3-0.4c0.2-0.4,0.4-0.7,0.6-0.8c0-0.2-0.1-0.3-0.1-0.4
		s-0.1-0.1-0.2-0.1c-0.1,0-0.2,0.1-0.3,0.3c0,0.1-0.1,0.2-0.1,0.2c0,0,0,0.1-0.1,0.1c0,0-0.1,0-0.1,0c-0.1,0-0.1,0-0.2-0.1
		s-0.1-0.1-0.1-0.2c0-0.1,0.1-0.3,0.2-0.4C154.2,130.7,154.4,130.6,154.6,130.6L154.6,130.6z M147.9,130.6c0.4,0,0.8,0.1,1.2,0.4
		c0.4,0.2,0.6,0.6,0.6,1.1h-0.2c-0.1-0.4-0.2-0.7-0.5-0.9c-0.3-0.2-0.7-0.3-1.1-0.3c-0.4,0-0.7,0.1-1,0.3c-0.3,0.2-0.4,0.5-0.4,0.8
		c0,0.3,0.1,0.5,0.3,0.7c0.2,0.2,0.5,0.3,0.9,0.3c0.4,0,0.7-0.1,0.9-0.2c0.2-0.1,0.3-0.3,0.3-0.6c0-0.2-0.1-0.3-0.2-0.4
		c-0.1-0.1-0.3-0.2-0.5-0.2c0.1,0.1,0.1,0.2,0.1,0.3c0,0.1,0,0.2-0.1,0.3c-0.1,0.1-0.2,0.1-0.3,0.1c-0.1,0-0.2,0-0.3-0.1
		c-0.1-0.1-0.1-0.2-0.1-0.3c0-0.2,0.1-0.3,0.2-0.4c0.1-0.1,0.3-0.1,0.5-0.1c0.3,0,0.6,0.1,0.8,0.3s0.3,0.4,0.3,0.7
		c0,0.3-0.1,0.6-0.4,0.8c-0.3,0.2-0.6,0.4-1,0.4c-0.5,0-0.8-0.1-1.1-0.4s-0.4-0.6-0.4-1c0-0.4,0.1-0.7,0.4-1
		C146.9,130.7,147.3,130.6,147.9,130.6L147.9,130.6z M151.6,129.6c0.5,0,0.9,0.2,1.2,0.6s0.5,0.9,0.5,1.4c0,0.6-0.2,1-0.5,1.4
		c-0.3,0.3-0.7,0.5-1.3,0.5c-0.5,0-0.8-0.1-1.1-0.3c-0.3-0.2-0.4-0.5-0.4-0.8c0-0.3,0.1-0.5,0.3-0.7c0.2-0.2,0.5-0.3,0.9-0.3h0.1
		c0-0.1,0-0.3-0.1-0.3c-0.1-0.1-0.1-0.1-0.2-0.1c-0.1,0-0.1,0-0.2,0s-0.1,0.1-0.1,0.2c0,0.1-0.1,0.2-0.1,0.2c0,0-0.1,0-0.1,0
		c-0.1,0-0.1,0-0.2-0.1c0-0.1-0.1-0.1-0.1-0.2c0-0.1,0.1-0.2,0.2-0.3c0.1-0.1,0.3-0.2,0.4-0.2c0.2,0,0.4,0.1,0.5,0.2
		c0.1,0.2,0.2,0.4,0.2,0.7c-0.5,0-0.8,0.1-0.9,0.2c-0.2,0.1-0.2,0.3-0.2,0.4c0,0.3,0.1,0.4,0.3,0.5s0.5,0.1,0.9,0.1
		c0.5,0,0.9-0.1,1.1-0.3c0.3-0.2,0.4-0.6,0.4-1c0-0.4-0.1-0.7-0.2-0.9c-0.1-0.3-0.3-0.5-0.6-0.6c-0.2-0.1-0.5-0.2-0.7-0.2
		c-0.2,0-0.5,0.1-0.7,0.2c-0.2,0.1-0.4,0.3-0.6,0.5l-0.2-0.1c0.2-0.3,0.4-0.4,0.6-0.6C151,129.7,151.3,129.6,151.6,129.6
		L151.6,129.6z M162.9,129.3v0.8c0.1,0,0.2,0.1,0.2,0.1c0.1,0,0.2,0,0.2-0.1c0.1-0.1,0.1-0.1,0.1-0.2c0-0.1,0-0.2-0.1-0.3
		c-0.1-0.1-0.2-0.2-0.3-0.2C163,129.3,163,129.3,162.9,129.3L162.9,129.3z M162.7,129h0.2c0.1,0.1,0.2,0.1,0.4,0.2
		c0.2,0.1,0.3,0.2,0.3,0.3s0.1,0.2,0.1,0.3c0,0.1,0,0.3-0.1,0.4c-0.1,0.1-0.2,0.1-0.4,0.1c-0.1,0-0.2,0-0.3-0.1v1.2
		c0,0.1,0.1,0.2,0.1,0.3c0,0.1,0,0.2,0,0.3c0,0.3-0.1,0.6-0.2,0.9s-0.3,0.4-0.5,0.4c-0.1,0-0.3-0.1-0.4-0.2l0.1-0.2
		c0.1,0.1,0.2,0.1,0.3,0.1c0.1,0,0.2-0.1,0.3-0.2s0.1-0.3,0.1-0.5c0-0.4-0.1-0.7-0.4-1c-0.3-0.3-0.6-0.5-0.9-0.5
		c-0.2,0-0.4,0-0.6,0.1s-0.3,0.2-0.5,0.4c0.2-0.1,0.3-0.1,0.5-0.1c0.3,0,0.6,0.1,0.8,0.3c0.2,0.2,0.3,0.4,0.3,0.7
		c0,0.3-0.1,0.5-0.4,0.7c-0.3,0.2-0.5,0.3-0.9,0.3c-0.3,0-0.5-0.1-0.7-0.2c-0.1-0.1-0.2-0.1-0.2-0.1c-0.1,0-0.2,0.1-0.2,0.2
		l-0.2-0.1c0.1-0.4,0.2-0.8,0.4-1.2s0.4-0.6,0.6-0.9c0-0.1,0-0.2-0.1-0.2s-0.1-0.1-0.2-0.1c-0.1,0-0.1,0-0.1,0.1
		c0,0-0.1,0.1-0.1,0.2c0,0.1-0.1,0.2-0.1,0.3s-0.1,0.1-0.2,0.1c-0.1,0-0.1,0-0.2-0.1c0-0.1-0.1-0.1-0.1-0.2c0-0.1,0.1-0.3,0.2-0.4
		c0.1-0.1,0.3-0.2,0.5-0.2c0.3,0,0.5,0.2,0.6,0.5c0.2-0.2,0.4-0.3,0.6-0.4s0.4-0.1,0.5-0.1c0.2,0,0.4,0,0.6,0.1
		c0.2,0.1,0.4,0.2,0.5,0.4V129z"/>
	<path class="st0" d="M168.8,132.4c-0.3,0-0.5,0.1-0.6,0.3c-0.2,0.1-0.2,0.3-0.2,0.4c0,0.1,0.1,0.1,0.4,0.1c0.2,0,0.3,0,0.3,0
		c0.1,0,0.1-0.1,0.1-0.2c0-0.1,0-0.2,0-0.4V132.4z M180.6,131.6c-0.3,0-0.7,0.1-1.1,0.2c-0.1,0.1-0.2,0.3-0.3,0.5
		c-0.1,0.2-0.2,0.4-0.3,0.6c0.1,0,0.2-0.1,0.2-0.1c0.1,0,0.2,0,0.2,0c0.1,0,0.2,0,0.3,0c0.2,0,0.4-0.1,0.5-0.2
		c0.1-0.1,0.2-0.4,0.2-0.6h0.2c0,0.3,0.1,0.5,0.2,0.6c0.1,0.2,0.2,0.2,0.4,0.2c0.2,0,0.3-0.1,0.4-0.2c0.1-0.1,0.1-0.2,0.1-0.4
		c0-0.2-0.1-0.4-0.2-0.6C181.1,131.7,180.9,131.6,180.6,131.6L180.6,131.6z M171.3,131.6c-0.3,0-0.5,0.1-0.7,0.2
		c-0.1,0.1-0.2,0.3-0.3,0.5s-0.2,0.4-0.2,0.6c0.1,0,0.2-0.1,0.3-0.1c0.1,0,0.2,0,0.3,0c0.2,0,0.3,0,0.4,0c0.4,0,0.7-0.1,0.9-0.2
		s0.3-0.3,0.3-0.4c0-0.2-0.1-0.3-0.2-0.5C171.8,131.7,171.6,131.6,171.3,131.6L171.3,131.6z M176.9,131.1c-0.2,0-0.3,0-0.4,0.1
		c-0.1,0.1-0.1,0.1-0.1,0.2c0.5,0,0.7,0,0.8,0c0,0,0-0.1,0-0.1c0-0.1,0-0.1-0.1-0.2C177.1,131.1,177,131.1,176.9,131.1L176.9,131.1z
		 M177,130.6c0.1,0,0.3,0,0.4,0.1s0.2,0.2,0.2,0.3c0,0.2,0,0.3-0.1,0.5c0.1,0.1,0.2,0.2,0.3,0.3c0.1,0.1,0.1,0.3,0.1,0.5
		c0,0.3-0.1,0.6-0.3,0.8s-0.4,0.3-0.7,0.3c-0.2,0-0.3,0-0.4-0.1c-0.1-0.1-0.2-0.2-0.3-0.3c-0.1,0.2-0.2,0.3-0.3,0.3
		c-0.1,0.1-0.3,0.1-0.4,0.1c-0.3,0-0.5-0.1-0.7-0.3c-0.2-0.2-0.3-0.5-0.3-0.9c0-0.4,0.1-0.7,0.3-0.9c0.2-0.2,0.5-0.4,0.9-0.4v0.2
		c-0.3,0-0.5,0.1-0.7,0.3c-0.2,0.2-0.3,0.4-0.3,0.7c0,0.2,0.1,0.4,0.2,0.5c0.1,0.2,0.3,0.2,0.6,0.2c0.2,0,0.4-0.1,0.5-0.2
		c0.1-0.1,0.2-0.4,0.2-0.6h0.2c0,0.3,0.1,0.5,0.2,0.6c0.1,0.1,0.3,0.2,0.5,0.2c0.2,0,0.4-0.1,0.5-0.2c0.1-0.1,0.2-0.3,0.2-0.5
		c0-0.2-0.1-0.3-0.2-0.4c-0.1-0.1-0.3-0.1-0.5-0.1h-0.7c0-0.3,0.1-0.6,0.2-0.8C176.6,130.7,176.8,130.6,177,130.6L177,130.6z
		 M170.4,130.6c0.3,0,0.5,0.2,0.6,0.5c0.2-0.2,0.4-0.3,0.6-0.4s0.4-0.1,0.5-0.1c0.4,0,0.8,0.1,1,0.4c0.3,0.3,0.4,0.7,0.4,1.2
		c0,0.3-0.1,0.6-0.2,0.9s-0.3,0.4-0.5,0.4c-0.1,0-0.3-0.1-0.4-0.2l0.1-0.2c0.1,0.1,0.2,0.1,0.3,0.1c0.1,0,0.2-0.1,0.3-0.2
		s0.1-0.3,0.1-0.5c0-0.4-0.1-0.7-0.4-1c-0.3-0.3-0.6-0.5-0.9-0.5c-0.2,0-0.4,0-0.6,0.1s-0.3,0.2-0.5,0.4c0.2-0.1,0.3-0.1,0.5-0.1
		c0.3,0,0.6,0.1,0.8,0.3c0.2,0.2,0.3,0.4,0.3,0.7c0,0.3-0.1,0.5-0.4,0.7c-0.3,0.2-0.5,0.3-0.9,0.3c-0.3,0-0.5-0.1-0.7-0.2
		c-0.1-0.1-0.2-0.1-0.2-0.1c-0.1,0-0.2,0.1-0.2,0.2l-0.2-0.1c0.1-0.4,0.2-0.8,0.4-1.2s0.4-0.6,0.6-0.9c0-0.1,0-0.2-0.1-0.2
		s-0.1-0.1-0.2-0.1c-0.1,0-0.1,0-0.1,0.1c0,0-0.1,0.1-0.1,0.2c0,0.1-0.1,0.2-0.1,0.3c0,0-0.1,0.1-0.2,0.1c-0.1,0-0.1,0-0.2-0.1
		c0-0.1-0.1-0.1-0.1-0.2c0-0.1,0.1-0.3,0.2-0.4C170,130.7,170.2,130.6,170.4,130.6L170.4,130.6z M181.6,129.6
		c-0.3,0-0.6,0.1-0.8,0.3s-0.4,0.6-0.6,1.1c0.2-0.1,0.4-0.2,0.6-0.3c0.2-0.1,0.4-0.1,0.6-0.1c0.4,0,0.7,0.1,1,0.3
		c0.1-0.1,0.1-0.1,0.1-0.2c0-0.1,0.1-0.2,0.1-0.3c0-0.2-0.1-0.4-0.2-0.6C182.1,129.7,181.9,129.6,181.6,129.6L181.6,129.6z
		 M167.8,129.6c-0.3,0-0.6,0-0.8,0.1c-0.2,0.1-0.3,0.2-0.3,0.4c0,0.2,0.1,0.3,0.2,0.4c0.2,0.1,0.4,0.2,0.7,0.2
		c0.1-0.1,0.3-0.1,0.4-0.1c0,0,0.1,0,0.2,0c0.2-0.1,0.3-0.1,0.4-0.2c0.1-0.1,0.1-0.2,0.1-0.3c0-0.2-0.1-0.3-0.3-0.4
		C168.4,129.6,168.2,129.6,167.8,129.6L167.8,129.6z M181.7,129.1c0.3,0,0.6,0.1,0.8,0.3s0.3,0.5,0.3,0.8c0,0.3-0.1,0.6-0.2,0.8
		c0.2,0.1,0.3,0.3,0.4,0.5c0.1,0.2,0.1,0.4,0.1,0.7c0,0.3-0.1,0.6-0.2,0.9c-0.1,0.2-0.3,0.4-0.5,0.4c-0.1,0-0.3-0.1-0.4-0.2l0.1-0.2
		c0.1,0.1,0.2,0.1,0.3,0.1c0.1,0,0.2-0.1,0.3-0.2s0.1-0.3,0.1-0.5c0-0.2-0.1-0.4-0.2-0.7c-0.1-0.2-0.3-0.4-0.6-0.6
		c-0.2-0.2-0.5-0.2-0.8-0.2c-0.2,0-0.4,0-0.7,0.1c-0.2,0.1-0.5,0.2-0.7,0.4c0.1,0,0.2-0.1,0.4-0.1c0.1,0,0.3,0,0.4,0
		c0.4,0,0.7,0.1,0.9,0.3c0.2,0.2,0.3,0.5,0.3,0.8c0,0.3-0.1,0.5-0.2,0.6c-0.1,0.2-0.3,0.2-0.5,0.2c-0.1,0-0.3,0-0.4-0.1
		c-0.1-0.1-0.2-0.2-0.3-0.3c-0.1,0.1-0.2,0.3-0.3,0.3c-0.1,0.1-0.3,0.1-0.4,0.1c-0.1,0-0.2,0-0.3-0.1c-0.1,0-0.1-0.1-0.2-0.2
		c-0.1-0.1-0.1-0.1-0.2-0.1c-0.1,0-0.2,0.1-0.2,0.2l-0.2-0.1c0.2-0.6,0.4-1,0.5-1.2c0.2-0.3,0.4-0.5,0.6-0.7c0-0.1-0.1-0.3-0.1-0.3
		s-0.1-0.1-0.2-0.1c-0.1,0-0.1,0-0.2,0.1c-0.1,0.1-0.1,0.1-0.1,0.2c0,0.1-0.1,0.2-0.2,0.3c-0.1,0-0.1,0.1-0.2,0.1
		c-0.1,0-0.1,0-0.2-0.1s-0.1-0.1-0.1-0.2c0-0.1,0.1-0.3,0.2-0.4c0.1-0.1,0.3-0.2,0.5-0.2c0.4,0,0.6,0.2,0.7,0.6
		c0-0.1,0.1-0.3,0.2-0.6c0.1-0.3,0.2-0.5,0.3-0.7c0.1-0.2,0.2-0.3,0.3-0.5c0.1-0.1,0.3-0.2,0.4-0.3
		C181.3,129.1,181.5,129.1,181.7,129.1L181.7,129.1z M167.8,129.1c0.4,0,0.7,0.1,1,0.3c0.2,0.2,0.3,0.4,0.3,0.7c0,0.2,0,0.3-0.1,0.4
		c-0.1,0.1-0.2,0.2-0.4,0.3c0.2,0.1,0.3,0.3,0.4,0.4c0.1,0.2,0.1,0.4,0.1,0.7c0,0.8-0.1,1.4-0.3,1.9c-0.2,0.5-0.5,0.8-0.8,1
		s-0.6,0.3-0.8,0.3c-0.3,0-0.6-0.1-0.9-0.3c-0.3-0.2-0.5-0.5-0.7-0.8l0.2-0.1c0.2,0.2,0.4,0.4,0.6,0.5c0.2,0.1,0.5,0.2,0.8,0.2
		c0.3,0,0.6-0.1,0.9-0.3c0.3-0.2,0.5-0.4,0.7-0.8c-0.1,0-0.2,0-0.3,0c-0.2,0-0.4,0-0.5-0.1s-0.1-0.2-0.1-0.3c0-0.1,0-0.2,0.1-0.4
		c0.1-0.1,0.2-0.2,0.3-0.3c0.1-0.1,0.4-0.1,0.6-0.1c0-0.4-0.1-0.7-0.3-0.9s-0.4-0.3-0.6-0.3c-0.2,0-0.3,0.1-0.5,0.2
		s-0.3,0.3-0.4,0.6l0,0c0,0,0,0,0.1,0c0.1,0,0.3,0.1,0.3,0.2c0.1,0.1,0.1,0.3,0.1,0.4c0,0.2-0.1,0.4-0.3,0.6
		c-0.2,0.2-0.4,0.3-0.7,0.3c-0.3,0-0.6-0.1-0.7-0.4s-0.3-0.6-0.3-0.9c0-0.4,0.1-0.7,0.2-1c0.2-0.3,0.4-0.4,0.7-0.5l0.1,0.2
		c-0.2,0-0.4,0.2-0.5,0.3c-0.1,0.2-0.2,0.4-0.2,0.7c0,0.3,0.1,0.5,0.3,0.7c0.2,0.2,0.4,0.3,0.7,0.3c0.1,0,0.3,0,0.4-0.1
		c0.1-0.1,0.1-0.2,0.1-0.4c0-0.1,0-0.2-0.1-0.3c0-0.1-0.1-0.1-0.2-0.1c-0.1,0-0.2,0.1-0.2,0.2l-0.2-0.1c0.1-0.3,0.2-0.6,0.3-0.8
		c0.1-0.2,0.2-0.4,0.4-0.5c-0.3,0-0.5-0.1-0.7-0.3c-0.1-0.1-0.2-0.3-0.2-0.6c0-0.3,0.1-0.5,0.3-0.7
		C167.1,129.2,167.4,129.1,167.8,129.1L167.8,129.1z"/>
</g>
<g>
	<path class="st0" d="M41.5,99h2l-0.1,0.2c-0.1,0-0.2,0.1-0.3,0.1c-0.1,0-0.1,0.1-0.2,0.2c0,0.1-0.1,0.2-0.1,0.3
		c0,0.1-0.1,0.4-0.2,0.7l-0.9,4c0,0.2-0.1,0.4-0.1,0.5c0,0.1,0,0.2,0,0.3c0,0.2,0,0.3,0.1,0.3s0.2,0.1,0.4,0.1l-0.1,0.2h-2l0.1-0.2
		c0.1,0,0.2-0.1,0.3-0.1c0.1,0,0.1-0.1,0.2-0.2c0-0.1,0.1-0.2,0.1-0.3c0-0.1,0.1-0.3,0.2-0.7l0.9-3.9c0.1-0.3,0.1-0.6,0.1-0.8
		c0-0.2,0-0.3-0.1-0.3c-0.1-0.1-0.2-0.1-0.4-0.1L41.5,99z"/>
	<path class="st0" d="M47.8,103.7h6.3v0.7h-6.3V103.7L47.8,103.7z M47.8,101.6h6.3v0.7h-6.3V101.6L47.8,101.6z"/>
	<path class="st0" d="M62.4,97.3c0.1,0,0.3,0,0.4,0s0.3,0.1,0.4,0.1l-0.1,1h-0.5c0-0.1-0.1-0.3-0.2-0.4C62.4,98,62.3,98,62.1,98
		c-0.4,0-0.6,0.3-0.7,0.9c-0.1,0.6-0.2,1.9-0.2,4.1c0,1.8-0.2,3.1-0.5,4.2c-0.3,1-0.9,1.5-1.7,1.5c-0.2,0-0.3,0-0.4,0
		c-0.1,0-0.2-0.1-0.4-0.1l0.1-1h0.5c0,0.2,0.1,0.3,0.2,0.4s0.2,0.2,0.4,0.2c0.4,0,0.6-0.4,0.7-1.1s0.1-1.8,0.1-3.2
		c0-2.2,0.2-3.8,0.5-4.8C61,97.8,61.6,97.3,62.4,97.3L62.4,97.3z"/>
	<path class="st0" d="M67.3,101c0.1,0,0.3,0,0.4,0.1c0.1,0,0.1,0.1,0.2,0.1c0.1,0.1,0.1,0.2,0.2,0.3c0.1,0.1,0.1,0.2,0.1,0.4
		c0,0.1,0.1,0.3,0.1,0.6c0.1,0.4,0.2,0.9,0.2,1.4c0.1,0.5,0.1,0.9,0.2,1.3c0.3-0.5,0.6-0.9,0.8-1.4c0.2-0.5,0.4-0.9,0.5-1.2
		c0.1-0.3,0.2-0.6,0.2-0.8c0-0.2,0-0.3-0.1-0.3c-0.1-0.1-0.2-0.1-0.3-0.1l0.1-0.2h1.3l0.1,0.3c-0.3,0.7-0.6,1.5-1,2.3
		c-0.4,0.8-0.9,1.6-1.5,2.4c-0.5,0.7-1,1.3-1.3,1.6c-0.2,0.2-0.5,0.4-0.7,0.5c-0.2,0.1-0.4,0.1-0.6,0.1c-0.1,0-0.2,0-0.2,0
		s-0.2,0-0.2,0l0.2-1h0.4c0,0.2,0.1,0.3,0.2,0.3c0.2,0,0.4-0.1,0.7-0.4c0.3-0.2,0.6-0.6,0.9-1.1c-0.1-0.6-0.2-1.3-0.4-2.1
		c-0.2-0.9-0.3-1.5-0.4-1.7c-0.1-0.3-0.1-0.4-0.2-0.5c0,0-0.1-0.1-0.2-0.1c-0.1,0-0.2,0-0.3,0.1c-0.1,0.1-0.2,0.2-0.4,0.5L66,102
		c0.2-0.3,0.5-0.6,0.7-0.7C66.8,101.1,67.1,101,67.3,101L67.3,101z"/>
	<path class="st0" d="M77.2,101.4c-0.3,0-0.7,0.1-0.9,0.4c-0.3,0.3-0.5,0.7-0.6,1.1c-0.2,0.5-0.2,0.9-0.2,1.4c0,0.4,0,0.6,0.1,0.8
		c0.1,0.2,0.3,0.3,0.5,0.3c0.1,0,0.2,0,0.3-0.1c0.1,0,0.2-0.1,0.3-0.2c0.1-0.1,0.2-0.2,0.3-0.4c0.1-0.1,0.2-0.3,0.3-0.4
		s0.2-0.3,0.3-0.5c0.1-0.2,0.2-0.4,0.2-0.7l0-0.2c0.1-0.2,0.1-0.5,0.1-0.7c0-0.3-0.1-0.5-0.2-0.6C77.6,101.5,77.4,101.4,77.2,101.4
		L77.2,101.4z M82,101c0.1,0,0.2,0,0.3,0c0.1,0,0.2,0.1,0.2,0.1c0.1,0,0.1,0.1,0.2,0.2c0,0.1,0.1,0.2,0.1,0.3c0,0.1,0.1,0.3,0.1,0.5
		c0,0.2,0.1,0.4,0.1,0.6H83c0.3-0.5,0.6-0.8,0.7-1c0.2-0.2,0.3-0.4,0.4-0.5c0.1-0.1,0.2-0.2,0.3-0.2c0.1,0,0.2-0.1,0.4-0.1
		c0.2,0,0.3,0,0.4,0.1l-0.2,0.9h-0.4c0-0.1-0.1-0.2-0.2-0.2c0,0-0.1,0-0.1,0c0,0-0.1,0-0.1,0.1c0,0-0.1,0.1-0.2,0.2
		c-0.1,0.1-0.2,0.2-0.3,0.4c-0.1,0.1-0.2,0.3-0.4,0.4l-0.3,0.4c0.1,0.3,0.1,0.6,0.2,0.8s0.1,0.4,0.1,0.6c0,0.2,0.1,0.3,0.1,0.4
		c0,0.1,0.1,0.2,0.1,0.2c0,0,0.1,0.1,0.1,0.1c0,0,0.1,0,0.1,0c0.1,0,0.2,0,0.3-0.1c0.1-0.1,0.2-0.2,0.4-0.5l0.3,0.2
		c-0.2,0.4-0.5,0.6-0.6,0.7s-0.4,0.2-0.7,0.2c-0.1,0-0.3,0-0.4-0.1c-0.1-0.1-0.2-0.1-0.3-0.3s-0.1-0.3-0.2-0.5
		c-0.1-0.4-0.2-0.8-0.2-1h-0.1c-0.4,0.5-0.6,0.9-0.8,1.1c-0.2,0.2-0.3,0.4-0.4,0.5c-0.1,0.1-0.2,0.2-0.3,0.2c-0.1,0-0.2,0.1-0.4,0.1
		c-0.2,0-0.3,0-0.4-0.1l0.2-0.9h0.4c0,0.1,0.1,0.2,0.2,0.2c0,0,0.1,0,0.2,0c0.1,0,0.1-0.1,0.2-0.2c0.1-0.1,0.2-0.2,0.4-0.5
		c0.2-0.2,0.4-0.5,0.8-0.9c-0.1-0.3-0.1-0.5-0.2-0.8c-0.1-0.2-0.1-0.5-0.2-0.7s-0.1-0.4-0.1-0.4c0-0.1-0.1-0.1-0.1-0.1
		c0,0-0.1,0-0.2,0c-0.1,0-0.1,0-0.2,0s-0.1,0.1-0.2,0.2c-0.1,0.1-0.2,0.2-0.3,0.4l-0.3-0.2c0.2-0.3,0.4-0.6,0.6-0.7
		C81.5,101.1,81.7,101,82,101L82,101z M79.3,98.7h0.3l-1.3,5.6c-0.1,0.3-0.1,0.6-0.1,0.8c0,0.1,0,0.2,0.1,0.3s0.1,0.1,0.2,0.1
		c0.1,0,0.2,0,0.3-0.1s0.3-0.2,0.5-0.5l0.3,0.3c-0.3,0.3-0.6,0.6-0.8,0.7c-0.2,0.1-0.4,0.2-0.7,0.2c-0.2,0-0.4-0.1-0.5-0.2
		c-0.1-0.1-0.2-0.3-0.2-0.6c0-0.2,0-0.4,0.1-0.6l-0.1,0c-0.3,0.5-0.6,0.8-0.9,1S76,106,75.6,106c-0.4,0-0.7-0.1-0.9-0.4
		c-0.2-0.3-0.3-0.7-0.3-1.2c0-0.6,0.1-1.1,0.3-1.7c0.2-0.5,0.5-1,0.9-1.3s0.8-0.5,1.3-0.5c0.2,0,0.4,0,0.6,0.1
		c0.2,0,0.4,0.1,0.5,0.2l0.3-1.2c0-0.1,0.1-0.2,0.1-0.4c0-0.1,0-0.3,0-0.4c0-0.1,0-0.2-0.1-0.2s-0.1-0.1-0.2-0.1
		c-0.1,0-0.2,0-0.4-0.1l0.1-0.3L79.3,98.7L79.3,98.7z"/>
	<path class="st0" d="M89.5,103.7h6.3v0.7h-6.3V103.7L89.5,103.7z M89.5,101.6h6.3v0.7h-6.3V101.6L89.5,101.6z"/>
	<path class="st0" d="M100,99h2l-0.1,0.2c-0.1,0-0.3,0.1-0.3,0.1c-0.1,0.1-0.1,0.2-0.1,0.3c0,0.2,0,0.5,0.1,0.8l0.5,1.9l1.3-1.7
		c0.3-0.3,0.4-0.6,0.5-0.8c0.1-0.2,0.1-0.3,0.1-0.4c0-0.1,0-0.2-0.1-0.2s-0.2-0.1-0.3-0.1l0.1-0.2h1.9l-0.1,0.2
		c-0.1,0-0.2,0-0.2,0.1c-0.1,0-0.1,0.1-0.2,0.2s-0.2,0.2-0.3,0.3c-0.1,0.2-0.3,0.4-0.5,0.6l-2,2.6l-0.3,1.4c0,0.1-0.1,0.2-0.1,0.3
		c0,0.1,0,0.2,0,0.2c0,0.1,0,0.2,0,0.2c0,0.1,0,0.2,0.1,0.2c0,0.1,0.1,0.1,0.2,0.1c0.1,0,0.2,0,0.4,0.1l-0.1,0.2h-2.1l0.1-0.2
		c0.1,0,0.2,0,0.3-0.1c0.1,0,0.1-0.1,0.2-0.2c0-0.1,0.1-0.2,0.1-0.3c0-0.2,0.1-0.4,0.2-0.7l0.3-1.4l-0.7-2.6
		c-0.1-0.4-0.2-0.7-0.3-0.8c-0.1-0.1-0.1-0.2-0.2-0.3s-0.2-0.1-0.3-0.1L100,99z"/>
	<polygon class="st0" points="111.8,99.7 112.5,99.7 112.5,102.6 115.3,102.6 115.3,103.3 112.5,103.3 112.5,106.3 111.8,106.3 
		111.8,103.3 109,103.3 109,102.6 111.8,102.6 111.8,99.7 	"/>
	<path class="st0" d="M136.8,103c-0.5,0-0.8,0.1-1.2,0.4c-0.1,0.2-0.3,0.4-0.4,0.8c-0.2,0.4-0.3,0.7-0.4,1c0.2-0.1,0.3-0.1,0.5-0.1
		c0.1,0,0.3,0,0.5,0c0.3,0,0.4,0,0.6,0c0.7,0,1.1-0.1,1.4-0.3c0.3-0.2,0.4-0.4,0.4-0.7c0-0.3-0.1-0.5-0.4-0.8
		C137.6,103.1,137.2,103,136.8,103L136.8,103z M121.7,103c-0.1,0-0.3,0-0.5,0.1c-0.2,0-0.3,0.1-0.4,0.1c-0.1,0.1-0.4,0.5-0.6,1
		c-0.2,0.4-0.4,0.7-0.5,0.8c0.3,0.1,0.7,0.1,1.3,0.1c0.6,0,1.1,0,1.3-0.1c0.2-0.1,0.4-0.2,0.6-0.3c0.1-0.1,0.2-0.3,0.2-0.6
		c0-0.3-0.1-0.5-0.4-0.8C122.4,103.1,122.1,103,121.7,103L121.7,103z M145.9,102.2c-0.2,0-0.4,0-0.6,0.1c-0.1,0.1-0.2,0.2-0.2,0.4
		c0.8,0,1.2,0,1.3,0.1c0,0,0-0.1,0-0.2c0-0.1-0.1-0.2-0.2-0.3S146,102.2,145.9,102.2L145.9,102.2z M131.7,102.2
		c-0.2,0-0.4,0-0.6,0.1c-0.1,0.1-0.2,0.2-0.2,0.4c0.8,0,1.2,0,1.3,0.1c0,0,0-0.1,0-0.2c0-0.1-0.1-0.2-0.2-0.3
		S131.8,102.2,131.7,102.2L131.7,102.2z M146,101.4c0.2,0,0.4,0.1,0.6,0.2c0.2,0.1,0.3,0.3,0.3,0.5c0,0.2-0.1,0.5-0.2,0.7
		c0.2,0.1,0.4,0.3,0.5,0.5c0.1,0.2,0.2,0.5,0.2,0.7c0,0.5-0.2,0.9-0.5,1.3s-0.7,0.6-1.2,0.6c-0.3,0-0.5-0.1-0.7-0.2
		s-0.4-0.3-0.5-0.6c-0.2,0.2-0.3,0.4-0.6,0.6c-0.2,0.1-0.4,0.2-0.7,0.2c-0.5,0-0.9-0.2-1.2-0.5c-0.3-0.4-0.5-0.8-0.5-1.4
		c0-0.6,0.2-1.1,0.6-1.5s0.9-0.6,1.5-0.6v0.3c-0.4,0-0.8,0.2-1.2,0.5c-0.3,0.3-0.5,0.7-0.5,1.2c0,0.3,0.1,0.6,0.3,0.9
		c0.2,0.2,0.5,0.4,0.9,0.4c0.4,0,0.6-0.1,0.8-0.3c0.2-0.2,0.3-0.6,0.3-1h0.3c0,0.5,0.1,0.8,0.3,1c0.2,0.2,0.4,0.3,0.8,0.3
		c0.4,0,0.7-0.1,0.9-0.3c0.2-0.2,0.3-0.5,0.3-0.8c0-0.3-0.1-0.6-0.3-0.7c-0.2-0.2-0.5-0.2-0.9-0.2h-1.1c0-0.5,0.1-0.9,0.4-1.2
		C145.3,101.5,145.6,101.4,146,101.4L146,101.4z M135.3,101.4c0.5,0,0.8,0.3,1,0.8c0.3-0.3,0.7-0.4,1-0.6c0.3-0.1,0.6-0.2,0.9-0.2
		c0.7,0,1.2,0.2,1.7,0.7c0.5,0.5,0.7,1.1,0.7,1.9c0,0.5-0.1,1-0.4,1.4s-0.5,0.6-0.9,0.6c-0.2,0-0.4-0.1-0.7-0.3l0.2-0.3
		c0.2,0.2,0.3,0.2,0.5,0.2c0.2,0,0.4-0.1,0.5-0.3c0.1-0.2,0.2-0.5,0.2-0.8c0-0.6-0.2-1.2-0.6-1.7c-0.4-0.5-0.9-0.8-1.5-0.8
		c-0.3,0-0.6,0.1-0.9,0.2c-0.3,0.1-0.5,0.3-0.8,0.6c0.3-0.1,0.5-0.1,0.7-0.1c0.5,0,1,0.2,1.3,0.5c0.3,0.3,0.5,0.7,0.5,1.2
		c0,0.5-0.2,0.9-0.6,1.2s-0.9,0.5-1.4,0.5c-0.4,0-0.8-0.1-1.2-0.4c-0.2-0.1-0.3-0.2-0.4-0.2c-0.2,0-0.3,0.1-0.4,0.4l-0.3-0.1
		c0.2-0.7,0.4-1.4,0.7-1.9c0.3-0.6,0.6-1,1-1.4c0-0.1-0.1-0.3-0.2-0.4c-0.1-0.1-0.2-0.2-0.4-0.2c-0.1,0-0.2,0-0.2,0.1
		c0,0.1-0.1,0.2-0.1,0.3c-0.1,0.2-0.1,0.4-0.2,0.5s-0.2,0.1-0.3,0.1c-0.1,0-0.2,0-0.3-0.1c-0.1-0.1-0.1-0.2-0.1-0.3
		c0-0.2,0.1-0.4,0.3-0.7S134.9,101.4,135.3,101.4L135.3,101.4z M131.8,101.4c0.2,0,0.4,0.1,0.6,0.2c0.2,0.1,0.3,0.3,0.3,0.5
		c0,0.2-0.1,0.5-0.2,0.7c0.2,0.1,0.4,0.3,0.5,0.5c0.1,0.2,0.2,0.5,0.2,0.7c0,0.5-0.2,0.9-0.5,1.3s-0.7,0.6-1.2,0.6
		c-0.3,0-0.5-0.1-0.7-0.2c-0.2-0.1-0.4-0.3-0.5-0.6c-0.2,0.2-0.3,0.4-0.6,0.6s-0.4,0.2-0.7,0.2c-0.5,0-0.9-0.2-1.2-0.5
		c-0.3-0.4-0.5-0.8-0.5-1.4c0-0.6,0.2-1.1,0.6-1.5s0.9-0.6,1.5-0.6v0.3c-0.4,0-0.8,0.2-1.2,0.5c-0.3,0.3-0.5,0.7-0.5,1.2
		c0,0.3,0.1,0.6,0.3,0.9c0.2,0.2,0.5,0.4,0.9,0.4c0.4,0,0.6-0.1,0.8-0.3c0.2-0.2,0.3-0.6,0.3-1h0.3c0,0.5,0.1,0.8,0.3,1
		c0.2,0.2,0.4,0.3,0.8,0.3c0.4,0,0.7-0.1,0.9-0.3s0.3-0.5,0.3-0.8c0-0.3-0.1-0.6-0.3-0.7c-0.2-0.2-0.5-0.2-0.9-0.2h-1.1
		c0-0.5,0.1-0.9,0.4-1.2C131.1,101.5,131.4,101.4,131.8,101.4L131.8,101.4z M124,99.8c-0.5,0-1,0.1-1.3,0.4s-0.7,0.9-1,1.7
		c0.6-0.4,1.2-0.5,1.9-0.5c0.6,0,1.1,0.2,1.6,0.5c0.2-0.3,0.3-0.6,0.3-0.9c0-0.4-0.1-0.7-0.4-0.9C124.8,99.9,124.4,99.8,124,99.8
		L124,99.8z M124.1,98.9c0.5,0,0.9,0.2,1.2,0.5c0.3,0.4,0.5,0.8,0.5,1.3c0,0.4-0.1,0.9-0.4,1.3c0.3,0.2,0.5,0.5,0.6,0.8
		c0.1,0.3,0.2,0.7,0.2,1.1c0,0.5-0.1,1-0.4,1.4c-0.2,0.4-0.5,0.6-0.9,0.6c-0.2,0-0.4-0.1-0.7-0.3l0.2-0.3c0.2,0.2,0.3,0.2,0.5,0.2
		c0.2,0,0.4-0.1,0.5-0.3c0.1-0.2,0.2-0.5,0.2-0.8c0-0.4-0.1-0.7-0.4-1.1s-0.6-0.7-1-1c-0.4-0.2-0.8-0.4-1.2-0.4
		c-0.3,0-0.7,0.1-1,0.2s-0.7,0.3-1,0.6c0.2-0.1,0.3-0.1,0.6-0.1c0.4,0,0.8,0.1,1.2,0.4c0.3,0.3,0.5,0.7,0.5,1.1c0,0.6-0.2,1-0.7,1.3
		c-0.5,0.3-1,0.4-1.6,0.4c-0.6,0-1.1-0.1-1.5-0.3c-0.4-0.2-0.7-0.5-0.9-0.9l0.2-0.1c0.1,0.1,0.2,0.2,0.3,0.2c0.1,0,0.2-0.1,0.3-0.2
		c0.1-0.1,0.2-0.4,0.4-0.6c0.4-0.6,0.7-1.1,0.9-1.3c0-0.3-0.1-0.5-0.2-0.6c-0.1-0.1-0.2-0.2-0.4-0.2c-0.2,0-0.4,0.2-0.5,0.5
		c-0.1,0.2-0.1,0.3-0.1,0.3c0,0-0.1,0.1-0.2,0.1c-0.1,0-0.2,0.1-0.2,0.1c-0.1,0-0.2,0-0.3-0.1s-0.1-0.2-0.1-0.3
		c0-0.2,0.1-0.4,0.3-0.6c0.2-0.2,0.5-0.3,0.8-0.3c0.6,0,0.9,0.4,1.1,1.1l0.2-0.1c0.1-0.2,0.2-0.4,0.4-0.9c0.2-0.5,0.3-0.9,0.5-1.1
		c0.1-0.3,0.3-0.5,0.5-0.7c0.2-0.2,0.4-0.4,0.7-0.5C123.5,99,123.8,98.9,124.1,98.9L124.1,98.9z"/>
</g>
<path class="st7" d="M106.6,30.2"/>
</svg>
