<?xml version="1.0" encoding="utf-8"?>
<!-- Generator: Adobe Illustrator 23.0.2, SVG Export Plug-In . SVG Version: 6.00 Build 0)  -->
<svg version="1.0" id="Layer_1" xmlns="http://www.w3.org/2000/svg" xmlns:xlink="http://www.w3.org/1999/xlink" x="0px" y="0px"
	 viewBox="0 0 220 220" style="enable-background:new 0 0 220 220;" xml:space="preserve">
<style type="text/css">
	.st0{fill-rule:evenodd;clip-rule:evenodd;fill:#FFFFFF;stroke:#0303C3;stroke-miterlimit:10;}
	.st1{fill:#FFFFFF;stroke:#0303C3;stroke-width:0.422;stroke-miterlimit:8;}
	.st2{clip-path:url(#SVGID_2_);fill:none;stroke:#000000;stroke-width:1.2653;stroke-miterlimit:8;}
	.st3{clip-path:url(#SVGID_2_);fill-rule:evenodd;clip-rule:evenodd;}
	.st4{clip-path:url(#SVGID_2_);}
	.st5{clip-path:url(#SVGID_4_);fill:none;stroke:#000000;stroke-width:1.2653;stroke-miterlimit:8;}
	.st6{clip-path:url(#SVGID_4_);fill-rule:evenodd;clip-rule:evenodd;}
	.st7{clip-path:url(#SVGID_4_);}
	.st8{clip-path:url(#SVGID_6_);fill-rule:evenodd;clip-rule:evenodd;}
	.st9{clip-path:url(#SVGID_6_);}
	.st10{clip-path:url(#SVGID_8_);fill-rule:evenodd;clip-rule:evenodd;}
	.st11{clip-path:url(#SVGID_8_);}
	.st12{clip-path:url(#SVGID_10_);fill-rule:evenodd;clip-rule:evenodd;}
	.st13{clip-path:url(#SVGID_10_);}
	.st14{clip-path:url(#SVGID_12_);}
	.st15{clip-path:url(#SVGID_14_);}
	.st16{clip-path:url(#SVGID_16_);}
	.st17{clip-path:url(#SVGID_18_);}
	.st18{clip-path:url(#SVGID_20_);}
	.st19{clip-path:url(#SVGID_22_);}
	.st20{clip-path:url(#SVGID_24_);}
	.st21{clip-path:url(#SVGID_26_);}
	.st22{clip-path:url(#SVGID_28_);}
	.st23{clip-path:url(#SVGID_30_);}
	.st24{clip-path:url(#SVGID_32_);}
	.st25{clip-path:url(#SVGID_34_);}
	.st26{clip-path:url(#SVGID_36_);}
	.st27{clip-path:url(#SVGID_38_);fill:none;stroke:#000000;stroke-width:1.2653;stroke-miterlimit:8;}
	.st28{clip-path:url(#SVGID_38_);}
	.st29{clip-path:url(#SVGID_40_);fill-rule:evenodd;clip-rule:evenodd;fill:#0303C3;}
	.st30{clip-path:url(#SVGID_40_);}
	.st31{clip-path:url(#SVGID_42_);fill-rule:evenodd;clip-rule:evenodd;fill:#0303C3;}
	.st32{fill:url(#SVGID_43_);stroke:#000000;stroke-width:0.422;stroke-miterlimit:8;stroke-dasharray:5,2;}
	.st33{fill:none;stroke:#0303C3;stroke-width:0.422;stroke-miterlimit:8;}
	.st34{fill-rule:evenodd;clip-rule:evenodd;}
</style>
<g>
	<polygon class="st0" points="40,91.8 40,179.6 178,180.2 177.7,89.4 140.7,89.7 125.7,86 111.3,79.9 99.4,76.8 89.9,75.9 
		79.8,77.4 66.9,81.4 47,89.4 40,91.8 40,91.8 	"/>
	<path class="st1" d="M40,91.8v87.7l138,0.6l-0.3-90.8c-5,0.5-10.3,0.8-15.9,0.9c-7.6,0.2-14.6-0.1-21.1-0.6
		c-2.1-0.3-4.5-0.7-6.9-1.3c-3-0.7-5.7-1.5-8.1-2.4c-4.8-2-9.6-4.1-14.4-6.1l-11.9-3.1l-9.5-0.9l-10.1,1.5c-4.3,1.3-8.6,2.7-12.9,4
		c-1.5,0.4-3.1,0.8-4.7,1.3c-5.9,1.8-11,4.2-15.2,6.7C44.7,90.2,42.3,91,40,91.8z"/>
	<g>
		<defs>
			<polyline id="SVGID_1_" points="218.6,214.3 218.6,8.7 1.6,8.7 1.6,214.3 1.6,214.3 			"/>
		</defs>
		<clipPath id="SVGID_2_">
			<use xlink:href="#SVGID_1_"  style="overflow:visible;"/>
		</clipPath>
		<line class="st2" x1="7.8" y1="179.9" x2="205" y2="179.9"/>
		<polygon class="st3" points="204.3,178 208.1,179.9 204.3,181.8 204.3,178 		"/>
		<g class="st4">
			<defs>
				<polyline id="SVGID_3_" points="218.6,214.3 218.6,8.7 1.6,8.7 1.6,214.3 1.6,214.3 				"/>
			</defs>
			<clipPath id="SVGID_4_">
				<use xlink:href="#SVGID_3_"  style="overflow:visible;"/>
			</clipPath>
			<line class="st5" x1="17.4" y1="189.9" x2="17.4" y2="25.1"/>
			<polygon class="st6" points="19.3,25.8 17.4,22 15.5,25.8 19.3,25.8 			"/>
			<g class="st7">
				<defs>
					<polyline id="SVGID_5_" points="218.6,214.3 218.6,8.7 1.6,8.7 1.6,214.3 1.6,214.3 					"/>
				</defs>
				<clipPath id="SVGID_6_">
					<use xlink:href="#SVGID_5_"  style="overflow:visible;"/>
				</clipPath>
				<path class="st8" d="M7.2,17.3c0.2,0,0.4,0,0.5,0.1c0.1,0,0.2,0.1,0.3,0.2s0.2,0.2,0.3,0.4c0.1,0.2,0.1,0.3,0.2,0.5
					c0.1,0.2,0.1,0.5,0.2,0.9c0.1,0.6,0.2,1.3,0.3,2s0.2,1.4,0.3,2c0.5-0.7,0.9-1.4,1.2-2s0.6-1.2,0.7-1.7c0.1-0.5,0.2-0.9,0.2-1.2
					c0-0.2,0-0.4-0.1-0.5c-0.1-0.1-0.3-0.1-0.5-0.1l0.1-0.4h1.9l0.2,0.4c-0.4,1-0.9,2.1-1.5,3.3c-0.6,1.1-1.4,2.3-2.2,3.4
					c-0.8,1.1-1.4,1.9-1.9,2.4c-0.4,0.3-0.7,0.6-1,0.7c-0.3,0.1-0.6,0.2-0.9,0.2c-0.1,0-0.2,0-0.4,0c-0.1,0-0.2,0-0.3-0.1l0.3-1.4
					h0.6c0,0.3,0.1,0.5,0.3,0.5c0.3,0,0.6-0.2,1-0.5c0.4-0.4,0.8-0.9,1.3-1.6c-0.1-0.9-0.3-1.9-0.6-3.1c-0.3-1.3-0.4-2.1-0.5-2.4
					c-0.1-0.4-0.2-0.6-0.3-0.7c-0.1-0.1-0.2-0.1-0.3-0.1c-0.2,0-0.3,0.1-0.4,0.2c-0.1,0.1-0.3,0.4-0.5,0.7l-0.5-0.3
					c0.3-0.5,0.7-0.9,1-1.1C6.5,17.4,6.8,17.3,7.2,17.3L7.2,17.3z"/>
				<g class="st9">
					<defs>
						<polyline id="SVGID_7_" points="218.6,214.3 218.6,8.7 1.6,8.7 1.6,214.3 1.6,214.3 						"/>
					</defs>
					<clipPath id="SVGID_8_">
						<use xlink:href="#SVGID_7_"  style="overflow:visible;"/>
					</clipPath>
					<path class="st10" d="M206.4,184.6c0.2,0,0.3,0,0.4,0.1c0.1,0,0.2,0.1,0.3,0.2c0.1,0.1,0.2,0.2,0.2,0.3s0.1,0.3,0.2,0.5
						c0.1,0.2,0.1,0.4,0.2,0.7s0.1,0.6,0.2,0.9h0.1c0.5-0.7,0.8-1.2,1.1-1.5c0.2-0.3,0.5-0.5,0.6-0.7c0.2-0.2,0.3-0.3,0.5-0.3
						c0.2-0.1,0.4-0.1,0.6-0.1c0.2,0,0.4,0,0.6,0.1l-0.3,1.3h-0.5c0-0.2-0.1-0.3-0.3-0.3c0,0-0.1,0-0.1,0c0,0-0.1,0-0.2,0.1
						s-0.2,0.1-0.3,0.3c-0.1,0.1-0.3,0.3-0.5,0.5c-0.2,0.2-0.4,0.4-0.5,0.7l-0.5,0.6c0.1,0.5,0.2,0.9,0.3,1.2s0.1,0.6,0.2,0.9
						s0.1,0.4,0.2,0.5s0.1,0.2,0.2,0.3c0.1,0.1,0.1,0.1,0.2,0.1c0.1,0,0.1,0,0.2,0c0.1,0,0.3-0.1,0.4-0.2s0.3-0.3,0.5-0.7l0.5,0.3
						c-0.3,0.5-0.7,0.9-0.9,1.1c-0.3,0.2-0.6,0.3-1,0.3c-0.2,0-0.4,0-0.5-0.1s-0.3-0.2-0.4-0.4c-0.1-0.2-0.2-0.4-0.3-0.8
						c-0.2-0.6-0.2-1.1-0.3-1.5h-0.1c-0.5,0.7-0.9,1.3-1.2,1.6c-0.3,0.3-0.5,0.6-0.6,0.7c-0.2,0.2-0.3,0.3-0.5,0.3
						c-0.2,0.1-0.4,0.1-0.6,0.1c-0.2,0-0.4,0-0.6-0.1l0.3-1.3h0.5c0,0.2,0.1,0.3,0.3,0.3c0.1,0,0.1,0,0.2-0.1c0.1,0,0.2-0.1,0.3-0.3
						c0.1-0.1,0.3-0.4,0.6-0.7c0.3-0.3,0.6-0.8,1.1-1.4c-0.1-0.4-0.2-0.8-0.2-1.1c-0.1-0.4-0.2-0.7-0.2-1c-0.1-0.3-0.2-0.5-0.2-0.6
						c-0.1-0.1-0.1-0.2-0.2-0.2s-0.1-0.1-0.2-0.1c-0.1,0-0.2,0-0.3,0.1c-0.1,0-0.2,0.1-0.3,0.2s-0.2,0.3-0.4,0.5l-0.5-0.3
						c0.3-0.5,0.6-0.8,0.9-1.1C205.6,184.8,206,184.6,206.4,184.6L206.4,184.6z"/>
					<g class="st11">
						<defs>
							<polyline id="SVGID_9_" points="218.6,214.3 218.6,8.7 1.6,8.7 1.6,214.3 1.6,214.3 							"/>
						</defs>
						<clipPath id="SVGID_10_">
							<use xlink:href="#SVGID_9_"  style="overflow:visible;"/>
						</clipPath>
						<path class="st12" d="M9.6,185.2c-0.5,0-1,0.2-1.3,0.6s-0.7,1-0.9,1.8S7,189.2,7,189.8c0,0.5,0.1,0.9,0.3,1.2
							c0.2,0.3,0.6,0.4,1,0.4c0.5,0,0.9-0.2,1.3-0.7c0.4-0.4,0.7-1,0.9-1.8c0.2-0.8,0.3-1.5,0.3-2.1c0-0.5-0.1-0.9-0.3-1.2
							C10.4,185.4,10.1,185.2,9.6,185.2L9.6,185.2z M9.8,184.6c0.8,0,1.4,0.2,1.8,0.6c0.4,0.4,0.6,1.1,0.6,1.9
							c0,0.6-0.1,1.2-0.3,1.8c-0.2,0.7-0.5,1.2-0.8,1.6s-0.8,0.8-1.2,1s-1,0.3-1.7,0.3c-0.8,0-1.4-0.2-1.8-0.6
							c-0.4-0.4-0.6-1-0.6-1.9c0-0.4,0.1-0.9,0.2-1.4c0.2-0.7,0.4-1.3,0.8-1.8s0.8-0.9,1.3-1.2S9.1,184.6,9.8,184.6L9.8,184.6z"/>
						<g class="st13">
							<defs>
								<polyline id="SVGID_11_" points="218.6,214.3 218.6,8.7 1.6,8.7 1.6,214.3 1.6,214.3 								"/>
							</defs>
							<clipPath id="SVGID_12_">
								<use xlink:href="#SVGID_11_"  style="overflow:visible;"/>
							</clipPath>
							<g class="st14">
								<defs>
									<polyline id="SVGID_13_" points="218.6,214.3 218.6,8.7 1.6,8.7 1.6,214.3 1.6,214.3 									"/>
								</defs>
								<clipPath id="SVGID_14_">
									<use xlink:href="#SVGID_13_"  style="overflow:visible;"/>
								</clipPath>
								<g class="st15">
									<defs>
										<polyline id="SVGID_15_" points="218.6,214.3 218.6,8.7 1.6,8.7 1.6,214.3 1.6,214.3 										"/>
									</defs>
									<clipPath id="SVGID_16_">
										<use xlink:href="#SVGID_15_"  style="overflow:visible;"/>
									</clipPath>
									<g class="st16">
										<defs>
											<polyline id="SVGID_17_" points="218.6,214.3 218.6,8.7 1.6,8.7 1.6,214.3 1.6,214.3 											"/>
										</defs>
										<clipPath id="SVGID_18_">
											<use xlink:href="#SVGID_17_"  style="overflow:visible;"/>
										</clipPath>
										<g class="st17">
											<defs>
												<polyline id="SVGID_19_" points="218.6,214.3 218.6,8.7 1.6,8.7 1.6,214.3 1.6,214.3 												"/>
											</defs>
											<clipPath id="SVGID_20_">
												<use xlink:href="#SVGID_19_"  style="overflow:visible;"/>
											</clipPath>
											<g class="st18">
												<defs>
													<polyline id="SVGID_21_" points="218.6,214.3 218.6,8.7 1.6,8.7 1.6,214.3 1.6,214.3 													"/>
												</defs>
												<clipPath id="SVGID_22_">
													<use xlink:href="#SVGID_21_"  style="overflow:visible;"/>
												</clipPath>
												<g class="st19">
													<defs>
														<polyline id="SVGID_23_" points="218.6,214.3 218.6,8.7 1.6,8.7 1.6,214.3 1.6,214.3 														"/>
													</defs>
													<clipPath id="SVGID_24_">
														<use xlink:href="#SVGID_23_"  style="overflow:visible;"/>
													</clipPath>
													<g class="st20">
														<defs>
															<polyline id="SVGID_25_" points="218.6,214.3 218.6,8.7 1.6,8.7 1.6,214.3 1.6,214.3 															"/>
														</defs>
														<clipPath id="SVGID_26_">
															<use xlink:href="#SVGID_25_"  style="overflow:visible;"/>
														</clipPath>
														<g class="st21">
															<defs>
																<polyline id="SVGID_27_" points="218.6,214.3 218.6,8.7 1.6,8.7 1.6,214.3 1.6,214.3 																"/>
															</defs>
															<clipPath id="SVGID_28_">
																<use xlink:href="#SVGID_27_"  style="overflow:visible;"/>
															</clipPath>
															<g class="st22">
																<defs>
																	<polyline id="SVGID_29_" points="218.6,214.3 218.6,8.7 1.6,8.7 1.6,214.3 1.6,214.3 																	"/>
																</defs>
																<clipPath id="SVGID_30_">
																	<use xlink:href="#SVGID_29_"  style="overflow:visible;"/>
																</clipPath>
																<g class="st23">
																	<defs>
																		<polyline id="SVGID_31_" points="218.6,214.3 218.6,8.7 1.6,8.7 1.6,214.3 1.6,214.3 																		"/>
																	</defs>
																	<clipPath id="SVGID_32_">
																		<use xlink:href="#SVGID_31_"  style="overflow:visible;"/>
																	</clipPath>
																	<g class="st24">
																		<defs>
																			<polyline id="SVGID_33_" points="218.6,214.3 218.6,8.7 1.6,8.7 1.6,214.3 1.6,214.3 																			"/>
																		</defs>
																		<clipPath id="SVGID_34_">
																			<use xlink:href="#SVGID_33_"  style="overflow:visible;"/>
																		</clipPath>
																		<g class="st25">
																			<defs>
																				<polyline id="SVGID_35_" points="218.6,214.3 218.6,8.7 1.6,8.7 1.6,214.3 1.6,214.3 																				"/>
																			</defs>
																			<clipPath id="SVGID_36_">
																				<use xlink:href="#SVGID_35_"  style="overflow:visible;"/>
																			</clipPath>
																			<g class="st26">
																				<defs>
																					<polyline id="SVGID_37_" points="218.6,214.3 218.6,8.7 1.6,8.7 1.6,214.3 1.6,214.3 																					"/>
																				</defs>
																				<clipPath id="SVGID_38_">
																					<use xlink:href="#SVGID_37_"  style="overflow:visible;"/>
																				</clipPath>
																				<path class="st27" d="M40,92.2c17.5-7.9,35-15.7,51.2-16.2c16.2-0.5,31.5,10.9,46,13.2
																					c14.5,2.3,40.8,0.6,40.8,0.6l0,0"/>
																				<g class="st28">
																					<defs>
																						<polyline id="SVGID_39_" points="218.6,214.3 218.6,8.7 1.6,8.7 1.6,214.3 1.6,214.3 																						
																							"/>
																					</defs>
																					<clipPath id="SVGID_40_">
																						<use xlink:href="#SVGID_39_"  style="overflow:visible;"/>
																					</clipPath>
																					<path class="st29" d="M40.8,184.6c-0.4,0-0.8,0.2-1.1,0.5s-0.6,0.7-0.7,1.3c-0.2,0.5-0.3,1.1-0.3,1.6
																						c0,0.4,0.1,0.7,0.2,0.9c0.1,0.2,0.3,0.3,0.5,0.3c0.3,0,0.5-0.1,0.7-0.3c0.2-0.2,0.5-0.5,0.8-0.9
																						c0.3-0.4,0.4-0.9,0.5-1.4l0.1-0.2c0-0.2,0.1-0.3,0.1-0.4c0-0.1,0-0.2,0-0.4c0-0.3-0.1-0.5-0.2-0.7
																						S41.1,184.6,40.8,184.6L40.8,184.6z M40.7,184.1c0.2,0,0.5,0,0.7,0.1c0.2,0.1,0.4,0.2,0.7,0.3l0.5-0.4l0.4,0.1
																						l-0.8,3.7c-0.1,0.4-0.1,0.6-0.1,0.9c0,0.2,0,0.3,0.1,0.3c0,0.1,0.1,0.1,0.2,0.1c0.1,0,0.2,0,0.4-0.1
																						c0.1-0.1,0.3-0.3,0.6-0.5l0.3,0.3c-0.3,0.4-0.6,0.6-0.9,0.8c-0.2,0.2-0.5,0.2-0.8,0.2c-0.2,0-0.4-0.1-0.6-0.2
																						c-0.1-0.2-0.2-0.4-0.2-0.6c0-0.2,0-0.4,0.1-0.7l-0.1,0c-0.4,0.5-0.7,0.9-1,1.2c-0.3,0.2-0.7,0.4-1,0.4
																						c-0.4,0-0.7-0.2-1-0.5c-0.2-0.3-0.3-0.8-0.3-1.3c0-0.7,0.1-1.3,0.4-1.9c0.3-0.6,0.6-1.1,1.1-1.4
																						C39.6,184.3,40.1,184.1,40.7,184.1L40.7,184.1z"/>
																					<g class="st30">
																						<defs>
																							<polyline id="SVGID_41_" points="218.6,214.3 218.6,8.7 1.6,8.7 1.6,214.3 1.6,214.3 
																																															"/>
																						</defs>
																						<clipPath id="SVGID_42_">
																							<use xlink:href="#SVGID_41_"  style="overflow:visible;"/>
																						</clipPath>
																						<path class="st31" d="M179.2,186.8c-0.2,0-0.4,0.1-0.5,0.2c-0.2,0.1-0.4,0.3-0.6,0.6
																							c-0.2,0.3-0.4,0.5-0.5,0.8c-0.1,0.3-0.3,0.6-0.4,1.1l-0.1,0.2c-0.1,0.3-0.1,0.5-0.1,0.8
																							c0,0.3,0.1,0.5,0.2,0.7c0.1,0.1,0.4,0.2,0.7,0.2c0.2,0,0.3,0,0.4-0.1c0.1-0.1,0.3-0.1,0.4-0.3
																							c0.1-0.1,0.3-0.3,0.4-0.5c0.1-0.2,0.3-0.4,0.4-0.7c0.1-0.3,0.2-0.6,0.3-0.9c0.1-0.3,0.1-0.6,0.1-0.9
																							c0-0.4-0.1-0.7-0.2-0.9C179.6,186.9,179.4,186.8,179.2,186.8L179.2,186.8z M178.2,183.5h0.3l-1,4l0.1,0
																							c0.4-0.5,0.7-0.9,1-1.1c0.3-0.2,0.7-0.3,1-0.3c0.4,0,0.7,0.2,1,0.5c0.2,0.3,0.3,0.8,0.3,1.3
																							c0,0.6-0.1,1.3-0.4,1.9c-0.3,0.6-0.6,1.1-1.1,1.5c-0.5,0.4-1,0.5-1.5,0.5c-0.5,0-1-0.1-1.4-0.4l-0.5,0.4
																							l-0.4-0.1l1.5-6.6c0.1-0.4,0.1-0.7,0.1-0.9c0-0.2,0-0.3-0.1-0.3c-0.1-0.1-0.3-0.1-0.5-0.1l0.1-0.3
																							L178.2,183.5L178.2,183.5z"/>
																					</g>
																				</g>
																			</g>
																		</g>
																	</g>
																</g>
															</g>
														</g>
													</g>
												</g>
											</g>
										</g>
									</g>
								</g>
							</g>
						</g>
					</g>
				</g>
			</g>
		</g>
	</g>
</g>
<linearGradient id="SVGID_43_" gradientUnits="userSpaceOnUse" x1="313.7872" y1="147.4575" x2="313.7872" y2="147.4575">
	<stop  offset="2.024560e-07" style="stop-color:#0303C3;stop-opacity:0.5"/>
	<stop  offset="0.4877" style="stop-color:#FFFFFF;stop-opacity:0"/>
	<stop  offset="1" style="stop-color:#1414C7;stop-opacity:0.6"/>
</linearGradient>
<path class="st32" d="M313.8,147.5"/>
<line class="st33" x1="109.2" y1="79.3" x2="109.2" y2="179.5"/>
<line class="st33" x1="74.6" y1="79.1" x2="74.6" y2="180.2"/>
<line class="st33" x1="143.9" y1="89.4" x2="143.9" y2="180.2"/>
<line class="st33" x1="161.3" y1="90.3" x2="161.3" y2="180.2"/>
<line class="st33" x1="56.4" y1="85" x2="56.4" y2="180.2"/>
<line class="st33" x1="90.8" y1="76" x2="90.8" y2="179.5"/>
<line class="st33" x1="126.7" y1="86" x2="126.7" y2="179.5"/>
<line class="st33" x1="135.3" y1="88.7" x2="135.3" y2="179.5"/>
<line class="st33" x1="152.6" y1="90.3" x2="152.6" y2="180.2"/>
<line class="st33" x1="169.3" y1="90.3" x2="169.3" y2="180.2"/>
<line class="st33" x1="117.6" y1="82.6" x2="117.6" y2="179.9"/>
<line class="st33" x1="100" y1="77" x2="100" y2="179.9"/>
<line class="st33" x1="82.7" y1="77" x2="82.7" y2="179.9"/>
<line class="st33" x1="65.5" y1="81.8" x2="65.5" y2="179.7"/>
<line class="st33" x1="47.7" y1="89.4" x2="47.7" y2="180.2"/>
<g>
	<path class="st34" d="M156.2,70.6c0.1,0,0.2,0,0.3,0c0.1,0,0.1,0.1,0.2,0.1c0.1,0,0.1,0.1,0.1,0.2c0,0.1,0.1,0.2,0.1,0.3
		c0,0.1,0.1,0.3,0.1,0.4c0.1,0.3,0.1,0.7,0.2,1c0.1,0.4,0.1,0.7,0.1,1c0.2-0.4,0.5-0.7,0.6-1s0.3-0.6,0.4-0.9
		c0.1-0.3,0.1-0.5,0.1-0.6c0-0.1,0-0.2-0.1-0.2c-0.1,0-0.1-0.1-0.3-0.1l0-0.2h1l0.1,0.2c-0.2,0.5-0.5,1.1-0.8,1.7
		c-0.3,0.6-0.7,1.2-1.1,1.8c-0.4,0.6-0.7,1-1,1.2c-0.2,0.2-0.4,0.3-0.5,0.4c-0.1,0.1-0.3,0.1-0.4,0.1c-0.1,0-0.1,0-0.2,0
		s-0.1,0-0.2,0l0.2-0.7h0.3c0,0.2,0.1,0.2,0.2,0.2c0.1,0,0.3-0.1,0.5-0.3c0.2-0.2,0.4-0.5,0.7-0.8c-0.1-0.4-0.2-1-0.3-1.6
		c-0.1-0.7-0.2-1.1-0.3-1.2c-0.1-0.2-0.1-0.3-0.2-0.4c0,0-0.1,0-0.1,0c-0.1,0-0.2,0-0.2,0.1c-0.1,0.1-0.2,0.2-0.3,0.3l-0.2-0.2
		c0.2-0.3,0.3-0.4,0.5-0.6S156,70.6,156.2,70.6L156.2,70.6z"/>
	<path class="st34" d="M162.2,72.6h4.7v0.5h-4.7V72.6L162.2,72.6z M162.2,71.1h4.7v0.5h-4.7V71.1L162.2,71.1z"/>
	<path class="st34" d="M173.2,68.9c0.2,0,0.5,0,0.6,0.1l-0.1,0.6h-0.3c0-0.1-0.1-0.2-0.1-0.3s-0.1-0.1-0.3-0.1c-0.1,0-0.3,0-0.4,0.1
		c-0.1,0.1-0.2,0.2-0.3,0.4s-0.1,0.4-0.2,0.6l-0.1,0.4h1l-0.1,0.4h-1l-0.7,3.3c-0.1,0.5-0.3,1-0.5,1.2c-0.2,0.3-0.5,0.4-0.9,0.4
		c-0.1,0-0.2,0-0.3,0l0.1-0.3c0,0,0.1,0,0.2,0c0.1,0,0.2,0,0.3-0.1c0.1-0.1,0.2-0.2,0.2-0.3c0.1-0.1,0.1-0.3,0.2-0.6l0.8-3.6h-0.6
		l0.1-0.3c0.2,0,0.3,0,0.4,0s0.1,0,0.2-0.1s0.1-0.1,0.1-0.1c0-0.1,0.1-0.2,0.1-0.3c0.1-0.5,0.3-0.8,0.6-1
		C172.4,69,172.7,68.9,173.2,68.9L173.2,68.9z"/>
	<path class="st34" d="M182,68.5c0.7,0.2,1.3,0.6,1.7,1.3c0.4,0.6,0.6,1.4,0.6,2.3c0,0.9-0.2,1.7-0.6,2.3s-1,1.1-1.7,1.3l-0.1-0.3
		c0.6-0.2,1-0.6,1.3-1.2s0.4-1.3,0.4-2.2c0-0.9-0.1-1.6-0.4-2.1s-0.7-0.9-1.3-1.1L182,68.5z M177.1,68.5l0.1,0.3
		c-0.6,0.2-1,0.6-1.3,1.1s-0.4,1.3-0.4,2.1c0,0.9,0.1,1.6,0.4,2.2s0.7,1,1.3,1.2l-0.1,0.3c-0.7-0.2-1.3-0.6-1.7-1.3
		c-0.4-0.6-0.6-1.4-0.6-2.3c0-0.9,0.2-1.7,0.6-2.3C175.8,69.2,176.3,68.7,177.1,68.5L177.1,68.5z"/>
	<path class="st34" d="M178.8,70.6c0.1,0,0.1,0,0.2,0s0.1,0,0.2,0.1c0,0,0.1,0.1,0.1,0.1c0,0.1,0.1,0.1,0.1,0.2
		c0,0.1,0.1,0.2,0.1,0.4c0,0.1,0.1,0.3,0.1,0.5h0c0.2-0.3,0.4-0.6,0.6-0.7c0.1-0.2,0.2-0.3,0.3-0.4c0.1-0.1,0.2-0.1,0.2-0.2
		c0.1,0,0.2,0,0.3,0c0.1,0,0.2,0,0.3,0l-0.2,0.7h-0.3c0-0.1-0.1-0.2-0.1-0.2c0,0,0,0-0.1,0c0,0-0.1,0-0.1,0c0,0-0.1,0.1-0.2,0.1
		c-0.1,0.1-0.2,0.2-0.2,0.3c-0.1,0.1-0.2,0.2-0.3,0.3l-0.3,0.3c0,0.2,0.1,0.5,0.1,0.6c0,0.2,0.1,0.3,0.1,0.4c0,0.1,0.1,0.2,0.1,0.3
		c0,0.1,0,0.1,0.1,0.2c0,0,0.1,0.1,0.1,0.1s0.1,0,0.1,0c0.1,0,0.1,0,0.2-0.1s0.2-0.2,0.3-0.4l0.2,0.2c-0.2,0.3-0.3,0.4-0.5,0.6
		c-0.1,0.1-0.3,0.2-0.5,0.2c-0.1,0-0.2,0-0.3-0.1c-0.1,0-0.1-0.1-0.2-0.2c-0.1-0.1-0.1-0.2-0.1-0.4c-0.1-0.3-0.1-0.6-0.1-0.7h0
		c-0.3,0.4-0.5,0.6-0.6,0.8c-0.1,0.2-0.2,0.3-0.3,0.4c-0.1,0.1-0.2,0.1-0.2,0.2s-0.2,0-0.3,0c-0.1,0-0.2,0-0.3,0l0.2-0.7h0.3
		c0,0.1,0.1,0.2,0.1,0.2c0,0,0.1,0,0.1,0c0,0,0.1-0.1,0.2-0.1c0.1-0.1,0.2-0.2,0.3-0.3s0.3-0.4,0.6-0.7c0-0.2-0.1-0.4-0.1-0.6
		s-0.1-0.4-0.1-0.5c0-0.2-0.1-0.3-0.1-0.3c0,0-0.1-0.1-0.1-0.1c0,0-0.1,0-0.1,0c-0.1,0-0.1,0-0.1,0c0,0-0.1,0.1-0.1,0.1
		c-0.1,0.1-0.1,0.2-0.2,0.3l-0.2-0.2c0.2-0.2,0.3-0.4,0.5-0.5C178.4,70.7,178.6,70.6,178.8,70.6L178.8,70.6z"/>
	<path class="st34" d="M166.5,82.4c-0.3,0-0.6,0.1-0.8,0.3c-0.2,0.2-0.3,0.3-0.3,0.5c0,0.1,0.1,0.2,0.4,0.2c0.2,0,0.3,0,0.4,0
		c0.1,0,0.1-0.1,0.2-0.2c0-0.1,0.1-0.3,0.1-0.5V82.4z M169.5,81.4c-0.3,0-0.6,0.1-0.9,0.3c-0.1,0.1-0.2,0.3-0.3,0.6
		c-0.1,0.3-0.2,0.5-0.3,0.7c0.1-0.1,0.2-0.1,0.4-0.1c0.1,0,0.2,0,0.4,0c0.2,0,0.3,0,0.4,0c0.5,0,0.8-0.1,1-0.2
		c0.2-0.1,0.3-0.3,0.3-0.5c0-0.2-0.1-0.4-0.3-0.6C170.1,81.5,169.8,81.4,169.5,81.4L169.5,81.4z M176.3,80.8c-0.2,0-0.3,0-0.4,0.1
		c-0.1,0.1-0.2,0.2-0.2,0.3c0.6,0,0.9,0,1,0c0,0,0-0.1,0-0.1c0-0.1,0-0.2-0.1-0.2C176.5,80.8,176.4,80.8,176.3,80.8L176.3,80.8z
		 M176.4,80.2c0.2,0,0.3,0.1,0.5,0.2c0.1,0.1,0.2,0.2,0.2,0.4c0,0.2,0,0.4-0.1,0.5c0.2,0.1,0.3,0.2,0.4,0.4c0.1,0.2,0.1,0.3,0.1,0.5
		c0,0.4-0.1,0.7-0.3,1c-0.2,0.3-0.5,0.4-0.9,0.4c-0.2,0-0.4,0-0.5-0.1s-0.3-0.2-0.4-0.4c-0.1,0.2-0.3,0.3-0.4,0.4s-0.3,0.1-0.5,0.1
		c-0.3,0-0.6-0.1-0.9-0.4s-0.3-0.6-0.3-1c0-0.4,0.1-0.8,0.4-1.1s0.6-0.4,1.1-0.5v0.3c-0.3,0-0.6,0.1-0.9,0.3s-0.4,0.5-0.4,0.9
		c0,0.3,0.1,0.5,0.2,0.6c0.2,0.2,0.4,0.3,0.7,0.3c0.3,0,0.5-0.1,0.6-0.3c0.1-0.2,0.2-0.4,0.2-0.8h0.3c0,0.3,0.1,0.6,0.2,0.8
		c0.1,0.2,0.3,0.3,0.6,0.3c0.3,0,0.5-0.1,0.7-0.2c0.2-0.2,0.2-0.4,0.2-0.6c0-0.2-0.1-0.4-0.2-0.5s-0.4-0.2-0.6-0.2h-0.8
		c0-0.4,0.1-0.7,0.3-0.9C175.8,80.3,176.1,80.2,176.4,80.2L176.4,80.2z M168.4,80.2c0.4,0,0.6,0.2,0.8,0.6c0.3-0.2,0.5-0.3,0.7-0.4
		c0.2-0.1,0.4-0.1,0.7-0.1c0.5,0,0.9,0.2,1.3,0.5c0.3,0.3,0.5,0.8,0.5,1.4c0,0.4-0.1,0.7-0.3,1c-0.2,0.3-0.4,0.4-0.6,0.4
		c-0.2,0-0.3-0.1-0.5-0.2l0.2-0.2c0.1,0.1,0.2,0.2,0.3,0.2c0.2,0,0.3-0.1,0.4-0.2c0.1-0.2,0.2-0.4,0.2-0.6c0-0.5-0.2-0.9-0.5-1.3
		c-0.3-0.4-0.7-0.6-1.1-0.6c-0.2,0-0.5,0-0.7,0.1c-0.2,0.1-0.4,0.2-0.6,0.4c0.2-0.1,0.4-0.1,0.5-0.1c0.4,0,0.7,0.1,1,0.4
		c0.3,0.2,0.4,0.5,0.4,0.9c0,0.4-0.2,0.7-0.5,0.9c-0.3,0.2-0.7,0.3-1.1,0.3c-0.3,0-0.6-0.1-0.9-0.3c-0.1-0.1-0.2-0.1-0.3-0.1
		c-0.1,0-0.2,0.1-0.3,0.3l-0.2-0.1c0.1-0.5,0.3-1,0.5-1.4s0.4-0.8,0.7-1c0-0.1,0-0.2-0.1-0.3c-0.1-0.1-0.2-0.1-0.3-0.1
		c-0.1,0-0.1,0-0.1,0.1c0,0-0.1,0.1-0.1,0.3c0,0.2-0.1,0.3-0.1,0.3c0,0.1-0.1,0.1-0.2,0.1c-0.1,0-0.2,0-0.2-0.1
		c-0.1-0.1-0.1-0.1-0.1-0.2c0-0.2,0.1-0.3,0.2-0.5S168.1,80.2,168.4,80.2L168.4,80.2z M165.3,79c-0.4,0-0.7,0-0.9,0.1
		c-0.2,0.1-0.3,0.2-0.3,0.4c0,0.2,0.1,0.4,0.3,0.5s0.5,0.2,0.8,0.2c0.2-0.1,0.3-0.1,0.5-0.1c0.1,0,0.1,0,0.3,0
		c0.2-0.1,0.4-0.1,0.5-0.3c0.1-0.1,0.2-0.2,0.2-0.4c0-0.2-0.1-0.3-0.3-0.4C166,79,165.7,79,165.3,79L165.3,79z M165.3,78.3
		c0.5,0,0.9,0.1,1.2,0.3c0.3,0.2,0.4,0.5,0.4,0.8c0,0.2,0,0.4-0.1,0.5s-0.2,0.3-0.4,0.4c0.2,0.1,0.4,0.3,0.5,0.5
		c0.1,0.2,0.2,0.5,0.2,0.8c0,1-0.1,1.7-0.4,2.3c-0.3,0.6-0.6,0.9-0.9,1.2s-0.7,0.3-1,0.3c-0.4,0-0.8-0.1-1.1-0.3
		c-0.3-0.2-0.6-0.5-0.9-1l0.2-0.2c0.2,0.3,0.4,0.5,0.7,0.6c0.3,0.1,0.6,0.2,0.9,0.2c0.4,0,0.7-0.1,1.1-0.3s0.6-0.5,0.8-0.9
		c-0.1,0-0.2,0-0.4,0c-0.3,0-0.5,0-0.6-0.1c-0.1-0.1-0.1-0.2-0.1-0.4c0-0.1,0-0.3,0.1-0.4c0.1-0.2,0.2-0.3,0.4-0.4
		c0.2-0.1,0.4-0.1,0.8-0.1c0-0.5-0.1-0.8-0.3-1c-0.2-0.2-0.5-0.4-0.8-0.4c-0.2,0-0.4,0.1-0.6,0.3s-0.3,0.4-0.4,0.8l0,0
		c0,0,0,0,0.1,0c0.2,0,0.3,0.1,0.4,0.2c0.1,0.1,0.2,0.3,0.2,0.5c0,0.3-0.1,0.5-0.3,0.8c-0.2,0.2-0.5,0.4-0.9,0.4
		c-0.4,0-0.7-0.2-0.9-0.5c-0.2-0.3-0.4-0.7-0.4-1.1c0-0.5,0.1-0.8,0.3-1.2c0.2-0.3,0.5-0.5,0.8-0.6l0.1,0.2c-0.3,0-0.5,0.2-0.6,0.4
		s-0.2,0.5-0.2,0.8c0,0.4,0.1,0.7,0.3,0.9c0.2,0.2,0.5,0.4,0.8,0.4c0.2,0,0.3-0.1,0.4-0.2s0.2-0.3,0.2-0.5c0-0.1,0-0.2-0.1-0.3
		s-0.1-0.1-0.2-0.1c-0.1,0-0.2,0.1-0.3,0.2l-0.2-0.1c0.1-0.4,0.2-0.7,0.4-1c0.1-0.3,0.3-0.5,0.4-0.6c-0.4-0.1-0.6-0.2-0.8-0.3
		c-0.2-0.2-0.3-0.4-0.3-0.7c0-0.3,0.1-0.6,0.4-0.8C164.4,78.5,164.8,78.3,165.3,78.3L165.3,78.3z"/>
</g>
<g>
	<path class="st34" d="M91.9,194.7h1.5c0,0.1-0.1,0.3-0.2,0.4c-0.1,0.1-0.2,0.3-0.2,0.4c0.1,0,0.2,0,0.3,0c0.2,0,0.3,0,0.5,0
		c-0.1,0.2-0.3,0.5-0.5,0.8c-0.2,0.3-0.3,0.5-0.3,0.7c0,0.3,0.1,0.5,0.2,0.7c0.2,0.2,0.4,0.3,0.6,0.3c0.1,0,0.2,0,0.3-0.1l0,0.3
		c-0.2,0.1-0.4,0.2-0.7,0.2c-0.3,0-0.6-0.1-0.8-0.3c-0.2-0.2-0.3-0.4-0.3-0.7c0-0.1,0-0.3,0.1-0.4c0.1-0.1,0.2-0.3,0.4-0.6
		c0.3-0.3,0.4-0.5,0.5-0.6h-0.2c-0.1,0-0.2,0-0.4,0c-0.2,0-0.3,0.1-0.3,0.1c0.2-0.4,0.4-0.7,0.5-0.9h-1.1V194.7L91.9,194.7z
		 M97.7,194.3c-0.1,0-0.3,0-0.3,0.1c-0.1,0.1-0.1,0.2-0.2,0.3h0.1c0.3,0,0.6,0,0.8,0.1c0-0.1,0.1-0.2,0.1-0.2c0-0.1,0-0.2-0.1-0.2
		C97.9,194.3,97.8,194.3,97.7,194.3L97.7,194.3z M102.8,194.2c-0.2,0-0.3,0-0.4,0.1c-0.1,0.1-0.2,0.2-0.2,0.3c0.6,0,0.9,0,1,0
		c0,0,0-0.1,0-0.1c0-0.1,0-0.2-0.1-0.2C103,194.3,102.9,194.2,102.8,194.2L102.8,194.2z M90,193.9c-0.4,0-0.8,0.1-1.1,0.4
		s-0.5,0.6-0.5,1c0,0.3,0.1,0.6,0.3,0.8s0.5,0.3,0.8,0.3c0.4,0,0.8-0.1,1.1-0.4s0.5-0.6,0.5-1c0-0.3-0.1-0.6-0.4-0.8
		C90.6,194,90.4,193.9,90,193.9L90,193.9z M102.9,193.7c0.2,0,0.3,0.1,0.5,0.2c0.1,0.1,0.2,0.2,0.2,0.4c0,0.2,0,0.4-0.1,0.6
		c0.2,0.1,0.3,0.2,0.4,0.4c0.1,0.2,0.1,0.4,0.1,0.6c0,0.4-0.1,0.7-0.4,1c-0.2,0.3-0.5,0.4-0.9,0.4c-0.2,0-0.4,0-0.5-0.1
		c-0.2-0.1-0.3-0.2-0.4-0.4c-0.1,0.2-0.3,0.3-0.4,0.4c-0.2,0.1-0.3,0.1-0.5,0.1c-0.4,0-0.7-0.1-0.9-0.4s-0.4-0.6-0.4-1.1
		c0-0.5,0.1-0.8,0.4-1.1c0.3-0.3,0.7-0.5,1.1-0.5v0.3c-0.3,0-0.6,0.1-0.9,0.4s-0.4,0.5-0.4,0.9c0,0.3,0.1,0.5,0.2,0.7
		c0.2,0.2,0.4,0.3,0.7,0.3c0.3,0,0.5-0.1,0.6-0.3s0.2-0.4,0.2-0.8h0.3c0,0.4,0.1,0.6,0.2,0.8s0.3,0.3,0.6,0.3c0.3,0,0.5-0.1,0.7-0.2
		c0.2-0.2,0.2-0.4,0.2-0.6c0-0.2-0.1-0.4-0.2-0.6s-0.4-0.2-0.7-0.2h-0.8c0-0.4,0.1-0.7,0.3-0.9S102.6,193.7,102.9,193.7L102.9,193.7
		z M95.7,193.7c0.3,0,0.5,0.1,0.6,0.3s0.2,0.5,0.2,0.9c-0.6,0-1,0.1-1.2,0.2c-0.2,0.2-0.3,0.3-0.3,0.6c0,0.3,0.1,0.6,0.4,0.7
		c0.3,0.1,0.7,0.2,1.2,0.2c0.6,0,1-0.1,1.3-0.2c0.3-0.1,0.4-0.3,0.4-0.6c0-0.2-0.1-0.4-0.3-0.6c-0.2-0.1-0.5-0.2-0.9-0.2h-0.3
		c0-0.4,0.1-0.7,0.3-0.9c0.2-0.2,0.4-0.3,0.6-0.3c0.2,0,0.3,0.1,0.5,0.2s0.2,0.3,0.2,0.5c0,0.2-0.1,0.4-0.2,0.6
		c0.2,0.1,0.3,0.2,0.3,0.4c0.1,0.1,0.1,0.3,0.1,0.5c0,0.4-0.2,0.8-0.5,1c-0.4,0.2-0.9,0.4-1.5,0.4c-0.6,0-1.1-0.1-1.4-0.4
		s-0.5-0.6-0.5-1c0-0.3,0.1-0.6,0.4-0.8c0.3-0.2,0.6-0.3,1.1-0.3h0.1c0-0.2-0.1-0.3-0.1-0.4c-0.1-0.1-0.1-0.2-0.2-0.2
		c-0.1,0-0.1,0-0.2,0.1c-0.1,0-0.1,0.1-0.2,0.2c-0.1,0.1-0.1,0.2-0.2,0.2s-0.1,0.1-0.2,0.1c-0.1,0-0.2,0-0.2-0.1
		c-0.1-0.1-0.1-0.1-0.1-0.2c0-0.2,0.1-0.3,0.2-0.4C95.3,193.7,95.5,193.7,95.7,193.7L95.7,193.7z M91.8,192.2c0.1,0,0.1,0,0.2,0.1
		c0,0,0,0.1,0,0.1c0,0.1-0.2,0.3-0.5,0.6s-0.8,0.5-1.3,0.7c0.5,0,0.9,0.2,1.2,0.5c0.3,0.3,0.4,0.7,0.4,1.1c0,0.5-0.2,1-0.6,1.3
		s-0.8,0.5-1.3,0.5c-0.5,0-0.9-0.2-1.2-0.5c-0.3-0.3-0.4-0.7-0.4-1.2c0-0.4,0.1-0.7,0.3-1.1s0.7-0.6,1.4-1c0.5-0.2,0.9-0.4,1.2-0.6
		c0.3-0.2,0.5-0.4,0.6-0.5C91.7,192.3,91.8,192.2,91.8,192.2L91.8,192.2z"/>
	<path class="st34" d="M109.2,191.5l0.1,0.3c-0.6,0.2-1.1,0.6-1.4,1.2c-0.3,0.6-0.4,1.3-0.4,2.2c0,0.9,0.1,1.7,0.4,2.3
		c0.3,0.6,0.7,1,1.3,1.2l-0.1,0.3c-0.8-0.2-1.3-0.6-1.8-1.3c-0.4-0.7-0.6-1.5-0.6-2.4c0-0.9,0.2-1.7,0.6-2.4
		S108.5,191.7,109.2,191.5L109.2,191.5z"/>
	<path class="st34" d="M111.7,192.1c-0.2,0-0.3,0.1-0.5,0.2s-0.2,0.3-0.3,0.5c-0.1,0.2-0.1,0.4-0.2,0.7c0,0.3,0,0.6,0,1
		c0,0.8,0.1,1.5,0.2,1.9c0.2,0.4,0.4,0.6,0.7,0.6c0.3,0,0.5-0.2,0.7-0.6c0.2-0.4,0.2-1,0.2-1.7c0-0.6,0-1.1-0.1-1.5
		c-0.1-0.4-0.2-0.6-0.3-0.8S111.9,192.1,111.7,192.1L111.7,192.1z M111.7,191.8c0.6,0,1,0.2,1.3,0.7s0.4,1.1,0.4,2
		c0,0.9-0.1,1.6-0.4,2.1s-0.7,0.7-1.3,0.7c-0.6,0-1-0.2-1.3-0.7c-0.3-0.4-0.4-1.1-0.4-2c0-0.5,0-0.9,0.1-1.2
		c0.1-0.3,0.2-0.6,0.4-0.9c0.2-0.2,0.3-0.4,0.5-0.5C111.2,191.8,111.5,191.8,111.7,191.8L111.7,191.8z"/>
	<path class="st34" d="M116.1,191.8c0.3,0,0.6,0,0.8,0.1c0.2,0.1,0.4,0.2,0.5,0.4c0.1,0.2,0.2,0.4,0.2,0.6c0,0.2,0,0.4-0.1,0.6
		s-0.2,0.3-0.4,0.4c-0.2,0.1-0.4,0.2-0.6,0.4v0c0.2,0,0.3,0.1,0.5,0.1s0.3,0.2,0.4,0.3c0.1,0.1,0.2,0.2,0.3,0.4
		c0.1,0.2,0.1,0.3,0.1,0.5c0,0.3-0.1,0.6-0.2,0.8c-0.1,0.2-0.3,0.4-0.6,0.6c-0.3,0.1-0.6,0.2-1,0.2c-0.2,0-0.5,0-0.7-0.1
		c-0.3-0.1-0.5-0.1-0.7-0.2v-0.8h0.5c0.1,0.3,0.2,0.5,0.4,0.6c0.1,0.1,0.4,0.2,0.6,0.2c0.3,0,0.6-0.1,0.8-0.3
		c0.2-0.2,0.3-0.5,0.3-0.8c0-0.4-0.1-0.7-0.3-0.9c-0.2-0.2-0.6-0.3-1-0.3h-0.4v-0.3c0.4,0,0.6-0.1,0.9-0.2c0.2-0.1,0.4-0.3,0.5-0.4
		c0.1-0.2,0.2-0.4,0.2-0.6c0-0.3-0.1-0.5-0.2-0.7c-0.2-0.2-0.4-0.2-0.7-0.2c-0.2,0-0.4,0.1-0.6,0.2s-0.3,0.3-0.3,0.6h-0.5v-0.7
		c0.3-0.1,0.6-0.2,0.8-0.3S115.9,191.8,116.1,191.8L116.1,191.8z"/>
	<path class="st34" d="M118.6,191.5c0.8,0.2,1.3,0.6,1.8,1.3s0.6,1.5,0.6,2.4c0,0.9-0.2,1.7-0.6,2.4c-0.4,0.7-1,1.1-1.8,1.3
		l-0.1-0.3c0.6-0.2,1-0.6,1.3-1.2c0.3-0.6,0.4-1.3,0.4-2.3c0-0.9-0.1-1.6-0.4-2.2c-0.3-0.6-0.7-1-1.4-1.2L118.6,191.5z"/>
</g>
</svg>
