<?xml version="1.0" encoding="utf-8"?>
<!-- Generator: Adobe Illustrator 23.0.2, SVG Export Plug-In . SVG Version: 6.00 Build 0)  -->
<svg version="1.0" id="Layer_1" xmlns="http://www.w3.org/2000/svg" xmlns:xlink="http://www.w3.org/1999/xlink" x="0px" y="0px"
	 viewBox="0 0 220 220" style="enable-background:new 0 0 220 220;" xml:space="preserve">
<style type="text/css">
	.st0{fill:none;stroke:#000000;stroke-width:1.2716;stroke-miterlimit:8;}
	.st1{fill-rule:evenodd;clip-rule:evenodd;}
	.st2{clip-path:url(#SVGID_2_);fill:none;stroke:#000000;stroke-width:1.2716;stroke-miterlimit:8;}
	.st3{clip-path:url(#SVGID_2_);fill-rule:evenodd;clip-rule:evenodd;}
	.st4{clip-path:url(#SVGID_2_);}
	.st5{clip-path:url(#SVGID_4_);fill-rule:evenodd;clip-rule:evenodd;}
	.st6{clip-path:url(#SVGID_4_);}
	.st7{clip-path:url(#SVGID_6_);fill-rule:evenodd;clip-rule:evenodd;}
	.st8{clip-path:url(#SVGID_6_);}
	.st9{clip-path:url(#SVGID_8_);fill-rule:evenodd;clip-rule:evenodd;}
	.st10{clip-path:url(#SVGID_8_);}
	.st11{clip-path:url(#SVGID_10_);fill-rule:evenodd;clip-rule:evenodd;}
	.st12{clip-path:url(#SVGID_10_);}
	.st13{clip-path:url(#SVGID_12_);fill-rule:evenodd;clip-rule:evenodd;}
	.st14{clip-path:url(#SVGID_12_);}
	.st15{clip-path:url(#SVGID_14_);fill-rule:evenodd;clip-rule:evenodd;}
	.st16{clip-path:url(#SVGID_14_);}
	.st17{clip-path:url(#SVGID_16_);fill-rule:evenodd;clip-rule:evenodd;}
	.st18{clip-path:url(#SVGID_16_);}
	.st19{clip-path:url(#SVGID_18_);fill-rule:evenodd;clip-rule:evenodd;fill:#0303C3;}
	.st20{clip-path:url(#SVGID_18_);}
	.st21{clip-path:url(#SVGID_20_);fill-rule:evenodd;clip-rule:evenodd;fill:#0303C3;}
	.st22{clip-path:url(#SVGID_20_);}
	.st23{clip-path:url(#SVGID_22_);fill-rule:evenodd;clip-rule:evenodd;fill:#0303C3;}
	.st24{clip-path:url(#SVGID_22_);}
	.st25{clip-path:url(#SVGID_24_);fill-rule:evenodd;clip-rule:evenodd;fill:#0303C3;}
	.st26{clip-path:url(#SVGID_24_);}
	.st27{clip-path:url(#SVGID_26_);fill-rule:evenodd;clip-rule:evenodd;fill:#0303C3;}
	.st28{clip-path:url(#SVGID_26_);}
	.st29{clip-path:url(#SVGID_28_);fill-rule:evenodd;clip-rule:evenodd;fill:#0303C3;}
	.st30{clip-path:url(#SVGID_28_);}
	.st31{clip-path:url(#SVGID_30_);fill-rule:evenodd;clip-rule:evenodd;fill:#0303C3;}
	.st32{clip-path:url(#SVGID_30_);}
	.st33{clip-path:url(#SVGID_32_);fill-rule:evenodd;clip-rule:evenodd;fill:#0303C3;}
	.st34{clip-path:url(#SVGID_32_);}
	.st35{clip-path:url(#SVGID_34_);fill-rule:evenodd;clip-rule:evenodd;fill:#0303C3;}
	.st36{clip-path:url(#SVGID_34_);}
	.st37{clip-path:url(#SVGID_36_);fill:none;stroke:#0303C3;stroke-width:1.2716;stroke-miterlimit:8;}
</style>
<g>
	<line class="st0" x1="7.2" y1="179.7" x2="205.4" y2="179.7"/>
	<polygon class="st1" points="204.7,177.8 208.5,179.7 204.7,181.6 204.7,177.8 	"/>
	<g>
		<defs>
			<polygon id="SVGID_1_" points="1,214.2 219.1,214.2 219.1,7.7 1,7.7 1,214.2 			"/>
		</defs>
		<clipPath id="SVGID_2_">
			<use xlink:href="#SVGID_1_"  style="overflow:visible;"/>
		</clipPath>
		<line class="st2" x1="16.9" y1="189.8" x2="16.9" y2="24.2"/>
		<polygon class="st3" points="18.8,24.8 16.9,21 15,24.8 18.8,24.8 		"/>
		<g class="st4">
			<defs>
				<polygon id="SVGID_3_" points="1,214.2 219.1,214.2 219.1,7.7 1,7.7 1,214.2 				"/>
			</defs>
			<clipPath id="SVGID_4_">
				<use xlink:href="#SVGID_3_"  style="overflow:visible;"/>
			</clipPath>
			<path class="st5" d="M6.6,16.3c0.2,0,0.4,0,0.5,0.1c0.1,0,0.2,0.1,0.3,0.2c0.1,0.1,0.2,0.2,0.3,0.4c0.1,0.2,0.1,0.3,0.2,0.6
				C7.9,17.7,8,18,8.1,18.4c0.1,0.6,0.2,1.3,0.3,2c0.1,0.7,0.2,1.4,0.3,2c0.5-0.7,0.9-1.4,1.2-2c0.3-0.7,0.6-1.2,0.7-1.7
				c0.1-0.5,0.2-0.9,0.2-1.2c0-0.2,0-0.4-0.1-0.5c-0.1-0.1-0.3-0.1-0.5-0.1l0.1-0.4h2l0.2,0.4c-0.4,1-0.9,2.1-1.5,3.3
				c-0.6,1.2-1.4,2.3-2.2,3.4c-0.8,1.1-1.4,1.9-2,2.4c-0.4,0.3-0.7,0.6-1.1,0.7c-0.3,0.1-0.6,0.2-0.9,0.2c-0.1,0-0.2,0-0.4,0
				c-0.1,0-0.2,0-0.3-0.1l0.3-1.4h0.6c0,0.3,0.1,0.5,0.3,0.5c0.3,0,0.6-0.2,1-0.5c0.4-0.4,0.8-0.9,1.3-1.6c-0.1-0.9-0.3-1.9-0.6-3.1
				c-0.3-1.3-0.4-2.1-0.5-2.4c-0.1-0.4-0.2-0.6-0.3-0.7c-0.1-0.1-0.2-0.1-0.3-0.1c-0.2,0-0.3,0.1-0.4,0.2c-0.1,0.1-0.3,0.4-0.5,0.7
				l-0.5-0.3c0.3-0.5,0.7-0.9,1-1.1S6.2,16.3,6.6,16.3L6.6,16.3z"/>
			<g class="st6">
				<defs>
					<polygon id="SVGID_5_" points="1,214.2 219.1,214.2 219.1,7.7 1,7.7 1,214.2 					"/>
				</defs>
				<clipPath id="SVGID_6_">
					<use xlink:href="#SVGID_5_"  style="overflow:visible;"/>
				</clipPath>
				<path class="st7" d="M206.8,184.5c0.2,0,0.3,0,0.4,0.1c0.1,0,0.2,0.1,0.3,0.2c0.1,0.1,0.2,0.2,0.2,0.3s0.1,0.3,0.2,0.5
					c0.1,0.2,0.1,0.4,0.2,0.7c0.1,0.3,0.1,0.6,0.2,0.9h0.1c0.5-0.7,0.8-1.2,1.1-1.5s0.5-0.5,0.6-0.7c0.2-0.2,0.3-0.3,0.5-0.3
					s0.4-0.1,0.6-0.1c0.2,0,0.4,0,0.6,0.1l-0.3,1.3h-0.5c0-0.2-0.1-0.3-0.3-0.3c0,0-0.1,0-0.1,0c0,0-0.1,0-0.2,0.1s-0.2,0.1-0.3,0.3
					c-0.1,0.1-0.3,0.3-0.5,0.5c-0.2,0.2-0.4,0.4-0.5,0.7l-0.5,0.6c0.1,0.5,0.2,0.9,0.3,1.2c0.1,0.3,0.2,0.6,0.2,0.9s0.1,0.4,0.2,0.5
					c0,0.1,0.1,0.2,0.2,0.3c0.1,0.1,0.1,0.1,0.2,0.1c0.1,0,0.1,0,0.2,0c0.1,0,0.3-0.1,0.4-0.2s0.3-0.3,0.5-0.7l0.5,0.3
					c-0.3,0.5-0.7,0.9-0.9,1.1c-0.3,0.2-0.6,0.3-1,0.3c-0.2,0-0.4,0-0.5-0.1c-0.1-0.1-0.3-0.2-0.4-0.4c-0.1-0.2-0.2-0.4-0.3-0.8
					c-0.2-0.6-0.2-1.1-0.3-1.5h-0.1c-0.5,0.7-0.9,1.3-1.2,1.6c-0.3,0.3-0.5,0.6-0.6,0.7s-0.3,0.3-0.5,0.3c-0.2,0.1-0.4,0.1-0.6,0.1
					c-0.2,0-0.4,0-0.6-0.1l0.3-1.3h0.5c0,0.2,0.1,0.3,0.3,0.3c0.1,0,0.1,0,0.2-0.1c0.1,0,0.2-0.1,0.3-0.3c0.1-0.1,0.3-0.4,0.6-0.7
					c0.3-0.3,0.6-0.8,1.1-1.4c-0.1-0.4-0.2-0.8-0.2-1.1c-0.1-0.4-0.2-0.7-0.2-1s-0.2-0.5-0.2-0.6c-0.1-0.1-0.1-0.2-0.2-0.2
					c-0.1,0-0.1-0.1-0.2-0.1c-0.1,0-0.2,0-0.3,0.1c-0.1,0-0.2,0.1-0.3,0.2c-0.1,0.1-0.2,0.3-0.4,0.5l-0.5-0.3
					c0.3-0.5,0.6-0.8,0.9-1.1C206,184.6,206.4,184.5,206.8,184.5L206.8,184.5z"/>
				<g class="st8">
					<defs>
						<polygon id="SVGID_7_" points="1,214.2 219.1,214.2 219.1,7.7 1,7.7 1,214.2 						"/>
					</defs>
					<clipPath id="SVGID_8_">
						<use xlink:href="#SVGID_7_"  style="overflow:visible;"/>
					</clipPath>
					<path class="st9" d="M9,185.1c-0.5,0-1,0.2-1.4,0.6c-0.4,0.4-0.7,1.1-0.9,1.9c-0.2,0.8-0.3,1.5-0.3,2.1c0,0.5,0.1,0.9,0.3,1.2
						c0.2,0.3,0.6,0.4,1,0.4c0.5,0,0.9-0.2,1.3-0.7s0.7-1,0.9-1.8s0.3-1.5,0.3-2.1c0-0.5-0.1-0.9-0.3-1.2S9.5,185.1,9,185.1L9,185.1
						z M9.2,184.5c0.8,0,1.4,0.2,1.8,0.7c0.4,0.4,0.6,1.1,0.6,1.9c0,0.6-0.1,1.2-0.3,1.8c-0.2,0.7-0.5,1.2-0.8,1.7
						c-0.4,0.4-0.8,0.8-1.3,1c-0.5,0.2-1,0.3-1.7,0.3c-0.8,0-1.4-0.2-1.8-0.6c-0.4-0.4-0.6-1.1-0.6-1.9c0-0.4,0.1-0.9,0.2-1.4
						c0.2-0.7,0.4-1.3,0.8-1.8c0.4-0.5,0.8-0.9,1.3-1.2S8.5,184.5,9.2,184.5L9.2,184.5z"/>
					<g class="st10">
						<defs>
							<polygon id="SVGID_9_" points="1,214.2 219.1,214.2 219.1,7.7 1,7.7 1,214.2 							"/>
						</defs>
						<clipPath id="SVGID_10_">
							<use xlink:href="#SVGID_9_"  style="overflow:visible;"/>
						</clipPath>
						<path class="st11" d="M114.1,205.5c-0.3,0-0.7,0.2-1,0.5c-0.3,0.3-0.5,0.8-0.7,1.4c0.5,0,0.9,0,1.2-0.1s0.6-0.2,0.8-0.4
							c0.2-0.2,0.3-0.4,0.3-0.7c0-0.2,0-0.4-0.1-0.5S114.3,205.5,114.1,205.5L114.1,205.5z M97.8,205.5c-0.3,0-0.6,0.1-0.9,0.4
							c-0.3,0.3-0.5,0.6-0.6,1.1c-0.2,0.5-0.2,0.9-0.2,1.4c0,0.3,0,0.6,0.1,0.8c0.1,0.2,0.3,0.3,0.5,0.3c0.2,0,0.3-0.1,0.5-0.2
							c0.2-0.1,0.3-0.3,0.5-0.6c0.2-0.3,0.3-0.5,0.4-0.7s0.2-0.5,0.3-0.9c0.1-0.3,0.1-0.6,0.1-0.9c0-0.3-0.1-0.4-0.2-0.6
							C98.3,205.5,98.1,205.5,97.8,205.5L97.8,205.5z M92.9,205.1h0.3l-0.7,3.2c-0.1,0.3-0.1,0.6-0.1,0.7c0,0.1,0,0.2,0.1,0.3
							c0,0.1,0.1,0.1,0.2,0.1c0.1,0,0.2,0,0.3-0.1s0.3-0.2,0.5-0.5l0.3,0.3c-0.3,0.3-0.6,0.6-0.8,0.7c-0.2,0.1-0.4,0.2-0.7,0.2
							c-0.2,0-0.4-0.1-0.5-0.2c-0.1-0.2-0.2-0.4-0.2-0.6c0-0.3,0-0.6,0.1-1l0.4-1.6c0.1-0.3,0.1-0.6,0.1-0.7c0-0.1,0-0.3-0.1-0.3
							c-0.1-0.1-0.2-0.1-0.4-0.1l0.1-0.3L92.9,205.1L92.9,205.1z M114.3,205.1c0.4,0,0.7,0.1,0.9,0.2c0.2,0.2,0.3,0.4,0.3,0.8
							c0,0.6-0.3,1-0.8,1.3c-0.5,0.3-1.3,0.4-2.4,0.4c0,0.2-0.1,0.4-0.1,0.6c0,0.3,0.1,0.6,0.2,0.8s0.4,0.2,0.7,0.2
							c0.3,0,0.6-0.1,0.8-0.2c0.2-0.1,0.5-0.3,0.8-0.6l0.3,0.3c-0.3,0.4-0.6,0.6-1,0.8c-0.3,0.2-0.7,0.3-1.1,0.3
							c-0.5,0-0.9-0.1-1.1-0.4c-0.3-0.3-0.4-0.7-0.4-1.2c0-0.4,0.1-0.7,0.2-1.1c0.1-0.4,0.3-0.8,0.6-1.1s0.6-0.6,0.9-0.8
							C113.5,205.2,113.9,205.1,114.3,205.1L114.3,205.1z M107.7,205.1c0.2,0,0.4,0.1,0.5,0.2s0.2,0.3,0.2,0.5c0,0.2,0,0.3-0.1,0.5
							l0.1,0c0.3-0.4,0.6-0.8,0.9-1c0.3-0.2,0.6-0.3,0.9-0.3c0.2,0,0.4,0,0.6,0.1l-0.2,1.1H110c0-0.1,0-0.2-0.1-0.3
							c0-0.1-0.1-0.1-0.1-0.2c0,0-0.1,0-0.2,0c-0.1,0-0.2,0.1-0.4,0.2c-0.1,0.1-0.3,0.3-0.5,0.5c-0.2,0.2-0.3,0.4-0.4,0.6
							c-0.1,0.2-0.2,0.5-0.3,0.8l-0.5,2.2h-0.9l0.7-3.1c0-0.2,0.1-0.4,0.1-0.5c0-0.1,0-0.2,0-0.3c0-0.1,0-0.2-0.1-0.3
							c0-0.1-0.1-0.1-0.2-0.1c-0.1,0-0.2,0-0.3,0.1s-0.3,0.2-0.5,0.5l-0.3-0.3c0.3-0.3,0.6-0.5,0.8-0.7
							C107.2,205.1,107.4,205.1,107.7,205.1L107.7,205.1z M101.8,205.1c0.2,0,0.4,0.1,0.5,0.2c0.1,0.1,0.2,0.3,0.2,0.6
							c0,0.3-0.1,0.6-0.2,1l-0.2,0.9c-0.1,0.2-0.1,0.4-0.1,0.5c0,0.1,0,0.2-0.1,0.3c0,0.1,0,0.2,0,0.2c0,0.2,0,0.4,0.1,0.5
							c0.1,0.1,0.2,0.2,0.4,0.2c0.1,0,0.3-0.1,0.4-0.2s0.3-0.3,0.5-0.5c0.2-0.2,0.3-0.4,0.4-0.7s0.2-0.5,0.3-0.8l0.5-2.2h0.9
							l-0.7,3.1c-0.1,0.3-0.1,0.6-0.1,0.7c0,0.1,0,0.2,0.1,0.3c0,0.1,0.1,0.1,0.2,0.1c0.1,0,0.2,0,0.3-0.1s0.3-0.2,0.5-0.5l0.3,0.3
							c-0.3,0.3-0.6,0.5-0.8,0.7c-0.2,0.1-0.4,0.2-0.7,0.2c-0.2,0-0.4-0.1-0.5-0.2c-0.1-0.1-0.2-0.3-0.2-0.5c0-0.2,0-0.4,0.1-0.6
							l-0.1,0c-0.3,0.5-0.6,0.8-0.9,1c-0.3,0.2-0.6,0.3-0.9,0.3c-0.3,0-0.5-0.1-0.7-0.3c-0.2-0.2-0.2-0.4-0.2-0.7
							c0-0.2,0-0.5,0.1-0.9l0.3-1.3c0.1-0.4,0.1-0.6,0.1-0.8c0-0.1,0-0.2-0.1-0.3c0-0.1-0.1-0.1-0.2-0.1c-0.1,0-0.2,0-0.3,0.1
							s-0.3,0.2-0.5,0.5l-0.3-0.3c0.3-0.3,0.5-0.5,0.6-0.6c0.1-0.1,0.3-0.2,0.4-0.2C101.5,205.1,101.7,205.1,101.8,205.1
							L101.8,205.1z M97.8,205.1c0.2,0,0.4,0,0.6,0.1c0.2,0,0.4,0.1,0.6,0.3l0.5-0.3l0.3,0.1l-0.5,2.3c0,0.2-0.1,0.6-0.2,1.2
							c-0.1,0.7-0.2,1.2-0.3,1.5c-0.1,0.3-0.2,0.6-0.3,0.8c-0.1,0.2-0.3,0.4-0.5,0.6c-0.2,0.2-0.4,0.3-0.7,0.4
							c-0.3,0.1-0.6,0.1-1,0.1c-1.3,0-1.9-0.4-1.9-1.1c0-0.2,0.1-0.4,0.2-0.5s0.3-0.3,0.5-0.5l0.4,0.3c-0.1,0.1-0.1,0.2-0.2,0.2
							s-0.1,0.1-0.1,0.2c0,0.1,0,0.2,0,0.2c0,0.2,0.1,0.4,0.3,0.5c0.2,0.1,0.4,0.2,0.8,0.2c0.4,0,0.7-0.1,1-0.3
							c0.2-0.2,0.5-0.5,0.6-0.9c0.2-0.4,0.3-1,0.5-1.8l-0.1,0c-0.3,0.4-0.6,0.8-0.9,1s-0.6,0.3-0.9,0.3c-0.4,0-0.6-0.1-0.8-0.4
							s-0.3-0.7-0.3-1.2c0-0.6,0.1-1.1,0.3-1.6c0.2-0.5,0.5-0.9,0.9-1.2C96.8,205.2,97.3,205.1,97.8,205.1L97.8,205.1z M92.8,203.2
							h0.9l-0.2,1h-0.9L92.8,203.2L92.8,203.2z M89.9,202.8c0.3,0,0.6,0,0.8,0.1l-0.2,0.8h-0.4c0-0.2-0.1-0.3-0.2-0.4
							c-0.1-0.1-0.2-0.1-0.3-0.1c-0.2,0-0.3,0.1-0.5,0.2s-0.2,0.3-0.3,0.5c-0.1,0.2-0.2,0.5-0.3,0.8l-0.1,0.5h1.3l-0.1,0.5h-1.3
							l-0.9,4.3c-0.2,0.7-0.4,1.3-0.7,1.6s-0.7,0.5-1.2,0.5c-0.1,0-0.2,0-0.3,0l0.1-0.4c0,0,0.1,0,0.2,0c0.1,0,0.3,0,0.4-0.1
							c0.1-0.1,0.2-0.2,0.3-0.4s0.2-0.5,0.3-0.8l1.1-4.7h-0.8l0.1-0.3c0.2,0,0.4,0,0.5-0.1s0.2-0.1,0.2-0.1c0.1,0,0.1-0.1,0.1-0.2
							c0-0.1,0.1-0.2,0.1-0.4c0.2-0.6,0.4-1,0.8-1.3C88.9,202.9,89.4,202.8,89.9,202.8L89.9,202.8z"/>
						<g class="st12">
							<defs>
								<polygon id="SVGID_11_" points="1,214.2 219.1,214.2 219.1,7.7 1,7.7 1,214.2 								"/>
							</defs>
							<clipPath id="SVGID_12_">
								<use xlink:href="#SVGID_11_"  style="overflow:visible;"/>
							</clipPath>
							<path class="st13" d="M122.4,202.7l0.1,0.4c-0.8,0.3-1.3,0.8-1.7,1.5c-0.4,0.7-0.6,1.7-0.6,2.8c0,1.2,0.2,2.1,0.6,2.9
								s0.9,1.3,1.7,1.5l-0.1,0.4c-1-0.3-1.7-0.8-2.2-1.6c-0.5-0.8-0.8-1.9-0.8-3.1c0-1.2,0.3-2.2,0.8-3.1S121.4,203,122.4,202.7
								L122.4,202.7z"/>
							<g class="st14">
								<defs>
									<polygon id="SVGID_13_" points="1,214.2 219.1,214.2 219.1,7.7 1,7.7 1,214.2 									"/>
								</defs>
								<clipPath id="SVGID_14_">
									<use xlink:href="#SVGID_13_"  style="overflow:visible;"/>
								</clipPath>
								<path class="st15" d="M125.5,203.5c-0.2,0-0.4,0.1-0.6,0.2c-0.2,0.1-0.3,0.3-0.4,0.6c-0.1,0.3-0.2,0.6-0.2,0.9
									c0,0.4-0.1,0.8-0.1,1.2c0,1.1,0.1,1.9,0.3,2.4s0.5,0.8,0.9,0.8c0.4,0,0.7-0.2,0.9-0.7c0.2-0.5,0.3-1.2,0.3-2.2
									c0-0.8,0-1.4-0.1-1.9c-0.1-0.5-0.2-0.8-0.4-1C126,203.6,125.7,203.5,125.5,203.5L125.5,203.5z M131.5,203.1h0.3
									c0,0.3,0,0.8,0,1.3v4.2c0,0.2,0,0.3,0,0.4c0,0.1,0.1,0.2,0.1,0.2c0.1,0.1,0.1,0.1,0.2,0.1c0.1,0,0.2,0.1,0.4,0.1
									c0.2,0,0.4,0,0.6,0v0.4h-3.7v-0.4c0.4,0,0.6,0,0.8-0.1c0.2,0,0.3-0.1,0.4-0.1c0.1-0.1,0.1-0.1,0.2-0.2
									c0-0.1,0.1-0.3,0.1-0.5v-4c0-0.1,0-0.2-0.1-0.3c0-0.1-0.1-0.1-0.2-0.1c-0.1,0-0.3,0.1-0.5,0.2c-0.2,0.1-0.4,0.3-0.7,0.5
									l-0.2-0.4L131.5,203.1L131.5,203.1z M125.5,203.1c0.7,0,1.3,0.3,1.6,0.8c0.4,0.6,0.5,1.4,0.5,2.5c0,1.2-0.2,2.1-0.6,2.7
									s-0.9,0.9-1.7,0.9c-0.7,0-1.2-0.3-1.6-0.8c-0.3-0.6-0.5-1.4-0.5-2.6c0-0.6,0.1-1.1,0.2-1.6c0.1-0.4,0.3-0.8,0.5-1.1
									c0.2-0.3,0.4-0.5,0.7-0.6C124.9,203.1,125.2,203.1,125.5,203.1L125.5,203.1z"/>
								<g class="st16">
									<defs>
										<polygon id="SVGID_15_" points="1,214.2 219.1,214.2 219.1,7.7 1,7.7 1,214.2 										"/>
									</defs>
									<clipPath id="SVGID_16_">
										<use xlink:href="#SVGID_15_"  style="overflow:visible;"/>
									</clipPath>
									<path class="st17" d="M134.2,202.7c1,0.3,1.7,0.8,2.2,1.7c0.5,0.8,0.8,1.9,0.8,3.1c0,1.2-0.3,2.2-0.8,3.1
										c-0.5,0.8-1.3,1.4-2.2,1.6l-0.1-0.4c0.8-0.3,1.3-0.8,1.7-1.5s0.6-1.7,0.6-2.9c0-1.1-0.2-2-0.6-2.8
										c-0.4-0.7-0.9-1.2-1.7-1.5L134.2,202.7z"/>
									<g class="st18">
										<defs>
											<polygon id="SVGID_17_" points="1,214.2 219.1,214.2 219.1,7.7 1,7.7 1,214.2 											"/>
										</defs>
										<clipPath id="SVGID_18_">
											<use xlink:href="#SVGID_17_"  style="overflow:visible;"/>
										</clipPath>
										<path class="st19" d="M164.9,65.1c-0.3,0-0.5,0.1-0.7,0.4c-0.2,0.3-0.4,0.6-0.5,1c0.4,0,0.7,0,0.9-0.1
											c0.3-0.1,0.4-0.2,0.6-0.3c0.1-0.1,0.2-0.3,0.2-0.5c0-0.2,0-0.3-0.1-0.4C165.1,65.1,165,65.1,164.9,65.1L164.9,65.1z
											 M165,64.8c0.3,0,0.5,0.1,0.7,0.2c0.2,0.1,0.2,0.3,0.2,0.6c0,0.4-0.2,0.7-0.6,0.9c-0.4,0.2-1,0.3-1.8,0.3
											c0,0.1,0,0.3,0,0.5c0,0.3,0.1,0.5,0.2,0.6c0.1,0.1,0.3,0.2,0.5,0.2c0.2,0,0.4,0,0.6-0.1c0.2-0.1,0.4-0.3,0.6-0.5l0.2,0.2
											c-0.2,0.3-0.5,0.5-0.7,0.6c-0.2,0.1-0.5,0.2-0.9,0.2c-0.4,0-0.6-0.1-0.8-0.3c-0.2-0.2-0.3-0.5-0.3-0.9
											c0-0.3,0-0.6,0.1-0.9c0.1-0.3,0.2-0.6,0.4-0.8c0.2-0.2,0.4-0.4,0.7-0.6C164.4,64.9,164.7,64.8,165,64.8L165,64.8z
											 M154.3,63.4h3.9l-0.3,1.3h-0.4c0-0.2,0-0.4,0-0.5c0-0.1,0-0.2-0.1-0.3c0-0.1-0.1-0.1-0.1-0.1s-0.1,0-0.3,0h-0.6l-0.8,3.7
											c0,0.1,0,0.2,0,0.2c0,0.1,0,0.1,0,0.2s0,0.1,0,0.2c0,0.1,0,0.1,0,0.2c0,0,0.1,0.1,0.1,0.1c0,0,0.1,0,0.3,0l0,0.2h-1.6
											l0-0.2c0.1,0,0.2,0,0.2-0.1c0,0,0.1-0.1,0.1-0.1s0.1-0.1,0.1-0.2c0-0.1,0.1-0.3,0.1-0.5l0.8-3.6h-0.5
											c-0.2,0-0.3,0-0.4,0.1s-0.2,0.1-0.3,0.2c-0.1,0.1-0.2,0.3-0.3,0.6H154L154.3,63.4L154.3,63.4z M160.2,63.1h0.2l-0.6,2.6
											l0,0c0.2-0.3,0.5-0.5,0.7-0.7s0.4-0.2,0.6-0.2c0.2,0,0.4,0.1,0.5,0.2c0.1,0.1,0.2,0.3,0.2,0.6c0,0.2,0,0.4-0.1,0.7l-0.2,1
											c-0.1,0.3-0.1,0.5-0.1,0.6c0,0.1,0,0.2,0,0.2c0,0,0.1,0.1,0.2,0.1c0.1,0,0.2,0,0.2-0.1s0.2-0.2,0.4-0.3l0.2,0.2
											c-0.2,0.3-0.4,0.4-0.6,0.5c-0.2,0.1-0.3,0.1-0.5,0.1c-0.2,0-0.3-0.1-0.4-0.2s-0.1-0.3-0.1-0.4c0-0.2,0-0.4,0.1-0.7
											l0.2-0.6c0.1-0.2,0.1-0.4,0.1-0.5s0-0.2,0-0.3c0-0.2,0-0.3-0.1-0.4c-0.1-0.1-0.2-0.1-0.3-0.1c-0.1,0-0.2,0-0.3,0.1
											c-0.1,0.1-0.3,0.2-0.4,0.4c-0.1,0.2-0.2,0.3-0.3,0.5c-0.1,0.2-0.1,0.3-0.2,0.6l-0.3,1.6h-0.6l1-4.3
											c0.1-0.3,0.1-0.4,0.1-0.6c0-0.1,0-0.2-0.1-0.2c-0.1,0-0.2-0.1-0.3-0.1l0-0.2L160.2,63.1L160.2,63.1z"/>
										<g class="st20">
											<defs>
												<polygon id="SVGID_19_" points="1,214.2 219.1,214.2 219.1,7.7 1,7.7 1,214.2 												"/>
											</defs>
											<clipPath id="SVGID_20_">
												<use xlink:href="#SVGID_19_"  style="overflow:visible;"/>
											</clipPath>
											<path class="st21" d="M183.4,65.3c-0.1,0-0.3,0-0.4,0.1c-0.1,0.1-0.3,0.2-0.4,0.4c-0.1,0.2-0.3,0.4-0.3,0.6
												c-0.1,0.2-0.1,0.4-0.2,0.6l0,0.2c0,0.1,0,0.2,0,0.3c0,0.1,0,0.1,0,0.2c0,0.2,0,0.3,0.1,0.4c0.1,0.1,0.2,0.1,0.4,0.1
												c0.1,0,0.2,0,0.4-0.1c0.1,0,0.2-0.1,0.3-0.2c0.1-0.1,0.2-0.2,0.3-0.3c0.1-0.1,0.1-0.3,0.2-0.5c0.1-0.2,0.1-0.4,0.1-0.5
												c0-0.2,0-0.4,0-0.5c0-0.3,0-0.5-0.1-0.6C183.7,65.3,183.6,65.3,183.4,65.3L183.4,65.3z M178.8,65.1
												c-0.3,0-0.5,0.1-0.7,0.3c-0.2,0.2-0.4,0.5-0.5,0.8s-0.2,0.7-0.2,1c0,0.3,0,0.5,0.1,0.6c0.1,0.1,0.2,0.2,0.4,0.2
												c0.2,0,0.3-0.1,0.5-0.2c0.2-0.1,0.3-0.3,0.5-0.6c0.2-0.3,0.3-0.6,0.4-0.9l0-0.2c0-0.1,0-0.2,0-0.3c0-0.1,0-0.2,0-0.2
												c0-0.2,0-0.3-0.1-0.4C179.1,65.2,179,65.1,178.8,65.1L178.8,65.1z M171,65.1c-0.3,0-0.5,0.1-0.7,0.3
												c-0.2,0.2-0.4,0.5-0.5,0.8c-0.1,0.3-0.2,0.7-0.2,1c0,0.3,0,0.5,0.1,0.6c0.1,0.1,0.2,0.2,0.4,0.2c0.1,0,0.3,0,0.4-0.1
												c0.1-0.1,0.3-0.2,0.4-0.4c0.1-0.2,0.3-0.4,0.3-0.5c0.1-0.2,0.1-0.4,0.2-0.6c0.1-0.3,0.1-0.5,0.1-0.7c0-0.2,0-0.3-0.1-0.4
												S171.2,65.1,171,65.1L171,65.1z M181.9,64.8c0.2,0,0.3,0.1,0.4,0.2c0.1,0.1,0.1,0.2,0.1,0.4c0,0.1,0,0.3-0.1,0.4l0,0
												c0.5-0.7,0.9-1,1.4-1c0.3,0,0.5,0.1,0.6,0.3c0.2,0.2,0.2,0.5,0.2,0.9c0,0.4-0.1,0.8-0.2,1.2c-0.2,0.4-0.4,0.7-0.7,0.9
												s-0.6,0.3-1,0.3c-0.3,0-0.6-0.1-0.8-0.2l-0.2,0.8c0,0.2-0.1,0.3-0.1,0.4c0,0.1,0,0.2,0.1,0.2s0.2,0.1,0.3,0.1l0,0.2h-1.2
												l0.9-4c0.1-0.2,0.1-0.4,0.1-0.6c0-0.1,0-0.2,0-0.2c0,0-0.1-0.1-0.2-0.1c-0.1,0-0.2,0-0.2,0.1c-0.1,0.1-0.2,0.2-0.4,0.3
												l-0.2-0.2c0.2-0.2,0.4-0.4,0.6-0.5C181.5,64.9,181.7,64.8,181.9,64.8L181.9,64.8z M178.7,64.8c0.2,0,0.3,0,0.5,0.1
												s0.3,0.1,0.4,0.2l0.3-0.2l0.2,0.1l-0.5,2.4c-0.1,0.2-0.1,0.4-0.1,0.6c0,0.1,0,0.2,0,0.2c0,0,0.1,0.1,0.2,0.1
												c0.1,0,0.2,0,0.2-0.1c0.1-0.1,0.2-0.2,0.4-0.3l0.2,0.2c-0.2,0.2-0.4,0.4-0.6,0.5c-0.2,0.1-0.3,0.2-0.5,0.2
												c-0.2,0-0.3-0.1-0.4-0.2c-0.1-0.1-0.1-0.2-0.1-0.4c0-0.1,0-0.3,0.1-0.4l0,0c-0.2,0.3-0.5,0.6-0.7,0.8
												c-0.2,0.2-0.4,0.2-0.7,0.2c-0.3,0-0.5-0.1-0.6-0.3c-0.2-0.2-0.2-0.5-0.2-0.9c0-0.4,0.1-0.8,0.3-1.2
												c0.2-0.4,0.4-0.7,0.7-0.9C178,64.9,178.4,64.8,178.7,64.8L178.7,64.8z M174,64.8c0.2,0,0.3,0.1,0.4,0.2
												c0.1,0.1,0.1,0.2,0.1,0.4c0,0.1,0,0.3-0.1,0.4l0,0c0.2-0.3,0.5-0.6,0.7-0.7c0.2-0.2,0.5-0.2,0.7-0.2c0.2,0,0.3,0,0.5,0
												l-0.2,0.8h-0.4c0-0.1,0-0.2-0.1-0.2c0-0.1-0.1-0.1-0.1-0.1c0,0-0.1,0-0.1,0c-0.1,0-0.2,0-0.3,0.1
												c-0.1,0.1-0.2,0.2-0.4,0.4c-0.1,0.2-0.2,0.3-0.3,0.5c-0.1,0.2-0.1,0.3-0.2,0.6l-0.4,1.6h-0.6l0.5-2.4
												c0-0.1,0.1-0.3,0.1-0.3s0-0.2,0-0.2c0-0.1,0-0.2,0-0.2c0,0-0.1-0.1-0.2-0.1c-0.1,0-0.2,0-0.2,0.1
												c-0.1,0.1-0.2,0.2-0.4,0.3l-0.2-0.2c0.2-0.2,0.4-0.4,0.6-0.5C173.6,64.9,173.8,64.8,174,64.8L174,64.8z M170.9,64.8
												c0.2,0,0.3,0,0.4,0.1c0.1,0,0.3,0.1,0.4,0.2l0.3-0.2l0.2,0.1l-0.4,1.7c0,0.1-0.1,0.4-0.2,0.9c-0.1,0.5-0.2,0.9-0.2,1.1
												c-0.1,0.2-0.1,0.4-0.2,0.6s-0.2,0.3-0.4,0.5c-0.1,0.1-0.3,0.2-0.5,0.3s-0.5,0.1-0.8,0.1c-0.9,0-1.4-0.3-1.4-0.8
												c0-0.1,0-0.3,0.1-0.4c0.1-0.1,0.2-0.2,0.4-0.4l0.3,0.2c0,0.1-0.1,0.1-0.1,0.2c0,0.1-0.1,0.1-0.1,0.2s0,0.1,0,0.2
												c0,0.2,0.1,0.3,0.2,0.4c0.1,0.1,0.3,0.1,0.6,0.1c0.3,0,0.6-0.1,0.7-0.2c0.2-0.1,0.3-0.4,0.5-0.7c0.1-0.3,0.3-0.8,0.4-1.4
												l-0.1,0c-0.2,0.3-0.5,0.6-0.7,0.7s-0.4,0.2-0.7,0.2c-0.3,0-0.5-0.1-0.6-0.3s-0.2-0.5-0.2-0.9c0-0.4,0.1-0.8,0.2-1.2
												c0.2-0.4,0.4-0.7,0.7-0.9C170.2,64.9,170.5,64.8,170.9,64.8L170.9,64.8z M186.9,63.1h0.2l-0.6,2.6l0,0
												c0.2-0.3,0.5-0.5,0.7-0.7c0.2-0.1,0.4-0.2,0.6-0.2c0.2,0,0.4,0.1,0.5,0.2c0.1,0.1,0.2,0.3,0.2,0.6c0,0.2,0,0.4-0.1,0.7
												l-0.2,1c-0.1,0.3-0.1,0.5-0.1,0.6c0,0.1,0,0.2,0,0.2c0,0,0.1,0.1,0.2,0.1c0.1,0,0.2,0,0.2-0.1s0.2-0.2,0.4-0.3l0.2,0.2
												c-0.2,0.3-0.4,0.4-0.6,0.5c-0.2,0.1-0.3,0.1-0.5,0.1c-0.2,0-0.3-0.1-0.4-0.2c-0.1-0.1-0.1-0.3-0.1-0.4
												c0-0.2,0-0.4,0.1-0.7l0.2-0.6c0.1-0.2,0.1-0.4,0.1-0.5s0-0.2,0-0.3c0-0.2,0-0.3-0.1-0.4c-0.1-0.1-0.2-0.1-0.3-0.1
												c-0.1,0-0.2,0-0.3,0.1c-0.1,0.1-0.3,0.2-0.4,0.4s-0.2,0.3-0.3,0.5c-0.1,0.2-0.1,0.3-0.2,0.6l-0.3,1.6h-0.6l1-4.3
												c0.1-0.3,0.1-0.4,0.1-0.6c0-0.1,0-0.2-0.1-0.2s-0.2-0.1-0.3-0.1l0-0.2L186.9,63.1L186.9,63.1z"/>
											<g class="st22">
												<defs>
													<polygon id="SVGID_21_" points="1,214.2 219.1,214.2 219.1,7.7 1,7.7 1,214.2 													"/>
												</defs>
												<clipPath id="SVGID_22_">
													<use xlink:href="#SVGID_21_"  style="overflow:visible;"/>
												</clipPath>
												<path class="st23" d="M193.3,65.1c-0.3,0-0.5,0.1-0.7,0.3c-0.2,0.2-0.3,0.5-0.5,0.9c-0.1,0.4-0.2,0.7-0.2,1
													c0,0.3,0.1,0.5,0.2,0.6c0.1,0.1,0.3,0.2,0.5,0.2c0.2,0,0.5-0.1,0.6-0.3c0.2-0.2,0.3-0.5,0.4-0.9c0.1-0.4,0.2-0.7,0.2-1
													c0-0.3-0.1-0.5-0.2-0.6S193.5,65.1,193.3,65.1L193.3,65.1z M193.4,64.8c0.4,0,0.7,0.1,0.9,0.3s0.3,0.5,0.3,0.9
													c0,0.3-0.1,0.6-0.2,0.9s-0.2,0.6-0.4,0.8c-0.2,0.2-0.4,0.4-0.6,0.5c-0.2,0.1-0.5,0.2-0.8,0.2c-0.4,0-0.7-0.1-0.9-0.3
													s-0.3-0.5-0.3-0.9c0-0.2,0-0.4,0.1-0.7c0.1-0.4,0.2-0.7,0.4-0.9c0.2-0.3,0.4-0.5,0.7-0.6
													C192.8,64.9,193.1,64.8,193.4,64.8L193.4,64.8z M198.5,63.1c0.2,0,0.5,0,0.6,0.1l-0.1,0.6h-0.3c0-0.1-0.1-0.2-0.1-0.3
													s-0.1-0.1-0.2-0.1c-0.1,0-0.3,0-0.4,0.1s-0.2,0.2-0.3,0.3c-0.1,0.2-0.1,0.4-0.2,0.6l-0.1,0.4h1l-0.1,0.4h-1l-0.7,3.2
													c-0.1,0.5-0.3,0.9-0.5,1.2c-0.2,0.3-0.5,0.4-0.9,0.4c-0.1,0-0.2,0-0.2,0l0.1-0.3c0,0,0.1,0,0.2,0c0.1,0,0.2,0,0.3-0.1
													s0.2-0.2,0.2-0.3c0.1-0.1,0.1-0.3,0.2-0.6l0.8-3.5h-0.6l0.1-0.3c0.2,0,0.3,0,0.4,0c0.1,0,0.1,0,0.2-0.1
													c0,0,0.1-0.1,0.1-0.1c0-0.1,0.1-0.2,0.1-0.3c0.1-0.4,0.3-0.8,0.6-1C197.8,63.2,198.1,63.1,198.5,63.1L198.5,63.1z"/>
												<g class="st24">
													<defs>
														<polygon id="SVGID_23_" points="1,214.2 219.1,214.2 219.1,7.7 1,7.7 1,214.2 														"/>
													</defs>
													<clipPath id="SVGID_24_">
														<use xlink:href="#SVGID_23_"  style="overflow:visible;"/>
													</clipPath>
													<path class="st25" d="M163.9,73.7c0.1,0,0.2,0,0.3,0c0,0,0.1,0.1,0.1,0.1c0,0,0.1,0.1,0.1,0.2s0.1,0.2,0.1,0.3
														c0,0.1,0.1,0.2,0.1,0.4c0.1,0.3,0.1,0.7,0.2,1c0.1,0.4,0.1,0.7,0.1,1c0.2-0.3,0.4-0.7,0.6-1c0.2-0.3,0.3-0.6,0.4-0.9
														c0.1-0.2,0.1-0.4,0.1-0.6c0-0.1,0-0.2-0.1-0.2c0,0-0.1-0.1-0.3-0.1l0-0.2h1l0.1,0.2c-0.2,0.5-0.4,1.1-0.8,1.7
														c-0.3,0.6-0.7,1.1-1.1,1.7c-0.4,0.5-0.7,0.9-1,1.2c-0.2,0.2-0.4,0.3-0.5,0.4c-0.1,0.1-0.3,0.1-0.4,0.1
														c-0.1,0-0.1,0-0.2,0s-0.1,0-0.2,0l0.2-0.7h0.3c0,0.2,0.1,0.2,0.2,0.2c0.1,0,0.3-0.1,0.5-0.3c0.2-0.2,0.4-0.5,0.7-0.8
														c-0.1-0.4-0.2-1-0.3-1.6c-0.1-0.7-0.2-1.1-0.3-1.2c-0.1-0.2-0.1-0.3-0.2-0.4c0,0-0.1,0-0.1,0c-0.1,0-0.2,0-0.2,0.1
														c-0.1,0.1-0.2,0.2-0.3,0.3l-0.2-0.2c0.2-0.3,0.3-0.4,0.5-0.5C163.6,73.8,163.7,73.7,163.9,73.7L163.9,73.7z"/>
													<g class="st26">
														<defs>
															<polygon id="SVGID_25_" points="1,214.2 219.1,214.2 219.1,7.7 1,7.7 1,214.2 															"/>
														</defs>
														<clipPath id="SVGID_26_">
															<use xlink:href="#SVGID_25_"  style="overflow:visible;"/>
														</clipPath>
														<path class="st27" d="M169.8,75.7h4.6v0.5h-4.6V75.7L169.8,75.7z M169.8,74.1h4.6v0.5h-4.6V74.1L169.8,74.1z"/>
														<g class="st28">
															<defs>
																<polygon id="SVGID_27_" points="1,214.2 219.1,214.2 219.1,7.7 1,7.7 1,214.2 																"/>
															</defs>
															<clipPath id="SVGID_28_">
																<use xlink:href="#SVGID_27_"  style="overflow:visible;"/>
															</clipPath>
															<path class="st29" d="M180.6,72c0.2,0,0.5,0,0.6,0.1l-0.1,0.6h-0.3c0-0.1-0.1-0.2-0.1-0.3c-0.1-0.1-0.1-0.1-0.2-0.1
																c-0.1,0-0.3,0-0.4,0.1s-0.2,0.2-0.3,0.3s-0.1,0.4-0.2,0.6l-0.1,0.4h1l-0.1,0.4h-1l-0.7,3.2c-0.1,0.5-0.3,0.9-0.5,1.2
																s-0.5,0.4-0.9,0.4c-0.1,0-0.2,0-0.2,0l0.1-0.3c0,0,0.1,0,0.2,0c0.1,0,0.2,0,0.3-0.1s0.2-0.2,0.2-0.3s0.1-0.3,0.2-0.6
																l0.8-3.5h-0.6l0.1-0.3c0.2,0,0.3,0,0.4,0c0.1,0,0.1,0,0.2-0.1c0,0,0.1-0.1,0.1-0.1c0-0.1,0.1-0.2,0.1-0.3
																c0.1-0.4,0.3-0.8,0.6-1S180.2,72,180.6,72L180.6,72z"/>
															<g class="st30">
																<defs>
																	<polygon id="SVGID_29_" points="1,214.2 219.1,214.2 219.1,7.7 1,7.7 1,214.2 																	"/>
																</defs>
																<clipPath id="SVGID_30_">
																	<use xlink:href="#SVGID_29_"  style="overflow:visible;"/>
																</clipPath>
																<path class="st31" d="M184.4,72l0.1,0.3c-0.6,0.2-1,0.6-1.3,1.1c-0.3,0.6-0.4,1.3-0.4,2.1c0,0.9,0.1,1.6,0.4,2.1
																	c0.3,0.6,0.7,0.9,1.3,1.1l-0.1,0.3c-0.7-0.2-1.3-0.6-1.7-1.2c-0.4-0.6-0.6-1.4-0.6-2.3c0-0.9,0.2-1.7,0.6-2.3
																	C183.1,72.6,183.7,72.1,184.4,72L184.4,72z"/>
																<g class="st32">
																	<defs>
																		<polygon id="SVGID_31_" points="1,214.2 219.1,214.2 219.1,7.7 1,7.7 1,214.2 																		"/>
																	</defs>
																	<clipPath id="SVGID_32_">
																		<use xlink:href="#SVGID_31_"  style="overflow:visible;"/>
																	</clipPath>
																	<path class="st33" d="M186.1,73.7c0.1,0,0.1,0,0.2,0c0.1,0,0.1,0,0.2,0.1s0.1,0.1,0.1,0.1c0,0.1,0.1,0.1,0.1,0.2
																		c0,0.1,0.1,0.2,0.1,0.4c0,0.1,0.1,0.3,0.1,0.5h0c0.2-0.3,0.4-0.6,0.5-0.7c0.1-0.2,0.2-0.3,0.3-0.3
																		c0.1-0.1,0.2-0.1,0.2-0.2s0.2,0,0.3,0c0.1,0,0.2,0,0.3,0l-0.1,0.7h-0.3c0-0.1-0.1-0.2-0.1-0.2c0,0,0,0-0.1,0
																		c0,0-0.1,0-0.1,0c0,0-0.1,0.1-0.2,0.1c-0.1,0.1-0.1,0.2-0.2,0.3c-0.1,0.1-0.2,0.2-0.3,0.3l-0.3,0.3
																		c0,0.2,0.1,0.4,0.1,0.6c0,0.2,0.1,0.3,0.1,0.4c0,0.1,0.1,0.2,0.1,0.3s0,0.1,0.1,0.2c0,0,0.1,0.1,0.1,0.1
																		c0,0,0.1,0,0.1,0c0.1,0,0.1,0,0.2-0.1c0.1-0.1,0.2-0.2,0.3-0.4l0.2,0.2c-0.2,0.3-0.3,0.4-0.5,0.5s-0.3,0.2-0.5,0.2
																		c-0.1,0-0.2,0-0.3-0.1c-0.1,0-0.1-0.1-0.2-0.2c-0.1-0.1-0.1-0.2-0.1-0.4c-0.1-0.3-0.1-0.6-0.1-0.7h0
																		c-0.3,0.4-0.5,0.6-0.6,0.8s-0.2,0.3-0.3,0.4s-0.2,0.1-0.2,0.2s-0.2,0-0.3,0c-0.1,0-0.2,0-0.3,0l0.1-0.7h0.3
																		c0,0.1,0.1,0.2,0.1,0.2c0,0,0.1,0,0.1,0c0,0,0.1-0.1,0.2-0.1s0.2-0.2,0.3-0.3c0.1-0.2,0.3-0.4,0.6-0.7
																		c0-0.2-0.1-0.4-0.1-0.6s-0.1-0.4-0.1-0.5c0-0.2-0.1-0.3-0.1-0.3c0,0-0.1-0.1-0.1-0.1c0,0-0.1,0-0.1,0
																		c-0.1,0-0.1,0-0.1,0c0,0-0.1,0.1-0.1,0.1c0,0.1-0.1,0.1-0.2,0.3l-0.2-0.2c0.2-0.2,0.3-0.4,0.5-0.5
																		C185.8,73.8,185.9,73.7,186.1,73.7L186.1,73.7z"/>
																	<g class="st34">
																		<defs>
																			<polygon id="SVGID_33_" points="1,214.2 219.1,214.2 219.1,7.7 1,7.7 1,214.2 																			"/>
																		</defs>
																		<clipPath id="SVGID_34_">
																			<use xlink:href="#SVGID_33_"  style="overflow:visible;"/>
																		</clipPath>
																		<path class="st35" d="M189.2,72c0.7,0.2,1.3,0.6,1.7,1.2c0.4,0.6,0.6,1.4,0.6,2.3c0,0.9-0.2,1.7-0.6,2.3
																			s-0.9,1-1.7,1.2l-0.1-0.3c0.6-0.2,1-0.6,1.3-1.1c0.3-0.6,0.4-1.3,0.4-2.1c0-0.8-0.1-1.5-0.4-2.1s-0.7-0.9-1.3-1.1
																			L189.2,72z"/>
																		<g class="st36">
																			<defs>
																				<polygon id="SVGID_35_" points="1,214.2 219.1,214.2 219.1,7.7 1,7.7 1,214.2 																				"/>
																			</defs>
																			<clipPath id="SVGID_36_">
																				<use xlink:href="#SVGID_35_"  style="overflow:visible;"/>
																			</clipPath>
																			<path class="st37" d="M39.6,91.8C57.2,83.9,74.8,76,91.1,75.5c16.3-0.5,31.7,10.9,46.2,13.2
																				c14.5,2.3,41,0.6,41,0.6l0,0"/>
																		</g>
																	</g>
																</g>
															</g>
														</g>
													</g>
												</g>
											</g>
										</g>
									</g>
								</g>
							</g>
						</g>
					</g>
				</g>
			</g>
		</g>
	</g>
</g>
</svg>
