<?xml version="1.0" encoding="utf-8"?>
<!-- Generator: Adobe Illustrator 23.0.2, SVG Export Plug-In . SVG Version: 6.00 Build 0)  -->
<svg version="1.0" id="Layer_1" xmlns="http://www.w3.org/2000/svg" xmlns:xlink="http://www.w3.org/1999/xlink" x="0px" y="0px"
	 viewBox="0 0 220 220" style="enable-background:new 0 0 220 220;" xml:space="preserve">
<style type="text/css">
	.st0{fill-rule:evenodd;clip-rule:evenodd;}
	.st1{fill:none;stroke:#0303C3;stroke-width:1.708;stroke-miterlimit:8;}
	.st2{fill:#0303C3;}
	.st3{clip-path:url(#SVGID_2_);fill-rule:evenodd;clip-rule:evenodd;}
	.st4{clip-path:url(#SVGID_2_);}
	.st5{clip-path:url(#SVGID_4_);fill-rule:evenodd;clip-rule:evenodd;}
	.st6{clip-path:url(#SVGID_4_);}
	.st7{clip-path:url(#SVGID_6_);fill-rule:evenodd;clip-rule:evenodd;}
	.st8{clip-path:url(#SVGID_6_);}
	.st9{clip-path:url(#SVGID_8_);fill-rule:evenodd;clip-rule:evenodd;}
	.st10{clip-path:url(#SVGID_8_);}
	.st11{clip-path:url(#SVGID_10_);fill-rule:evenodd;clip-rule:evenodd;}
	.st12{clip-path:url(#SVGID_10_);}
	.st13{clip-path:url(#SVGID_12_);fill-rule:evenodd;clip-rule:evenodd;}
	.st14{clip-path:url(#SVGID_12_);}
	.st15{clip-path:url(#SVGID_14_);fill-rule:evenodd;clip-rule:evenodd;}
	.st16{clip-path:url(#SVGID_14_);}
	.st17{clip-path:url(#SVGID_16_);fill-rule:evenodd;clip-rule:evenodd;}
	.st18{clip-path:url(#SVGID_16_);}
	.st19{clip-path:url(#SVGID_18_);}
	.st20{clip-path:url(#SVGID_20_);fill-rule:evenodd;clip-rule:evenodd;}
	.st21{clip-path:url(#SVGID_20_);}
	.st22{clip-path:url(#SVGID_22_);fill-rule:evenodd;clip-rule:evenodd;}
	.st23{clip-path:url(#SVGID_22_);}
	.st24{clip-path:url(#SVGID_24_);fill-rule:evenodd;clip-rule:evenodd;}
	.st25{clip-path:url(#SVGID_24_);}
	.st26{clip-path:url(#SVGID_26_);fill-rule:evenodd;clip-rule:evenodd;}
</style>
<g>
	<path class="st0" d="M18.1,116c0.7,0,1.2,0.1,1.7,0.2l-0.4,1.7h-0.9c-0.1-0.4-0.2-0.7-0.4-0.8c-0.2-0.2-0.4-0.3-0.7-0.3
		c-0.4,0-0.7,0.1-1,0.3c-0.3,0.2-0.5,0.5-0.7,0.9s-0.4,1-0.5,1.7l-0.3,1.1h2.6l-0.2,1h-2.6l-1.9,8.7c-0.3,1.4-0.8,2.5-1.4,3.2
		c-0.6,0.7-1.4,1.1-2.4,1.1c-0.3,0-0.5,0-0.7-0.1l0.2-0.9c0.1,0,0.2,0,0.5,0c0.3,0,0.6-0.1,0.8-0.2c0.2-0.2,0.4-0.4,0.6-0.8
		c0.2-0.4,0.4-0.9,0.5-1.6l2.2-9.5h-1.7l0.2-0.7c0.4,0,0.8-0.1,1-0.1s0.4-0.1,0.5-0.2c0.1-0.1,0.2-0.2,0.3-0.4
		c0.1-0.2,0.2-0.4,0.3-0.8c0.4-1.2,0.9-2.1,1.6-2.7C16.1,116.3,17,116,18.1,116L18.1,116z"/>
	<path class="st0" d="M28.5,116l0.3,0.8c-1.6,0.5-2.7,1.5-3.5,3c-0.8,1.5-1.1,3.4-1.1,5.6c0,2.3,0.4,4.3,1.1,5.8
		c0.8,1.5,1.9,2.5,3.4,3l-0.2,0.8c-2-0.5-3.5-1.6-4.5-3.3c-1-1.7-1.6-3.8-1.6-6.2c0-2.4,0.5-4.5,1.6-6.2S26.5,116.5,28.5,116
		L28.5,116z"/>
	<path class="st0" d="M33.1,120.7c0.2,0,0.4,0,0.5,0.1s0.3,0.1,0.4,0.2c0.1,0.1,0.2,0.2,0.3,0.4c0.1,0.2,0.2,0.4,0.3,0.6
		s0.2,0.6,0.2,1s0.1,0.8,0.2,1.2h0.1c0.6-0.9,1.1-1.6,1.5-2c0.3-0.4,0.6-0.7,0.8-0.9c0.2-0.2,0.4-0.3,0.7-0.4
		c0.2-0.1,0.5-0.1,0.8-0.1c0.3,0,0.6,0,0.8,0.1l-0.4,1.8h-0.7c0-0.3-0.2-0.4-0.4-0.4c-0.1,0-0.1,0-0.2,0c-0.1,0-0.1,0.1-0.2,0.1
		c-0.1,0.1-0.2,0.2-0.4,0.4c-0.2,0.2-0.4,0.4-0.6,0.7c-0.2,0.3-0.5,0.6-0.7,0.9l-0.7,0.9c0.1,0.6,0.2,1.2,0.3,1.7s0.2,0.9,0.3,1.2
		c0.1,0.3,0.2,0.6,0.2,0.7s0.1,0.3,0.2,0.4c0.1,0.1,0.1,0.2,0.2,0.2c0.1,0,0.2,0.1,0.3,0.1c0.2,0,0.4-0.1,0.5-0.2s0.4-0.5,0.7-1
		l0.7,0.4c-0.5,0.7-0.9,1.2-1.3,1.5s-0.8,0.4-1.3,0.4c-0.3,0-0.5-0.1-0.7-0.2s-0.4-0.3-0.5-0.5c-0.1-0.2-0.3-0.6-0.4-1.1
		c-0.2-0.9-0.3-1.5-0.4-2h-0.1c-0.7,1-1.2,1.7-1.6,2.1s-0.6,0.8-0.9,1s-0.4,0.4-0.7,0.4c-0.2,0.1-0.5,0.1-0.8,0.1
		c-0.3,0-0.6,0-0.8-0.1l0.4-1.8h0.7c0,0.3,0.2,0.4,0.4,0.4c0.1,0,0.2,0,0.3-0.1c0.1-0.1,0.3-0.2,0.4-0.4c0.2-0.2,0.5-0.5,0.8-0.9
		c0.3-0.4,0.8-1,1.5-1.8c-0.1-0.5-0.2-1-0.3-1.5c-0.1-0.5-0.2-0.9-0.3-1.4c-0.1-0.4-0.2-0.7-0.3-0.8c-0.1-0.1-0.2-0.2-0.2-0.3
		c-0.1-0.1-0.2-0.1-0.3-0.1c-0.1,0-0.3,0-0.4,0.1c-0.1,0.1-0.2,0.2-0.4,0.3c-0.1,0.2-0.3,0.4-0.5,0.7l-0.7-0.4
		c0.4-0.6,0.8-1.1,1.2-1.4C32.1,120.8,32.6,120.7,33.1,120.7L33.1,120.7z"/>
	<path class="st0" d="M41.3,116c1.9,0.5,3.4,1.6,4.5,3.3s1.6,3.8,1.6,6.2c0,2.4-0.5,4.5-1.6,6.2c-1,1.7-2.5,2.8-4.5,3.3l-0.2-0.8
		c1.5-0.5,2.7-1.5,3.4-3s1.1-3.4,1.1-5.8c0-2.3-0.4-4.1-1.1-5.6c-0.7-1.5-1.9-2.5-3.5-3L41.3,116z"/>
	<g>
		<g>
			<path class="st1" d="M35.9,112.8c-0.2-35.2,30.5-64,68.5-64.2c14-0.1,27.5,3.8,38.9,10.9"/>
			<g>
				<path class="st2" d="M140.7,57.9l0.7-7.2l0.3,0l5.7,9.2c2.3,2.7,4.7,5.4,7,8.1c-3.3-1.5-6.5-2.9-9.8-4.4l-10.4-2.8l-0.1-0.2
					L140.7,57.9z"/>
			</g>
		</g>
	</g>
	<g>
		<defs>
			<polygon id="SVGID_1_" points="4.3,195.5 217.8,195.5 217.8,28.1 4.3,28.1 4.3,195.5 			"/>
		</defs>
		<clipPath id="SVGID_2_">
			<use xlink:href="#SVGID_1_"  style="overflow:visible;"/>
		</clipPath>
		<path class="st3" d="M139.7,80.2c-0.7,0-1.3,0.3-1.8,0.8c-0.5,0.6-1,1.3-1.3,2.2c-0.3,0.9-0.5,1.9-0.5,2.8c0,0.7,0.1,1.2,0.3,1.6
			s0.5,0.5,1,0.5c0.2,0,0.4,0,0.6-0.1s0.4-0.2,0.7-0.4c0.2-0.2,0.5-0.4,0.7-0.7c0.2-0.3,0.4-0.6,0.6-0.9c0.2-0.3,0.4-0.6,0.5-1
			c0.2-0.4,0.3-0.9,0.4-1.4l0.1-0.4c0.1-0.5,0.2-0.9,0.2-1.4c0-0.5-0.1-0.9-0.3-1.1C140.6,80.3,140.2,80.2,139.7,80.2L139.7,80.2z
			 M143.9,74.8h0.6L142,85.9c-0.1,0.7-0.2,1.1-0.2,1.5c0,0.3,0,0.5,0.1,0.6c0.1,0.1,0.2,0.2,0.4,0.2c0.2,0,0.4-0.1,0.6-0.2
			c0.2-0.2,0.5-0.5,1-0.9l0.6,0.6c-0.6,0.6-1.1,1.1-1.6,1.4c-0.4,0.3-0.9,0.4-1.4,0.4c-0.4,0-0.7-0.1-1-0.4
			c-0.2-0.3-0.4-0.6-0.4-1.1c0-0.4,0.1-0.8,0.2-1.2l-0.1,0c-0.6,0.9-1.2,1.6-1.8,2.1c-0.6,0.4-1.2,0.7-1.8,0.7
			c-0.7,0-1.3-0.3-1.7-0.8c-0.4-0.6-0.6-1.3-0.6-2.3c0-1.1,0.2-2.3,0.7-3.3s1.1-1.9,1.9-2.5s1.7-0.9,2.6-0.9c0.4,0,0.8,0,1.1,0.1
			c0.3,0.1,0.7,0.2,1.1,0.4l0.5-2.3c0.1-0.2,0.1-0.5,0.1-0.7c0-0.3,0.1-0.5,0.1-0.7c0-0.2,0-0.4-0.1-0.5c-0.1-0.1-0.2-0.2-0.3-0.2
			c-0.1,0-0.4-0.1-0.7-0.1l0.1-0.5L143.9,74.8L143.9,74.8z"/>
		<g class="st4">
			<defs>
				<polygon id="SVGID_3_" points="4.3,195.5 217.8,195.5 217.8,28.1 4.3,28.1 4.3,195.5 				"/>
			</defs>
			<clipPath id="SVGID_4_">
				<use xlink:href="#SVGID_3_"  style="overflow:visible;"/>
			</clipPath>
			<path class="st5" d="M153.7,74.7l0.3,0.8c-1.6,0.5-2.7,1.5-3.5,3s-1.1,3.4-1.1,5.6c0,2.3,0.4,4.3,1.1,5.8s1.9,2.5,3.4,3l-0.2,0.8
				c-2-0.5-3.5-1.6-4.5-3.3c-1-1.7-1.6-3.8-1.6-6.2c0-2.4,0.5-4.5,1.6-6.2C150.3,76.3,151.8,75.2,153.7,74.7L153.7,74.7z"/>
			<g class="st6">
				<defs>
					<polygon id="SVGID_5_" points="4.3,195.5 217.8,195.5 217.8,28.1 4.3,28.1 4.3,195.5 					"/>
				</defs>
				<clipPath id="SVGID_6_">
					<use xlink:href="#SVGID_5_"  style="overflow:visible;"/>
				</clipPath>
				<path class="st7" d="M163.8,74.8c0.7,0,1.2,0.1,1.7,0.2l-0.4,1.7h-0.9c-0.1-0.4-0.2-0.7-0.4-0.8c-0.2-0.2-0.4-0.3-0.7-0.3
					c-0.4,0-0.7,0.1-1,0.3c-0.3,0.2-0.5,0.5-0.7,0.9s-0.4,1-0.5,1.7l-0.3,1.1h2.6l-0.2,1h-2.6l-1.9,8.7c-0.3,1.4-0.8,2.5-1.4,3.2
					c-0.6,0.7-1.4,1.1-2.4,1.1c-0.3,0-0.5,0-0.7-0.1l0.2-0.9c0.1,0,0.2,0,0.5,0c0.3,0,0.6-0.1,0.8-0.2c0.2-0.2,0.4-0.4,0.6-0.8
					c0.2-0.4,0.4-0.9,0.5-1.6l2.2-9.5h-1.7l0.2-0.7c0.4,0,0.8-0.1,1-0.1s0.4-0.1,0.5-0.2c0.1-0.1,0.2-0.2,0.3-0.4s0.2-0.4,0.3-0.8
					c0.4-1.2,0.9-2.1,1.6-2.7C161.7,75.1,162.7,74.8,163.8,74.8L163.8,74.8z"/>
				<g class="st8">
					<defs>
						<polygon id="SVGID_7_" points="4.3,195.5 217.8,195.5 217.8,28.1 4.3,28.1 4.3,195.5 						"/>
					</defs>
					<clipPath id="SVGID_8_">
						<use xlink:href="#SVGID_7_"  style="overflow:visible;"/>
					</clipPath>
					<path class="st9" d="M187,73.8c1.9,0.5,3.4,1.6,4.5,3.3c1,1.7,1.6,3.8,1.6,6.2c0,2.4-0.5,4.5-1.6,6.2c-1,1.7-2.5,2.8-4.5,3.3
						l-0.2-0.8c1.5-0.5,2.7-1.5,3.4-3s1.1-3.4,1.1-5.8c0-2.3-0.4-4.1-1.1-5.6c-0.7-1.5-1.9-2.5-3.5-3L187,73.8z M174.1,73.8l0.3,0.8
						c-1.6,0.5-2.7,1.5-3.5,3s-1.1,3.4-1.1,5.6c0,2.3,0.4,4.3,1.1,5.8s1.9,2.5,3.4,3l-0.2,0.8c-2-0.5-3.5-1.6-4.5-3.3
						s-1.6-3.8-1.6-6.2c0-2.4,0.5-4.5,1.6-6.2C170.6,75.4,172.1,74.3,174.1,73.8L174.1,73.8z"/>
					<g class="st10">
						<defs>
							<polygon id="SVGID_9_" points="4.3,195.5 217.8,195.5 217.8,28.1 4.3,28.1 4.3,195.5 							"/>
						</defs>
						<clipPath id="SVGID_10_">
							<use xlink:href="#SVGID_9_"  style="overflow:visible;"/>
						</clipPath>
						<path class="st11" d="M178.7,79.4c0.2,0,0.4,0,0.5,0.1s0.3,0.1,0.4,0.2c0.1,0.1,0.2,0.2,0.3,0.4s0.2,0.4,0.3,0.6
							c0.1,0.3,0.2,0.6,0.2,1s0.1,0.8,0.2,1.2h0.1c0.6-0.9,1.1-1.6,1.5-2c0.3-0.4,0.6-0.7,0.8-0.9s0.4-0.3,0.7-0.4
							c0.2-0.1,0.5-0.1,0.8-0.1c0.3,0,0.6,0,0.8,0.1l-0.4,1.8h-0.7c0-0.3-0.2-0.4-0.4-0.4c-0.1,0-0.1,0-0.2,0
							c-0.1,0-0.1,0.1-0.2,0.1s-0.2,0.2-0.4,0.4c-0.2,0.2-0.4,0.4-0.6,0.7c-0.2,0.3-0.5,0.6-0.7,0.9l-0.7,0.9
							c0.1,0.6,0.2,1.2,0.3,1.7c0.1,0.5,0.2,0.9,0.3,1.2c0.1,0.3,0.2,0.6,0.2,0.7c0.1,0.2,0.1,0.3,0.2,0.4s0.1,0.2,0.2,0.2
							c0.1,0,0.2,0.1,0.3,0.1c0.2,0,0.4-0.1,0.5-0.2c0.2-0.1,0.4-0.5,0.7-1l0.7,0.4c-0.5,0.7-0.9,1.2-1.3,1.5
							c-0.4,0.3-0.8,0.4-1.3,0.4c-0.3,0-0.5-0.1-0.7-0.2s-0.4-0.3-0.5-0.5c-0.1-0.2-0.3-0.6-0.4-1.1c-0.2-0.9-0.3-1.5-0.4-2h-0.1
							c-0.7,1-1.2,1.7-1.6,2.1c-0.3,0.4-0.6,0.8-0.9,1c-0.2,0.2-0.4,0.4-0.7,0.4c-0.2,0.1-0.5,0.1-0.8,0.1c-0.3,0-0.6,0-0.8-0.1
							l0.4-1.8h0.7c0,0.3,0.2,0.4,0.4,0.4c0.1,0,0.2,0,0.3-0.1c0.1-0.1,0.3-0.2,0.4-0.4c0.2-0.2,0.5-0.5,0.8-0.9
							c0.3-0.4,0.8-1,1.5-1.8c-0.1-0.5-0.2-1-0.3-1.5c-0.1-0.5-0.2-0.9-0.3-1.4c-0.1-0.4-0.2-0.7-0.3-0.8c-0.1-0.1-0.2-0.2-0.2-0.3
							c-0.1-0.1-0.2-0.1-0.3-0.1c-0.1,0-0.3,0-0.4,0.1c-0.1,0.1-0.2,0.2-0.4,0.3c-0.1,0.2-0.3,0.4-0.5,0.7l-0.7-0.4
							c0.4-0.6,0.8-1.1,1.2-1.4C177.7,79.6,178.2,79.4,178.7,79.4L178.7,79.4z"/>
						<g class="st12">
							<defs>
								<polygon id="SVGID_11_" points="4.3,195.5 217.8,195.5 217.8,28.1 4.3,28.1 4.3,195.5 								"/>
							</defs>
							<clipPath id="SVGID_12_">
								<use xlink:href="#SVGID_11_"  style="overflow:visible;"/>
							</clipPath>
							<path class="st13" d="M195.5,74.7c1.9,0.5,3.4,1.6,4.5,3.3c1,1.7,1.6,3.8,1.6,6.2c0,2.4-0.5,4.5-1.6,6.2
								c-1,1.7-2.5,2.8-4.5,3.3l-0.2-0.8c1.5-0.5,2.7-1.5,3.4-3s1.1-3.4,1.1-5.8c0-2.3-0.4-4.1-1.1-5.6c-0.7-1.5-1.9-2.5-3.5-3
								L195.5,74.7z"/>
							<g class="st14">
								<defs>
									<polygon id="SVGID_13_" points="4.3,195.5 217.8,195.5 217.8,28.1 4.3,28.1 4.3,195.5 									"/>
								</defs>
								<clipPath id="SVGID_14_">
									<use xlink:href="#SVGID_13_"  style="overflow:visible;"/>
								</clipPath>
								<path class="st15" d="M163,109.5c-0.7,0-1.3,0.3-1.8,0.8c-0.5,0.6-1,1.3-1.3,2.2c-0.3,0.9-0.5,1.9-0.5,2.8
									c0,0.7,0.1,1.2,0.3,1.6c0.2,0.3,0.5,0.5,1,0.5c0.2,0,0.4,0,0.6-0.1c0.2-0.1,0.4-0.2,0.7-0.4c0.2-0.2,0.5-0.4,0.7-0.7
									s0.4-0.6,0.6-0.9s0.4-0.6,0.5-1c0.2-0.4,0.3-0.9,0.4-1.4l0.1-0.4c0.1-0.5,0.2-0.9,0.2-1.4c0-0.5-0.1-0.9-0.3-1.1
									C163.9,109.6,163.5,109.5,163,109.5L163,109.5z M172.4,108.7c0.2,0,0.4,0,0.5,0.1s0.3,0.1,0.4,0.2c0.1,0.1,0.2,0.2,0.3,0.4
									c0.1,0.2,0.2,0.4,0.3,0.6c0.1,0.3,0.2,0.6,0.2,1s0.1,0.8,0.2,1.2h0.1c0.6-0.9,1.1-1.6,1.5-2c0.3-0.4,0.6-0.7,0.8-0.9
									c0.2-0.2,0.4-0.3,0.7-0.4s0.5-0.1,0.8-0.1c0.3,0,0.6,0,0.8,0.1l-0.4,1.8H178c0-0.3-0.2-0.4-0.4-0.4c-0.1,0-0.1,0-0.2,0
									s-0.1,0.1-0.2,0.1s-0.2,0.2-0.4,0.4c-0.2,0.2-0.4,0.4-0.6,0.7c-0.2,0.3-0.5,0.6-0.7,0.9l-0.7,0.9c0.1,0.6,0.2,1.2,0.3,1.7
									c0.1,0.5,0.2,0.9,0.3,1.2c0.1,0.3,0.2,0.6,0.2,0.7c0.1,0.2,0.1,0.3,0.2,0.4s0.1,0.2,0.2,0.2c0.1,0,0.2,0.1,0.3,0.1
									c0.2,0,0.4-0.1,0.5-0.2s0.4-0.5,0.7-1l0.7,0.4c-0.5,0.7-0.9,1.2-1.3,1.5c-0.4,0.3-0.8,0.4-1.3,0.4c-0.3,0-0.5-0.1-0.7-0.2
									s-0.4-0.3-0.5-0.5c-0.1-0.2-0.3-0.6-0.4-1.1c-0.2-0.9-0.3-1.5-0.4-2h-0.1c-0.7,1-1.2,1.7-1.6,2.1c-0.3,0.4-0.6,0.8-0.9,1
									c-0.2,0.2-0.4,0.4-0.7,0.4c-0.2,0.1-0.5,0.1-0.8,0.1c-0.3,0-0.6,0-0.8-0.1l0.4-1.8h0.7c0,0.3,0.2,0.4,0.4,0.4
									c0.1,0,0.2,0,0.3-0.1c0.1-0.1,0.3-0.2,0.4-0.4c0.2-0.2,0.5-0.5,0.8-0.9c0.3-0.4,0.8-1,1.5-1.8c-0.1-0.5-0.2-1-0.3-1.5
									c-0.1-0.5-0.2-0.9-0.3-1.4s-0.2-0.7-0.3-0.8c-0.1-0.1-0.2-0.2-0.2-0.3c-0.1-0.1-0.2-0.1-0.3-0.1c-0.1,0-0.3,0-0.4,0.1
									c-0.1,0.1-0.2,0.2-0.4,0.3c-0.1,0.2-0.3,0.4-0.5,0.7l-0.7-0.4c0.4-0.6,0.8-1.1,1.2-1.4C171.4,108.8,171.9,108.7,172.4,108.7
									L172.4,108.7z M167.2,104.1h0.6l-2.5,11.1c-0.1,0.7-0.2,1.1-0.2,1.5c0,0.3,0,0.5,0.1,0.6c0.1,0.1,0.2,0.2,0.4,0.2
									c0.2,0,0.4-0.1,0.6-0.2s0.5-0.5,1-0.9l0.6,0.6c-0.6,0.6-1.1,1.1-1.6,1.4c-0.4,0.3-0.9,0.4-1.4,0.4c-0.4,0-0.7-0.1-1-0.4
									c-0.2-0.3-0.4-0.6-0.4-1.1c0-0.4,0.1-0.8,0.2-1.2l-0.1,0c-0.6,0.9-1.2,1.6-1.8,2.1s-1.2,0.7-1.8,0.7c-0.7,0-1.3-0.3-1.7-0.8
									s-0.6-1.3-0.6-2.3c0-1.1,0.2-2.3,0.7-3.3s1.1-1.9,1.9-2.5c0.8-0.6,1.7-0.9,2.6-0.9c0.4,0,0.8,0,1.1,0.1
									c0.3,0.1,0.7,0.2,1.1,0.4l0.5-2.3c0.1-0.2,0.1-0.5,0.1-0.7c0-0.3,0.1-0.5,0.1-0.7c0-0.2,0-0.4-0.1-0.5s-0.2-0.2-0.3-0.2
									c-0.1,0-0.4-0.1-0.7-0.1l0.1-0.5L167.2,104.1L167.2,104.1z"/>
								<g class="st16">
									<defs>
										<polygon id="SVGID_15_" points="4.3,195.5 217.8,195.5 217.8,28.1 4.3,28.1 4.3,195.5 										"/>
									</defs>
									<clipPath id="SVGID_16_">
										<use xlink:href="#SVGID_15_"  style="overflow:visible;"/>
									</clipPath>
									<polygon class="st17" points="133.3,98.2 150.8,98.2 168.3,98.2 185.8,98.2 203.2,98.2 203.2,99.5 185.8,99.5 168.3,99.5 
										150.8,99.5 133.3,99.5 133.3,98.2 									"/>
									<g class="st18">
										<defs>
											<polygon id="SVGID_17_" points="4.3,195.5 217.8,195.5 217.8,28.1 4.3,28.1 4.3,195.5 											"/>
										</defs>
										<clipPath id="SVGID_18_">
											<use xlink:href="#SVGID_17_"  style="overflow:visible;"/>
										</clipPath>
										<g class="st19">
											<g>
												<path class="st1" d="M172.5,125.4c-6.6,34.6-42.3,56.9-79.7,49.7c-16.2-3.1-30.7-11.5-41-23.3"/>
												<g>
													<path class="st2" d="M53.9,154.1l-2.8,6.7l-0.2-0.1l-2.7-10.5c-1.4-3.3-2.9-6.6-4.3-9.8c2.7,2.4,5.4,4.7,8,7.1l9.1,5.8
														l0,0.2L53.9,154.1z"/>
												</g>
											</g>
										</g>
										<g class="st19">
											<defs>
												<polygon id="SVGID_19_" points="4.3,195.5 217.8,195.5 217.8,28.1 4.3,28.1 4.3,195.5 												"/>
											</defs>
											<clipPath id="SVGID_20_">
												<use xlink:href="#SVGID_19_"  style="overflow:visible;"/>
											</clipPath>
											<path class="st20" d="M31.7,36.5l-0.6,2.9c0.2,0,0.5,0,0.8,0c0.5,0,0.9-0.1,1.1-0.2c0.3-0.1,0.5-0.3,0.7-0.6
												s0.3-0.7,0.3-1.1c0-0.3-0.1-0.6-0.3-0.8c-0.2-0.2-0.6-0.3-1-0.3H31.7z M37.7,34.9c0.1,0,0.3,0,0.4,0.1
												c0.1,0,0.1,0.1,0.2,0.1c0.1,0.1,0.1,0.1,0.2,0.3s0.1,0.2,0.1,0.4c0,0.1,0.1,0.3,0.1,0.6c0.1,0.4,0.2,0.9,0.2,1.4
												c0.1,0.5,0.1,0.9,0.2,1.3c0.3-0.5,0.6-0.9,0.8-1.4c0.2-0.4,0.4-0.8,0.5-1.2c0.1-0.3,0.1-0.6,0.1-0.8c0-0.2,0-0.3-0.1-0.3
												s-0.2-0.1-0.3-0.1l0.1-0.2h1.3l0.1,0.3c-0.3,0.7-0.6,1.4-1,2.2c-0.4,0.8-0.9,1.5-1.5,2.3c-0.5,0.7-1,1.3-1.3,1.6
												c-0.2,0.2-0.5,0.4-0.7,0.5c-0.2,0.1-0.4,0.1-0.6,0.1c-0.1,0-0.2,0-0.2,0s-0.2,0-0.2,0l0.2-1h0.4c0,0.2,0.1,0.3,0.2,0.3
												c0.2,0,0.4-0.1,0.7-0.4s0.6-0.6,0.9-1.1c-0.1-0.6-0.2-1.3-0.4-2.1c-0.2-0.9-0.3-1.4-0.4-1.6c-0.1-0.3-0.1-0.4-0.2-0.5
												c0,0-0.1-0.1-0.2-0.1c-0.1,0-0.2,0-0.3,0.1s-0.2,0.2-0.3,0.5l-0.3-0.2c0.2-0.3,0.4-0.6,0.6-0.7
												C37.2,35,37.4,34.9,37.7,34.9L37.7,34.9z M33.2,33.4c-0.3,0-0.6,0-0.8,0L31.8,36h0.7c0.4,0,0.7,0,0.9-0.1
												c0.2-0.1,0.4-0.2,0.6-0.3c0.2-0.2,0.3-0.3,0.4-0.5s0.1-0.4,0.1-0.7c0-0.1,0-0.3-0.1-0.4c-0.1-0.1-0.1-0.2-0.3-0.3
												s-0.3-0.2-0.4-0.2C33.7,33.4,33.5,33.4,33.2,33.4L33.2,33.4z M30.9,33h2.5c0.5,0,0.9,0.1,1.2,0.2
												c0.3,0.1,0.5,0.3,0.7,0.5c0.1,0.2,0.2,0.5,0.2,0.8c0,0.4-0.1,0.8-0.4,1.1c-0.3,0.3-0.7,0.6-1.2,0.7l0,0.1
												c0.3,0.1,0.5,0.3,0.7,0.5s0.3,0.5,0.3,0.8c0,0.4-0.1,0.8-0.3,1.1c-0.2,0.3-0.5,0.6-0.9,0.8c-0.4,0.2-1,0.3-1.8,0.3h-2.2
												l0.1-0.2c0.1,0,0.2-0.1,0.3-0.1s0.1-0.1,0.2-0.2c0-0.1,0.1-0.2,0.1-0.3c0-0.1,0.1-0.3,0.2-0.7l0.9-3.9
												c0.1-0.3,0.1-0.6,0.1-0.8c0-0.2,0-0.3-0.1-0.3s-0.2-0.1-0.4-0.1L30.9,33z"/>
											<g class="st21">
												<defs>
													<polygon id="SVGID_21_" points="4.3,195.5 217.8,195.5 217.8,28.1 4.3,28.1 4.3,195.5 													"/>
												</defs>
												<clipPath id="SVGID_22_">
													<use xlink:href="#SVGID_21_"  style="overflow:visible;"/>
												</clipPath>
												<path class="st22" d="M109.1,35.3c-0.3,0-0.6,0.1-0.9,0.4c-0.3,0.3-0.5,0.7-0.6,1.2c-0.1,0.5-0.2,1-0.2,1.4
													c0,0.4,0.1,0.6,0.2,0.8c0.2,0.2,0.4,0.3,0.7,0.3c0.3,0,0.6-0.1,0.9-0.4s0.5-0.7,0.6-1.2c0.1-0.5,0.2-1,0.2-1.4
													c0-0.4-0.1-0.6-0.2-0.8S109.4,35.3,109.1,35.3L109.1,35.3z M96.1,35.3c-0.3,0-0.7,0.1-0.9,0.4c-0.3,0.3-0.5,0.6-0.6,1.1
													c-0.2,0.5-0.2,0.9-0.2,1.4c0,0.3,0,0.6,0.1,0.8c0.1,0.2,0.3,0.3,0.5,0.3c0.2,0,0.4-0.1,0.6-0.3c0.2-0.2,0.4-0.5,0.7-0.8
													c0.2-0.4,0.4-0.8,0.5-1.2l0-0.2c0-0.1,0.1-0.3,0.1-0.4c0-0.1,0-0.2,0-0.3c0-0.3-0.1-0.4-0.2-0.6
													C96.6,35.4,96.4,35.3,96.1,35.3L96.1,35.3z M77.9,35.3c-0.3,0-0.7,0.2-1,0.5c-0.3,0.3-0.6,0.8-0.7,1.4
													c0.5,0,0.9,0,1.2-0.1c0.3-0.1,0.6-0.2,0.8-0.4c0.2-0.2,0.3-0.4,0.3-0.7c0-0.2,0-0.4-0.1-0.5
													C78.2,35.4,78.1,35.3,77.9,35.3L77.9,35.3z M68,35.3c-0.3,0-0.7,0.2-1,0.5c-0.3,0.3-0.6,0.8-0.7,1.4
													c0.5,0,0.9,0,1.2-0.1c0.3-0.1,0.6-0.2,0.8-0.4c0.2-0.2,0.3-0.4,0.3-0.7c0-0.2,0-0.4-0.1-0.5S68.1,35.3,68,35.3L68,35.3z
													 M47.5,35.3c-0.3,0-0.6,0.1-0.9,0.4s-0.5,0.6-0.6,1.1c-0.2,0.5-0.2,0.9-0.2,1.4c0,0.3,0,0.6,0.1,0.8
													c0.1,0.2,0.3,0.3,0.5,0.3c0.1,0,0.2,0,0.3-0.1c0.1,0,0.2-0.1,0.3-0.2c0.1-0.1,0.2-0.2,0.3-0.4c0.1-0.1,0.2-0.3,0.3-0.4
													c0.1-0.1,0.2-0.3,0.3-0.5s0.1-0.4,0.2-0.7l0-0.2c0.1-0.2,0.1-0.5,0.1-0.7c0-0.3-0.1-0.4-0.2-0.6
													C47.9,35.4,47.8,35.3,47.5,35.3L47.5,35.3z M104.7,35h0.3l-0.7,3.2c-0.1,0.3-0.1,0.6-0.1,0.7c0,0.1,0,0.2,0.1,0.3
													c0,0.1,0.1,0.1,0.2,0.1c0.1,0,0.2,0,0.3-0.1c0.1-0.1,0.3-0.2,0.5-0.5l0.3,0.3c-0.3,0.3-0.6,0.6-0.8,0.7
													c-0.2,0.1-0.4,0.2-0.7,0.2c-0.2,0-0.4-0.1-0.5-0.2c-0.1-0.2-0.2-0.4-0.2-0.6c0-0.3,0-0.6,0.1-1l0.4-1.6
													c0.1-0.3,0.1-0.6,0.1-0.8c0-0.2,0-0.3-0.1-0.3s-0.2-0.1-0.4-0.1l0.1-0.3L104.7,35L104.7,35z M91.7,35H92l-0.7,3.2
													c-0.1,0.3-0.1,0.6-0.1,0.7c0,0.1,0,0.2,0.1,0.3c0,0.1,0.1,0.1,0.2,0.1c0.1,0,0.2,0,0.3-0.1c0.1-0.1,0.3-0.2,0.5-0.5
													l0.3,0.3c-0.3,0.3-0.6,0.6-0.8,0.7c-0.2,0.1-0.4,0.2-0.7,0.2c-0.2,0-0.4-0.1-0.5-0.2s-0.2-0.4-0.2-0.6
													c0-0.3,0-0.6,0.1-1l0.4-1.6c0.1-0.3,0.1-0.6,0.1-0.8c0-0.2,0-0.3-0.1-0.3c-0.1-0.1-0.2-0.1-0.4-0.1l0.1-0.3L91.7,35
													L91.7,35z M52.3,35h0.3l-0.7,3.2c-0.1,0.3-0.1,0.6-0.1,0.7c0,0.1,0,0.2,0.1,0.3c0,0.1,0.1,0.1,0.2,0.1
													c0.1,0,0.2,0,0.3-0.1c0.1-0.1,0.3-0.2,0.5-0.5l0.3,0.3c-0.3,0.3-0.6,0.6-0.8,0.7c-0.2,0.1-0.4,0.2-0.7,0.2
													c-0.2,0-0.4-0.1-0.5-0.2S51,39.3,51,39c0-0.3,0-0.6,0.1-1l0.4-1.6c0.1-0.3,0.1-0.6,0.1-0.8c0-0.2,0-0.3-0.1-0.3
													c-0.1-0.1-0.2-0.1-0.4-0.1l0.1-0.3L52.3,35L52.3,35z M109.2,34.9c0.5,0,0.9,0.1,1.2,0.4c0.3,0.3,0.4,0.7,0.4,1.3
													c0,0.4-0.1,0.8-0.2,1.2c-0.1,0.4-0.3,0.8-0.6,1.1s-0.5,0.5-0.8,0.7c-0.3,0.2-0.7,0.2-1.1,0.2c-0.5,0-0.9-0.1-1.2-0.4
													c-0.3-0.3-0.4-0.7-0.4-1.3c0-0.3,0-0.6,0.1-0.9c0.1-0.5,0.3-0.9,0.5-1.2c0.2-0.4,0.5-0.6,0.9-0.8S108.8,34.9,109.2,34.9
													L109.2,34.9z M113,34.9c0.2,0,0.4,0.1,0.5,0.2s0.2,0.3,0.2,0.5c0,0.2,0,0.4-0.1,0.6l0.1,0c0.3-0.5,0.6-0.8,0.9-1
													c0.3-0.2,0.6-0.3,0.9-0.3c0.3,0,0.5,0.1,0.7,0.3c0.2,0.2,0.3,0.4,0.3,0.7c0,0.2,0,0.5-0.1,0.9l-0.3,1.3
													c-0.1,0.4-0.1,0.6-0.1,0.8c0,0.1,0,0.2,0.1,0.3c0,0.1,0.1,0.1,0.2,0.1c0.1,0,0.2,0,0.3-0.1c0.1-0.1,0.3-0.2,0.5-0.5
													l0.3,0.3c-0.3,0.3-0.5,0.5-0.8,0.7c-0.2,0.1-0.5,0.2-0.7,0.2c-0.2,0-0.4-0.1-0.5-0.2S115,39.3,115,39
													c0-0.2,0.1-0.5,0.2-1l0.2-0.9c0.1-0.3,0.1-0.5,0.2-0.7c0-0.2,0-0.3,0-0.4c0-0.2,0-0.4-0.1-0.5c-0.1-0.1-0.2-0.2-0.4-0.2
													c-0.1,0-0.3,0.1-0.5,0.2c-0.2,0.1-0.3,0.3-0.5,0.5c-0.2,0.2-0.3,0.4-0.4,0.7c-0.1,0.2-0.2,0.5-0.3,0.8l-0.5,2.2H112
													l0.7-3.2c0.1-0.3,0.1-0.6,0.1-0.7c0-0.1,0-0.2-0.1-0.3c0-0.1-0.1-0.1-0.2-0.1c-0.1,0-0.2,0-0.3,0.1
													c-0.1,0.1-0.3,0.2-0.5,0.5l-0.3-0.3c0.3-0.3,0.6-0.5,0.8-0.7C112.5,35,112.7,34.9,113,34.9L113,34.9z M96,34.9
													c0.2,0,0.4,0,0.6,0.1c0.2,0,0.4,0.1,0.6,0.3l0.5-0.3L98,35l-0.7,3.2c-0.1,0.3-0.1,0.6-0.1,0.7c0,0.1,0,0.2,0.1,0.3
													c0,0.1,0.1,0.1,0.2,0.1c0.1,0,0.2,0,0.3-0.1c0.1-0.1,0.3-0.2,0.5-0.5l0.3,0.3c-0.3,0.3-0.6,0.5-0.8,0.7
													c-0.2,0.1-0.4,0.2-0.7,0.2c-0.2,0-0.4-0.1-0.5-0.2s-0.2-0.3-0.2-0.5c0-0.2,0-0.4,0.1-0.6l-0.1,0c-0.3,0.5-0.6,0.8-0.9,1
													c-0.3,0.2-0.6,0.3-0.9,0.3c-0.4,0-0.7-0.1-0.9-0.4c-0.2-0.3-0.3-0.7-0.3-1.2c0-0.6,0.1-1.1,0.3-1.7
													c0.2-0.5,0.5-0.9,0.9-1.3C95.1,35.1,95.5,34.9,96,34.9L96,34.9z M81.3,34.9c0.2,0,0.4,0.1,0.5,0.2s0.2,0.3,0.2,0.5
													c0,0.2,0,0.4-0.1,0.6l0.1,0c0.3-0.5,0.6-0.8,0.9-1c0.3-0.2,0.6-0.3,0.9-0.3c0.3,0,0.5,0.1,0.7,0.3
													c0.2,0.2,0.3,0.4,0.3,0.7c0,0.2,0,0.5-0.1,0.9l-0.3,1.3c-0.1,0.4-0.1,0.6-0.1,0.8c0,0.1,0,0.2,0.1,0.3
													c0,0.1,0.1,0.1,0.2,0.1c0.1,0,0.2,0,0.3-0.1c0.1-0.1,0.3-0.2,0.5-0.5l0.3,0.3c-0.3,0.3-0.5,0.5-0.8,0.7
													c-0.2,0.1-0.5,0.2-0.7,0.2c-0.2,0-0.4-0.1-0.5-0.2c-0.1-0.2-0.2-0.4-0.2-0.6c0-0.2,0.1-0.5,0.2-1l0.2-0.9
													c0.1-0.3,0.1-0.5,0.2-0.7s0-0.3,0-0.4c0-0.2,0-0.4-0.1-0.5c-0.1-0.1-0.2-0.2-0.4-0.2c-0.1,0-0.3,0.1-0.5,0.2
													c-0.2,0.1-0.3,0.3-0.5,0.5c-0.2,0.2-0.3,0.4-0.4,0.7c-0.1,0.2-0.2,0.5-0.3,0.8l-0.5,2.2h-0.9l0.7-3.2
													c0.1-0.3,0.1-0.6,0.1-0.7c0-0.1,0-0.2-0.1-0.3c0-0.1-0.1-0.1-0.2-0.1c-0.1,0-0.2,0-0.3,0.1c-0.1,0.1-0.3,0.2-0.5,0.5
													l-0.3-0.3c0.3-0.3,0.6-0.5,0.8-0.7C80.8,35,81,34.9,81.3,34.9L81.3,34.9z M78,34.9c0.4,0,0.7,0.1,0.9,0.2
													c0.2,0.2,0.3,0.4,0.3,0.8c0,0.6-0.3,1-0.8,1.3c-0.5,0.3-1.3,0.4-2.4,0.4c0,0.2-0.1,0.4-0.1,0.7c0,0.4,0.1,0.6,0.2,0.8
													s0.4,0.2,0.7,0.2c0.3,0,0.6-0.1,0.8-0.2c0.2-0.1,0.5-0.3,0.8-0.6l0.3,0.3c-0.3,0.4-0.7,0.6-1,0.8
													c-0.3,0.2-0.7,0.3-1.2,0.3c-0.5,0-0.9-0.1-1.1-0.4c-0.3-0.3-0.4-0.7-0.4-1.2c0-0.4,0.1-0.7,0.2-1.1s0.3-0.8,0.6-1.1
													c0.3-0.3,0.6-0.6,0.9-0.8C77.2,35,77.6,34.9,78,34.9L78,34.9z M71.4,34.9c0.2,0,0.4,0.1,0.5,0.2s0.2,0.3,0.2,0.5
													c0,0.2,0,0.3-0.1,0.5l0.1,0c0.3-0.4,0.6-0.8,0.9-1s0.6-0.3,0.9-0.3c0.2,0,0.4,0,0.6,0.1l-0.2,1.1h-0.5
													c0-0.1,0-0.2-0.1-0.3c0-0.1-0.1-0.1-0.1-0.2c-0.1,0-0.1,0-0.2,0c-0.1,0-0.3,0.1-0.4,0.2c-0.1,0.1-0.3,0.3-0.5,0.5
													c-0.2,0.2-0.3,0.4-0.4,0.6c-0.1,0.2-0.2,0.5-0.3,0.8l-0.5,2.2h-0.9l0.7-3.2c0-0.2,0.1-0.4,0.1-0.5s0-0.2,0-0.3
													c0-0.1,0-0.2-0.1-0.3c0-0.1-0.1-0.1-0.2-0.1c-0.1,0-0.2,0-0.3,0.1c-0.1,0.1-0.3,0.2-0.5,0.5l-0.3-0.3
													c0.3-0.3,0.6-0.5,0.8-0.7C70.9,35,71.1,34.9,71.4,34.9L71.4,34.9z M68.1,34.9c0.4,0,0.7,0.1,0.9,0.2
													c0.2,0.2,0.3,0.4,0.3,0.8c0,0.6-0.3,1-0.8,1.3s-1.3,0.4-2.4,0.4c0,0.2-0.1,0.4-0.1,0.7c0,0.4,0.1,0.6,0.2,0.8
													s0.4,0.2,0.7,0.2c0.3,0,0.6-0.1,0.8-0.2s0.5-0.3,0.8-0.6l0.3,0.3c-0.3,0.4-0.7,0.6-1,0.8c-0.3,0.2-0.7,0.3-1.2,0.3
													c-0.5,0-0.9-0.1-1.1-0.4c-0.3-0.3-0.4-0.7-0.4-1.2c0-0.4,0.1-0.7,0.2-1.1s0.3-0.8,0.6-1.1c0.3-0.3,0.6-0.6,0.9-0.8
													C67.3,35,67.7,34.9,68.1,34.9L68.1,34.9z M100.6,33.8h0.7L101,35h1.5l-0.1,0.5h-1.5l-0.4,1.9c-0.1,0.4-0.1,0.6-0.2,0.8
													s0,0.3,0,0.4c0,0.4,0.2,0.6,0.5,0.6c0.1,0,0.3-0.1,0.5-0.2c0.2-0.1,0.4-0.3,0.6-0.6l0.3,0.3c-0.3,0.4-0.6,0.6-0.8,0.8
													s-0.5,0.3-0.8,0.3c-0.7,0-1-0.4-1-1.1c0-0.2,0-0.5,0.1-0.7l0.6-2.6h-0.8l0.1-0.3c0.2,0,0.3,0,0.4,0
													c0.1,0,0.2-0.1,0.3-0.1c0.1,0,0.1-0.1,0.2-0.2s0.1-0.2,0.2-0.3C100.4,34.3,100.5,34.1,100.6,33.8L100.6,33.8z
													 M87.5,33.8h0.7L88,35h1.5l-0.1,0.5h-1.5l-0.4,1.9c-0.1,0.4-0.1,0.6-0.2,0.8s0,0.3,0,0.4c0,0.4,0.2,0.6,0.5,0.6
													c0.1,0,0.3-0.1,0.5-0.2c0.2-0.1,0.4-0.3,0.6-0.6l0.3,0.3c-0.3,0.4-0.6,0.6-0.8,0.8s-0.5,0.3-0.8,0.3c-0.7,0-1-0.4-1-1.1
													c0-0.2,0-0.5,0.1-0.7l0.6-2.6h-0.8l0.1-0.3c0.2,0,0.3,0,0.4,0c0.1,0,0.2-0.1,0.3-0.1c0.1,0,0.1-0.1,0.2-0.2
													s0.1-0.2,0.2-0.3C87.4,34.3,87.4,34.1,87.5,33.8L87.5,33.8z M104.6,33h0.9l-0.2,1h-0.9L104.6,33L104.6,33z M91.6,33h0.9
													l-0.2,1h-0.9L91.6,33L91.6,33z M52.2,33h0.9l-0.2,1H52L52.2,33L52.2,33z M49.6,32.6h0.3l-1.2,5.5
													c-0.1,0.3-0.1,0.6-0.1,0.7c0,0.1,0,0.2,0.1,0.3c0,0.1,0.1,0.1,0.2,0.1c0.1,0,0.2,0,0.3-0.1c0.1-0.1,0.3-0.2,0.5-0.5
													l0.3,0.3c-0.3,0.3-0.6,0.6-0.8,0.7c-0.2,0.1-0.4,0.2-0.7,0.2c-0.2,0-0.4-0.1-0.5-0.2c-0.1-0.1-0.2-0.3-0.2-0.5
													c0-0.2,0-0.4,0.1-0.6l-0.1,0c-0.3,0.5-0.6,0.8-0.9,1c-0.3,0.2-0.6,0.3-0.9,0.3c-0.4,0-0.7-0.1-0.9-0.4
													c-0.2-0.3-0.3-0.7-0.3-1.2c0-0.6,0.1-1.1,0.3-1.7c0.2-0.5,0.5-0.9,0.9-1.3c0.4-0.3,0.8-0.5,1.3-0.5c0.2,0,0.4,0,0.6,0.1
													c0.2,0,0.3,0.1,0.5,0.2l0.3-1.2c0-0.1,0.1-0.2,0.1-0.4c0-0.1,0-0.3,0-0.4s0-0.2-0.1-0.2c0-0.1-0.1-0.1-0.2-0.1
													s-0.2,0-0.4-0.1l0.1-0.3L49.6,32.6L49.6,32.6z M63.9,32.6c0.3,0,0.6,0,0.8,0.1l-0.2,0.9h-0.4c0-0.2-0.1-0.3-0.2-0.4
													C63.8,33,63.7,33,63.5,33c-0.2,0-0.4,0.1-0.5,0.2c-0.1,0.1-0.2,0.3-0.3,0.5c-0.1,0.2-0.2,0.5-0.3,0.8L62.3,35h1.3
													l-0.1,0.5h-1.3l-0.9,4.4c-0.2,0.7-0.4,1.3-0.7,1.6S59.9,42,59.4,42c-0.1,0-0.3,0-0.3,0l0.1-0.4c0,0,0.1,0,0.2,0
													c0.2,0,0.3,0,0.4-0.1c0.1-0.1,0.2-0.2,0.3-0.4c0.1-0.2,0.2-0.5,0.3-0.8l1.1-4.8h-0.8l0.1-0.3c0.2,0,0.4,0,0.5-0.1
													c0.1,0,0.2-0.1,0.2-0.1s0.1-0.1,0.1-0.2c0-0.1,0.1-0.2,0.1-0.4c0.2-0.6,0.4-1.1,0.8-1.4S63.3,32.6,63.9,32.6L63.9,32.6z
													 M58.2,32.6c0.3,0,0.6,0,0.8,0.1l-0.2,0.9h-0.4c0-0.2-0.1-0.3-0.2-0.4C58.2,33,58.1,33,57.9,33c-0.2,0-0.4,0.1-0.5,0.2
													c-0.1,0.1-0.2,0.3-0.3,0.5c-0.1,0.2-0.2,0.5-0.3,0.8L56.7,35H58l-0.1,0.5h-1.3l-0.9,4.4c-0.2,0.7-0.4,1.3-0.7,1.6
													c-0.3,0.4-0.7,0.5-1.2,0.5c-0.1,0-0.3,0-0.3,0l0.1-0.4c0,0,0.1,0,0.2,0c0.2,0,0.3,0,0.4-0.1c0.1-0.1,0.2-0.2,0.3-0.4
													c0.1-0.2,0.2-0.5,0.3-0.8l1.1-4.8h-0.8l0.1-0.3c0.2,0,0.4,0,0.5-0.1c0.1,0,0.2-0.1,0.2-0.1c0.1,0,0.1-0.1,0.1-0.2
													s0.1-0.2,0.1-0.4c0.2-0.6,0.4-1.1,0.8-1.4S57.7,32.6,58.2,32.6L58.2,32.6z"/>
												<g class="st23">
													<defs>
														<polygon id="SVGID_23_" points="4.3,195.5 217.8,195.5 217.8,28.1 4.3,28.1 4.3,195.5 														"/>
													</defs>
													<clipPath id="SVGID_24_">
														<use xlink:href="#SVGID_23_"  style="overflow:visible;"/>
													</clipPath>
													<path class="st24" d="M132.5,187.3l-0.6,2.9c0.2,0,0.5,0,0.8,0c0.5,0,0.9-0.1,1.1-0.2c0.3-0.1,0.5-0.3,0.7-0.6
														c0.2-0.3,0.3-0.7,0.3-1.1c0-0.3-0.1-0.6-0.3-0.8s-0.6-0.3-1-0.3H132.5z M138.5,185.7c0.1,0,0.3,0,0.4,0.1
														c0.1,0,0.1,0.1,0.2,0.1c0.1,0.1,0.1,0.1,0.2,0.3c0.1,0.1,0.1,0.2,0.1,0.4c0,0.1,0.1,0.3,0.1,0.6
														c0.1,0.4,0.2,0.9,0.2,1.4c0.1,0.5,0.1,0.9,0.2,1.3c0.3-0.5,0.6-0.9,0.8-1.4c0.2-0.4,0.4-0.8,0.5-1.2
														c0.1-0.3,0.1-0.6,0.1-0.8c0-0.2,0-0.3-0.1-0.3s-0.2-0.1-0.3-0.1l0.1-0.2h1.3l0.1,0.3c-0.3,0.7-0.6,1.4-1,2.2
														c-0.4,0.8-0.9,1.5-1.5,2.3c-0.5,0.7-1,1.3-1.3,1.6c-0.2,0.2-0.5,0.4-0.7,0.5c-0.2,0.1-0.4,0.1-0.6,0.1
														c-0.1,0-0.2,0-0.2,0c-0.1,0-0.2,0-0.2,0l0.2-1h0.4c0,0.2,0.1,0.3,0.2,0.3c0.2,0,0.4-0.1,0.7-0.4
														c0.3-0.2,0.6-0.6,0.9-1.1c-0.1-0.6-0.2-1.3-0.4-2.1c-0.2-0.9-0.3-1.4-0.4-1.6c-0.1-0.3-0.1-0.4-0.2-0.5
														c0,0-0.1-0.1-0.2-0.1c-0.1,0-0.2,0-0.3,0.1c-0.1,0.1-0.2,0.2-0.3,0.5l-0.3-0.2c0.2-0.3,0.4-0.6,0.6-0.7
														C138,185.8,138.3,185.7,138.5,185.7L138.5,185.7z M134,184.2c-0.3,0-0.6,0-0.8,0l-0.6,2.6h0.7c0.4,0,0.7,0,0.9-0.1
														c0.2-0.1,0.4-0.2,0.6-0.3c0.2-0.2,0.3-0.3,0.4-0.5c0.1-0.2,0.1-0.4,0.1-0.7c0-0.1,0-0.3-0.1-0.4
														c-0.1-0.1-0.1-0.2-0.3-0.3c-0.1-0.1-0.3-0.2-0.4-0.2C134.5,184.2,134.3,184.2,134,184.2L134,184.2z M131.8,183.8h2.5
														c0.5,0,0.9,0.1,1.2,0.2c0.3,0.1,0.5,0.3,0.7,0.5c0.1,0.2,0.2,0.5,0.2,0.8c0,0.4-0.1,0.8-0.4,1.1
														c-0.3,0.3-0.7,0.6-1.2,0.7l0,0.1c0.3,0.1,0.5,0.3,0.7,0.5s0.3,0.5,0.3,0.8c0,0.4-0.1,0.8-0.3,1.1
														c-0.2,0.3-0.5,0.6-0.9,0.8c-0.4,0.2-1,0.3-1.8,0.3h-2.2l0.1-0.2c0.1,0,0.2-0.1,0.3-0.1c0.1,0,0.1-0.1,0.2-0.2
														c0-0.1,0.1-0.2,0.1-0.3c0-0.1,0.1-0.3,0.2-0.7l0.9-3.9c0.1-0.3,0.1-0.6,0.1-0.8c0-0.2,0-0.3-0.1-0.3
														c-0.1-0.1-0.2-0.1-0.4-0.1L131.8,183.8z"/>
													<g class="st25">
														<defs>
															<polygon id="SVGID_25_" points="4.3,195.5 217.8,195.5 217.8,28.1 4.3,28.1 4.3,195.5 															"/>
														</defs>
														<clipPath id="SVGID_26_">
															<use xlink:href="#SVGID_25_"  style="overflow:visible;"/>
														</clipPath>
														<path class="st26" d="M190.8,186.1c-0.3,0-0.6,0.1-0.9,0.4s-0.5,0.7-0.6,1.2c-0.1,0.5-0.2,1-0.2,1.4
															c0,0.4,0.1,0.6,0.2,0.8c0.2,0.2,0.4,0.3,0.7,0.3c0.3,0,0.6-0.1,0.9-0.4s0.5-0.7,0.6-1.2c0.1-0.5,0.2-1,0.2-1.4
															c0-0.4-0.1-0.6-0.2-0.8S191.1,186.1,190.8,186.1L190.8,186.1z M177.8,186.1c-0.3,0-0.7,0.1-0.9,0.4
															c-0.3,0.3-0.5,0.6-0.6,1.1c-0.2,0.5-0.2,0.9-0.2,1.4c0,0.3,0,0.6,0.1,0.8c0.1,0.2,0.3,0.3,0.5,0.3
															c0.2,0,0.4-0.1,0.6-0.3s0.4-0.5,0.7-0.8c0.2-0.4,0.4-0.8,0.5-1.2l0-0.2c0-0.1,0.1-0.3,0.1-0.4c0-0.1,0-0.2,0-0.3
															c0-0.3-0.1-0.4-0.2-0.6C178.2,186.2,178.1,186.1,177.8,186.1L177.8,186.1z M167.3,186.1c-0.3,0-0.6,0.1-0.9,0.4
															s-0.5,0.6-0.6,1.1s-0.2,0.9-0.2,1.4c0,0.3,0.1,0.6,0.2,0.8c0.1,0.2,0.3,0.3,0.5,0.3c0.2,0,0.3-0.1,0.5-0.2
															c0.2-0.1,0.3-0.3,0.5-0.6s0.3-0.5,0.4-0.7c0.1-0.2,0.2-0.5,0.3-0.9c0.1-0.3,0.1-0.6,0.1-0.9c0-0.3-0.1-0.4-0.2-0.6
															C167.7,186.2,167.5,186.1,167.3,186.1L167.3,186.1z M161.6,186.1c-0.3,0-0.7,0.2-1,0.5c-0.3,0.3-0.6,0.8-0.7,1.4
															c0.5,0,0.9,0,1.2-0.1c0.3-0.1,0.6-0.2,0.8-0.4c0.2-0.2,0.3-0.4,0.3-0.7c0-0.2,0-0.4-0.1-0.5
															C161.9,186.2,161.8,186.1,161.6,186.1L161.6,186.1z M186.4,185.8h0.3L186,189c-0.1,0.3-0.1,0.6-0.1,0.7
															c0,0.1,0,0.2,0.1,0.3c0,0.1,0.1,0.1,0.2,0.1c0.1,0,0.2,0,0.3-0.1s0.3-0.2,0.5-0.5l0.3,0.3c-0.3,0.3-0.6,0.6-0.8,0.7
															c-0.2,0.1-0.4,0.2-0.7,0.2c-0.2,0-0.4-0.1-0.5-0.2s-0.2-0.4-0.2-0.6c0-0.3,0-0.6,0.1-1l0.4-1.6
															c0.1-0.3,0.1-0.6,0.1-0.8c0-0.2,0-0.3-0.1-0.3c-0.1-0.1-0.2-0.1-0.4-0.1l0.1-0.3L186.4,185.8L186.4,185.8z
															 M147.3,185.8h0.3l-0.7,3.2c-0.1,0.3-0.1,0.6-0.1,0.7c0,0.1,0,0.2,0.1,0.3c0,0.1,0.1,0.1,0.2,0.1c0.1,0,0.2,0,0.3-0.1
															s0.3-0.2,0.5-0.5l0.3,0.3c-0.3,0.3-0.6,0.6-0.8,0.7c-0.2,0.1-0.4,0.2-0.7,0.2c-0.2,0-0.4-0.1-0.5-0.2
															s-0.2-0.4-0.2-0.6c0-0.3,0-0.6,0.1-1l0.4-1.6c0.1-0.3,0.1-0.6,0.1-0.8c0-0.2,0-0.3-0.1-0.3c-0.1-0.1-0.2-0.1-0.4-0.1
															l0.1-0.3L147.3,185.8L147.3,185.8z M190.9,185.7c0.5,0,0.9,0.1,1.2,0.4c0.3,0.3,0.4,0.7,0.4,1.3
															c0,0.4-0.1,0.8-0.2,1.2c-0.1,0.4-0.3,0.8-0.6,1.1c-0.2,0.3-0.5,0.5-0.8,0.7s-0.7,0.2-1.1,0.2c-0.5,0-0.9-0.1-1.2-0.4
															s-0.4-0.7-0.4-1.3c0-0.3,0-0.6,0.1-0.9c0.1-0.5,0.3-0.9,0.5-1.2c0.2-0.4,0.5-0.6,0.9-0.8
															C190.1,185.8,190.5,185.7,190.9,185.7L190.9,185.7z M194.7,185.7c0.2,0,0.4,0.1,0.5,0.2c0.1,0.1,0.2,0.3,0.2,0.5
															c0,0.2,0,0.4-0.1,0.6l0.1,0c0.3-0.5,0.6-0.8,0.9-1s0.6-0.3,0.9-0.3c0.3,0,0.5,0.1,0.7,0.3c0.2,0.2,0.3,0.4,0.3,0.7
															c0,0.2,0,0.5-0.1,0.9l-0.3,1.3c-0.1,0.4-0.1,0.6-0.1,0.8c0,0.1,0,0.2,0.1,0.3c0,0.1,0.1,0.1,0.2,0.1
															c0.1,0,0.2,0,0.3-0.1s0.3-0.2,0.5-0.5l0.3,0.3c-0.3,0.3-0.5,0.5-0.8,0.7s-0.5,0.2-0.7,0.2c-0.2,0-0.4-0.1-0.5-0.2
															s-0.2-0.4-0.2-0.6c0-0.2,0.1-0.5,0.2-1l0.2-0.9c0.1-0.3,0.1-0.5,0.2-0.7s0-0.3,0-0.4c0-0.2,0-0.4-0.1-0.5
															c-0.1-0.1-0.2-0.2-0.4-0.2c-0.1,0-0.3,0.1-0.5,0.2c-0.2,0.1-0.3,0.3-0.5,0.5c-0.2,0.2-0.3,0.4-0.4,0.7
															c-0.1,0.2-0.2,0.5-0.3,0.8l-0.5,2.2h-0.9l0.7-3.2c0.1-0.3,0.1-0.6,0.1-0.7c0-0.1,0-0.2-0.1-0.3s-0.1-0.1-0.2-0.1
															c-0.1,0-0.2,0-0.3,0.1c-0.1,0.1-0.3,0.2-0.5,0.5l-0.3-0.3c0.3-0.3,0.6-0.5,0.8-0.7
															C194.2,185.8,194.4,185.7,194.7,185.7L194.7,185.7z M177.7,185.7c0.2,0,0.4,0,0.6,0.1c0.2,0,0.4,0.1,0.6,0.3l0.5-0.3
															l0.3,0.1l-0.7,3.2c-0.1,0.3-0.1,0.6-0.1,0.7c0,0.1,0,0.2,0.1,0.3c0,0.1,0.1,0.1,0.2,0.1c0.1,0,0.2,0,0.3-0.1
															s0.3-0.2,0.5-0.5l0.3,0.3c-0.3,0.3-0.6,0.5-0.8,0.7s-0.4,0.2-0.7,0.2c-0.2,0-0.4-0.1-0.5-0.2
															c-0.1-0.1-0.2-0.3-0.2-0.5c0-0.2,0-0.4,0.1-0.6l-0.1,0c-0.3,0.5-0.6,0.8-0.9,1c-0.3,0.2-0.6,0.3-0.9,0.3
															c-0.4,0-0.7-0.1-0.9-0.4c-0.2-0.3-0.3-0.7-0.3-1.2c0-0.6,0.1-1.1,0.3-1.7c0.2-0.5,0.5-0.9,0.9-1.3
															C176.8,185.9,177.2,185.7,177.7,185.7L177.7,185.7z M171.3,185.7c0.2,0,0.4,0.1,0.5,0.2c0.1,0.1,0.2,0.3,0.2,0.5
															c0,0.2,0,0.3-0.1,0.5l0.1,0c0.3-0.4,0.6-0.8,0.9-1c0.3-0.2,0.6-0.3,0.9-0.3c0.2,0,0.4,0,0.6,0.1l-0.2,1.1h-0.5
															c0-0.1,0-0.2-0.1-0.3s-0.1-0.1-0.1-0.2s-0.1,0-0.2,0c-0.1,0-0.3,0.1-0.4,0.2c-0.1,0.1-0.3,0.3-0.5,0.5
															c-0.2,0.2-0.3,0.4-0.4,0.6c-0.1,0.2-0.2,0.5-0.3,0.8l-0.5,2.2h-0.9l0.7-3.2c0-0.2,0.1-0.4,0.1-0.5c0-0.1,0-0.2,0-0.3
															c0-0.1,0-0.2-0.1-0.3c0-0.1-0.1-0.1-0.2-0.1c-0.1,0-0.2,0-0.3,0.1c-0.1,0.1-0.3,0.2-0.5,0.5l-0.3-0.3
															c0.3-0.3,0.6-0.5,0.8-0.7S171.1,185.7,171.3,185.7L171.3,185.7z M167.2,185.7c0.2,0,0.4,0,0.6,0.1
															c0.2,0.1,0.4,0.1,0.6,0.3l0.5-0.3l0.3,0.1l-0.5,2.3c0,0.2-0.1,0.6-0.3,1.2c-0.1,0.7-0.2,1.2-0.3,1.5
															c-0.1,0.3-0.2,0.6-0.3,0.8c-0.1,0.2-0.3,0.4-0.5,0.6c-0.2,0.2-0.4,0.3-0.7,0.4c-0.3,0.1-0.6,0.1-1,0.1
															c-1.3,0-1.9-0.4-1.9-1.1c0-0.2,0.1-0.4,0.2-0.5c0.1-0.2,0.3-0.3,0.5-0.5l0.4,0.3c-0.1,0.1-0.1,0.2-0.2,0.2
															c0,0.1-0.1,0.1-0.1,0.2c0,0.1,0,0.2,0,0.3c0,0.3,0.1,0.4,0.3,0.5c0.2,0.1,0.5,0.2,0.8,0.2c0.4,0,0.7-0.1,1-0.3
															s0.5-0.5,0.6-0.9c0.2-0.4,0.3-1,0.5-1.9l-0.1,0c-0.3,0.4-0.6,0.8-0.9,1c-0.3,0.2-0.6,0.3-0.9,0.3
															c-0.4,0-0.6-0.1-0.8-0.4s-0.3-0.7-0.3-1.2c0-0.6,0.1-1.1,0.3-1.6c0.2-0.5,0.5-0.9,0.9-1.3S166.7,185.7,167.2,185.7
															L167.2,185.7z M161.8,185.7c0.4,0,0.7,0.1,0.9,0.2c0.2,0.2,0.3,0.4,0.3,0.8c0,0.6-0.3,1-0.8,1.3
															c-0.5,0.3-1.3,0.4-2.4,0.4c0,0.2-0.1,0.4-0.1,0.7c0,0.4,0.1,0.6,0.2,0.8c0.1,0.2,0.4,0.2,0.7,0.2
															c0.3,0,0.6-0.1,0.8-0.2c0.2-0.1,0.5-0.3,0.8-0.6l0.3,0.3c-0.3,0.4-0.7,0.6-1,0.8c-0.3,0.2-0.7,0.3-1.2,0.3
															c-0.5,0-0.9-0.1-1.1-0.4c-0.3-0.3-0.4-0.7-0.4-1.2c0-0.4,0.1-0.7,0.2-1.1s0.3-0.8,0.6-1.1c0.3-0.3,0.6-0.6,0.9-0.8
															C161,185.8,161.4,185.7,161.8,185.7L161.8,185.7z M150.1,185.7c0.2,0,0.4,0.1,0.5,0.2c0.1,0.1,0.2,0.3,0.2,0.5
															c0,0.2,0,0.4-0.1,0.6l0.1,0c0.3-0.5,0.6-0.8,0.9-1s0.6-0.3,0.9-0.3c0.3,0,0.5,0.1,0.7,0.3c0.2,0.2,0.3,0.4,0.3,0.7
															c0,0.2,0,0.5-0.1,0.9l-0.3,1.3c-0.1,0.4-0.1,0.6-0.1,0.8c0,0.1,0,0.2,0.1,0.3c0,0.1,0.1,0.1,0.2,0.1
															c0.1,0,0.2,0,0.3-0.1s0.3-0.2,0.5-0.5l0.3,0.3c-0.3,0.3-0.5,0.5-0.8,0.7s-0.5,0.2-0.7,0.2c-0.2,0-0.4-0.1-0.5-0.2
															s-0.2-0.4-0.2-0.6c0-0.2,0.1-0.5,0.2-1l0.2-0.9c0.1-0.3,0.1-0.5,0.2-0.7s0-0.3,0-0.4c0-0.2,0-0.4-0.1-0.5
															c-0.1-0.1-0.2-0.2-0.4-0.2c-0.1,0-0.3,0.1-0.5,0.2c-0.2,0.1-0.3,0.3-0.5,0.5c-0.2,0.2-0.3,0.4-0.4,0.7
															c-0.1,0.2-0.2,0.5-0.3,0.8l-0.5,2.2h-0.9l0.7-3.2c0.1-0.3,0.1-0.6,0.1-0.7c0-0.1,0-0.2-0.1-0.3s-0.1-0.1-0.2-0.1
															c-0.1,0-0.2,0-0.3,0.1c-0.1,0.1-0.3,0.2-0.5,0.5l-0.3-0.3c0.3-0.3,0.6-0.5,0.8-0.7
															C149.6,185.8,149.8,185.7,150.1,185.7L150.1,185.7z M182.3,184.6h0.7l-0.3,1.2h1.5l-0.1,0.5h-1.5l-0.4,1.9
															c-0.1,0.4-0.1,0.6-0.2,0.8c0,0.2,0,0.3,0,0.4c0,0.4,0.2,0.6,0.5,0.6c0.1,0,0.3-0.1,0.5-0.2c0.2-0.1,0.4-0.3,0.6-0.6
															l0.3,0.3c-0.3,0.4-0.6,0.6-0.8,0.8s-0.5,0.3-0.8,0.3c-0.7,0-1-0.4-1-1.1c0-0.2,0-0.5,0.1-0.7l0.6-2.6h-0.8l0.1-0.3
															c0.2,0,0.3,0,0.4,0c0.1,0,0.2-0.1,0.3-0.1s0.1-0.1,0.2-0.2s0.1-0.2,0.2-0.3C182.1,185.1,182.2,184.9,182.3,184.6
															L182.3,184.6z M156.3,184.6h0.7l-0.3,1.2h1.5l-0.1,0.5h-1.5l-0.4,1.9c-0.1,0.4-0.1,0.6-0.2,0.8c0,0.2,0,0.3,0,0.4
															c0,0.4,0.2,0.6,0.5,0.6c0.1,0,0.3-0.1,0.5-0.2c0.2-0.1,0.4-0.3,0.6-0.6l0.3,0.3c-0.3,0.4-0.6,0.6-0.8,0.8
															s-0.5,0.3-0.8,0.3c-0.7,0-1-0.4-1-1.1c0-0.2,0-0.5,0.1-0.7l0.6-2.6h-0.8l0.1-0.3c0.2,0,0.3,0,0.4,0
															c0.1,0,0.2-0.1,0.3-0.1s0.1-0.1,0.2-0.2s0.1-0.2,0.2-0.3S156.2,184.9,156.3,184.6L156.3,184.6z M186.3,183.8h0.9
															l-0.2,1h-0.9L186.3,183.8L186.3,183.8z M147.1,183.8h0.9l-0.2,1h-0.9L147.1,183.8L147.1,183.8z"/>
													</g>
												</g>
											</g>
										</g>
									</g>
								</g>
							</g>
						</g>
					</g>
				</g>
			</g>
		</g>
	</g>
</g>
</svg>
