<?xml version="1.0" encoding="utf-8"?>
<!-- Generator: Adobe Illustrator 23.0.2, SVG Export Plug-In . SVG Version: 6.00 Build 0)  -->
<svg version="1.0" id="Layer_1" xmlns="http://www.w3.org/2000/svg" xmlns:xlink="http://www.w3.org/1999/xlink" x="0px" y="0px"
	 viewBox="0 0 220 220" style="enable-background:new 0 0 220 220;" xml:space="preserve">
<style type="text/css">
	.st0{fill-rule:evenodd;clip-rule:evenodd;}
	.st1{fill:none;stroke:#0303C3;stroke-width:1.708;stroke-miterlimit:8;}
	.st2{fill:#0303C3;}
	.st3{clip-path:url(#SVGID_2_);fill-rule:evenodd;clip-rule:evenodd;}
	.st4{clip-path:url(#SVGID_2_);}
	.st5{clip-path:url(#SVGID_4_);fill-rule:evenodd;clip-rule:evenodd;}
	.st6{clip-path:url(#SVGID_4_);}
	.st7{clip-path:url(#SVGID_6_);fill-rule:evenodd;clip-rule:evenodd;}
	.st8{clip-path:url(#SVGID_6_);}
	.st9{clip-path:url(#SVGID_8_);fill-rule:evenodd;clip-rule:evenodd;}
	.st10{clip-path:url(#SVGID_8_);}
	.st11{clip-path:url(#SVGID_10_);fill-rule:evenodd;clip-rule:evenodd;}
	.st12{clip-path:url(#SVGID_10_);}
	.st13{clip-path:url(#SVGID_12_);fill-rule:evenodd;clip-rule:evenodd;}
	.st14{clip-path:url(#SVGID_12_);}
	.st15{clip-path:url(#SVGID_14_);fill-rule:evenodd;clip-rule:evenodd;}
	.st16{clip-path:url(#SVGID_14_);}
	.st17{clip-path:url(#SVGID_16_);fill-rule:evenodd;clip-rule:evenodd;}
	.st18{clip-path:url(#SVGID_16_);}
	.st19{clip-path:url(#SVGID_18_);}
	.st20{clip-path:url(#SVGID_20_);}
	.st21{clip-path:url(#SVGID_22_);}
	.st22{clip-path:url(#SVGID_24_);}
</style>
<g>
	<path class="st0" d="M18.1,116c0.7,0,1.2,0.1,1.7,0.2l-0.4,1.7h-0.9c-0.1-0.4-0.2-0.7-0.4-0.8c-0.2-0.2-0.4-0.3-0.7-0.3
		c-0.4,0-0.7,0.1-1,0.3c-0.3,0.2-0.5,0.5-0.7,0.9s-0.4,1-0.5,1.7l-0.3,1.1h2.6l-0.2,1h-2.6l-1.9,8.7c-0.3,1.4-0.8,2.5-1.4,3.2
		c-0.6,0.7-1.4,1.1-2.4,1.1c-0.3,0-0.5,0-0.7-0.1l0.2-0.9c0.1,0,0.2,0,0.5,0c0.3,0,0.6-0.1,0.8-0.2c0.2-0.2,0.4-0.4,0.6-0.8
		c0.2-0.4,0.4-0.9,0.5-1.6l2.2-9.5h-1.7l0.2-0.7c0.4,0,0.8-0.1,1-0.1s0.4-0.1,0.5-0.2c0.1-0.1,0.2-0.2,0.3-0.4
		c0.1-0.2,0.2-0.4,0.3-0.8c0.4-1.2,0.9-2.1,1.6-2.7C16.1,116.3,17,116,18.1,116L18.1,116z"/>
	<path class="st0" d="M28.5,116l0.3,0.8c-1.6,0.5-2.7,1.5-3.5,3c-0.8,1.5-1.1,3.4-1.1,5.6c0,2.3,0.4,4.3,1.1,5.8
		c0.8,1.5,1.9,2.5,3.4,3l-0.2,0.8c-2-0.5-3.5-1.6-4.5-3.3c-1-1.7-1.6-3.8-1.6-6.2c0-2.4,0.5-4.5,1.6-6.2S26.5,116.5,28.5,116
		L28.5,116z"/>
	<path class="st0" d="M33.1,120.7c0.2,0,0.4,0,0.5,0.1s0.3,0.1,0.4,0.2c0.1,0.1,0.2,0.2,0.3,0.4c0.1,0.2,0.2,0.4,0.3,0.6
		s0.2,0.6,0.2,1s0.1,0.8,0.2,1.2h0.1c0.6-0.9,1.1-1.6,1.5-2c0.3-0.4,0.6-0.7,0.8-0.9c0.2-0.2,0.4-0.3,0.7-0.4
		c0.2-0.1,0.5-0.1,0.8-0.1c0.3,0,0.6,0,0.8,0.1l-0.4,1.8h-0.7c0-0.3-0.2-0.4-0.4-0.4c-0.1,0-0.1,0-0.2,0c-0.1,0-0.1,0.1-0.2,0.1
		c-0.1,0.1-0.2,0.2-0.4,0.4c-0.2,0.2-0.4,0.4-0.6,0.7c-0.2,0.3-0.5,0.6-0.7,0.9l-0.7,0.9c0.1,0.6,0.2,1.2,0.3,1.7s0.2,0.9,0.3,1.2
		c0.1,0.3,0.2,0.6,0.2,0.7s0.1,0.3,0.2,0.4c0.1,0.1,0.1,0.2,0.2,0.2c0.1,0,0.2,0.1,0.3,0.1c0.2,0,0.4-0.1,0.5-0.2s0.4-0.5,0.7-1
		l0.7,0.4c-0.5,0.7-0.9,1.2-1.3,1.5s-0.8,0.4-1.3,0.4c-0.3,0-0.5-0.1-0.7-0.2s-0.4-0.3-0.5-0.5c-0.1-0.2-0.3-0.6-0.4-1.1
		c-0.2-0.9-0.3-1.5-0.4-2h-0.1c-0.7,1-1.2,1.7-1.6,2.1s-0.6,0.8-0.9,1s-0.4,0.4-0.7,0.4c-0.2,0.1-0.5,0.1-0.8,0.1
		c-0.3,0-0.6,0-0.8-0.1l0.4-1.8h0.7c0,0.3,0.2,0.4,0.4,0.4c0.1,0,0.2,0,0.3-0.1c0.1-0.1,0.3-0.2,0.4-0.4c0.2-0.2,0.5-0.5,0.8-0.9
		c0.3-0.4,0.8-1,1.5-1.8c-0.1-0.5-0.2-1-0.3-1.5c-0.1-0.5-0.2-0.9-0.3-1.4c-0.1-0.4-0.2-0.7-0.3-0.8c-0.1-0.1-0.2-0.2-0.2-0.3
		c-0.1-0.1-0.2-0.1-0.3-0.1c-0.1,0-0.3,0-0.4,0.1c-0.1,0.1-0.2,0.2-0.4,0.3c-0.1,0.2-0.3,0.4-0.5,0.7l-0.7-0.4
		c0.4-0.6,0.8-1.1,1.2-1.4C32.1,120.8,32.6,120.7,33.1,120.7L33.1,120.7z"/>
	<path class="st0" d="M41.3,116c1.9,0.5,3.4,1.6,4.5,3.3s1.6,3.8,1.6,6.2c0,2.4-0.5,4.5-1.6,6.2c-1,1.7-2.5,2.8-4.5,3.3l-0.2-0.8
		c1.5-0.5,2.7-1.5,3.4-3s1.1-3.4,1.1-5.8c0-2.3-0.4-4.1-1.1-5.6c-0.7-1.5-1.9-2.5-3.5-3L41.3,116z"/>
	<g>
		<g>
			<path class="st1" d="M35.9,112.8c-0.2-35.2,30.5-64,68.5-64.2c14-0.1,27.5,3.8,38.9,10.9"/>
			<g>
				<path class="st2" d="M140.7,57.9l0.7-7.2l0.3,0l5.7,9.2c2.3,2.7,4.7,5.4,7,8.1c-3.3-1.5-6.5-2.9-9.8-4.4l-10.4-2.8l-0.1-0.2
					L140.7,57.9z"/>
			</g>
		</g>
	</g>
	<g>
		<defs>
			<polyline id="SVGID_1_" points="217.8,195.5 217.8,28.1 4.3,28.1 4.3,195.5 4.3,195.5 			"/>
		</defs>
		<clipPath id="SVGID_2_">
			<use xlink:href="#SVGID_1_"  style="overflow:visible;"/>
		</clipPath>
		<path class="st3" d="M139.7,80.2c-0.7,0-1.3,0.3-1.8,0.8c-0.5,0.6-1,1.3-1.3,2.2c-0.3,0.9-0.5,1.9-0.5,2.8c0,0.7,0.1,1.2,0.3,1.6
			s0.5,0.5,1,0.5c0.2,0,0.4,0,0.6-0.1s0.4-0.2,0.7-0.4c0.2-0.2,0.5-0.4,0.7-0.7c0.2-0.3,0.4-0.6,0.6-0.9c0.2-0.3,0.4-0.6,0.5-1
			c0.2-0.4,0.3-0.9,0.4-1.4l0.1-0.4c0.1-0.5,0.2-0.9,0.2-1.4c0-0.5-0.1-0.9-0.3-1.1C140.6,80.3,140.2,80.2,139.7,80.2L139.7,80.2z
			 M143.9,74.8h0.6L142,85.9c-0.1,0.7-0.2,1.1-0.2,1.5c0,0.3,0,0.5,0.1,0.6c0.1,0.1,0.2,0.2,0.4,0.2c0.2,0,0.4-0.1,0.6-0.2
			c0.2-0.2,0.5-0.5,1-0.9l0.6,0.6c-0.6,0.6-1.1,1.1-1.6,1.4c-0.4,0.3-0.9,0.4-1.4,0.4c-0.4,0-0.7-0.1-1-0.4
			c-0.2-0.3-0.4-0.6-0.4-1.1c0-0.4,0.1-0.8,0.2-1.2l-0.1,0c-0.6,0.9-1.2,1.6-1.8,2.1c-0.6,0.4-1.2,0.7-1.8,0.7
			c-0.7,0-1.3-0.3-1.7-0.8c-0.4-0.6-0.6-1.3-0.6-2.3c0-1.1,0.2-2.3,0.7-3.3s1.1-1.9,1.9-2.5s1.7-0.9,2.6-0.9c0.4,0,0.8,0,1.1,0.1
			c0.3,0.1,0.7,0.2,1.1,0.4l0.5-2.3c0.1-0.2,0.1-0.5,0.1-0.7c0-0.3,0.1-0.5,0.1-0.7c0-0.2,0-0.4-0.1-0.5c-0.1-0.1-0.2-0.2-0.3-0.2
			c-0.1,0-0.4-0.1-0.7-0.1l0.1-0.5L143.9,74.8L143.9,74.8z"/>
		<g class="st4">
			<defs>
				<polyline id="SVGID_3_" points="217.8,195.5 217.8,28.1 4.3,28.1 4.3,195.5 4.3,195.5 				"/>
			</defs>
			<clipPath id="SVGID_4_">
				<use xlink:href="#SVGID_3_"  style="overflow:visible;"/>
			</clipPath>
			<path class="st5" d="M153.7,74.7l0.3,0.8c-1.6,0.5-2.7,1.5-3.5,3s-1.1,3.4-1.1,5.6c0,2.3,0.4,4.3,1.1,5.8s1.9,2.5,3.4,3l-0.2,0.8
				c-2-0.5-3.5-1.6-4.5-3.3c-1-1.7-1.6-3.8-1.6-6.2c0-2.4,0.5-4.5,1.6-6.2C150.3,76.3,151.8,75.2,153.7,74.7L153.7,74.7z"/>
			<g class="st6">
				<defs>
					<polyline id="SVGID_5_" points="217.8,195.5 217.8,28.1 4.3,28.1 4.3,195.5 4.3,195.5 					"/>
				</defs>
				<clipPath id="SVGID_6_">
					<use xlink:href="#SVGID_5_"  style="overflow:visible;"/>
				</clipPath>
				<path class="st7" d="M163.8,74.8c0.7,0,1.2,0.1,1.7,0.2l-0.4,1.7h-0.9c-0.1-0.4-0.2-0.7-0.4-0.8c-0.2-0.2-0.4-0.3-0.7-0.3
					c-0.4,0-0.7,0.1-1,0.3c-0.3,0.2-0.5,0.5-0.7,0.9s-0.4,1-0.5,1.7l-0.3,1.1h2.6l-0.2,1h-2.6l-1.9,8.7c-0.3,1.4-0.8,2.5-1.4,3.2
					c-0.6,0.7-1.4,1.1-2.4,1.1c-0.3,0-0.5,0-0.7-0.1l0.2-0.9c0.1,0,0.2,0,0.5,0c0.3,0,0.6-0.1,0.8-0.2c0.2-0.2,0.4-0.4,0.6-0.8
					c0.2-0.4,0.4-0.9,0.5-1.6l2.2-9.5h-1.7l0.2-0.7c0.4,0,0.8-0.1,1-0.1s0.4-0.1,0.5-0.2c0.1-0.1,0.2-0.2,0.3-0.4s0.2-0.4,0.3-0.8
					c0.4-1.2,0.9-2.1,1.6-2.7C161.7,75.1,162.7,74.8,163.8,74.8L163.8,74.8z"/>
				<g class="st8">
					<defs>
						<polyline id="SVGID_7_" points="217.8,195.5 217.8,28.1 4.3,28.1 4.3,195.5 4.3,195.5 						"/>
					</defs>
					<clipPath id="SVGID_8_">
						<use xlink:href="#SVGID_7_"  style="overflow:visible;"/>
					</clipPath>
					<path class="st9" d="M187,73.8c1.9,0.5,3.4,1.6,4.5,3.3c1,1.7,1.6,3.8,1.6,6.2c0,2.4-0.5,4.5-1.6,6.2c-1,1.7-2.5,2.8-4.5,3.3
						l-0.2-0.8c1.5-0.5,2.7-1.5,3.4-3s1.1-3.4,1.1-5.8c0-2.3-0.4-4.1-1.1-5.6c-0.7-1.5-1.9-2.5-3.5-3L187,73.8z M174.1,73.8l0.3,0.8
						c-1.6,0.5-2.7,1.5-3.5,3s-1.1,3.4-1.1,5.6c0,2.3,0.4,4.3,1.1,5.8s1.9,2.5,3.4,3l-0.2,0.8c-2-0.5-3.5-1.6-4.5-3.3
						s-1.6-3.8-1.6-6.2c0-2.4,0.5-4.5,1.6-6.2C170.6,75.4,172.1,74.3,174.1,73.8L174.1,73.8z"/>
					<g class="st10">
						<defs>
							<polyline id="SVGID_9_" points="217.8,195.5 217.8,28.1 4.3,28.1 4.3,195.5 4.3,195.5 							"/>
						</defs>
						<clipPath id="SVGID_10_">
							<use xlink:href="#SVGID_9_"  style="overflow:visible;"/>
						</clipPath>
						<path class="st11" d="M178.7,79.4c0.2,0,0.4,0,0.5,0.1s0.3,0.1,0.4,0.2c0.1,0.1,0.2,0.2,0.3,0.4s0.2,0.4,0.3,0.6
							c0.1,0.3,0.2,0.6,0.2,1s0.1,0.8,0.2,1.2h0.1c0.6-0.9,1.1-1.6,1.5-2c0.3-0.4,0.6-0.7,0.8-0.9s0.4-0.3,0.7-0.4
							c0.2-0.1,0.5-0.1,0.8-0.1c0.3,0,0.6,0,0.8,0.1l-0.4,1.8h-0.7c0-0.3-0.2-0.4-0.4-0.4c-0.1,0-0.1,0-0.2,0
							c-0.1,0-0.1,0.1-0.2,0.1s-0.2,0.2-0.4,0.4c-0.2,0.2-0.4,0.4-0.6,0.7c-0.2,0.3-0.5,0.6-0.7,0.9l-0.7,0.9
							c0.1,0.6,0.2,1.2,0.3,1.7c0.1,0.5,0.2,0.9,0.3,1.2c0.1,0.3,0.2,0.6,0.2,0.7c0.1,0.2,0.1,0.3,0.2,0.4s0.1,0.2,0.2,0.2
							c0.1,0,0.2,0.1,0.3,0.1c0.2,0,0.4-0.1,0.5-0.2c0.2-0.1,0.4-0.5,0.7-1l0.7,0.4c-0.5,0.7-0.9,1.2-1.3,1.5
							c-0.4,0.3-0.8,0.4-1.3,0.4c-0.3,0-0.5-0.1-0.7-0.2s-0.4-0.3-0.5-0.5c-0.1-0.2-0.3-0.6-0.4-1.1c-0.2-0.9-0.3-1.5-0.4-2h-0.1
							c-0.7,1-1.2,1.7-1.6,2.1c-0.3,0.4-0.6,0.8-0.9,1c-0.2,0.2-0.4,0.4-0.7,0.4c-0.2,0.1-0.5,0.1-0.8,0.1c-0.3,0-0.6,0-0.8-0.1
							l0.4-1.8h0.7c0,0.3,0.2,0.4,0.4,0.4c0.1,0,0.2,0,0.3-0.1c0.1-0.1,0.3-0.2,0.4-0.4c0.2-0.2,0.5-0.5,0.8-0.9
							c0.3-0.4,0.8-1,1.5-1.8c-0.1-0.5-0.2-1-0.3-1.5c-0.1-0.5-0.2-0.9-0.3-1.4c-0.1-0.4-0.2-0.7-0.3-0.8c-0.1-0.1-0.2-0.2-0.2-0.3
							c-0.1-0.1-0.2-0.1-0.3-0.1c-0.1,0-0.3,0-0.4,0.1c-0.1,0.1-0.2,0.2-0.4,0.3c-0.1,0.2-0.3,0.4-0.5,0.7l-0.7-0.4
							c0.4-0.6,0.8-1.1,1.2-1.4C177.7,79.6,178.2,79.4,178.7,79.4L178.7,79.4z"/>
						<g class="st12">
							<defs>
								<polyline id="SVGID_11_" points="217.8,195.5 217.8,28.1 4.3,28.1 4.3,195.5 4.3,195.5 								"/>
							</defs>
							<clipPath id="SVGID_12_">
								<use xlink:href="#SVGID_11_"  style="overflow:visible;"/>
							</clipPath>
							<path class="st13" d="M195.5,74.7c1.9,0.5,3.4,1.6,4.5,3.3c1,1.7,1.6,3.8,1.6,6.2c0,2.4-0.5,4.5-1.6,6.2
								c-1,1.7-2.5,2.8-4.5,3.3l-0.2-0.8c1.5-0.5,2.7-1.5,3.4-3s1.1-3.4,1.1-5.8c0-2.3-0.4-4.1-1.1-5.6c-0.7-1.5-1.9-2.5-3.5-3
								L195.5,74.7z"/>
							<g class="st14">
								<defs>
									<polyline id="SVGID_13_" points="217.8,195.5 217.8,28.1 4.3,28.1 4.3,195.5 4.3,195.5 									"/>
								</defs>
								<clipPath id="SVGID_14_">
									<use xlink:href="#SVGID_13_"  style="overflow:visible;"/>
								</clipPath>
								<path class="st15" d="M163,109.5c-0.7,0-1.3,0.3-1.8,0.8c-0.5,0.6-1,1.3-1.3,2.2c-0.3,0.9-0.5,1.9-0.5,2.8
									c0,0.7,0.1,1.2,0.3,1.6c0.2,0.3,0.5,0.5,1,0.5c0.2,0,0.4,0,0.6-0.1c0.2-0.1,0.4-0.2,0.7-0.4c0.2-0.2,0.5-0.4,0.7-0.7
									s0.4-0.6,0.6-0.9s0.4-0.6,0.5-1c0.2-0.4,0.3-0.9,0.4-1.4l0.1-0.4c0.1-0.5,0.2-0.9,0.2-1.4c0-0.5-0.1-0.9-0.3-1.1
									C163.9,109.6,163.5,109.5,163,109.5L163,109.5z M172.4,108.7c0.2,0,0.4,0,0.5,0.1s0.3,0.1,0.4,0.2c0.1,0.1,0.2,0.2,0.3,0.4
									c0.1,0.2,0.2,0.4,0.3,0.6c0.1,0.3,0.2,0.6,0.2,1s0.1,0.8,0.2,1.2h0.1c0.6-0.9,1.1-1.6,1.5-2c0.3-0.4,0.6-0.7,0.8-0.9
									c0.2-0.2,0.4-0.3,0.7-0.4s0.5-0.1,0.8-0.1c0.3,0,0.6,0,0.8,0.1l-0.4,1.8H178c0-0.3-0.2-0.4-0.4-0.4c-0.1,0-0.1,0-0.2,0
									s-0.1,0.1-0.2,0.1s-0.2,0.2-0.4,0.4c-0.2,0.2-0.4,0.4-0.6,0.7c-0.2,0.3-0.5,0.6-0.7,0.9l-0.7,0.9c0.1,0.6,0.2,1.2,0.3,1.7
									c0.1,0.5,0.2,0.9,0.3,1.2c0.1,0.3,0.2,0.6,0.2,0.7c0.1,0.2,0.1,0.3,0.2,0.4s0.1,0.2,0.2,0.2c0.1,0,0.2,0.1,0.3,0.1
									c0.2,0,0.4-0.1,0.5-0.2s0.4-0.5,0.7-1l0.7,0.4c-0.5,0.7-0.9,1.2-1.3,1.5c-0.4,0.3-0.8,0.4-1.3,0.4c-0.3,0-0.5-0.1-0.7-0.2
									s-0.4-0.3-0.5-0.5c-0.1-0.2-0.3-0.6-0.4-1.1c-0.2-0.9-0.3-1.5-0.4-2h-0.1c-0.7,1-1.2,1.7-1.6,2.1c-0.3,0.4-0.6,0.8-0.9,1
									c-0.2,0.2-0.4,0.4-0.7,0.4c-0.2,0.1-0.5,0.1-0.8,0.1c-0.3,0-0.6,0-0.8-0.1l0.4-1.8h0.7c0,0.3,0.2,0.4,0.4,0.4
									c0.1,0,0.2,0,0.3-0.1c0.1-0.1,0.3-0.2,0.4-0.4c0.2-0.2,0.5-0.5,0.8-0.9c0.3-0.4,0.8-1,1.5-1.8c-0.1-0.5-0.2-1-0.3-1.5
									c-0.1-0.5-0.2-0.9-0.3-1.4s-0.2-0.7-0.3-0.8c-0.1-0.1-0.2-0.2-0.2-0.3c-0.1-0.1-0.2-0.1-0.3-0.1c-0.1,0-0.3,0-0.4,0.1
									c-0.1,0.1-0.2,0.2-0.4,0.3c-0.1,0.2-0.3,0.4-0.5,0.7l-0.7-0.4c0.4-0.6,0.8-1.1,1.2-1.4C171.4,108.8,171.9,108.7,172.4,108.7
									L172.4,108.7z M167.2,104.1h0.6l-2.5,11.1c-0.1,0.7-0.2,1.1-0.2,1.5c0,0.3,0,0.5,0.1,0.6c0.1,0.1,0.2,0.2,0.4,0.2
									c0.2,0,0.4-0.1,0.6-0.2s0.5-0.5,1-0.9l0.6,0.6c-0.6,0.6-1.1,1.1-1.6,1.4c-0.4,0.3-0.9,0.4-1.4,0.4c-0.4,0-0.7-0.1-1-0.4
									c-0.2-0.3-0.4-0.6-0.4-1.1c0-0.4,0.1-0.8,0.2-1.2l-0.1,0c-0.6,0.9-1.2,1.6-1.8,2.1s-1.2,0.7-1.8,0.7c-0.7,0-1.3-0.3-1.7-0.8
									s-0.6-1.3-0.6-2.3c0-1.1,0.2-2.3,0.7-3.3s1.1-1.9,1.9-2.5c0.8-0.6,1.7-0.9,2.6-0.9c0.4,0,0.8,0,1.1,0.1
									c0.3,0.1,0.7,0.2,1.1,0.4l0.5-2.3c0.1-0.2,0.1-0.5,0.1-0.7c0-0.3,0.1-0.5,0.1-0.7c0-0.2,0-0.4-0.1-0.5s-0.2-0.2-0.3-0.2
									c-0.1,0-0.4-0.1-0.7-0.1l0.1-0.5L167.2,104.1L167.2,104.1z"/>
								<g class="st16">
									<defs>
										<polyline id="SVGID_15_" points="217.8,195.5 217.8,28.1 4.3,28.1 4.3,195.5 4.3,195.5 										"/>
									</defs>
									<clipPath id="SVGID_16_">
										<use xlink:href="#SVGID_15_"  style="overflow:visible;"/>
									</clipPath>
									<polygon class="st17" points="133.3,98.2 150.8,98.2 168.3,98.2 185.8,98.2 203.2,98.2 203.2,99.5 185.8,99.5 168.3,99.5 
										150.8,99.5 133.3,99.5 133.3,98.2 									"/>
									<g class="st18">
										<defs>
											<polyline id="SVGID_17_" points="217.8,195.5 217.8,28.1 4.3,28.1 4.3,195.5 4.3,195.5 											"/>
										</defs>
										<clipPath id="SVGID_18_">
											<use xlink:href="#SVGID_17_"  style="overflow:visible;"/>
										</clipPath>
										<g class="st19">
											<g>
												<path class="st1" d="M172.5,125.4c-6.6,34.6-42.3,56.9-79.7,49.7c-16.2-3.1-30.7-11.5-41-23.3"/>
												<g>
													<path class="st2" d="M53.9,154.1l-2.8,6.7l-0.2-0.1l-2.7-10.5c-1.4-3.3-2.9-6.6-4.3-9.8c2.7,2.4,5.4,4.7,8,7.1l9.1,5.8
														l0,0.2L53.9,154.1z"/>
												</g>
											</g>
										</g>
										<g class="st19">
											<defs>
												<polyline id="SVGID_19_" points="217.8,195.5 217.8,28.1 4.3,28.1 4.3,195.5 4.3,195.5 												"/>
											</defs>
											<clipPath id="SVGID_20_">
												<use xlink:href="#SVGID_19_"  style="overflow:visible;"/>
											</clipPath>
											<g class="st20">
												<defs>
													<polyline id="SVGID_21_" points="217.8,195.5 217.8,28.1 4.3,28.1 4.3,195.5 4.3,195.5 													"/>
												</defs>
												<clipPath id="SVGID_22_">
													<use xlink:href="#SVGID_21_"  style="overflow:visible;"/>
												</clipPath>
												<g class="st21">
													<defs>
														<polyline id="SVGID_23_" points="217.8,195.5 217.8,28.1 4.3,28.1 4.3,195.5 4.3,195.5 														"/>
													</defs>
													<clipPath id="SVGID_24_">
														<use xlink:href="#SVGID_23_"  style="overflow:visible;"/>
													</clipPath>
													<g class="st22">
														<defs>
															<polyline id="SVGID_25_" points="217.8,195.5 217.8,28.1 4.3,28.1 4.3,195.5 4.3,195.5 															"/>
														</defs>
														<clipPath id="SVGID_26_">
															<use xlink:href="#SVGID_25_"  style="overflow:visible;"/>
														</clipPath>
													</g>
												</g>
											</g>
										</g>
									</g>
								</g>
							</g>
						</g>
					</g>
				</g>
			</g>
		</g>
	</g>
</g>
<g>
	<path class="st0" d="M120.4,37.7c-0.1,0-0.3,0-0.5,0.1c-0.2,0-0.3,0.1-0.4,0.1c-0.1,0.1-0.4,0.5-0.6,1c-0.2,0.4-0.4,0.7-0.5,0.8
		c0.3,0.1,0.7,0.1,1.3,0.1c0.6,0,1.1,0,1.3-0.1c0.2-0.1,0.4-0.2,0.6-0.3c0.1-0.1,0.2-0.3,0.2-0.6c0-0.3-0.1-0.5-0.3-0.8
		C121,37.8,120.7,37.7,120.4,37.7L120.4,37.7z M99,37.7c-0.1,0-0.3,0-0.5,0.1c-0.2,0-0.3,0.1-0.4,0.1c-0.1,0.1-0.4,0.5-0.6,1
		c-0.2,0.4-0.4,0.7-0.5,0.8c0.3,0.1,0.7,0.1,1.3,0.1c0.6,0,1.1,0,1.3-0.1c0.2-0.1,0.4-0.2,0.6-0.3c0.1-0.1,0.2-0.3,0.2-0.6
		c0-0.3-0.1-0.5-0.3-0.8C99.7,37.8,99.4,37.7,99,37.7L99,37.7z M83.9,37.7c-0.5,0-1.1,0.1-1.7,0.4c-0.2,0.2-0.4,0.5-0.5,0.8
		c-0.2,0.3-0.3,0.6-0.4,1c0.2-0.1,0.3-0.1,0.4-0.1c0.1,0,0.2,0,0.4,0c0.1,0,0.3,0,0.4,0c0.3,0,0.6-0.1,0.7-0.3
		c0.2-0.2,0.3-0.6,0.3-1h0.3c0,0.4,0.1,0.8,0.3,1c0.2,0.2,0.4,0.4,0.7,0.4c0.2,0,0.4-0.1,0.6-0.2c0.1-0.2,0.2-0.4,0.2-0.6
		c0-0.3-0.1-0.6-0.4-0.9C84.8,37.8,84.4,37.7,83.9,37.7L83.9,37.7z M70.7,37.7c-0.3,0-0.6,0-0.7,0.1c-0.2,0.1-0.3,0.2-0.4,0.3
		c-0.1,0.1-0.1,0.3-0.1,0.6c0,0.4,0.1,0.8,0.4,1.1c0.3,0.3,0.7,0.4,1.3,0.4c0.2,0,0.4,0,0.6-0.1v-2.4C71.6,37.7,71.2,37.7,70.7,37.7
		L70.7,37.7z M107.3,37.7c-0.1,0-0.2,0-0.3,0.1c-0.1,0.1-0.1,0.2-0.1,0.3c0,0.1,0,0.2,0.1,0.3c0.1,0.1,0.2,0.1,0.3,0.1
		s0.2,0,0.3-0.1c0.1-0.1,0.1-0.2,0.1-0.3c0-0.1,0-0.2-0.1-0.3C107.5,37.7,107.4,37.7,107.3,37.7L107.3,37.7z M115.1,36.9
		c-0.2,0-0.4,0-0.6,0.1c-0.1,0.1-0.2,0.2-0.2,0.4c0.7,0,1.2,0,1.3,0.1c0,0,0-0.1,0-0.2c0-0.1-0.1-0.2-0.2-0.3
		C115.4,36.9,115.3,36.9,115.1,36.9L115.1,36.9z M72.4,36.6c-0.2,0.3-0.3,0.8-0.3,1.3c0.1,0.1,0.2,0.1,0.4,0.1
		c0.2,0,0.3-0.1,0.4-0.2c0.1-0.1,0.1-0.2,0.1-0.4c0-0.2-0.1-0.3-0.2-0.5c-0.1-0.1-0.2-0.2-0.2-0.3L72.4,36.6z M115.2,36.1
		c0.2,0,0.4,0.1,0.6,0.2c0.2,0.1,0.3,0.3,0.3,0.5c0,0.2-0.1,0.5-0.2,0.7c0.2,0.1,0.4,0.3,0.5,0.5c0.1,0.2,0.2,0.5,0.2,0.7
		c0,0.5-0.2,0.9-0.5,1.3c-0.3,0.4-0.7,0.5-1.2,0.5c-0.3,0-0.5-0.1-0.7-0.2c-0.2-0.1-0.4-0.3-0.5-0.5c-0.2,0.2-0.3,0.4-0.5,0.5
		c-0.2,0.1-0.4,0.2-0.7,0.2c-0.5,0-0.8-0.2-1.1-0.5c-0.3-0.4-0.5-0.8-0.5-1.4c0-0.6,0.2-1.1,0.6-1.5c0.4-0.4,0.9-0.6,1.5-0.6v0.3
		c-0.4,0-0.8,0.2-1.2,0.5s-0.5,0.7-0.5,1.2c0,0.3,0.1,0.6,0.3,0.9c0.2,0.2,0.5,0.4,0.9,0.4c0.4,0,0.6-0.1,0.8-0.3
		c0.2-0.2,0.3-0.6,0.3-1h0.3c0,0.5,0.1,0.8,0.3,1c0.2,0.2,0.4,0.3,0.8,0.3c0.4,0,0.7-0.1,0.9-0.3c0.2-0.2,0.3-0.5,0.3-0.8
		c0-0.3-0.1-0.6-0.3-0.7c-0.2-0.2-0.5-0.2-0.9-0.2h-1c0-0.5,0.1-0.9,0.3-1.2C114.5,36.2,114.8,36.1,115.2,36.1L115.2,36.1z
		 M107.5,36.1c0.7,0,1.3,0.2,1.8,0.6c0.6,0.4,0.9,0.9,1,1.7H110c-0.1-0.6-0.4-1.1-0.9-1.4c-0.5-0.3-1.1-0.5-1.8-0.5
		c-0.6,0-1.1,0.2-1.6,0.5c-0.5,0.3-0.7,0.8-0.7,1.3c0,0.4,0.2,0.8,0.5,1.1c0.3,0.3,0.8,0.4,1.5,0.4s1.1-0.1,1.4-0.3s0.5-0.5,0.5-0.9
		c0-0.3-0.1-0.5-0.3-0.7c-0.2-0.2-0.5-0.3-0.8-0.3c0.1,0.1,0.2,0.3,0.2,0.5c0,0.2-0.1,0.4-0.2,0.5c-0.1,0.1-0.3,0.2-0.5,0.2
		c-0.2,0-0.3-0.1-0.5-0.2c-0.2-0.1-0.2-0.3-0.2-0.5c0-0.3,0.1-0.5,0.3-0.6c0.2-0.2,0.5-0.2,0.8-0.2c0.5,0,0.9,0.1,1.2,0.4
		c0.3,0.3,0.5,0.6,0.5,1.1c0,0.5-0.2,1-0.6,1.3s-1,0.6-1.6,0.6c-0.8,0-1.3-0.2-1.8-0.7c-0.4-0.4-0.7-1-0.7-1.6
		c0-0.6,0.2-1.1,0.7-1.6S106.6,36.1,107.5,36.1L107.5,36.1z M97.3,36.1c0.6,0,0.9,0.3,1.1,1c0.4-0.3,0.8-0.6,1.2-0.8
		s0.9-0.3,1.3-0.3c0.8,0,1.4,0.2,1.9,0.7c0.5,0.5,0.8,1.1,0.8,1.9c0,0.5-0.1,1-0.4,1.4c-0.2,0.4-0.5,0.6-0.9,0.6
		c-0.2,0-0.4-0.1-0.7-0.3l0.2-0.3c0.2,0.2,0.3,0.2,0.5,0.2c0.2,0,0.4-0.1,0.5-0.3s0.2-0.5,0.2-0.8c0-0.3-0.1-0.7-0.4-1.1
		c-0.2-0.4-0.6-0.7-0.9-1s-0.8-0.4-1.2-0.4c-0.3,0-0.7,0.1-1,0.2s-0.7,0.3-1,0.5c0.2-0.1,0.3-0.1,0.5-0.1c0.4,0,0.8,0.1,1.2,0.4
		c0.3,0.3,0.5,0.7,0.5,1.1c0,0.6-0.2,1-0.7,1.3s-1,0.4-1.6,0.4c-0.6,0-1.1-0.1-1.5-0.3s-0.7-0.5-0.9-0.9l0.2-0.1
		c0.1,0.1,0.2,0.2,0.3,0.2c0.1,0,0.2-0.1,0.3-0.2c0.1-0.1,0.2-0.4,0.4-0.6c0.4-0.6,0.7-1.1,0.9-1.3c0-0.3-0.1-0.5-0.2-0.6
		c-0.1-0.1-0.2-0.2-0.4-0.2c-0.2,0-0.3,0.2-0.5,0.5c-0.1,0.2-0.1,0.3-0.1,0.3s-0.1,0.1-0.2,0.1s-0.1,0.1-0.2,0.1
		c-0.1,0-0.2,0-0.3-0.1c-0.1-0.1-0.1-0.2-0.1-0.3c0-0.2,0.1-0.4,0.3-0.6C96.7,36.2,96.9,36.1,97.3,36.1L97.3,36.1z M92.7,36.1
		c0.7,0,1.3,0.1,1.8,0.4c0.4,0.3,0.7,0.6,0.7,1.1c0,0.3-0.1,0.6-0.4,0.9c-0.3,0.2-0.6,0.3-1,0.3c-0.3,0-0.6-0.1-0.8-0.3
		c-0.2-0.2-0.3-0.5-0.3-0.8h-0.9v-0.3h2.6v0.3h-1.4c0.1,0.3,0.3,0.5,0.8,0.5c0.3,0,0.5-0.1,0.7-0.2s0.3-0.3,0.3-0.5
		c0-0.3-0.2-0.5-0.5-0.7s-0.8-0.3-1.5-0.3c-0.8,0-1.4,0.2-2,0.7c-0.5,0.4-0.8,1-0.8,1.8c0,0.8,0.3,1.5,0.8,2s1.2,0.9,2,0.9
		c0.7,0,1.2-0.2,1.7-0.5c0.4-0.4,0.6-0.9,0.6-1.5h0.3c0,0.7-0.2,1.3-0.7,1.8c-0.5,0.4-1.2,0.7-2.2,0.7c-0.7,0-1.3-0.1-1.8-0.4
		c-0.5-0.3-0.9-0.6-1.1-1.1c-0.3-0.5-0.4-0.9-0.4-1.4c0-0.9,0.3-1.7,1-2.3C90.7,36.4,91.6,36.1,92.7,36.1L92.7,36.1z M81.8,36.1
		c0.6,0,0.9,0.3,1.1,1c0.4-0.3,0.8-0.6,1.2-0.7c0.4-0.2,0.8-0.2,1.2-0.2c0.7,0,1.4,0.2,1.9,0.7c0.5,0.5,0.8,1.1,0.8,1.9
		c0,0.5-0.1,1-0.4,1.4c-0.2,0.4-0.5,0.6-0.9,0.6c-0.2,0-0.4-0.1-0.7-0.3l0.2-0.3c0.2,0.2,0.3,0.2,0.5,0.2c0.2,0,0.4-0.1,0.5-0.3
		s0.2-0.5,0.2-0.8c0-0.3-0.1-0.7-0.4-1.1c-0.2-0.4-0.6-0.7-0.9-1s-0.8-0.4-1.2-0.4c-0.3,0-0.7,0.1-1.1,0.2c-0.4,0.2-0.8,0.4-1.1,0.6
		c0.2-0.1,0.4-0.1,0.6-0.1s0.4-0.1,0.6-0.1c0.6,0,1.1,0.2,1.4,0.5c0.3,0.3,0.5,0.8,0.5,1.3c0,0.4-0.1,0.8-0.3,1
		c-0.2,0.3-0.5,0.4-0.9,0.4c-0.2,0-0.4-0.1-0.6-0.2c-0.2-0.1-0.3-0.3-0.5-0.5c-0.1,0.2-0.3,0.4-0.5,0.5s-0.4,0.2-0.6,0.2
		c-0.2,0-0.3,0-0.5-0.1c-0.1-0.1-0.2-0.2-0.4-0.3c-0.1-0.1-0.2-0.2-0.2-0.2c-0.1,0-0.3,0.1-0.4,0.4l-0.3-0.1c0.3-0.9,0.6-1.5,0.9-2
		s0.6-0.8,1-1.1c0-0.2-0.1-0.4-0.2-0.5s-0.2-0.2-0.3-0.2c-0.2,0-0.3,0.2-0.5,0.5c-0.1,0.2-0.1,0.3-0.1,0.3c0,0.1-0.1,0.1-0.2,0.1
		c-0.1,0-0.1,0.1-0.2,0.1c-0.1,0-0.2,0-0.3-0.1c-0.1-0.1-0.1-0.2-0.1-0.3c0-0.2,0.1-0.4,0.3-0.6C81.2,36.2,81.4,36.1,81.8,36.1
		L81.8,36.1z M72.5,36h0.2c0,0,0,0.1,0,0.1c0,0.1,0,0.1,0,0.1c0,0.1,0,0.2,0.1,0.2c0.1,0.1,0.2,0.2,0.3,0.3c0.3,0.2,0.4,0.5,0.4,0.7
		c0,0.2-0.1,0.4-0.3,0.6c-0.2,0.2-0.4,0.3-0.6,0.3c-0.1,0-0.3,0-0.4-0.1v1.9c0.5-0.1,0.9-0.2,1.2-0.4l0.2,0.3
		c-0.4,0.2-0.8,0.4-1.4,0.5v2.7h-0.3v-2.6c-0.3,0-0.6,0.1-1,0.1c-0.7,0-1.3-0.2-1.7-0.5c-0.4-0.3-0.6-0.7-0.6-1.2
		c0-0.5,0.2-0.8,0.5-1.1c0.3-0.3,0.9-0.4,1.5-0.4H71c0.2,0,0.4,0,0.6,0c-0.1-0.3-0.2-0.5-0.4-0.7c-0.2-0.2-0.3-0.2-0.5-0.2
		c-0.1,0-0.2,0-0.3,0.1c-0.1,0-0.2,0.1-0.3,0.3c-0.1,0.1-0.2,0.2-0.3,0.3c0,0-0.1,0-0.2,0c-0.1,0-0.2,0-0.3-0.1
		c-0.1-0.1-0.1-0.2-0.1-0.3c0-0.2,0.1-0.3,0.3-0.4c0.2-0.1,0.4-0.2,0.7-0.2c0.3,0,0.7,0.1,0.9,0.3c0.3,0.2,0.5,0.5,0.6,0.8
		C71.9,36.9,72.1,36.5,72.5,36L72.5,36z M76.8,34.5c0.8,0,1.4,0.3,2,0.9c0.5,0.6,0.8,1.4,0.8,2.3c0,0.9-0.3,1.7-0.8,2.2
		c-0.5,0.5-1.2,0.8-2,0.8c-0.7,0-1.3-0.2-1.7-0.5c-0.4-0.3-0.6-0.8-0.6-1.3c0-0.4,0.2-0.8,0.5-1.1c0.3-0.3,0.8-0.4,1.4-0.4h0.1
		c0-0.2-0.1-0.4-0.2-0.6c-0.1-0.1-0.2-0.2-0.3-0.2c-0.1,0-0.2,0-0.3,0.1c-0.1,0.1-0.1,0.1-0.2,0.3c-0.1,0.1-0.1,0.2-0.2,0.3
		s-0.1,0.1-0.2,0.1c-0.1,0-0.2,0-0.3-0.1c-0.1-0.1-0.1-0.2-0.1-0.3c0-0.2,0.1-0.4,0.3-0.6c0.2-0.2,0.4-0.2,0.7-0.2
		c0.3,0,0.6,0.1,0.8,0.4c0.2,0.3,0.3,0.7,0.3,1.2c-0.8,0-1.3,0.1-1.5,0.3c-0.2,0.2-0.4,0.4-0.4,0.7c0,0.4,0.2,0.7,0.5,0.9
		c0.3,0.2,0.8,0.2,1.4,0.2c0.8,0,1.4-0.2,1.8-0.6c0.4-0.4,0.6-0.9,0.6-1.5c0-0.6-0.1-1.1-0.3-1.5s-0.5-0.8-0.9-1s-0.8-0.4-1.2-0.4
		c-0.4,0-0.8,0.1-1.1,0.3s-0.7,0.5-0.9,0.8l-0.3-0.2c0.3-0.4,0.6-0.7,1-0.9C75.9,34.6,76.3,34.5,76.8,34.5L76.8,34.5z M124.6,34v1.3
		c0.1,0.1,0.3,0.1,0.4,0.1c0.1,0,0.3,0,0.3-0.1c0.1-0.1,0.1-0.2,0.1-0.3c0-0.2,0-0.3-0.1-0.4c-0.1-0.1-0.3-0.2-0.5-0.4
		C124.7,34.1,124.7,34.1,124.6,34L124.6,34z M124.3,33.6h0.3c0.1,0.1,0.3,0.2,0.6,0.4c0.3,0.1,0.4,0.3,0.6,0.4
		c0.1,0.2,0.2,0.3,0.2,0.6c0,0.2-0.1,0.4-0.2,0.6c-0.2,0.2-0.3,0.2-0.6,0.2c-0.1,0-0.3,0-0.5-0.1v1.8c0.2,0.4,0.2,0.8,0.2,1.2
		c0,0.5-0.1,1-0.4,1.4c-0.2,0.4-0.5,0.6-0.9,0.6c-0.2,0-0.4-0.1-0.7-0.3l0.2-0.3c0.2,0.2,0.3,0.2,0.5,0.2c0.2,0,0.4-0.1,0.5-0.3
		c0.1-0.2,0.2-0.5,0.2-0.8c0-0.3-0.1-0.7-0.4-1.1c-0.2-0.4-0.6-0.7-0.9-1s-0.8-0.4-1.2-0.4c-0.3,0-0.7,0.1-1,0.2
		c-0.4,0.1-0.7,0.3-1,0.5c0.2-0.1,0.3-0.1,0.5-0.1c0.4,0,0.8,0.1,1.2,0.4c0.3,0.3,0.5,0.7,0.5,1.1c0,0.6-0.2,1-0.7,1.3
		c-0.5,0.3-1,0.4-1.6,0.4c-0.6,0-1.1-0.1-1.5-0.3c-0.4-0.2-0.7-0.5-0.9-0.9l0.2-0.1c0.1,0.1,0.2,0.2,0.3,0.2c0.1,0,0.2-0.1,0.3-0.2
		s0.2-0.4,0.4-0.6c0.4-0.6,0.7-1.1,0.9-1.3c0-0.3-0.1-0.5-0.2-0.6s-0.2-0.2-0.4-0.2c-0.2,0-0.3,0.2-0.5,0.5
		c-0.1,0.2-0.1,0.3-0.1,0.3c0,0-0.1,0.1-0.2,0.1c-0.1,0-0.1,0.1-0.2,0.1c-0.1,0-0.2,0-0.3-0.1c-0.1-0.1-0.1-0.2-0.1-0.3
		c0-0.2,0.1-0.4,0.3-0.6c0.2-0.2,0.5-0.3,0.8-0.3c0.6,0,0.9,0.3,1.1,1c0.4-0.3,0.8-0.6,1.2-0.8c0.4-0.2,0.9-0.3,1.3-0.3
		c0.4,0,0.8,0.1,1.2,0.2c0.4,0.2,0.7,0.4,0.9,0.6V33.6z"/>
</g>
<g>
	<path class="st0" d="M145.4,186.2c-0.2,0-0.3,0-0.6,0.1s-0.4,0.1-0.5,0.1c-0.2,0.2-0.4,0.5-0.7,1.1c-0.3,0.5-0.5,0.8-0.6,0.9
		c0.4,0.1,0.8,0.2,1.4,0.2c0.7,0,1.2,0,1.5-0.1c0.3-0.1,0.5-0.2,0.6-0.4c0.1-0.2,0.2-0.4,0.2-0.7c0-0.3-0.1-0.6-0.4-0.9
		C146.2,186.3,145.9,186.2,145.4,186.2L145.4,186.2z M121.2,186.2c-0.2,0-0.3,0-0.6,0.1s-0.4,0.1-0.5,0.1c-0.2,0.2-0.4,0.5-0.7,1.1
		c-0.3,0.5-0.5,0.8-0.6,0.9c0.4,0.1,0.8,0.2,1.4,0.2c0.7,0,1.2,0,1.5-0.1c0.3-0.1,0.5-0.2,0.6-0.4c0.1-0.2,0.2-0.4,0.2-0.7
		c0-0.3-0.1-0.6-0.4-0.9C122,186.3,121.7,186.2,121.2,186.2L121.2,186.2z M104.1,186.2c-0.6,0-1.2,0.1-2,0.4
		c-0.2,0.2-0.4,0.5-0.6,0.9s-0.3,0.7-0.5,1.1c0.2-0.1,0.3-0.1,0.4-0.1c0.1,0,0.3,0,0.4,0c0.1,0,0.3,0,0.5,0c0.4,0,0.6-0.1,0.8-0.4
		c0.2-0.3,0.3-0.7,0.3-1.2h0.4c0,0.5,0.1,0.9,0.3,1.1c0.2,0.3,0.4,0.4,0.7,0.4c0.3,0,0.5-0.1,0.7-0.3s0.2-0.4,0.2-0.7
		c0-0.4-0.1-0.7-0.4-1C105.1,186.3,104.7,186.2,104.1,186.2L104.1,186.2z M94,186.2c-0.2,0-0.3,0-0.6,0.1s-0.4,0.1-0.5,0.1
		c-0.2,0.2-0.4,0.5-0.7,1.1c-0.3,0.5-0.5,0.8-0.6,0.9c0.4,0.1,0.8,0.2,1.4,0.2c0.7,0,1.2,0,1.5-0.1c0.3-0.1,0.5-0.2,0.6-0.4
		c0.1-0.2,0.2-0.4,0.2-0.7c0-0.3-0.1-0.6-0.4-0.9C94.8,186.3,94.4,186.2,94,186.2L94,186.2z M86.6,186.2c-0.4,0-0.6,0.1-0.8,0.2
		s-0.3,0.2-0.4,0.4s-0.1,0.4-0.1,0.6c0,0.5,0.2,0.9,0.5,1.2c0.3,0.3,0.8,0.5,1.5,0.5c0.2,0,0.4,0,0.7-0.1v-2.8
		C87.7,186.2,87.3,186.2,86.6,186.2L86.6,186.2z M130.6,186.2c-0.1,0-0.2,0-0.3,0.1s-0.1,0.2-0.1,0.3s0,0.2,0.1,0.3s0.2,0.1,0.3,0.1
		s0.2,0,0.3-0.1s0.1-0.2,0.1-0.3s0-0.2-0.1-0.3S130.7,186.2,130.6,186.2L130.6,186.2z M139.5,185.3c-0.3,0-0.5,0.1-0.6,0.2
		s-0.2,0.3-0.3,0.4c0.8,0,1.3,0,1.5,0.1c0,0,0.1-0.1,0.1-0.2c0-0.1-0.1-0.2-0.2-0.3C139.8,185.3,139.6,185.3,139.5,185.3
		L139.5,185.3z M88.7,185c-0.2,0.4-0.3,0.9-0.3,1.5c0.1,0.1,0.3,0.1,0.4,0.1c0.2,0,0.3-0.1,0.4-0.2s0.1-0.3,0.1-0.4
		c0-0.2-0.1-0.4-0.3-0.6c-0.1-0.1-0.2-0.2-0.3-0.3L88.7,185z M139.6,184.4c0.3,0,0.5,0.1,0.7,0.2c0.2,0.2,0.3,0.4,0.3,0.6
		c0,0.3-0.1,0.6-0.2,0.8c0.2,0.1,0.4,0.3,0.6,0.6c0.1,0.2,0.2,0.5,0.2,0.8c0,0.5-0.2,1-0.5,1.4c-0.3,0.4-0.8,0.6-1.3,0.6
		c-0.3,0-0.6-0.1-0.8-0.2c-0.2-0.1-0.4-0.3-0.6-0.6c-0.2,0.3-0.4,0.5-0.6,0.6c-0.2,0.1-0.5,0.2-0.8,0.2c-0.5,0-1-0.2-1.3-0.6
		c-0.3-0.4-0.5-0.9-0.5-1.6c0-0.7,0.2-1.2,0.6-1.7c0.4-0.4,1-0.7,1.7-0.7v0.4c-0.5,0-0.9,0.2-1.3,0.5c-0.4,0.3-0.6,0.8-0.6,1.3
		c0,0.4,0.1,0.7,0.4,1c0.2,0.3,0.6,0.4,1,0.4c0.4,0,0.7-0.1,0.9-0.4c0.2-0.3,0.3-0.7,0.3-1.2h0.4c0,0.5,0.1,0.9,0.3,1.2
		c0.2,0.3,0.5,0.4,0.9,0.4c0.4,0,0.7-0.1,1-0.4c0.2-0.2,0.4-0.5,0.4-0.9c0-0.4-0.1-0.6-0.3-0.8c-0.2-0.2-0.5-0.3-1-0.3h-1.2
		c0-0.6,0.2-1.1,0.4-1.4S139.2,184.4,139.6,184.4L139.6,184.4z M130.8,184.4c0.8,0,1.5,0.2,2.1,0.6s1,1.1,1.1,2h-0.4
		c-0.1-0.7-0.4-1.3-1-1.6c-0.6-0.4-1.2-0.6-2-0.6c-0.7,0-1.3,0.2-1.8,0.6c-0.5,0.4-0.8,0.9-0.8,1.5c0,0.5,0.2,0.9,0.6,1.3
		c0.4,0.3,0.9,0.5,1.6,0.5c0.7,0,1.2-0.1,1.6-0.4c0.4-0.2,0.6-0.6,0.6-1c0-0.3-0.1-0.6-0.3-0.7s-0.5-0.3-0.9-0.3
		c0.1,0.1,0.2,0.3,0.2,0.5c0,0.2-0.1,0.4-0.2,0.6c-0.2,0.2-0.4,0.3-0.6,0.3c-0.2,0-0.4-0.1-0.6-0.2s-0.3-0.3-0.3-0.6
		c0-0.3,0.1-0.5,0.4-0.7c0.3-0.2,0.6-0.3,0.9-0.3c0.6,0,1,0.2,1.4,0.5s0.5,0.7,0.5,1.2c0,0.6-0.2,1.1-0.7,1.5s-1.1,0.6-1.8,0.6
		c-0.9,0-1.5-0.2-2-0.7c-0.5-0.5-0.7-1.1-0.7-1.8c0-0.7,0.3-1.3,0.8-1.8C129,184.7,129.8,184.4,130.8,184.4L130.8,184.4z
		 M119.2,184.4c0.6,0,1.1,0.4,1.2,1.2c0.4-0.4,0.9-0.7,1.4-0.9c0.5-0.2,1-0.3,1.5-0.3c0.9,0,1.6,0.3,2.1,0.8
		c0.6,0.5,0.9,1.2,0.9,2.1c0,0.6-0.1,1.1-0.4,1.6c-0.3,0.4-0.6,0.7-1,0.7c-0.2,0-0.5-0.1-0.8-0.3l0.2-0.3c0.2,0.2,0.3,0.3,0.5,0.3
		c0.2,0,0.4-0.1,0.6-0.4c0.2-0.2,0.2-0.6,0.2-0.9c0-0.4-0.1-0.8-0.4-1.3s-0.6-0.8-1.1-1.1c-0.4-0.3-0.9-0.4-1.4-0.4
		c-0.4,0-0.8,0.1-1.2,0.2c-0.4,0.1-0.8,0.3-1.1,0.6c0.2-0.1,0.4-0.1,0.6-0.1c0.5,0,0.9,0.2,1.3,0.5c0.4,0.3,0.6,0.7,0.6,1.3
		c0,0.6-0.3,1.1-0.8,1.5c-0.5,0.3-1.1,0.5-1.8,0.5c-0.7,0-1.2-0.1-1.7-0.3c-0.5-0.2-0.8-0.5-1-1l0.2-0.2c0.1,0.2,0.3,0.2,0.4,0.2
		c0.1,0,0.2-0.1,0.3-0.2c0.1-0.2,0.3-0.4,0.5-0.7c0.4-0.7,0.8-1.2,1-1.5c0-0.3-0.1-0.6-0.2-0.7s-0.3-0.2-0.4-0.2
		c-0.2,0-0.4,0.2-0.5,0.5c-0.1,0.2-0.1,0.3-0.2,0.4c0,0.1-0.1,0.1-0.2,0.2c-0.1,0.1-0.2,0.1-0.3,0.1c-0.1,0-0.3,0-0.3-0.1
		c-0.1-0.1-0.1-0.2-0.1-0.4c0-0.2,0.1-0.5,0.4-0.7C118.6,184.6,118.9,184.4,119.2,184.4L119.2,184.4z M114,184.4
		c0.8,0,1.5,0.2,2,0.5c0.5,0.3,0.7,0.7,0.7,1.2c0,0.4-0.2,0.7-0.5,1s-0.7,0.4-1.2,0.4c-0.4,0-0.7-0.1-0.9-0.3
		c-0.2-0.2-0.4-0.5-0.4-0.9h-1v-0.4h3v0.4h-1.6c0.1,0.4,0.4,0.5,1,0.5c0.3,0,0.6-0.1,0.8-0.2c0.2-0.1,0.3-0.4,0.3-0.6
		c0-0.3-0.2-0.6-0.6-0.8s-1-0.3-1.7-0.3c-0.9,0-1.6,0.2-2.2,0.7c-0.6,0.5-0.9,1.2-0.9,2.1c0,0.9,0.3,1.7,0.9,2.3
		c0.6,0.7,1.4,1,2.2,1c0.8,0,1.4-0.2,1.9-0.6c0.5-0.4,0.7-1,0.7-1.7h0.4c0,0.8-0.3,1.5-0.8,2c-0.5,0.5-1.4,0.8-2.5,0.8
		c-0.8,0-1.4-0.1-2-0.4c-0.6-0.3-1-0.7-1.3-1.2c-0.3-0.5-0.4-1.1-0.4-1.6c0-1,0.4-1.9,1.1-2.6C111.8,184.8,112.8,184.4,114,184.4
		L114,184.4z M101.6,184.4c0.7,0,1.1,0.4,1.2,1.1c0.5-0.4,0.9-0.6,1.4-0.8c0.5-0.2,0.9-0.3,1.4-0.3c0.8,0,1.5,0.3,2.1,0.8
		c0.6,0.5,0.9,1.2,0.9,2.1c0,0.6-0.1,1.1-0.4,1.6c-0.3,0.4-0.6,0.7-1,0.7c-0.2,0-0.5-0.1-0.8-0.3l0.2-0.3c0.2,0.2,0.3,0.3,0.5,0.3
		c0.2,0,0.4-0.1,0.6-0.4c0.2-0.2,0.2-0.6,0.2-0.9c0-0.4-0.1-0.8-0.4-1.3c-0.3-0.4-0.6-0.8-1.1-1.1c-0.4-0.3-0.9-0.4-1.4-0.4
		c-0.4,0-0.8,0.1-1.2,0.3s-0.9,0.4-1.2,0.7c0.2-0.1,0.4-0.1,0.7-0.2s0.5-0.1,0.7-0.1c0.7,0,1.2,0.2,1.6,0.6c0.4,0.4,0.6,0.9,0.6,1.5
		c0,0.5-0.1,0.9-0.4,1.2c-0.2,0.3-0.6,0.4-1,0.4c-0.3,0-0.5-0.1-0.7-0.2c-0.2-0.1-0.4-0.3-0.5-0.6c-0.1,0.3-0.3,0.5-0.5,0.6
		c-0.2,0.1-0.5,0.2-0.7,0.2c-0.2,0-0.4,0-0.5-0.1c-0.1-0.1-0.3-0.2-0.4-0.3c-0.1-0.1-0.2-0.2-0.3-0.2c-0.2,0-0.3,0.2-0.4,0.5
		l-0.3-0.1c0.3-1,0.7-1.7,1-2.2c0.3-0.5,0.7-0.9,1.1-1.3c0-0.3-0.1-0.5-0.2-0.6s-0.2-0.2-0.4-0.2c-0.2,0-0.4,0.2-0.5,0.5
		c-0.1,0.2-0.1,0.3-0.2,0.4c0,0.1-0.1,0.1-0.2,0.2c-0.1,0-0.2,0.1-0.3,0.1c-0.1,0-0.3,0-0.3-0.1c-0.1-0.1-0.1-0.2-0.1-0.4
		c0-0.2,0.1-0.5,0.4-0.7C101,184.6,101.3,184.4,101.6,184.4L101.6,184.4z M92,184.4c0.6,0,1.1,0.4,1.2,1.2c0.4-0.4,0.9-0.7,1.4-0.9
		c0.5-0.2,1-0.3,1.5-0.3c0.9,0,1.6,0.3,2.1,0.8c0.6,0.5,0.9,1.2,0.9,2.1v4.9h-5.2c-0.3,0-0.6-0.1-0.8-0.3c-0.2-0.2-0.3-0.4-0.3-0.8
		c0-0.3,0.1-0.6,0.3-0.8c0.2-0.2,0.5-0.3,0.8-0.3c0.6,0,1,0.3,1.2,0.8l-0.3,0.2c-0.2-0.4-0.5-0.6-0.8-0.6c-0.2,0-0.4,0.1-0.6,0.2
		s-0.2,0.3-0.2,0.5c0,0.2,0.1,0.4,0.2,0.5c0.1,0.1,0.3,0.2,0.5,0.2h4.7V189c-0.3,0.4-0.6,0.5-0.9,0.5c-0.2,0-0.5-0.1-0.8-0.3
		l0.2-0.3c0.2,0.2,0.3,0.3,0.5,0.3c0.2,0,0.4-0.1,0.6-0.4s0.2-0.6,0.2-0.9c0-0.4-0.1-0.8-0.4-1.3c-0.3-0.4-0.6-0.8-1.1-1.1
		c-0.4-0.3-0.9-0.4-1.4-0.4c-0.4,0-0.8,0.1-1.2,0.2c-0.4,0.1-0.8,0.3-1.1,0.6c0.2-0.1,0.4-0.1,0.6-0.1c0.5,0,0.9,0.2,1.3,0.5
		c0.4,0.3,0.6,0.7,0.6,1.3c0,0.6-0.3,1.1-0.8,1.5c-0.5,0.3-1.1,0.5-1.8,0.5c-0.7,0-1.2-0.1-1.7-0.3c-0.5-0.2-0.8-0.5-1-1l0.2-0.2
		c0.1,0.2,0.3,0.2,0.4,0.2c0.1,0,0.2-0.1,0.3-0.2c0.1-0.2,0.3-0.4,0.5-0.7c0.4-0.7,0.8-1.2,1-1.5c0-0.3-0.1-0.6-0.2-0.7
		s-0.3-0.2-0.4-0.2c-0.2,0-0.4,0.2-0.5,0.5c-0.1,0.2-0.1,0.3-0.2,0.4c0,0.1-0.1,0.1-0.2,0.2c-0.1,0.1-0.2,0.1-0.3,0.1
		c-0.1,0-0.3,0-0.3-0.1c-0.1-0.1-0.1-0.2-0.1-0.4c0-0.2,0.1-0.5,0.4-0.7C91.3,184.6,91.6,184.4,92,184.4L92,184.4z M88.7,184.3H89
		c0,0,0,0.1,0,0.1c0,0.1,0,0.1,0,0.2c0,0.1,0,0.2,0.1,0.3s0.2,0.2,0.4,0.4c0.3,0.3,0.5,0.5,0.5,0.8c0,0.3-0.1,0.5-0.3,0.7
		s-0.4,0.3-0.7,0.3c-0.2,0-0.3,0-0.5-0.1v2.1c0.5-0.1,1-0.3,1.3-0.5l0.2,0.3c-0.4,0.3-0.9,0.4-1.5,0.6v3h-0.4v-2.9
		c-0.3,0.1-0.7,0.1-1.1,0.1c-0.8,0-1.4-0.2-1.9-0.5c-0.4-0.4-0.7-0.8-0.7-1.4c0-0.5,0.2-0.9,0.6-1.3c0.4-0.3,1-0.5,1.7-0.5H87
		c0.3,0,0.5,0,0.7,0c-0.1-0.3-0.2-0.6-0.4-0.7c-0.2-0.2-0.4-0.3-0.5-0.3c-0.1,0-0.2,0-0.3,0.1c-0.1,0-0.2,0.2-0.3,0.3
		c-0.1,0.2-0.2,0.3-0.3,0.3c-0.1,0-0.1,0.1-0.2,0.1c-0.1,0-0.2,0-0.3-0.1c-0.1-0.1-0.1-0.2-0.1-0.3c0-0.2,0.1-0.3,0.3-0.5
		c0.2-0.2,0.5-0.2,0.8-0.2c0.4,0,0.7,0.1,1.1,0.3c0.3,0.2,0.5,0.5,0.6,1C88,185.4,88.2,184.9,88.7,184.3L88.7,184.3z M150.2,182.1
		v1.5c0.2,0.1,0.3,0.1,0.4,0.1c0.2,0,0.3-0.1,0.4-0.2s0.1-0.2,0.1-0.4c0-0.2-0.1-0.4-0.2-0.5c-0.1-0.1-0.3-0.3-0.6-0.4
		C150.4,182.1,150.3,182.1,150.2,182.1L150.2,182.1z M149.9,181.6h0.3c0.1,0.1,0.4,0.3,0.7,0.4c0.3,0.2,0.5,0.3,0.6,0.5
		s0.2,0.4,0.2,0.6c0,0.3-0.1,0.5-0.3,0.6s-0.4,0.3-0.7,0.3c-0.1,0-0.3,0-0.5-0.1v2c0.2,0.4,0.3,0.9,0.3,1.3c0,0.6-0.1,1.1-0.4,1.6
		c-0.3,0.4-0.6,0.7-1,0.7c-0.2,0-0.5-0.1-0.8-0.3l0.2-0.3c0.2,0.2,0.3,0.3,0.5,0.3c0.2,0,0.4-0.1,0.6-0.4c0.2-0.2,0.2-0.6,0.2-0.9
		c0-0.4-0.1-0.8-0.4-1.3c-0.3-0.4-0.6-0.8-1.1-1.1c-0.4-0.3-0.9-0.4-1.4-0.4c-0.4,0-0.8,0.1-1.2,0.2c-0.4,0.1-0.8,0.3-1.1,0.6
		c0.2-0.1,0.4-0.1,0.6-0.1c0.5,0,0.9,0.2,1.3,0.5s0.6,0.7,0.6,1.3c0,0.6-0.3,1.1-0.8,1.5c-0.5,0.3-1.1,0.5-1.8,0.5
		c-0.7,0-1.2-0.1-1.7-0.3c-0.5-0.2-0.8-0.5-1-1l0.2-0.2c0.1,0.2,0.3,0.2,0.4,0.2c0.1,0,0.2-0.1,0.3-0.2c0.1-0.2,0.3-0.4,0.5-0.7
		c0.4-0.7,0.8-1.2,1-1.5c0-0.3-0.1-0.6-0.2-0.7s-0.3-0.2-0.4-0.2c-0.2,0-0.4,0.2-0.5,0.5c-0.1,0.2-0.1,0.3-0.2,0.4
		c0,0.1-0.1,0.1-0.2,0.2c-0.1,0.1-0.2,0.1-0.3,0.1c-0.1,0-0.3,0-0.3-0.1c-0.1-0.1-0.1-0.2-0.1-0.4c0-0.2,0.1-0.5,0.4-0.7
		c0.2-0.3,0.5-0.4,0.9-0.4c0.6,0,1.1,0.4,1.2,1.2c0.4-0.4,0.9-0.7,1.4-0.9c0.5-0.2,1-0.3,1.5-0.3c0.5,0,0.9,0.1,1.3,0.3
		c0.4,0.2,0.7,0.4,1,0.7V181.6z"/>
</g>
</svg>
