<?xml version="1.0" encoding="utf-8"?>
<!-- Generator: Adobe Illustrator 23.0.2, SVG Export Plug-In . SVG Version: 6.00 Build 0)  -->
<svg version="1.0" id="Layer_1" xmlns="http://www.w3.org/2000/svg" xmlns:xlink="http://www.w3.org/1999/xlink" x="0px" y="0px"
	 viewBox="0 0 216.3 200" style="enable-background:new 0 0 216.3 200;" xml:space="preserve">
<style type="text/css">
	.st0{fill:url(#SVGID_1_);}
	.st1{fill:none;stroke:#000000;stroke-width:1.2608;stroke-miterlimit:8;}
	.st2{fill-rule:evenodd;clip-rule:evenodd;}
	.st3{clip-path:url(#SVGID_3_);fill:none;stroke:#000000;stroke-width:1.2608;stroke-miterlimit:8;}
	.st4{clip-path:url(#SVGID_3_);fill-rule:evenodd;clip-rule:evenodd;}
	.st5{clip-path:url(#SVGID_3_);}
	.st6{clip-path:url(#SVGID_5_);fill-rule:evenodd;clip-rule:evenodd;}
	.st7{clip-path:url(#SVGID_5_);}
	.st8{clip-path:url(#SVGID_7_);fill-rule:evenodd;clip-rule:evenodd;}
	.st9{clip-path:url(#SVGID_7_);}
	.st10{clip-path:url(#SVGID_9_);fill-rule:evenodd;clip-rule:evenodd;}
	.st11{clip-path:url(#SVGID_9_);}
	.st12{clip-path:url(#SVGID_11_);fill-rule:evenodd;clip-rule:evenodd;}
	.st13{clip-path:url(#SVGID_11_);}
	.st14{clip-path:url(#SVGID_13_);fill-rule:evenodd;clip-rule:evenodd;}
	.st15{clip-path:url(#SVGID_13_);}
	.st16{clip-path:url(#SVGID_15_);fill-rule:evenodd;clip-rule:evenodd;}
	.st17{clip-path:url(#SVGID_15_);}
	.st18{clip-path:url(#SVGID_17_);fill-rule:evenodd;clip-rule:evenodd;}
	.st19{clip-path:url(#SVGID_17_);}
	.st20{clip-path:url(#SVGID_19_);fill-rule:evenodd;clip-rule:evenodd;}
	.st21{clip-path:url(#SVGID_19_);}
	.st22{clip-path:url(#SVGID_21_);fill-rule:evenodd;clip-rule:evenodd;}
	.st23{clip-path:url(#SVGID_21_);}
	.st24{clip-path:url(#SVGID_23_);fill-rule:evenodd;clip-rule:evenodd;}
	.st25{clip-path:url(#SVGID_23_);}
	.st26{clip-path:url(#SVGID_25_);fill-rule:evenodd;clip-rule:evenodd;}
	.st27{clip-path:url(#SVGID_25_);}
	.st28{clip-path:url(#SVGID_27_);fill-rule:evenodd;clip-rule:evenodd;}
	.st29{clip-path:url(#SVGID_27_);}
	.st30{clip-path:url(#SVGID_29_);fill-rule:evenodd;clip-rule:evenodd;}
	.st31{clip-path:url(#SVGID_29_);}
	.st32{clip-path:url(#SVGID_31_);fill-rule:evenodd;clip-rule:evenodd;}
</style>
<linearGradient id="SVGID_1_" gradientUnits="userSpaceOnUse" x1="15.9163" y1="90.0762" x2="210.199" y2="90.0762">
	<stop  offset="2.077838e-07" style="stop-color:#03033D;stop-opacity:0.4"/>
	<stop  offset="1" style="stop-color:#342AFF;stop-opacity:0"/>
</linearGradient>
<rect x="15.9" y="13.2" class="st0" width="194.3" height="153.8"/>
<g>
	<line class="st1" x1="6.2" y1="167" x2="202.7" y2="167"/>
	<polygon class="st2" points="202,165.1 205.8,167 202,168.8 202,165.1 	"/>
	<g>
		<defs>
			<polygon id="SVGID_2_" points="0,197.4 216.3,197.4 216.3,-3.6 0,-3.6 0,197.4 			"/>
		</defs>
		<clipPath id="SVGID_3_">
			<use xlink:href="#SVGID_2_"  style="overflow:visible;"/>
		</clipPath>
		<line class="st3" x1="15.8" y1="176.9" x2="15.8" y2="12.7"/>
		<polygon class="st4" points="17.7,13.4 15.8,9.6 13.9,13.4 17.7,13.4 		"/>
		<g class="st5">
			<defs>
				<polygon id="SVGID_4_" points="0,197.4 216.3,197.4 216.3,-3.6 0,-3.6 0,197.4 				"/>
			</defs>
			<clipPath id="SVGID_5_">
				<use xlink:href="#SVGID_4_"  style="overflow:visible;"/>
			</clipPath>
			<path class="st6" d="M5.6,5c0.2,0,0.4,0,0.5,0.1c0.1,0,0.2,0.1,0.3,0.2c0.1,0.1,0.2,0.2,0.3,0.4C6.7,5.8,6.8,6,6.8,6.2
				C6.9,6.4,6.9,6.7,7,7.1c0.1,0.6,0.2,1.3,0.3,2c0.1,0.7,0.2,1.4,0.3,2c0.5-0.7,0.9-1.4,1.2-2s0.6-1.2,0.7-1.7
				c0.1-0.5,0.2-0.9,0.2-1.2c0-0.2,0-0.4-0.1-0.5S9.4,5.5,9.1,5.5l0.1-0.4h1.9l0.2,0.4c-0.4,1-0.9,2.1-1.5,3.3
				C9.2,9.9,8.5,11,7.7,12.2c-0.8,1.1-1.4,1.9-1.9,2.3c-0.4,0.3-0.7,0.6-1,0.7c-0.3,0.1-0.5,0.2-0.8,0.2c-0.1,0-0.2,0-0.4,0
				c-0.1,0-0.2,0-0.3-0.1l0.3-1.4h0.6c0,0.3,0.1,0.5,0.3,0.5c0.3,0,0.6-0.2,1-0.5c0.4-0.4,0.8-0.9,1.3-1.6c-0.1-0.9-0.3-1.9-0.6-3.1
				C5.9,7.8,5.7,7,5.6,6.6C5.5,6.3,5.4,6,5.3,5.9C5.2,5.9,5.1,5.8,5,5.8C4.9,5.8,4.7,5.9,4.6,6S4.3,6.4,4.1,6.7L3.6,6.4
				c0.3-0.5,0.7-0.9,1-1.1S5.2,5,5.6,5L5.6,5z"/>
			<g class="st7">
				<defs>
					<polygon id="SVGID_6_" points="0,197.4 216.3,197.4 216.3,-3.6 0,-3.6 0,197.4 					"/>
				</defs>
				<clipPath id="SVGID_7_">
					<use xlink:href="#SVGID_6_"  style="overflow:visible;"/>
				</clipPath>
				<path class="st8" d="M204.1,171.7c0.2,0,0.3,0,0.4,0.1s0.2,0.1,0.3,0.2s0.2,0.2,0.2,0.3c0.1,0.1,0.1,0.3,0.2,0.5
					s0.1,0.4,0.2,0.7c0.1,0.3,0.1,0.6,0.2,0.9h0.1c0.5-0.7,0.8-1.2,1.1-1.5c0.2-0.3,0.4-0.5,0.6-0.7s0.3-0.3,0.5-0.3
					c0.2-0.1,0.4-0.1,0.6-0.1c0.2,0,0.4,0,0.6,0.1l-0.3,1.3h-0.5c0-0.2-0.1-0.3-0.3-0.3c0,0-0.1,0-0.1,0c0,0-0.1,0-0.2,0.1
					s-0.2,0.1-0.3,0.3c-0.1,0.1-0.3,0.3-0.5,0.5c-0.2,0.2-0.3,0.4-0.5,0.6l-0.5,0.6c0.1,0.5,0.2,0.9,0.3,1.2
					c0.1,0.3,0.1,0.6,0.2,0.9c0.1,0.2,0.1,0.4,0.2,0.5c0,0.1,0.1,0.2,0.2,0.3c0.1,0.1,0.1,0.1,0.2,0.1c0.1,0,0.1,0,0.2,0
					c0.1,0,0.3-0.1,0.4-0.2c0.1-0.1,0.3-0.3,0.5-0.7l0.5,0.3c-0.3,0.5-0.7,0.9-0.9,1.1s-0.6,0.3-1,0.3c-0.2,0-0.4,0-0.5-0.1
					c-0.1-0.1-0.3-0.2-0.4-0.4c-0.1-0.2-0.2-0.4-0.3-0.8c-0.2-0.6-0.2-1.1-0.3-1.4h-0.1c-0.5,0.7-0.9,1.3-1.2,1.6
					c-0.3,0.3-0.5,0.6-0.6,0.7s-0.3,0.3-0.5,0.3c-0.2,0.1-0.4,0.1-0.6,0.1c-0.2,0-0.4,0-0.6-0.1l0.3-1.3h0.5c0,0.2,0.1,0.3,0.3,0.3
					c0.1,0,0.1,0,0.2-0.1s0.2-0.1,0.3-0.3c0.1-0.1,0.3-0.4,0.6-0.7c0.3-0.3,0.6-0.8,1.1-1.4c-0.1-0.4-0.2-0.8-0.2-1.1
					c-0.1-0.4-0.2-0.7-0.2-1c-0.1-0.3-0.2-0.5-0.2-0.6c-0.1-0.1-0.1-0.2-0.2-0.2c-0.1,0-0.1-0.1-0.2-0.1c-0.1,0-0.2,0-0.3,0.1
					c-0.1,0-0.2,0.1-0.3,0.2c-0.1,0.1-0.2,0.3-0.4,0.5l-0.5-0.3c0.3-0.5,0.6-0.8,0.9-1C203.3,171.8,203.7,171.7,204.1,171.7
					L204.1,171.7z"/>
				<g class="st9">
					<defs>
						<polygon id="SVGID_8_" points="0,197.4 216.3,197.4 216.3,-3.6 0,-3.6 0,197.4 						"/>
					</defs>
					<clipPath id="SVGID_9_">
						<use xlink:href="#SVGID_8_"  style="overflow:visible;"/>
					</clipPath>
					<path class="st10" d="M8,172.3c-0.5,0-1,0.2-1.3,0.6c-0.4,0.4-0.7,1-0.9,1.8c-0.2,0.8-0.3,1.5-0.3,2.1c0,0.5,0.1,0.9,0.3,1.2
						c0.2,0.3,0.6,0.4,1,0.4c0.5,0,0.9-0.2,1.3-0.6c0.4-0.4,0.7-1,0.9-1.8c0.2-0.8,0.3-1.5,0.3-2.1c0-0.5-0.1-0.9-0.3-1.2
						C8.7,172.4,8.4,172.3,8,172.3L8,172.3z M8.1,171.7c0.8,0,1.4,0.2,1.8,0.6c0.4,0.4,0.6,1,0.6,1.9c0,0.6-0.1,1.2-0.3,1.8
						c-0.2,0.6-0.5,1.2-0.8,1.6c-0.3,0.4-0.8,0.8-1.2,1s-1,0.3-1.7,0.3c-0.8,0-1.4-0.2-1.8-0.6c-0.4-0.4-0.6-1-0.6-1.8
						c0-0.4,0.1-0.8,0.2-1.4c0.2-0.7,0.4-1.3,0.8-1.8s0.8-0.9,1.3-1.2S7.5,171.7,8.1,171.7L8.1,171.7z"/>
					<g class="st11">
						<defs>
							<polygon id="SVGID_10_" points="0,197.4 216.3,197.4 216.3,-3.6 0,-3.6 0,197.4 							"/>
						</defs>
						<clipPath id="SVGID_11_">
							<use xlink:href="#SVGID_10_"  style="overflow:visible;"/>
						</clipPath>
						<path class="st12" d="M108.2,78.2c-0.5,0-0.9,0.2-1.2,0.5c-0.4,0.4-0.6,0.9-0.8,1.5c-0.2,0.6-0.3,1.2-0.3,1.8
							c0,0.5,0.1,0.8,0.2,1c0.1,0.2,0.3,0.3,0.6,0.3c0.3,0,0.6-0.1,0.9-0.4c0.3-0.2,0.6-0.6,0.9-1.1c0.3-0.5,0.5-1,0.6-1.6l0.1-0.3
							c0-0.2,0.1-0.3,0.1-0.5c0-0.1,0-0.3,0-0.4c0-0.3-0.1-0.6-0.2-0.7S108.5,78.2,108.2,78.2L108.2,78.2z M91.1,78.2
							c-0.4,0-0.9,0.2-1.3,0.7c-0.4,0.4-0.7,1.1-0.9,1.8c0.6,0,1.1-0.1,1.6-0.2c0.4-0.1,0.8-0.3,1-0.5c0.2-0.2,0.4-0.6,0.4-0.9
							c0-0.3-0.1-0.5-0.2-0.6S91.3,78.2,91.1,78.2L91.1,78.2z M71.8,78.2c-0.5,0-0.9,0.2-1.2,0.5c-0.4,0.4-0.6,0.9-0.8,1.5
							c-0.2,0.6-0.3,1.2-0.3,1.8c0,0.5,0.1,0.8,0.2,1c0.1,0.2,0.3,0.3,0.6,0.3c0.3,0,0.6-0.1,0.9-0.4c0.3-0.2,0.6-0.6,0.9-1.1
							c0.3-0.5,0.5-1,0.6-1.6l0.1-0.3c0-0.2,0.1-0.3,0.1-0.5c0-0.1,0-0.3,0-0.4c0-0.3-0.1-0.6-0.2-0.7S72.2,78.2,71.8,78.2
							L71.8,78.2z M102.4,77.7h0.4l-0.9,4.2c-0.1,0.4-0.1,0.8-0.1,1c0,0.2,0,0.3,0.1,0.4s0.1,0.1,0.3,0.1c0.1,0,0.3-0.1,0.4-0.2
							c0.1-0.1,0.4-0.3,0.6-0.6l0.4,0.4c-0.4,0.5-0.8,0.8-1,0.9c-0.3,0.2-0.6,0.2-0.9,0.2c-0.3,0-0.5-0.1-0.7-0.3
							c-0.2-0.2-0.3-0.5-0.3-0.8c0-0.3,0.1-0.8,0.2-1.3l0.5-2.1c0.1-0.4,0.2-0.8,0.2-1c0-0.2,0-0.3-0.1-0.4
							c-0.1-0.1-0.3-0.1-0.6-0.1l0.1-0.3L102.4,77.7L102.4,77.7z M97.2,77.6c0.4,0,0.8,0,1.1,0.1c0.3,0,0.7,0.1,1,0.2L99,79.4h-0.5
							c0-0.4-0.2-0.7-0.4-0.9s-0.5-0.3-1-0.3c-0.3,0-0.6,0.1-0.8,0.3c-0.2,0.2-0.3,0.4-0.3,0.7c0,0.2,0,0.3,0.1,0.4
							c0.1,0.1,0.2,0.3,0.3,0.4c0.2,0.1,0.4,0.3,0.8,0.5c0.3,0.2,0.5,0.3,0.7,0.5c0.2,0.1,0.3,0.3,0.4,0.4c0.1,0.1,0.2,0.3,0.2,0.4
							c0,0.2,0.1,0.3,0.1,0.5c0,0.4-0.1,0.7-0.3,1c-0.2,0.3-0.5,0.5-0.8,0.6c-0.4,0.1-0.8,0.2-1.2,0.2c-0.4,0-0.7,0-1.1-0.1
							c-0.4-0.1-0.7-0.1-1.2-0.3l0.3-1.4h0.5c0,0.4,0.1,0.7,0.4,1c0.2,0.2,0.6,0.3,1,0.3c0.4,0,0.7-0.1,1-0.3
							c0.2-0.2,0.4-0.5,0.4-0.8c0-0.2,0-0.4-0.1-0.5c-0.1-0.1-0.2-0.3-0.3-0.4c-0.1-0.1-0.4-0.3-0.7-0.5c-0.3-0.2-0.6-0.4-0.8-0.6
							c-0.2-0.2-0.3-0.3-0.4-0.5c-0.1-0.2-0.1-0.4-0.1-0.7c0-0.3,0.1-0.6,0.3-0.9c0.2-0.3,0.5-0.5,0.8-0.6
							C96.3,77.7,96.7,77.6,97.2,77.6L97.2,77.6z M113.6,77.6c0.3,0,0.5,0.1,0.7,0.3c0.2,0.2,0.2,0.4,0.2,0.7c0,0.2-0.1,0.5-0.2,0.8
							l0.1,0c0.4-0.6,0.8-1.1,1.2-1.3c0.4-0.3,0.8-0.4,1.2-0.4c0.4,0,0.7,0.1,0.9,0.4c0.2,0.2,0.3,0.6,0.3,1c0,0.3-0.1,0.7-0.2,1.2
							l-0.4,1.7c-0.1,0.5-0.2,0.8-0.2,1c0,0.2,0,0.3,0.1,0.4c0.1,0.1,0.1,0.1,0.3,0.1c0.1,0,0.3-0.1,0.4-0.2
							c0.1-0.1,0.4-0.3,0.6-0.6l0.4,0.4c-0.4,0.4-0.7,0.7-1,0.9c-0.3,0.2-0.6,0.3-1,0.3c-0.3,0-0.5-0.1-0.7-0.3
							c-0.2-0.2-0.3-0.5-0.3-0.8c0-0.3,0.1-0.7,0.2-1.3l0.3-1.1c0.1-0.4,0.2-0.7,0.2-0.9c0-0.2,0-0.4,0-0.5c0-0.3-0.1-0.5-0.2-0.7
							c-0.1-0.1-0.3-0.2-0.5-0.2c-0.2,0-0.4,0.1-0.6,0.2c-0.2,0.1-0.4,0.4-0.7,0.7c-0.2,0.3-0.4,0.6-0.6,0.9c-0.1,0.3-0.3,0.6-0.4,1
							l-0.6,2.8h-1.1l1-4.2c0.1-0.4,0.1-0.7,0.1-1c0-0.2,0-0.3-0.1-0.4c-0.1-0.1-0.1-0.1-0.3-0.1c-0.1,0-0.3,0.1-0.4,0.2
							c-0.2,0.1-0.4,0.3-0.6,0.6l-0.4-0.4c0.4-0.4,0.7-0.7,1-0.9C112.9,77.7,113.2,77.6,113.6,77.6L113.6,77.6z M108.1,77.6
							c0.3,0,0.6,0,0.8,0.1c0.2,0.1,0.5,0.2,0.8,0.3l0.6-0.4l0.4,0.1l-1,4.2c-0.1,0.4-0.1,0.7-0.1,1c0,0.2,0,0.3,0.1,0.4
							s0.1,0.1,0.3,0.1c0.1,0,0.3-0.1,0.4-0.2s0.4-0.3,0.6-0.6l0.4,0.4c-0.4,0.4-0.7,0.7-1,0.9c-0.3,0.2-0.6,0.3-0.9,0.3
							c-0.3,0-0.5-0.1-0.7-0.3c-0.2-0.2-0.2-0.4-0.2-0.7c0-0.2,0.1-0.5,0.2-0.8l-0.1,0c-0.4,0.6-0.8,1.1-1.2,1.3
							c-0.4,0.3-0.8,0.4-1.2,0.4c-0.5,0-0.9-0.2-1.1-0.5c-0.3-0.4-0.4-0.9-0.4-1.5c0-0.8,0.1-1.5,0.4-2.2c0.3-0.7,0.7-1.2,1.2-1.6
							C106.9,77.8,107.4,77.6,108.1,77.6L108.1,77.6z M91.3,77.6c0.5,0,0.9,0.1,1.2,0.3s0.4,0.5,0.4,1c0,0.7-0.3,1.3-1,1.7
							s-1.7,0.6-3.1,0.6c-0.1,0.3-0.1,0.5-0.1,0.9c0,0.5,0.1,0.8,0.3,1c0.2,0.2,0.5,0.3,0.9,0.3c0.4,0,0.8-0.1,1.1-0.3
							c0.3-0.2,0.7-0.4,1-0.8l0.4,0.4c-0.4,0.5-0.9,0.8-1.3,1.1c-0.4,0.2-0.9,0.4-1.5,0.4c-0.6,0-1.1-0.2-1.5-0.6s-0.5-0.9-0.5-1.6
							c0-0.5,0.1-1,0.3-1.5c0.2-0.5,0.4-1,0.8-1.4c0.3-0.4,0.8-0.8,1.2-1C90.3,77.8,90.8,77.6,91.3,77.6L91.3,77.6z M77.2,77.6
							c0.3,0,0.5,0.1,0.7,0.3c0.2,0.2,0.2,0.4,0.2,0.7c0,0.2,0,0.4-0.1,0.7l0.1,0c0.4-0.6,0.8-1,1.2-1.3c0.4-0.3,0.8-0.4,1.2-0.4
							c0.3,0,0.6,0,0.8,0.1L81,79.2h-0.7c0-0.2-0.1-0.3-0.1-0.4c0-0.1-0.1-0.2-0.2-0.2c-0.1,0-0.1-0.1-0.2-0.1
							c-0.2,0-0.3,0.1-0.5,0.2c-0.2,0.1-0.4,0.3-0.6,0.6c-0.2,0.3-0.4,0.6-0.6,0.8c-0.1,0.3-0.3,0.6-0.3,1L77.1,84H76l1-4.2
							c0.1-0.3,0.1-0.5,0.1-0.6c0-0.1,0-0.3,0-0.4c0-0.2,0-0.3-0.1-0.4c-0.1-0.1-0.1-0.1-0.3-0.1c-0.1,0-0.3,0.1-0.4,0.2
							c-0.2,0.1-0.4,0.3-0.6,0.6l-0.4-0.4c0.4-0.4,0.7-0.7,1-0.9C76.6,77.7,76.9,77.6,77.2,77.6L77.2,77.6z M71.7,77.6
							c0.3,0,0.6,0,0.8,0.1c0.2,0.1,0.5,0.2,0.8,0.3l0.6-0.4l0.4,0.1l-1,4.2c-0.1,0.4-0.1,0.7-0.1,1c0,0.2,0,0.3,0.1,0.4
							c0.1,0.1,0.1,0.1,0.3,0.1c0.1,0,0.3-0.1,0.4-0.2c0.1-0.1,0.4-0.3,0.6-0.6L75,83c-0.4,0.4-0.7,0.7-1,0.9
							c-0.3,0.2-0.6,0.3-0.9,0.3c-0.3,0-0.5-0.1-0.7-0.3c-0.2-0.2-0.2-0.4-0.2-0.7c0-0.2,0.1-0.5,0.2-0.8l-0.1,0
							c-0.4,0.6-0.8,1.1-1.2,1.3s-0.8,0.4-1.2,0.4c-0.5,0-0.9-0.2-1.1-0.5c-0.3-0.4-0.4-0.9-0.4-1.5c0-0.8,0.1-1.5,0.4-2.2
							c0.3-0.7,0.7-1.2,1.2-1.6C70.5,77.8,71.1,77.6,71.7,77.6L71.7,77.6z M84.1,76.1H85l-0.4,1.6h2l-0.1,0.7h-2L83.9,81
							c-0.1,0.5-0.2,0.9-0.2,1.1c0,0.2,0,0.4,0,0.5c0,0.5,0.2,0.8,0.7,0.8c0.2,0,0.4-0.1,0.6-0.2c0.2-0.1,0.5-0.4,0.8-0.8l0.4,0.4
							c-0.4,0.5-0.7,0.8-1.1,1c-0.4,0.2-0.7,0.3-1.1,0.3c-0.9,0-1.4-0.5-1.4-1.4c0-0.3,0-0.6,0.1-0.9l0.8-3.4h-1.1l0.1-0.5
							c0.3,0,0.5,0,0.6-0.1c0.1,0,0.2-0.1,0.3-0.1c0.1-0.1,0.2-0.1,0.2-0.3c0.1-0.1,0.1-0.3,0.2-0.4S84,76.6,84.1,76.1L84.1,76.1z
							 M102.3,75.2h1.2l-0.3,1.3h-1.2L102.3,75.2L102.3,75.2z M65.2,75c0.4,0,0.8,0,1.1,0.1c0.3,0,0.7,0.1,1.1,0.3L67,77.1h-0.6
							c0-0.5-0.2-0.9-0.4-1.2c-0.2-0.2-0.5-0.4-1-0.4c-0.6,0-1.2,0.3-1.7,0.9c-0.5,0.6-0.9,1.4-1.2,2.4s-0.5,1.9-0.5,2.8
							c0,0.7,0.1,1.2,0.4,1.5c0.2,0.3,0.6,0.5,1.1,0.5c0.3,0,0.6,0,0.9-0.1c0.2-0.1,0.5-0.3,0.7-0.5c0.2-0.2,0.4-0.6,0.6-1H66
							l-0.4,1.9c-0.8,0.2-1.7,0.3-2.6,0.3c-0.8,0-1.5-0.2-1.9-0.7c-0.4-0.5-0.6-1.2-0.6-2.1c0-0.6,0.1-1.4,0.3-2.2
							c0.2-0.8,0.6-1.6,1-2.2c0.4-0.6,0.9-1.1,1.5-1.5C63.9,75.1,64.5,75,65.2,75L65.2,75z"/>
						<g class="st13">
							<defs>
								<polygon id="SVGID_12_" points="0,197.4 216.3,197.4 216.3,-3.6 0,-3.6 0,197.4 								"/>
							</defs>
							<clipPath id="SVGID_13_">
								<use xlink:href="#SVGID_12_"  style="overflow:visible;"/>
							</clipPath>
							<path class="st14" d="M127.2,78.4c-0.2,0-0.4,0.1-0.7,0.2c-0.2,0.2-0.5,0.4-0.7,0.7c-0.3,0.3-0.5,0.7-0.6,1
								c-0.1,0.3-0.3,0.7-0.3,1.1l-0.1,0.3c0,0.2-0.1,0.4-0.1,0.5c0,0.1,0,0.2,0,0.4c0,0.3,0.1,0.6,0.2,0.7c0.1,0.2,0.4,0.2,0.8,0.2
								c0.2,0,0.4,0,0.6-0.1c0.2-0.1,0.4-0.2,0.5-0.4c0.2-0.2,0.3-0.4,0.5-0.6c0.1-0.2,0.3-0.5,0.4-0.8c0.1-0.3,0.2-0.6,0.2-1
								c0.1-0.3,0.1-0.6,0.1-0.9c0-0.5-0.1-0.8-0.2-1C127.7,78.5,127.5,78.4,127.2,78.4L127.2,78.4z M153.6,78.2
								c-0.4,0-0.9,0.2-1.3,0.7c-0.4,0.4-0.7,1.1-0.9,1.8c0.6,0,1.1-0.1,1.6-0.2c0.4-0.1,0.8-0.3,1-0.5c0.2-0.2,0.4-0.6,0.4-0.9
								c0-0.3-0.1-0.5-0.2-0.6S153.9,78.2,153.6,78.2L153.6,78.2z M138.4,78.2c-0.5,0-0.9,0.2-1.2,0.5c-0.4,0.4-0.6,0.9-0.8,1.5
								c-0.2,0.6-0.3,1.2-0.3,1.8c0,0.5,0.1,0.8,0.2,1c0.1,0.2,0.3,0.3,0.6,0.3c0.3,0,0.6-0.1,0.9-0.4c0.3-0.2,0.6-0.6,0.9-1.1
								s0.5-1,0.6-1.6l0.1-0.3c0-0.2,0.1-0.3,0.1-0.5c0-0.1,0-0.3,0-0.4c0-0.3-0.1-0.6-0.2-0.7S138.7,78.2,138.4,78.2L138.4,78.2z
								 M153.9,77.6c0.5,0,0.9,0.1,1.2,0.3c0.3,0.2,0.4,0.5,0.4,1c0,0.7-0.3,1.3-1,1.7c-0.7,0.4-1.7,0.6-3.1,0.6
								c-0.1,0.3-0.1,0.5-0.1,0.9c0,0.5,0.1,0.8,0.3,1c0.2,0.2,0.5,0.3,0.9,0.3c0.4,0,0.8-0.1,1.1-0.3c0.3-0.2,0.7-0.4,1-0.8
								l0.4,0.4c-0.4,0.5-0.9,0.8-1.3,1.1c-0.4,0.2-0.9,0.4-1.5,0.4c-0.6,0-1.1-0.2-1.5-0.6s-0.5-0.9-0.5-1.6c0-0.5,0.1-1,0.3-1.5
								s0.4-1,0.8-1.4c0.3-0.4,0.8-0.8,1.2-1C152.8,77.8,153.3,77.6,153.9,77.6L153.9,77.6z M143.7,77.6c0.3,0,0.5,0.1,0.7,0.3
								c0.2,0.2,0.2,0.4,0.2,0.7c0,0.2-0.1,0.5-0.2,0.8l0.1,0c0.4-0.6,0.8-1.1,1.2-1.3c0.4-0.3,0.8-0.4,1.2-0.4
								c0.4,0,0.7,0.1,0.9,0.4c0.2,0.2,0.3,0.6,0.3,1c0,0.3-0.1,0.7-0.2,1.2l-0.4,1.7c-0.1,0.5-0.2,0.8-0.2,1c0,0.2,0,0.3,0.1,0.4
								c0.1,0.1,0.1,0.1,0.3,0.1c0.1,0,0.3-0.1,0.4-0.2c0.1-0.1,0.4-0.3,0.6-0.6l0.4,0.4c-0.4,0.4-0.7,0.7-1,0.9
								c-0.3,0.2-0.6,0.3-1,0.3c-0.3,0-0.5-0.1-0.7-0.3c-0.2-0.2-0.3-0.5-0.3-0.8c0-0.3,0.1-0.7,0.2-1.3l0.3-1.1
								c0.1-0.4,0.2-0.7,0.2-0.9c0-0.2,0-0.4,0-0.5c0-0.3-0.1-0.5-0.2-0.7c-0.1-0.1-0.3-0.2-0.5-0.2c-0.2,0-0.4,0.1-0.6,0.2
								c-0.2,0.1-0.4,0.4-0.7,0.7c-0.2,0.3-0.4,0.6-0.6,0.9c-0.1,0.3-0.3,0.6-0.4,1l-0.6,2.8h-1.1l1-4.2c0.1-0.4,0.1-0.7,0.1-1
								c0-0.2,0-0.3-0.1-0.4c-0.1-0.1-0.1-0.1-0.3-0.1c-0.1,0-0.3,0.1-0.4,0.2c-0.2,0.1-0.4,0.3-0.6,0.6l-0.4-0.4
								c0.4-0.4,0.7-0.7,1-0.9C143.1,77.7,143.4,77.6,143.7,77.6L143.7,77.6z M138.2,77.6c0.3,0,0.6,0,0.8,0.1
								c0.2,0.1,0.5,0.2,0.8,0.3l0.6-0.4l0.4,0.1l-1,4.2c-0.1,0.4-0.1,0.7-0.1,1c0,0.2,0,0.3,0.1,0.4c0.1,0.1,0.1,0.1,0.3,0.1
								c0.1,0,0.3-0.1,0.4-0.2s0.4-0.3,0.6-0.6l0.4,0.4c-0.4,0.4-0.7,0.7-1,0.9s-0.6,0.3-0.9,0.3c-0.3,0-0.5-0.1-0.7-0.3
								c-0.2-0.2-0.2-0.4-0.2-0.7c0-0.2,0.1-0.5,0.2-0.8l-0.1,0c-0.4,0.6-0.8,1.1-1.2,1.3c-0.4,0.3-0.8,0.4-1.2,0.4
								c-0.5,0-0.9-0.2-1.1-0.5c-0.3-0.4-0.4-0.9-0.4-1.5c0-0.8,0.1-1.5,0.4-2.2c0.3-0.7,0.7-1.2,1.2-1.6
								C137,77.8,137.6,77.6,138.2,77.6L138.2,77.6z M124.5,77.6c0.3,0,0.5,0.1,0.6,0.3c0.2,0.2,0.2,0.4,0.2,0.7
								c0,0.2-0.1,0.5-0.2,0.8l0.1,0c0.8-1.2,1.6-1.8,2.4-1.8c0.5,0,0.8,0.2,1.1,0.5s0.4,0.9,0.4,1.5c0,0.7-0.1,1.4-0.4,2.1
								c-0.3,0.7-0.7,1.3-1.2,1.7c-0.5,0.4-1.1,0.6-1.7,0.6c-0.6,0-1.1-0.1-1.5-0.4l-0.3,1.4c-0.1,0.3-0.1,0.6-0.1,0.8
								c0,0.2,0,0.3,0.1,0.4c0.1,0.1,0.3,0.1,0.6,0.2l-0.1,0.3h-2l1.6-7c0.1-0.4,0.1-0.7,0.1-1c0-0.2,0-0.3-0.1-0.4
								c-0.1-0.1-0.1-0.1-0.3-0.1c-0.1,0-0.3,0.1-0.4,0.2c-0.2,0.1-0.4,0.3-0.6,0.6l-0.4-0.4c0.4-0.4,0.7-0.7,1-0.9
								C123.8,77.7,124.1,77.6,124.5,77.6L124.5,77.6z M133.3,74.6h0.4l-1.6,7.3c-0.1,0.4-0.1,0.8-0.1,1c0,0.2,0,0.3,0.1,0.4
								c0.1,0.1,0.1,0.1,0.3,0.1c0.1,0,0.3-0.1,0.4-0.2c0.1-0.1,0.4-0.3,0.6-0.6l0.4,0.4c-0.4,0.4-0.8,0.8-1,0.9
								c-0.3,0.2-0.6,0.2-0.9,0.2c-0.3,0-0.5-0.1-0.7-0.3c-0.2-0.2-0.3-0.5-0.3-0.8c0-0.3,0.1-0.7,0.2-1.3l1.2-5.3
								c0.1-0.2,0.1-0.4,0.1-0.6c0-0.1,0-0.3,0-0.4c0-0.1,0-0.2-0.1-0.3c0-0.1-0.1-0.1-0.2-0.1s-0.3-0.1-0.5-0.1l0.1-0.3L133.3,74.6
								L133.3,74.6z"/>
							<g class="st15">
								<defs>
									<polygon id="SVGID_14_" points="0,197.4 216.3,197.4 216.3,-3.6 0,-3.6 0,197.4 									"/>
								</defs>
								<clipPath id="SVGID_15_">
									<use xlink:href="#SVGID_14_"  style="overflow:visible;"/>
								</clipPath>
								<path class="st16" d="M76.6,90.2l0.2,0.5c-1,0.3-1.8,1-2.3,2s-0.7,2.2-0.7,3.7c0,1.5,0.2,2.8,0.7,3.8c0.5,1,1.2,1.7,2.3,2
									l-0.2,0.5c-1.3-0.3-2.3-1.1-3-2.2c-0.7-1.1-1-2.5-1-4.1c0-1.6,0.3-2.9,1-4.1S75.3,90.6,76.6,90.2L76.6,90.2z"/>
								<g class="st17">
									<defs>
										<polygon id="SVGID_16_" points="0,197.4 216.3,197.4 216.3,-3.6 0,-3.6 0,197.4 										"/>
									</defs>
									<clipPath id="SVGID_17_">
										<use xlink:href="#SVGID_16_"  style="overflow:visible;"/>
									</clipPath>
									<path class="st18" d="M86.4,93.3c0.2,0,0.3,0,0.5,0.1c0.1,0,0.2,0.1,0.3,0.2c0.1,0.1,0.2,0.2,0.2,0.3
										c0.1,0.1,0.1,0.3,0.2,0.5c0.1,0.2,0.1,0.4,0.2,0.8c0.1,0.6,0.2,1.2,0.3,1.8c0.1,0.6,0.2,1.2,0.3,1.7
										c0.4-0.6,0.8-1.2,1.1-1.8c0.3-0.6,0.5-1.1,0.6-1.5c0.1-0.4,0.2-0.8,0.2-1.1c0-0.2,0-0.3-0.1-0.4s-0.2-0.1-0.4-0.1l0.1-0.3
										h1.7l0.2,0.3c-0.3,0.9-0.8,1.9-1.4,2.9c-0.6,1-1.2,2-1.9,3c-0.7,1-1.3,1.7-1.7,2.1c-0.3,0.3-0.6,0.5-0.9,0.6
										c-0.2,0.1-0.5,0.1-0.8,0.1c-0.1,0-0.2,0-0.3,0c-0.1,0-0.2,0-0.3-0.1l0.3-1.3h0.5c0,0.3,0.1,0.4,0.3,0.4
										c0.3,0,0.6-0.2,0.9-0.5c0.3-0.3,0.7-0.8,1.2-1.4C87.3,99,87.1,98,86.9,97c-0.2-1.2-0.4-1.9-0.5-2.1
										c-0.1-0.3-0.2-0.5-0.3-0.6c-0.1-0.1-0.1-0.1-0.2-0.1c-0.1,0-0.3,0.1-0.4,0.2c-0.1,0.1-0.3,0.3-0.5,0.6l-0.4-0.3
										c0.3-0.5,0.6-0.8,0.8-1C85.8,93.4,86.1,93.3,86.4,93.3L86.4,93.3z M79.6,93.3c0.1,0,0.3,0,0.4,0c0.1,0,0.2,0.1,0.3,0.1
										c0.1,0.1,0.1,0.1,0.2,0.2c0.1,0.1,0.1,0.2,0.2,0.4c0.1,0.2,0.1,0.4,0.2,0.6c0.1,0.3,0.1,0.5,0.1,0.8H81
										c0.4-0.6,0.7-1,1-1.3c0.2-0.3,0.4-0.5,0.5-0.6c0.1-0.1,0.3-0.2,0.4-0.3c0.1-0.1,0.3-0.1,0.5-0.1c0.2,0,0.4,0,0.5,0.1
										l-0.3,1.2h-0.5c0-0.2-0.1-0.3-0.2-0.3c0,0-0.1,0-0.1,0c0,0-0.1,0-0.2,0.1c-0.1,0-0.2,0.1-0.3,0.3c-0.1,0.1-0.3,0.3-0.4,0.5
										c-0.2,0.2-0.3,0.4-0.5,0.6l-0.4,0.6c0.1,0.4,0.2,0.8,0.2,1.1c0.1,0.3,0.1,0.6,0.2,0.8c0.1,0.2,0.1,0.4,0.1,0.5
										c0,0.1,0.1,0.2,0.1,0.3C81.9,99,82,99,82,99c0.1,0,0.1,0,0.2,0c0.1,0,0.2,0,0.3-0.1c0.1-0.1,0.3-0.3,0.5-0.6l0.4,0.3
										c-0.3,0.5-0.6,0.8-0.8,1c-0.2,0.2-0.5,0.3-0.9,0.3c-0.2,0-0.3,0-0.5-0.1c-0.1-0.1-0.2-0.2-0.3-0.3
										c-0.1-0.1-0.2-0.4-0.3-0.7c-0.1-0.6-0.2-1-0.2-1.3h-0.1c-0.5,0.7-0.8,1.1-1,1.4s-0.4,0.5-0.6,0.6c-0.1,0.1-0.3,0.2-0.4,0.3
										c-0.1,0.1-0.3,0.1-0.5,0.1c-0.2,0-0.4,0-0.5-0.1l0.3-1.2H78c0,0.2,0.1,0.3,0.2,0.3c0.1,0,0.1,0,0.2,0
										c0.1,0,0.2-0.1,0.3-0.2c0.1-0.1,0.3-0.3,0.5-0.6c0.2-0.3,0.5-0.7,1-1.2c-0.1-0.3-0.1-0.7-0.2-1c-0.1-0.3-0.1-0.6-0.2-0.9
										c-0.1-0.3-0.1-0.5-0.2-0.5c0-0.1-0.1-0.1-0.2-0.2c-0.1,0-0.1,0-0.2,0c-0.1,0-0.2,0-0.2,0.1c-0.1,0-0.2,0.1-0.2,0.2
										c-0.1,0.1-0.2,0.3-0.3,0.5L78,94.6c0.3-0.4,0.5-0.7,0.8-0.9C79,93.4,79.3,93.3,79.6,93.3L79.6,93.3z"/>
									<g class="st19">
										<defs>
											<polygon id="SVGID_18_" points="0,197.4 216.3,197.4 216.3,-3.6 0,-3.6 0,197.4 											"/>
										</defs>
										<clipPath id="SVGID_19_">
											<use xlink:href="#SVGID_18_"  style="overflow:visible;"/>
										</clipPath>
										<polygon class="st20" points="95.8,95.4 103.9,95.4 103.9,96.3 95.8,96.3 95.8,95.4 										"/>
										<g class="st21">
											<defs>
												<polygon id="SVGID_20_" points="0,197.4 216.3,197.4 216.3,-3.6 0,-3.6 0,197.4 												"/>
											</defs>
											<clipPath id="SVGID_21_">
												<use xlink:href="#SVGID_20_"  style="overflow:visible;"/>
											</clipPath>
											<path class="st22" d="M112.8,94.1c-0.2,0-0.4,0.1-0.7,0.2c-0.2,0.2-0.5,0.4-0.7,0.7c-0.3,0.3-0.5,0.7-0.6,1
												c-0.1,0.3-0.3,0.7-0.3,1.1l-0.1,0.3c0,0.2-0.1,0.4-0.1,0.5c0,0.1,0,0.2,0,0.4c0,0.3,0.1,0.6,0.2,0.7
												c0.1,0.2,0.4,0.2,0.8,0.2c0.2,0,0.4,0,0.6-0.1c0.2-0.1,0.4-0.2,0.5-0.4c0.2-0.2,0.3-0.4,0.5-0.6c0.1-0.2,0.3-0.5,0.4-0.8
												c0.1-0.3,0.2-0.6,0.2-1c0.1-0.3,0.1-0.6,0.1-0.9c0-0.5-0.1-0.8-0.2-1C113.2,94.2,113,94.1,112.8,94.1L112.8,94.1z
												 M139.1,93.8c-0.4,0-0.9,0.2-1.3,0.7c-0.4,0.4-0.7,1.1-0.9,1.8c0.6,0,1.1-0.1,1.6-0.2c0.4-0.1,0.8-0.3,1-0.5
												c0.2-0.2,0.4-0.6,0.4-0.9c0-0.3-0.1-0.5-0.2-0.6C139.6,93.9,139.4,93.8,139.1,93.8L139.1,93.8z M123.9,93.8
												c-0.5,0-0.9,0.2-1.2,0.5s-0.6,0.9-0.8,1.5c-0.2,0.6-0.3,1.2-0.3,1.8c0,0.5,0.1,0.8,0.2,1c0.1,0.2,0.3,0.3,0.6,0.3
												c0.3,0,0.6-0.1,0.9-0.4c0.3-0.2,0.6-0.6,0.9-1.1c0.3-0.5,0.5-1,0.6-1.6l0.1-0.3c0-0.2,0.1-0.3,0.1-0.5c0-0.1,0-0.3,0-0.4
												c0-0.3-0.1-0.6-0.2-0.7S124.2,93.8,123.9,93.8L123.9,93.8z M139.4,93.3c0.5,0,0.9,0.1,1.2,0.3c0.3,0.2,0.4,0.5,0.4,1
												c0,0.7-0.3,1.3-1,1.7c-0.7,0.4-1.7,0.6-3.1,0.6c-0.1,0.3-0.1,0.5-0.1,0.9c0,0.5,0.1,0.8,0.3,1c0.2,0.2,0.5,0.3,0.9,0.3
												c0.4,0,0.8-0.1,1.1-0.3c0.3-0.2,0.7-0.4,1-0.8l0.4,0.4c-0.4,0.5-0.9,0.8-1.3,1.1c-0.4,0.2-0.9,0.4-1.5,0.4
												c-0.6,0-1.1-0.2-1.5-0.6s-0.5-0.9-0.5-1.6c0-0.5,0.1-1,0.3-1.5s0.4-1,0.8-1.4c0.3-0.4,0.8-0.8,1.2-1
												C138.3,93.4,138.8,93.3,139.4,93.3L139.4,93.3z M129.3,93.3c0.3,0,0.5,0.1,0.7,0.3c0.2,0.2,0.2,0.4,0.2,0.7
												c0,0.2-0.1,0.5-0.2,0.8l0.1,0c0.4-0.6,0.8-1.1,1.2-1.3c0.4-0.3,0.8-0.4,1.2-0.4c0.4,0,0.7,0.1,0.9,0.4
												c0.2,0.2,0.3,0.6,0.3,1c0,0.3-0.1,0.7-0.2,1.2l-0.4,1.7c-0.1,0.5-0.2,0.8-0.2,1c0,0.2,0,0.3,0.1,0.4
												c0.1,0.1,0.1,0.1,0.3,0.1c0.1,0,0.3-0.1,0.4-0.2c0.1-0.1,0.4-0.3,0.6-0.6l0.4,0.4c-0.4,0.4-0.7,0.7-1,0.9
												c-0.3,0.2-0.6,0.3-1,0.3c-0.3,0-0.5-0.1-0.7-0.3c-0.2-0.2-0.3-0.5-0.3-0.8c0-0.3,0.1-0.7,0.2-1.3l0.3-1.1
												c0.1-0.4,0.2-0.7,0.2-0.9c0-0.2,0-0.4,0-0.5c0-0.3-0.1-0.5-0.2-0.7c-0.1-0.1-0.3-0.2-0.5-0.2c-0.2,0-0.4,0.1-0.6,0.2
												c-0.2,0.1-0.4,0.4-0.7,0.7c-0.2,0.3-0.4,0.6-0.6,0.9s-0.3,0.6-0.4,1l-0.6,2.8H128l1-4.2c0.1-0.4,0.1-0.7,0.1-1
												c0-0.2,0-0.3-0.1-0.4s-0.1-0.1-0.3-0.1c-0.1,0-0.3,0.1-0.4,0.2c-0.2,0.1-0.4,0.3-0.6,0.6l-0.4-0.4c0.4-0.4,0.7-0.7,1-0.9
												C128.6,93.4,128.9,93.3,129.3,93.3L129.3,93.3z M123.8,93.3c0.3,0,0.6,0,0.8,0.1c0.2,0.1,0.5,0.2,0.8,0.3l0.6-0.4
												l0.4,0.1l-1,4.2c-0.1,0.4-0.1,0.7-0.1,1c0,0.2,0,0.3,0.1,0.4s0.1,0.1,0.3,0.1c0.1,0,0.3-0.1,0.4-0.2s0.4-0.3,0.6-0.6
												l0.4,0.4c-0.4,0.4-0.7,0.7-1,0.9c-0.3,0.2-0.6,0.3-0.9,0.3c-0.3,0-0.5-0.1-0.7-0.3c-0.2-0.2-0.2-0.4-0.2-0.7
												c0-0.2,0.1-0.5,0.2-0.8l-0.1,0c-0.4,0.6-0.8,1.1-1.2,1.3c-0.4,0.3-0.8,0.4-1.2,0.4c-0.5,0-0.9-0.2-1.1-0.5
												c-0.3-0.4-0.4-0.9-0.4-1.5c0-0.8,0.1-1.5,0.4-2.2c0.3-0.7,0.7-1.2,1.2-1.6C122.5,93.5,123.1,93.3,123.8,93.3L123.8,93.3z
												 M110,93.3c0.3,0,0.5,0.1,0.6,0.3c0.2,0.2,0.2,0.4,0.2,0.7c0,0.2-0.1,0.5-0.2,0.8l0.1,0c0.8-1.2,1.6-1.8,2.4-1.8
												c0.5,0,0.8,0.2,1.1,0.5c0.3,0.4,0.4,0.9,0.4,1.5c0,0.7-0.1,1.4-0.4,2.1c-0.3,0.7-0.7,1.3-1.2,1.7
												c-0.5,0.4-1.1,0.6-1.7,0.6c-0.6,0-1.1-0.1-1.5-0.4l-0.3,1.4c-0.1,0.3-0.1,0.6-0.1,0.8c0,0.2,0,0.3,0.1,0.4
												c0.1,0.1,0.3,0.1,0.6,0.2l-0.1,0.3h-2l1.6-7c0.1-0.4,0.1-0.7,0.1-1c0-0.2,0-0.3-0.1-0.4c-0.1-0.1-0.1-0.1-0.3-0.1
												c-0.1,0-0.3,0.1-0.4,0.2c-0.2,0.1-0.4,0.3-0.6,0.6l-0.4-0.4c0.4-0.4,0.7-0.7,1-0.9C109.4,93.4,109.7,93.3,110,93.3
												L110,93.3z M118.8,90.3h0.4l-1.6,7.3c-0.1,0.4-0.1,0.8-0.1,1c0,0.2,0,0.3,0.1,0.4s0.1,0.1,0.3,0.1c0.1,0,0.3-0.1,0.4-0.2
												s0.4-0.3,0.6-0.6l0.4,0.4c-0.4,0.4-0.8,0.8-1,0.9s-0.6,0.2-0.9,0.2c-0.3,0-0.5-0.1-0.7-0.3c-0.2-0.2-0.3-0.5-0.3-0.8
												c0-0.3,0.1-0.7,0.2-1.3l1.2-5.3c0.1-0.2,0.1-0.4,0.1-0.6c0-0.1,0-0.3,0-0.4c0-0.1,0-0.2-0.1-0.3c0-0.1-0.1-0.1-0.2-0.1
												c-0.1,0-0.3-0.1-0.5-0.1l0.1-0.3L118.8,90.3L118.8,90.3z"/>
											<g class="st23">
												<defs>
													<polygon id="SVGID_22_" points="0,197.4 216.3,197.4 216.3,-3.6 0,-3.6 0,197.4 													"/>
												</defs>
												<clipPath id="SVGID_23_">
													<use xlink:href="#SVGID_22_"  style="overflow:visible;"/>
												</clipPath>
												<path class="st24" d="M142.3,90.2c1.3,0.3,2.3,1.1,2.9,2.2c0.7,1.1,1,2.5,1,4.1c0,1.6-0.3,2.9-1,4.1
													c-0.7,1.1-1.7,1.8-3,2.2l-0.2-0.5c1-0.3,1.8-1,2.3-2c0.5-1,0.7-2.3,0.7-3.8c0-1.5-0.2-2.7-0.7-3.7c-0.5-1-1.3-1.6-2.3-2
													L142.3,90.2z"/>
												<g class="st25">
													<defs>
														<polygon id="SVGID_24_" points="0,197.4 216.3,197.4 216.3,-3.6 0,-3.6 0,197.4 														"/>
													</defs>
													<clipPath id="SVGID_25_">
														<use xlink:href="#SVGID_24_"  style="overflow:visible;"/>
													</clipPath>
													<path class="st26" d="M109.3,188.7c-0.3,0-0.7,0.2-1,0.5c-0.3,0.3-0.5,0.8-0.7,1.4c0.5,0,0.9,0,1.2-0.1
														c0.3-0.1,0.6-0.2,0.8-0.4c0.2-0.2,0.3-0.4,0.3-0.7c0-0.2,0-0.4-0.1-0.5S109.5,188.7,109.3,188.7L109.3,188.7z
														 M93.2,188.7c-0.3,0-0.6,0.1-0.9,0.4c-0.3,0.3-0.5,0.6-0.6,1.1c-0.2,0.5-0.2,0.9-0.2,1.4c0,0.3,0,0.6,0.1,0.8
														c0.1,0.2,0.3,0.3,0.5,0.3c0.2,0,0.3-0.1,0.5-0.2c0.2-0.1,0.3-0.3,0.5-0.5c0.2-0.2,0.3-0.5,0.4-0.7
														c0.1-0.2,0.2-0.5,0.3-0.8c0.1-0.3,0.1-0.6,0.1-0.9c0-0.3-0.1-0.4-0.2-0.6C93.6,188.7,93.5,188.7,93.2,188.7L93.2,188.7
														z M88.3,188.3h0.3l-0.7,3.2c-0.1,0.3-0.1,0.6-0.1,0.7c0,0.1,0,0.2,0.1,0.3c0,0.1,0.1,0.1,0.2,0.1c0.1,0,0.2,0,0.3-0.1
														c0.1-0.1,0.3-0.2,0.5-0.5l0.3,0.3c-0.3,0.3-0.6,0.6-0.8,0.7s-0.4,0.2-0.7,0.2c-0.2,0-0.4-0.1-0.5-0.2s-0.2-0.4-0.2-0.6
														c0-0.2,0-0.6,0.1-1l0.4-1.6c0.1-0.3,0.1-0.6,0.1-0.7c0-0.1,0-0.2-0.1-0.3s-0.2-0.1-0.4-0.1l0.1-0.3L88.3,188.3
														L88.3,188.3z M109.5,188.3c0.4,0,0.7,0.1,0.9,0.2c0.2,0.2,0.3,0.4,0.3,0.8c0,0.6-0.3,1-0.8,1.3
														c-0.5,0.3-1.3,0.4-2.3,0.4c0,0.2-0.1,0.4-0.1,0.6c0,0.3,0.1,0.6,0.2,0.8c0.1,0.2,0.4,0.2,0.7,0.2
														c0.3,0,0.6-0.1,0.8-0.2c0.2-0.1,0.5-0.3,0.8-0.6l0.3,0.3c-0.3,0.4-0.6,0.6-1,0.8c-0.3,0.2-0.7,0.3-1.1,0.3
														c-0.5,0-0.8-0.1-1.1-0.4c-0.3-0.3-0.4-0.7-0.4-1.2c0-0.4,0.1-0.7,0.2-1.1c0.1-0.4,0.3-0.8,0.6-1.1s0.6-0.6,0.9-0.7
														S109.1,188.3,109.5,188.3L109.5,188.3z M102.9,188.3c0.2,0,0.4,0.1,0.5,0.2c0.1,0.1,0.2,0.3,0.2,0.5
														c0,0.2,0,0.3-0.1,0.5l0.1,0c0.3-0.4,0.6-0.8,0.9-1c0.3-0.2,0.6-0.3,0.9-0.3c0.2,0,0.4,0,0.6,0.1l-0.2,1.1h-0.5
														c0-0.1,0-0.2-0.1-0.3s-0.1-0.1-0.1-0.2s-0.1,0-0.2,0c-0.1,0-0.2,0.1-0.4,0.2c-0.1,0.1-0.3,0.3-0.5,0.5
														c-0.2,0.2-0.3,0.4-0.4,0.6c-0.1,0.2-0.2,0.5-0.3,0.8l-0.5,2.1H102l0.7-3.1c0-0.2,0.1-0.3,0.1-0.5s0-0.2,0-0.3
														c0-0.1,0-0.2-0.1-0.3c0-0.1-0.1-0.1-0.2-0.1c-0.1,0-0.2,0-0.3,0.1s-0.3,0.2-0.5,0.5l-0.3-0.3c0.3-0.3,0.6-0.5,0.8-0.7
														C102.5,188.4,102.7,188.3,102.9,188.3L102.9,188.3z M97.2,188.3c0.2,0,0.4,0.1,0.5,0.2c0.1,0.1,0.2,0.3,0.2,0.6
														c0,0.3-0.1,0.6-0.2,1l-0.2,0.9c-0.1,0.2-0.1,0.4-0.1,0.5c0,0.1,0,0.2-0.1,0.3c0,0.1,0,0.2,0,0.2c0,0.2,0,0.4,0.1,0.5
														s0.2,0.2,0.4,0.2c0.1,0,0.3-0.1,0.4-0.2c0.2-0.1,0.3-0.3,0.5-0.5c0.2-0.2,0.3-0.4,0.4-0.6c0.1-0.2,0.2-0.5,0.3-0.8
														l0.5-2.1h0.9l-0.7,3.1c-0.1,0.3-0.1,0.6-0.1,0.7c0,0.1,0,0.2,0.1,0.3c0,0.1,0.1,0.1,0.2,0.1c0.1,0,0.2,0,0.3-0.1
														c0.1-0.1,0.3-0.2,0.5-0.5l0.3,0.3c-0.3,0.3-0.6,0.5-0.8,0.7c-0.2,0.1-0.4,0.2-0.7,0.2c-0.2,0-0.4-0.1-0.5-0.2
														c-0.1-0.1-0.2-0.3-0.2-0.5c0-0.2,0-0.4,0.1-0.6l-0.1,0c-0.3,0.5-0.6,0.8-0.9,1c-0.3,0.2-0.6,0.3-0.9,0.3
														c-0.3,0-0.5-0.1-0.7-0.3c-0.2-0.2-0.2-0.4-0.2-0.7c0-0.2,0-0.5,0.1-0.9l0.3-1.3c0.1-0.4,0.1-0.6,0.1-0.8
														c0-0.1,0-0.2-0.1-0.3c0-0.1-0.1-0.1-0.2-0.1c-0.1,0-0.2,0-0.3,0.1s-0.3,0.2-0.5,0.5l-0.3-0.3c0.3-0.3,0.5-0.5,0.6-0.6
														c0.1-0.1,0.3-0.2,0.4-0.2C96.9,188.3,97,188.3,97.2,188.3L97.2,188.3z M93.1,188.3c0.2,0,0.4,0,0.6,0.1
														c0.2,0,0.4,0.1,0.6,0.3l0.5-0.3l0.3,0.1l-0.5,2.3c0,0.2-0.1,0.6-0.2,1.2c-0.1,0.7-0.2,1.2-0.3,1.5
														c-0.1,0.3-0.2,0.5-0.3,0.8c-0.1,0.2-0.3,0.4-0.5,0.6c-0.2,0.2-0.4,0.3-0.7,0.4c-0.3,0.1-0.6,0.1-1,0.1
														c-1.2,0-1.9-0.4-1.9-1.1c0-0.2,0.1-0.4,0.2-0.5c0.1-0.2,0.3-0.3,0.5-0.5l0.4,0.3c-0.1,0.1-0.1,0.2-0.2,0.2
														c0,0.1-0.1,0.1-0.1,0.2c0,0.1,0,0.2,0,0.2c0,0.2,0.1,0.4,0.3,0.5c0.2,0.1,0.4,0.2,0.8,0.2c0.4,0,0.7-0.1,1-0.3
														c0.2-0.2,0.5-0.5,0.6-0.9c0.2-0.4,0.3-1,0.5-1.8l-0.1,0c-0.3,0.4-0.6,0.8-0.9,1c-0.3,0.2-0.6,0.3-0.9,0.3
														c-0.4,0-0.6-0.1-0.8-0.4c-0.2-0.3-0.3-0.7-0.3-1.2c0-0.6,0.1-1.1,0.3-1.6s0.5-0.9,0.9-1.2S92.6,188.3,93.1,188.3
														L93.1,188.3z M88.2,186.5H89l-0.2,1h-0.9L88.2,186.5L88.2,186.5z M85.3,186c0.3,0,0.6,0,0.8,0.1l-0.2,0.8h-0.4
														c0-0.2-0.1-0.3-0.2-0.4c-0.1-0.1-0.2-0.1-0.3-0.1c-0.2,0-0.3,0.1-0.5,0.2s-0.2,0.3-0.3,0.5c-0.1,0.2-0.2,0.5-0.3,0.8
														l-0.1,0.5h1.3l-0.1,0.5h-1.3l-0.9,4.3c-0.2,0.7-0.4,1.2-0.7,1.6s-0.7,0.5-1.2,0.5c-0.1,0-0.2,0-0.3,0l0.1-0.4
														c0,0,0.1,0,0.2,0c0.1,0,0.3,0,0.4-0.1s0.2-0.2,0.3-0.4c0.1-0.2,0.2-0.4,0.2-0.8l1.1-4.7h-0.8l0.1-0.3
														c0.2,0,0.4,0,0.5-0.1c0.1,0,0.2-0.1,0.2-0.1c0.1,0,0.1-0.1,0.1-0.2c0-0.1,0.1-0.2,0.1-0.4c0.2-0.6,0.4-1,0.8-1.3
														C84.3,186.2,84.8,186,85.3,186L85.3,186z"/>
													<g class="st27">
														<defs>
															<polygon id="SVGID_26_" points="0,197.4 216.3,197.4 216.3,-3.6 0,-3.6 0,197.4 															"/>
														</defs>
														<clipPath id="SVGID_27_">
															<use xlink:href="#SVGID_26_"  style="overflow:visible;"/>
														</clipPath>
														<path class="st28" d="M117.5,186l0.1,0.4c-0.8,0.3-1.3,0.7-1.7,1.5c-0.4,0.7-0.6,1.7-0.6,2.8c0,1.1,0.2,2.1,0.6,2.8
															c0.4,0.7,0.9,1.2,1.7,1.5l-0.1,0.4c-1-0.3-1.7-0.8-2.2-1.6s-0.8-1.8-0.8-3c0-1.2,0.3-2.2,0.8-3S116.6,186.2,117.5,186
															L117.5,186z"/>
														<g class="st29">
															<defs>
																<polygon id="SVGID_28_" points="0,197.4 216.3,197.4 216.3,-3.6 0,-3.6 0,197.4 																"/>
															</defs>
															<clipPath id="SVGID_29_">
																<use xlink:href="#SVGID_28_"  style="overflow:visible;"/>
															</clipPath>
															<path class="st30" d="M120.6,186.7c-0.2,0-0.4,0.1-0.6,0.2c-0.2,0.1-0.3,0.3-0.4,0.6c-0.1,0.3-0.2,0.6-0.2,0.9
																c0,0.4-0.1,0.8-0.1,1.2c0,1.1,0.1,1.9,0.3,2.4c0.2,0.5,0.5,0.8,0.9,0.8c0.4,0,0.7-0.2,0.9-0.7
																c0.2-0.5,0.3-1.2,0.3-2.2c0-0.8,0-1.4-0.1-1.8c-0.1-0.5-0.2-0.8-0.4-1C121.1,186.8,120.9,186.7,120.6,186.7
																L120.6,186.7z M120.7,186.3c0.7,0,1.3,0.3,1.6,0.8c0.4,0.6,0.5,1.4,0.5,2.5c0,1.2-0.2,2-0.6,2.6
																c-0.4,0.6-0.9,0.9-1.6,0.9c-0.7,0-1.2-0.3-1.6-0.8c-0.3-0.6-0.5-1.4-0.5-2.5c0-0.6,0.1-1.1,0.2-1.6
																c0.1-0.4,0.3-0.8,0.4-1.1c0.2-0.3,0.4-0.5,0.7-0.6C120,186.4,120.3,186.3,120.7,186.3L120.7,186.3z M127.6,186h0.4
																l-0.1,1.1h-2.8v2.2c0.2-0.1,0.4-0.1,0.6-0.2c0.2,0,0.4-0.1,0.6-0.1c0.4,0,0.7,0.1,1,0.2s0.5,0.4,0.7,0.7
																c0.2,0.3,0.2,0.6,0.2,1c0,0.4-0.1,0.8-0.3,1.1c-0.2,0.3-0.4,0.6-0.8,0.7s-0.8,0.2-1.2,0.2c-0.6,0-1.2-0.1-1.8-0.3v-1
																h0.6c0.1,0.3,0.2,0.6,0.4,0.7s0.5,0.2,0.8,0.2c0.4,0,0.8-0.1,1-0.4c0.2-0.3,0.3-0.7,0.3-1.2c0-0.3-0.1-0.6-0.2-0.9
																c-0.1-0.2-0.3-0.4-0.5-0.5c-0.2-0.1-0.4-0.2-0.7-0.2c-0.2,0-0.4,0-0.6,0c-0.2,0-0.3,0.1-0.5,0.1l-0.4-0.2v-3.2h2.7
																c0.1,0,0.2,0,0.2,0c0,0,0.1,0,0.1-0.1S127.6,186.1,127.6,186L127.6,186z"/>
															<g class="st31">
																<defs>
																	<polygon id="SVGID_30_" points="0,197.4 216.3,197.4 216.3,-3.6 0,-3.6 0,197.4 																	"/>
																</defs>
																<clipPath id="SVGID_31_">
																	<use xlink:href="#SVGID_30_"  style="overflow:visible;"/>
																</clipPath>
																<path class="st32" d="M129.3,186c1,0.3,1.7,0.8,2.2,1.6s0.8,1.9,0.8,3c0,1.2-0.3,2.2-0.8,3
																	c-0.5,0.8-1.2,1.4-2.2,1.6l-0.1-0.4c0.8-0.3,1.3-0.8,1.7-1.5c0.4-0.7,0.6-1.7,0.6-2.8c0-1.1-0.2-2-0.6-2.8
																	c-0.4-0.7-0.9-1.2-1.7-1.5L129.3,186z"/>
															</g>
														</g>
													</g>
												</g>
											</g>
										</g>
									</g>
								</g>
							</g>
						</g>
					</g>
				</g>
			</g>
		</g>
	</g>
</g>
</svg>
