<?xml version="1.0" encoding="utf-8"?>
<!-- Generator: Adobe Illustrator 23.0.2, SVG Export Plug-In . SVG Version: 6.00 Build 0)  -->
<svg version="1.0" id="Layer_1" xmlns="http://www.w3.org/2000/svg" xmlns:xlink="http://www.w3.org/1999/xlink" x="0px" y="0px"
	 viewBox="0 0 220 165" style="enable-background:new 0 0 220 165;" xml:space="preserve">
<style type="text/css">
	.st0{clip-path:url(#SVGID_2_);}
	.st1{clip-path:url(#SVGID_4_);}
	.st2{clip-path:url(#SVGID_6_);}
	.st3{clip-path:url(#SVGID_8_);}
	.st4{clip-path:url(#SVGID_10_);}
	.st5{clip-path:url(#SVGID_12_);}
	.st6{clip-path:url(#SVGID_14_);}
	.st7{clip-path:url(#SVGID_16_);}
	.st8{clip-path:url(#SVGID_18_);}
	.st9{clip-path:url(#SVGID_20_);}
	.st10{clip-path:url(#SVGID_22_);}
	.st11{clip-path:url(#SVGID_24_);}
	.st12{clip-path:url(#SVGID_26_);}
	.st13{clip-path:url(#SVGID_28_);}
	.st14{clip-path:url(#SVGID_30_);}
	.st15{clip-path:url(#SVGID_32_);}
	.st16{clip-path:url(#SVGID_34_);}
	.st17{fill:none;stroke:#000000;stroke-width:1.0107;stroke-miterlimit:8;}
	.st18{fill-rule:evenodd;clip-rule:evenodd;}
	.st19{clip-path:url(#SVGID_38_);fill:none;stroke:#000000;stroke-width:1.0107;stroke-miterlimit:8;}
	.st20{clip-path:url(#SVGID_38_);fill-rule:evenodd;clip-rule:evenodd;}
	.st21{clip-path:url(#SVGID_38_);}
	.st22{clip-path:url(#SVGID_40_);fill-rule:evenodd;clip-rule:evenodd;}
	.st23{clip-path:url(#SVGID_40_);}
	.st24{clip-path:url(#SVGID_42_);fill-rule:evenodd;clip-rule:evenodd;}
	.st25{clip-path:url(#SVGID_42_);}
	.st26{clip-path:url(#SVGID_44_);fill-rule:evenodd;clip-rule:evenodd;}
	.st27{clip-path:url(#SVGID_44_);}
	.st28{clip-path:url(#SVGID_46_);fill-rule:evenodd;clip-rule:evenodd;}
	.st29{clip-path:url(#SVGID_46_);}
	.st30{clip-path:url(#SVGID_48_);fill-rule:evenodd;clip-rule:evenodd;}
	.st31{clip-path:url(#SVGID_48_);}
	.st32{clip-path:url(#SVGID_50_);fill-rule:evenodd;clip-rule:evenodd;}
	.st33{clip-path:url(#SVGID_50_);}
	.st34{clip-path:url(#SVGID_52_);fill-rule:evenodd;clip-rule:evenodd;}
	.st35{clip-path:url(#SVGID_52_);}
	.st36{clip-path:url(#SVGID_54_);fill-rule:evenodd;clip-rule:evenodd;fill:#2F5597;}
	.st37{clip-path:url(#SVGID_54_);}
	.st38{clip-path:url(#SVGID_56_);fill-rule:evenodd;clip-rule:evenodd;fill:#2F5597;}
	.st39{clip-path:url(#SVGID_56_);}
	.st40{clip-path:url(#SVGID_58_);fill-rule:evenodd;clip-rule:evenodd;fill:#2F5597;}
	.st41{clip-path:url(#SVGID_58_);}
	.st42{clip-path:url(#SVGID_60_);fill-rule:evenodd;clip-rule:evenodd;fill:#2F5597;}
	.st43{clip-path:url(#SVGID_60_);}
	.st44{clip-path:url(#SVGID_62_);fill-rule:evenodd;clip-rule:evenodd;}
	.st45{clip-path:url(#SVGID_62_);}
	.st46{clip-path:url(#SVGID_64_);}
	.st47{fill:none;stroke:#000000;stroke-width:0.7581;stroke-miterlimit:8;}
	.st48{fill:none;stroke:#000000;stroke-width:0.7581;stroke-miterlimit:8;stroke-dasharray:4.3902,1.7561;}
	.st49{clip-path:url(#SVGID_66_);}
	.st50{fill:none;stroke:#000000;stroke-width:0.7581;stroke-miterlimit:8;stroke-dasharray:4.4867,1.7947;}
	.st51{clip-path:url(#SVGID_68_);fill-rule:evenodd;clip-rule:evenodd;}
	.st52{clip-path:url(#SVGID_68_);}
	.st53{clip-path:url(#SVGID_70_);fill-rule:evenodd;clip-rule:evenodd;}
	.st54{clip-path:url(#SVGID_70_);}
	.st55{clip-path:url(#SVGID_72_);fill:none;stroke:#2F5597;stroke-width:1.516;stroke-miterlimit:8;}
	.st56{clip-path:url(#SVGID_74_);}
	.st57{clip-path:url(#SVGID_76_);}
	.st58{clip-path:url(#SVGID_78_);}
	.st59{clip-path:url(#SVGID_80_);}
	.st60{clip-path:url(#SVGID_82_);}
	.st61{clip-path:url(#SVGID_84_);}
	.st62{clip-path:url(#SVGID_86_);}
	.st63{clip-path:url(#SVGID_88_);}
	.st64{clip-path:url(#SVGID_90_);}
	.st65{clip-path:url(#SVGID_92_);}
	.st66{clip-path:url(#SVGID_94_);}
	.st67{clip-path:url(#SVGID_96_);}
	.st68{clip-path:url(#SVGID_98_);}
	.st69{clip-path:url(#SVGID_100_);}
	.st70{clip-path:url(#SVGID_102_);}
	.st71{clip-path:url(#SVGID_104_);}
	.st72{clip-path:url(#SVGID_106_);}
	.st73{fill-rule:evenodd;clip-rule:evenodd;fill:none;stroke:#000000;stroke-width:0.3;}
	.st74{fill:#FFFFFF;stroke:#231F20;stroke-miterlimit:10;}
</style>
<g>
	<g>
		<g>
			<g>
				<defs>
					<polygon id="SVGID_1_" points="-15.7,159.5 204,159.5 223,-0.2 3.3,-0.2 3.3,159.5 					"/>
				</defs>
				<clipPath id="SVGID_2_">
					<use xlink:href="#SVGID_1_"  style="overflow:visible;"/>
				</clipPath>
				<g class="st0">
					<defs>
						<polygon id="SVGID_3_" points="-15.7,159.5 204,159.5 223,-0.2 3.3,-0.2 3.3,159.5 						"/>
					</defs>
					<clipPath id="SVGID_4_">
						<use xlink:href="#SVGID_3_"  style="overflow:visible;"/>
					</clipPath>
					<g class="st1">
						<defs>
							<polygon id="SVGID_5_" points="-15.7,159.5 204,159.5 223,-0.2 3.3,-0.2 3.3,159.5 							"/>
						</defs>
						<clipPath id="SVGID_6_">
							<use xlink:href="#SVGID_5_"  style="overflow:visible;"/>
						</clipPath>
						<g class="st2">
							<defs>
								<polygon id="SVGID_7_" points="-15.7,159.5 204,159.5 223,-0.2 3.3,-0.2 3.3,159.5 								"/>
							</defs>
							<clipPath id="SVGID_8_">
								<use xlink:href="#SVGID_7_"  style="overflow:visible;"/>
							</clipPath>
							<g class="st3">
								<defs>
									<polygon id="SVGID_9_" points="-15.7,159.5 204,159.5 223,-0.2 3.3,-0.2 3.3,159.5 									"/>
								</defs>
								<clipPath id="SVGID_10_">
									<use xlink:href="#SVGID_9_"  style="overflow:visible;"/>
								</clipPath>
								<g class="st4">
									<defs>
										<polygon id="SVGID_11_" points="-15.7,159.5 204,159.5 223,-0.2 3.3,-0.2 3.3,159.5 										"/>
									</defs>
									<clipPath id="SVGID_12_">
										<use xlink:href="#SVGID_11_"  style="overflow:visible;"/>
									</clipPath>
									<g class="st5">
										<defs>
											<polygon id="SVGID_13_" points="-15.7,159.5 204,159.5 223,-0.2 3.3,-0.2 3.3,159.5 											"/>
										</defs>
										<clipPath id="SVGID_14_">
											<use xlink:href="#SVGID_13_"  style="overflow:visible;"/>
										</clipPath>
										<g class="st6">
											<defs>
												<polygon id="SVGID_15_" points="-15.7,159.5 204,159.5 223,-0.2 3.3,-0.2 3.3,159.5 												"/>
											</defs>
											<clipPath id="SVGID_16_">
												<use xlink:href="#SVGID_15_"  style="overflow:visible;"/>
											</clipPath>
											<g class="st7">
												<defs>
													<polygon id="SVGID_17_" points="-15.7,159.5 204,159.5 223,-0.2 3.3,-0.2 3.3,159.5 													"/>
												</defs>
												<clipPath id="SVGID_18_">
													<use xlink:href="#SVGID_17_"  style="overflow:visible;"/>
												</clipPath>
												<g class="st8">
													<defs>
														<polygon id="SVGID_19_" points="-15.7,159.5 204,159.5 223,-0.2 3.3,-0.2 3.3,159.5 														"/>
													</defs>
													<clipPath id="SVGID_20_">
														<use xlink:href="#SVGID_19_"  style="overflow:visible;"/>
													</clipPath>
													<g class="st9">
														<defs>
															<polygon id="SVGID_21_" points="-15.7,159.5 204,159.5 223,-0.2 3.3,-0.2 3.3,159.5 															"/>
														</defs>
														<clipPath id="SVGID_22_">
															<use xlink:href="#SVGID_21_"  style="overflow:visible;"/>
														</clipPath>
														<g class="st10">
															<defs>
																<polygon id="SVGID_23_" points="-15.7,159.5 204,159.5 223,-0.2 3.3,-0.2 3.3,159.5 																"/>
															</defs>
															<clipPath id="SVGID_24_">
																<use xlink:href="#SVGID_23_"  style="overflow:visible;"/>
															</clipPath>
															<g class="st11">
																<defs>
																	<polygon id="SVGID_25_" points="-15.7,159.5 204,159.5 223,-0.2 3.3,-0.2 3.3,159.5 																	"/>
																</defs>
																<clipPath id="SVGID_26_">
																	<use xlink:href="#SVGID_25_"  style="overflow:visible;"/>
																</clipPath>
																<g class="st12">
																	<defs>
																		<polygon id="SVGID_27_" points="-15.7,159.5 204,159.5 223,-0.2 3.3,-0.2 3.3,159.5 																		"/>
																	</defs>
																	<clipPath id="SVGID_28_">
																		<use xlink:href="#SVGID_27_"  style="overflow:visible;"/>
																	</clipPath>
																	<g class="st13">
																		<defs>
																			<polygon id="SVGID_29_" points="-15.7,159.5 204,159.5 223,-0.2 3.3,-0.2 3.3,159.5 																			"/>
																		</defs>
																		<clipPath id="SVGID_30_">
																			<use xlink:href="#SVGID_29_"  style="overflow:visible;"/>
																		</clipPath>
																		<g class="st14">
																			<defs>
																				<polygon id="SVGID_31_" points="-15.7,159.5 204,159.5 223,-0.2 3.3,-0.2 3.3,159.5 																				"/>
																			</defs>
																			<clipPath id="SVGID_32_">
																				<use xlink:href="#SVGID_31_"  style="overflow:visible;"/>
																			</clipPath>
																			<g class="st15">
																				<defs>
																					<polygon id="SVGID_33_" points="-15.7,159.5 204,159.5 223,-0.2 3.3,-0.2 3.3,159.5 																					"/>
																				</defs>
																				<clipPath id="SVGID_34_">
																					<use xlink:href="#SVGID_33_"  style="overflow:visible;"/>
																				</clipPath>
																				<g class="st16">
																					<defs>
																						<polygon id="SVGID_35_" points="-15.7,159.5 204,159.5 223,-0.2 3.3,-0.2 3.3,159.5 																						
																							"/>
																					</defs>
																					<clipPath id="SVGID_36_">
																						<use xlink:href="#SVGID_35_"  style="overflow:visible;"/>
																					</clipPath>
																				</g>
																			</g>
																		</g>
																	</g>
																</g>
															</g>
														</g>
													</g>
												</g>
											</g>
										</g>
									</g>
								</g>
							</g>
						</g>
					</g>
				</g>
			</g>
		</g>
		<g>
			<line class="st17" x1="4.6" y1="136.5" x2="207" y2="137"/>
			<polygon class="st18" points="206.5,135.5 209.5,137 206.5,138.6 206.5,135.5 			"/>
			<g>
				<defs>
					<polygon id="SVGID_37_" points="-15.7,159.5 204,159.5 223,-0.2 3.3,-0.2 3.3,159.5 					"/>
				</defs>
				<clipPath id="SVGID_38_">
					<use xlink:href="#SVGID_37_"  style="overflow:visible;"/>
				</clipPath>
				<line class="st19" x1="100.8" y1="144.5" x2="100.8" y2="12.8"/>
				<polygon class="st20" points="102.3,13.4 100.8,10.3 99.3,13.4 102.3,13.4 				"/>
				<g class="st21">
					<defs>
						<polygon id="SVGID_39_" points="-15.7,159.5 204,159.5 223,-0.2 3.3,-0.2 3.3,159.5 						"/>
					</defs>
					<clipPath id="SVGID_40_">
						<use xlink:href="#SVGID_39_"  style="overflow:visible;"/>
					</clipPath>
					<path class="st22" d="M92.6,6.6c0.2,0,0.3,0,0.4,0.1c0.1,0,0.2,0.1,0.2,0.2s0.1,0.2,0.2,0.3c0.1,0.1,0.1,0.3,0.2,0.4
						c0,0.2,0.1,0.4,0.2,0.7c0.1,0.5,0.2,1,0.3,1.6s0.2,1.1,0.2,1.6c0.4-0.6,0.7-1.1,1-1.6c0.3-0.5,0.5-1,0.6-1.4
						c0.1-0.4,0.2-0.7,0.2-1c0-0.2,0-0.3-0.1-0.4S95.6,7,95.4,7l0.1-0.3h1.6L97.2,7c-0.3,0.8-0.7,1.7-1.2,2.6
						c-0.5,0.9-1.1,1.8-1.7,2.7c-0.6,0.9-1.1,1.5-1.6,1.9c-0.3,0.3-0.6,0.5-0.8,0.6c-0.2,0.1-0.4,0.1-0.7,0.1c-0.1,0-0.2,0-0.3,0
						c-0.1,0-0.2,0-0.3-0.1l0.3-1.1h0.5c0,0.3,0.1,0.4,0.3,0.4c0.2,0,0.5-0.1,0.8-0.4s0.7-0.7,1.1-1.3c-0.1-0.7-0.3-1.5-0.5-2.5
						c-0.2-1-0.3-1.7-0.4-1.9c-0.1-0.3-0.2-0.5-0.3-0.6c-0.1-0.1-0.1-0.1-0.2-0.1c-0.1,0-0.2,0.1-0.4,0.2S91.6,7.7,91.4,8L91,7.7
						c0.3-0.4,0.5-0.7,0.8-0.9C92,6.7,92.3,6.6,92.6,6.6L92.6,6.6z"/>
					<g class="st23">
						<defs>
							<polygon id="SVGID_41_" points="-15.7,159.5 204,159.5 223,-0.2 3.3,-0.2 3.3,159.5 							"/>
						</defs>
						<clipPath id="SVGID_42_">
							<use xlink:href="#SVGID_41_"  style="overflow:visible;"/>
						</clipPath>
						<path class="st24" d="M213.2,140.3c0.1,0,0.2,0,0.3,0c0.1,0,0.2,0.1,0.2,0.1c0.1,0.1,0.1,0.1,0.2,0.2s0.1,0.2,0.2,0.4
							c0.1,0.2,0.1,0.3,0.1,0.6c0,0.2,0.1,0.5,0.1,0.7h0.1c0.4-0.5,0.7-0.9,0.9-1.2s0.4-0.4,0.5-0.6c0.1-0.1,0.3-0.2,0.4-0.3
							s0.3-0.1,0.5-0.1c0.2,0,0.3,0,0.5,0.1l-0.2,1.1h-0.4c0-0.2-0.1-0.2-0.2-0.2c0,0-0.1,0-0.1,0c0,0-0.1,0-0.1,0.1
							c-0.1,0-0.1,0.1-0.3,0.2c-0.1,0.1-0.2,0.3-0.4,0.4c-0.1,0.2-0.3,0.3-0.4,0.5l-0.4,0.5c0.1,0.4,0.1,0.7,0.2,1
							c0.1,0.3,0.1,0.5,0.2,0.7s0.1,0.3,0.1,0.4c0,0.1,0.1,0.2,0.1,0.2s0.1,0.1,0.1,0.1c0,0,0.1,0,0.2,0c0.1,0,0.2,0,0.3-0.1
							c0.1-0.1,0.2-0.3,0.4-0.6l0.4,0.3c-0.3,0.4-0.5,0.7-0.7,0.9c-0.2,0.2-0.5,0.3-0.8,0.3c-0.2,0-0.3,0-0.4-0.1
							c-0.1-0.1-0.2-0.2-0.3-0.3c-0.1-0.1-0.2-0.3-0.2-0.6c-0.1-0.5-0.2-0.9-0.2-1.2h-0.1c-0.4,0.6-0.7,1-0.9,1.3
							c-0.2,0.3-0.4,0.4-0.5,0.6c-0.1,0.1-0.3,0.2-0.4,0.3c-0.1,0-0.3,0.1-0.5,0.1c-0.2,0-0.3,0-0.5-0.1l0.2-1.1h0.4
							c0,0.2,0.1,0.2,0.2,0.2c0.1,0,0.1,0,0.2,0c0.1,0,0.1-0.1,0.3-0.2c0.1-0.1,0.3-0.3,0.5-0.5c0.2-0.2,0.5-0.6,0.9-1.1
							c-0.1-0.3-0.1-0.6-0.2-0.9c-0.1-0.3-0.1-0.6-0.2-0.8c-0.1-0.2-0.1-0.4-0.2-0.5s-0.1-0.1-0.1-0.2c0,0-0.1,0-0.2,0
							c-0.1,0-0.2,0-0.2,0.1c-0.1,0-0.1,0.1-0.2,0.2c-0.1,0.1-0.2,0.2-0.3,0.4l-0.4-0.3c0.2-0.4,0.5-0.7,0.7-0.8
							C212.6,140.4,212.9,140.3,213.2,140.3L213.2,140.3z"/>
						<g class="st25">
							<defs>
								<polygon id="SVGID_43_" points="-15.7,159.5 204,159.5 223,-0.2 3.3,-0.2 3.3,159.5 								"/>
							</defs>
							<clipPath id="SVGID_44_">
								<use xlink:href="#SVGID_43_"  style="overflow:visible;"/>
							</clipPath>
							<path class="st26" d="M94.5,140.8c-0.4,0-0.8,0.2-1.1,0.5c-0.3,0.3-0.5,0.8-0.7,1.5c-0.2,0.6-0.3,1.2-0.3,1.7
								c0,0.4,0.1,0.8,0.3,1c0.2,0.2,0.5,0.3,0.8,0.3c0.4,0,0.7-0.2,1-0.5c0.3-0.3,0.5-0.8,0.7-1.5c0.2-0.6,0.3-1.2,0.3-1.6
								c0-0.4-0.1-0.7-0.2-1S94.9,140.8,94.5,140.8L94.5,140.8z M94.6,140.3c0.6,0,1.1,0.2,1.4,0.5c0.3,0.3,0.5,0.8,0.5,1.5
								c0,0.5-0.1,0.9-0.2,1.5c-0.2,0.5-0.4,1-0.7,1.3c-0.3,0.4-0.6,0.6-1,0.8c-0.4,0.2-0.8,0.3-1.3,0.3c-0.6,0-1.1-0.2-1.4-0.5
								c-0.3-0.3-0.5-0.8-0.5-1.5c0-0.3,0-0.7,0.1-1.1c0.1-0.6,0.3-1.1,0.6-1.5s0.6-0.7,1.1-1C93.7,140.4,94.1,140.3,94.6,140.3
								L94.6,140.3z"/>
							<g class="st27">
								<defs>
									<polygon id="SVGID_45_" points="-15.7,159.5 204,159.5 223,-0.2 3.3,-0.2 3.3,159.5 									"/>
								</defs>
								<clipPath id="SVGID_46_">
									<use xlink:href="#SVGID_45_"  style="overflow:visible;"/>
								</clipPath>
								<path class="st28" d="M110.5,154c-0.2,0-0.4,0.1-0.6,0.3c-0.2,0.2-0.3,0.5-0.4,0.8c0.3,0,0.5,0,0.7-0.1
									c0.2,0,0.4-0.1,0.5-0.2c0.1-0.1,0.2-0.2,0.2-0.4c0-0.1,0-0.2-0.1-0.3S110.6,154,110.5,154L110.5,154z M100.8,154
									c-0.2,0-0.4,0.1-0.5,0.2c-0.2,0.2-0.3,0.4-0.4,0.7c-0.1,0.3-0.1,0.6-0.1,0.8c0,0.2,0,0.4,0.1,0.5c0.1,0.1,0.2,0.2,0.3,0.2
									c0.1,0,0.2,0,0.3-0.1s0.2-0.2,0.3-0.3c0.1-0.2,0.2-0.3,0.3-0.4c0.1-0.1,0.1-0.3,0.2-0.5c0-0.2,0.1-0.4,0.1-0.5
									c0-0.2,0-0.3-0.1-0.3C101.1,154,101,154,100.8,154L100.8,154z M97.8,153.8H98l-0.4,1.9c0,0.2-0.1,0.3-0.1,0.4
									c0,0.1,0,0.1,0,0.2c0,0,0.1,0.1,0.1,0.1c0.1,0,0.1,0,0.2-0.1c0.1,0,0.2-0.1,0.3-0.3l0.2,0.2c-0.2,0.2-0.4,0.3-0.5,0.4
									c-0.1,0.1-0.3,0.1-0.4,0.1c-0.1,0-0.2,0-0.3-0.1c-0.1-0.1-0.1-0.2-0.1-0.4c0-0.2,0-0.3,0.1-0.6l0.2-1c0-0.2,0.1-0.3,0.1-0.4
									c0-0.1,0-0.1-0.1-0.2s-0.1,0-0.3-0.1l0-0.2L97.8,153.8L97.8,153.8z M110.6,153.8c0.2,0,0.4,0,0.5,0.1s0.2,0.2,0.2,0.5
									c0,0.3-0.2,0.6-0.5,0.8s-0.8,0.3-1.4,0.3c0,0.1,0,0.2,0,0.4c0,0.2,0,0.4,0.1,0.5s0.2,0.1,0.4,0.1c0.2,0,0.3,0,0.5-0.1
									c0.1-0.1,0.3-0.2,0.5-0.4l0.2,0.2c-0.2,0.2-0.4,0.4-0.6,0.5s-0.4,0.2-0.7,0.2c-0.3,0-0.5-0.1-0.7-0.3
									c-0.2-0.2-0.2-0.4-0.2-0.7c0-0.2,0-0.4,0.1-0.7c0.1-0.2,0.2-0.5,0.3-0.7c0.2-0.2,0.3-0.3,0.6-0.4S110.4,153.8,110.6,153.8
									L110.6,153.8z M106.7,153.8c0.1,0,0.2,0,0.3,0.1c0.1,0.1,0.1,0.2,0.1,0.3c0,0.1,0,0.2-0.1,0.3l0,0c0.2-0.3,0.4-0.5,0.6-0.6
									c0.2-0.1,0.4-0.2,0.5-0.2c0.1,0,0.3,0,0.4,0l-0.1,0.7h-0.3c0-0.1,0-0.1-0.1-0.2c0,0,0-0.1-0.1-0.1c0,0-0.1,0-0.1,0
									c-0.1,0-0.1,0-0.2,0.1c-0.1,0.1-0.2,0.2-0.3,0.3s-0.2,0.3-0.3,0.4c-0.1,0.1-0.1,0.3-0.2,0.5l-0.3,1.3h-0.5l0.4-1.9
									c0-0.1,0-0.2,0.1-0.3s0-0.1,0-0.2c0-0.1,0-0.1,0-0.2c0,0-0.1-0.1-0.1-0.1c-0.1,0-0.1,0-0.2,0.1c-0.1,0.1-0.2,0.1-0.3,0.3
									l-0.2-0.2c0.2-0.2,0.3-0.3,0.5-0.4C106.4,153.8,106.5,153.8,106.7,153.8L106.7,153.8z M103.2,153.8c0.1,0,0.2,0,0.3,0.1
									c0.1,0.1,0.1,0.2,0.1,0.3c0,0.2,0,0.4-0.1,0.6l-0.1,0.5c0,0.1-0.1,0.2-0.1,0.3c0,0.1,0,0.1,0,0.2c0,0.1,0,0.1,0,0.1
									c0,0.1,0,0.2,0.1,0.3c0,0.1,0.1,0.1,0.2,0.1c0.1,0,0.2,0,0.3-0.1c0.1-0.1,0.2-0.2,0.3-0.3c0.1-0.1,0.2-0.3,0.3-0.4
									c0.1-0.1,0.1-0.3,0.2-0.5l0.3-1.3h0.5l-0.4,1.9c0,0.2-0.1,0.3-0.1,0.4c0,0.1,0,0.1,0,0.2c0,0,0.1,0.1,0.1,0.1
									c0.1,0,0.1,0,0.2-0.1c0.1,0,0.2-0.1,0.3-0.3l0.2,0.2c-0.2,0.2-0.3,0.3-0.5,0.4s-0.3,0.1-0.4,0.1c-0.1,0-0.2,0-0.3-0.1
									s-0.1-0.2-0.1-0.3c0-0.1,0-0.2,0.1-0.3l0,0c-0.2,0.3-0.4,0.5-0.6,0.6c-0.2,0.1-0.4,0.2-0.5,0.2c-0.2,0-0.3-0.1-0.4-0.2
									c-0.1-0.1-0.1-0.3-0.1-0.4c0-0.1,0-0.3,0.1-0.5l0.2-0.8c0.1-0.2,0.1-0.4,0.1-0.5c0-0.1,0-0.1,0-0.2c0,0-0.1-0.1-0.1-0.1
									c-0.1,0-0.1,0-0.2,0.1c-0.1,0.1-0.2,0.1-0.3,0.3l-0.2-0.2c0.2-0.2,0.3-0.3,0.4-0.3c0.1-0.1,0.2-0.1,0.2-0.1
									C103,153.8,103.1,153.8,103.2,153.8L103.2,153.8z M100.8,153.8c0.1,0,0.2,0,0.4,0c0.1,0,0.2,0.1,0.3,0.2l0.3-0.2l0.2,0
									l-0.3,1.4c0,0.1-0.1,0.3-0.1,0.7c-0.1,0.4-0.1,0.7-0.2,0.9s-0.1,0.3-0.2,0.5c-0.1,0.1-0.2,0.3-0.3,0.4
									c-0.1,0.1-0.3,0.2-0.4,0.2c-0.2,0.1-0.4,0.1-0.6,0.1c-0.7,0-1.1-0.2-1.1-0.7c0-0.1,0-0.2,0.1-0.3s0.2-0.2,0.3-0.3l0.2,0.2
									c0,0-0.1,0.1-0.1,0.1c0,0,0,0.1-0.1,0.1s0,0.1,0,0.1c0,0.1,0.1,0.3,0.2,0.3c0.1,0.1,0.3,0.1,0.5,0.1c0.2,0,0.4-0.1,0.6-0.2
									c0.1-0.1,0.3-0.3,0.4-0.5c0.1-0.2,0.2-0.6,0.3-1.1l0,0c-0.2,0.3-0.4,0.5-0.5,0.6c-0.2,0.1-0.3,0.2-0.5,0.2
									c-0.2,0-0.4-0.1-0.5-0.2c-0.1-0.2-0.2-0.4-0.2-0.7c0-0.3,0.1-0.7,0.2-1c0.1-0.3,0.3-0.6,0.6-0.7
									C100.2,153.8,100.5,153.8,100.8,153.8L100.8,153.8z M97.7,152.6h0.5l-0.1,0.6h-0.5L97.7,152.6L97.7,152.6z M96.1,152.4
									c0.2,0,0.4,0,0.5,0l-0.1,0.5h-0.3c0-0.1-0.1-0.2-0.1-0.2c0,0-0.1-0.1-0.2-0.1c-0.1,0-0.2,0-0.3,0.1s-0.1,0.2-0.2,0.3
									c-0.1,0.1-0.1,0.3-0.2,0.5l-0.1,0.3h0.8l-0.1,0.3h-0.8l-0.6,2.6c-0.1,0.4-0.2,0.7-0.4,1c-0.2,0.2-0.4,0.3-0.7,0.3
									c-0.1,0-0.1,0-0.2,0l0.1-0.3c0,0,0.1,0,0.1,0c0.1,0,0.2,0,0.2-0.1c0.1,0,0.1-0.1,0.2-0.2c0.1-0.1,0.1-0.3,0.1-0.5l0.6-2.8
									h-0.5l0-0.2c0.1,0,0.2,0,0.3,0c0.1,0,0.1,0,0.1-0.1s0.1-0.1,0.1-0.1c0,0,0.1-0.1,0.1-0.2c0.1-0.4,0.3-0.6,0.5-0.8
									C95.5,152.5,95.7,152.4,96.1,152.4L96.1,152.4z"/>
								<g class="st29">
									<defs>
										<polygon id="SVGID_47_" points="-15.7,159.5 204,159.5 223,-0.2 3.3,-0.2 3.3,159.5 										"/>
									</defs>
									<clipPath id="SVGID_48_">
										<use xlink:href="#SVGID_47_"  style="overflow:visible;"/>
									</clipPath>
									<path class="st30" d="M115.4,152.4l0.1,0.2c-0.5,0.2-0.8,0.4-1,0.9c-0.2,0.4-0.3,1-0.3,1.7c0,0.7,0.1,1.3,0.3,1.7
										c0.2,0.4,0.6,0.7,1,0.9l-0.1,0.2c-0.6-0.2-1-0.5-1.3-1c-0.3-0.5-0.5-1.1-0.5-1.8c0-0.7,0.2-1.3,0.5-1.8
										C114.4,152.8,114.8,152.5,115.4,152.4L115.4,152.4z"/>
									<g class="st31">
										<defs>
											<polygon id="SVGID_49_" points="-15.7,159.5 204,159.5 223,-0.2 3.3,-0.2 3.3,159.5 											"/>
										</defs>
										<clipPath id="SVGID_50_">
											<use xlink:href="#SVGID_49_"  style="overflow:visible;"/>
										</clipPath>
										<path class="st32" d="M120.7,152.5c0.4,0,0.6,0.1,0.8,0.2c0.2,0.2,0.3,0.4,0.3,0.7c0,0.1,0,0.2,0,0.3s-0.1,0.2-0.1,0.3
											c0,0.1-0.1,0.2-0.2,0.3c-0.1,0.1-0.2,0.2-0.2,0.3s-0.2,0.3-0.5,0.5c-0.4,0.4-0.7,0.7-0.8,1h1.1c0.1,0,0.2,0,0.2,0
											s0.1,0,0.1-0.1s0.1-0.1,0.1-0.1c0,0,0-0.1,0.1-0.2h0.3l-0.1,0.9h-2.4v-0.1c0.1-0.2,0.2-0.4,0.3-0.6
											c0.1-0.2,0.3-0.5,0.6-0.8c0.2-0.3,0.4-0.4,0.5-0.6c0.1-0.1,0.2-0.3,0.2-0.4s0.1-0.2,0.1-0.3s0-0.2,0-0.3
											c0-0.1,0-0.3-0.1-0.4c0-0.1-0.1-0.2-0.2-0.3c-0.1-0.1-0.2-0.1-0.4-0.1c-0.4,0-0.6,0.2-0.7,0.6h-0.4v-0.6
											c0.2-0.1,0.5-0.2,0.7-0.2C120.3,152.6,120.5,152.5,120.7,152.5L120.7,152.5z M117.5,152.5h0.2c0,0.2,0,0.5,0,0.8v2.5
											c0,0.1,0,0.2,0,0.3c0,0.1,0,0.1,0.1,0.1s0.1,0.1,0.1,0.1c0.1,0,0.1,0,0.2,0c0.1,0,0.2,0,0.4,0v0.2h-2.2v-0.2
											c0.2,0,0.4,0,0.5,0c0.1,0,0.2,0,0.2-0.1c0,0,0.1-0.1,0.1-0.1s0-0.2,0-0.3v-2.4c0-0.1,0-0.1,0-0.2c0,0-0.1-0.1-0.1-0.1
											c-0.1,0-0.2,0-0.3,0.1c-0.1,0.1-0.3,0.2-0.4,0.3l-0.1-0.2L117.5,152.5L117.5,152.5z"/>
										<g class="st33">
											<defs>
												<polygon id="SVGID_51_" points="-15.7,159.5 204,159.5 223,-0.2 3.3,-0.2 3.3,159.5 												"/>
											</defs>
											<clipPath id="SVGID_52_">
												<use xlink:href="#SVGID_51_"  style="overflow:visible;"/>
											</clipPath>
											<path class="st34" d="M122.5,152.4c0.6,0.2,1,0.5,1.3,1c0.3,0.5,0.5,1.1,0.5,1.8c0,0.7-0.2,1.3-0.5,1.8
												c-0.3,0.5-0.8,0.8-1.3,1l-0.1-0.2c0.5-0.2,0.8-0.5,1-0.9c0.2-0.4,0.3-1,0.3-1.7c0-0.7-0.1-1.2-0.3-1.7
												c-0.2-0.4-0.6-0.7-1-0.9L122.5,152.4z"/>
											<g class="st35">
												<defs>
													<polygon id="SVGID_53_" points="-15.7,159.5 204,159.5 223,-0.2 3.3,-0.2 3.3,159.5 													"/>
												</defs>
												<clipPath id="SVGID_54_">
													<use xlink:href="#SVGID_53_"  style="overflow:visible;"/>
												</clipPath>
												<path class="st36" d="M173,28.7c0.1,0,0.2,0,0.3,0.1c0.1,0,0.1,0.1,0.2,0.1c0.1,0.1,0.1,0.1,0.2,0.2
													c0,0.1,0.1,0.2,0.1,0.3c0,0.1,0.1,0.3,0.1,0.5c0.1,0.4,0.1,0.8,0.2,1.2c0.1,0.4,0.1,0.8,0.2,1.2
													c0.3-0.4,0.5-0.8,0.8-1.3c0.2-0.4,0.4-0.8,0.4-1.1s0.1-0.6,0.1-0.7c0-0.1,0-0.2-0.1-0.3c-0.1-0.1-0.2-0.1-0.3-0.1l0-0.2
													h1.2l0.1,0.2c-0.2,0.6-0.5,1.3-0.9,2c-0.4,0.7-0.8,1.4-1.3,2.1c-0.5,0.7-0.9,1.2-1.2,1.5c-0.2,0.2-0.4,0.4-0.6,0.4
													c-0.2,0.1-0.3,0.1-0.5,0.1c-0.1,0-0.1,0-0.2,0c-0.1,0-0.1,0-0.2,0l0.2-0.9h0.4c0,0.2,0.1,0.3,0.2,0.3
													c0.2,0,0.4-0.1,0.6-0.3c0.2-0.2,0.5-0.6,0.8-1c-0.1-0.5-0.2-1.2-0.4-1.9c-0.2-0.8-0.3-1.3-0.3-1.5
													c-0.1-0.2-0.1-0.4-0.2-0.4c0,0-0.1-0.1-0.2-0.1c-0.1,0-0.2,0-0.3,0.1c-0.1,0.1-0.2,0.2-0.3,0.4l-0.3-0.2
													c0.2-0.3,0.4-0.5,0.6-0.7C172.5,28.8,172.8,28.7,173,28.7L173,28.7z"/>
												<g class="st37">
													<defs>
														<polygon id="SVGID_55_" points="-15.7,159.5 204,159.5 223,-0.2 3.3,-0.2 3.3,159.5 														"/>
													</defs>
													<clipPath id="SVGID_56_">
														<use xlink:href="#SVGID_55_"  style="overflow:visible;"/>
													</clipPath>
													<path class="st38" d="M180.2,31.1h5.7v0.6h-5.7V31.1L180.2,31.1z M180.2,29.2h5.7v0.6h-5.7V29.2L180.2,29.2z"/>
													<g class="st39">
														<defs>
															<polygon id="SVGID_57_" points="-15.7,159.5 204,159.5 223,-0.2 3.3,-0.2 3.3,159.5 															"/>
														</defs>
														<clipPath id="SVGID_58_">
															<use xlink:href="#SVGID_57_"  style="overflow:visible;"/>
														</clipPath>
														<path class="st40" d="M192.1,29.1c-0.3,0-0.6,0.2-0.9,0.5c-0.3,0.3-0.5,0.7-0.7,1.3c0.4,0,0.8,0,1.1-0.1
															c0.3-0.1,0.5-0.2,0.7-0.4c0.2-0.2,0.2-0.4,0.2-0.7c0-0.2,0-0.3-0.1-0.4S192.3,29.1,192.1,29.1L192.1,29.1z
															 M192.3,28.7c0.4,0,0.6,0.1,0.8,0.2c0.2,0.2,0.3,0.4,0.3,0.7c0,0.5-0.2,0.9-0.7,1.2c-0.5,0.3-1.2,0.4-2.2,0.4
															c0,0.2-0.1,0.4-0.1,0.6c0,0.3,0.1,0.6,0.2,0.7c0.1,0.1,0.3,0.2,0.6,0.2c0.3,0,0.5-0.1,0.8-0.2
															c0.2-0.1,0.5-0.3,0.7-0.6l0.3,0.3c-0.3,0.3-0.6,0.6-0.9,0.7c-0.3,0.2-0.7,0.2-1.1,0.2c-0.4,0-0.8-0.1-1-0.4
															c-0.2-0.3-0.4-0.6-0.4-1.1c0-0.3,0.1-0.7,0.2-1.1c0.1-0.4,0.3-0.7,0.5-1c0.2-0.3,0.5-0.5,0.9-0.7
															C191.6,28.8,191.9,28.7,192.3,28.7L192.3,28.7z"/>
														<g class="st41">
															<defs>
																<polygon id="SVGID_59_" points="-15.7,159.5 204,159.5 223,-0.2 3.3,-0.2 3.3,159.5 																"/>
															</defs>
															<clipPath id="SVGID_60_">
																<use xlink:href="#SVGID_59_"  style="overflow:visible;"/>
															</clipPath>
															<path class="st42" d="M196,26.3c0.1,0,0.2,0,0.3,0.1c0.1,0.1,0.1,0.1,0.2,0.2c0.1,0.1,0.1,0.2,0.1,0.4
																c0,0.2,0.1,0.3,0.1,0.5h0c0.1-0.2,0.3-0.3,0.3-0.5c0.1-0.1,0.2-0.2,0.3-0.3c0.1-0.1,0.1-0.2,0.2-0.2s0.1-0.1,0.2-0.1
																c0.1,0,0.1-0.1,0.2-0.1c0.1,0,0.1,0,0.2,0c0.1,0,0.2,0,0.3,0.1l-0.2,0.7h-0.3c0-0.1,0-0.1-0.1-0.1c0,0-0.1,0-0.1,0
																c0,0-0.1,0-0.1,0.1c0,0-0.1,0.1-0.1,0.1c-0.1,0-0.1,0.1-0.2,0.2c-0.1,0.1-0.2,0.2-0.2,0.3c-0.1,0.1-0.2,0.2-0.3,0.4
																c0.1,0.3,0.1,0.6,0.2,0.7c0,0.2,0.1,0.3,0.1,0.4c0,0.1,0.1,0.2,0.1,0.2c0,0,0.1,0,0.1,0c0,0,0.1,0,0.1,0
																c0,0,0.1,0,0.1-0.1c0,0,0.1-0.1,0.1-0.1c0-0.1,0.1-0.1,0.2-0.2l0.3,0.2c-0.1,0.1-0.2,0.3-0.3,0.4
																c-0.1,0.1-0.1,0.2-0.2,0.2c-0.1,0.1-0.1,0.1-0.2,0.1c-0.1,0-0.2,0-0.3,0c-0.1,0-0.2,0-0.2,0c-0.1,0-0.1-0.1-0.2-0.1
																c0,0-0.1-0.1-0.1-0.2c0-0.1-0.1-0.1-0.1-0.2c0-0.1,0-0.2-0.1-0.2c0-0.1,0-0.2-0.1-0.2c0-0.1,0-0.1,0-0.2
																c0-0.1,0-0.1,0-0.1h0c-0.1,0.2-0.3,0.3-0.4,0.5c-0.1,0.1-0.2,0.2-0.3,0.3c-0.1,0.1-0.2,0.2-0.2,0.2
																c-0.1,0.1-0.1,0.1-0.2,0.1c-0.1,0-0.1,0.1-0.2,0.1c-0.1,0-0.1,0-0.2,0c-0.1,0-0.2,0-0.3-0.1l0.2-0.7h0.3
																c0,0.1,0,0.1,0.1,0.1c0,0,0,0,0.1,0c0,0,0.1,0,0.1,0c0,0,0.1-0.1,0.1-0.1s0.1-0.1,0.2-0.2c0.1-0.1,0.2-0.2,0.3-0.3
																c0.1-0.1,0.2-0.3,0.4-0.5c0-0.2-0.1-0.4-0.1-0.5c0-0.1-0.1-0.3-0.1-0.4c0-0.1-0.1-0.2-0.1-0.2c0-0.1,0-0.1-0.1-0.1
																c0,0-0.1-0.1-0.1-0.1c0,0-0.1,0-0.1,0c0,0-0.1,0-0.1,0c0,0-0.1,0-0.1,0.1c0,0-0.1,0.1-0.1,0.1c0,0.1-0.1,0.1-0.1,0.2
																l-0.3-0.2c0.1-0.1,0.2-0.3,0.2-0.3c0.1-0.1,0.1-0.2,0.2-0.2s0.1-0.1,0.2-0.1C195.8,26.3,195.9,26.3,196,26.3
																L196,26.3z"/>
															<g class="st43">
																<defs>
																	<polygon id="SVGID_61_" points="-15.7,159.5 204,159.5 223,-0.2 3.3,-0.2 3.3,159.5 																	"/>
																</defs>
																<clipPath id="SVGID_62_">
																	<use xlink:href="#SVGID_61_"  style="overflow:visible;"/>
																</clipPath>
																<path class="st44" d="M94,107h0.2c0,0.2,0,0.5,0,0.9v2.8c0,0.1,0,0.2,0,0.3s0,0.1,0.1,0.2s0.1,0.1,0.2,0.1
																	c0.1,0,0.2,0,0.3,0.1s0.2,0,0.4,0v0.2h-2.4v-0.2c0.2,0,0.4,0,0.5,0c0.1,0,0.2,0,0.2-0.1c0.1,0,0.1-0.1,0.1-0.2
																	c0-0.1,0-0.2,0-0.3v-2.7c0-0.1,0-0.2,0-0.2c0,0-0.1-0.1-0.1-0.1c-0.1,0-0.2,0-0.3,0.1c-0.1,0.1-0.3,0.2-0.5,0.3
																	l-0.1-0.3L94,107L94,107z"/>
																<g class="st45">
																	<defs>
																		<polygon id="SVGID_63_" points="-15.7,159.5 204,159.5 223,-0.2 3.3,-0.2 3.3,159.5 																		"/>
																	</defs>
																	<clipPath id="SVGID_64_">
																		<use xlink:href="#SVGID_63_"  style="overflow:visible;"/>
																	</clipPath>
																	<g class="st46">
																		<g>
																			<line class="st47" x1="101.1" y1="85.8" x2="103.4" y2="85.8"/>
																			<line class="st48" x1="105.2" y1="85.8" x2="122.7" y2="85.8"/>
																			<line class="st47" x1="123.6" y1="85.8" x2="126" y2="85.8"/>
																		</g>
																	</g>
																	<g class="st46">
																		<defs>
																			<polygon id="SVGID_65_" points="-15.7,159.5 204,159.5 223,-0.2 3.3,-0.2 3.3,159.5 																			"/>
																		</defs>
																		<clipPath id="SVGID_66_">
																			<use xlink:href="#SVGID_65_"  style="overflow:visible;"/>
																		</clipPath>
																		<g class="st49">
																			<g>
																				<line class="st47" x1="126.2" y1="136.3" x2="126.2" y2="133.9"/>
																				<line class="st50" x1="126.2" y1="132.1" x2="126" y2="89.1"/>
																				<line class="st47" x1="126" y1="88.2" x2="126" y2="85.8"/>
																			</g>
																		</g>
																		<g class="st49">
																			<defs>
																				<polygon id="SVGID_67_" points="-15.7,159.5 204,159.5 223,-0.2 3.3,-0.2 3.3,159.5 																				"/>
																			</defs>
																			<clipPath id="SVGID_68_">
																				<use xlink:href="#SVGID_67_"  style="overflow:visible;"/>
																			</clipPath>
																			<path class="st51" d="M132,140.3h0.2c0,0.2,0,0.5,0,0.9v2.8c0,0.1,0,0.2,0,0.3c0,0.1,0,0.1,0.1,0.2
																				c0,0,0.1,0.1,0.2,0.1c0.1,0,0.2,0,0.3,0.1c0.1,0,0.2,0,0.4,0v0.2h-2.4v-0.2c0.2,0,0.4,0,0.5,0
																				c0.1,0,0.2,0,0.2-0.1s0.1-0.1,0.1-0.2c0-0.1,0-0.2,0-0.3v-2.7c0-0.1,0-0.2,0-0.2c0,0-0.1-0.1-0.1-0.1
																				c-0.1,0-0.2,0-0.3,0.1c-0.1,0.1-0.3,0.2-0.5,0.3l-0.1-0.3L132,140.3L132,140.3z"/>
																			<g class="st52">
																				<defs>
																					<polygon id="SVGID_69_" points="-15.7,159.5 204,159.5 223,-0.2 3.3,-0.2 3.3,159.5 																					"/>
																				</defs>
																				<clipPath id="SVGID_70_">
																					<use xlink:href="#SVGID_69_"  style="overflow:visible;"/>
																				</clipPath>
																				<path class="st53" d="M94.7,84c-0.2,0-0.4,0.1-0.6,0.3c-0.2,0.2-0.4,0.5-0.5,0.9c0.3,0,0.6,0,0.8-0.1
																					c0.2-0.1,0.4-0.1,0.5-0.3c0.1-0.1,0.2-0.3,0.2-0.5c0-0.1,0-0.2-0.1-0.3C94.9,84,94.8,84,94.7,84L94.7,84z
																					 M94.8,83.7c0.3,0,0.5,0.1,0.6,0.2c0.1,0.1,0.2,0.3,0.2,0.5c0,0.4-0.2,0.7-0.5,0.8c-0.4,0.2-0.9,0.3-1.6,0.3
																					c0,0.1,0,0.3,0,0.4c0,0.2,0,0.4,0.1,0.5c0.1,0.1,0.2,0.2,0.4,0.2c0.2,0,0.4,0,0.5-0.1c0.2-0.1,0.3-0.2,0.5-0.4
																					l0.2,0.2c-0.2,0.2-0.4,0.4-0.6,0.5c-0.2,0.1-0.5,0.2-0.8,0.2c-0.3,0-0.6-0.1-0.7-0.3c-0.2-0.2-0.3-0.5-0.3-0.8
																					c0-0.2,0-0.5,0.1-0.8c0.1-0.3,0.2-0.5,0.4-0.7c0.2-0.2,0.4-0.4,0.6-0.5C94.3,83.8,94.5,83.7,94.8,83.7
																					L94.8,83.7z"/>
																				<g class="st54">
																					<defs>
																						<polygon id="SVGID_71_" points="-15.7,159.5 204,159.5 223,-0.2 3.3,-0.2 3.3,159.5 																						
																							"/>
																					</defs>
																					<clipPath id="SVGID_72_">
																						<use xlink:href="#SVGID_71_"  style="overflow:visible;"/>
																					</clipPath>
																					<path class="st55" d="M4.6,136.5c30.4,1,69.2-1.6,92.9-19.1c28.9-21.4,45.2-57,67.4-101.9"/>
																				</g>
																			</g>
																		</g>
																	</g>
																</g>
															</g>
														</g>
													</g>
												</g>
											</g>
										</g>
									</g>
								</g>
							</g>
						</g>
					</g>
				</g>
			</g>
		</g>
		<g>
			<g>
				<defs>
					<polygon id="SVGID_73_" points="-15.7,159.5 204,159.5 223,-0.2 3.3,-0.2 3.3,159.5 					"/>
				</defs>
				<clipPath id="SVGID_74_">
					<use xlink:href="#SVGID_73_"  style="overflow:visible;"/>
				</clipPath>
				<g class="st56">
					<defs>
						<polygon id="SVGID_75_" points="-15.7,159.5 204,159.5 223,-0.2 3.3,-0.2 3.3,159.5 						"/>
					</defs>
					<clipPath id="SVGID_76_">
						<use xlink:href="#SVGID_75_"  style="overflow:visible;"/>
					</clipPath>
					<g class="st57">
						<defs>
							<polygon id="SVGID_77_" points="-15.7,159.5 204,159.5 223,-0.2 3.3,-0.2 3.3,159.5 							"/>
						</defs>
						<clipPath id="SVGID_78_">
							<use xlink:href="#SVGID_77_"  style="overflow:visible;"/>
						</clipPath>
						<g class="st58">
							<defs>
								<polygon id="SVGID_79_" points="-15.7,159.5 204,159.5 223,-0.2 3.3,-0.2 3.3,159.5 								"/>
							</defs>
							<clipPath id="SVGID_80_">
								<use xlink:href="#SVGID_79_"  style="overflow:visible;"/>
							</clipPath>
							<g class="st59">
								<defs>
									<polygon id="SVGID_81_" points="-15.7,159.5 204,159.5 223,-0.2 3.3,-0.2 3.3,159.5 									"/>
								</defs>
								<clipPath id="SVGID_82_">
									<use xlink:href="#SVGID_81_"  style="overflow:visible;"/>
								</clipPath>
								<g class="st60">
									<defs>
										<polygon id="SVGID_83_" points="-15.7,159.5 204,159.5 223,-0.2 3.3,-0.2 3.3,159.5 										"/>
									</defs>
									<clipPath id="SVGID_84_">
										<use xlink:href="#SVGID_83_"  style="overflow:visible;"/>
									</clipPath>
									<g class="st61">
										<defs>
											<polygon id="SVGID_85_" points="-15.7,159.5 204,159.5 223,-0.2 3.3,-0.2 3.3,159.5 											"/>
										</defs>
										<clipPath id="SVGID_86_">
											<use xlink:href="#SVGID_85_"  style="overflow:visible;"/>
										</clipPath>
										<g class="st62">
											<defs>
												<polygon id="SVGID_87_" points="-15.7,159.5 204,159.5 223,-0.2 3.3,-0.2 3.3,159.5 												"/>
											</defs>
											<clipPath id="SVGID_88_">
												<use xlink:href="#SVGID_87_"  style="overflow:visible;"/>
											</clipPath>
											<g class="st63">
												<defs>
													<polygon id="SVGID_89_" points="-15.7,159.5 204,159.5 223,-0.2 3.3,-0.2 3.3,159.5 													"/>
												</defs>
												<clipPath id="SVGID_90_">
													<use xlink:href="#SVGID_89_"  style="overflow:visible;"/>
												</clipPath>
												<g class="st64">
													<defs>
														<polygon id="SVGID_91_" points="-15.7,159.5 204,159.5 223,-0.2 3.3,-0.2 3.3,159.5 														"/>
													</defs>
													<clipPath id="SVGID_92_">
														<use xlink:href="#SVGID_91_"  style="overflow:visible;"/>
													</clipPath>
													<g class="st65">
														<defs>
															<polygon id="SVGID_93_" points="-15.7,159.5 204,159.5 223,-0.2 3.3,-0.2 3.3,159.5 															"/>
														</defs>
														<clipPath id="SVGID_94_">
															<use xlink:href="#SVGID_93_"  style="overflow:visible;"/>
														</clipPath>
														<g class="st66">
															<defs>
																<polygon id="SVGID_95_" points="-15.7,159.5 204,159.5 223,-0.2 3.3,-0.2 3.3,159.5 																"/>
															</defs>
															<clipPath id="SVGID_96_">
																<use xlink:href="#SVGID_95_"  style="overflow:visible;"/>
															</clipPath>
															<g class="st67">
																<defs>
																	<polygon id="SVGID_97_" points="-15.7,159.5 204,159.5 223,-0.2 3.3,-0.2 3.3,159.5 																	"/>
																</defs>
																<clipPath id="SVGID_98_">
																	<use xlink:href="#SVGID_97_"  style="overflow:visible;"/>
																</clipPath>
																<g class="st68">
																	<defs>
																		<polygon id="SVGID_99_" points="-15.7,159.5 204,159.5 223,-0.2 3.3,-0.2 3.3,159.5 																		"/>
																	</defs>
																	<clipPath id="SVGID_100_">
																		<use xlink:href="#SVGID_99_"  style="overflow:visible;"/>
																	</clipPath>
																	<g class="st69">
																		<defs>
																			<polygon id="SVGID_101_" points="-15.7,159.5 204,159.5 223,-0.2 3.3,-0.2 3.3,159.5 																			"/>
																		</defs>
																		<clipPath id="SVGID_102_">
																			<use xlink:href="#SVGID_101_"  style="overflow:visible;"/>
																		</clipPath>
																		<g class="st70">
																			<defs>
																				<polygon id="SVGID_103_" points="-15.7,159.5 204,159.5 223,-0.2 3.3,-0.2 3.3,159.5 																				"/>
																			</defs>
																			<clipPath id="SVGID_104_">
																				<use xlink:href="#SVGID_103_"  style="overflow:visible;"/>
																			</clipPath>
																			<g class="st71">
																				<defs>
																					<polygon id="SVGID_105_" points="-15.7,159.5 204,159.5 223,-0.2 3.3,-0.2 3.3,159.5 																					"/>
																				</defs>
																				<clipPath id="SVGID_106_">
																					<use xlink:href="#SVGID_105_"  style="overflow:visible;"/>
																				</clipPath>
																				<g class="st72">
																					<defs>
																						<polygon id="SVGID_107_" points="-15.7,159.5 204,159.5 223,-0.2 3.3,-0.2 3.3,159.5 																						
																							"/>
																					</defs>
																					<clipPath id="SVGID_108_">
																						<use xlink:href="#SVGID_107_"  style="overflow:visible;"/>
																					</clipPath>
																				</g>
																			</g>
																		</g>
																	</g>
																</g>
															</g>
														</g>
													</g>
												</g>
											</g>
										</g>
									</g>
								</g>
							</g>
						</g>
					</g>
				</g>
			</g>
		</g>
	</g>
	<line class="st73" x1="-15.7" y1="-54.2" x2="-15.7" y2="-18.2"/>
	<line class="st73" x1="-69.7" y1="-0.2" x2="-33.7" y2="-0.2"/>
	<line class="st73" x1="-69.7" y1="159.5" x2="-33.7" y2="159.5"/>
	<line class="st73" x1="-15.7" y1="213.5" x2="-15.7" y2="177.5"/>
	<line class="st73" x1="223" y1="-54.2" x2="223" y2="-18.2"/>
	<line class="st73" x1="277" y1="-0.2" x2="241" y2="-0.2"/>
	<line class="st73" x1="277" y1="159.5" x2="241" y2="159.5"/>
	<line class="st73" x1="223" y1="213.5" x2="223" y2="177.5"/>
</g>
<g>
	<path class="st18" d="M126.4,79.2l0.1,0.4c-0.8,0.3-1.3,0.7-1.7,1.5c-0.4,0.7-0.5,1.6-0.5,2.7c0,1.1,0.2,2.1,0.5,2.8
		c0.4,0.7,0.9,1.2,1.7,1.5l-0.1,0.4c-1-0.3-1.7-0.8-2.2-1.6c-0.5-0.8-0.8-1.8-0.8-3c0-1.2,0.3-2.2,0.8-3
		C124.8,79.9,125.5,79.4,126.4,79.2L126.4,79.2z"/>
	<path class="st18" d="M129.9,79.5h0.3c0,0.3,0,0.7,0,1.3v4.2c0,0.2,0,0.3,0,0.4s0.1,0.2,0.1,0.2c0.1,0.1,0.1,0.1,0.2,0.1
		c0.1,0,0.2,0.1,0.4,0.1c0.2,0,0.4,0,0.6,0v0.4h-3.6v-0.4c0.4,0,0.6,0,0.8-0.1c0.2,0,0.3-0.1,0.4-0.1c0.1-0.1,0.1-0.1,0.2-0.2
		s0.1-0.3,0.1-0.5v-4c0-0.1,0-0.2-0.1-0.3c0-0.1-0.1-0.1-0.2-0.1c-0.1,0-0.3,0.1-0.4,0.2c-0.2,0.1-0.4,0.3-0.7,0.4l-0.2-0.4
		L129.9,79.5L129.9,79.5z"/>
	<path class="st18" d="M133,85.1h0.9c0,0.2,0.1,0.5,0.1,0.7c0,0.2,0,0.4-0.1,0.6s-0.2,0.4-0.4,0.6c-0.2,0.2-0.4,0.4-0.7,0.6
		l-0.3-0.3c0.2-0.2,0.3-0.3,0.4-0.4c0.1-0.1,0.1-0.3,0.2-0.4c0-0.2,0-0.4,0-0.6C133,85.6,133,85.3,133,85.1L133,85.1z"/>
	<path class="st18" d="M139.2,81.8c-0.3,0-0.6,0.2-0.9,0.5c-0.3,0.3-0.5,0.8-0.7,1.3c0.5,0,0.9,0,1.2-0.1c0.3-0.1,0.6-0.2,0.8-0.4
		c0.2-0.2,0.3-0.4,0.3-0.7c0-0.2,0-0.4-0.1-0.5C139.5,81.9,139.4,81.8,139.2,81.8L139.2,81.8z M139.4,81.5c0.4,0,0.7,0.1,0.9,0.2
		c0.2,0.2,0.3,0.4,0.3,0.7c0,0.6-0.3,1-0.8,1.2c-0.5,0.3-1.3,0.4-2.3,0.4c0,0.2-0.1,0.4-0.1,0.6c0,0.3,0.1,0.6,0.2,0.7
		s0.4,0.2,0.7,0.2c0.3,0,0.6-0.1,0.8-0.2c0.2-0.1,0.5-0.3,0.8-0.6l0.3,0.3c-0.3,0.3-0.6,0.6-1,0.8s-0.7,0.3-1.1,0.3
		c-0.5,0-0.8-0.1-1.1-0.4c-0.3-0.3-0.4-0.7-0.4-1.2c0-0.3,0.1-0.7,0.2-1.1c0.1-0.4,0.3-0.8,0.6-1.1c0.3-0.3,0.6-0.6,0.9-0.7
		C138.6,81.5,139,81.5,139.4,81.5L139.4,81.5z"/>
	<path class="st18" d="M141.5,79.2c1,0.3,1.7,0.8,2.2,1.6c0.5,0.8,0.8,1.8,0.8,3c0,1.2-0.3,2.2-0.8,3c-0.5,0.8-1.2,1.4-2.2,1.6
		l-0.1-0.4c0.8-0.3,1.3-0.7,1.7-1.5c0.4-0.7,0.5-1.7,0.5-2.8c0-1.1-0.2-2-0.5-2.7c-0.4-0.7-0.9-1.2-1.7-1.5L141.5,79.2z"/>
</g>
<path class="st74" d="M84,117.4"/>
<path class="st18" d="M206.2,142.4c0.1,0,0.2,0,0.3,0s0.2,0.1,0.2,0.1c0.1,0.1,0.1,0.1,0.2,0.2c0,0.1,0.1,0.2,0.1,0.3
	c0,0.1,0.1,0.3,0.1,0.5c0,0.2,0.1,0.4,0.1,0.6h0.1c0.3-0.5,0.6-0.8,0.8-1c0.2-0.2,0.3-0.4,0.4-0.5c0.1-0.1,0.2-0.2,0.3-0.2
	c0.1,0,0.3-0.1,0.4-0.1c0.2,0,0.3,0,0.4,0.1l-0.2,1h-0.4c0-0.1-0.1-0.2-0.2-0.2c0,0-0.1,0-0.1,0s-0.1,0-0.1,0.1
	c-0.1,0-0.1,0.1-0.2,0.2s-0.2,0.2-0.3,0.4c-0.1,0.1-0.2,0.3-0.4,0.5l-0.4,0.4c0.1,0.3,0.1,0.6,0.2,0.9s0.1,0.5,0.2,0.6
	s0.1,0.3,0.1,0.4c0,0.1,0.1,0.2,0.1,0.2c0,0,0.1,0.1,0.1,0.1c0,0,0.1,0,0.1,0c0.1,0,0.2,0,0.3-0.1s0.2-0.2,0.4-0.5l0.3,0.2
	c-0.2,0.4-0.5,0.6-0.7,0.8c-0.2,0.1-0.4,0.2-0.7,0.2c-0.2,0-0.3,0-0.4-0.1c-0.1-0.1-0.2-0.1-0.3-0.3s-0.1-0.3-0.2-0.6
	c-0.1-0.4-0.2-0.8-0.2-1h-0.1c-0.4,0.5-0.6,0.9-0.8,1.1c-0.2,0.2-0.3,0.4-0.4,0.5c-0.1,0.1-0.2,0.2-0.3,0.2c-0.1,0-0.3,0.1-0.4,0.1
	c-0.2,0-0.3,0-0.4-0.1l0.2-1h0.4c0,0.1,0.1,0.2,0.2,0.2c0,0,0.1,0,0.2,0c0.1,0,0.1-0.1,0.2-0.2s0.2-0.3,0.4-0.5
	c0.2-0.2,0.4-0.5,0.8-1c-0.1-0.3-0.1-0.5-0.2-0.8s-0.1-0.5-0.2-0.7c-0.1-0.2-0.1-0.4-0.1-0.4c0-0.1-0.1-0.1-0.1-0.1c0,0-0.1,0-0.2,0
	c-0.1,0-0.1,0-0.2,0.1c-0.1,0-0.1,0.1-0.2,0.2c-0.1,0.1-0.2,0.2-0.3,0.4l-0.3-0.2c0.2-0.3,0.4-0.6,0.6-0.7
	C205.6,142.5,205.9,142.4,206.2,142.4L206.2,142.4z"/>
</svg>
