<?xml version="1.0" encoding="utf-8"?>
<!-- Generator: Adobe Illustrator 23.0.2, SVG Export Plug-In . SVG Version: 6.00 Build 0)  -->
<svg version="1.0" id="Layer_1" xmlns="http://www.w3.org/2000/svg" xmlns:xlink="http://www.w3.org/1999/xlink" x="0px" y="0px"
	 viewBox="0 0 163.7 46" style="enable-background:new 0 0 163.7 46;" xml:space="preserve">
<style type="text/css">
	.st0{fill-rule:evenodd;clip-rule:evenodd;}
</style>
<g>
	<path class="st0" d="M42.4,21.4c-0.4,0-0.7,0.1-1,0.2c-0.3,0.2-0.6,0.4-0.8,0.7c-0.3,0.3-0.5,0.6-0.7,1c-0.2,0.4-0.4,0.8-0.6,1.3
		c0.2,0.3,0.3,0.7,0.5,1c0.2,0.3,0.4,0.6,0.7,0.8c0.3,0.2,0.5,0.4,0.9,0.6c0.3,0.1,0.7,0.2,1.1,0.2c0.4,0,0.7-0.1,1-0.2
		c0.3-0.2,0.5-0.4,0.8-0.7c0.2-0.3,0.4-0.6,0.5-1c0.1-0.4,0.2-0.8,0.2-1.3c0-0.4,0-0.7-0.1-1c-0.1-0.3-0.2-0.6-0.4-0.8
		c-0.2-0.2-0.4-0.4-0.7-0.6C43.1,21.5,42.8,21.4,42.4,21.4L42.4,21.4z M34.8,21.1c-0.3,0-0.6,0.1-1,0.2c-0.3,0.1-0.6,0.3-0.8,0.5
		c-0.2,0.2-0.4,0.5-0.6,0.9c-0.1,0.4-0.2,0.8-0.2,1.3c0,0.4,0.1,0.8,0.2,1.2c0.1,0.4,0.3,0.7,0.5,0.9c0.2,0.3,0.5,0.5,0.8,0.6
		c0.3,0.1,0.7,0.2,1.1,0.2c0.3,0,0.7-0.1,0.9-0.2c0.3-0.1,0.5-0.4,0.8-0.6c0.2-0.3,0.5-0.6,0.7-1c0.2-0.4,0.5-0.9,0.8-1.4
		c-0.4-0.9-0.9-1.5-1.4-1.9C36,21.3,35.4,21.1,34.8,21.1L34.8,21.1z M34.7,20.1c0.4,0,0.8,0.1,1.2,0.2c0.4,0.1,0.7,0.3,1,0.6
		c0.3,0.2,0.6,0.5,0.8,0.9c0.3,0.3,0.5,0.7,0.7,1.1c0.3-0.6,0.6-1,0.9-1.4c0.3-0.4,0.6-0.6,1-0.9c0.3-0.2,0.7-0.4,1.1-0.4
		c0.4-0.1,0.7-0.1,1.1-0.1c0.5,0,1,0.1,1.5,0.3c0.4,0.2,0.8,0.5,1.1,0.9c0.3,0.4,0.5,0.8,0.7,1.3c0.2,0.5,0.2,1,0.2,1.5
		c0,0.6-0.1,1.1-0.3,1.6c-0.2,0.5-0.4,0.9-0.7,1.3c-0.3,0.4-0.7,0.7-1.2,0.9c-0.5,0.2-1,0.3-1.5,0.3c-0.4,0-0.8-0.1-1.2-0.2
		c-0.3-0.2-0.7-0.4-0.9-0.6c-0.3-0.3-0.5-0.6-0.8-0.9c-0.2-0.4-0.5-0.7-0.7-1.1c-0.3,0.5-0.5,1-0.9,1.3c-0.3,0.4-0.6,0.7-0.9,0.9
		c-0.3,0.2-0.7,0.4-1,0.5c-0.3,0.1-0.7,0.2-1,0.2c-0.7,0-1.2-0.1-1.7-0.3c-0.5-0.2-0.9-0.5-1.2-0.9c-0.3-0.4-0.6-0.8-0.7-1.3
		c-0.2-0.5-0.2-1-0.2-1.5c0-0.6,0.1-1.1,0.3-1.6c0.2-0.5,0.4-0.9,0.7-1.3c0.3-0.4,0.7-0.6,1.2-0.8C33.6,20.2,34.1,20.1,34.7,20.1
		L34.7,20.1z"/>
	<polygon class="st0" points="66.6,18 66.6,19.5 55.9,24.2 66.6,28.8 66.6,30.3 54.4,24.9 54.4,23.5 66.6,18 	"/>
	<path class="st0" d="M77.7,20.3c0.2,0,0.4,0,0.5,0.1c0.2,0,0.3,0.1,0.4,0.2c0.1,0.1,0.2,0.2,0.3,0.4c0.1,0.2,0.2,0.4,0.3,0.6
		c0.1,0.3,0.2,0.6,0.2,1c0.1,0.4,0.1,0.8,0.2,1.2h0.1c0.6-0.9,1.1-1.5,1.4-2s0.6-0.7,0.8-0.9s0.4-0.3,0.6-0.4
		c0.2-0.1,0.5-0.1,0.8-0.1c0.3,0,0.6,0,0.8,0.1l-0.4,1.8h-0.7c0-0.3-0.2-0.4-0.3-0.4c-0.1,0-0.1,0-0.2,0c-0.1,0-0.1,0.1-0.2,0.1
		c-0.1,0.1-0.2,0.2-0.4,0.4c-0.2,0.2-0.4,0.4-0.6,0.7c-0.2,0.3-0.5,0.6-0.7,0.9L80,24.8c0.1,0.6,0.2,1.2,0.3,1.6
		c0.1,0.5,0.2,0.8,0.3,1.2c0.1,0.3,0.2,0.5,0.2,0.7c0.1,0.2,0.1,0.3,0.2,0.4c0.1,0.1,0.1,0.2,0.2,0.2c0.1,0,0.2,0.1,0.3,0.1
		c0.2,0,0.4-0.1,0.5-0.2c0.2-0.1,0.4-0.5,0.7-0.9l0.6,0.4c-0.5,0.7-0.9,1.2-1.3,1.4c-0.4,0.3-0.8,0.4-1.3,0.4
		c-0.3,0-0.5-0.1-0.7-0.2c-0.2-0.1-0.4-0.3-0.5-0.5c-0.1-0.2-0.3-0.6-0.4-1c-0.2-0.8-0.3-1.5-0.4-1.9h-0.1c-0.7,1-1.2,1.7-1.6,2.1
		c-0.3,0.4-0.6,0.7-0.8,0.9c-0.2,0.2-0.4,0.3-0.6,0.4c-0.2,0.1-0.5,0.1-0.8,0.1c-0.3,0-0.6,0-0.8-0.1l0.4-1.8h0.7
		c0,0.3,0.2,0.4,0.3,0.4c0.1,0,0.2,0,0.3-0.1c0.1,0,0.2-0.2,0.4-0.4s0.5-0.5,0.8-0.9c0.3-0.4,0.8-1,1.5-1.8c-0.1-0.5-0.2-1-0.3-1.5
		c-0.1-0.5-0.2-0.9-0.3-1.3c-0.1-0.4-0.2-0.7-0.3-0.8c-0.1-0.1-0.2-0.2-0.2-0.3c-0.1,0-0.2-0.1-0.3-0.1c-0.1,0-0.3,0-0.4,0.1
		c-0.1,0.1-0.2,0.2-0.4,0.3c-0.1,0.2-0.3,0.4-0.5,0.7l-0.6-0.4c0.4-0.6,0.8-1.1,1.2-1.4C76.7,20.5,77.2,20.3,77.7,20.3L77.7,20.3z"
		/>
	<polygon class="st0" points="104.5,18 104.5,19.5 93.8,24.2 104.5,28.8 104.5,30.3 92.3,24.9 92.3,23.5 104.5,18 	"/>
	<path class="st0" d="M124.1,21.4c-0.4,0-0.7,0.1-1,0.2c-0.3,0.2-0.6,0.4-0.8,0.7c-0.3,0.3-0.5,0.6-0.7,1c-0.2,0.4-0.4,0.8-0.6,1.3
		c0.2,0.3,0.3,0.7,0.5,1c0.2,0.3,0.4,0.6,0.7,0.8c0.3,0.2,0.5,0.4,0.9,0.6s0.7,0.2,1.1,0.2c0.4,0,0.7-0.1,1-0.2
		c0.3-0.2,0.5-0.4,0.8-0.7c0.2-0.3,0.4-0.6,0.5-1c0.1-0.4,0.2-0.8,0.2-1.3c0-0.4,0-0.7-0.1-1c-0.1-0.3-0.2-0.6-0.4-0.8
		c-0.2-0.2-0.4-0.4-0.7-0.6C124.9,21.5,124.5,21.4,124.1,21.4L124.1,21.4z M116.6,21.1c-0.3,0-0.6,0.1-1,0.2
		c-0.3,0.1-0.6,0.3-0.8,0.5c-0.2,0.2-0.4,0.5-0.6,0.9c-0.1,0.4-0.2,0.8-0.2,1.3c0,0.4,0.1,0.8,0.2,1.2c0.1,0.4,0.3,0.7,0.5,0.9
		c0.2,0.3,0.5,0.5,0.8,0.6c0.3,0.1,0.7,0.2,1.1,0.2c0.3,0,0.7-0.1,0.9-0.2c0.3-0.1,0.5-0.4,0.8-0.6c0.2-0.3,0.5-0.6,0.7-1
		c0.2-0.4,0.5-0.9,0.8-1.4c-0.4-0.9-0.9-1.5-1.4-1.9C117.8,21.3,117.2,21.1,116.6,21.1L116.6,21.1z M116.4,20.1
		c0.4,0,0.8,0.1,1.2,0.2c0.4,0.1,0.7,0.3,1,0.6c0.3,0.2,0.6,0.5,0.8,0.9c0.3,0.3,0.5,0.7,0.7,1.1c0.3-0.6,0.6-1,0.9-1.4
		c0.3-0.4,0.6-0.6,1-0.9c0.3-0.2,0.7-0.4,1.1-0.4c0.4-0.1,0.7-0.1,1.1-0.1c0.5,0,1,0.1,1.5,0.3c0.4,0.2,0.8,0.5,1.1,0.9
		c0.3,0.4,0.5,0.8,0.7,1.3c0.2,0.5,0.2,1,0.2,1.5c0,0.6-0.1,1.1-0.3,1.6c-0.2,0.5-0.4,0.9-0.7,1.3c-0.3,0.4-0.7,0.7-1.2,0.9
		c-0.5,0.2-1,0.3-1.5,0.3c-0.4,0-0.8-0.1-1.2-0.2c-0.3-0.2-0.7-0.4-0.9-0.6c-0.3-0.3-0.5-0.6-0.8-0.9c-0.2-0.4-0.5-0.7-0.7-1.1
		c-0.3,0.5-0.5,1-0.9,1.3c-0.3,0.4-0.6,0.7-0.9,0.9c-0.3,0.2-0.7,0.4-1,0.5c-0.3,0.1-0.7,0.2-1,0.2c-0.7,0-1.2-0.1-1.7-0.3
		c-0.5-0.2-0.9-0.5-1.2-0.9c-0.3-0.4-0.6-0.8-0.7-1.3s-0.2-1-0.2-1.5c0-0.6,0.1-1.1,0.3-1.6c0.2-0.5,0.4-0.9,0.7-1.3
		c0.3-0.4,0.7-0.6,1.2-0.8C115.4,20.2,115.9,20.1,116.4,20.1L116.4,20.1z"/>
</g>
</svg>
