<?xml version="1.0" encoding="utf-8"?>
<!-- Generator: Adobe Illustrator 23.0.2, SVG Export Plug-In . SVG Version: 6.00 Build 0)  -->
<svg version="1.0" id="Layer_1" xmlns="http://www.w3.org/2000/svg" xmlns:xlink="http://www.w3.org/1999/xlink" x="0px" y="0px"
	 viewBox="0 0 203.9 208.7" style="enable-background:new 0 0 203.9 208.7;" xml:space="preserve">
<style type="text/css">
	.st0{fill:none;stroke:#000000;stroke-width:1.4501;stroke-linejoin:round;stroke-miterlimit:10;}
	.st1{clip-path:url(#SVGID_2_);fill:none;stroke:#000000;stroke-width:1.4501;stroke-miterlimit:8;}
	.st2{clip-path:url(#SVGID_2_);}
	.st3{clip-path:url(#SVGID_4_);fill:none;stroke:#000000;stroke-width:1.4501;stroke-miterlimit:8;}
	.st4{clip-path:url(#SVGID_4_);}
	.st5{clip-path:url(#SVGID_6_);fill-rule:evenodd;clip-rule:evenodd;}
	.st6{clip-path:url(#SVGID_6_);}
	.st7{clip-path:url(#SVGID_8_);fill-rule:evenodd;clip-rule:evenodd;}
	.st8{clip-path:url(#SVGID_8_);}
	.st9{clip-path:url(#SVGID_10_);fill-rule:evenodd;clip-rule:evenodd;}
	.st10{clip-path:url(#SVGID_10_);}
	.st11{clip-path:url(#SVGID_12_);fill-rule:evenodd;clip-rule:evenodd;}
	.st12{clip-path:url(#SVGID_12_);}
	.st13{clip-path:url(#SVGID_14_);fill-rule:evenodd;clip-rule:evenodd;}
	.st14{clip-path:url(#SVGID_14_);}
	.st15{clip-path:url(#SVGID_16_);fill-rule:evenodd;clip-rule:evenodd;}
	.st16{clip-path:url(#SVGID_16_);}
	.st17{clip-path:url(#SVGID_18_);fill-rule:evenodd;clip-rule:evenodd;}
	.st18{clip-path:url(#SVGID_18_);}
	.st19{clip-path:url(#SVGID_20_);fill:none;stroke:#000000;stroke-width:1.0876;stroke-miterlimit:8;}
	.st20{clip-path:url(#SVGID_20_);}
	.st21{clip-path:url(#SVGID_22_);fill:none;stroke:#000000;stroke-width:1.0876;stroke-miterlimit:8;}
	.st22{clip-path:url(#SVGID_22_);}
	.st23{clip-path:url(#SVGID_24_);fill-rule:evenodd;clip-rule:evenodd;}
	.st24{clip-path:url(#SVGID_24_);}
	.st25{clip-path:url(#SVGID_26_);fill-rule:evenodd;clip-rule:evenodd;}
	.st26{clip-path:url(#SVGID_26_);}
	.st27{clip-path:url(#SVGID_28_);fill-rule:evenodd;clip-rule:evenodd;}
	.st28{clip-path:url(#SVGID_28_);}
	.st29{clip-path:url(#SVGID_30_);fill-rule:evenodd;clip-rule:evenodd;}
	.st30{clip-path:url(#SVGID_30_);}
	.st31{clip-path:url(#SVGID_32_);fill-rule:evenodd;clip-rule:evenodd;}
	.st32{fill-rule:evenodd;clip-rule:evenodd;fill:#006838;}
	.st33{fill-rule:evenodd;clip-rule:evenodd;fill:#2B3990;}
	.st34{fill:none;stroke:#006838;stroke-miterlimit:10;}
	.st35{fill:#006838;}
	.st36{fill:none;stroke:#2B3990;stroke-miterlimit:10;}
	.st37{fill:#2B3990;}
</style>
<g>
	<polygon class="st0" points="21.5,184.2 156.5,22.1 156.5,184.2 21.5,184.2 	"/>
	<g>
		<defs>
			<polygon id="SVGID_1_" points="1.4,205.2 177.7,205.2 177.7,-2.9 1.4,-2.9 1.4,205.2 			"/>
		</defs>
		<clipPath id="SVGID_2_">
			<use xlink:href="#SVGID_1_"  style="overflow:visible;"/>
		</clipPath>
		<line class="st1" x1="146.3" y1="171.5" x2="156.5" y2="171.5"/>
		<g class="st2">
			<defs>
				<polygon id="SVGID_3_" points="1.4,205.2 177.7,205.2 177.7,-2.9 1.4,-2.9 1.4,205.2 				"/>
			</defs>
			<clipPath id="SVGID_4_">
				<use xlink:href="#SVGID_3_"  style="overflow:visible;"/>
			</clipPath>
			<line class="st3" x1="147" y1="171.5" x2="147" y2="184.1"/>
			<g class="st4">
				<defs>
					<polygon id="SVGID_5_" points="1.4,205.2 177.7,205.2 177.7,-2.9 1.4,-2.9 1.4,205.2 					"/>
				</defs>
				<clipPath id="SVGID_6_">
					<use xlink:href="#SVGID_5_"  style="overflow:visible;"/>
				</clipPath>
				<path class="st5" d="M12.2,182.9l-3,5.4h3.3l-0.1-2.7c0-0.4,0-0.8,0-1.4C12.3,183.6,12.3,183.2,12.2,182.9L12.2,182.9z
					 M12.2,181.1h1.3l0.6,9.5c0,0.4,0.1,0.8,0.2,1c0.1,0.3,0.2,0.4,0.3,0.6c0.1,0.1,0.3,0.2,0.6,0.2l-0.1,0.4h-3.5l0.1-0.4
					c0.3,0,0.6-0.2,0.7-0.4c0.2-0.2,0.2-0.6,0.2-1.2c0-0.2,0-0.5,0-0.7l-0.1-1.1H8.8l-0.5,0.8c-0.2,0.4-0.4,0.7-0.5,1
					c-0.1,0.3-0.2,0.5-0.2,0.7c0,0.5,0.3,0.8,0.9,0.8l-0.1,0.4H4.9l0.1-0.4c0.2,0,0.3-0.1,0.5-0.2c0.2-0.1,0.3-0.3,0.5-0.5
					c0.2-0.2,0.4-0.6,0.7-1.2L12.2,181.1z"/>
				<g class="st6">
					<defs>
						<polygon id="SVGID_7_" points="1.4,205.2 177.7,205.2 177.7,-2.9 1.4,-2.9 1.4,205.2 						"/>
					</defs>
					<clipPath id="SVGID_8_">
						<use xlink:href="#SVGID_7_"  style="overflow:visible;"/>
					</clipPath>
					<path class="st7" d="M154.6,9.5l-1.1,4.9c0.3,0,0.8,0,1.3,0c0.9,0,1.5-0.1,1.9-0.3c0.4-0.2,0.8-0.5,1.1-1
						c0.3-0.5,0.5-1.1,0.5-1.8c0-0.6-0.2-1-0.6-1.3c-0.4-0.3-0.9-0.4-1.7-0.4H154.6z M157.1,4.3c-0.5,0-1,0-1.4,0l-1,4.4h1.2
						c0.7,0,1.2-0.1,1.6-0.2c0.4-0.1,0.7-0.3,1-0.6c0.3-0.3,0.5-0.6,0.7-0.9c0.1-0.3,0.2-0.7,0.2-1.2c0-0.2,0-0.5-0.1-0.7
						c-0.1-0.2-0.2-0.4-0.4-0.5c-0.2-0.2-0.4-0.3-0.7-0.3C157.9,4.4,157.6,4.3,157.1,4.3L157.1,4.3z M153.3,3.6h4.2
						c0.8,0,1.5,0.1,2,0.3c0.5,0.2,0.9,0.4,1.1,0.8c0.2,0.3,0.4,0.8,0.4,1.3c0,0.7-0.2,1.4-0.7,1.9c-0.5,0.6-1.1,1-2,1.3l0,0.1
						c0.5,0.2,0.9,0.5,1.2,0.9c0.3,0.4,0.4,0.8,0.4,1.3c0,0.8-0.2,1.4-0.5,1.9c-0.3,0.5-0.9,1-1.6,1.3s-1.7,0.5-3,0.5h-3.8l0.1-0.4
						c0.2,0,0.4-0.1,0.5-0.2c0.1-0.1,0.2-0.2,0.3-0.3s0.1-0.3,0.2-0.5c0.1-0.2,0.2-0.6,0.3-1.1l1.4-6.5c0.1-0.6,0.2-1,0.2-1.3
						c0-0.3-0.1-0.5-0.2-0.6c-0.1-0.1-0.3-0.2-0.6-0.2L153.3,3.6z"/>
					<g class="st8">
						<defs>
							<polygon id="SVGID_9_" points="1.4,205.2 177.7,205.2 177.7,-2.9 1.4,-2.9 1.4,205.2 							"/>
						</defs>
						<clipPath id="SVGID_10_">
							<use xlink:href="#SVGID_9_"  style="overflow:visible;"/>
						</clipPath>
						<path class="st9" d="M166.2,187c0.5,0,1,0,1.4,0.1c0.4,0.1,0.9,0.2,1.5,0.3l-0.5,2.3h-0.8c0-0.7-0.2-1.2-0.5-1.5
							s-0.7-0.5-1.2-0.5c-0.8,0-1.5,0.4-2.2,1.2c-0.7,0.8-1.2,1.8-1.6,3.1c-0.4,1.3-0.6,2.5-0.6,3.6c0,0.9,0.2,1.5,0.5,1.9
							c0.3,0.4,0.8,0.6,1.4,0.6c0.4,0,0.8-0.1,1.1-0.2c0.3-0.1,0.6-0.3,0.9-0.6c0.3-0.3,0.6-0.7,0.8-1.3h0.8l-0.5,2.4
							c-1.1,0.3-2.2,0.4-3.3,0.4c-1.1,0-1.9-0.3-2.4-0.9c-0.6-0.6-0.8-1.5-0.8-2.7c0-0.8,0.1-1.8,0.4-2.9c0.3-1.1,0.7-2,1.3-2.9
							s1.2-1.4,1.9-1.9C164.5,187.2,165.3,187,166.2,187L166.2,187z"/>
						<g class="st10">
							<defs>
								<polygon id="SVGID_11_" points="1.4,205.2 177.7,205.2 177.7,-2.9 1.4,-2.9 1.4,205.2 								"/>
							</defs>
							<clipPath id="SVGID_12_">
								<use xlink:href="#SVGID_11_"  style="overflow:visible;"/>
							</clipPath>
							<path class="st11" d="M44.6,171.2l-2.3,4.2h2.6l-0.1-2.1c0-0.3,0-0.7,0-1.1C44.7,171.7,44.7,171.4,44.6,171.2L44.6,171.2z
								 M44.7,169.8h1l0.5,7.4c0,0.3,0.1,0.6,0.1,0.8c0.1,0.2,0.1,0.3,0.2,0.4c0.1,0.1,0.2,0.2,0.4,0.2l-0.1,0.3h-2.7l0.1-0.3
								c0.3,0,0.5-0.1,0.6-0.3c0.1-0.2,0.2-0.5,0.2-1c0-0.2,0-0.4,0-0.6l0-0.9H42l-0.4,0.6c-0.2,0.3-0.3,0.6-0.4,0.8
								c-0.1,0.2-0.1,0.4-0.1,0.6c0,0.4,0.2,0.6,0.7,0.7l-0.1,0.3H39l0.1-0.3c0.1,0,0.3-0.1,0.4-0.2c0.1-0.1,0.2-0.2,0.4-0.4
								c0.1-0.2,0.3-0.5,0.6-0.9L44.7,169.8z"/>
							<g class="st12">
								<defs>
									<polygon id="SVGID_13_" points="1.4,205.2 177.7,205.2 177.7,-2.9 1.4,-2.9 1.4,205.2 									"/>
								</defs>
								<clipPath id="SVGID_14_">
									<use xlink:href="#SVGID_13_"  style="overflow:visible;"/>
								</clipPath>
								<polygon class="st13" points="44.7,167.1 45.6,167.1 47.1,168.8 46.7,169.2 45.1,167.9 45.1,167.9 43.5,169.2 43.1,168.8 
									44.7,167.1 								"/>
								<g class="st14">
									<defs>
										<polygon id="SVGID_15_" points="1.4,205.2 177.7,205.2 177.7,-2.9 1.4,-2.9 1.4,205.2 										"/>
									</defs>
									<clipPath id="SVGID_16_">
										<use xlink:href="#SVGID_15_"  style="overflow:visible;"/>
									</clipPath>
									<path class="st15" d="M147.3,47.1l-0.8,3.8c0.3,0,0.6,0,1,0c0.7,0,1.2-0.1,1.5-0.2c0.3-0.2,0.6-0.4,0.9-0.8
										c0.2-0.4,0.4-0.9,0.4-1.4c0-0.4-0.1-0.8-0.4-1c-0.3-0.2-0.7-0.3-1.3-0.3H147.3z M149.2,43.1c-0.4,0-0.7,0-1.1,0l-0.7,3.4
										h0.9c0.5,0,0.9,0,1.2-0.1c0.3-0.1,0.6-0.2,0.8-0.4c0.2-0.2,0.4-0.5,0.5-0.7c0.1-0.3,0.2-0.6,0.2-0.9c0-0.2,0-0.4-0.1-0.5
										c-0.1-0.2-0.2-0.3-0.3-0.4c-0.2-0.1-0.3-0.2-0.6-0.3C149.9,43.1,149.6,43.1,149.2,43.1L149.2,43.1z M146.3,42.5h3.3
										c0.7,0,1.2,0.1,1.6,0.2c0.4,0.1,0.7,0.3,0.9,0.6c0.2,0.3,0.3,0.6,0.3,1c0,0.6-0.2,1.1-0.5,1.5c-0.4,0.4-0.9,0.8-1.6,1
										l0,0.1c0.4,0.2,0.7,0.4,0.9,0.7c0.2,0.3,0.3,0.6,0.3,1c0,0.6-0.1,1.1-0.4,1.5c-0.3,0.4-0.7,0.8-1.2,1
										c-0.5,0.3-1.3,0.4-2.4,0.4h-2.9l0.1-0.3c0.2,0,0.3-0.1,0.4-0.1c0.1-0.1,0.2-0.1,0.2-0.2c0.1-0.1,0.1-0.2,0.2-0.4
										c0-0.2,0.1-0.4,0.2-0.9l1.1-5.1c0.1-0.4,0.1-0.8,0.1-1c0-0.2-0.1-0.4-0.2-0.4c-0.1-0.1-0.3-0.1-0.5-0.1L146.3,42.5z"/>
									<g class="st16">
										<defs>
											<polygon id="SVGID_17_" points="1.4,205.2 177.7,205.2 177.7,-2.9 1.4,-2.9 1.4,205.2 											"/>
										</defs>
										<clipPath id="SVGID_18_">
											<use xlink:href="#SVGID_17_"  style="overflow:visible;"/>
										</clipPath>
										<polygon class="st17" points="148.9,39.8 149.8,39.8 152.1,41.5 151.8,41.9 149.4,40.7 149.3,40.7 146.9,41.9 146.6,41.5 
											148.9,39.8 										"/>
										<g class="st18">
											<defs>
												<polygon id="SVGID_19_" points="1.4,205.2 177.7,205.2 177.7,-2.9 1.4,-2.9 1.4,205.2 												"/>
											</defs>
											<clipPath id="SVGID_20_">
												<use xlink:href="#SVGID_19_"  style="overflow:visible;"/>
											</clipPath>
											<path class="st19" d="M156.2,52c-6.8,6.3-16.7,5.6-21.9-1.6c-0.1-0.1-0.2-0.2-0.3-0.4"/>
											<g class="st20">
												<defs>
													<polygon id="SVGID_21_" points="1.4,205.2 177.7,205.2 177.7,-2.9 1.4,-2.9 1.4,205.2 													"/>
												</defs>
												<clipPath id="SVGID_22_">
													<use xlink:href="#SVGID_21_"  style="overflow:visible;"/>
												</clipPath>
												<path class="st21" d="M40.7,161.9c9.2-2.1,17.8,3.1,19.2,11.6c0.5,3.2-0.1,6.6-1.6,9.6"/>
												<g class="st22">
													<defs>
														<polygon id="SVGID_23_" points="1.4,205.2 177.7,205.2 177.7,-2.9 1.4,-2.9 1.4,205.2 														"/>
													</defs>
													<clipPath id="SVGID_24_">
														<use xlink:href="#SVGID_23_"  style="overflow:visible;"/>
													</clipPath>
													<path class="st23" d="M66.3,107.3c-0.1,0.2-0.2,0.4-0.3,0.7c0,0.3,0,0.6,0.1,1c0.1,0.4,0.2,0.8,0.4,1.1
														c0.2,0.3,0.4,0.6,0.6,1l0.2,0.2c0.2,0.2,0.3,0.3,0.4,0.4c0.1,0.1,0.2,0.2,0.3,0.2c0.3,0.2,0.5,0.3,0.7,0.3
														c0.2,0,0.4-0.2,0.7-0.4c0.1-0.2,0.2-0.4,0.3-0.6s0.1-0.4,0.1-0.7c0-0.2-0.1-0.5-0.2-0.7c-0.1-0.3-0.2-0.5-0.4-0.8
														c-0.2-0.3-0.4-0.6-0.6-0.8c-0.2-0.3-0.4-0.5-0.7-0.7c-0.4-0.3-0.7-0.5-0.9-0.5S66.5,107.1,66.3,107.3L66.3,107.3z
														 M70.5,101.9c-0.3,0.4-0.4,0.8-0.3,1.3c0.1,0.5,0.3,1.1,0.7,1.7s0.8,1.1,1.2,1.4c0.4,0.3,0.7,0.5,1,0.5
														c0.3,0,0.6-0.2,0.8-0.5c0.3-0.3,0.4-0.7,0.3-1.3c-0.1-0.5-0.3-1.1-0.7-1.7c-0.4-0.6-0.8-1.1-1.2-1.4
														c-0.4-0.3-0.7-0.5-1-0.5C71,101.4,70.7,101.6,70.5,101.9L70.5,101.9z M96.9,70.3c-0.3,0.3-0.4,0.8-0.3,1.4
														c0.1,0.6,0.3,1.2,0.8,1.9c0.4-0.5,0.7-0.9,0.9-1.3c0.2-0.4,0.3-0.8,0.3-1.1c0-0.3-0.2-0.6-0.5-0.9
														c-0.2-0.2-0.4-0.3-0.6-0.3C97.2,70,97.1,70.1,96.9,70.3L96.9,70.3z M78.6,92.2c-0.3,0.3-0.4,0.8-0.3,1.4
														c0.1,0.6,0.3,1.2,0.8,1.9c0.4-0.5,0.7-0.9,0.9-1.3c0.2-0.4,0.3-0.8,0.3-1.1c0-0.3-0.2-0.6-0.5-0.9
														c-0.2-0.2-0.4-0.3-0.6-0.3C78.9,91.9,78.7,92,78.6,92.2L78.6,92.2z M92.1,75.2c0.3-0.3,0.5-0.6,0.8-0.8
														c0.3-0.2,0.5-0.4,0.8-0.6l0.9,1.1l-0.3,0.4c-0.3-0.2-0.6-0.3-0.9-0.3c-0.3,0-0.6,0.2-0.9,0.6c-0.2,0.3-0.3,0.5-0.3,0.8
														c0,0.3,0.1,0.5,0.3,0.7c0.1,0.1,0.2,0.2,0.4,0.2c0.1,0,0.3,0,0.5,0c0.2,0,0.5-0.1,0.9-0.3c0.3-0.1,0.6-0.2,0.8-0.2
														c0.2,0,0.4-0.1,0.6,0c0.2,0,0.3,0.1,0.5,0.1c0.1,0.1,0.3,0.2,0.5,0.3c0.3,0.3,0.5,0.5,0.6,0.9c0.1,0.3,0.1,0.7-0.1,1.1
														c-0.1,0.4-0.3,0.7-0.6,1.1c-0.2,0.3-0.5,0.5-0.8,0.8c-0.3,0.2-0.6,0.5-1,0.7l-0.9-1.2l0.3-0.4c0.3,0.3,0.7,0.4,1,0.3
														c0.3,0,0.6-0.2,0.9-0.6c0.3-0.3,0.4-0.6,0.4-0.9c0-0.3-0.1-0.6-0.4-0.8c-0.2-0.1-0.3-0.2-0.5-0.3c-0.2,0-0.3,0-0.5,0
														c-0.2,0-0.5,0.1-0.8,0.2c-0.4,0.1-0.7,0.2-0.9,0.3c-0.3,0-0.5,0-0.7,0c-0.2-0.1-0.4-0.2-0.6-0.3
														c-0.3-0.2-0.4-0.5-0.5-0.8s-0.1-0.6,0.1-1S91.8,75.6,92.1,75.2L92.1,75.2z M70.2,101.4c0.5-0.5,0.9-0.8,1.5-0.9
														c0.5,0,1.1,0.2,1.6,0.6c0.4,0.3,0.8,0.7,1.1,1.3s0.5,1,0.7,1.5s0.1,1,0,1.4s-0.4,0.9-0.7,1.3c-0.4,0.5-0.9,0.8-1.5,0.8
														c-0.5,0-1.1-0.2-1.6-0.6c-0.3-0.2-0.5-0.5-0.8-0.9c-0.4-0.5-0.7-1-0.8-1.6c-0.2-0.5-0.2-1.1-0.1-1.6
														C69.6,102.3,69.8,101.9,70.2,101.4L70.2,101.4z M59.1,114.6c0.1-0.1,0.2-0.2,0.4-0.3c0.1,0,0.2-0.1,0.3-0.1
														c0.1,0,0.3,0,0.4,0c0.2,0,0.3,0.1,0.5,0.2c0.2,0.1,0.4,0.2,0.7,0.4c0.5,0.3,1,0.6,1.6,0.9c0.5,0.3,1,0.6,1.5,0.9
														c-0.2-0.7-0.4-1.4-0.7-2c-0.3-0.6-0.5-1.1-0.8-1.5c-0.3-0.4-0.5-0.7-0.7-0.8c-0.2-0.1-0.3-0.2-0.4-0.2
														c-0.1,0-0.2,0.1-0.4,0.3l-0.2-0.3l1.1-1.3l0.4,0.1c0.5,0.8,0.9,1.8,1.4,2.9c0.4,1.1,0.8,2.2,1.1,3.4
														c0.3,1.2,0.5,2,0.5,2.7c0,0.4,0,0.8-0.1,1.1c-0.1,0.2-0.2,0.5-0.4,0.7c-0.1,0.1-0.1,0.1-0.2,0.2
														c-0.1,0.1-0.2,0.1-0.2,0.2l-0.8-1l0.3-0.4c0.2,0.2,0.4,0.2,0.5,0c0.2-0.2,0.2-0.5,0.2-1c0-0.5-0.1-1.1-0.3-1.8
														c-0.7-0.4-1.5-0.9-2.5-1.4c-1-0.6-1.7-0.9-2-1c-0.3-0.1-0.5-0.2-0.7-0.2c-0.1,0-0.2,0.1-0.2,0.1
														c-0.1,0.1-0.1,0.2-0.1,0.4c0,0.2,0.1,0.4,0.2,0.7l-0.5,0.1c-0.2-0.5-0.2-0.9-0.2-1.3C58.8,115.2,58.9,114.9,59.1,114.6
														L59.1,114.6z M96.6,69.8c0.3-0.4,0.7-0.6,1-0.7c0.3-0.1,0.7,0,1,0.3c0.6,0.5,0.8,1.1,0.6,1.9c-0.2,0.8-0.7,1.7-1.6,2.8
														c0.2,0.2,0.4,0.4,0.6,0.6c0.4,0.3,0.7,0.4,0.9,0.4c0.3,0,0.5-0.2,0.8-0.5c0.3-0.3,0.4-0.6,0.5-1c0.1-0.4,0.1-0.8,0-1.3
														l0.6,0c0.1,0.6,0.1,1.2,0,1.7c-0.1,0.5-0.3,1-0.7,1.4c-0.4,0.5-0.9,0.7-1.4,0.8c-0.5,0-1.1-0.2-1.6-0.6
														c-0.4-0.3-0.7-0.7-1-1.2c-0.3-0.5-0.5-1-0.6-1.5c-0.1-0.5-0.1-1.1,0-1.6C96.1,70.7,96.3,70.2,96.6,69.8L96.6,69.8z
														 M86.1,82.4c0.2-0.2,0.4-0.3,0.6-0.3c0.2,0,0.5,0.1,0.7,0.3c0.3,0.2,0.6,0.6,0.9,1l0.7,1c0.2,0.2,0.3,0.4,0.4,0.6
														c0.1,0.1,0.2,0.2,0.3,0.3s0.2,0.2,0.2,0.2c0.2,0.2,0.4,0.3,0.6,0.3c0.2,0,0.3-0.1,0.5-0.3c0.1-0.1,0.2-0.3,0.2-0.6
														c0-0.3,0-0.6-0.1-0.9c-0.1-0.4-0.2-0.7-0.3-1c-0.1-0.3-0.3-0.6-0.6-0.9l-1.8-2.3l0.7-0.9l2.6,3.4
														c0.3,0.3,0.5,0.6,0.7,0.7c0.1,0.1,0.3,0.2,0.3,0.2c0.1,0,0.2,0,0.3-0.1c0.1-0.1,0.1-0.2,0.1-0.4s0-0.5-0.1-0.9l0.5-0.1
														c0.1,0.6,0.1,1,0,1.4c0,0.3-0.2,0.6-0.4,0.9c-0.2,0.2-0.4,0.3-0.6,0.3c-0.2,0-0.5-0.1-0.7-0.3
														c-0.2-0.2-0.3-0.4-0.5-0.6l-0.1,0c0.2,0.7,0.3,1.3,0.2,1.8c0,0.5-0.2,0.9-0.4,1.2c-0.3,0.3-0.6,0.5-0.9,0.5
														c-0.3,0-0.6-0.1-1-0.4c-0.2-0.2-0.5-0.5-0.8-0.9l-1.1-1.4c-0.3-0.4-0.5-0.7-0.7-0.8c-0.1-0.1-0.3-0.2-0.3-0.2
														c-0.1,0-0.2,0-0.3,0.1c-0.1,0.1-0.1,0.3-0.1,0.4c0,0.2,0,0.5,0.1,0.9l-0.5,0.1c-0.1-0.5-0.1-0.9-0.1-1.1
														c0-0.2,0.1-0.4,0.1-0.6C85.9,82.7,86,82.5,86.1,82.4L86.1,82.4z M81.1,88.4c0.2-0.2,0.4-0.3,0.6-0.3
														c0.2,0,0.5,0.1,0.7,0.3c0.2,0.1,0.3,0.4,0.5,0.6l0.1,0c-0.2-0.7-0.3-1.3-0.2-1.8c0-0.5,0.2-0.9,0.4-1.2
														c0.3-0.3,0.6-0.5,0.9-0.5c0.3,0,0.6,0.1,1,0.4c0.2,0.2,0.5,0.5,0.8,0.9l1.1,1.4c0.3,0.4,0.5,0.7,0.7,0.8
														c0.1,0.1,0.3,0.2,0.3,0.2c0.1,0,0.2,0,0.3-0.1c0.1-0.1,0.1-0.2,0.1-0.4c0-0.2,0-0.5-0.1-0.9l0.5-0.1
														c0.1,0.5,0.1,1,0,1.3c0,0.3-0.2,0.6-0.4,0.9c-0.2,0.2-0.4,0.3-0.7,0.3s-0.5-0.1-0.8-0.3c-0.2-0.2-0.5-0.5-0.8-1l-0.7-1
														c-0.2-0.3-0.4-0.6-0.6-0.7c-0.1-0.2-0.2-0.3-0.3-0.3c-0.2-0.2-0.4-0.3-0.6-0.3c-0.2,0-0.3,0.1-0.5,0.3
														c-0.1,0.1-0.2,0.3-0.2,0.6c0,0.3,0,0.6,0.1,0.9c0.1,0.4,0.2,0.7,0.3,1c0.1,0.3,0.3,0.6,0.6,0.9l1.8,2.3l-0.7,0.9
														L82.6,90c-0.3-0.3-0.5-0.6-0.7-0.7c-0.1-0.1-0.3-0.2-0.3-0.2c-0.1,0-0.2,0-0.3,0.1c-0.1,0.1-0.1,0.3-0.1,0.4
														c0,0.2,0,0.5,0.1,0.9l-0.5,0.1c-0.1-0.6-0.1-1,0-1.4C80.8,88.9,80.9,88.6,81.1,88.4L81.1,88.4z M78.3,91.7
														c0.3-0.4,0.7-0.6,1-0.7c0.3-0.1,0.7,0,1,0.3c0.6,0.5,0.8,1.1,0.6,1.9c-0.2,0.8-0.7,1.7-1.6,2.8
														c0.2,0.2,0.4,0.4,0.6,0.6c0.4,0.3,0.7,0.4,0.9,0.4c0.3,0,0.5-0.2,0.8-0.5c0.3-0.3,0.4-0.6,0.5-1c0.1-0.4,0.1-0.8,0-1.3
														l0.6,0c0.1,0.6,0.1,1.2,0,1.7c-0.1,0.5-0.3,1-0.7,1.4c-0.4,0.5-0.9,0.7-1.4,0.8c-0.5,0-1.1-0.2-1.6-0.6
														c-0.4-0.3-0.7-0.7-1-1.2c-0.3-0.5-0.5-1-0.6-1.5s-0.1-1.1,0-1.6C77.7,92.6,78,92.1,78.3,91.7L78.3,91.7z M63.9,108.9
														c0.2-0.2,0.4-0.3,0.6-0.3c0.2,0,0.5,0.1,0.7,0.3c0.2,0.2,0.4,0.4,0.5,0.6l0.1,0c-0.4-1.4-0.3-2.4,0.2-3
														c0.3-0.4,0.7-0.5,1.1-0.5s0.9,0.3,1.4,0.7c0.6,0.5,1,1,1.4,1.7c0.4,0.7,0.5,1.3,0.5,2c0,0.7-0.2,1.2-0.6,1.7
														c-0.4,0.4-0.8,0.7-1.2,0.9l0.9,1.2c0.2,0.3,0.4,0.4,0.5,0.6c0.1,0.1,0.3,0.2,0.4,0.2c0.1,0,0.3-0.1,0.5-0.3l0.2,0.2
														l-1.3,1.6l-4.3-5.7c-0.3-0.3-0.5-0.6-0.7-0.7c-0.1-0.1-0.3-0.2-0.3-0.2c-0.1,0-0.2,0-0.3,0.1c-0.1,0.1-0.1,0.3-0.1,0.4
														c0,0.2,0,0.5,0.1,0.9l-0.5,0.1c-0.1-0.6-0.1-1,0-1.3C63.6,109.5,63.7,109.2,63.9,108.9L63.9,108.9z M72.5,96.3l0.6-0.7
														l1,1.3l1.3-1.5l0.4,0.5l-1.3,1.5l1.6,2.1c0.3,0.4,0.5,0.7,0.7,0.9c0.1,0.2,0.3,0.3,0.4,0.4c0.4,0.4,0.8,0.4,1.1,0
														c0.1-0.1,0.2-0.4,0.2-0.6c0-0.3,0-0.6-0.1-1.1l0.5,0c0.1,0.6,0.1,1.1,0.1,1.5c-0.1,0.4-0.2,0.8-0.5,1.1
														c-0.6,0.7-1.2,0.8-2,0.2c-0.2-0.2-0.4-0.4-0.6-0.7l-2.1-2.8l-0.7,0.9l-0.3-0.4c0.2-0.2,0.3-0.4,0.3-0.5
														c0.1-0.1,0.1-0.2,0.1-0.4s0-0.2,0-0.4c0-0.1-0.1-0.3-0.2-0.4C72.9,96.9,72.8,96.7,72.5,96.3L72.5,96.3z M52.8,117.5
														l0.2-0.3l2.8,3.8l0.1,0c-0.2-0.7-0.2-1.2-0.2-1.7c0-0.4,0.2-0.8,0.4-1.1c0.3-0.3,0.6-0.5,0.9-0.5c0.3,0,0.6,0.1,1,0.4
														c0.2,0.2,0.5,0.5,0.8,0.9l1.1,1.4c0.3,0.4,0.5,0.7,0.7,0.8c0.1,0.1,0.3,0.2,0.3,0.2c0.1,0,0.2,0,0.3-0.1
														c0.1-0.1,0.1-0.2,0.1-0.4c0-0.2,0-0.5-0.1-0.9l0.5-0.1c0.1,0.6,0.1,1.1,0,1.4c0,0.3-0.2,0.6-0.4,0.9
														c-0.2,0.2-0.4,0.3-0.7,0.3c-0.3,0-0.5-0.1-0.8-0.3c-0.2-0.2-0.5-0.5-0.8-1l-0.7-1c-0.2-0.3-0.4-0.6-0.6-0.7
														c-0.1-0.2-0.2-0.3-0.3-0.3c-0.2-0.2-0.4-0.3-0.6-0.3c-0.2,0-0.3,0.1-0.5,0.3c-0.1,0.1-0.2,0.3-0.2,0.6
														c0,0.3,0,0.6,0.1,1c0.1,0.4,0.2,0.7,0.3,1c0.1,0.3,0.3,0.6,0.5,0.9l1.8,2.3l-0.7,0.9l-4.7-6.1
														c-0.3-0.4-0.5-0.6-0.6-0.7c-0.1-0.1-0.3-0.2-0.4-0.1c-0.1,0-0.3,0.2-0.5,0.4l-0.2-0.3L52.8,117.5L52.8,117.5z"/>
													<g class="st24">
														<defs>
															<polygon id="SVGID_25_" points="1.4,205.2 177.7,205.2 177.7,-2.9 1.4,-2.9 1.4,205.2 															"/>
														</defs>
														<clipPath id="SVGID_26_">
															<use xlink:href="#SVGID_25_"  style="overflow:visible;"/>
														</clipPath>
														<path class="st25" d="M29.9,23.7c-0.3,0-0.6,0.1-0.8,0.4c-0.3,0.3-0.5,0.7-0.6,1.2c0.4,0,0.7,0,1-0.1
															c0.3-0.1,0.5-0.2,0.7-0.3c0.2-0.2,0.2-0.4,0.2-0.6c0-0.2,0-0.3-0.1-0.4C30.2,23.8,30,23.7,29.9,23.7L29.9,23.7z
															 M16,23.7c-0.3,0-0.5,0.1-0.8,0.4c-0.2,0.2-0.4,0.5-0.5,0.9c-0.1,0.4-0.2,0.8-0.2,1.2c0,0.3,0,0.5,0.1,0.7
															c0.1,0.1,0.2,0.2,0.4,0.2c0.1,0,0.3,0,0.4-0.1c0.1-0.1,0.3-0.3,0.5-0.5c0.2-0.2,0.3-0.4,0.4-0.6
															c0.1-0.2,0.2-0.4,0.2-0.7c0.1-0.3,0.1-0.5,0.1-0.8c0-0.2,0-0.4-0.1-0.5S16.2,23.7,16,23.7L16,23.7z M11.7,23.4h0.3
															l-0.6,2.7c-0.1,0.3-0.1,0.5-0.1,0.6c0,0.1,0,0.2,0.1,0.2c0,0.1,0.1,0.1,0.2,0.1c0.1,0,0.2,0,0.3-0.1
															c0.1-0.1,0.2-0.2,0.4-0.4l0.2,0.2c-0.3,0.3-0.5,0.5-0.7,0.6c-0.2,0.1-0.4,0.2-0.6,0.2c-0.2,0-0.3-0.1-0.4-0.2
															c-0.1-0.1-0.2-0.3-0.2-0.5c0-0.2,0-0.5,0.1-0.8l0.3-1.4c0.1-0.3,0.1-0.5,0.1-0.6c0-0.1,0-0.2-0.1-0.3
															c-0.1,0-0.2-0.1-0.4-0.1l0-0.2L11.7,23.4L11.7,23.4z M30,23.4c0.3,0,0.6,0.1,0.8,0.2s0.3,0.4,0.3,0.7
															c0,0.5-0.2,0.8-0.7,1.1c-0.5,0.2-1.1,0.4-2,0.4c0,0.2-0.1,0.4-0.1,0.6c0,0.3,0.1,0.5,0.2,0.6c0.1,0.1,0.3,0.2,0.6,0.2
															c0.3,0,0.5-0.1,0.7-0.2c0.2-0.1,0.4-0.3,0.7-0.5l0.3,0.3c-0.3,0.3-0.6,0.5-0.8,0.7c-0.3,0.2-0.6,0.2-1,0.2
															c-0.4,0-0.7-0.1-1-0.4s-0.3-0.6-0.3-1c0-0.3,0.1-0.6,0.2-1c0.1-0.3,0.3-0.7,0.5-0.9c0.2-0.3,0.5-0.5,0.8-0.6
															C29.4,23.5,29.7,23.4,30,23.4L30,23.4z M24.4,23.4c0.2,0,0.3,0.1,0.4,0.2c0.1,0.1,0.2,0.3,0.2,0.5
															c0,0.1,0,0.3-0.1,0.4l0.1,0c0.3-0.4,0.5-0.7,0.8-0.8c0.3-0.2,0.5-0.3,0.8-0.3c0.2,0,0.4,0,0.5,0l-0.2,1h-0.4
															c0-0.1,0-0.2-0.1-0.3c0-0.1-0.1-0.1-0.1-0.1c0,0-0.1,0-0.2,0c-0.1,0-0.2,0-0.3,0.1c-0.1,0.1-0.3,0.2-0.4,0.4
															c-0.2,0.2-0.3,0.4-0.4,0.5s-0.2,0.4-0.2,0.7l-0.4,1.8h-0.7l0.6-2.7c0-0.2,0.1-0.3,0.1-0.4c0-0.1,0-0.2,0-0.2
															c0-0.1,0-0.2-0.1-0.2c0-0.1-0.1-0.1-0.2-0.1c-0.1,0-0.2,0-0.3,0.1c-0.1,0.1-0.2,0.2-0.4,0.4l-0.2-0.2
															c0.3-0.3,0.5-0.5,0.7-0.6C24,23.5,24.2,23.4,24.4,23.4L24.4,23.4z M19.4,23.4c0.2,0,0.3,0.1,0.4,0.2
															c0.1,0.1,0.2,0.3,0.2,0.5c0,0.2,0,0.5-0.1,0.8l-0.2,0.7c0,0.2-0.1,0.3-0.1,0.4c0,0.1,0,0.2,0,0.3c0,0.1,0,0.1,0,0.2
															c0,0.2,0,0.3,0.1,0.4c0.1,0.1,0.2,0.1,0.3,0.1c0.1,0,0.2,0,0.4-0.1c0.1-0.1,0.3-0.2,0.4-0.4c0.2-0.2,0.3-0.4,0.4-0.6
															s0.2-0.4,0.2-0.7l0.4-1.8h0.7l-0.6,2.7c-0.1,0.3-0.1,0.5-0.1,0.6c0,0.1,0,0.2,0.1,0.2c0,0.1,0.1,0.1,0.2,0.1
															c0.1,0,0.2,0,0.3-0.1c0.1-0.1,0.2-0.2,0.4-0.4l0.2,0.2c-0.3,0.3-0.5,0.5-0.7,0.6c-0.2,0.1-0.4,0.2-0.6,0.2
															c-0.2,0-0.3-0.1-0.4-0.2s-0.2-0.3-0.2-0.5c0-0.2,0-0.3,0.1-0.5l-0.1,0c-0.3,0.4-0.5,0.7-0.8,0.9
															c-0.3,0.2-0.5,0.3-0.8,0.3s-0.5-0.1-0.6-0.2c-0.1-0.2-0.2-0.4-0.2-0.6c0-0.2,0-0.4,0.1-0.8l0.3-1.1
															c0.1-0.3,0.1-0.5,0.1-0.7c0-0.1,0-0.2-0.1-0.2c0-0.1-0.1-0.1-0.2-0.1c-0.1,0-0.2,0-0.3,0.1c-0.1,0.1-0.2,0.2-0.4,0.4
															l-0.2-0.2c0.2-0.2,0.4-0.4,0.5-0.5c0.1-0.1,0.2-0.2,0.4-0.2C19.2,23.4,19.3,23.4,19.4,23.4L19.4,23.4z M15.9,23.4
															c0.2,0,0.3,0,0.5,0.1c0.2,0,0.3,0.1,0.5,0.2l0.4-0.3l0.3,0.1l-0.4,2c0,0.1-0.1,0.5-0.2,1c-0.1,0.6-0.2,1-0.3,1.3
															c-0.1,0.2-0.2,0.5-0.3,0.7c-0.1,0.2-0.2,0.4-0.4,0.5c-0.2,0.2-0.4,0.3-0.6,0.3c-0.2,0.1-0.5,0.1-0.9,0.1
															c-1.1,0-1.6-0.3-1.6-0.9c0-0.2,0-0.3,0.1-0.4c0.1-0.1,0.3-0.3,0.5-0.4l0.3,0.2c-0.1,0.1-0.1,0.1-0.1,0.2
															c0,0.1-0.1,0.1-0.1,0.2c0,0.1,0,0.1,0,0.2c0,0.2,0.1,0.4,0.2,0.5c0.2,0.1,0.4,0.1,0.7,0.1c0.3,0,0.6-0.1,0.8-0.2
															c0.2-0.2,0.4-0.4,0.5-0.8c0.2-0.3,0.3-0.9,0.4-1.6l-0.1,0c-0.3,0.4-0.5,0.7-0.8,0.8c-0.2,0.2-0.5,0.3-0.8,0.3
															c-0.3,0-0.5-0.1-0.7-0.3s-0.3-0.6-0.3-1c0-0.5,0.1-0.9,0.3-1.4c0.2-0.4,0.5-0.8,0.8-1.1
															C15.1,23.5,15.5,23.4,15.9,23.4L15.9,23.4z M11.6,21.8h0.8l-0.2,0.8h-0.8L11.6,21.8L11.6,21.8z M9.2,21.4
															c0.3,0,0.5,0,0.7,0.1l-0.2,0.7H9.4c0-0.2-0.1-0.3-0.2-0.3S9,21.8,8.9,21.8c-0.2,0-0.3,0-0.4,0.1
															c-0.1,0.1-0.2,0.2-0.3,0.4C8.1,22.5,8.1,22.7,8,23l-0.1,0.5H9l-0.1,0.4H7.8L7,27.6c-0.1,0.6-0.3,1.1-0.6,1.4
															c-0.3,0.3-0.6,0.5-1,0.5c-0.1,0-0.2,0-0.3,0L5.2,29c0,0,0.1,0,0.2,0c0.1,0,0.2,0,0.3-0.1s0.2-0.2,0.3-0.3
															C6,28.5,6.1,28.2,6.2,28l0.9-4H6.4l0.1-0.3c0.2,0,0.3,0,0.4,0c0.1,0,0.1,0,0.2-0.1c0,0,0.1-0.1,0.1-0.2
															c0-0.1,0.1-0.2,0.1-0.4c0.2-0.5,0.4-0.9,0.7-1.1S8.7,21.4,9.2,21.4L9.2,21.4z"/>
														<g class="st26">
															<defs>
																<polygon id="SVGID_27_" points="1.4,205.2 177.7,205.2 177.7,-2.9 1.4,-2.9 1.4,205.2 																"/>
															</defs>
															<clipPath id="SVGID_28_">
																<use xlink:href="#SVGID_27_"  style="overflow:visible;"/>
															</clipPath>
															<path class="st27" d="M36.9,21.4l0.1,0.3c-0.7,0.2-1.2,0.6-1.5,1.3c-0.3,0.6-0.5,1.4-0.5,2.4c0,1,0.2,1.8,0.5,2.5
																c0.3,0.6,0.8,1.1,1.5,1.3l-0.1,0.3c-0.8-0.2-1.5-0.7-1.9-1.4c-0.4-0.7-0.7-1.6-0.7-2.6c0-1,0.2-1.9,0.7-2.6
																S36.1,21.6,36.9,21.4L36.9,21.4z"/>
															<g class="st28">
																<defs>
																	<polygon id="SVGID_29_" points="1.4,205.2 177.7,205.2 177.7,-2.9 1.4,-2.9 1.4,205.2 																	"/>
																</defs>
																<clipPath id="SVGID_30_">
																	<use xlink:href="#SVGID_29_"  style="overflow:visible;"/>
																</clipPath>
																<path class="st29" d="M44.5,22c-0.2,0-0.4,0.1-0.5,0.2c-0.1,0.1-0.2,0.3-0.3,0.5c-0.1,0.2-0.1,0.5-0.2,0.8
																	c0,0.3-0.1,0.7-0.1,1.1c0,0.9,0.1,1.6,0.3,2c0.2,0.4,0.4,0.6,0.8,0.6c0.3,0,0.6-0.2,0.8-0.6c0.2-0.4,0.2-1,0.2-1.9
																	c0-0.7,0-1.2-0.1-1.6s-0.2-0.7-0.4-0.9C44.9,22.1,44.7,22,44.5,22L44.5,22z M44.5,21.7c0.6,0,1.1,0.2,1.4,0.7
																	s0.5,1.2,0.5,2.2c0,1-0.2,1.8-0.5,2.3c-0.3,0.5-0.8,0.8-1.4,0.8c-0.6,0-1.1-0.2-1.4-0.7c-0.3-0.5-0.4-1.2-0.4-2.2
																	c0-0.5,0-1,0.1-1.4s0.2-0.7,0.4-0.9c0.2-0.2,0.4-0.4,0.6-0.6C44,21.7,44.2,21.7,44.5,21.7L44.5,21.7z M40,21.7h0.2
																	c0,0.3,0,0.6,0,1.1v3.6c0,0.2,0,0.3,0,0.4s0.1,0.2,0.1,0.2c0,0.1,0.1,0.1,0.2,0.1c0.1,0,0.2,0.1,0.3,0.1
																	c0.1,0,0.3,0,0.5,0v0.3h-3.1v-0.3c0.3,0,0.5,0,0.7-0.1c0.1,0,0.2-0.1,0.3-0.1c0.1,0,0.1-0.1,0.2-0.2
																	c0-0.1,0-0.2,0-0.4V23c0-0.1,0-0.2-0.1-0.2s-0.1-0.1-0.2-0.1c-0.1,0-0.2,0-0.4,0.1s-0.4,0.2-0.6,0.4L38,22.9
																	L40,21.7L40,21.7z"/>
																<g class="st30">
																	<defs>
																		<polygon id="SVGID_31_" points="1.4,205.2 177.7,205.2 177.7,-2.9 1.4,-2.9 1.4,205.2 																		"/>
																	</defs>
																	<clipPath id="SVGID_32_">
																		<use xlink:href="#SVGID_31_"  style="overflow:visible;"/>
																	</clipPath>
																	<path class="st31" d="M47.2,21.4c0.8,0.2,1.5,0.7,1.9,1.4c0.4,0.7,0.7,1.6,0.7,2.6c0,1-0.2,1.9-0.7,2.6
																		c-0.4,0.7-1.1,1.2-1.9,1.4L47,29.1c0.7-0.2,1.1-0.6,1.5-1.3c0.3-0.6,0.5-1.5,0.5-2.5c0-1-0.2-1.8-0.5-2.4
																		c-0.3-0.6-0.8-1.1-1.5-1.3L47.2,21.4z"/>
																</g>
															</g>
														</g>
													</g>
												</g>
											</g>
										</g>
									</g>
								</g>
							</g>
						</g>
					</g>
				</g>
			</g>
		</g>
	</g>
</g>
<g>
	<path class="st32" d="M176.2,100.1c-0.2,0-0.3,0.1-0.5,0.2c-0.2,0.1-0.4,0.3-0.6,0.6s-0.4,0.5-0.5,0.8s-0.2,0.5-0.3,0.9l0,0.2
		c0,0.2-0.1,0.3-0.1,0.4c0,0.1,0,0.2,0,0.3c0,0.3,0.1,0.5,0.2,0.6c0.1,0.1,0.3,0.2,0.6,0.2c0.2,0,0.3,0,0.5-0.1
		c0.1-0.1,0.3-0.2,0.4-0.3c0.1-0.1,0.3-0.3,0.4-0.5c0.1-0.2,0.2-0.4,0.3-0.6c0.1-0.2,0.1-0.5,0.2-0.8c0-0.3,0.1-0.5,0.1-0.7
		c0-0.4-0.1-0.6-0.2-0.8S176.5,100.1,176.2,100.1L176.2,100.1z M170.4,100.1c-0.2,0-0.3,0.1-0.5,0.2c-0.2,0.1-0.4,0.3-0.6,0.6
		s-0.4,0.5-0.5,0.8c-0.1,0.3-0.2,0.5-0.3,0.9l0,0.2c0,0.2-0.1,0.3-0.1,0.4c0,0.1,0,0.2,0,0.3c0,0.3,0.1,0.5,0.2,0.6
		c0.1,0.1,0.3,0.2,0.6,0.2c0.2,0,0.3,0,0.5-0.1c0.1-0.1,0.3-0.2,0.4-0.3c0.1-0.1,0.3-0.3,0.4-0.5c0.1-0.2,0.2-0.4,0.3-0.6
		c0.1-0.2,0.1-0.5,0.2-0.8c0-0.3,0.1-0.5,0.1-0.7c0-0.4-0.1-0.6-0.2-0.8S170.6,100.1,170.4,100.1L170.4,100.1z M181.6,99.9
		c-0.4,0-0.7,0.1-0.9,0.4c-0.3,0.3-0.5,0.7-0.6,1.3c-0.2,0.6-0.2,1-0.2,1.4c0,0.4,0.1,0.7,0.2,0.8c0.2,0.2,0.4,0.3,0.7,0.3
		c0.3,0,0.6-0.2,0.9-0.5c0.3-0.3,0.5-0.7,0.6-1.3c0.2-0.5,0.2-1,0.2-1.4c0-0.4-0.1-0.6-0.2-0.8C182.1,100,181.9,99.9,181.6,99.9
		L181.6,99.9z M164.3,99.9c-0.4,0-0.7,0.1-0.9,0.4c-0.3,0.3-0.5,0.7-0.6,1.3c-0.2,0.6-0.2,1-0.2,1.4c0,0.4,0.1,0.7,0.2,0.8
		c0.2,0.2,0.4,0.3,0.7,0.3c0.3,0,0.6-0.2,0.9-0.5c0.3-0.3,0.5-0.7,0.6-1.3c0.2-0.5,0.2-1,0.2-1.4c0-0.4-0.1-0.6-0.2-0.8
		C164.8,100,164.6,99.9,164.3,99.9L164.3,99.9z M199.6,99.9c-0.3,0-0.7,0.2-1,0.5c-0.3,0.3-0.6,0.8-0.7,1.4c0.5,0,0.9,0,1.2-0.1
		c0.3-0.1,0.6-0.2,0.8-0.4c0.2-0.2,0.3-0.4,0.3-0.7c0-0.2,0-0.4-0.1-0.5S199.8,99.9,199.6,99.9L199.6,99.9z M190.9,99.6h0.3
		l-0.7,3.3c-0.1,0.3-0.1,0.6-0.1,0.8c0,0.1,0,0.2,0.1,0.3c0,0.1,0.1,0.1,0.2,0.1c0.1,0,0.2,0,0.3-0.1c0.1-0.1,0.3-0.2,0.5-0.5
		l0.3,0.3c-0.3,0.4-0.6,0.6-0.8,0.7c-0.2,0.1-0.4,0.2-0.7,0.2c-0.2,0-0.4-0.1-0.5-0.2c-0.1-0.2-0.2-0.4-0.2-0.6c0-0.3,0-0.6,0.1-1
		l0.4-1.7c0.1-0.3,0.1-0.6,0.1-0.8c0-0.2,0-0.3-0.1-0.3c-0.1-0.1-0.2-0.1-0.4-0.1l0.1-0.3L190.9,99.6L190.9,99.6z M186.8,99.5
		c0.3,0,0.6,0,0.9,0.1c0.3,0,0.5,0.1,0.8,0.2l-0.2,1.1h-0.4c0-0.3-0.1-0.5-0.3-0.7c-0.2-0.2-0.4-0.2-0.8-0.2c-0.3,0-0.5,0.1-0.7,0.2
		c-0.2,0.1-0.3,0.3-0.3,0.5c0,0.1,0,0.2,0.1,0.3c0,0.1,0.1,0.2,0.3,0.3c0.1,0.1,0.3,0.3,0.6,0.4c0.2,0.1,0.4,0.2,0.5,0.4
		c0.1,0.1,0.2,0.2,0.3,0.3c0.1,0.1,0.1,0.2,0.2,0.3c0,0.1,0.1,0.3,0.1,0.4c0,0.3-0.1,0.6-0.2,0.8c-0.2,0.2-0.4,0.4-0.7,0.5
		c-0.3,0.1-0.6,0.2-1,0.2c-0.3,0-0.6,0-0.8-0.1c-0.3,0-0.6-0.1-0.9-0.2l0.2-1.1h0.4c0,0.3,0.1,0.6,0.3,0.7c0.2,0.2,0.4,0.3,0.8,0.3
		c0.3,0,0.6-0.1,0.8-0.2c0.2-0.1,0.3-0.4,0.3-0.6c0-0.2,0-0.3-0.1-0.4c-0.1-0.1-0.1-0.2-0.3-0.3c-0.1-0.1-0.3-0.2-0.6-0.4
		c-0.3-0.2-0.5-0.3-0.6-0.4c-0.1-0.1-0.3-0.3-0.3-0.4c-0.1-0.2-0.1-0.3-0.1-0.5c0-0.3,0.1-0.5,0.2-0.7c0.1-0.2,0.4-0.4,0.6-0.5
		C186.1,99.6,186.4,99.5,186.8,99.5L186.8,99.5z M181.7,99.5c0.5,0,1,0.1,1.3,0.4c0.3,0.3,0.4,0.7,0.4,1.3c0,0.4-0.1,0.8-0.2,1.3
		c-0.1,0.5-0.3,0.8-0.6,1.1c-0.2,0.3-0.5,0.5-0.9,0.7s-0.7,0.2-1.2,0.2c-0.5,0-0.9-0.1-1.2-0.4c-0.3-0.3-0.4-0.7-0.4-1.3
		c0-0.3,0-0.6,0.1-0.9c0.1-0.5,0.3-0.9,0.5-1.3c0.2-0.4,0.6-0.6,0.9-0.8C180.8,99.6,181.2,99.5,181.7,99.5L181.7,99.5z M164.4,99.5
		c0.5,0,1,0.1,1.3,0.4c0.3,0.3,0.4,0.7,0.4,1.3c0,0.4-0.1,0.8-0.2,1.3c-0.1,0.5-0.3,0.8-0.6,1.1c-0.2,0.3-0.5,0.5-0.9,0.7
		c-0.3,0.2-0.7,0.2-1.2,0.2c-0.5,0-0.9-0.1-1.2-0.4c-0.3-0.3-0.4-0.7-0.4-1.3c0-0.3,0-0.6,0.1-0.9c0.1-0.5,0.3-0.9,0.5-1.3
		c0.2-0.4,0.6-0.6,0.9-0.8C163.5,99.6,163.9,99.5,164.4,99.5L164.4,99.5z M199.8,99.5c0.4,0,0.7,0.1,0.9,0.3
		c0.2,0.2,0.3,0.4,0.3,0.8c0,0.6-0.3,1-0.8,1.3c-0.5,0.3-1.4,0.4-2.4,0.4c0,0.2-0.1,0.4-0.1,0.7c0,0.4,0.1,0.6,0.2,0.8
		c0.1,0.2,0.4,0.2,0.7,0.2c0.3,0,0.6-0.1,0.9-0.2c0.3-0.1,0.5-0.3,0.8-0.6l0.3,0.3c-0.3,0.4-0.7,0.6-1,0.8c-0.3,0.2-0.7,0.3-1.2,0.3
		c-0.5,0-0.9-0.2-1.2-0.5s-0.4-0.7-0.4-1.3c0-0.4,0.1-0.8,0.2-1.2c0.1-0.4,0.3-0.8,0.6-1.1c0.3-0.3,0.6-0.6,1-0.8
		C198.9,99.6,199.3,99.5,199.8,99.5L199.8,99.5z M174.1,99.5c0.2,0,0.4,0.1,0.5,0.2c0.1,0.1,0.2,0.3,0.2,0.6c0,0.2,0,0.4-0.1,0.6
		l0.1,0c0.6-0.9,1.3-1.4,1.9-1.4c0.4,0,0.7,0.1,0.9,0.4c0.2,0.3,0.3,0.7,0.3,1.2c0,0.6-0.1,1.1-0.3,1.7c-0.2,0.5-0.5,1-0.9,1.3
		s-0.9,0.5-1.4,0.5c-0.5,0-0.8-0.1-1.1-0.3l-0.2,1.1c-0.1,0.2-0.1,0.4-0.1,0.6c0,0.2,0,0.3,0.1,0.3c0.1,0.1,0.2,0.1,0.4,0.1l0,0.3
		h-1.6l1.2-5.4c0.1-0.3,0.1-0.6,0.1-0.8c0-0.1,0-0.2-0.1-0.3s-0.1-0.1-0.2-0.1c-0.1,0-0.2,0-0.3,0.1c-0.1,0.1-0.3,0.2-0.5,0.5
		l-0.3-0.3c0.3-0.3,0.6-0.6,0.8-0.7C173.6,99.6,173.8,99.5,174.1,99.5L174.1,99.5z M168.2,99.5c0.2,0,0.4,0.1,0.5,0.2
		c0.1,0.1,0.2,0.3,0.2,0.6c0,0.2,0,0.4-0.1,0.6l0.1,0c0.6-0.9,1.3-1.4,1.9-1.4c0.4,0,0.7,0.1,0.9,0.4c0.2,0.3,0.3,0.7,0.3,1.2
		c0,0.6-0.1,1.1-0.3,1.7c-0.2,0.5-0.5,1-0.9,1.3s-0.9,0.5-1.4,0.5c-0.5,0-0.8-0.1-1.1-0.3l-0.2,1.1c-0.1,0.2-0.1,0.4-0.1,0.6
		c0,0.2,0,0.3,0.1,0.3c0.1,0.1,0.2,0.1,0.4,0.1l0,0.3h-1.6l1.2-5.4c0.1-0.3,0.1-0.6,0.1-0.8c0-0.1,0-0.2-0.1-0.3s-0.1-0.1-0.2-0.1
		c-0.1,0-0.2,0-0.3,0.1c-0.1,0.1-0.3,0.2-0.5,0.5l-0.3-0.3c0.3-0.3,0.6-0.6,0.8-0.7C167.7,99.6,168,99.5,168.2,99.5L168.2,99.5z
		 M194.1,98.3h0.7l-0.3,1.3h1.6l-0.1,0.5h-1.6l-0.5,2c-0.1,0.4-0.1,0.7-0.2,0.8c0,0.2,0,0.3,0,0.4c0,0.4,0.2,0.6,0.5,0.6
		c0.2,0,0.3-0.1,0.5-0.2c0.2-0.1,0.4-0.3,0.6-0.6l0.3,0.3c-0.3,0.4-0.6,0.6-0.9,0.8c-0.3,0.2-0.6,0.3-0.9,0.3
		c-0.7,0-1.1-0.4-1.1-1.1c0-0.2,0-0.5,0.1-0.7l0.6-2.7h-0.9l0.1-0.4c0.2,0,0.4,0,0.5,0c0.1,0,0.2-0.1,0.3-0.1c0.1,0,0.1-0.1,0.2-0.2
		c0.1-0.1,0.1-0.2,0.2-0.3C193.9,98.9,194,98.7,194.1,98.3L194.1,98.3z M190.8,97.6h0.9l-0.2,1h-0.9L190.8,97.6L190.8,97.6z"/>
	<path class="st32" d="M187.3,110.7c-0.2,0-0.5,0.1-0.7,0.4c-0.2,0.3-0.4,0.6-0.5,1c0.3,0,0.6,0,0.9-0.1c0.2-0.1,0.4-0.2,0.6-0.3
		c0.1-0.1,0.2-0.3,0.2-0.5c0-0.1,0-0.3-0.1-0.4C187.5,110.7,187.4,110.7,187.3,110.7L187.3,110.7z M182.9,110.7
		c-0.3,0-0.5,0.1-0.7,0.3c-0.2,0.2-0.4,0.5-0.5,0.8s-0.2,0.7-0.2,1c0,0.3,0,0.4,0.1,0.6s0.2,0.2,0.4,0.2c0.1,0,0.2,0,0.2,0
		c0.1,0,0.2-0.1,0.2-0.2s0.2-0.2,0.3-0.3c0.1-0.1,0.2-0.2,0.2-0.3c0.1-0.1,0.1-0.2,0.2-0.4c0.1-0.1,0.1-0.3,0.2-0.5l0-0.2
		c0-0.2,0.1-0.3,0.1-0.5c0-0.2,0-0.3-0.1-0.4C183.2,110.7,183.1,110.7,182.9,110.7L182.9,110.7z M179.7,110.4h0.2l-0.5,2.4
		c-0.1,0.2-0.1,0.4-0.1,0.5c0,0.1,0,0.2,0,0.2c0,0,0.1,0.1,0.2,0.1c0.1,0,0.2,0,0.2-0.1c0.1-0.1,0.2-0.2,0.4-0.3l0.2,0.2
		c-0.2,0.3-0.4,0.4-0.6,0.5c-0.1,0.1-0.3,0.1-0.5,0.1c-0.2,0-0.3-0.1-0.4-0.2c-0.1-0.1-0.1-0.3-0.1-0.4c0-0.2,0-0.4,0.1-0.7l0.3-1.2
		c0.1-0.2,0.1-0.4,0.1-0.6c0-0.1,0-0.2-0.1-0.2c-0.1,0-0.2-0.1-0.3-0.1l0-0.2L179.7,110.4L179.7,110.4z M176.7,110.4
		c0.2,0,0.4,0,0.6,0c0.2,0,0.4,0.1,0.6,0.1l-0.2,0.8h-0.3c0-0.2-0.1-0.4-0.2-0.5s-0.3-0.2-0.5-0.2c-0.2,0-0.4,0-0.5,0.1
		s-0.2,0.2-0.2,0.4c0,0.1,0,0.2,0,0.2c0,0.1,0.1,0.1,0.2,0.2c0.1,0.1,0.2,0.2,0.4,0.3c0.2,0.1,0.3,0.2,0.4,0.3
		c0.1,0.1,0.2,0.2,0.2,0.2c0.1,0.1,0.1,0.2,0.1,0.2c0,0.1,0,0.2,0,0.3c0,0.2-0.1,0.4-0.2,0.6c-0.1,0.2-0.3,0.3-0.5,0.3
		c-0.2,0.1-0.4,0.1-0.7,0.1c-0.2,0-0.4,0-0.6,0s-0.4-0.1-0.7-0.2l0.2-0.8h0.3c0,0.2,0.1,0.4,0.2,0.5c0.1,0.1,0.3,0.2,0.6,0.2
		c0.2,0,0.4-0.1,0.5-0.2c0.1-0.1,0.2-0.3,0.2-0.4c0-0.1,0-0.2-0.1-0.3c0-0.1-0.1-0.2-0.2-0.2c-0.1-0.1-0.2-0.2-0.4-0.3
		c-0.2-0.1-0.3-0.2-0.4-0.3c-0.1-0.1-0.2-0.2-0.2-0.3s-0.1-0.2-0.1-0.4c0-0.2,0.1-0.4,0.2-0.5c0.1-0.1,0.3-0.3,0.4-0.3
		C176.2,110.4,176.5,110.4,176.7,110.4L176.7,110.4z M187.4,110.4c0.3,0,0.5,0.1,0.7,0.2c0.1,0.1,0.2,0.3,0.2,0.6
		c0,0.4-0.2,0.7-0.6,0.9c-0.4,0.2-1,0.3-1.7,0.3c0,0.1,0,0.3,0,0.5c0,0.3,0.1,0.4,0.2,0.6c0.1,0.1,0.3,0.2,0.5,0.2
		c0.2,0,0.4,0,0.6-0.1c0.2-0.1,0.4-0.2,0.6-0.5l0.2,0.2c-0.2,0.3-0.5,0.5-0.7,0.6c-0.2,0.1-0.5,0.2-0.9,0.2c-0.4,0-0.6-0.1-0.8-0.3
		c-0.2-0.2-0.3-0.5-0.3-0.9c0-0.3,0-0.5,0.1-0.8s0.2-0.6,0.4-0.8c0.2-0.2,0.4-0.4,0.7-0.6C186.8,110.5,187.1,110.4,187.4,110.4
		L187.4,110.4z M179.6,109h0.7l-0.2,0.7h-0.7L179.6,109L179.6,109z M184.4,108.7h0.2l-0.9,4.1c-0.1,0.2-0.1,0.4-0.1,0.5
		c0,0.1,0,0.2,0,0.2c0,0,0.1,0.1,0.2,0.1c0.1,0,0.2,0,0.2-0.1c0.1-0.1,0.2-0.2,0.4-0.3l0.2,0.2c-0.2,0.2-0.4,0.4-0.6,0.5
		c-0.2,0.1-0.3,0.1-0.5,0.1c-0.2,0-0.3-0.1-0.4-0.2s-0.1-0.2-0.1-0.4c0-0.1,0-0.3,0.1-0.4l0,0c-0.2,0.3-0.5,0.6-0.7,0.8
		s-0.4,0.2-0.7,0.2c-0.3,0-0.5-0.1-0.6-0.3c-0.1-0.2-0.2-0.5-0.2-0.9c0-0.4,0.1-0.8,0.2-1.2c0.2-0.4,0.4-0.7,0.7-0.9
		c0.3-0.2,0.6-0.3,1-0.3c0.1,0,0.3,0,0.4,0c0.1,0,0.3,0.1,0.4,0.2l0.2-0.8c0-0.1,0-0.2,0.1-0.3c0-0.1,0-0.2,0-0.3s0-0.1,0-0.2
		c0,0-0.1-0.1-0.1-0.1c-0.1,0-0.1,0-0.3,0l0-0.2L184.4,108.7L184.4,108.7z"/>
</g>
<g>
	<path class="st33" d="M98.5,193.3c-0.3,0-0.6,0.1-0.8,0.4c-0.3,0.3-0.5,0.7-0.6,1.2c0.4,0,0.8,0,1-0.1c0.3-0.1,0.5-0.2,0.7-0.3
		c0.2-0.2,0.2-0.4,0.2-0.6c0-0.2,0-0.3-0.1-0.4C98.8,193.4,98.7,193.3,98.5,193.3L98.5,193.3z M89.6,193.3c-0.3,0-0.6,0.1-0.8,0.4
		c-0.2,0.2-0.4,0.6-0.6,1c-0.1,0.4-0.2,0.8-0.2,1.2c0,0.3,0,0.5,0.1,0.7s0.2,0.2,0.4,0.2c0.2,0,0.4-0.1,0.6-0.2
		c0.2-0.2,0.4-0.4,0.6-0.7c0.2-0.3,0.3-0.7,0.4-1l0-0.2c0-0.1,0-0.2,0.1-0.3c0-0.1,0-0.2,0-0.3c0-0.2,0-0.4-0.1-0.5
		C89.9,193.4,89.8,193.3,89.6,193.3L89.6,193.3z M81.3,193.3c-0.3,0-0.6,0.1-0.8,0.4c-0.2,0.2-0.4,0.6-0.5,1
		c-0.1,0.4-0.2,0.8-0.2,1.2c0,0.3,0,0.5,0.1,0.7s0.2,0.2,0.4,0.2c0.1,0,0.2,0,0.3-0.1c0.1,0,0.2-0.1,0.3-0.2
		c0.1-0.1,0.2-0.2,0.3-0.3c0.1-0.1,0.2-0.2,0.3-0.4c0.1-0.1,0.2-0.3,0.2-0.4c0.1-0.2,0.1-0.4,0.2-0.6l0-0.2c0-0.2,0.1-0.4,0.1-0.6
		c0-0.2,0-0.4-0.1-0.5C81.6,193.4,81.5,193.3,81.3,193.3L81.3,193.3z M85.8,193h0.2l-0.9,4.2c-0.1,0.4-0.2,0.8-0.4,1.1
		c-0.2,0.3-0.4,0.5-0.6,0.6c-0.3,0.1-0.6,0.2-0.9,0.2c-0.1,0-0.3,0-0.4,0l0.1-0.4c0.1,0,0.2,0,0.3,0c0.1,0,0.3,0,0.4-0.1
		c0.1,0,0.2-0.1,0.3-0.2c0.1-0.1,0.2-0.2,0.2-0.4c0.1-0.2,0.1-0.4,0.2-0.7l0.7-3.1c0.1-0.3,0.1-0.5,0.1-0.6c0-0.1,0-0.2-0.1-0.3
		c-0.1,0-0.2-0.1-0.4-0.1l0-0.2L85.8,193L85.8,193z M94.6,193c0.4,0,0.7,0,1.1,0.1l-0.2,1H95c0-0.2,0-0.4-0.1-0.5s-0.1-0.2-0.1-0.2
		c-0.1,0-0.2-0.1-0.3-0.1c-0.3,0-0.6,0.1-0.8,0.3c-0.2,0.2-0.4,0.6-0.6,1c-0.1,0.4-0.2,0.8-0.2,1.2c0,0.3,0.1,0.5,0.2,0.7
		c0.1,0.1,0.3,0.2,0.5,0.2c0.3,0,0.5,0,0.7-0.1c0.2-0.1,0.4-0.3,0.6-0.5l0.3,0.3c-0.3,0.3-0.5,0.5-0.8,0.7s-0.6,0.2-0.9,0.2
		c-0.4,0-0.7-0.1-0.9-0.4s-0.3-0.6-0.3-1.1c0-0.3,0.1-0.6,0.2-1c0.1-0.4,0.3-0.7,0.5-1c0.2-0.3,0.5-0.5,0.8-0.6
		C93.9,193.1,94.2,193,94.6,193L94.6,193z M101.5,193c0.2,0,0.3,0.1,0.4,0.2c0.1,0.1,0.2,0.3,0.2,0.5c0,0.2,0,0.3-0.1,0.5l0.1,0
		c0.3-0.4,0.5-0.7,0.8-0.9c0.3-0.2,0.5-0.3,0.8-0.3c0.3,0,0.5,0.1,0.6,0.2c0.1,0.2,0.2,0.4,0.2,0.6c0,0.2,0,0.4-0.1,0.8l-0.3,1.1
		c-0.1,0.3-0.1,0.5-0.1,0.7c0,0.1,0,0.2,0.1,0.2s0.1,0.1,0.2,0.1c0.1,0,0.2,0,0.3-0.1c0.1-0.1,0.2-0.2,0.4-0.4l0.2,0.2
		c-0.2,0.3-0.5,0.5-0.6,0.6c-0.2,0.1-0.4,0.2-0.6,0.2c-0.2,0-0.3-0.1-0.4-0.2c-0.1-0.1-0.2-0.3-0.2-0.5c0-0.2,0-0.5,0.1-0.8l0.2-0.7
		c0.1-0.3,0.1-0.5,0.1-0.6c0-0.1,0-0.2,0-0.3c0-0.2,0-0.3-0.1-0.4c-0.1-0.1-0.2-0.1-0.3-0.1c-0.1,0-0.3,0-0.4,0.1
		c-0.1,0.1-0.3,0.2-0.4,0.4c-0.2,0.2-0.3,0.4-0.4,0.6s-0.2,0.4-0.2,0.7l-0.4,1.9h-0.7l0.6-2.7c0.1-0.3,0.1-0.5,0.1-0.6
		c0-0.1,0-0.2-0.1-0.2c0-0.1-0.1-0.1-0.2-0.1c-0.1,0-0.2,0-0.3,0.1c-0.1,0.1-0.2,0.2-0.4,0.4l-0.2-0.2c0.3-0.3,0.5-0.5,0.7-0.6
		C101.1,193,101.3,193,101.5,193L101.5,193z M98.7,193c0.3,0,0.6,0.1,0.8,0.2c0.2,0.1,0.3,0.4,0.3,0.7c0,0.5-0.2,0.9-0.7,1.1
		c-0.5,0.2-1.1,0.4-2,0.4c0,0.2-0.1,0.4-0.1,0.6c0,0.3,0.1,0.5,0.2,0.7c0.1,0.1,0.3,0.2,0.6,0.2c0.3,0,0.5-0.1,0.7-0.2
		s0.4-0.3,0.7-0.5l0.3,0.3c-0.3,0.3-0.6,0.5-0.8,0.7c-0.3,0.2-0.6,0.2-1,0.2c-0.4,0-0.7-0.1-1-0.4c-0.2-0.3-0.3-0.6-0.3-1.1
		c0-0.3,0.1-0.6,0.2-1c0.1-0.4,0.3-0.7,0.5-0.9c0.2-0.3,0.5-0.5,0.8-0.7C98,193.1,98.3,193,98.7,193L98.7,193z M89.5,193
		c0.2,0,0.4,0,0.5,0.1c0.2,0,0.3,0.1,0.5,0.2l0.4-0.3l0.3,0.1l-0.6,2.7c-0.1,0.3-0.1,0.5-0.1,0.6c0,0.1,0,0.2,0.1,0.2
		s0.1,0.1,0.2,0.1c0.1,0,0.2,0,0.3-0.1c0.1-0.1,0.2-0.2,0.4-0.4l0.2,0.2c-0.3,0.3-0.5,0.5-0.7,0.6c-0.2,0.1-0.4,0.2-0.6,0.2
		c-0.2,0-0.3-0.1-0.4-0.2c-0.1-0.1-0.2-0.3-0.2-0.5c0-0.2,0-0.3,0.1-0.5l-0.1,0c-0.3,0.4-0.5,0.7-0.8,0.9c-0.2,0.2-0.5,0.3-0.8,0.3
		c-0.3,0-0.6-0.1-0.7-0.4c-0.2-0.2-0.3-0.6-0.3-1c0-0.5,0.1-1,0.3-1.4c0.2-0.5,0.5-0.8,0.8-1.1C88.7,193.1,89.1,193,89.5,193
		L89.5,193z M76.5,192.1l-1.5,2.7h1.7l-0.1-1.4c0-0.2,0-0.4,0-0.7C76.6,192.5,76.6,192.3,76.5,192.1L76.5,192.1z M106.9,192h0.6
		l-0.2,1.1h1.3l-0.1,0.4h-1.3l-0.4,1.7c-0.1,0.3-0.1,0.6-0.1,0.7c0,0.1,0,0.3,0,0.3c0,0.4,0.1,0.5,0.4,0.5c0.1,0,0.3,0,0.4-0.1
		c0.1-0.1,0.3-0.3,0.5-0.5l0.2,0.3c-0.2,0.3-0.5,0.5-0.7,0.7c-0.2,0.1-0.5,0.2-0.7,0.2c-0.6,0-0.9-0.3-0.9-0.9c0-0.2,0-0.4,0.1-0.6
		l0.5-2.2h-0.7l0.1-0.3c0.2,0,0.3,0,0.4,0c0.1,0,0.2-0.1,0.2-0.1c0.1,0,0.1-0.1,0.2-0.2c0-0.1,0.1-0.2,0.1-0.3
		C106.8,192.5,106.8,192.3,106.9,192L106.9,192z M85.7,191.4h0.8l-0.2,0.8h-0.8L85.7,191.4L85.7,191.4z M76.5,191.2h0.7l0.3,4.8
		c0,0.2,0,0.4,0.1,0.5c0,0.1,0.1,0.2,0.2,0.3c0.1,0.1,0.2,0.1,0.3,0.1l0,0.2h-1.8l0-0.2c0.2,0,0.3-0.1,0.4-0.2
		c0.1-0.1,0.1-0.3,0.1-0.6c0-0.1,0-0.2,0-0.4l0-0.6h-1.9l-0.2,0.4c-0.1,0.2-0.2,0.4-0.2,0.5c-0.1,0.1-0.1,0.3-0.1,0.4
		c0,0.2,0.1,0.4,0.4,0.4l0,0.2h-1.8l0-0.2c0.1,0,0.2,0,0.3-0.1c0.1-0.1,0.2-0.1,0.3-0.3c0.1-0.1,0.2-0.3,0.4-0.6L76.5,191.2z
		 M83.1,191h0.3l-1.1,4.8c-0.1,0.3-0.1,0.5-0.1,0.6c0,0.1,0,0.2,0.1,0.2s0.1,0.1,0.2,0.1c0.1,0,0.2,0,0.3-0.1
		c0.1-0.1,0.2-0.2,0.4-0.4l0.2,0.2c-0.3,0.3-0.5,0.5-0.7,0.6c-0.2,0.1-0.4,0.2-0.6,0.2c-0.2,0-0.3-0.1-0.4-0.2s-0.2-0.3-0.2-0.5
		c0-0.2,0-0.3,0.1-0.5l-0.1,0c-0.3,0.4-0.5,0.7-0.8,0.9c-0.2,0.2-0.5,0.3-0.8,0.3c-0.3,0-0.6-0.1-0.7-0.4c-0.2-0.2-0.3-0.6-0.3-1
		c0-0.5,0.1-1,0.3-1.4c0.2-0.5,0.5-0.8,0.8-1.1c0.3-0.3,0.7-0.4,1.1-0.4c0.2,0,0.3,0,0.5,0.1c0.1,0,0.3,0.1,0.5,0.2l0.2-1
		c0-0.1,0-0.2,0.1-0.3s0-0.2,0-0.3s0-0.2,0-0.2c0,0-0.1-0.1-0.1-0.1s-0.2,0-0.3,0l0.1-0.2L83.1,191L83.1,191z"/>
	<path class="st33" d="M95,202.4c-0.2,0-0.4,0.1-0.6,0.3s-0.3,0.5-0.4,0.9c0.3,0,0.5,0,0.7-0.1c0.2-0.1,0.4-0.1,0.5-0.2
		c0.1-0.1,0.2-0.3,0.2-0.4c0-0.1,0-0.2-0.1-0.3C95.2,202.4,95.1,202.4,95,202.4L95,202.4z M91.3,202.4c-0.2,0-0.4,0.1-0.6,0.3
		c-0.2,0.2-0.3,0.4-0.4,0.7c-0.1,0.3-0.1,0.6-0.1,0.9c0,0.2,0,0.4,0.1,0.5s0.2,0.2,0.3,0.2c0.1,0,0.1,0,0.2,0c0.1,0,0.1-0.1,0.2-0.1
		c0.1-0.1,0.1-0.1,0.2-0.2c0.1-0.1,0.1-0.2,0.2-0.3s0.1-0.2,0.2-0.3c0-0.1,0.1-0.3,0.1-0.4l0-0.1c0-0.1,0-0.3,0-0.4
		c0-0.2,0-0.3-0.1-0.4C91.5,202.4,91.4,202.4,91.3,202.4L91.3,202.4z M88.6,202.1h0.2l-0.4,2c0,0.2-0.1,0.4-0.1,0.5
		c0,0.1,0,0.1,0,0.2c0,0,0.1,0.1,0.1,0.1c0.1,0,0.1,0,0.2-0.1c0.1-0.1,0.2-0.1,0.3-0.3l0.2,0.2c-0.2,0.2-0.4,0.4-0.5,0.4
		c-0.1,0.1-0.3,0.1-0.4,0.1c-0.1,0-0.2,0-0.3-0.1c-0.1-0.1-0.1-0.2-0.1-0.4c0-0.2,0-0.4,0.1-0.6l0.2-1c0-0.2,0.1-0.4,0.1-0.5
		c0-0.1,0-0.2-0.1-0.2c0,0-0.1-0.1-0.3-0.1l0-0.2L88.6,202.1L88.6,202.1z M86.1,202.1c0.2,0,0.4,0,0.5,0s0.3,0.1,0.5,0.1l-0.1,0.6
		h-0.3c0-0.2-0.1-0.3-0.2-0.4c-0.1-0.1-0.3-0.1-0.5-0.1c-0.2,0-0.3,0-0.4,0.1c-0.1,0.1-0.2,0.2-0.2,0.3c0,0.1,0,0.1,0,0.2
		c0,0.1,0.1,0.1,0.2,0.2c0.1,0.1,0.2,0.2,0.4,0.3c0.1,0.1,0.2,0.1,0.3,0.2c0.1,0.1,0.1,0.1,0.2,0.2c0,0.1,0.1,0.1,0.1,0.2
		s0,0.2,0,0.3c0,0.2,0,0.3-0.1,0.5c-0.1,0.1-0.2,0.2-0.4,0.3c-0.2,0.1-0.4,0.1-0.6,0.1c-0.2,0-0.3,0-0.5,0c-0.2,0-0.3-0.1-0.5-0.1
		l0.1-0.7h0.2c0,0.2,0.1,0.3,0.2,0.4c0.1,0.1,0.3,0.2,0.5,0.2c0.2,0,0.3,0,0.5-0.1c0.1-0.1,0.2-0.2,0.2-0.4c0-0.1,0-0.2,0-0.2
		c0-0.1-0.1-0.1-0.2-0.2c-0.1-0.1-0.2-0.1-0.3-0.2c-0.2-0.1-0.3-0.2-0.4-0.3c-0.1-0.1-0.2-0.2-0.2-0.3c0-0.1-0.1-0.2-0.1-0.3
		c0-0.2,0-0.3,0.1-0.4s0.2-0.2,0.4-0.3C85.7,202.2,85.9,202.1,86.1,202.1L86.1,202.1z M95.1,202.1c0.2,0,0.4,0.1,0.6,0.2
		c0.1,0.1,0.2,0.3,0.2,0.5c0,0.3-0.2,0.6-0.5,0.8c-0.3,0.2-0.8,0.3-1.5,0.3c0,0.1,0,0.3,0,0.4c0,0.2,0,0.4,0.1,0.5
		c0.1,0.1,0.2,0.1,0.4,0.1c0.2,0,0.4,0,0.5-0.1s0.3-0.2,0.5-0.4l0.2,0.2c-0.2,0.2-0.4,0.4-0.6,0.5s-0.4,0.2-0.7,0.2
		c-0.3,0-0.5-0.1-0.7-0.3c-0.2-0.2-0.2-0.4-0.2-0.8c0-0.2,0-0.5,0.1-0.7c0.1-0.3,0.2-0.5,0.4-0.7c0.2-0.2,0.4-0.4,0.6-0.5
		C94.6,202.2,94.8,202.1,95.1,202.1L95.1,202.1z M88.5,201H89l-0.1,0.6h-0.5L88.5,201L88.5,201z M92.6,200.7h0.2l-0.8,3.4
		c0,0.2-0.1,0.4-0.1,0.5c0,0.1,0,0.1,0,0.2c0,0,0.1,0.1,0.1,0.1c0.1,0,0.1,0,0.2-0.1c0.1-0.1,0.2-0.1,0.3-0.3l0.2,0.2
		c-0.2,0.2-0.3,0.3-0.5,0.4c-0.1,0.1-0.3,0.1-0.4,0.1c-0.1,0-0.2,0-0.3-0.1c-0.1-0.1-0.1-0.2-0.1-0.3c0-0.1,0-0.2,0.1-0.4l0,0
		c-0.2,0.3-0.4,0.5-0.6,0.6s-0.4,0.2-0.6,0.2c-0.2,0-0.4-0.1-0.5-0.3c-0.1-0.2-0.2-0.4-0.2-0.7c0-0.4,0.1-0.7,0.2-1s0.3-0.6,0.6-0.8
		s0.5-0.3,0.8-0.3c0.1,0,0.2,0,0.3,0c0.1,0,0.2,0.1,0.3,0.1l0.2-0.7c0-0.1,0-0.1,0-0.2s0-0.2,0-0.2c0-0.1,0-0.1,0-0.1
		c0,0-0.1-0.1-0.1-0.1s-0.1,0-0.2,0l0-0.2L92.6,200.7L92.6,200.7z"/>
</g>
<g>
	<g>
		<path class="st34" d="M60.1,164.5c43.3-38.7,80-49.2,95.6-52.1"/>
		<g>
			<path class="st35" d="M154,112.8l-2.7-3.3l0.1-0.1l6.1,1.5c2.1,0.2,4.2,0.3,6.3,0.5c-2,0.7-3.9,1.5-5.9,2.2l-5.5,3.1l-0.1,0
				L154,112.8z"/>
		</g>
	</g>
</g>
<g>
	<g>
		<path class="st36" d="M62.1,166c22-6.1,24-6.4,31.8,0c4.1,3.4,5.5,9.5,5.9,14.6"/>
		<g>
			<path class="st37" d="M99.7,178.8l3.6-2.2l0.1,0.1l-2.3,5.9c-0.4,2.1-0.9,4.1-1.3,6.2c-0.5-2-0.9-4.1-1.4-6.1l-2.4-5.9l0.1-0.1
				L99.7,178.8z"/>
		</g>
	</g>
</g>
</svg>
