<?xml version="1.0" encoding="utf-8"?>
<!-- Generator: Adobe Illustrator 23.0.2, SVG Export Plug-In . SVG Version: 6.00 Build 0)  -->
<svg version="1.1" id="Layer_1" xmlns="http://www.w3.org/2000/svg" xmlns:xlink="http://www.w3.org/1999/xlink" x="0px" y="0px"
	 viewBox="0 0 200 200" style="enable-background:new 0 0 200 200;" xml:space="preserve">
<style type="text/css">
	.st0{fill:url(#SVGID_1_);}
	.st1{fill:none;stroke:#000000;stroke-width:1.1448;stroke-miterlimit:8;}
	.st2{fill-rule:evenodd;clip-rule:evenodd;}
	.st3{clip-path:url(#SVGID_3_);fill:none;stroke:#000000;stroke-width:1.1448;stroke-miterlimit:8;}
	.st4{clip-path:url(#SVGID_3_);fill-rule:evenodd;clip-rule:evenodd;}
	.st5{clip-path:url(#SVGID_3_);}
	.st6{clip-path:url(#SVGID_5_);fill-rule:evenodd;clip-rule:evenodd;}
	.st7{clip-path:url(#SVGID_5_);}
	.st8{clip-path:url(#SVGID_7_);fill-rule:evenodd;clip-rule:evenodd;}
	.st9{clip-path:url(#SVGID_7_);}
	.st10{clip-path:url(#SVGID_9_);fill-rule:evenodd;clip-rule:evenodd;}
	.st11{clip-path:url(#SVGID_9_);}
	.st12{clip-path:url(#SVGID_11_);fill-rule:evenodd;clip-rule:evenodd;}
	.st13{clip-path:url(#SVGID_11_);}
	.st14{clip-path:url(#SVGID_13_);fill-rule:evenodd;clip-rule:evenodd;}
	.st15{clip-path:url(#SVGID_13_);}
	.st16{clip-path:url(#SVGID_15_);fill-rule:evenodd;clip-rule:evenodd;}
	.st17{clip-path:url(#SVGID_15_);}
	.st18{clip-path:url(#SVGID_17_);fill-rule:evenodd;clip-rule:evenodd;}
	.st19{clip-path:url(#SVGID_17_);}
	.st20{clip-path:url(#SVGID_19_);fill-rule:evenodd;clip-rule:evenodd;}
	.st21{clip-path:url(#SVGID_19_);}
	.st22{clip-path:url(#SVGID_21_);fill-rule:evenodd;clip-rule:evenodd;}
	.st23{clip-path:url(#SVGID_21_);}
	.st24{clip-path:url(#SVGID_23_);fill-rule:evenodd;clip-rule:evenodd;}
	.st25{clip-path:url(#SVGID_23_);}
	.st26{clip-path:url(#SVGID_25_);fill-rule:evenodd;clip-rule:evenodd;}
	.st27{clip-path:url(#SVGID_25_);}
	.st28{clip-path:url(#SVGID_27_);fill-rule:evenodd;clip-rule:evenodd;}
	.st29{clip-path:url(#SVGID_27_);}
	.st30{clip-path:url(#SVGID_29_);fill-rule:evenodd;clip-rule:evenodd;}
	.st31{clip-path:url(#SVGID_29_);}
	.st32{clip-path:url(#SVGID_31_);fill-rule:evenodd;clip-rule:evenodd;}
</style>
<linearGradient id="SVGID_1_" gradientUnits="userSpaceOnUse" x1="15.8769" y1="97.963" x2="192.2785" y2="97.963">
	<stop  offset="2.077838e-07" style="stop-color:#03033D;stop-opacity:0.4"/>
	<stop  offset="1" style="stop-color:#000000;stop-opacity:0"/>
</linearGradient>
<rect x="15.9" y="28.2" class="st0" width="176.4" height="139.6"/>
<g>
	<line class="st1" x1="7" y1="167.8" x2="185.4" y2="167.8"/>
	<polygon class="st2" points="184.9,166 188.3,167.8 184.9,169.5 184.9,166 	"/>
	<g>
		<defs>
			<polygon id="SVGID_2_" points="1.4,190.4 197.8,190.4 197.8,13 1.4,13 1.4,195.4 			"/>
		</defs>
		<clipPath id="SVGID_3_">
			<use xlink:href="#SVGID_2_"  style="overflow:visible;"/>
		</clipPath>
		<line class="st3" x1="15.8" y1="176.8" x2="15.8" y2="27.7"/>
		<polygon class="st4" points="17.5,28.3 15.8,24.9 14.1,28.3 17.5,28.3 		"/>
		<g class="st5">
			<defs>
				<polygon id="SVGID_4_" points="1.4,190.4 197.8,190.4 197.8,13 1.4,13 1.4,195.4 				"/>
			</defs>
			<clipPath id="SVGID_5_">
				<use xlink:href="#SVGID_4_"  style="overflow:visible;"/>
			</clipPath>
			<path class="st6" d="M6.5,20.7c0.2,0,0.3,0,0.5,0.1c0.1,0,0.2,0.1,0.3,0.2c0.1,0.1,0.2,0.2,0.2,0.3s0.1,0.3,0.2,0.5
				c0.1,0.2,0.1,0.4,0.2,0.8c0.1,0.6,0.2,1.2,0.3,1.8c0.1,0.6,0.2,1.2,0.3,1.8c0.4-0.6,0.8-1.2,1.1-1.8c0.3-0.6,0.5-1.1,0.7-1.6
				s0.2-0.8,0.2-1.1c0-0.2,0-0.4-0.1-0.4s-0.2-0.1-0.5-0.1l0.1-0.3h1.8l0.2,0.3c-0.3,0.9-0.8,1.9-1.4,3c-0.6,1-1.2,2.1-2,3.1
				c-0.7,1-1.3,1.7-1.8,2.1C6.3,29.7,6,29.9,5.7,30c-0.2,0.1-0.5,0.1-0.8,0.1c-0.1,0-0.2,0-0.3,0s-0.2,0-0.3-0.1l0.3-1.3h0.5
				c0,0.3,0.1,0.4,0.3,0.4c0.3,0,0.6-0.2,0.9-0.5c0.3-0.3,0.7-0.8,1.2-1.5c-0.1-0.8-0.3-1.7-0.5-2.8c-0.2-1.2-0.4-1.9-0.5-2.2
				c-0.1-0.3-0.2-0.6-0.3-0.7c-0.1-0.1-0.1-0.1-0.2-0.1c-0.1,0-0.3,0.1-0.4,0.2c-0.1,0.1-0.3,0.3-0.5,0.6L4.7,22
				c0.3-0.5,0.6-0.8,0.9-1C5.8,20.8,6.1,20.7,6.5,20.7L6.5,20.7z"/>
			<g class="st7">
				<defs>
					<polygon id="SVGID_6_" points="1.4,190.4 197.8,190.4 197.8,13 1.4,13 1.4,195.4 					"/>
				</defs>
				<clipPath id="SVGID_7_">
					<use xlink:href="#SVGID_6_"  style="overflow:visible;"/>
				</clipPath>
				<path class="st8" d="M186.7,172.1c0.1,0,0.3,0,0.4,0c0.1,0,0.2,0.1,0.3,0.1s0.2,0.1,0.2,0.3c0.1,0.1,0.1,0.2,0.2,0.4
					c0.1,0.2,0.1,0.4,0.2,0.7s0.1,0.5,0.1,0.8h0.1c0.4-0.6,0.8-1,1-1.3s0.4-0.5,0.6-0.6s0.3-0.2,0.4-0.3s0.3-0.1,0.6-0.1
					c0.2,0,0.4,0,0.5,0.1l-0.3,1.2h-0.5c0-0.2-0.1-0.3-0.2-0.3c0,0-0.1,0-0.1,0s-0.1,0-0.2,0.1c-0.1,0-0.2,0.1-0.3,0.3
					c-0.1,0.1-0.3,0.3-0.4,0.5c-0.2,0.2-0.3,0.4-0.5,0.6l-0.5,0.6c0.1,0.4,0.2,0.8,0.2,1.1c0.1,0.3,0.1,0.6,0.2,0.8
					c0.1,0.2,0.1,0.4,0.1,0.5c0,0.1,0.1,0.2,0.1,0.3c0,0.1,0.1,0.1,0.2,0.1c0.1,0,0.1,0,0.2,0c0.1,0,0.2,0,0.4-0.1
					c0.1-0.1,0.3-0.3,0.5-0.6l0.4,0.3c-0.3,0.5-0.6,0.8-0.8,1s-0.6,0.3-0.9,0.3c-0.2,0-0.4,0-0.5-0.1c-0.1-0.1-0.3-0.2-0.3-0.3
					c-0.1-0.2-0.2-0.4-0.3-0.7c-0.1-0.6-0.2-1-0.3-1.3h-0.1c-0.5,0.7-0.8,1.1-1.1,1.4c-0.2,0.3-0.4,0.5-0.6,0.6s-0.3,0.2-0.4,0.3
					c-0.1,0.1-0.3,0.1-0.6,0.1c-0.2,0-0.4,0-0.5-0.1l0.3-1.2h0.5c0,0.2,0.1,0.3,0.2,0.3c0.1,0,0.1,0,0.2-0.1c0.1,0,0.2-0.1,0.3-0.2
					c0.1-0.1,0.3-0.3,0.5-0.6c0.2-0.3,0.6-0.7,1-1.2c-0.1-0.4-0.1-0.7-0.2-1c-0.1-0.3-0.1-0.6-0.2-0.9s-0.1-0.5-0.2-0.6
					c0-0.1-0.1-0.1-0.2-0.2c-0.1,0-0.1-0.1-0.2-0.1c-0.1,0-0.2,0-0.3,0.1c-0.1,0-0.2,0.1-0.2,0.2c-0.1,0.1-0.2,0.3-0.4,0.5l-0.4-0.3
					c0.3-0.4,0.6-0.7,0.8-1C186.1,172.2,186.4,172.1,186.7,172.1L186.7,172.1z"/>
				<g class="st9">
					<defs>
						<polygon id="SVGID_8_" points="1.4,190.4 197.8,190.4 197.8,13 1.4,13 1.4,195.4 						"/>
					</defs>
					<clipPath id="SVGID_9_">
						<use xlink:href="#SVGID_8_"  style="overflow:visible;"/>
					</clipPath>
					<path class="st10" d="M8.7,172.6c-0.5,0-0.9,0.2-1.2,0.6c-0.3,0.4-0.6,0.9-0.8,1.7s-0.3,1.3-0.3,1.9c0,0.5,0.1,0.9,0.3,1.1
						c0.2,0.2,0.5,0.4,0.9,0.4c0.4,0,0.8-0.2,1.2-0.6c0.3-0.4,0.6-0.9,0.8-1.7s0.3-1.3,0.3-1.9c0-0.5-0.1-0.8-0.3-1.1
						S9.1,172.6,8.7,172.6L8.7,172.6z M8.8,172.1c0.7,0,1.3,0.2,1.6,0.6s0.6,1,0.6,1.7c0,0.5-0.1,1.1-0.3,1.7s-0.4,1.1-0.7,1.5
						c-0.3,0.4-0.7,0.7-1.1,0.9c-0.4,0.2-0.9,0.3-1.5,0.3c-0.7,0-1.2-0.2-1.6-0.6c-0.4-0.4-0.6-0.9-0.6-1.7c0-0.4,0.1-0.8,0.2-1.2
						c0.1-0.6,0.4-1.2,0.7-1.7c0.3-0.5,0.7-0.8,1.2-1.1S8.2,172.1,8.8,172.1L8.8,172.1z"/>
					<g class="st11">
						<defs>
							<polygon id="SVGID_10_" points="1.4,190.4 197.8,190.4 197.8,13 1.4,13 1.4,195.4 							"/>
						</defs>
						<clipPath id="SVGID_11_">
							<use xlink:href="#SVGID_10_"  style="overflow:visible;"/>
						</clipPath>
						<path class="st12" d="M99.7,87.1c-0.4,0-0.8,0.2-1.1,0.5C98.2,88,98,88.4,97.8,89c-0.2,0.6-0.3,1.1-0.3,1.7
							c0,0.4,0.1,0.7,0.2,0.9s0.3,0.3,0.6,0.3c0.3,0,0.5-0.1,0.8-0.3s0.5-0.6,0.8-1c0.3-0.4,0.5-0.9,0.6-1.5l0.1-0.3
							c0-0.2,0.1-0.3,0.1-0.4c0-0.1,0-0.2,0-0.4c0-0.3-0.1-0.5-0.2-0.7C100.2,87.2,100,87.1,99.7,87.1L99.7,87.1z M84.1,87.1
							c-0.4,0-0.8,0.2-1.2,0.6c-0.4,0.4-0.7,1-0.9,1.6c0.6,0,1-0.1,1.4-0.2c0.4-0.1,0.7-0.3,0.9-0.5c0.2-0.2,0.3-0.5,0.3-0.9
							c0-0.2-0.1-0.4-0.2-0.6C84.5,87.2,84.3,87.1,84.1,87.1L84.1,87.1z M66.6,87.1c-0.4,0-0.8,0.2-1.1,0.5C65.2,88,65,88.4,64.8,89
							c-0.2,0.6-0.3,1.1-0.3,1.7c0,0.4,0.1,0.7,0.2,0.9c0.1,0.2,0.3,0.3,0.6,0.3c0.3,0,0.5-0.1,0.8-0.3c0.3-0.2,0.5-0.6,0.8-1
							c0.3-0.4,0.5-0.9,0.6-1.5l0.1-0.3c0-0.2,0.1-0.3,0.1-0.4c0-0.1,0-0.2,0-0.4c0-0.3-0.1-0.5-0.2-0.7
							C67.2,87.2,67,87.1,66.6,87.1L66.6,87.1z M94.4,86.7h0.4l-0.9,3.8c-0.1,0.4-0.1,0.7-0.1,0.9c0,0.2,0,0.3,0.1,0.3
							c0.1,0.1,0.1,0.1,0.2,0.1c0.1,0,0.2,0,0.4-0.1c0.1-0.1,0.3-0.3,0.6-0.6l0.3,0.3c-0.4,0.4-0.7,0.7-0.9,0.8
							c-0.2,0.1-0.5,0.2-0.8,0.2c-0.3,0-0.5-0.1-0.6-0.3c-0.2-0.2-0.2-0.4-0.2-0.7c0-0.3,0.1-0.7,0.2-1.2l0.4-2
							c0.1-0.4,0.1-0.7,0.1-0.9c0-0.2,0-0.3-0.1-0.4c-0.1-0.1-0.3-0.1-0.5-0.1l0.1-0.3L94.4,86.7L94.4,86.7z M89.6,86.7
							c0.4,0,0.7,0,1,0.1c0.3,0,0.6,0.1,0.9,0.2l-0.3,1.3h-0.5c0-0.4-0.2-0.6-0.3-0.8c-0.2-0.2-0.5-0.3-0.9-0.3
							c-0.3,0-0.6,0.1-0.8,0.2c-0.2,0.2-0.3,0.4-0.3,0.6c0,0.1,0,0.3,0.1,0.4c0,0.1,0.2,0.2,0.3,0.4c0.2,0.1,0.4,0.3,0.7,0.5
							c0.3,0.2,0.5,0.3,0.6,0.4c0.2,0.1,0.3,0.2,0.4,0.4c0.1,0.1,0.2,0.3,0.2,0.4c0,0.1,0.1,0.3,0.1,0.5c0,0.4-0.1,0.7-0.3,0.9
							c-0.2,0.3-0.4,0.4-0.8,0.6c-0.3,0.1-0.7,0.2-1.1,0.2c-0.3,0-0.7,0-1-0.1c-0.3,0-0.7-0.1-1.1-0.3l0.3-1.3h0.5
							c0,0.4,0.1,0.7,0.3,0.9c0.2,0.2,0.5,0.3,0.9,0.3c0.4,0,0.7-0.1,0.9-0.3c0.2-0.2,0.3-0.4,0.3-0.7c0-0.2,0-0.3-0.1-0.5
							c-0.1-0.1-0.2-0.3-0.3-0.4c-0.1-0.1-0.4-0.3-0.6-0.4c-0.3-0.2-0.6-0.4-0.7-0.5c-0.2-0.2-0.3-0.3-0.4-0.5
							c-0.1-0.2-0.1-0.4-0.1-0.6c0-0.3,0.1-0.6,0.3-0.8c0.2-0.2,0.4-0.4,0.7-0.5C88.9,86.7,89.2,86.7,89.6,86.7L89.6,86.7z
							 M104.5,86.7c0.3,0,0.4,0.1,0.6,0.2c0.1,0.2,0.2,0.4,0.2,0.6c0,0.2,0,0.4-0.1,0.7l0.1,0c0.4-0.5,0.8-1,1.1-1.2
							c0.4-0.3,0.7-0.4,1.1-0.4c0.4,0,0.7,0.1,0.9,0.3c0.2,0.2,0.3,0.5,0.3,0.9c0,0.3-0.1,0.6-0.2,1.1l-0.4,1.6
							c-0.1,0.4-0.2,0.7-0.2,0.9c0,0.2,0,0.3,0.1,0.3c0.1,0.1,0.1,0.1,0.2,0.1c0.1,0,0.2,0,0.4-0.1c0.1-0.1,0.3-0.3,0.6-0.6l0.3,0.3
							c-0.3,0.4-0.6,0.6-0.9,0.8c-0.3,0.2-0.5,0.3-0.9,0.3c-0.3,0-0.5-0.1-0.6-0.3c-0.2-0.2-0.2-0.4-0.2-0.7c0-0.3,0.1-0.6,0.2-1.1
							l0.3-1c0.1-0.4,0.2-0.7,0.2-0.8c0-0.2,0-0.3,0-0.4c0-0.3,0-0.5-0.1-0.6c-0.1-0.1-0.2-0.2-0.4-0.2c-0.2,0-0.3,0.1-0.5,0.2
							c-0.2,0.1-0.4,0.3-0.6,0.6c-0.2,0.3-0.4,0.5-0.5,0.8c-0.1,0.3-0.2,0.6-0.3,0.9l-0.6,2.6h-1l0.9-3.8c0.1-0.4,0.1-0.7,0.1-0.9
							c0-0.2,0-0.3-0.1-0.3c-0.1-0.1-0.1-0.1-0.2-0.1c-0.1,0-0.3,0.1-0.4,0.2c-0.1,0.1-0.3,0.3-0.6,0.6l-0.3-0.3
							c0.4-0.4,0.7-0.7,0.9-0.8C104,86.8,104.2,86.7,104.5,86.7L104.5,86.7z M99.5,86.7c0.3,0,0.5,0,0.7,0.1
							c0.2,0.1,0.5,0.2,0.7,0.3l0.5-0.4l0.4,0.1l-0.9,3.8c-0.1,0.4-0.1,0.7-0.1,0.9c0,0.2,0,0.3,0.1,0.3c0.1,0.1,0.1,0.1,0.2,0.1
							c0.1,0,0.2,0,0.4-0.1c0.1-0.1,0.3-0.3,0.6-0.6l0.3,0.3c-0.4,0.4-0.7,0.7-0.9,0.8s-0.5,0.2-0.8,0.2c-0.2,0-0.4-0.1-0.6-0.2
							c-0.1-0.2-0.2-0.4-0.2-0.7c0-0.2,0-0.5,0.1-0.7l-0.1,0c-0.4,0.6-0.7,1-1.1,1.2c-0.3,0.3-0.7,0.4-1.1,0.4c-0.4,0-0.8-0.2-1-0.5
							c-0.2-0.3-0.4-0.8-0.4-1.4c0-0.7,0.1-1.3,0.4-2c0.3-0.6,0.6-1.1,1.1-1.5C98.4,86.9,99,86.7,99.5,86.7L99.5,86.7z M84.3,86.7
							c0.5,0,0.8,0.1,1.1,0.3c0.2,0.2,0.4,0.5,0.4,0.9c0,0.7-0.3,1.2-1,1.5c-0.6,0.3-1.6,0.5-2.8,0.5c0,0.2-0.1,0.5-0.1,0.8
							c0,0.4,0.1,0.7,0.2,0.9s0.4,0.3,0.8,0.3c0.4,0,0.7-0.1,1-0.2c0.3-0.2,0.6-0.4,0.9-0.7l0.4,0.4c-0.4,0.4-0.8,0.7-1.2,1
							c-0.4,0.2-0.9,0.3-1.4,0.3c-0.6,0-1-0.2-1.3-0.5s-0.5-0.8-0.5-1.5c0-0.4,0.1-0.9,0.2-1.4c0.2-0.5,0.4-0.9,0.7-1.3
							c0.3-0.4,0.7-0.7,1.1-0.9C83.4,86.8,83.8,86.7,84.3,86.7L84.3,86.7z M71.5,86.7c0.3,0,0.4,0.1,0.6,0.2
							c0.1,0.2,0.2,0.4,0.2,0.6c0,0.2,0,0.4-0.1,0.6l0.1,0c0.4-0.5,0.8-0.9,1.1-1.2c0.4-0.2,0.7-0.4,1.1-0.4c0.3,0,0.5,0,0.7,0.1
							L75,88.1h-0.6c0-0.2-0.1-0.3-0.1-0.4c0-0.1-0.1-0.2-0.2-0.2c-0.1,0-0.1-0.1-0.2-0.1c-0.1,0-0.3,0.1-0.5,0.2
							c-0.2,0.1-0.4,0.3-0.6,0.6c-0.2,0.3-0.4,0.5-0.5,0.8c-0.1,0.2-0.2,0.6-0.3,0.9l-0.6,2.6h-1l0.9-3.8c0.1-0.2,0.1-0.4,0.1-0.6
							s0-0.2,0-0.3c0-0.2,0-0.3-0.1-0.3c-0.1-0.1-0.1-0.1-0.2-0.1c-0.1,0-0.3,0.1-0.4,0.2c-0.1,0.1-0.3,0.3-0.6,0.6l-0.3-0.3
							c0.4-0.4,0.7-0.7,0.9-0.8C70.9,86.8,71.2,86.7,71.5,86.7L71.5,86.7z M66.5,86.7c0.3,0,0.5,0,0.7,0.1c0.2,0.1,0.5,0.2,0.7,0.3
							l0.5-0.4l0.4,0.1L68,90.6c-0.1,0.4-0.1,0.7-0.1,0.9c0,0.2,0,0.3,0.1,0.3c0.1,0.1,0.1,0.1,0.2,0.1c0.1,0,0.2,0,0.4-0.1
							c0.1-0.1,0.3-0.3,0.6-0.6l0.3,0.3c-0.4,0.4-0.7,0.7-0.9,0.8c-0.3,0.2-0.5,0.2-0.8,0.2c-0.2,0-0.4-0.1-0.6-0.2
							s-0.2-0.4-0.2-0.7c0-0.2,0-0.5,0.1-0.7L67,91c-0.4,0.6-0.7,1-1.1,1.2c-0.3,0.3-0.7,0.4-1.1,0.4c-0.4,0-0.8-0.2-1-0.5
							c-0.2-0.3-0.4-0.8-0.4-1.4c0-0.7,0.1-1.3,0.4-2c0.3-0.6,0.6-1.1,1.1-1.5C65.4,86.9,65.9,86.7,66.5,86.7L66.5,86.7z M77.8,85.3
							h0.8l-0.3,1.5h1.8L80,87.4h-1.8l-0.5,2.3c-0.1,0.4-0.2,0.8-0.2,1c0,0.2,0,0.4,0,0.5c0,0.5,0.2,0.7,0.6,0.7
							c0.2,0,0.4-0.1,0.6-0.2c0.2-0.1,0.4-0.4,0.7-0.7l0.3,0.4c-0.3,0.4-0.7,0.7-1,0.9c-0.3,0.2-0.7,0.3-1,0.3
							c-0.8,0-1.2-0.4-1.2-1.3c0-0.3,0-0.5,0.1-0.8l0.7-3.1h-1l0.1-0.4c0.2,0,0.4,0,0.5-0.1c0.1,0,0.2-0.1,0.3-0.1s0.2-0.1,0.2-0.2
							c0.1-0.1,0.1-0.2,0.2-0.4C77.6,86,77.7,85.7,77.8,85.3L77.8,85.3z M94.3,84.4h1.1L95,85.6H94L94.3,84.4L94.3,84.4z M60.6,84.2
							c0.4,0,0.7,0,1,0.1c0.3,0,0.7,0.1,1,0.2l-0.4,1.6h-0.6c0-0.5-0.1-0.8-0.3-1.1c-0.2-0.2-0.5-0.3-0.9-0.3
							c-0.5,0-1.1,0.3-1.5,0.8c-0.5,0.5-0.8,1.3-1.1,2.2c-0.3,0.9-0.4,1.7-0.4,2.5c0,0.6,0.1,1.1,0.3,1.3c0.2,0.3,0.5,0.4,1,0.4
							c0.3,0,0.6,0,0.8-0.1c0.2-0.1,0.4-0.2,0.6-0.5c0.2-0.2,0.4-0.5,0.6-0.9h0.6L61,92.3c-0.7,0.2-1.5,0.3-2.3,0.3
							c-0.7,0-1.3-0.2-1.7-0.6c-0.4-0.4-0.6-1.1-0.6-1.9c0-0.6,0.1-1.3,0.3-2c0.2-0.8,0.5-1.4,0.9-2c0.4-0.6,0.8-1,1.4-1.3
							C59.4,84.4,60,84.2,60.6,84.2L60.6,84.2z"/>
						<g class="st13">
							<defs>
								<polygon id="SVGID_12_" points="1.4,190.4 197.8,190.4 197.8,13 1.4,13 1.4,195.4 								"/>
							</defs>
							<clipPath id="SVGID_13_">
								<use xlink:href="#SVGID_12_"  style="overflow:visible;"/>
							</clipPath>
							<path class="st14" d="M117,87.4c-0.2,0-0.4,0.1-0.6,0.2c-0.2,0.1-0.4,0.4-0.6,0.7c-0.2,0.3-0.4,0.6-0.5,0.9
								c-0.1,0.3-0.2,0.6-0.3,1l0,0.3c0,0.2-0.1,0.4-0.1,0.5c0,0.1,0,0.2,0,0.3c0,0.3,0.1,0.5,0.2,0.7c0.1,0.1,0.4,0.2,0.7,0.2
								c0.2,0,0.4,0,0.6-0.1c0.2-0.1,0.3-0.2,0.5-0.3c0.2-0.2,0.3-0.3,0.4-0.5c0.1-0.2,0.2-0.5,0.3-0.7c0.1-0.3,0.2-0.6,0.2-0.9
								c0-0.3,0.1-0.6,0.1-0.8c0-0.4-0.1-0.7-0.2-0.9C117.4,87.5,117.2,87.4,117,87.4L117,87.4z M140.9,87.1c-0.4,0-0.8,0.2-1.2,0.6
								c-0.4,0.4-0.7,1-0.9,1.6c0.6,0,1-0.1,1.4-0.2c0.4-0.1,0.7-0.3,0.9-0.5c0.2-0.2,0.3-0.5,0.3-0.9c0-0.2-0.1-0.4-0.2-0.6
								C141.3,87.2,141.1,87.1,140.9,87.1L140.9,87.1z M127.1,87.1c-0.4,0-0.8,0.2-1.1,0.5c-0.3,0.3-0.6,0.8-0.8,1.3
								c-0.2,0.6-0.3,1.1-0.3,1.7c0,0.4,0.1,0.7,0.2,0.9c0.1,0.2,0.3,0.3,0.6,0.3c0.3,0,0.5-0.1,0.8-0.3s0.5-0.6,0.8-1
								c0.3-0.4,0.5-0.9,0.6-1.5l0.1-0.3c0-0.2,0.1-0.3,0.1-0.4c0-0.1,0-0.2,0-0.4c0-0.3-0.1-0.5-0.2-0.7
								C127.6,87.2,127.4,87.1,127.1,87.1L127.1,87.1z M141.1,86.7c0.5,0,0.8,0.1,1.1,0.3c0.2,0.2,0.4,0.5,0.4,0.9
								c0,0.7-0.3,1.2-1,1.5c-0.6,0.3-1.6,0.5-2.8,0.5c0,0.2-0.1,0.5-0.1,0.8c0,0.4,0.1,0.7,0.2,0.9c0.2,0.2,0.4,0.3,0.8,0.3
								c0.4,0,0.7-0.1,1-0.2c0.3-0.2,0.6-0.4,0.9-0.7l0.4,0.4c-0.4,0.4-0.8,0.7-1.2,1c-0.4,0.2-0.9,0.3-1.4,0.3
								c-0.6,0-1-0.2-1.3-0.5c-0.3-0.4-0.5-0.8-0.5-1.5c0-0.4,0.1-0.9,0.2-1.4c0.2-0.5,0.4-0.9,0.7-1.3c0.3-0.4,0.7-0.7,1.1-0.9
								C140.2,86.8,140.6,86.7,141.1,86.7L141.1,86.7z M131.9,86.7c0.3,0,0.4,0.1,0.6,0.2c0.1,0.2,0.2,0.4,0.2,0.6
								c0,0.2,0,0.4-0.1,0.7l0.1,0c0.4-0.5,0.8-1,1.1-1.2c0.4-0.3,0.7-0.4,1.1-0.4c0.4,0,0.7,0.1,0.9,0.3c0.2,0.2,0.3,0.5,0.3,0.9
								c0,0.3-0.1,0.6-0.2,1.1l-0.4,1.6c-0.1,0.4-0.2,0.7-0.2,0.9c0,0.2,0,0.3,0.1,0.3c0.1,0.1,0.1,0.1,0.2,0.1c0.1,0,0.2,0,0.4-0.1
								c0.1-0.1,0.3-0.3,0.6-0.6l0.3,0.3c-0.3,0.4-0.6,0.6-0.9,0.8c-0.3,0.2-0.5,0.3-0.9,0.3c-0.3,0-0.5-0.1-0.6-0.3
								c-0.2-0.2-0.2-0.4-0.2-0.7c0-0.3,0.1-0.6,0.2-1.1l0.3-1c0.1-0.4,0.2-0.7,0.2-0.8c0-0.2,0-0.3,0-0.4c0-0.3,0-0.5-0.1-0.6
								c-0.1-0.1-0.2-0.2-0.4-0.2c-0.2,0-0.3,0.1-0.5,0.2c-0.2,0.1-0.4,0.3-0.6,0.6c-0.2,0.3-0.4,0.5-0.5,0.8s-0.2,0.6-0.3,0.9
								l-0.6,2.6h-1l0.9-3.8c0.1-0.4,0.1-0.7,0.1-0.9c0-0.2,0-0.3-0.1-0.3c-0.1-0.1-0.1-0.1-0.2-0.1c-0.1,0-0.3,0.1-0.4,0.2
								c-0.1,0.1-0.3,0.3-0.6,0.6l-0.3-0.3c0.4-0.4,0.7-0.7,0.9-0.8C131.4,86.8,131.6,86.7,131.9,86.7L131.9,86.7z M126.9,86.7
								c0.3,0,0.5,0,0.7,0.1c0.2,0.1,0.5,0.2,0.7,0.3l0.5-0.4l0.4,0.1l-0.9,3.8c-0.1,0.4-0.1,0.7-0.1,0.9c0,0.2,0,0.3,0.1,0.3
								c0.1,0.1,0.1,0.1,0.2,0.1c0.1,0,0.2,0,0.4-0.1c0.1-0.1,0.3-0.3,0.6-0.6l0.3,0.3c-0.4,0.4-0.7,0.7-0.9,0.8
								c-0.3,0.2-0.5,0.2-0.8,0.2c-0.2,0-0.4-0.1-0.6-0.2s-0.2-0.4-0.2-0.7c0-0.2,0-0.5,0.1-0.7l-0.1,0c-0.4,0.6-0.7,1-1.1,1.2
								c-0.3,0.3-0.7,0.4-1.1,0.4c-0.4,0-0.8-0.2-1-0.5c-0.2-0.3-0.4-0.8-0.4-1.4c0-0.7,0.1-1.3,0.4-2c0.3-0.6,0.6-1.1,1.1-1.5
								C125.8,86.9,126.4,86.7,126.9,86.7L126.9,86.7z M114.4,86.7c0.2,0,0.4,0.1,0.6,0.2c0.1,0.2,0.2,0.4,0.2,0.7
								c0,0.2,0,0.5-0.1,0.7l0.1,0c0.7-1.1,1.5-1.6,2.2-1.6c0.4,0,0.8,0.2,1,0.5c0.2,0.3,0.4,0.8,0.4,1.4c0,0.7-0.1,1.3-0.4,1.9
								c-0.3,0.6-0.6,1.1-1.1,1.5c-0.5,0.4-1,0.6-1.6,0.6c-0.5,0-1-0.1-1.3-0.3l-0.3,1.3c-0.1,0.3-0.1,0.5-0.1,0.7
								c0,0.2,0,0.3,0.1,0.4c0.1,0.1,0.3,0.1,0.5,0.1l0,0.3h-1.8l1.4-6.3c0.1-0.4,0.1-0.7,0.1-0.9c0-0.2,0-0.3-0.1-0.3
								c-0.1-0.1-0.1-0.1-0.2-0.1c-0.1,0-0.3,0.1-0.4,0.2c-0.1,0.1-0.3,0.3-0.6,0.6l-0.3-0.3c0.4-0.4,0.7-0.6,0.9-0.8
								C113.9,86.8,114.1,86.7,114.4,86.7L114.4,86.7z M122.5,83.9h0.4l-1.5,6.6c-0.1,0.4-0.1,0.7-0.1,0.9c0,0.2,0,0.3,0.1,0.3
								c0.1,0.1,0.1,0.1,0.2,0.1c0.1,0,0.2,0,0.4-0.1c0.1-0.1,0.3-0.3,0.6-0.6l0.3,0.3c-0.4,0.4-0.7,0.7-0.9,0.8
								c-0.2,0.1-0.5,0.2-0.8,0.2c-0.3,0-0.5-0.1-0.6-0.3c-0.2-0.2-0.2-0.4-0.2-0.7c0-0.3,0.1-0.7,0.2-1.2l1.1-4.8
								c0-0.2,0.1-0.4,0.1-0.5c0-0.1,0-0.2,0-0.3c0-0.1,0-0.2-0.1-0.3c0-0.1-0.1-0.1-0.2-0.1c-0.1,0-0.2,0-0.4-0.1L121,84
								L122.5,83.9L122.5,83.9z"/>
							<g class="st15">
								<defs>
									<polygon id="SVGID_14_" points="1.4,190.4 197.8,190.4 197.8,13 1.4,13 1.4,195.4 									"/>
								</defs>
								<clipPath id="SVGID_15_">
									<use xlink:href="#SVGID_14_"  style="overflow:visible;"/>
								</clipPath>
								<path class="st16" d="M71,98.1l0.2,0.5c-0.9,0.3-1.6,0.9-2.1,1.8c-0.4,0.9-0.7,2-0.7,3.4c0,1.4,0.2,2.5,0.7,3.4
									c0.4,0.9,1.1,1.5,2.1,1.8l-0.1,0.5c-1.2-0.3-2.1-1-2.7-2c-0.6-1-0.9-2.2-0.9-3.7c0-1.4,0.3-2.7,0.9-3.7
									C68.9,99.1,69.8,98.4,71,98.1L71,98.1z"/>
								<g class="st17">
									<defs>
										<polygon id="SVGID_16_" points="1.4,190.4 197.8,190.4 197.8,13 1.4,13 1.4,195.4 										"/>
									</defs>
									<clipPath id="SVGID_17_">
										<use xlink:href="#SVGID_16_"  style="overflow:visible;"/>
									</clipPath>
									<path class="st18" d="M79.9,100.9c0.2,0,0.3,0,0.4,0.1c0.1,0,0.2,0.1,0.2,0.2c0.1,0.1,0.2,0.2,0.2,0.3
										c0.1,0.1,0.1,0.3,0.2,0.4c0,0.2,0.1,0.4,0.2,0.7c0.1,0.5,0.2,1.1,0.3,1.6c0.1,0.6,0.2,1.1,0.2,1.6c0.4-0.6,0.7-1.1,1-1.6
										c0.3-0.5,0.5-1,0.6-1.4c0.1-0.4,0.2-0.7,0.2-1c0-0.2,0-0.3-0.1-0.4c-0.1-0.1-0.2-0.1-0.4-0.1l0.1-0.3h1.6l0.2,0.3
										c-0.3,0.8-0.7,1.7-1.2,2.7c-0.5,0.9-1.1,1.8-1.7,2.8c-0.6,0.9-1.2,1.5-1.6,1.9c-0.3,0.3-0.6,0.5-0.8,0.6
										c-0.2,0.1-0.4,0.1-0.7,0.1c-0.1,0-0.2,0-0.3,0c-0.1,0-0.2,0-0.3-0.1l0.3-1.2h0.5c0,0.3,0.1,0.4,0.3,0.4
										c0.2,0,0.5-0.1,0.8-0.4c0.3-0.3,0.7-0.7,1.1-1.3c-0.1-0.7-0.3-1.5-0.5-2.5c-0.2-1.1-0.4-1.7-0.4-2
										c-0.1-0.3-0.2-0.5-0.3-0.6c-0.1-0.1-0.1-0.1-0.2-0.1c-0.1,0-0.2,0.1-0.4,0.2c-0.1,0.1-0.2,0.3-0.4,0.5l-0.4-0.3
										c0.3-0.4,0.5-0.7,0.8-0.9C79.3,101,79.6,100.9,79.9,100.9L79.9,100.9z M73.7,100.9c0.1,0,0.2,0,0.3,0
										c0.1,0,0.2,0.1,0.2,0.1c0.1,0.1,0.1,0.1,0.2,0.2c0.1,0.1,0.1,0.2,0.2,0.4c0.1,0.2,0.1,0.4,0.1,0.6c0,0.2,0.1,0.5,0.1,0.7
										H75c0.4-0.5,0.7-0.9,0.9-1.2s0.4-0.4,0.5-0.6c0.1-0.1,0.3-0.2,0.4-0.3c0.1,0,0.3-0.1,0.5-0.1c0.2,0,0.3,0,0.5,0.1l-0.2,1.1
										h-0.4c0-0.2-0.1-0.3-0.2-0.3c0,0-0.1,0-0.1,0c0,0-0.1,0-0.1,0.1c-0.1,0-0.1,0.1-0.3,0.2c-0.1,0.1-0.2,0.3-0.4,0.4
										c-0.1,0.2-0.3,0.3-0.4,0.5l-0.4,0.5c0.1,0.4,0.1,0.7,0.2,1c0.1,0.3,0.1,0.5,0.2,0.7c0,0.2,0.1,0.3,0.1,0.4
										c0,0.1,0.1,0.2,0.1,0.2c0,0.1,0.1,0.1,0.1,0.1s0.1,0,0.2,0c0.1,0,0.2,0,0.3-0.1s0.2-0.3,0.4-0.6l0.4,0.3
										c-0.3,0.4-0.5,0.7-0.8,0.9c-0.2,0.2-0.5,0.3-0.8,0.3c-0.2,0-0.3,0-0.4-0.1c-0.1-0.1-0.2-0.2-0.3-0.3
										c-0.1-0.1-0.2-0.3-0.2-0.6c-0.1-0.5-0.2-0.9-0.2-1.2h-0.1c-0.4,0.6-0.7,1-0.9,1.3c-0.2,0.3-0.4,0.4-0.5,0.6
										c-0.1,0.1-0.3,0.2-0.4,0.3c-0.1,0-0.3,0.1-0.5,0.1c-0.2,0-0.3,0-0.5-0.1l0.2-1.1h0.4c0,0.2,0.1,0.3,0.2,0.3
										c0.1,0,0.1,0,0.2,0c0.1,0,0.2-0.1,0.3-0.2c0.1-0.1,0.3-0.3,0.5-0.5c0.2-0.2,0.5-0.6,0.9-1.1c-0.1-0.3-0.1-0.6-0.2-0.9
										c-0.1-0.3-0.1-0.6-0.2-0.8c-0.1-0.3-0.1-0.4-0.2-0.5c0-0.1-0.1-0.1-0.1-0.2c0,0-0.1,0-0.2,0c-0.1,0-0.2,0-0.2,0.1
										c-0.1,0-0.1,0.1-0.2,0.2c-0.1,0.1-0.2,0.2-0.3,0.4l-0.4-0.3c0.3-0.4,0.5-0.7,0.7-0.8S73.4,100.9,73.7,100.9L73.7,100.9z"/>
									<g class="st19">
										<defs>
											<polygon id="SVGID_18_" points="1.4,190.4 197.8,190.4 197.8,13 1.4,13 1.4,195.4 											"/>
										</defs>
										<clipPath id="SVGID_19_">
											<use xlink:href="#SVGID_18_"  style="overflow:visible;"/>
										</clipPath>
										<polygon class="st20" points="88.4,102.8 95.8,102.8 95.8,103.6 88.4,103.6 88.4,102.8 										"/>
										<g class="st21">
											<defs>
												<polygon id="SVGID_20_" points="1.4,190.4 197.8,190.4 197.8,13 1.4,13 1.4,195.4 												"/>
											</defs>
											<clipPath id="SVGID_21_">
												<use xlink:href="#SVGID_20_"  style="overflow:visible;"/>
											</clipPath>
											<path class="st22" d="M103.8,101.6c-0.2,0-0.4,0.1-0.6,0.2c-0.2,0.1-0.4,0.4-0.6,0.7c-0.2,0.3-0.4,0.6-0.5,0.9
												c-0.1,0.3-0.2,0.6-0.3,1l0,0.3c0,0.2-0.1,0.4-0.1,0.5c0,0.1,0,0.2,0,0.3c0,0.3,0.1,0.5,0.2,0.7c0.1,0.1,0.4,0.2,0.7,0.2
												c0.2,0,0.4,0,0.6-0.1c0.2-0.1,0.3-0.2,0.5-0.3c0.2-0.2,0.3-0.3,0.4-0.5c0.1-0.2,0.2-0.5,0.3-0.7c0.1-0.3,0.2-0.6,0.2-0.9
												c0-0.3,0.1-0.6,0.1-0.8c0-0.4-0.1-0.7-0.2-0.9C104.2,101.7,104.1,101.6,103.8,101.6L103.8,101.6z M127.8,101.4
												c-0.4,0-0.8,0.2-1.2,0.6c-0.4,0.4-0.7,1-0.9,1.6c0.6,0,1-0.1,1.4-0.2c0.4-0.1,0.7-0.3,0.9-0.5c0.2-0.2,0.3-0.5,0.3-0.9
												c0-0.2-0.1-0.4-0.2-0.6C128.1,101.5,128,101.4,127.8,101.4L127.8,101.4z M113.9,101.4c-0.4,0-0.8,0.2-1.1,0.5
												c-0.3,0.3-0.6,0.8-0.8,1.3c-0.2,0.6-0.3,1.1-0.3,1.7c0,0.4,0.1,0.7,0.2,0.9c0.1,0.2,0.3,0.3,0.6,0.3
												c0.3,0,0.5-0.1,0.8-0.3s0.5-0.6,0.8-1s0.5-0.9,0.6-1.5l0.1-0.3c0-0.2,0.1-0.3,0.1-0.4c0-0.1,0-0.2,0-0.4
												c0-0.3-0.1-0.5-0.2-0.7C114.5,101.5,114.2,101.4,113.9,101.4L113.9,101.4z M128,100.9c0.5,0,0.8,0.1,1.1,0.3
												c0.2,0.2,0.4,0.5,0.4,0.9c0,0.7-0.3,1.2-1,1.5c-0.6,0.3-1.6,0.5-2.8,0.5c0,0.2-0.1,0.5-0.1,0.8c0,0.4,0.1,0.7,0.2,0.9
												c0.2,0.2,0.4,0.3,0.8,0.3c0.4,0,0.7-0.1,1-0.2c0.3-0.2,0.6-0.4,0.9-0.7l0.4,0.4c-0.4,0.4-0.8,0.7-1.2,1
												c-0.4,0.2-0.9,0.3-1.4,0.3c-0.6,0-1-0.2-1.3-0.5c-0.3-0.4-0.5-0.8-0.5-1.5c0-0.4,0.1-0.9,0.2-1.4
												c0.2-0.5,0.4-0.9,0.7-1.3c0.3-0.4,0.7-0.7,1.1-0.9C127,101,127.5,100.9,128,100.9L128,100.9z M118.8,100.9
												c0.3,0,0.4,0.1,0.6,0.2c0.1,0.2,0.2,0.4,0.2,0.6c0,0.2,0,0.4-0.1,0.7l0.1,0c0.4-0.5,0.8-1,1.1-1.2
												c0.4-0.3,0.7-0.4,1.1-0.4c0.4,0,0.7,0.1,0.9,0.3c0.2,0.2,0.3,0.5,0.3,0.9c0,0.3-0.1,0.6-0.2,1.1l-0.4,1.6
												c-0.1,0.4-0.2,0.7-0.2,0.9c0,0.2,0,0.3,0.1,0.3c0.1,0.1,0.1,0.1,0.2,0.1c0.1,0,0.2,0,0.4-0.1c0.1-0.1,0.3-0.3,0.6-0.6
												l0.3,0.3c-0.3,0.4-0.6,0.6-0.9,0.8c-0.3,0.2-0.5,0.3-0.9,0.3c-0.3,0-0.5-0.1-0.6-0.3c-0.2-0.2-0.2-0.4-0.2-0.7
												c0-0.3,0.1-0.6,0.2-1.1l0.3-1c0.1-0.4,0.2-0.7,0.2-0.8c0-0.2,0-0.3,0-0.4c0-0.3,0-0.5-0.1-0.6c-0.1-0.1-0.2-0.2-0.4-0.2
												c-0.2,0-0.3,0.1-0.5,0.2c-0.2,0.1-0.4,0.3-0.6,0.6c-0.2,0.3-0.4,0.5-0.5,0.8c-0.1,0.3-0.2,0.6-0.3,0.9l-0.6,2.6h-1
												l0.9-3.8c0.1-0.4,0.1-0.7,0.1-0.9c0-0.2,0-0.3-0.1-0.3c-0.1-0.1-0.1-0.1-0.2-0.1c-0.1,0-0.3,0.1-0.4,0.2
												c-0.1,0.1-0.3,0.3-0.6,0.6l-0.3-0.3c0.4-0.4,0.7-0.7,0.9-0.8C118.2,101,118.5,100.9,118.8,100.9L118.8,100.9z
												 M113.8,100.9c0.3,0,0.5,0,0.7,0.1c0.2,0.1,0.5,0.2,0.7,0.3l0.5-0.4l0.4,0.1l-0.9,3.8c-0.1,0.4-0.1,0.7-0.1,0.9
												c0,0.2,0,0.3,0.1,0.3c0.1,0.1,0.1,0.1,0.2,0.1c0.1,0,0.2,0,0.4-0.1c0.1-0.1,0.3-0.3,0.6-0.6l0.3,0.3
												c-0.4,0.4-0.7,0.7-0.9,0.8s-0.5,0.2-0.8,0.2c-0.2,0-0.4-0.1-0.6-0.2c-0.1-0.2-0.2-0.4-0.2-0.7c0-0.2,0-0.5,0.1-0.7
												l-0.1,0c-0.4,0.6-0.7,1-1.1,1.2c-0.3,0.3-0.7,0.4-1.1,0.4c-0.4,0-0.8-0.2-1-0.5c-0.2-0.3-0.4-0.8-0.4-1.4
												c0-0.7,0.1-1.3,0.4-2c0.3-0.6,0.6-1.1,1.1-1.5C112.7,101.1,113.2,100.9,113.8,100.9L113.8,100.9z M101.3,100.9
												c0.2,0,0.4,0.1,0.6,0.2c0.1,0.2,0.2,0.4,0.2,0.7c0,0.2,0,0.5-0.1,0.7l0.1,0c0.7-1.1,1.5-1.6,2.2-1.6c0.4,0,0.8,0.2,1,0.5
												c0.2,0.3,0.4,0.8,0.4,1.4c0,0.7-0.1,1.3-0.4,1.9c-0.3,0.6-0.6,1.1-1.1,1.5c-0.5,0.4-1,0.6-1.6,0.6c-0.5,0-1-0.1-1.3-0.3
												l-0.3,1.3c-0.1,0.3-0.1,0.5-0.1,0.7c0,0.2,0,0.3,0.1,0.4c0.1,0.1,0.3,0.1,0.5,0.1l0,0.3h-1.8l1.4-6.3
												c0.1-0.4,0.1-0.7,0.1-0.9c0-0.2,0-0.3-0.1-0.3c-0.1-0.1-0.1-0.1-0.2-0.1c-0.1,0-0.3,0.1-0.4,0.2
												c-0.1,0.1-0.3,0.3-0.6,0.6l-0.3-0.3c0.4-0.4,0.7-0.6,0.9-0.8C100.7,101,101,100.9,101.3,100.9L101.3,100.9z M109.3,98.2
												h0.4l-1.5,6.6c-0.1,0.4-0.1,0.7-0.1,0.9c0,0.2,0,0.3,0.1,0.3c0.1,0.1,0.1,0.1,0.2,0.1c0.1,0,0.2,0,0.4-0.1
												c0.1-0.1,0.3-0.3,0.6-0.6l0.3,0.3c-0.4,0.4-0.7,0.7-0.9,0.8s-0.5,0.2-0.8,0.2c-0.3,0-0.5-0.1-0.6-0.3
												c-0.2-0.2-0.2-0.4-0.2-0.7c0-0.3,0.1-0.7,0.2-1.2l1.1-4.8c0-0.2,0.1-0.4,0.1-0.5c0-0.1,0-0.2,0-0.3c0-0.1,0-0.2-0.1-0.3
												c0-0.1-0.1-0.1-0.2-0.1c-0.1,0-0.2,0-0.4-0.1l0.1-0.3L109.3,98.2L109.3,98.2z"/>
											<g class="st23">
												<defs>
													<polygon id="SVGID_22_" points="1.4,190.4 197.8,190.4 197.8,13 1.4,13 1.4,195.4 													"/>
												</defs>
												<clipPath id="SVGID_23_">
													<use xlink:href="#SVGID_22_"  style="overflow:visible;"/>
												</clipPath>
												<path class="st24" d="M130.6,98.1c1.2,0.3,2.1,1,2.7,2s0.9,2.2,0.9,3.7c0,1.4-0.3,2.7-0.9,3.7c-0.6,1-1.5,1.7-2.7,2
													l-0.1-0.5c0.9-0.3,1.6-0.9,2.1-1.8c0.4-0.9,0.7-2.1,0.7-3.4c0-1.3-0.2-2.5-0.7-3.4c-0.4-0.9-1.1-1.5-2.1-1.8L130.6,98.1
													z"/>
												<g class="st25">
													<defs>
														<polygon id="SVGID_24_" points="1.4,190.4 197.8,190.4 197.8,13 1.4,13 1.4,195.4 														"/>
													</defs>
													<clipPath id="SVGID_25_">
														<use xlink:href="#SVGID_24_"  style="overflow:visible;"/>
													</clipPath>
													<path class="st26" d="M100.7,182.5c-0.3,0-0.6,0.2-0.9,0.5c-0.3,0.3-0.5,0.7-0.6,1.2c0.4,0,0.8,0,1.1-0.1
														c0.3-0.1,0.5-0.2,0.7-0.3c0.2-0.2,0.2-0.4,0.2-0.6c0-0.2,0-0.3-0.1-0.4S100.9,182.5,100.7,182.5L100.7,182.5z
														 M86,182.5c-0.3,0-0.6,0.1-0.8,0.4c-0.2,0.2-0.4,0.6-0.6,1c-0.1,0.4-0.2,0.8-0.2,1.2c0,0.3,0,0.5,0.1,0.7
														s0.2,0.2,0.4,0.2c0.2,0,0.3-0.1,0.5-0.2c0.2-0.1,0.3-0.3,0.5-0.5c0.2-0.2,0.3-0.4,0.4-0.6s0.2-0.5,0.2-0.8
														s0.1-0.6,0.1-0.8c0-0.2,0-0.4-0.1-0.5C86.4,182.6,86.3,182.5,86,182.5L86,182.5z M81.6,182.2h0.3l-0.6,2.9
														c-0.1,0.3-0.1,0.5-0.1,0.7c0,0.1,0,0.2,0.1,0.3s0.1,0.1,0.2,0.1c0.1,0,0.2,0,0.3-0.1c0.1-0.1,0.2-0.2,0.4-0.4l0.3,0.3
														c-0.3,0.3-0.5,0.5-0.7,0.6c-0.2,0.1-0.4,0.2-0.6,0.2c-0.2,0-0.3-0.1-0.5-0.2c-0.1-0.1-0.2-0.3-0.2-0.5
														c0-0.2,0-0.5,0.1-0.9l0.3-1.5c0.1-0.3,0.1-0.5,0.1-0.7c0-0.1,0-0.2-0.1-0.3c-0.1,0-0.2-0.1-0.4-0.1l0-0.2L81.6,182.2
														L81.6,182.2z M100.9,182.1c0.4,0,0.6,0.1,0.8,0.2c0.2,0.1,0.3,0.4,0.3,0.7c0,0.5-0.2,0.9-0.7,1.1
														c-0.5,0.3-1.2,0.4-2.1,0.4c0,0.2-0.1,0.4-0.1,0.6c0,0.3,0.1,0.5,0.2,0.7c0.1,0.1,0.3,0.2,0.6,0.2
														c0.3,0,0.5-0.1,0.7-0.2c0.2-0.1,0.5-0.3,0.7-0.5l0.3,0.3c-0.3,0.3-0.6,0.6-0.9,0.7c-0.3,0.2-0.6,0.2-1,0.2
														c-0.4,0-0.8-0.1-1-0.4c-0.2-0.3-0.4-0.6-0.4-1.1c0-0.3,0.1-0.7,0.2-1c0.1-0.4,0.3-0.7,0.5-1c0.2-0.3,0.5-0.5,0.8-0.7
														C100.2,182.2,100.5,182.1,100.9,182.1L100.9,182.1z M94.9,182.1c0.2,0,0.3,0.1,0.4,0.2c0.1,0.1,0.2,0.3,0.2,0.5
														c0,0.1,0,0.3-0.1,0.5l0.1,0c0.3-0.4,0.6-0.7,0.8-0.9c0.3-0.2,0.5-0.3,0.8-0.3c0.2,0,0.4,0,0.5,0l-0.2,1H97
														c0-0.1,0-0.2-0.1-0.3s-0.1-0.1-0.1-0.1c0,0-0.1,0-0.2,0c-0.1,0-0.2,0-0.4,0.1c-0.1,0.1-0.3,0.2-0.4,0.4
														c-0.2,0.2-0.3,0.4-0.4,0.6c-0.1,0.2-0.2,0.4-0.2,0.7l-0.4,1.9h-0.8l0.6-2.8c0-0.2,0.1-0.3,0.1-0.4c0-0.1,0-0.2,0-0.2
														c0-0.1,0-0.2-0.1-0.3s-0.1-0.1-0.2-0.1c-0.1,0-0.2,0-0.3,0.1c-0.1,0.1-0.2,0.2-0.4,0.4l-0.3-0.3
														c0.3-0.3,0.5-0.5,0.7-0.6S94.7,182.1,94.9,182.1L94.9,182.1z M89.7,182.1c0.2,0,0.3,0.1,0.5,0.2
														c0.1,0.1,0.2,0.3,0.2,0.5c0,0.2,0,0.5-0.1,0.9l-0.2,0.8c-0.1,0.2-0.1,0.4-0.1,0.5c0,0.1,0,0.2,0,0.3c0,0.1,0,0.1,0,0.2
														c0,0.2,0,0.4,0.1,0.4c0.1,0.1,0.2,0.1,0.3,0.1c0.1,0,0.3,0,0.4-0.1c0.1-0.1,0.3-0.3,0.5-0.5c0.2-0.2,0.3-0.4,0.4-0.6
														c0.1-0.2,0.2-0.4,0.2-0.7l0.4-1.9h0.8l-0.7,2.8c-0.1,0.3-0.1,0.5-0.1,0.7c0,0.1,0,0.2,0.1,0.3c0,0.1,0.1,0.1,0.2,0.1
														c0.1,0,0.2,0,0.3-0.1c0.1-0.1,0.2-0.2,0.4-0.4l0.3,0.3c-0.3,0.3-0.5,0.5-0.7,0.6c-0.2,0.1-0.4,0.2-0.6,0.2
														c-0.2,0-0.3-0.1-0.4-0.2c-0.1-0.1-0.2-0.3-0.2-0.5c0-0.2,0-0.3,0.1-0.5l-0.1,0c-0.3,0.4-0.6,0.7-0.8,0.9
														c-0.3,0.2-0.5,0.3-0.8,0.3c-0.3,0-0.5-0.1-0.6-0.2c-0.1-0.2-0.2-0.4-0.2-0.7c0-0.2,0-0.5,0.1-0.8l0.3-1.2
														c0.1-0.3,0.1-0.6,0.1-0.7c0-0.1,0-0.2-0.1-0.3c0-0.1-0.1-0.1-0.2-0.1c-0.1,0-0.2,0-0.3,0.1c-0.1,0.1-0.2,0.2-0.4,0.4
														l-0.3-0.3c0.3-0.3,0.4-0.4,0.6-0.5c0.1-0.1,0.3-0.2,0.4-0.2C89.4,182.2,89.5,182.1,89.7,182.1L89.7,182.1z M86,182.1
														c0.2,0,0.4,0,0.5,0.1c0.2,0,0.3,0.1,0.5,0.2l0.4-0.3l0.3,0.1l-0.5,2.1c0,0.1-0.1,0.5-0.2,1.1c-0.1,0.6-0.2,1.1-0.3,1.3
														c-0.1,0.3-0.2,0.5-0.3,0.7s-0.3,0.4-0.4,0.6c-0.2,0.2-0.4,0.3-0.7,0.4s-0.6,0.1-0.9,0.1c-1.1,0-1.7-0.3-1.7-1
														c0-0.2,0.1-0.3,0.2-0.5c0.1-0.1,0.3-0.3,0.5-0.4l0.3,0.3c-0.1,0.1-0.1,0.1-0.1,0.2s-0.1,0.1-0.1,0.2s0,0.1,0,0.2
														c0,0.2,0.1,0.4,0.2,0.5c0.2,0.1,0.4,0.2,0.7,0.2c0.4,0,0.7-0.1,0.9-0.2c0.2-0.2,0.4-0.4,0.6-0.8
														c0.2-0.4,0.3-0.9,0.5-1.7l-0.1,0c-0.3,0.4-0.6,0.7-0.8,0.9c-0.2,0.2-0.5,0.3-0.8,0.3c-0.3,0-0.6-0.1-0.8-0.4
														c-0.2-0.2-0.3-0.6-0.3-1c0-0.5,0.1-1,0.3-1.5c0.2-0.5,0.5-0.8,0.8-1.1C85.1,182.3,85.5,182.1,86,182.1L86,182.1z
														 M81.5,180.5h0.8l-0.2,0.9h-0.8L81.5,180.5L81.5,180.5z M78.9,180.1c0.3,0,0.5,0,0.8,0.1l-0.2,0.8h-0.4
														c0-0.2-0.1-0.3-0.2-0.4c-0.1-0.1-0.2-0.1-0.3-0.1c-0.2,0-0.3,0-0.4,0.1c-0.1,0.1-0.2,0.2-0.3,0.4
														c-0.1,0.2-0.2,0.4-0.2,0.7l-0.1,0.5h1.1l-0.1,0.5h-1.2l-0.8,3.9c-0.1,0.6-0.3,1.1-0.6,1.4c-0.3,0.3-0.6,0.5-1.1,0.5
														c-0.1,0-0.2,0-0.3,0l0.1-0.4c0,0,0.1,0,0.2,0c0.1,0,0.2,0,0.3-0.1c0.1-0.1,0.2-0.2,0.3-0.4c0.1-0.2,0.2-0.4,0.2-0.7
														l1-4.3H76l0.1-0.3c0.2,0,0.3,0,0.4,0c0.1,0,0.2-0.1,0.2-0.1s0.1-0.1,0.1-0.2c0-0.1,0.1-0.2,0.1-0.4
														c0.2-0.5,0.4-0.9,0.7-1.2S78.4,180.1,78.9,180.1L78.9,180.1z"/>
													<g class="st27">
														<defs>
															<polygon id="SVGID_26_" points="1.4,190.4 197.8,190.4 197.8,13 1.4,13 1.4,195.4 															"/>
														</defs>
														<clipPath id="SVGID_27_">
															<use xlink:href="#SVGID_26_"  style="overflow:visible;"/>
														</clipPath>
														<path class="st28" d="M108.1,180l0.1,0.3c-0.7,0.2-1.2,0.7-1.5,1.3c-0.3,0.7-0.5,1.5-0.5,2.5c0,1,0.2,1.9,0.5,2.6
															c0.3,0.7,0.8,1.1,1.5,1.4l-0.1,0.3c-0.9-0.2-1.5-0.7-2-1.5c-0.5-0.8-0.7-1.7-0.7-2.8c0-1.1,0.2-2,0.7-2.8
															C106.6,180.8,107.3,180.3,108.1,180L108.1,180z"/>
														<g class="st29">
															<defs>
																<polygon id="SVGID_28_" points="1.4,190.4 197.8,190.4 197.8,13 1.4,13 1.4,195.4 																"/>
															</defs>
															<clipPath id="SVGID_29_">
																<use xlink:href="#SVGID_28_"  style="overflow:visible;"/>
															</clipPath>
															<path class="st30" d="M111,180.7c-0.2,0-0.4,0.1-0.5,0.2s-0.3,0.3-0.3,0.5s-0.1,0.5-0.2,0.8c0,0.3-0.1,0.7-0.1,1.1
																c0,1,0.1,1.7,0.3,2.1s0.5,0.7,0.8,0.7c0.4,0,0.6-0.2,0.8-0.6c0.2-0.4,0.3-1.1,0.3-2c0-0.7,0-1.2-0.1-1.7
																s-0.2-0.7-0.4-0.9S111.2,180.7,111,180.7L111,180.7z M111,180.3c0.7,0,1.1,0.3,1.5,0.8s0.5,1.3,0.5,2.3
																c0,1.1-0.2,1.9-0.5,2.4c-0.3,0.5-0.8,0.8-1.5,0.8c-0.6,0-1.1-0.3-1.4-0.8c-0.3-0.5-0.5-1.3-0.5-2.3
																c0-0.5,0-1,0.1-1.4s0.2-0.7,0.4-1c0.2-0.3,0.4-0.5,0.6-0.6C110.4,180.4,110.7,180.3,111,180.3L111,180.3z
																 M117.3,180.1h0.3l-0.1,1H115v2c0.2-0.1,0.3-0.1,0.5-0.1c0.2,0,0.4,0,0.5,0c0.4,0,0.7,0.1,0.9,0.2
																c0.3,0.1,0.5,0.4,0.6,0.6s0.2,0.6,0.2,0.9c0,0.4-0.1,0.7-0.3,1c-0.2,0.3-0.4,0.5-0.7,0.7c-0.3,0.1-0.7,0.2-1.1,0.2
																c-0.5,0-1.1-0.1-1.6-0.3v-0.9h0.5c0.1,0.3,0.2,0.5,0.4,0.7s0.4,0.2,0.7,0.2c0.4,0,0.7-0.1,0.9-0.4s0.3-0.6,0.3-1.1
																c0-0.3-0.1-0.6-0.2-0.8c-0.1-0.2-0.3-0.4-0.4-0.4c-0.2-0.1-0.4-0.1-0.6-0.1c-0.2,0-0.4,0-0.5,0
																c-0.1,0-0.3,0.1-0.5,0.1l-0.4-0.2v-2.9h2.5c0.1,0,0.2,0,0.2,0c0,0,0.1,0,0.1-0.1
																C117.3,180.3,117.3,180.2,117.3,180.1L117.3,180.1z"/>
															<g class="st31">
																<defs>
																	<polygon id="SVGID_30_" points="1.4,190.4 197.8,190.4 197.8,13 1.4,13 1.4,195.4 																	"/>
																</defs>
																<clipPath id="SVGID_31_">
																	<use xlink:href="#SVGID_30_"  style="overflow:visible;"/>
																</clipPath>
																<path class="st32" d="M118.8,180c0.9,0.2,1.5,0.7,2,1.5c0.5,0.8,0.7,1.7,0.7,2.8c0,1.1-0.2,2-0.7,2.8
																	c-0.5,0.8-1.1,1.3-2,1.5l-0.1-0.3c0.7-0.2,1.2-0.7,1.5-1.4c0.3-0.7,0.5-1.5,0.5-2.6c0-1-0.2-1.8-0.5-2.5
																	c-0.3-0.7-0.9-1.1-1.6-1.3L118.8,180z"/>
															</g>
														</g>
													</g>
												</g>
											</g>
										</g>
									</g>
								</g>
							</g>
						</g>
					</g>
				</g>
			</g>
		</g>
	</g>
</g>
</svg>
