<?xml version="1.0" encoding="utf-8"?>
<!-- Generator: Adobe Illustrator 23.0.2, SVG Export Plug-In . SVG Version: 6.00 Build 0)  -->
<svg version="1.0" id="Layer_1" xmlns="http://www.w3.org/2000/svg" xmlns:xlink="http://www.w3.org/1999/xlink" x="0px" y="0px"
	 viewBox="0 0 163.7 46" style="enable-background:new 0 0 163.7 46;" xml:space="preserve">
<style type="text/css">
	.st0{fill:none;stroke:#000000;stroke-width:0.8876;stroke-miterlimit:8;}
	.st1{fill-rule:evenodd;clip-rule:evenodd;}
	.st2{clip-path:url(#SVGID_2_);fill-rule:evenodd;clip-rule:evenodd;}
	.st3{clip-path:url(#SVGID_2_);}
	.st4{clip-path:url(#SVGID_4_);fill-rule:evenodd;clip-rule:evenodd;}
	.st5{clip-path:url(#SVGID_4_);fill:none;stroke:#000000;stroke-width:0.3945;stroke-miterlimit:8;}
	.st6{clip-path:url(#SVGID_4_);}
	.st7{clip-path:url(#SVGID_6_);fill-rule:evenodd;clip-rule:evenodd;}
	.st8{clip-path:url(#SVGID_6_);fill:none;stroke:#000000;stroke-width:0.3945;stroke-miterlimit:8;}
	.st9{clip-path:url(#SVGID_6_);}
	.st10{clip-path:url(#SVGID_8_);fill:none;stroke:#000000;stroke-width:2.367;stroke-miterlimit:8;}
	.st11{clip-path:url(#SVGID_8_);}
	.st12{clip-path:url(#SVGID_10_);fill-rule:evenodd;clip-rule:evenodd;}
	.st13{clip-path:url(#SVGID_10_);}
	.st14{clip-path:url(#SVGID_12_);fill-rule:evenodd;clip-rule:evenodd;}
	.st15{clip-path:url(#SVGID_12_);}
	.st16{clip-path:url(#SVGID_14_);fill-rule:evenodd;clip-rule:evenodd;}
	.st17{clip-path:url(#SVGID_14_);}
	.st18{clip-path:url(#SVGID_16_);fill-rule:evenodd;clip-rule:evenodd;}
	.st19{clip-path:url(#SVGID_16_);}
	.st20{clip-path:url(#SVGID_18_);fill-rule:evenodd;clip-rule:evenodd;}
	.st21{clip-path:url(#SVGID_18_);}
	.st22{clip-path:url(#SVGID_20_);fill-rule:evenodd;clip-rule:evenodd;}
	.st23{clip-path:url(#SVGID_20_);}
	.st24{clip-path:url(#SVGID_22_);fill-rule:evenodd;clip-rule:evenodd;}
	.st25{clip-path:url(#SVGID_22_);}
	.st26{clip-path:url(#SVGID_24_);fill-rule:evenodd;clip-rule:evenodd;}
	.st27{clip-path:url(#SVGID_24_);}
	.st28{clip-path:url(#SVGID_26_);fill-rule:evenodd;clip-rule:evenodd;}
</style>
<g>
	<line class="st0" x1="7.1" y1="26.9" x2="149.2" y2="26.9"/>
	<polygon class="st1" points="148.8,25.6 151.4,26.9 148.7,28.2 148.8,25.6 	"/>
	<g>
		<defs>
			<polygon id="SVGID_1_" points="7.1,42.8 180.6,42.8 180.6,2.4 7.1,2.4 7.1,42.8 			"/>
		</defs>
		<clipPath id="SVGID_2_">
			<use xlink:href="#SVGID_1_"  style="overflow:visible;"/>
		</clipPath>
		<path class="st2" d="M153.8,30.4c0.1,0,0.2,0,0.3,0c0.1,0,0.2,0.1,0.2,0.1c0.1,0.1,0.1,0.1,0.2,0.2c0.1,0.1,0.1,0.2,0.1,0.3
			s0.1,0.3,0.1,0.5c0,0.2,0.1,0.4,0.1,0.7h0.1c0.3-0.5,0.6-0.8,0.8-1.1c0.2-0.2,0.3-0.4,0.4-0.5c0.1-0.1,0.2-0.2,0.4-0.2
			c0.1,0,0.3-0.1,0.4-0.1c0.2,0,0.3,0,0.4,0.1l-0.2,1h-0.4c0-0.2-0.1-0.2-0.2-0.2c0,0-0.1,0-0.1,0c0,0-0.1,0-0.1,0.1
			c-0.1,0-0.1,0.1-0.2,0.2c-0.1,0.1-0.2,0.2-0.3,0.4c-0.1,0.2-0.3,0.3-0.4,0.5l-0.4,0.5c0.1,0.3,0.1,0.6,0.2,0.9
			c0.1,0.3,0.1,0.5,0.2,0.6c0,0.2,0.1,0.3,0.1,0.4c0,0.1,0.1,0.2,0.1,0.2c0,0,0.1,0.1,0.1,0.1c0,0,0.1,0,0.1,0c0.1,0,0.2,0,0.3-0.1
			c0.1-0.1,0.2-0.2,0.4-0.5l0.4,0.2c-0.3,0.4-0.5,0.6-0.7,0.8c-0.2,0.2-0.4,0.2-0.7,0.2c-0.2,0-0.3,0-0.4-0.1
			c-0.1-0.1-0.2-0.1-0.3-0.3s-0.1-0.3-0.2-0.6c-0.1-0.5-0.2-0.8-0.2-1.1h-0.1c-0.4,0.5-0.7,0.9-0.8,1.2s-0.3,0.4-0.5,0.5
			c-0.1,0.1-0.2,0.2-0.4,0.2c-0.1,0-0.3,0.1-0.4,0.1c-0.2,0-0.3,0-0.4-0.1l0.2-1h0.4c0,0.2,0.1,0.2,0.2,0.2c0.1,0,0.1,0,0.2,0
			c0.1,0,0.1-0.1,0.2-0.2c0.1-0.1,0.2-0.3,0.4-0.5c0.2-0.2,0.4-0.5,0.8-1c-0.1-0.3-0.1-0.6-0.2-0.8c-0.1-0.3-0.1-0.5-0.2-0.7
			c-0.1-0.2-0.1-0.4-0.2-0.4s-0.1-0.1-0.1-0.1c0,0-0.1,0-0.2,0c-0.1,0-0.1,0-0.2,0.1c-0.1,0-0.1,0.1-0.2,0.2
			c-0.1,0.1-0.2,0.2-0.3,0.4l-0.4-0.2c0.2-0.3,0.4-0.6,0.7-0.8C153.3,30.5,153.5,30.4,153.8,30.4L153.8,30.4z"/>
		<g class="st3">
			<defs>
				<polygon id="SVGID_3_" points="7.1,42.8 180.6,42.8 180.6,2.4 7.1,2.4 7.1,42.8 				"/>
			</defs>
			<clipPath id="SVGID_4_">
				<use xlink:href="#SVGID_3_"  style="overflow:visible;"/>
			</clipPath>
			<path class="st4" d="M53.6,26.9c0-2,1.6-3.6,3.6-3.6c2,0,3.6,1.6,3.6,3.6s-1.6,3.6-3.6,3.6C55.2,30.4,53.6,28.8,53.6,26.9
				L53.6,26.9z"/>
			<path class="st5" d="M53.6,26.9c0-2,1.6-3.6,3.6-3.6c2,0,3.6,1.6,3.6,3.6s-1.6,3.6-3.6,3.6C55.2,30.4,53.6,28.8,53.6,26.9
				L53.6,26.9z"/>
			<g class="st6">
				<defs>
					<polygon id="SVGID_5_" points="7.1,42.8 180.6,42.8 180.6,2.4 7.1,2.4 7.1,42.8 					"/>
				</defs>
				<clipPath id="SVGID_6_">
					<use xlink:href="#SVGID_5_"  style="overflow:visible;"/>
				</clipPath>
				<path class="st7" d="M90.9,26.9c0-2,1.6-3.6,3.6-3.6c2,0,3.6,1.6,3.6,3.6s-1.6,3.6-3.6,3.6C92.5,30.4,90.9,28.8,90.9,26.9
					L90.9,26.9z"/>
				<path class="st8" d="M90.9,26.9c0-2,1.6-3.6,3.6-3.6c2,0,3.6,1.6,3.6,3.6s-1.6,3.6-3.6,3.6C92.5,30.4,90.9,28.8,90.9,26.9
					L90.9,26.9z"/>
				<g class="st9">
					<defs>
						<polygon id="SVGID_7_" points="7.1,42.8 180.6,42.8 180.6,2.4 7.1,2.4 7.1,42.8 						"/>
					</defs>
					<clipPath id="SVGID_8_">
						<use xlink:href="#SVGID_7_"  style="overflow:visible;"/>
					</clipPath>
					<line class="st10" x1="56.9" y1="26.9" x2="94.2" y2="26.9"/>
					<g class="st11">
						<defs>
							<polygon id="SVGID_9_" points="7.1,42.8 180.6,42.8 180.6,2.4 7.1,2.4 7.1,42.8 							"/>
						</defs>
						<clipPath id="SVGID_10_">
							<use xlink:href="#SVGID_9_"  style="overflow:visible;"/>
						</clipPath>
						<polygon class="st12" points="52.9,36.7 57.6,36.7 57.6,37.3 52.9,37.3 52.9,36.7 						"/>
						<g class="st13">
							<defs>
								<polygon id="SVGID_11_" points="7.1,42.8 180.6,42.8 180.6,2.4 7.1,2.4 7.1,42.8 								"/>
							</defs>
							<clipPath id="SVGID_12_">
								<use xlink:href="#SVGID_11_"  style="overflow:visible;"/>
							</clipPath>
							<path class="st14" d="M60.7,33.9h0.2c0,0.2,0,0.6,0,1v3.3c0,0.1,0,0.3,0,0.3c0,0.1,0,0.1,0.1,0.2c0,0,0.1,0.1,0.2,0.1
								s0.2,0,0.3,0.1c0.1,0,0.3,0,0.5,0v0.3h-2.9V39c0.3,0,0.5,0,0.6-0.1c0.1,0,0.2-0.1,0.3-0.1c0.1,0,0.1-0.1,0.1-0.2
								c0-0.1,0-0.2,0-0.4v-3.1c0-0.1,0-0.2-0.1-0.2c0,0-0.1-0.1-0.2-0.1c-0.1,0-0.2,0-0.4,0.1s-0.3,0.2-0.6,0.4L58.9,35L60.7,33.9
								L60.7,33.9z"/>
							<g class="st15">
								<defs>
									<polygon id="SVGID_13_" points="7.1,42.8 180.6,42.8 180.6,2.4 7.1,2.4 7.1,42.8 									"/>
								</defs>
								<clipPath id="SVGID_14_">
									<use xlink:href="#SVGID_13_"  style="overflow:visible;"/>
								</clipPath>
								<path class="st16" d="M95.4,33.5h0.2c0,0.2,0,0.6,0,1v3.3c0,0.1,0,0.3,0,0.3c0,0.1,0,0.1,0.1,0.2c0,0,0.1,0.1,0.2,0.1
									c0.1,0,0.2,0,0.3,0.1c0.1,0,0.3,0,0.5,0v0.3h-2.9v-0.3c0.3,0,0.5,0,0.6-0.1c0.1,0,0.2-0.1,0.3-0.1c0.1,0,0.1-0.1,0.1-0.2
									c0-0.1,0-0.2,0-0.4v-3.1c0-0.1,0-0.2-0.1-0.2c0,0-0.1-0.1-0.2-0.1c-0.1,0-0.2,0-0.4,0.1c-0.2,0.1-0.3,0.2-0.6,0.4l-0.2-0.3
									L95.4,33.5L95.4,33.5z"/>
								<g class="st17">
									<defs>
										<polygon id="SVGID_15_" points="7.1,42.8 180.6,42.8 180.6,2.4 7.1,2.4 7.1,42.8 										"/>
									</defs>
									<clipPath id="SVGID_16_">
										<use xlink:href="#SVGID_15_"  style="overflow:visible;"/>
									</clipPath>
									<polygon class="st18" points="47.3,10.7 54,10.7 54,11.4 47.3,11.4 47.3,10.7 									"/>
									<g class="st19">
										<defs>
											<polygon id="SVGID_17_" points="7.1,42.8 180.6,42.8 180.6,2.4 7.1,2.4 7.1,42.8 											"/>
										</defs>
										<clipPath id="SVGID_18_">
											<use xlink:href="#SVGID_17_"  style="overflow:visible;"/>
										</clipPath>
										<path class="st20" d="M58.3,6.8h0.3c0,0.3,0,0.8,0,1.4v4.6c0,0.2,0,0.4,0,0.5c0,0.1,0.1,0.2,0.1,0.3
											c0.1,0.1,0.1,0.1,0.3,0.2c0.1,0,0.3,0.1,0.4,0.1c0.2,0,0.4,0,0.7,0v0.4h-4v-0.4c0.4,0,0.7,0,0.9-0.1
											c0.2,0,0.3-0.1,0.4-0.1c0.1-0.1,0.2-0.1,0.2-0.3c0-0.1,0.1-0.3,0.1-0.5V8.5c0-0.1,0-0.2-0.1-0.3C57.4,8.1,57.3,8,57.3,8
											c-0.1,0-0.3,0.1-0.5,0.2S56.3,8.5,56,8.7l-0.2-0.4L58.3,6.8L58.3,6.8z"/>
										<g class="st21">
											<defs>
												<polygon id="SVGID_19_" points="7.1,42.8 180.6,42.8 180.6,2.4 7.1,2.4 7.1,42.8 												"/>
											</defs>
											<clipPath id="SVGID_20_">
												<use xlink:href="#SVGID_19_"  style="overflow:visible;"/>
											</clipPath>
											<path class="st22" d="M64.8,14.1h6.6v0.7h-6.6V14.1L64.8,14.1z M71.4,7.3v0.8l-5.8,2.2l5.8,2.2v0.8l-6.7-2.6V9.9
												L71.4,7.3L71.4,7.3z"/>
											<g class="st23">
												<defs>
													<polygon id="SVGID_21_" points="7.1,42.8 180.6,42.8 180.6,2.4 7.1,2.4 7.1,42.8 													"/>
												</defs>
												<clipPath id="SVGID_22_">
													<use xlink:href="#SVGID_21_"  style="overflow:visible;"/>
												</clipPath>
												<path class="st24" d="M77.5,9c0.1,0,0.2,0,0.3,0c0.1,0,0.2,0.1,0.2,0.1c0.1,0.1,0.1,0.1,0.2,0.2
													c0.1,0.1,0.1,0.2,0.1,0.3c0,0.1,0.1,0.3,0.1,0.5c0,0.2,0.1,0.4,0.1,0.7h0.1c0.3-0.5,0.6-0.8,0.8-1.1
													c0.2-0.2,0.3-0.4,0.4-0.5c0.1-0.1,0.2-0.2,0.4-0.2C80.3,9,80.4,9,80.6,9c0.2,0,0.3,0,0.4,0.1l-0.2,1h-0.4
													c0-0.2-0.1-0.2-0.2-0.2c0,0-0.1,0-0.1,0c0,0-0.1,0-0.1,0.1c-0.1,0-0.1,0.1-0.2,0.2c-0.1,0.1-0.2,0.2-0.3,0.4
													c-0.1,0.2-0.3,0.3-0.4,0.5l-0.4,0.5c0.1,0.3,0.1,0.6,0.2,0.9c0.1,0.3,0.1,0.5,0.2,0.6c0,0.2,0.1,0.3,0.1,0.4
													c0,0.1,0.1,0.2,0.1,0.2c0,0,0.1,0.1,0.1,0.1s0.1,0,0.1,0c0.1,0,0.2,0,0.3-0.1c0.1-0.1,0.2-0.2,0.4-0.5l0.4,0.2
													c-0.3,0.4-0.5,0.6-0.7,0.8c-0.2,0.2-0.4,0.2-0.7,0.2c-0.2,0-0.3,0-0.4-0.1c-0.1-0.1-0.2-0.1-0.3-0.3
													c-0.1-0.1-0.1-0.3-0.2-0.6c-0.1-0.5-0.2-0.8-0.2-1.1H78c-0.4,0.5-0.7,0.9-0.8,1.2c-0.2,0.2-0.3,0.4-0.5,0.5
													c-0.1,0.1-0.2,0.2-0.4,0.2c-0.1,0-0.3,0.1-0.4,0.1c-0.2,0-0.3,0-0.4-0.1l0.2-1h0.4c0,0.2,0.1,0.2,0.2,0.2
													c0.1,0,0.1,0,0.2,0c0.1,0,0.1-0.1,0.2-0.2c0.1-0.1,0.2-0.3,0.4-0.5c0.2-0.2,0.4-0.5,0.8-1c-0.1-0.3-0.1-0.6-0.2-0.8
													c-0.1-0.3-0.1-0.5-0.2-0.7c-0.1-0.2-0.1-0.4-0.2-0.4c0-0.1-0.1-0.1-0.1-0.1c0,0-0.1,0-0.2,0c-0.1,0-0.1,0-0.2,0.1
													c-0.1,0-0.1,0.1-0.2,0.2c-0.1,0.1-0.2,0.2-0.3,0.4L76.1,10c0.2-0.3,0.4-0.6,0.7-0.8C76.9,9.1,77.2,9,77.5,9L77.5,9z"/>
												<g class="st25">
													<defs>
														<polygon id="SVGID_23_" points="7.1,42.8 180.6,42.8 180.6,2.4 7.1,2.4 7.1,42.8 														"/>
													</defs>
													<clipPath id="SVGID_24_">
														<use xlink:href="#SVGID_23_"  style="overflow:visible;"/>
													</clipPath>
													<path class="st26" d="M85.4,14.1h6.6v0.7h-6.6V14.1L85.4,14.1z M92.1,7.3v0.8l-5.8,2.2l5.8,2.2v0.8l-6.7-2.6V9.9
														L92.1,7.3L92.1,7.3z"/>
													<g class="st27">
														<defs>
															<polygon id="SVGID_25_" points="7.1,42.8 180.6,42.8 180.6,2.4 7.1,2.4 7.1,42.8 															"/>
														</defs>
														<clipPath id="SVGID_26_">
															<use xlink:href="#SVGID_25_"  style="overflow:visible;"/>
														</clipPath>
														<path class="st28" d="M99.4,6.8h0.3c0,0.3,0,0.8,0,1.4v4.6c0,0.2,0,0.4,0,0.5c0,0.1,0.1,0.2,0.1,0.3s0.1,0.1,0.3,0.2
															c0.1,0,0.3,0.1,0.4,0.1c0.2,0,0.4,0,0.7,0v0.4h-4v-0.4c0.4,0,0.7,0,0.9-0.1c0.2,0,0.3-0.1,0.4-0.1
															c0.1-0.1,0.2-0.1,0.2-0.3c0-0.1,0.1-0.3,0.1-0.5V8.5c0-0.1,0-0.2-0.1-0.3C98.6,8.1,98.5,8,98.4,8
															c-0.1,0-0.3,0.1-0.5,0.2s-0.5,0.3-0.8,0.5l-0.2-0.4L99.4,6.8L99.4,6.8z"/>
													</g>
												</g>
											</g>
										</g>
									</g>
								</g>
							</g>
						</g>
					</g>
				</g>
			</g>
		</g>
	</g>
</g>
</svg>
