<?xml version="1.0" encoding="utf-8"?>
<!-- Generator: Adobe Illustrator 23.0.2, SVG Export Plug-In . SVG Version: 6.00 Build 0)  -->
<svg version="1.0" id="Layer_1" xmlns="http://www.w3.org/2000/svg" xmlns:xlink="http://www.w3.org/1999/xlink" x="0px" y="0px"
	 viewBox="0 0 163.7 46" style="enable-background:new 0 0 163.7 46;" xml:space="preserve">
<style type="text/css">
	.st0{fill:none;stroke:#000000;stroke-width:0.9431;stroke-miterlimit:8;}
	.st1{fill-rule:evenodd;clip-rule:evenodd;}
	.st2{clip-path:url(#SVGID_2_);fill-rule:evenodd;clip-rule:evenodd;}
	.st3{clip-path:url(#SVGID_2_);fill:none;stroke:#000000;stroke-width:0.4191;stroke-miterlimit:8;}
	.st4{clip-path:url(#SVGID_2_);}
	.st5{clip-path:url(#SVGID_4_);fill-rule:evenodd;clip-rule:evenodd;}
	.st6{clip-path:url(#SVGID_4_);fill:none;stroke:#000000;stroke-width:0.4191;stroke-miterlimit:8;}
	.st7{clip-path:url(#SVGID_4_);}
	.st8{clip-path:url(#SVGID_6_);fill:none;stroke:#000000;stroke-width:2.5149;stroke-miterlimit:8;}
	.st9{clip-path:url(#SVGID_6_);}
	.st10{clip-path:url(#SVGID_8_);fill-rule:evenodd;clip-rule:evenodd;}
	.st11{clip-path:url(#SVGID_8_);}
	.st12{clip-path:url(#SVGID_10_);fill-rule:evenodd;clip-rule:evenodd;}
	.st13{clip-path:url(#SVGID_10_);}
	.st14{clip-path:url(#SVGID_12_);fill-rule:evenodd;clip-rule:evenodd;}
	.st15{clip-path:url(#SVGID_12_);}
	.st16{clip-path:url(#SVGID_14_);fill-rule:evenodd;clip-rule:evenodd;}
	.st17{clip-path:url(#SVGID_14_);}
	.st18{clip-path:url(#SVGID_16_);fill-rule:evenodd;clip-rule:evenodd;}
	.st19{clip-path:url(#SVGID_16_);}
	.st20{clip-path:url(#SVGID_18_);fill-rule:evenodd;clip-rule:evenodd;}
	.st21{clip-path:url(#SVGID_18_);}
	.st22{clip-path:url(#SVGID_20_);fill-rule:evenodd;clip-rule:evenodd;}
	.st23{clip-path:url(#SVGID_20_);}
	.st24{clip-path:url(#SVGID_22_);fill-rule:evenodd;clip-rule:evenodd;}
	.st25{clip-path:url(#SVGID_22_);}
	.st26{clip-path:url(#SVGID_24_);fill-rule:evenodd;clip-rule:evenodd;}
	.st27{clip-path:url(#SVGID_24_);}
	.st28{clip-path:url(#SVGID_26_);fill-rule:evenodd;clip-rule:evenodd;}
	.st29{clip-path:url(#SVGID_26_);}
	.st30{clip-path:url(#SVGID_28_);fill-rule:evenodd;clip-rule:evenodd;}
	.st31{clip-path:url(#SVGID_28_);}
	.st32{clip-path:url(#SVGID_30_);fill:none;stroke:#000000;stroke-width:2.5149;stroke-miterlimit:8;}
	.st33{clip-path:url(#SVGID_30_);}
	.st34{clip-path:url(#SVGID_32_);fill:none;stroke:#000000;stroke-width:2.5149;stroke-miterlimit:8;}
	.st35{clip-path:url(#SVGID_32_);fill-rule:evenodd;clip-rule:evenodd;}
</style>
<g>
	<line class="st0" x1="3.5" y1="27.9" x2="154.5" y2="27.9"/>
	<polygon class="st1" points="154.1,26.5 156.9,27.9 154.1,29.3 154.1,26.5 	"/>
	<g>
		<defs>
			<polygon id="SVGID_1_" points="3.5,44.9 167.7,44.9 167.7,2.1 3.5,2.1 3.5,44.9 			"/>
		</defs>
		<clipPath id="SVGID_2_">
			<use xlink:href="#SVGID_1_"  style="overflow:visible;"/>
		</clipPath>
		<path class="st2" d="M52.9,27.9c0-2.1,1.7-3.8,3.8-3.8c2.1,0,3.8,1.7,3.8,3.8s-1.7,3.8-3.8,3.8C54.6,31.6,52.9,29.9,52.9,27.9
			L52.9,27.9z"/>
		<path class="st3" d="M52.9,27.9c0-2.1,1.7-3.8,3.8-3.8c2.1,0,3.8,1.7,3.8,3.8s-1.7,3.8-3.8,3.8C54.6,31.6,52.9,29.9,52.9,27.9
			L52.9,27.9z"/>
		<g class="st4">
			<defs>
				<polygon id="SVGID_3_" points="3.5,44.9 167.7,44.9 167.7,2.1 3.5,2.1 3.5,44.9 				"/>
			</defs>
			<clipPath id="SVGID_4_">
				<use xlink:href="#SVGID_3_"  style="overflow:visible;"/>
			</clipPath>
			<path class="st5" d="M92.6,27.9c0-2.1,1.7-3.8,3.8-3.8s3.8,1.7,3.8,3.8s-1.7,3.8-3.8,3.8S92.6,29.9,92.6,27.9L92.6,27.9z"/>
			<path class="st6" d="M92.6,27.9c0-2.1,1.7-3.8,3.8-3.8s3.8,1.7,3.8,3.8s-1.7,3.8-3.8,3.8S92.6,29.9,92.6,27.9L92.6,27.9z"/>
			<g class="st7">
				<defs>
					<polygon id="SVGID_5_" points="3.5,44.9 167.7,44.9 167.7,2.1 3.5,2.1 3.5,44.9 					"/>
				</defs>
				<clipPath id="SVGID_6_">
					<use xlink:href="#SVGID_5_"  style="overflow:visible;"/>
				</clipPath>
				<line class="st8" x1="3.5" y1="28" x2="56.1" y2="28"/>
				<g class="st9">
					<defs>
						<polygon id="SVGID_7_" points="3.5,44.9 167.7,44.9 167.7,2.1 3.5,2.1 3.5,44.9 						"/>
					</defs>
					<clipPath id="SVGID_8_">
						<use xlink:href="#SVGID_7_"  style="overflow:visible;"/>
					</clipPath>
					<polygon class="st10" points="52.2,38.4 57.2,38.4 57.2,38.9 52.2,38.9 52.2,38.4 					"/>
					<g class="st11">
						<defs>
							<polygon id="SVGID_9_" points="3.5,44.9 167.7,44.9 167.7,2.1 3.5,2.1 3.5,44.9 							"/>
						</defs>
						<clipPath id="SVGID_10_">
							<use xlink:href="#SVGID_9_"  style="overflow:visible;"/>
						</clipPath>
						<path class="st12" d="M60.5,35.4h0.2c0,0.3,0,0.6,0,1.1V40c0,0.2,0,0.3,0,0.4c0,0.1,0,0.1,0.1,0.2c0,0.1,0.1,0.1,0.2,0.1
							c0.1,0,0.2,0.1,0.3,0.1c0.1,0,0.3,0,0.5,0V41h-3v-0.3c0.3,0,0.5,0,0.7-0.1c0.1,0,0.2-0.1,0.3-0.1c0.1,0,0.1-0.1,0.1-0.2
							c0-0.1,0-0.2,0-0.4v-3.3c0-0.1,0-0.2-0.1-0.2c0-0.1-0.1-0.1-0.2-0.1c-0.1,0-0.2,0-0.4,0.1c-0.2,0.1-0.4,0.2-0.6,0.4l-0.2-0.3
							L60.5,35.4L60.5,35.4z"/>
						<g class="st13">
							<defs>
								<polygon id="SVGID_11_" points="3.5,44.9 167.7,44.9 167.7,2.1 3.5,2.1 3.5,44.9 								"/>
							</defs>
							<clipPath id="SVGID_12_">
								<use xlink:href="#SVGID_11_"  style="overflow:visible;"/>
							</clipPath>
							<path class="st14" d="M97.4,34.9h0.2c0,0.3,0,0.6,0,1.1v3.5c0,0.2,0,0.3,0,0.4c0,0.1,0,0.1,0.1,0.2c0,0.1,0.1,0.1,0.2,0.1
								c0.1,0,0.2,0.1,0.3,0.1c0.1,0,0.3,0,0.5,0v0.3h-3v-0.3c0.3,0,0.5,0,0.7-0.1c0.1,0,0.2-0.1,0.3-0.1s0.1-0.1,0.1-0.2
								c0-0.1,0-0.2,0-0.4v-3.3c0-0.1,0-0.2-0.1-0.2c0-0.1-0.1-0.1-0.2-0.1c-0.1,0-0.2,0-0.4,0.1s-0.4,0.2-0.6,0.4l-0.2-0.3
								L97.4,34.9L97.4,34.9z"/>
							<g class="st15">
								<defs>
									<polygon id="SVGID_13_" points="3.5,44.9 167.7,44.9 167.7,2.1 3.5,2.1 3.5,44.9 									"/>
								</defs>
								<clipPath id="SVGID_14_">
									<use xlink:href="#SVGID_13_"  style="overflow:visible;"/>
								</clipPath>
								<path class="st16" d="M39.3,9.1c0.1,0,0.2,0,0.3,0c0.1,0,0.2,0.1,0.2,0.1c0.1,0.1,0.1,0.1,0.2,0.2c0.1,0.1,0.1,0.2,0.2,0.4
									c0,0.2,0.1,0.3,0.1,0.6c0,0.2,0.1,0.5,0.1,0.7h0.1c0.4-0.5,0.6-0.9,0.8-1.1c0.2-0.2,0.3-0.4,0.5-0.5
									c0.1-0.1,0.3-0.2,0.4-0.2s0.3-0.1,0.5-0.1c0.2,0,0.3,0,0.4,0.1l-0.2,1h-0.4c0-0.2-0.1-0.2-0.2-0.2c0,0-0.1,0-0.1,0
									c0,0-0.1,0-0.1,0.1c-0.1,0-0.1,0.1-0.2,0.2c-0.1,0.1-0.2,0.2-0.4,0.4c-0.1,0.2-0.3,0.3-0.4,0.5l-0.4,0.5
									c0.1,0.4,0.1,0.7,0.2,0.9c0.1,0.3,0.1,0.5,0.2,0.7c0,0.2,0.1,0.3,0.1,0.4c0,0.1,0.1,0.2,0.1,0.2c0,0.1,0.1,0.1,0.1,0.1
									c0,0,0.1,0,0.2,0c0.1,0,0.2,0,0.3-0.1c0.1-0.1,0.2-0.3,0.4-0.5l0.4,0.2c-0.3,0.4-0.5,0.7-0.7,0.8c-0.2,0.2-0.5,0.2-0.8,0.2
									c-0.2,0-0.3,0-0.4-0.1c-0.1-0.1-0.2-0.2-0.3-0.3s-0.2-0.3-0.2-0.6c-0.1-0.5-0.2-0.9-0.2-1.1h-0.1c-0.4,0.6-0.7,1-0.9,1.2
									c-0.2,0.2-0.4,0.4-0.5,0.5c-0.1,0.1-0.3,0.2-0.4,0.2c-0.1,0-0.3,0.1-0.5,0.1c-0.2,0-0.3,0-0.4-0.1l0.2-1h0.4
									c0,0.2,0.1,0.2,0.2,0.2c0.1,0,0.1,0,0.2,0c0.1,0,0.1-0.1,0.3-0.2c0.1-0.1,0.3-0.3,0.5-0.5c0.2-0.2,0.5-0.6,0.8-1
									c-0.1-0.3-0.1-0.6-0.2-0.9c-0.1-0.3-0.1-0.5-0.2-0.8c-0.1-0.2-0.1-0.4-0.2-0.5s-0.1-0.1-0.1-0.2c0,0-0.1,0-0.2,0
									c-0.1,0-0.2,0-0.2,0.1c-0.1,0-0.1,0.1-0.2,0.2c-0.1,0.1-0.2,0.2-0.3,0.4l-0.4-0.2c0.2-0.4,0.5-0.6,0.7-0.8
									C38.7,9.2,39,9.1,39.3,9.1L39.3,9.1z"/>
								<g class="st17">
									<defs>
										<polygon id="SVGID_15_" points="3.5,44.9 167.7,44.9 167.7,2.1 3.5,2.1 3.5,44.9 										"/>
									</defs>
									<clipPath id="SVGID_16_">
										<use xlink:href="#SVGID_15_"  style="overflow:visible;"/>
									</clipPath>
									<path class="st18" d="M47.7,14.6h7v0.8h-7V14.6L47.7,14.6z M54.8,7.4v0.9l-6.1,2.3l6.1,2.3v0.9l-7.1-2.8v-0.8L54.8,7.4
										L54.8,7.4z"/>
									<g class="st19">
										<defs>
											<polygon id="SVGID_17_" points="3.5,44.9 167.7,44.9 167.7,2.1 3.5,2.1 3.5,44.9 											"/>
										</defs>
										<clipPath id="SVGID_18_">
											<use xlink:href="#SVGID_17_"  style="overflow:visible;"/>
										</clipPath>
										<polygon class="st20" points="59.8,11 66.8,11 66.8,11.7 59.8,11.7 59.8,11 										"/>
										<g class="st21">
											<defs>
												<polygon id="SVGID_19_" points="3.5,44.9 167.7,44.9 167.7,2.1 3.5,2.1 3.5,44.9 												"/>
											</defs>
											<clipPath id="SVGID_20_">
												<use xlink:href="#SVGID_19_"  style="overflow:visible;"/>
											</clipPath>
											<path class="st22" d="M71.4,6.8h0.3c0,0.4,0,0.9,0,1.5v4.9c0,0.2,0,0.4,0,0.5c0,0.1,0.1,0.2,0.1,0.3
												c0.1,0.1,0.2,0.1,0.3,0.2c0.1,0,0.3,0.1,0.4,0.1c0.2,0,0.4,0,0.7,0v0.4H69v-0.4c0.4,0,0.7,0,0.9-0.1
												c0.2,0,0.3-0.1,0.4-0.1c0.1-0.1,0.2-0.2,0.2-0.3s0.1-0.3,0.1-0.6V8.6c0-0.2,0-0.3-0.1-0.3c-0.1-0.1-0.1-0.1-0.2-0.1
												c-0.1,0-0.3,0.1-0.5,0.2c-0.2,0.1-0.5,0.3-0.8,0.5l-0.3-0.4L71.4,6.8L71.4,6.8z"/>
											<g class="st23">
												<defs>
													<polygon id="SVGID_21_" points="3.5,44.9 167.7,44.9 167.7,2.1 3.5,2.1 3.5,44.9 													"/>
												</defs>
												<clipPath id="SVGID_22_">
													<use xlink:href="#SVGID_21_"  style="overflow:visible;"/>
												</clipPath>
												<path class="st24" d="M80.4,9.6c-0.4,0-0.7,0.2-1,0.5c-0.3,0.3-0.5,0.8-0.7,1.4c-0.2,0.6-0.3,1.2-0.3,1.6
													c0,0.4,0.1,0.7,0.3,0.9c0.2,0.2,0.4,0.3,0.8,0.3c0.4,0,0.7-0.2,1-0.5c0.3-0.3,0.5-0.8,0.7-1.4c0.2-0.6,0.3-1.1,0.3-1.6
													c0-0.4-0.1-0.7-0.2-0.9C80.9,9.7,80.7,9.6,80.4,9.6L80.4,9.6z M80.5,9.1c0.6,0,1.1,0.2,1.4,0.5c0.3,0.3,0.5,0.8,0.5,1.4
													c0,0.4-0.1,0.9-0.2,1.4c-0.2,0.5-0.4,0.9-0.6,1.3c-0.3,0.3-0.6,0.6-1,0.8c-0.4,0.2-0.8,0.3-1.3,0.3
													c-0.6,0-1.1-0.2-1.4-0.5c-0.3-0.3-0.5-0.8-0.5-1.4c0-0.3,0-0.7,0.1-1.1c0.1-0.5,0.3-1,0.6-1.4c0.3-0.4,0.6-0.7,1-0.9
													C79.5,9.2,80,9.1,80.5,9.1L80.5,9.1z M84.8,9.1c0.2,0,0.4,0.1,0.6,0.2c0.1,0.2,0.2,0.4,0.2,0.6c0,0.2,0,0.4-0.1,0.6
													l0.1,0c0.4-0.5,0.7-0.9,1.1-1.1c0.3-0.2,0.7-0.4,1.1-0.4c0.3,0,0.5,0,0.7,0.1l-0.3,1.3h-0.6c0-0.2-0.1-0.3-0.1-0.4
													c0-0.1-0.1-0.1-0.1-0.2c-0.1,0-0.1-0.1-0.2-0.1c-0.1,0-0.3,0.1-0.4,0.2c-0.2,0.1-0.3,0.3-0.5,0.6
													c-0.2,0.3-0.4,0.5-0.5,0.7s-0.2,0.5-0.3,0.9l-0.5,2.5h-1l0.8-3.6c0.1-0.2,0.1-0.4,0.1-0.5c0-0.1,0-0.2,0-0.3
													c0-0.2,0-0.3-0.1-0.3s-0.1-0.1-0.2-0.1c-0.1,0-0.2,0-0.4,0.1c-0.1,0.1-0.3,0.3-0.5,0.5l-0.3-0.3
													c0.4-0.4,0.6-0.6,0.9-0.8C84.2,9.2,84.5,9.1,84.8,9.1L84.8,9.1z"/>
												<g class="st25">
													<defs>
														<polygon id="SVGID_23_" points="3.5,44.9 167.7,44.9 167.7,2.1 3.5,2.1 3.5,44.9 														"/>
													</defs>
													<clipPath id="SVGID_24_">
														<use xlink:href="#SVGID_23_"  style="overflow:visible;"/>
													</clipPath>
													<path class="st26" d="M93.7,9.1c0.1,0,0.2,0,0.3,0c0.1,0,0.2,0.1,0.2,0.1c0.1,0.1,0.1,0.1,0.2,0.2
														c0.1,0.1,0.1,0.2,0.2,0.4s0.1,0.3,0.1,0.6c0,0.2,0.1,0.5,0.1,0.7h0.1c0.4-0.5,0.6-0.9,0.8-1.1c0.2-0.2,0.3-0.4,0.5-0.5
														c0.1-0.1,0.3-0.2,0.4-0.2c0.1,0,0.3-0.1,0.5-0.1c0.2,0,0.3,0,0.4,0.1l-0.2,1h-0.4c0-0.2-0.1-0.2-0.2-0.2
														c0,0-0.1,0-0.1,0c0,0-0.1,0-0.1,0.1c-0.1,0-0.1,0.1-0.2,0.2c-0.1,0.1-0.2,0.2-0.4,0.4c-0.1,0.2-0.3,0.3-0.4,0.5
														L95,11.7c0.1,0.4,0.1,0.7,0.2,0.9c0.1,0.3,0.1,0.5,0.2,0.7c0,0.2,0.1,0.3,0.1,0.4c0,0.1,0.1,0.2,0.1,0.2
														c0,0.1,0.1,0.1,0.1,0.1s0.1,0,0.2,0c0.1,0,0.2,0,0.3-0.1c0.1-0.1,0.2-0.3,0.4-0.5l0.4,0.2c-0.3,0.4-0.5,0.7-0.7,0.8
														c-0.2,0.2-0.5,0.2-0.8,0.2c-0.2,0-0.3,0-0.4-0.1c-0.1-0.1-0.2-0.2-0.3-0.3c-0.1-0.1-0.2-0.3-0.2-0.6
														c-0.1-0.5-0.2-0.9-0.2-1.1h-0.1c-0.4,0.6-0.7,1-0.9,1.2c-0.2,0.2-0.4,0.4-0.5,0.5c-0.1,0.1-0.3,0.2-0.4,0.2
														c-0.1,0-0.3,0.1-0.5,0.1c-0.2,0-0.3,0-0.4-0.1l0.2-1h0.4c0,0.2,0.1,0.2,0.2,0.2c0.1,0,0.1,0,0.2,0
														c0.1,0,0.1-0.1,0.3-0.2c0.1-0.1,0.3-0.3,0.5-0.5s0.5-0.6,0.8-1c-0.1-0.3-0.1-0.6-0.2-0.9c-0.1-0.3-0.1-0.5-0.2-0.8
														c-0.1-0.2-0.1-0.4-0.2-0.5s-0.1-0.1-0.1-0.2c0,0-0.1,0-0.2,0c-0.1,0-0.2,0-0.2,0.1C93,9.9,93,9.9,92.9,10
														c-0.1,0.1-0.2,0.2-0.3,0.4l-0.4-0.2c0.2-0.4,0.5-0.6,0.7-0.8C93.1,9.2,93.4,9.1,93.7,9.1L93.7,9.1z"/>
													<g class="st27">
														<defs>
															<polygon id="SVGID_25_" points="3.5,44.9 167.7,44.9 167.7,2.1 3.5,2.1 3.5,44.9 															"/>
														</defs>
														<clipPath id="SVGID_26_">
															<use xlink:href="#SVGID_25_"  style="overflow:visible;"/>
														</clipPath>
														<path class="st28" d="M104.7,14.6h7v0.8h-7V14.6L104.7,14.6z M104.7,7.4l7.1,2.8v0.8l-7.1,2.8v-0.9l6.1-2.3l-6.1-2.3
															V7.4L104.7,7.4z"/>
														<g class="st29">
															<defs>
																<polygon id="SVGID_27_" points="3.5,44.9 167.7,44.9 167.7,2.1 3.5,2.1 3.5,44.9 																"/>
															</defs>
															<clipPath id="SVGID_28_">
																<use xlink:href="#SVGID_27_"  style="overflow:visible;"/>
															</clipPath>
															<path class="st30" d="M119.6,6.8h0.3c0,0.4,0,0.9,0,1.5v4.9c0,0.2,0,0.4,0,0.5c0,0.1,0.1,0.2,0.1,0.3
																c0.1,0.1,0.2,0.1,0.3,0.2c0.1,0,0.3,0.1,0.4,0.1s0.4,0,0.7,0v0.4h-4.2v-0.4c0.4,0,0.7,0,0.9-0.1
																c0.2,0,0.3-0.1,0.4-0.1s0.2-0.2,0.2-0.3c0-0.1,0.1-0.3,0.1-0.6V8.6c0-0.2,0-0.3-0.1-0.3c-0.1-0.1-0.1-0.1-0.2-0.1
																c-0.1,0-0.3,0.1-0.5,0.2c-0.2,0.1-0.5,0.3-0.8,0.5l-0.3-0.4L119.6,6.8L119.6,6.8z"/>
															<g class="st31">
																<defs>
																	<polygon id="SVGID_29_" points="3.5,44.9 167.7,44.9 167.7,2.1 3.5,2.1 3.5,44.9 																	"/>
																</defs>
																<clipPath id="SVGID_30_">
																	<use xlink:href="#SVGID_29_"  style="overflow:visible;"/>
																</clipPath>
																<line class="st32" x1="95.3" y1="27.9" x2="149.9" y2="27.9"/>
																<g class="st33">
																	<defs>
																		<polygon id="SVGID_31_" points="3.5,44.9 167.7,44.9 167.7,2.1 3.5,2.1 3.5,44.9 																		"/>
																	</defs>
																	<clipPath id="SVGID_32_">
																		<use xlink:href="#SVGID_31_"  style="overflow:visible;"/>
																	</clipPath>
																	<line class="st34" x1="140.3" y1="27.9" x2="153.9" y2="27.9"/>
																	<polygon class="st35" points="152.6,24.1 160.1,27.9 152.6,31.6 152.6,24.1 																	"/>
																</g>
															</g>
														</g>
													</g>
												</g>
											</g>
										</g>
									</g>
								</g>
							</g>
						</g>
					</g>
				</g>
			</g>
		</g>
	</g>
</g>
</svg>
