<?xml version="1.0" encoding="utf-8"?>
<!-- Generator: Adobe Illustrator 23.0.2, SVG Export Plug-In . SVG Version: 6.00 Build 0)  -->
<svg version="1.0" id="Layer_1" xmlns="http://www.w3.org/2000/svg" xmlns:xlink="http://www.w3.org/1999/xlink" x="0px" y="0px"
	 viewBox="0 0 212.7 187.7" style="enable-background:new 0 0 212.7 187.7;" xml:space="preserve">
<style type="text/css">
	.st0{fill:none;stroke:#0303C3;stroke-width:1.1506;stroke-miterlimit:8;stroke-dasharray:7.7828,4.3238;}
	.st1{clip-path:url(#SVGID_2_);fill:none;stroke:#0303C3;stroke-width:1.1506;stroke-miterlimit:8;stroke-dasharray:7.7828,4.3238;}
	.st2{clip-path:url(#SVGID_2_);}
	.st3{clip-path:url(#SVGID_4_);fill:none;stroke:#000000;stroke-width:1.1505;stroke-miterlimit:8;}
	.st4{clip-path:url(#SVGID_4_);fill-rule:evenodd;clip-rule:evenodd;}
	.st5{clip-path:url(#SVGID_4_);}
	.st6{clip-path:url(#SVGID_6_);fill:none;stroke:#000000;stroke-width:1.1505;stroke-miterlimit:8;}
	.st7{clip-path:url(#SVGID_6_);fill-rule:evenodd;clip-rule:evenodd;}
	.st8{clip-path:url(#SVGID_6_);}
	.st9{clip-path:url(#SVGID_8_);fill-rule:evenodd;clip-rule:evenodd;}
	.st10{clip-path:url(#SVGID_8_);}
	.st11{clip-path:url(#SVGID_10_);fill-rule:evenodd;clip-rule:evenodd;}
	.st12{clip-path:url(#SVGID_10_);}
	.st13{clip-path:url(#SVGID_12_);fill-rule:evenodd;clip-rule:evenodd;}
	.st14{clip-path:url(#SVGID_12_);}
	.st15{clip-path:url(#SVGID_14_);fill-rule:evenodd;clip-rule:evenodd;}
	.st16{clip-path:url(#SVGID_14_);}
	.st17{clip-path:url(#SVGID_16_);fill-rule:evenodd;clip-rule:evenodd;}
	.st18{clip-path:url(#SVGID_16_);}
	.st19{clip-path:url(#SVGID_18_);fill-rule:evenodd;clip-rule:evenodd;}
	.st20{clip-path:url(#SVGID_18_);}
	.st21{clip-path:url(#SVGID_20_);fill-rule:evenodd;clip-rule:evenodd;}
	.st22{clip-path:url(#SVGID_20_);}
	.st23{clip-path:url(#SVGID_22_);fill:none;stroke:#000000;stroke-width:1.1505;stroke-miterlimit:8;}
	.st24{clip-path:url(#SVGID_22_);}
	.st25{clip-path:url(#SVGID_24_);fill-rule:evenodd;clip-rule:evenodd;}
	.st26{clip-path:url(#SVGID_24_);}
	.st27{clip-path:url(#SVGID_26_);fill-rule:evenodd;clip-rule:evenodd;}
	.st28{clip-path:url(#SVGID_26_);}
	.st29{clip-path:url(#SVGID_28_);fill-rule:evenodd;clip-rule:evenodd;}
	.st30{clip-path:url(#SVGID_28_);}
	.st31{clip-path:url(#SVGID_30_);fill-rule:evenodd;clip-rule:evenodd;}
	.st32{clip-path:url(#SVGID_30_);}
	.st33{clip-path:url(#SVGID_32_);fill-rule:evenodd;clip-rule:evenodd;}
	.st34{clip-path:url(#SVGID_32_);}
	.st35{clip-path:url(#SVGID_34_);fill-rule:evenodd;clip-rule:evenodd;}
	.st36{clip-path:url(#SVGID_34_);}
	.st37{clip-path:url(#SVGID_36_);fill-rule:evenodd;clip-rule:evenodd;}
	.st38{clip-path:url(#SVGID_36_);}
	.st39{clip-path:url(#SVGID_38_);fill-rule:evenodd;clip-rule:evenodd;}
	.st40{clip-path:url(#SVGID_38_);}
	.st41{clip-path:url(#SVGID_40_);fill-rule:evenodd;clip-rule:evenodd;}
	.st42{clip-path:url(#SVGID_40_);}
	.st43{clip-path:url(#SVGID_42_);fill-rule:evenodd;clip-rule:evenodd;fill:#0303C3;}
	.st44{clip-path:url(#SVGID_42_);fill:none;stroke:#0303C3;stroke-width:0.3835;stroke-miterlimit:8;}
	.st45{clip-path:url(#SVGID_42_);}
	.st46{clip-path:url(#SVGID_44_);fill-rule:evenodd;clip-rule:evenodd;fill:#0303C3;}
	.st47{clip-path:url(#SVGID_44_);}
	.st48{clip-path:url(#SVGID_46_);fill-rule:evenodd;clip-rule:evenodd;fill:#0303C3;}
	.st49{clip-path:url(#SVGID_46_);}
	.st50{clip-path:url(#SVGID_48_);fill-rule:evenodd;clip-rule:evenodd;fill:#0303C3;}
	.st51{clip-path:url(#SVGID_48_);}
	.st52{clip-path:url(#SVGID_50_);fill-rule:evenodd;clip-rule:evenodd;fill:#0303C3;}
	.st53{clip-path:url(#SVGID_50_);}
	.st54{clip-path:url(#SVGID_52_);fill-rule:evenodd;clip-rule:evenodd;fill:#0303C3;}
	.st55{fill-rule:evenodd;clip-rule:evenodd;fill:#0303C3;}
</style>
<g>
	<line class="st0" x1="89.6" y1="62.4" x2="89.6" y2="153.1"/>
	<g>
		<defs>
			<polygon id="SVGID_1_" points="0,184.6 215.7,184.6 215.7,-2.3 0,-2.3 0,184.6 			"/>
		</defs>
		<clipPath id="SVGID_2_">
			<use xlink:href="#SVGID_1_"  style="overflow:visible;"/>
		</clipPath>
		<line class="st1" x1="89.6" y1="62.4" x2="33.1" y2="62.4"/>
		<g class="st2">
			<defs>
				<polygon id="SVGID_3_" points="0,184.6 215.7,184.6 215.7,-2.3 0,-2.3 0,184.6 				"/>
			</defs>
			<clipPath id="SVGID_4_">
				<use xlink:href="#SVGID_3_"  style="overflow:visible;"/>
			</clipPath>
			<line class="st3" x1="24" y1="153.4" x2="203.3" y2="153.4"/>
			<polygon class="st4" points="202.7,151.6 206.2,153.4 202.7,155.1 202.7,151.6 			"/>
			<g class="st5">
				<defs>
					<polygon id="SVGID_5_" points="0,184.6 215.7,184.6 215.7,-2.3 0,-2.3 0,184.6 					"/>
				</defs>
				<clipPath id="SVGID_6_">
					<use xlink:href="#SVGID_5_"  style="overflow:visible;"/>
				</clipPath>
				<line class="st6" x1="32.8" y1="162.4" x2="32.8" y2="12.6"/>
				<polygon class="st7" points="34.5,13.2 32.8,9.7 31.1,13.2 34.5,13.2 				"/>
				<g class="st8">
					<defs>
						<polygon id="SVGID_7_" points="0,184.6 215.7,184.6 215.7,-2.3 0,-2.3 0,184.6 						"/>
					</defs>
					<clipPath id="SVGID_8_">
						<use xlink:href="#SVGID_7_"  style="overflow:visible;"/>
					</clipPath>
					<path class="st9" d="M23.5,5.5c0.2,0,0.3,0,0.5,0.1c0.1,0,0.2,0.1,0.3,0.2c0.1,0.1,0.2,0.2,0.2,0.3c0.1,0.1,0.1,0.3,0.2,0.5
						c0.1,0.2,0.1,0.4,0.2,0.8C24.9,8,25,8.6,25.1,9.2c0.1,0.6,0.2,1.2,0.3,1.8c0.4-0.6,0.8-1.2,1.1-1.8C26.8,8.6,27,8,27.1,7.6
						c0.1-0.4,0.2-0.8,0.2-1.1c0-0.2,0-0.4-0.1-0.4S27,6,26.7,5.9l0.1-0.3h1.8L28.8,6c-0.3,0.9-0.8,1.9-1.4,3c-0.6,1-1.2,2.1-2,3.1
						c-0.7,1-1.3,1.7-1.8,2.1c-0.3,0.3-0.6,0.5-1,0.6C22.4,15,22.2,15,21.9,15c-0.1,0-0.2,0-0.3,0s-0.2,0-0.3-0.1l0.3-1.3h0.5
						c0,0.3,0.1,0.4,0.3,0.4c0.3,0,0.6-0.2,0.9-0.5c0.3-0.3,0.8-0.8,1.2-1.5c-0.1-0.8-0.3-1.7-0.5-2.8C23.8,8,23.6,7.3,23.5,7
						c-0.1-0.3-0.2-0.6-0.3-0.7c-0.1-0.1-0.1-0.1-0.2-0.1c-0.1,0-0.3,0.1-0.4,0.2c-0.1,0.1-0.3,0.3-0.5,0.6l-0.4-0.3
						c0.3-0.5,0.6-0.8,0.9-1C22.8,5.6,23.1,5.5,23.5,5.5L23.5,5.5z"/>
					<g class="st10">
						<defs>
							<polygon id="SVGID_9_" points="0,184.6 215.7,184.6 215.7,-2.3 0,-2.3 0,184.6 							"/>
						</defs>
						<clipPath id="SVGID_10_">
							<use xlink:href="#SVGID_9_"  style="overflow:visible;"/>
						</clipPath>
						<path class="st11" d="M204.6,157.7c0.1,0,0.3,0,0.4,0c0.1,0,0.2,0.1,0.3,0.1c0.1,0.1,0.2,0.1,0.2,0.3c0.1,0.1,0.1,0.2,0.2,0.4
							c0.1,0.2,0.1,0.4,0.2,0.7c0.1,0.3,0.1,0.5,0.1,0.8h0.1c0.4-0.6,0.8-1.1,1-1.3c0.2-0.3,0.4-0.5,0.6-0.6
							c0.2-0.1,0.3-0.2,0.4-0.3c0.1-0.1,0.3-0.1,0.6-0.1c0.2,0,0.4,0,0.5,0.1l-0.3,1.2h-0.5c0-0.2-0.1-0.3-0.2-0.3c0,0-0.1,0-0.1,0
							c0,0-0.1,0-0.2,0.1c-0.1,0-0.2,0.1-0.3,0.3s-0.3,0.3-0.4,0.5c-0.2,0.2-0.3,0.4-0.5,0.6l-0.5,0.6c0.1,0.4,0.2,0.8,0.2,1.1
							c0.1,0.3,0.1,0.6,0.2,0.8c0.1,0.2,0.1,0.4,0.1,0.5c0,0.1,0.1,0.2,0.1,0.3c0,0.1,0.1,0.1,0.2,0.1c0.1,0,0.1,0,0.2,0
							c0.1,0,0.2,0,0.4-0.1c0.1-0.1,0.3-0.3,0.5-0.6l0.4,0.3c-0.3,0.5-0.6,0.8-0.9,1c-0.3,0.2-0.6,0.3-0.9,0.3c-0.2,0-0.4,0-0.5-0.1
							c-0.1-0.1-0.3-0.2-0.4-0.3s-0.2-0.4-0.3-0.7c-0.1-0.6-0.2-1-0.3-1.3h-0.1c-0.5,0.7-0.8,1.2-1.1,1.4c-0.2,0.3-0.4,0.5-0.6,0.6
							c-0.2,0.1-0.3,0.2-0.4,0.3s-0.3,0.1-0.6,0.1c-0.2,0-0.4,0-0.5-0.1l0.3-1.2h0.5c0,0.2,0.1,0.3,0.2,0.3c0.1,0,0.1,0,0.2-0.1
							c0.1,0,0.2-0.1,0.3-0.2s0.3-0.3,0.5-0.6c0.2-0.3,0.6-0.7,1-1.2c-0.1-0.4-0.1-0.7-0.2-1s-0.1-0.6-0.2-0.9
							c-0.1-0.3-0.1-0.5-0.2-0.6c0-0.1-0.1-0.1-0.2-0.2c-0.1,0-0.1-0.1-0.2-0.1c-0.1,0-0.2,0-0.3,0.1s-0.2,0.1-0.2,0.2
							c-0.1,0.1-0.2,0.3-0.4,0.5l-0.4-0.3c0.3-0.4,0.6-0.7,0.8-1S204.2,157.7,204.6,157.7L204.6,157.7z"/>
						<g class="st12">
							<defs>
								<polygon id="SVGID_11_" points="0,184.6 215.7,184.6 215.7,-2.3 0,-2.3 0,184.6 								"/>
							</defs>
							<clipPath id="SVGID_12_">
								<use xlink:href="#SVGID_11_"  style="overflow:visible;"/>
							</clipPath>
							<path class="st13" d="M25.7,158.2c-0.5,0-0.9,0.2-1.2,0.6c-0.3,0.4-0.6,1-0.8,1.7c-0.2,0.7-0.3,1.4-0.3,1.9
								c0,0.5,0.1,0.9,0.3,1.1c0.2,0.2,0.5,0.4,0.9,0.4c0.4,0,0.8-0.2,1.2-0.6c0.3-0.4,0.6-0.9,0.8-1.7c0.2-0.7,0.3-1.3,0.3-1.9
								c0-0.5-0.1-0.9-0.3-1.1S26.1,158.2,25.7,158.2L25.7,158.2z M25.8,157.7c0.7,0,1.3,0.2,1.6,0.6c0.4,0.4,0.6,1,0.6,1.7
								c0,0.5-0.1,1.1-0.3,1.7c-0.2,0.6-0.4,1.1-0.7,1.5c-0.3,0.4-0.7,0.7-1.1,0.9s-0.9,0.3-1.5,0.3c-0.7,0-1.2-0.2-1.6-0.6
								s-0.6-1-0.6-1.7c0-0.4,0.1-0.8,0.2-1.2c0.1-0.6,0.4-1.2,0.7-1.7c0.3-0.5,0.7-0.8,1.2-1.1C24.7,157.8,25.2,157.7,25.8,157.7
								L25.8,157.7z"/>
							<g class="st14">
								<defs>
									<polygon id="SVGID_13_" points="0,184.6 215.7,184.6 215.7,-2.3 0,-2.3 0,184.6 									"/>
								</defs>
								<clipPath id="SVGID_14_">
									<use xlink:href="#SVGID_13_"  style="overflow:visible;"/>
								</clipPath>
								<path class="st15" d="M120.8,176.7c-0.3,0-0.6,0.2-0.9,0.5c-0.3,0.3-0.5,0.7-0.6,1.2c0.4,0,0.8,0,1.1-0.1
									c0.3-0.1,0.5-0.2,0.7-0.4s0.2-0.4,0.2-0.6c0-0.2,0-0.3-0.1-0.4C121,176.7,120.9,176.7,120.8,176.7L120.8,176.7z M106,176.7
									c-0.3,0-0.6,0.1-0.8,0.4c-0.2,0.2-0.4,0.6-0.6,1c-0.1,0.4-0.2,0.8-0.2,1.3c0,0.3,0,0.5,0.1,0.7c0.1,0.2,0.2,0.2,0.4,0.2
									c0.2,0,0.3-0.1,0.5-0.2s0.3-0.3,0.5-0.5c0.2-0.2,0.3-0.4,0.4-0.7c0.1-0.2,0.2-0.5,0.2-0.8c0.1-0.3,0.1-0.6,0.1-0.8
									c0-0.2,0-0.4-0.1-0.5C106.4,176.7,106.3,176.7,106,176.7L106,176.7z M101.5,176.3h0.3l-0.6,2.9c-0.1,0.3-0.1,0.5-0.1,0.7
									c0,0.1,0,0.2,0.1,0.3c0,0.1,0.1,0.1,0.2,0.1c0.1,0,0.2,0,0.3-0.1c0.1-0.1,0.2-0.2,0.4-0.4l0.3,0.3c-0.3,0.3-0.5,0.5-0.7,0.6
									s-0.4,0.2-0.6,0.2c-0.2,0-0.4-0.1-0.5-0.2s-0.2-0.3-0.2-0.5c0-0.2,0-0.5,0.1-0.9l0.3-1.5c0.1-0.3,0.1-0.5,0.1-0.7
									c0-0.1,0-0.2-0.1-0.3s-0.2-0.1-0.4-0.1l0-0.2L101.5,176.3L101.5,176.3z M120.9,176.3c0.4,0,0.6,0.1,0.8,0.2
									c0.2,0.1,0.3,0.4,0.3,0.7c0,0.5-0.2,0.9-0.7,1.1c-0.5,0.3-1.2,0.4-2.1,0.4c0,0.2-0.1,0.4-0.1,0.6c0,0.3,0.1,0.5,0.2,0.7
									c0.1,0.1,0.3,0.2,0.6,0.2c0.3,0,0.5-0.1,0.7-0.2c0.2-0.1,0.5-0.3,0.7-0.6l0.3,0.3c-0.3,0.3-0.6,0.6-0.9,0.7
									c-0.3,0.2-0.6,0.2-1,0.2c-0.4,0-0.8-0.1-1-0.4c-0.2-0.3-0.4-0.6-0.4-1.1c0-0.3,0.1-0.7,0.2-1s0.3-0.7,0.5-1s0.5-0.5,0.8-0.7
									C120.2,176.4,120.5,176.3,120.9,176.3L120.9,176.3z M114.9,176.3c0.2,0,0.3,0.1,0.4,0.2c0.1,0.1,0.2,0.3,0.2,0.5
									c0,0.1,0,0.3-0.1,0.5l0.1,0c0.3-0.4,0.6-0.7,0.8-0.9c0.3-0.2,0.5-0.3,0.8-0.3c0.2,0,0.4,0,0.5,0l-0.2,1H117
									c0-0.1,0-0.2-0.1-0.3c0-0.1-0.1-0.1-0.1-0.1c0,0-0.1,0-0.2,0c-0.1,0-0.2,0-0.4,0.1c-0.1,0.1-0.3,0.2-0.4,0.4
									c-0.2,0.2-0.3,0.4-0.4,0.6c-0.1,0.2-0.2,0.4-0.2,0.7l-0.4,1.9h-0.8l0.7-2.8c0-0.2,0.1-0.3,0.1-0.4c0-0.1,0-0.2,0-0.2
									c0-0.1,0-0.2-0.1-0.3c0-0.1-0.1-0.1-0.2-0.1c-0.1,0-0.2,0-0.3,0.1c-0.1,0.1-0.2,0.2-0.4,0.4l-0.3-0.3
									c0.3-0.3,0.5-0.5,0.7-0.6C114.5,176.4,114.7,176.3,114.9,176.3L114.9,176.3z M109.6,176.3c0.2,0,0.3,0.1,0.5,0.2
									c0.1,0.1,0.2,0.3,0.2,0.5c0,0.2,0,0.5-0.1,0.9l-0.2,0.8c-0.1,0.2-0.1,0.4-0.1,0.5c0,0.1,0,0.2,0,0.3c0,0.1,0,0.1,0,0.2
									c0,0.2,0,0.4,0.1,0.4c0.1,0.1,0.2,0.1,0.3,0.1c0.1,0,0.3-0.1,0.4-0.2s0.3-0.3,0.5-0.5s0.3-0.4,0.4-0.6
									c0.1-0.2,0.2-0.4,0.2-0.7l0.4-1.9h0.8l-0.7,2.8c-0.1,0.3-0.1,0.5-0.1,0.7c0,0.1,0,0.2,0.1,0.3c0,0.1,0.1,0.1,0.2,0.1
									c0.1,0,0.2,0,0.3-0.1c0.1-0.1,0.2-0.2,0.4-0.4l0.3,0.3c-0.3,0.3-0.5,0.5-0.7,0.6c-0.2,0.1-0.4,0.2-0.6,0.2
									c-0.2,0-0.3-0.1-0.4-0.2c-0.1-0.1-0.2-0.3-0.2-0.5c0-0.2,0-0.3,0.1-0.5l-0.1,0c-0.3,0.4-0.6,0.7-0.8,0.9
									c-0.3,0.2-0.5,0.3-0.8,0.3c-0.3,0-0.5-0.1-0.6-0.2c-0.1-0.2-0.2-0.4-0.2-0.7c0-0.2,0-0.5,0.1-0.8l0.3-1.2
									c0.1-0.3,0.1-0.6,0.1-0.7c0-0.1,0-0.2-0.1-0.3c0-0.1-0.1-0.1-0.2-0.1c-0.1,0-0.2,0-0.3,0.1c-0.1,0.1-0.2,0.2-0.4,0.4
									l-0.3-0.3c0.3-0.3,0.4-0.4,0.6-0.5c0.1-0.1,0.3-0.2,0.4-0.2S109.5,176.3,109.6,176.3L109.6,176.3z M105.9,176.3
									c0.2,0,0.4,0,0.5,0.1c0.2,0,0.3,0.1,0.5,0.2l0.4-0.3l0.3,0.1l-0.5,2.1c0,0.1-0.1,0.5-0.2,1.1c-0.1,0.6-0.2,1.1-0.3,1.3
									s-0.2,0.5-0.3,0.7c-0.1,0.2-0.3,0.4-0.4,0.6s-0.4,0.3-0.7,0.4c-0.3,0.1-0.6,0.1-0.9,0.1c-1.1,0-1.7-0.3-1.7-1
									c0-0.2,0.1-0.3,0.2-0.5c0.1-0.1,0.3-0.3,0.5-0.4l0.3,0.3c-0.1,0.1-0.1,0.1-0.1,0.2c0,0.1-0.1,0.1-0.1,0.2c0,0.1,0,0.1,0,0.2
									c0,0.2,0.1,0.4,0.2,0.5c0.2,0.1,0.4,0.2,0.7,0.2c0.4,0,0.7-0.1,0.9-0.2s0.4-0.4,0.6-0.8s0.3-0.9,0.5-1.7l-0.1,0
									c-0.3,0.4-0.6,0.7-0.8,0.9c-0.2,0.2-0.5,0.3-0.8,0.3c-0.3,0-0.6-0.1-0.8-0.4c-0.2-0.2-0.3-0.6-0.3-1.1c0-0.5,0.1-1,0.3-1.5
									c0.2-0.5,0.5-0.8,0.8-1.1C105.1,176.4,105.5,176.3,105.9,176.3L105.9,176.3z M101.4,174.6h0.8l-0.2,0.9h-0.8L101.4,174.6
									L101.4,174.6z M98.9,174.2c0.3,0,0.5,0,0.8,0.1l-0.2,0.8H99c0-0.2-0.1-0.3-0.2-0.4c-0.1-0.1-0.2-0.1-0.3-0.1
									c-0.2,0-0.3,0-0.4,0.1c-0.1,0.1-0.2,0.2-0.3,0.4c-0.1,0.2-0.2,0.4-0.2,0.8l-0.1,0.5h1.2l-0.1,0.5h-1.2l-0.8,3.9
									c-0.1,0.7-0.3,1.1-0.6,1.5c-0.3,0.3-0.6,0.5-1.1,0.5c-0.1,0-0.2,0-0.3,0l0.1-0.4c0,0,0.1,0,0.2,0c0.1,0,0.3,0,0.3-0.1
									s0.2-0.2,0.3-0.4c0.1-0.2,0.2-0.4,0.2-0.7l1-4.3h-0.8l0.1-0.3c0.2,0,0.3,0,0.4,0c0.1,0,0.2-0.1,0.2-0.1s0.1-0.1,0.1-0.2
									s0.1-0.2,0.1-0.4c0.2-0.5,0.4-0.9,0.7-1.2C97.9,174.4,98.3,174.2,98.9,174.2L98.9,174.2z"/>
								<g class="st16">
									<defs>
										<polygon id="SVGID_15_" points="0,184.6 215.7,184.6 215.7,-2.3 0,-2.3 0,184.6 										"/>
									</defs>
									<clipPath id="SVGID_16_">
										<use xlink:href="#SVGID_15_"  style="overflow:visible;"/>
									</clipPath>
									<path class="st17" d="M128.2,174.2l0.1,0.3c-0.7,0.2-1.2,0.7-1.6,1.4c-0.3,0.7-0.5,1.5-0.5,2.5c0,1,0.2,1.9,0.5,2.6
										c0.3,0.7,0.9,1.1,1.5,1.4l-0.1,0.3c-0.9-0.2-1.6-0.7-2-1.5s-0.7-1.7-0.7-2.8c0-1.1,0.2-2,0.7-2.8
										C126.7,174.9,127.3,174.4,128.2,174.2L128.2,174.2z"/>
									<g class="st18">
										<defs>
											<polygon id="SVGID_17_" points="0,184.6 215.7,184.6 215.7,-2.3 0,-2.3 0,184.6 											"/>
										</defs>
										<clipPath id="SVGID_18_">
											<use xlink:href="#SVGID_17_"  style="overflow:visible;"/>
										</clipPath>
										<path class="st19" d="M131,174.9c-0.2,0-0.4,0.1-0.5,0.2c-0.1,0.1-0.3,0.3-0.3,0.5c-0.1,0.2-0.1,0.5-0.2,0.8
											c0,0.3-0.1,0.7-0.1,1.1c0,1,0.1,1.7,0.3,2.2c0.2,0.5,0.5,0.7,0.8,0.7c0.4,0,0.6-0.2,0.8-0.6c0.2-0.4,0.3-1.1,0.3-2
											c0-0.7,0-1.2-0.1-1.7c-0.1-0.4-0.2-0.7-0.4-0.9C131.5,174.9,131.3,174.9,131,174.9L131,174.9z M134.4,174.5h3.9v0.2
											l-2.6,6h-0.7v-0.2l2.4-5.1v-0.1h-2c-0.1,0-0.2,0-0.3,0c-0.1,0-0.1,0.1-0.2,0.1s-0.1,0.1-0.1,0.2s-0.1,0.2-0.1,0.4h-0.4
											L134.4,174.5L134.4,174.5z M131.1,174.5c0.7,0,1.1,0.3,1.5,0.8c0.3,0.5,0.5,1.3,0.5,2.3c0,1.1-0.2,1.9-0.5,2.4
											s-0.8,0.8-1.5,0.8c-0.6,0-1.1-0.3-1.4-0.8s-0.5-1.3-0.5-2.3c0-0.6,0-1,0.1-1.4c0.1-0.4,0.2-0.7,0.4-1
											c0.2-0.3,0.4-0.5,0.6-0.6C130.5,174.5,130.8,174.5,131.1,174.5L131.1,174.5z"/>
										<g class="st20">
											<defs>
												<polygon id="SVGID_19_" points="0,184.6 215.7,184.6 215.7,-2.3 0,-2.3 0,184.6 												"/>
											</defs>
											<clipPath id="SVGID_20_">
												<use xlink:href="#SVGID_19_"  style="overflow:visible;"/>
											</clipPath>
											<path class="st21" d="M139,174.2c0.9,0.2,1.5,0.7,2,1.5c0.5,0.8,0.7,1.7,0.7,2.8c0,1.1-0.2,2-0.7,2.8
												c-0.5,0.8-1.1,1.3-2,1.5l-0.1-0.3c0.7-0.2,1.2-0.7,1.5-1.4c0.3-0.7,0.5-1.5,0.5-2.6c0-1-0.2-1.9-0.5-2.5
												s-0.9-1.1-1.6-1.4L139,174.2z"/>
											<g class="st22">
												<defs>
													<polygon id="SVGID_21_" points="0,184.6 215.7,184.6 215.7,-2.3 0,-2.3 0,184.6 													"/>
												</defs>
												<clipPath id="SVGID_22_">
													<use xlink:href="#SVGID_21_"  style="overflow:visible;"/>
												</clipPath>
												<path class="st23" d="M53.9,129.7c5.2-2.3,10.4-4.6,16.4-15.8c6-11.2,9.8-38.3,19.9-51.5c10-13.2,25-22.5,40.3-27.9
													c15.3-5.4,51.5-4.3,51.5-4.3l0,0l0,0"/>
												<g class="st24">
													<defs>
														<polygon id="SVGID_23_" points="0,184.6 215.7,184.6 215.7,-2.3 0,-2.3 0,184.6 														"/>
													</defs>
													<clipPath id="SVGID_24_">
														<use xlink:href="#SVGID_23_"  style="overflow:visible;"/>
													</clipPath>
													<path class="st25" d="M170.1,10.5c-0.2,0-0.4,0.1-0.7,0.3s-0.4,0.5-0.5,0.9c0.3,0,0.6,0,0.8-0.1
														c0.2-0.1,0.4-0.1,0.5-0.3c0.1-0.1,0.2-0.3,0.2-0.5c0-0.1,0-0.2-0.1-0.3C170.3,10.5,170.2,10.5,170.1,10.5L170.1,10.5z
														 M170.2,10.2c0.3,0,0.5,0.1,0.6,0.2s0.2,0.3,0.2,0.5c0,0.4-0.2,0.7-0.5,0.9c-0.4,0.2-0.9,0.3-1.6,0.3
														c0,0.1,0,0.3,0,0.4c0,0.2,0,0.4,0.1,0.5s0.2,0.2,0.5,0.2c0.2,0,0.4,0,0.6-0.1c0.2-0.1,0.3-0.2,0.5-0.4l0.2,0.2
														c-0.2,0.2-0.4,0.4-0.7,0.5c-0.2,0.1-0.5,0.2-0.8,0.2c-0.3,0-0.6-0.1-0.8-0.3c-0.2-0.2-0.3-0.5-0.3-0.8
														c0-0.2,0-0.5,0.1-0.8c0.1-0.3,0.2-0.5,0.4-0.7s0.4-0.4,0.6-0.5C169.7,10.3,170,10.2,170.2,10.2L170.2,10.2z M160.5,8.9
														h3.5l-0.3,1.2h-0.3c0-0.2,0-0.4,0-0.5s0-0.2-0.1-0.2s-0.1-0.1-0.1-0.1s-0.1,0-0.2,0h-0.5l-0.7,3.3c0,0.1,0,0.2,0,0.2
														c0,0.1,0,0.1,0,0.2c0,0.1,0,0.1,0,0.2c0,0.1,0,0.1,0,0.2c0,0,0.1,0.1,0.1,0.1c0,0,0.1,0,0.2,0l0,0.2h-1.4l0-0.2
														c0.1,0,0.2,0,0.2-0.1s0.1-0.1,0.1-0.1c0,0,0.1-0.1,0.1-0.2c0-0.1,0.1-0.3,0.1-0.5l0.7-3.3h-0.4c-0.1,0-0.3,0-0.3,0.1
														c-0.1,0-0.2,0.1-0.2,0.2s-0.2,0.3-0.3,0.6h-0.3L160.5,8.9L160.5,8.9z M165.9,8.7h0.2l-0.6,2.3l0,0
														c0.2-0.3,0.4-0.5,0.6-0.6c0.2-0.1,0.4-0.2,0.6-0.2c0.2,0,0.4,0.1,0.5,0.2c0.1,0.1,0.2,0.3,0.2,0.5c0,0.1,0,0.3-0.1,0.6
														l-0.2,0.9c-0.1,0.2-0.1,0.4-0.1,0.5c0,0.1,0,0.2,0,0.2c0,0,0.1,0.1,0.1,0.1c0.1,0,0.1,0,0.2-0.1
														c0.1-0.1,0.2-0.2,0.3-0.3l0.2,0.2c-0.2,0.2-0.4,0.4-0.5,0.5c-0.1,0.1-0.3,0.1-0.5,0.1c-0.1,0-0.3-0.1-0.3-0.2
														s-0.1-0.2-0.1-0.4c0-0.1,0-0.4,0.1-0.6l0.1-0.6c0.1-0.2,0.1-0.4,0.1-0.5s0-0.2,0-0.2c0-0.2,0-0.3-0.1-0.3
														c-0.1-0.1-0.1-0.1-0.3-0.1c-0.1,0-0.2,0-0.3,0.1c-0.1,0.1-0.2,0.2-0.4,0.3s-0.2,0.3-0.3,0.4c-0.1,0.1-0.1,0.3-0.2,0.5
														l-0.3,1.5h-0.6l0.9-3.9c0.1-0.2,0.1-0.4,0.1-0.5c0-0.1,0-0.2-0.1-0.2c-0.1,0-0.2-0.1-0.3-0.1l0-0.2L165.9,8.7
														L165.9,8.7z"/>
													<g class="st26">
														<defs>
															<polygon id="SVGID_25_" points="0,184.6 215.7,184.6 215.7,-2.3 0,-2.3 0,184.6 															"/>
														</defs>
														<clipPath id="SVGID_26_">
															<use xlink:href="#SVGID_25_"  style="overflow:visible;"/>
														</clipPath>
														<path class="st27" d="M186.9,10.6c-0.1,0-0.2,0-0.3,0.1c-0.1,0.1-0.2,0.2-0.4,0.4s-0.2,0.3-0.3,0.5
															c-0.1,0.2-0.1,0.4-0.2,0.6l0,0.1c0,0.1,0,0.2,0,0.3c0,0.1,0,0.1,0,0.2c0,0.2,0,0.3,0.1,0.4c0.1,0.1,0.2,0.1,0.4,0.1
															c0.1,0,0.2,0,0.3-0.1c0.1,0,0.2-0.1,0.3-0.2c0.1-0.1,0.2-0.2,0.2-0.3c0.1-0.1,0.1-0.3,0.2-0.4s0.1-0.3,0.1-0.5
															c0-0.2,0-0.3,0-0.5c0-0.2,0-0.4-0.1-0.5C187.2,10.7,187.1,10.6,186.9,10.6L186.9,10.6z M182.7,10.5
															c-0.2,0-0.4,0.1-0.6,0.3c-0.2,0.2-0.3,0.4-0.4,0.7c-0.1,0.3-0.2,0.6-0.2,0.9c0,0.2,0,0.4,0.1,0.5
															c0.1,0.1,0.2,0.2,0.3,0.2c0.1,0,0.3-0.1,0.4-0.2c0.1-0.1,0.3-0.3,0.4-0.5c0.2-0.2,0.3-0.5,0.3-0.8l0-0.1
															c0-0.1,0-0.2,0-0.2c0-0.1,0-0.1,0-0.2c0-0.2,0-0.3-0.1-0.4C183,10.5,182.9,10.5,182.7,10.5L182.7,10.5z M175.6,10.5
															c-0.2,0-0.4,0.1-0.6,0.3s-0.3,0.4-0.4,0.7s-0.2,0.6-0.2,0.9c0,0.2,0,0.4,0.1,0.5c0.1,0.1,0.2,0.2,0.3,0.2
															c0.1,0,0.2,0,0.3-0.1c0.1-0.1,0.2-0.2,0.4-0.4s0.2-0.3,0.3-0.5c0.1-0.2,0.1-0.3,0.2-0.6c0.1-0.2,0.1-0.4,0.1-0.6
															c0-0.2,0-0.3-0.1-0.4C175.9,10.5,175.8,10.5,175.6,10.5L175.6,10.5z M185.5,10.2c0.1,0,0.3,0,0.3,0.1
															c0.1,0.1,0.1,0.2,0.1,0.4c0,0.1,0,0.3-0.1,0.4l0,0c0.4-0.6,0.8-0.9,1.2-0.9c0.2,0,0.4,0.1,0.6,0.3s0.2,0.4,0.2,0.8
															c0,0.4-0.1,0.7-0.2,1.1c-0.1,0.4-0.4,0.6-0.6,0.9c-0.3,0.2-0.6,0.3-0.9,0.3c-0.3,0-0.5-0.1-0.7-0.2l-0.2,0.7
															c0,0.2-0.1,0.3-0.1,0.4c0,0.1,0,0.2,0.1,0.2c0.1,0,0.1,0.1,0.3,0.1l0,0.2h-1l0.8-3.6c0-0.2,0.1-0.4,0.1-0.5
															c0-0.1,0-0.2,0-0.2c0,0-0.1-0.1-0.1-0.1c-0.1,0-0.1,0-0.2,0.1c-0.1,0.1-0.2,0.2-0.3,0.3l-0.2-0.2
															c0.2-0.2,0.4-0.4,0.5-0.5C185.2,10.3,185.3,10.2,185.5,10.2L185.5,10.2z M182.7,10.2c0.1,0,0.3,0,0.4,0
															c0.1,0,0.3,0.1,0.4,0.2l0.3-0.2l0.2,0.1l-0.5,2.1c0,0.2-0.1,0.4-0.1,0.5c0,0.1,0,0.2,0,0.2c0,0,0.1,0.1,0.1,0.1
															c0.1,0,0.1,0,0.2-0.1c0.1-0.1,0.2-0.2,0.3-0.3l0.2,0.2c-0.2,0.2-0.4,0.4-0.5,0.5c-0.1,0.1-0.3,0.1-0.5,0.1
															c-0.1,0-0.3,0-0.3-0.1c-0.1-0.1-0.1-0.2-0.1-0.4c0-0.1,0-0.3,0.1-0.4l0,0c-0.2,0.3-0.4,0.5-0.6,0.7s-0.4,0.2-0.6,0.2
															c-0.2,0-0.4-0.1-0.6-0.3c-0.1-0.2-0.2-0.4-0.2-0.8c0-0.4,0.1-0.8,0.2-1.1c0.2-0.4,0.4-0.6,0.6-0.8
															C182,10.3,182.3,10.2,182.7,10.2L182.7,10.2z M178.4,10.2c0.1,0,0.3,0,0.3,0.1c0.1,0.1,0.1,0.2,0.1,0.4
															c0,0.1,0,0.2-0.1,0.3l0,0c0.2-0.3,0.4-0.5,0.6-0.7c0.2-0.1,0.4-0.2,0.6-0.2c0.2,0,0.3,0,0.4,0l-0.2,0.8h-0.3
															c0-0.1,0-0.2-0.1-0.2s-0.1-0.1-0.1-0.1s-0.1,0-0.1,0c-0.1,0-0.2,0-0.3,0.1c-0.1,0.1-0.2,0.2-0.3,0.3
															c-0.1,0.1-0.2,0.3-0.3,0.4c-0.1,0.1-0.1,0.3-0.2,0.5l-0.3,1.5h-0.6l0.5-2.1c0-0.1,0.1-0.2,0.1-0.3s0-0.1,0-0.2
															c0-0.1,0-0.2,0-0.2c0,0-0.1-0.1-0.1-0.1c-0.1,0-0.1,0-0.2,0.1s-0.2,0.2-0.3,0.3l-0.2-0.2c0.2-0.2,0.4-0.4,0.5-0.5
															C178,10.3,178.2,10.2,178.4,10.2L178.4,10.2z M175.6,10.2c0.1,0,0.3,0,0.4,0.1c0.1,0,0.3,0.1,0.4,0.2l0.3-0.2l0.2,0.1
															l-0.3,1.6c0,0.1-0.1,0.4-0.2,0.8c-0.1,0.5-0.2,0.8-0.2,1s-0.1,0.4-0.2,0.5c-0.1,0.2-0.2,0.3-0.3,0.4s-0.3,0.2-0.5,0.3
															c-0.2,0.1-0.4,0.1-0.7,0.1c-0.8,0-1.3-0.2-1.3-0.7c0-0.1,0-0.2,0.1-0.3s0.2-0.2,0.4-0.3l0.2,0.2
															c0,0.1-0.1,0.1-0.1,0.2c0,0.1,0,0.1-0.1,0.1c0,0,0,0.1,0,0.2c0,0.2,0.1,0.3,0.2,0.4c0.1,0.1,0.3,0.1,0.5,0.1
															c0.3,0,0.5-0.1,0.7-0.2c0.2-0.1,0.3-0.3,0.4-0.6c0.1-0.3,0.2-0.7,0.3-1.3l0,0c-0.2,0.3-0.4,0.5-0.6,0.7
															c-0.2,0.1-0.4,0.2-0.6,0.2c-0.2,0-0.4-0.1-0.6-0.3c-0.1-0.2-0.2-0.4-0.2-0.8c0-0.4,0.1-0.8,0.2-1.1
															c0.2-0.4,0.4-0.6,0.6-0.8S175.3,10.2,175.6,10.2L175.6,10.2z M190.1,8.7h0.2l-0.6,2.3l0,0c0.2-0.3,0.4-0.5,0.6-0.6
															s0.4-0.2,0.6-0.2c0.2,0,0.4,0.1,0.5,0.2c0.1,0.1,0.2,0.3,0.2,0.5c0,0.1,0,0.3-0.1,0.6l-0.2,0.9
															c-0.1,0.2-0.1,0.4-0.1,0.5c0,0.1,0,0.2,0,0.2c0,0,0.1,0.1,0.1,0.1c0.1,0,0.1,0,0.2-0.1c0.1-0.1,0.2-0.2,0.3-0.3
															L192,13c-0.2,0.2-0.4,0.4-0.5,0.5c-0.1,0.1-0.3,0.1-0.5,0.1c-0.1,0-0.3-0.1-0.3-0.2s-0.1-0.2-0.1-0.4
															c0-0.1,0-0.4,0.1-0.6l0.1-0.6c0.1-0.2,0.1-0.4,0.1-0.5s0-0.2,0-0.2c0-0.2,0-0.3-0.1-0.3s-0.1-0.1-0.3-0.1
															c-0.1,0-0.2,0-0.3,0.1c-0.1,0.1-0.2,0.2-0.4,0.3s-0.2,0.3-0.3,0.4s-0.1,0.3-0.2,0.5l-0.3,1.5h-0.6l0.9-3.9
															c0.1-0.2,0.1-0.4,0.1-0.5c0-0.1,0-0.2-0.1-0.2c-0.1,0-0.2-0.1-0.3-0.1l0-0.2L190.1,8.7L190.1,8.7z"/>
														<g class="st28">
															<defs>
																<polygon id="SVGID_27_" points="0,184.6 215.7,184.6 215.7,-2.3 0,-2.3 0,184.6 																"/>
															</defs>
															<clipPath id="SVGID_28_">
																<use xlink:href="#SVGID_27_"  style="overflow:visible;"/>
															</clipPath>
															<path class="st29" d="M195.9,10.5c-0.2,0-0.4,0.1-0.6,0.3c-0.2,0.2-0.3,0.5-0.4,0.8c-0.1,0.4-0.1,0.7-0.1,0.9
																c0,0.2,0.1,0.4,0.2,0.5c0.1,0.1,0.3,0.2,0.5,0.2c0.2,0,0.4-0.1,0.6-0.3c0.2-0.2,0.3-0.5,0.4-0.8
																c0.1-0.4,0.1-0.7,0.1-0.9c0-0.2,0-0.4-0.1-0.5C196.2,10.6,196.1,10.5,195.9,10.5L195.9,10.5z M195.9,10.2
																c0.4,0,0.6,0.1,0.8,0.3c0.2,0.2,0.3,0.5,0.3,0.8c0,0.3,0,0.5-0.1,0.8c-0.1,0.3-0.2,0.5-0.4,0.7
																c-0.2,0.2-0.3,0.4-0.6,0.5c-0.2,0.1-0.5,0.2-0.8,0.2c-0.3,0-0.6-0.1-0.8-0.3c-0.2-0.2-0.3-0.5-0.3-0.8
																c0-0.2,0-0.4,0.1-0.6c0.1-0.3,0.2-0.6,0.4-0.8s0.4-0.4,0.6-0.5S195.6,10.2,195.9,10.2L195.9,10.2z M200.6,8.7
																c0.2,0,0.4,0,0.6,0.1L201,9.3h-0.3c0-0.1-0.1-0.2-0.1-0.3c-0.1-0.1-0.1-0.1-0.2-0.1c-0.1,0-0.2,0-0.3,0.1
																c-0.1,0.1-0.2,0.2-0.2,0.3c-0.1,0.1-0.1,0.3-0.2,0.6l-0.1,0.4h0.9l-0.1,0.3h-0.9l-0.6,2.9c-0.1,0.5-0.3,0.9-0.5,1.1
																c-0.2,0.2-0.5,0.4-0.8,0.4c-0.1,0-0.2,0-0.2,0l0.1-0.3c0,0,0.1,0,0.2,0c0.1,0,0.2,0,0.3-0.1s0.1-0.1,0.2-0.3
																c0.1-0.1,0.1-0.3,0.2-0.5l0.7-3.2h-0.6l0.1-0.2c0.2,0,0.3,0,0.3,0c0.1,0,0.1,0,0.2-0.1c0,0,0.1-0.1,0.1-0.1
																c0-0.1,0.1-0.1,0.1-0.3c0.1-0.4,0.3-0.7,0.6-0.9C199.9,8.8,200.2,8.7,200.6,8.7L200.6,8.7z"/>
															<g class="st30">
																<defs>
																	<polygon id="SVGID_29_" points="0,184.6 215.7,184.6 215.7,-2.3 0,-2.3 0,184.6 																	"/>
																</defs>
																<clipPath id="SVGID_30_">
																	<use xlink:href="#SVGID_29_"  style="overflow:visible;"/>
																</clipPath>
																<path class="st31" d="M169.3,18.3c0.1,0,0.2,0,0.2,0c0,0,0.1,0,0.1,0.1c0,0,0.1,0.1,0.1,0.2c0,0.1,0.1,0.2,0.1,0.2
																	c0,0.1,0.1,0.2,0.1,0.4c0.1,0.3,0.1,0.6,0.2,0.9c0.1,0.3,0.1,0.6,0.1,0.9c0.2-0.3,0.4-0.6,0.6-0.9
																	c0.2-0.3,0.3-0.6,0.3-0.8c0.1-0.2,0.1-0.4,0.1-0.5c0-0.1,0-0.2-0.1-0.2c0,0-0.1-0.1-0.2-0.1l0-0.2h0.9l0.1,0.2
																	c-0.2,0.5-0.4,1-0.7,1.5c-0.3,0.5-0.6,1-1,1.6c-0.4,0.5-0.7,0.8-0.9,1.1c-0.2,0.2-0.3,0.3-0.5,0.3
																	c-0.1,0-0.3,0.1-0.4,0.1c0,0-0.1,0-0.2,0c-0.1,0-0.1,0-0.1,0l0.1-0.7h0.3c0,0.1,0,0.2,0.1,0.2
																	c0.1,0,0.3-0.1,0.5-0.2s0.4-0.4,0.6-0.7c-0.1-0.4-0.2-0.9-0.3-1.4c-0.1-0.6-0.2-1-0.2-1.1c0-0.2-0.1-0.3-0.1-0.3
																	c0,0-0.1,0-0.1,0c-0.1,0-0.1,0-0.2,0.1c-0.1,0.1-0.1,0.2-0.2,0.3l-0.2-0.1c0.2-0.2,0.3-0.4,0.4-0.5
																	C168.9,18.3,169.1,18.3,169.3,18.3L169.3,18.3z"/>
																<g class="st32">
																	<defs>
																		<polygon id="SVGID_31_" points="0,184.6 215.7,184.6 215.7,-2.3 0,-2.3 0,184.6 																		"/>
																	</defs>
																	<clipPath id="SVGID_32_">
																		<use xlink:href="#SVGID_31_"  style="overflow:visible;"/>
																	</clipPath>
																	<path class="st33" d="M174.6,20.1h4.2v0.4h-4.2V20.1L174.6,20.1z M174.6,18.7h4.2v0.4h-4.2V18.7L174.6,18.7z"/>
																	<g class="st34">
																		<defs>
																			<polygon id="SVGID_33_" points="0,184.6 215.7,184.6 215.7,-2.3 0,-2.3 0,184.6 																			"/>
																		</defs>
																		<clipPath id="SVGID_34_">
																			<use xlink:href="#SVGID_33_"  style="overflow:visible;"/>
																		</clipPath>
																		<path class="st35" d="M184.3,16.7c0.2,0,0.4,0,0.6,0.1l-0.1,0.6h-0.3c0-0.1-0.1-0.2-0.1-0.3s-0.1-0.1-0.2-0.1
																			c-0.1,0-0.2,0-0.3,0.1s-0.2,0.2-0.2,0.3c-0.1,0.1-0.1,0.3-0.2,0.6l-0.1,0.4h0.9l-0.1,0.3h-0.9l-0.6,2.9
																			c-0.1,0.5-0.3,0.9-0.5,1.1c-0.2,0.2-0.5,0.4-0.8,0.4c-0.1,0-0.2,0-0.2,0l0.1-0.3c0,0,0.1,0,0.2,0
																			c0.1,0,0.2,0,0.3-0.1c0.1-0.1,0.1-0.1,0.2-0.3c0.1-0.1,0.1-0.3,0.2-0.5l0.7-3.2h-0.6l0.1-0.2c0.2,0,0.3,0,0.3,0
																			c0.1,0,0.1,0,0.2-0.1c0,0,0.1-0.1,0.1-0.1c0-0.1,0.1-0.1,0.1-0.3c0.1-0.4,0.3-0.7,0.6-0.9
																			C183.6,16.8,184,16.7,184.3,16.7L184.3,16.7z"/>
																		<g class="st36">
																			<defs>
																				<polygon id="SVGID_35_" points="0,184.6 215.7,184.6 215.7,-2.3 0,-2.3 0,184.6 																				"/>
																			</defs>
																			<clipPath id="SVGID_36_">
																				<use xlink:href="#SVGID_35_"  style="overflow:visible;"/>
																			</clipPath>
																			<path class="st37" d="M187.8,16.7l0.1,0.3c-0.5,0.2-0.9,0.5-1.2,1s-0.4,1.1-0.4,1.9c0,0.8,0.1,1.4,0.4,1.9
																				c0.3,0.5,0.6,0.9,1.2,1l-0.1,0.3c-0.7-0.2-1.2-0.5-1.5-1.1c-0.4-0.6-0.5-1.3-0.5-2.1c0-0.8,0.2-1.5,0.5-2.1
																				C186.7,17.2,187.2,16.9,187.8,16.7L187.8,16.7z"/>
																			<g class="st38">
																				<defs>
																					<polygon id="SVGID_37_" points="0,184.6 215.7,184.6 215.7,-2.3 0,-2.3 0,184.6 																					"/>
																				</defs>
																				<clipPath id="SVGID_38_">
																					<use xlink:href="#SVGID_37_"  style="overflow:visible;"/>
																				</clipPath>
																				<path class="st39" d="M189.4,18.3c0.1,0,0.1,0,0.2,0s0.1,0,0.1,0.1c0,0,0.1,0.1,0.1,0.1c0,0.1,0.1,0.1,0.1,0.2
																					c0,0.1,0.1,0.2,0.1,0.3c0,0.1,0,0.3,0.1,0.4h0c0.2-0.3,0.4-0.5,0.5-0.7c0.1-0.1,0.2-0.2,0.3-0.3
																					c0.1-0.1,0.1-0.1,0.2-0.1c0.1,0,0.2,0,0.3,0c0.1,0,0.2,0,0.3,0l-0.1,0.6h-0.2c0-0.1-0.1-0.1-0.1-0.1
																					c0,0,0,0-0.1,0c0,0-0.1,0-0.1,0c0,0-0.1,0.1-0.1,0.1c-0.1,0.1-0.1,0.1-0.2,0.2c-0.1,0.1-0.2,0.2-0.2,0.3
																					l-0.2,0.3c0,0.2,0.1,0.4,0.1,0.6c0,0.2,0.1,0.3,0.1,0.4s0.1,0.2,0.1,0.2c0,0.1,0,0.1,0.1,0.1s0.1,0.1,0.1,0.1
																					c0,0,0.1,0,0.1,0c0.1,0,0.1,0,0.2-0.1c0.1,0,0.1-0.2,0.2-0.3l0.2,0.1c-0.2,0.2-0.3,0.4-0.4,0.5
																					c-0.1,0.1-0.3,0.1-0.5,0.1c-0.1,0-0.2,0-0.2-0.1c-0.1,0-0.1-0.1-0.2-0.2c0-0.1-0.1-0.2-0.1-0.4
																					c-0.1-0.3-0.1-0.5-0.1-0.7h0c-0.2,0.3-0.4,0.6-0.5,0.7c-0.1,0.1-0.2,0.3-0.3,0.3c-0.1,0.1-0.1,0.1-0.2,0.1
																					s-0.2,0-0.3,0c-0.1,0-0.2,0-0.3,0l0.1-0.6h0.2c0,0.1,0.1,0.1,0.1,0.1c0,0,0.1,0,0.1,0c0,0,0.1-0.1,0.2-0.1
																					c0.1-0.1,0.2-0.2,0.3-0.3c0.1-0.1,0.3-0.3,0.5-0.6c0-0.2-0.1-0.3-0.1-0.5c0-0.2-0.1-0.3-0.1-0.5
																					c0-0.1-0.1-0.2-0.1-0.3c0,0-0.1-0.1-0.1-0.1s-0.1,0-0.1,0c0,0-0.1,0-0.1,0c0,0-0.1,0.1-0.1,0.1
																					c0,0.1-0.1,0.1-0.2,0.2l-0.2-0.1c0.1-0.2,0.3-0.4,0.4-0.5C189,18.3,189.2,18.3,189.4,18.3L189.4,18.3z"/>
																				<g class="st40">
																					<defs>
																						<polygon id="SVGID_39_" points="0,184.6 215.7,184.6 215.7,-2.3 0,-2.3 0,184.6 																						"/>
																					</defs>
																					<clipPath id="SVGID_40_">
																						<use xlink:href="#SVGID_39_"  style="overflow:visible;"/>
																					</clipPath>
																					<path class="st41" d="M192.2,16.7c0.7,0.2,1.2,0.5,1.5,1.1c0.4,0.6,0.5,1.3,0.5,2.1c0,0.8-0.2,1.5-0.5,2.1
																						c-0.4,0.6-0.9,0.9-1.5,1.1l-0.1-0.3c0.5-0.2,0.9-0.5,1.2-1c0.3-0.5,0.4-1.2,0.4-1.9c0-0.8-0.1-1.4-0.4-1.9
																						c-0.3-0.5-0.6-0.8-1.2-1L192.2,16.7z"/>
																					<g class="st42">
																						<defs>
																							<polygon id="SVGID_41_" points="0,184.6 215.7,184.6 215.7,-2.3 0,-2.3 0,184.6 																							"/>
																						</defs>
																						<clipPath id="SVGID_42_">
																							<use xlink:href="#SVGID_41_"  style="overflow:visible;"/>
																						</clipPath>
																						<path class="st43" d="M86,62.3c0-2.2,1.8-4,4-4s4,1.8,4,4c0,2.2-1.8,4-4,4S86,64.5,86,62.3L86,62.3z"/>
																						<path class="st44" d="M86,62.3c0-2.2,1.8-4,4-4s4,1.8,4,4c0,2.2-1.8,4-4,4S86,64.5,86,62.3L86,62.3z"/>
																						<g class="st45">
																							<defs>
																								<polygon id="SVGID_43_" points="0,184.6 215.7,184.6 215.7,-2.3 0,-2.3 0,184.6 																								
																									"/>
																							</defs>
																							<clipPath id="SVGID_44_">
																								<use xlink:href="#SVGID_43_"  style="overflow:visible;"/>
																							</clipPath>
																							<path class="st46" d="M9.3,57.2c0.4,0,0.8,0,1.1,0.1l-0.3,1.1H9.5c-0.1-0.3-0.1-0.4-0.2-0.6
																								c-0.1-0.1-0.3-0.2-0.4-0.2c-0.3,0-0.5,0.1-0.7,0.2c-0.2,0.1-0.3,0.4-0.5,0.6c-0.1,0.3-0.2,0.7-0.4,1.1
																								l-0.2,0.7H9l-0.1,0.7H7.1L5.8,67c-0.2,1-0.5,1.7-1,2.2c-0.4,0.5-1,0.7-1.6,0.7c-0.2,0-0.3,0-0.4,0l0.1-0.6
																								c0,0,0.2,0,0.3,0c0.2,0,0.4-0.1,0.5-0.2s0.3-0.3,0.4-0.5c0.1-0.3,0.2-0.6,0.3-1.1L6,61.1H4.8l0.1-0.5
																								c0.3,0,0.5,0,0.7-0.1s0.2-0.1,0.3-0.1s0.1-0.1,0.2-0.2c0.1-0.1,0.1-0.3,0.2-0.6c0.2-0.8,0.6-1.4,1.1-1.8
																								S8.5,57.2,9.3,57.2L9.3,57.2z"/>
																							<g class="st47">
																								<defs>
																									<polygon id="SVGID_45_" points="0,184.6 215.7,184.6 215.7,-2.3 0,-2.3 0,184.6 																									
																										"/>
																								</defs>
																								<clipPath id="SVGID_46_">
																									<use xlink:href="#SVGID_45_"  style="overflow:visible;"/>
																								</clipPath>
																								<path class="st48" d="M16.2,57.1l0.2,0.5c-1.1,0.3-1.8,1-2.3,2c-0.5,1-0.8,2.3-0.8,3.8
																									c0,1.6,0.3,2.9,0.8,3.9c0.5,1,1.3,1.7,2.3,2l-0.2,0.5c-1.3-0.3-2.3-1.1-3-2.2s-1.1-2.5-1.1-4.2
																									c0-1.6,0.4-3,1.1-4.2S14.9,57.5,16.2,57.1L16.2,57.1z"/>
																								<g class="st49">
																									<defs>
																										<polygon id="SVGID_47_" points="0,184.6 215.7,184.6 215.7,-2.3 0,-2.3 0,184.6 
																																																					"/>
																									</defs>
																									<clipPath id="SVGID_48_">
																										<use xlink:href="#SVGID_47_"  style="overflow:visible;"/>
																									</clipPath>
																									<path class="st50" d="M21,60.8c-0.5,0-0.9,0.2-1.2,0.6c-0.4,0.4-0.7,0.9-0.9,1.5c-0.2,0.6-0.3,1.3-0.3,1.9
																										c0,0.5,0.1,0.8,0.2,1c0.1,0.2,0.3,0.3,0.6,0.3c0.3,0,0.6-0.1,0.9-0.4c0.3-0.3,0.6-0.6,0.9-1.1
																										c0.3-0.5,0.5-1,0.6-1.6l0.1-0.3c0-0.2,0.1-0.3,0.1-0.5c0-0.1,0-0.3,0-0.4c0-0.3-0.1-0.6-0.2-0.8
																										C21.6,60.9,21.3,60.8,21,60.8L21,60.8z M20.9,60.3c0.3,0,0.6,0,0.8,0.1c0.3,0.1,0.5,0.2,0.8,0.3l0.6-0.4
																										l0.4,0.1l-1,4.3c-0.1,0.4-0.1,0.8-0.1,1c0,0.2,0,0.3,0.1,0.4c0.1,0.1,0.2,0.1,0.3,0.1
																										c0.1,0,0.3-0.1,0.4-0.2c0.2-0.1,0.4-0.3,0.6-0.6l0.4,0.4c-0.4,0.4-0.7,0.7-1,0.9c-0.3,0.2-0.6,0.3-0.9,0.3
																										c-0.3,0-0.5-0.1-0.7-0.3c-0.2-0.2-0.2-0.4-0.2-0.7c0-0.2,0.1-0.5,0.2-0.8l-0.1,0c-0.4,0.6-0.8,1.1-1.2,1.4
																										S19.4,67,18.9,67c-0.5,0-0.9-0.2-1.1-0.6c-0.3-0.4-0.4-0.9-0.4-1.6c0-0.8,0.2-1.5,0.5-2.2
																										c0.3-0.7,0.7-1.3,1.3-1.7S20.2,60.3,20.9,60.3L20.9,60.3z"/>
																									<g class="st51">
																										<defs>
																											<polygon id="SVGID_49_" points="0,184.6 215.7,184.6 215.7,-2.3 0,-2.3 0,184.6 
																																																							"/>
																										</defs>
																										<clipPath id="SVGID_50_">
																											<use xlink:href="#SVGID_49_"  style="overflow:visible;"/>
																										</clipPath>
																										<path class="st52" d="M25.1,57.1c1.3,0.3,2.3,1.1,3,2.2c0.7,1.1,1.1,2.5,1.1,4.2c0,1.6-0.4,3-1.1,4.2
																											c-0.7,1.1-1.7,1.9-3,2.2L25,69.4c1-0.3,1.8-1,2.3-2c0.5-1,0.8-2.3,0.8-3.9c0-1.5-0.3-2.8-0.8-3.8
																											s-1.3-1.7-2.3-2L25.1,57.1z"/>
																										<g class="st53">
																											<defs>
																												<polygon id="SVGID_51_" points="0,184.6 215.7,184.6 215.7,-2.3 0,-2.3 0,184.6 
																																																									"/>
																											</defs>
																											<clipPath id="SVGID_52_">
																												<use xlink:href="#SVGID_51_"  style="overflow:visible;"/>
																											</clipPath>
																											<path class="st54" d="M90.2,159.9c-0.5,0-0.9,0.2-1.2,0.6c-0.4,0.4-0.7,0.9-0.9,1.5
																												c-0.2,0.6-0.3,1.3-0.3,1.9c0,0.5,0.1,0.8,0.2,1c0.1,0.2,0.3,0.3,0.6,0.3c0.3,0,0.6-0.1,0.9-0.4
																												s0.6-0.6,0.9-1.1c0.3-0.5,0.5-1,0.6-1.6l0.1-0.3c0-0.2,0.1-0.3,0.1-0.5c0-0.1,0-0.3,0-0.4
																												c0-0.3-0.1-0.6-0.2-0.8C90.8,159.9,90.6,159.9,90.2,159.9L90.2,159.9z M90.1,159.3c0.3,0,0.6,0,0.8,0.1
																												s0.5,0.2,0.8,0.3l0.6-0.4l0.4,0.1l-1,4.3c-0.1,0.4-0.1,0.8-0.1,1c0,0.2,0,0.3,0.1,0.4
																												c0.1,0.1,0.2,0.1,0.3,0.1c0.1,0,0.3-0.1,0.4-0.2c0.2-0.1,0.4-0.3,0.6-0.6l0.4,0.4
																												c-0.4,0.4-0.7,0.7-1,0.9c-0.3,0.2-0.6,0.3-0.9,0.3c-0.3,0-0.5-0.1-0.7-0.3s-0.2-0.4-0.2-0.7
																												c0-0.2,0.1-0.5,0.2-0.8l-0.1,0c-0.4,0.6-0.8,1.1-1.2,1.4c-0.4,0.3-0.8,0.4-1.2,0.4
																												c-0.5,0-0.9-0.2-1.1-0.6c-0.3-0.4-0.4-0.9-0.4-1.6c0-0.8,0.2-1.5,0.5-2.2s0.7-1.3,1.3-1.7
																												S89.4,159.3,90.1,159.3L90.1,159.3z"/>
																										</g>
																									</g>
																								</g>
																							</g>
																						</g>
																					</g>
																				</g>
																			</g>
																		</g>
																	</g>
																</g>
															</g>
														</g>
													</g>
												</g>
											</g>
										</g>
									</g>
								</g>
							</g>
						</g>
					</g>
				</g>
			</g>
		</g>
	</g>
</g>
<g>
	<path class="st55" d="M100.5,59.8c-0.1,0-0.3,0-0.5,0L99.5,62h0.4c0.3,0,0.5,0,0.7-0.1c0.2-0.1,0.3-0.1,0.4-0.3
		c0.1-0.1,0.2-0.3,0.3-0.4c0.1-0.2,0.1-0.4,0.1-0.6c0-0.3-0.1-0.5-0.2-0.6C101,59.9,100.8,59.8,100.5,59.8L100.5,59.8z M99,59.5h1.5
		c0.3,0,0.5,0,0.7,0.1c0.2,0,0.3,0.1,0.4,0.2c0.1,0.1,0.2,0.2,0.3,0.3c0.1,0.1,0.1,0.3,0.1,0.5c0,0.4-0.1,0.7-0.2,0.9
		c-0.2,0.3-0.4,0.4-0.7,0.6c-0.3,0.1-0.6,0.2-1,0.2c-0.2,0-0.4,0-0.6,0l-0.2,1c0,0.1,0,0.2,0,0.2c0,0.1,0,0.1,0,0.2s0,0.1,0,0.2
		c0,0.1,0,0.1,0,0.2s0.1,0.1,0.1,0.1s0.1,0,0.2,0l0,0.2h-1.4l0-0.2c0.1,0,0.2,0,0.2-0.1c0,0,0.1-0.1,0.1-0.1c0-0.1,0.1-0.1,0.1-0.2
		c0-0.1,0.1-0.2,0.1-0.5l0.6-2.7c0.1-0.2,0.1-0.4,0.1-0.6c0-0.1,0-0.2-0.1-0.2c-0.1,0-0.1-0.1-0.3-0.1L99,59.5z"/>
	<path class="st55" d="M105.2,59.3l0.1,0.3c-0.5,0.2-1,0.5-1.2,1.1c-0.3,0.5-0.4,1.2-0.4,2c0,0.8,0.1,1.5,0.4,2
		c0.3,0.5,0.7,0.9,1.2,1.1l-0.1,0.3c-0.7-0.2-1.2-0.6-1.6-1.2c-0.4-0.6-0.5-1.3-0.5-2.2c0-0.8,0.2-1.6,0.5-2.2
		C104,59.8,104.6,59.4,105.2,59.3L105.2,59.3z"/>
	<path class="st55" d="M107.7,61.2c-0.2,0-0.5,0.1-0.6,0.3c-0.2,0.2-0.3,0.5-0.4,0.8c-0.1,0.3-0.2,0.7-0.2,1c0,0.2,0,0.4,0.1,0.5
		c0.1,0.1,0.2,0.2,0.3,0.2c0.2,0,0.3-0.1,0.5-0.2s0.3-0.3,0.5-0.6c0.2-0.2,0.3-0.5,0.3-0.9l0-0.2c0-0.1,0-0.2,0-0.2
		c0-0.1,0-0.1,0-0.2c0-0.2,0-0.3-0.1-0.4C108,61.2,107.9,61.2,107.7,61.2L107.7,61.2z M107.6,60.9c0.2,0,0.3,0,0.4,0.1
		c0.1,0,0.3,0.1,0.4,0.2l0.3-0.2L109,61l-0.5,2.2c-0.1,0.2-0.1,0.4-0.1,0.5c0,0.1,0,0.2,0,0.2c0,0,0.1,0.1,0.1,0.1
		c0.1,0,0.1,0,0.2-0.1c0.1-0.1,0.2-0.2,0.3-0.3l0.2,0.2c-0.2,0.2-0.4,0.4-0.5,0.5c-0.1,0.1-0.3,0.1-0.5,0.1c-0.1,0-0.3,0-0.3-0.1
		c-0.1-0.1-0.1-0.2-0.1-0.4c0-0.1,0-0.3,0.1-0.4l0,0c-0.2,0.3-0.4,0.6-0.6,0.7c-0.2,0.2-0.4,0.2-0.6,0.2c-0.3,0-0.5-0.1-0.6-0.3
		c-0.1-0.2-0.2-0.5-0.2-0.8c0-0.4,0.1-0.8,0.2-1.2c0.2-0.4,0.4-0.7,0.7-0.9S107.3,60.9,107.6,60.9L107.6,60.9z"/>
	<path class="st55" d="M110.1,63.5h0.6c0,0.2,0,0.3,0,0.5c0,0.2,0,0.3-0.1,0.4c-0.1,0.1-0.1,0.3-0.3,0.4c-0.1,0.1-0.3,0.3-0.5,0.4
		l-0.2-0.2c0.1-0.1,0.2-0.2,0.3-0.3s0.1-0.2,0.1-0.3s0-0.3,0-0.4C110.1,63.9,110.1,63.7,110.1,63.5L110.1,63.5z"/>
	<path class="st55" d="M115.6,59.3c0.2,0,0.4,0,0.6,0.1l-0.1,0.6h-0.3c0-0.1-0.1-0.2-0.1-0.3c-0.1-0.1-0.1-0.1-0.2-0.1
		c-0.1,0-0.2,0-0.3,0.1c-0.1,0.1-0.2,0.2-0.2,0.3c-0.1,0.1-0.1,0.3-0.2,0.6l-0.1,0.4h0.9l-0.1,0.4h-0.9l-0.7,3.1
		c-0.1,0.5-0.3,0.9-0.5,1.1c-0.2,0.2-0.5,0.4-0.8,0.4c-0.1,0-0.2,0-0.2,0l0.1-0.3c0,0,0.1,0,0.2,0c0.1,0,0.2,0,0.3-0.1
		s0.1-0.1,0.2-0.3c0.1-0.1,0.1-0.3,0.2-0.6l0.8-3.3h-0.6l0.1-0.2c0.2,0,0.3,0,0.3,0c0.1,0,0.1,0,0.2-0.1c0,0,0.1-0.1,0.1-0.1
		c0-0.1,0.1-0.1,0.1-0.3c0.1-0.4,0.3-0.7,0.6-0.9C114.9,59.4,115.2,59.3,115.6,59.3L115.6,59.3z"/>
	<path class="st55" d="M123.8,59c0.7,0.2,1.2,0.6,1.6,1.2c0.4,0.6,0.5,1.3,0.5,2.2c0,0.8-0.2,1.6-0.5,2.2c-0.4,0.6-0.9,1-1.6,1.2
		l-0.1-0.3c0.5-0.2,0.9-0.5,1.2-1.1c0.3-0.5,0.4-1.2,0.4-2c0-0.8-0.1-1.4-0.4-2c-0.3-0.5-0.7-0.9-1.2-1.1L123.8,59z M119.2,59
		l0.1,0.3c-0.5,0.2-1,0.5-1.2,1.1c-0.3,0.5-0.4,1.2-0.4,2c0,0.8,0.1,1.5,0.4,2c0.3,0.5,0.7,0.9,1.2,1.1l-0.1,0.3
		c-0.7-0.2-1.2-0.6-1.6-1.2c-0.4-0.6-0.5-1.3-0.5-2.2c0-0.8,0.2-1.6,0.5-2.2C118,59.5,118.5,59.1,119.2,59L119.2,59z"/>
	<path class="st55" d="M121.6,61.2c-0.2,0-0.5,0.1-0.6,0.3c-0.2,0.2-0.3,0.5-0.4,0.8c-0.1,0.3-0.2,0.7-0.2,1c0,0.2,0,0.4,0.1,0.5
		c0.1,0.1,0.2,0.2,0.3,0.2c0.2,0,0.3-0.1,0.5-0.2s0.3-0.3,0.5-0.6c0.2-0.2,0.3-0.5,0.3-0.9l0-0.2c0-0.1,0-0.2,0-0.2
		c0-0.1,0-0.1,0-0.2c0-0.2,0-0.3-0.1-0.4C121.9,61.2,121.8,61.2,121.6,61.2L121.6,61.2z M121.6,60.9c0.2,0,0.3,0,0.4,0.1
		c0.1,0,0.3,0.1,0.4,0.2l0.3-0.2l0.2,0.1l-0.5,2.2c-0.1,0.2-0.1,0.4-0.1,0.5c0,0.1,0,0.2,0,0.2c0,0,0.1,0.1,0.1,0.1
		c0.1,0,0.1,0,0.2-0.1c0.1-0.1,0.2-0.2,0.3-0.3l0.2,0.2c-0.2,0.2-0.4,0.4-0.5,0.5c-0.1,0.1-0.3,0.1-0.5,0.1c-0.1,0-0.3,0-0.3-0.1
		c-0.1-0.1-0.1-0.2-0.1-0.4c0-0.1,0-0.3,0.1-0.4l0,0c-0.2,0.3-0.4,0.6-0.6,0.7c-0.2,0.2-0.4,0.2-0.6,0.2c-0.3,0-0.5-0.1-0.6-0.3
		c-0.1-0.2-0.2-0.5-0.2-0.8c0-0.4,0.1-0.8,0.2-1.2c0.2-0.4,0.4-0.7,0.7-0.9S121.2,60.9,121.6,60.9L121.6,60.9z"/>
	<path class="st55" d="M126.8,59.3c0.7,0.2,1.2,0.6,1.6,1.2c0.4,0.6,0.5,1.3,0.5,2.2c0,0.8-0.2,1.6-0.5,2.2c-0.4,0.6-0.9,1-1.6,1.2
		l-0.1-0.3c0.5-0.2,0.9-0.5,1.2-1.1c0.3-0.5,0.4-1.2,0.4-2c0-0.8-0.1-1.4-0.4-2c-0.3-0.5-0.7-0.9-1.2-1.1L126.8,59.3z"/>
</g>
</svg>
