<?xml version="1.0" encoding="utf-8"?>
<!-- Generator: Adobe Illustrator 23.0.2, SVG Export Plug-In . SVG Version: 6.00 Build 0)  -->
<svg version="1.0" id="Layer_1" xmlns="http://www.w3.org/2000/svg" xmlns:xlink="http://www.w3.org/1999/xlink" x="0px" y="0px"
	 viewBox="0 0 200 200" style="enable-background:new 0 0 200 200;" xml:space="preserve">
<style type="text/css">
	.st0{fill:none;stroke:#000000;stroke-width:0.7984;stroke-miterlimit:8;}
	.st1{fill-rule:evenodd;clip-rule:evenodd;}
	.st2{clip-path:url(#SVGID_2_);fill:none;stroke:#000000;stroke-width:0.7984;stroke-miterlimit:8;}
	.st3{clip-path:url(#SVGID_2_);fill-rule:evenodd;clip-rule:evenodd;}
	.st4{clip-path:url(#SVGID_2_);}
	.st5{clip-path:url(#SVGID_4_);fill-rule:evenodd;clip-rule:evenodd;}
	.st6{clip-path:url(#SVGID_4_);}
	.st7{clip-path:url(#SVGID_6_);fill-rule:evenodd;clip-rule:evenodd;}
	.st8{clip-path:url(#SVGID_6_);}
	.st9{clip-path:url(#SVGID_8_);fill-rule:evenodd;clip-rule:evenodd;}
	.st10{clip-path:url(#SVGID_8_);}
	.st11{clip-path:url(#SVGID_10_);fill-rule:evenodd;clip-rule:evenodd;}
	.st12{clip-path:url(#SVGID_10_);}
	.st13{clip-path:url(#SVGID_12_);fill-rule:evenodd;clip-rule:evenodd;}
	.st14{clip-path:url(#SVGID_12_);}
	.st15{clip-path:url(#SVGID_14_);fill-rule:evenodd;clip-rule:evenodd;}
	.st16{clip-path:url(#SVGID_14_);}
	.st17{clip-path:url(#SVGID_16_);fill-rule:evenodd;clip-rule:evenodd;}
	.st18{clip-path:url(#SVGID_16_);}
	.st19{clip-path:url(#SVGID_18_);fill-rule:evenodd;clip-rule:evenodd;}
	.st20{clip-path:url(#SVGID_18_);}
	.st21{clip-path:url(#SVGID_20_);fill-rule:evenodd;clip-rule:evenodd;}
	.st22{clip-path:url(#SVGID_20_);}
	.st23{clip-path:url(#SVGID_22_);fill-rule:evenodd;clip-rule:evenodd;}
	.st24{clip-path:url(#SVGID_22_);}
	.st25{clip-path:url(#SVGID_24_);fill-rule:evenodd;clip-rule:evenodd;}
	.st26{clip-path:url(#SVGID_24_);}
	.st27{clip-path:url(#SVGID_26_);fill-rule:evenodd;clip-rule:evenodd;}
	.st28{clip-path:url(#SVGID_26_);}
	.st29{clip-path:url(#SVGID_28_);fill-rule:evenodd;clip-rule:evenodd;}
	.st30{clip-path:url(#SVGID_28_);}
	.st31{clip-path:url(#SVGID_30_);fill-rule:evenodd;clip-rule:evenodd;}
	.st32{clip-path:url(#SVGID_30_);}
	.st33{clip-path:url(#SVGID_32_);}
	.st34{fill:none;stroke:#000000;stroke-width:0.5988;stroke-miterlimit:8;}
	.st35{fill:none;stroke:#000000;stroke-width:0.5988;stroke-miterlimit:8;stroke-dasharray:4.3698,1.7479;}
	.st36{clip-path:url(#SVGID_34_);}
	.st37{fill:none;stroke:#000000;stroke-width:0.4578;stroke-miterlimit:8;}
	.st38{fill:none;stroke:#000000;stroke-width:0.4578;stroke-miterlimit:8;stroke-dasharray:4.7698,1.9079;}
	.st39{clip-path:url(#SVGID_36_);fill-rule:evenodd;clip-rule:evenodd;}
	.st40{clip-path:url(#SVGID_36_);}
	.st41{clip-path:url(#SVGID_38_);fill:none;stroke:#000000;stroke-width:1.1977;stroke-miterlimit:8;}
	.st42{clip-path:url(#SVGID_38_);}
	.st43{clip-path:url(#SVGID_40_);fill-rule:evenodd;clip-rule:evenodd;}
	.st44{fill:#FFFFFF;stroke:#231F20;stroke-width:0.9156;stroke-miterlimit:10;}
</style>
<g>
	<line class="st0" x1="4.9" y1="147.4" x2="188" y2="147.4"/>
	<polygon class="st1" points="187.6,146.2 190,147.4 187.6,148.6 187.6,146.2 	"/>
	<g>
		<defs>
			<polygon id="SVGID_1_" points="4.9,166 196.6,166 196.6,39.4 4.9,39.4 4.9,166 			"/>
		</defs>
		<clipPath id="SVGID_2_">
			<use xlink:href="#SVGID_1_"  style="overflow:visible;"/>
		</clipPath>
		<line class="st2" x1="80.9" y1="153.7" x2="80.9" y2="49.7"/>
		<polygon class="st3" points="82.1,50.1 80.9,47.7 79.7,50.1 82.1,50.1 		"/>
		<g class="st4">
			<defs>
				<polygon id="SVGID_3_" points="4.9,166 196.6,166 196.6,39.4 4.9,39.4 4.9,166 				"/>
			</defs>
			<clipPath id="SVGID_4_">
				<use xlink:href="#SVGID_3_"  style="overflow:visible;"/>
			</clipPath>
			<path class="st5" d="M74.4,44.8c0.1,0,0.2,0,0.3,0.1c0.1,0,0.1,0.1,0.2,0.1s0.1,0.1,0.2,0.2c0,0.1,0.1,0.2,0.1,0.3
				s0.1,0.3,0.1,0.6c0.1,0.4,0.1,0.8,0.2,1.3c0.1,0.4,0.1,0.9,0.2,1.2c0.3-0.4,0.6-0.9,0.8-1.3c0.2-0.4,0.4-0.8,0.5-1.1
				c0.1-0.3,0.1-0.6,0.1-0.8c0-0.1,0-0.2-0.1-0.3c-0.1-0.1-0.2-0.1-0.3-0.1l0-0.2H78l0.1,0.2c-0.2,0.6-0.6,1.3-1,2.1
				c-0.4,0.7-0.9,1.4-1.4,2.2c-0.5,0.7-0.9,1.2-1.2,1.5c-0.2,0.2-0.4,0.4-0.7,0.4c-0.2,0.1-0.3,0.1-0.5,0.1c-0.1,0-0.1,0-0.2,0
				c-0.1,0-0.2,0-0.2,0l0.2-0.9h0.4c0,0.2,0.1,0.3,0.2,0.3c0.2,0,0.4-0.1,0.6-0.3c0.2-0.2,0.5-0.6,0.8-1c-0.1-0.5-0.2-1.2-0.4-2
				c-0.2-0.8-0.3-1.3-0.3-1.5c-0.1-0.2-0.1-0.4-0.2-0.5c0,0-0.1-0.1-0.2-0.1c-0.1,0-0.2,0-0.3,0.1c-0.1,0.1-0.2,0.2-0.3,0.4
				l-0.3-0.2c0.2-0.3,0.4-0.5,0.6-0.7C74,44.8,74.2,44.8,74.4,44.8L74.4,44.8z"/>
			<g class="st6">
				<defs>
					<polygon id="SVGID_5_" points="4.9,166 196.6,166 196.6,39.4 4.9,39.4 4.9,166 					"/>
				</defs>
				<clipPath id="SVGID_6_">
					<use xlink:href="#SVGID_5_"  style="overflow:visible;"/>
				</clipPath>
				<path class="st7" d="M188.9,150.3c0.1,0,0.2,0,0.3,0c0.1,0,0.1,0.1,0.2,0.1s0.1,0.1,0.1,0.2c0,0.1,0.1,0.2,0.1,0.3
					c0,0.1,0.1,0.3,0.1,0.5c0,0.2,0.1,0.4,0.1,0.6h0c0.3-0.4,0.5-0.7,0.7-0.9c0.2-0.2,0.3-0.3,0.4-0.4c0.1-0.1,0.2-0.2,0.3-0.2
					c0.1,0,0.2-0.1,0.4-0.1c0.1,0,0.3,0,0.4,0.1l-0.2,0.8h-0.3c0-0.1-0.1-0.2-0.2-0.2c0,0-0.1,0-0.1,0s-0.1,0-0.1,0.1
					s-0.1,0.1-0.2,0.2c-0.1,0.1-0.2,0.2-0.3,0.3s-0.2,0.3-0.3,0.4l-0.3,0.4c0.1,0.3,0.1,0.6,0.2,0.8c0,0.2,0.1,0.4,0.1,0.5
					c0,0.1,0.1,0.3,0.1,0.3c0,0.1,0.1,0.1,0.1,0.2c0,0,0.1,0.1,0.1,0.1c0,0,0.1,0,0.1,0c0.1,0,0.2,0,0.2-0.1
					c0.1-0.1,0.2-0.2,0.3-0.4l0.3,0.2c-0.2,0.3-0.4,0.6-0.6,0.7c-0.2,0.1-0.4,0.2-0.6,0.2c-0.1,0-0.2,0-0.3-0.1s-0.2-0.1-0.2-0.2
					c-0.1-0.1-0.1-0.3-0.2-0.5c-0.1-0.4-0.2-0.7-0.2-0.9h0c-0.3,0.5-0.6,0.8-0.7,1s-0.3,0.4-0.4,0.4c-0.1,0.1-0.2,0.2-0.3,0.2
					s-0.2,0.1-0.4,0.1c-0.1,0-0.3,0-0.4-0.1l0.2-0.8h0.3c0,0.1,0.1,0.2,0.2,0.2c0,0,0.1,0,0.1,0c0,0,0.1-0.1,0.2-0.2
					c0.1-0.1,0.2-0.2,0.4-0.4c0.2-0.2,0.4-0.5,0.7-0.9c0-0.2-0.1-0.5-0.1-0.7c0-0.2-0.1-0.4-0.2-0.6c-0.1-0.2-0.1-0.3-0.1-0.4
					c0-0.1-0.1-0.1-0.1-0.1c0,0-0.1,0-0.1,0c-0.1,0-0.1,0-0.2,0c-0.1,0-0.1,0.1-0.2,0.2c-0.1,0.1-0.1,0.2-0.2,0.3l-0.3-0.2
					c0.2-0.3,0.4-0.5,0.6-0.7S188.6,150.3,188.9,150.3L188.9,150.3z"/>
				<g class="st8">
					<defs>
						<polygon id="SVGID_7_" points="4.9,166 196.6,166 196.6,39.4 4.9,39.4 4.9,166 						"/>
					</defs>
					<clipPath id="SVGID_8_">
						<use xlink:href="#SVGID_7_"  style="overflow:visible;"/>
					</clipPath>
					<path class="st9" d="M75.9,150.7c-0.3,0-0.6,0.1-0.8,0.4c-0.2,0.3-0.4,0.7-0.6,1.2s-0.2,0.9-0.2,1.3c0,0.3,0.1,0.6,0.2,0.8
						c0.1,0.2,0.4,0.2,0.6,0.2c0.3,0,0.6-0.1,0.8-0.4c0.2-0.3,0.4-0.7,0.6-1.2c0.1-0.5,0.2-0.9,0.2-1.3c0-0.3-0.1-0.6-0.2-0.8
						S76.2,150.7,75.9,150.7L75.9,150.7z M76,150.3c0.5,0,0.9,0.1,1.1,0.4c0.3,0.3,0.4,0.7,0.4,1.2c0,0.4-0.1,0.7-0.2,1.2
						c-0.1,0.4-0.3,0.8-0.5,1c-0.2,0.3-0.5,0.5-0.8,0.6c-0.3,0.1-0.7,0.2-1.1,0.2c-0.5,0-0.9-0.1-1.1-0.4s-0.4-0.7-0.4-1.2
						c0-0.2,0-0.5,0.1-0.9c0.1-0.4,0.3-0.8,0.5-1.2c0.2-0.3,0.5-0.6,0.8-0.8C75.3,150.4,75.6,150.3,76,150.3L76,150.3z"/>
					<g class="st10">
						<defs>
							<polygon id="SVGID_9_" points="4.9,166 196.6,166 196.6,39.4 4.9,39.4 4.9,166 							"/>
						</defs>
						<clipPath id="SVGID_10_">
							<use xlink:href="#SVGID_9_"  style="overflow:visible;"/>
						</clipPath>
						<path class="st11" d="M95.1,161.7c-0.2,0-0.3,0.1-0.5,0.2c-0.1,0.2-0.3,0.4-0.3,0.6c0.2,0,0.4,0,0.6-0.1s0.3-0.1,0.4-0.2
							c0.1-0.1,0.1-0.2,0.1-0.3c0-0.1,0-0.2-0.1-0.2C95.2,161.7,95.2,161.7,95.1,161.7L95.1,161.7z M87.4,161.7
							c-0.2,0-0.3,0.1-0.4,0.2c-0.1,0.1-0.2,0.3-0.3,0.5s-0.1,0.4-0.1,0.7c0,0.2,0,0.3,0.1,0.4s0.1,0.1,0.2,0.1c0.1,0,0.2,0,0.2-0.1
							c0.1-0.1,0.2-0.1,0.3-0.3c0.1-0.1,0.2-0.2,0.2-0.3s0.1-0.2,0.1-0.4s0.1-0.3,0.1-0.4c0-0.1,0-0.2-0.1-0.3
							C87.6,161.7,87.5,161.7,87.4,161.7L87.4,161.7z M85.1,161.5h0.1l-0.3,1.5c0,0.2-0.1,0.3-0.1,0.3c0,0.1,0,0.1,0,0.1
							s0.1,0,0.1,0c0,0,0.1,0,0.1-0.1c0.1,0,0.1-0.1,0.2-0.2l0.1,0.1c-0.2,0.2-0.3,0.3-0.4,0.3c-0.1,0.1-0.2,0.1-0.3,0.1
							c-0.1,0-0.2,0-0.2-0.1c-0.1-0.1-0.1-0.2-0.1-0.3c0-0.1,0-0.3,0.1-0.5l0.2-0.8c0-0.2,0.1-0.3,0.1-0.4c0-0.1,0-0.1-0.1-0.1
							c0,0-0.1,0-0.2,0l0-0.1L85.1,161.5L85.1,161.5z M95.2,161.5c0.2,0,0.3,0,0.4,0.1c0.1,0.1,0.1,0.2,0.1,0.4
							c0,0.3-0.1,0.5-0.4,0.6c-0.2,0.1-0.6,0.2-1.1,0.2c0,0.1,0,0.2,0,0.3c0,0.2,0,0.3,0.1,0.4c0.1,0.1,0.2,0.1,0.3,0.1
							c0.1,0,0.3,0,0.4-0.1c0.1-0.1,0.2-0.2,0.4-0.3l0.1,0.2c-0.2,0.2-0.3,0.3-0.5,0.4c-0.2,0.1-0.3,0.1-0.5,0.1
							c-0.2,0-0.4-0.1-0.5-0.2s-0.2-0.3-0.2-0.6c0-0.2,0-0.3,0.1-0.5c0.1-0.2,0.2-0.4,0.3-0.5c0.1-0.2,0.3-0.3,0.4-0.4
							C94.8,161.5,95,161.5,95.2,161.5L95.2,161.5z M92,161.5c0.1,0,0.2,0,0.2,0.1c0.1,0.1,0.1,0.1,0.1,0.3c0,0.1,0,0.2,0,0.2l0,0
							c0.2-0.2,0.3-0.4,0.4-0.5c0.1-0.1,0.3-0.1,0.4-0.1c0.1,0,0.2,0,0.3,0l-0.1,0.5h-0.2c0-0.1,0-0.1,0-0.2c0,0,0-0.1-0.1-0.1
							s-0.1,0-0.1,0c-0.1,0-0.1,0-0.2,0.1s-0.1,0.1-0.2,0.2c-0.1,0.1-0.1,0.2-0.2,0.3c0,0.1-0.1,0.2-0.1,0.4l-0.2,1h-0.4l0.3-1.5
							c0-0.1,0-0.2,0-0.2c0-0.1,0-0.1,0-0.1c0-0.1,0-0.1,0-0.1c0,0-0.1,0-0.1,0c0,0-0.1,0-0.2,0.1s-0.1,0.1-0.2,0.2l-0.1-0.1
							c0.1-0.1,0.3-0.3,0.4-0.3S91.9,161.5,92,161.5L92,161.5z M89.3,161.5c0.1,0,0.2,0,0.2,0.1c0.1,0.1,0.1,0.2,0.1,0.3
							c0,0.1,0,0.3-0.1,0.5l-0.1,0.4c0,0.1,0,0.2-0.1,0.2c0,0.1,0,0.1,0,0.1c0,0,0,0.1,0,0.1c0,0.1,0,0.2,0.1,0.2
							c0,0,0.1,0.1,0.2,0.1c0.1,0,0.1,0,0.2-0.1s0.2-0.1,0.2-0.2c0.1-0.1,0.2-0.2,0.2-0.3c0.1-0.1,0.1-0.2,0.1-0.4l0.2-1H91
							l-0.3,1.5c0,0.1-0.1,0.3-0.1,0.3c0,0.1,0,0.1,0,0.1s0.1,0,0.1,0c0,0,0.1,0,0.1-0.1c0.1,0,0.1-0.1,0.2-0.2l0.1,0.1
							c-0.1,0.2-0.3,0.3-0.4,0.3s-0.2,0.1-0.3,0.1c-0.1,0-0.2,0-0.2-0.1c-0.1-0.1-0.1-0.1-0.1-0.3c0-0.1,0-0.2,0.1-0.3l0,0
							c-0.2,0.2-0.3,0.4-0.4,0.5s-0.3,0.2-0.4,0.2c-0.1,0-0.3,0-0.3-0.1s-0.1-0.2-0.1-0.3c0-0.1,0-0.2,0.1-0.4l0.2-0.6
							c0-0.2,0.1-0.3,0.1-0.4c0-0.1,0-0.1,0-0.1c0,0-0.1,0-0.1,0c0,0-0.1,0-0.2,0.1c-0.1,0-0.1,0.1-0.2,0.2l-0.1-0.1
							c0.1-0.1,0.2-0.2,0.3-0.3c0.1,0,0.1-0.1,0.2-0.1S89.2,161.5,89.3,161.5L89.3,161.5z M87.4,161.5c0.1,0,0.2,0,0.3,0
							s0.2,0.1,0.3,0.1l0.2-0.2l0.1,0l-0.2,1.1c0,0.1-0.1,0.3-0.1,0.6c-0.1,0.3-0.1,0.6-0.2,0.7c0,0.1-0.1,0.3-0.1,0.4
							c-0.1,0.1-0.1,0.2-0.2,0.3c-0.1,0.1-0.2,0.1-0.3,0.2c-0.1,0-0.3,0.1-0.5,0.1c-0.6,0-0.9-0.2-0.9-0.5c0-0.1,0-0.2,0.1-0.2
							s0.1-0.1,0.3-0.2l0.2,0.1c0,0-0.1,0.1-0.1,0.1c0,0,0,0.1,0,0.1s0,0.1,0,0.1c0,0.1,0,0.2,0.1,0.3c0.1,0.1,0.2,0.1,0.4,0.1
							c0.2,0,0.3,0,0.5-0.1c0.1-0.1,0.2-0.2,0.3-0.4c0.1-0.2,0.2-0.5,0.2-0.9l0,0c-0.2,0.2-0.3,0.4-0.4,0.5
							c-0.1,0.1-0.3,0.1-0.4,0.1c-0.2,0-0.3-0.1-0.4-0.2c-0.1-0.1-0.1-0.3-0.1-0.5c0-0.3,0.1-0.5,0.2-0.8c0.1-0.2,0.2-0.4,0.4-0.6
							C86.9,161.5,87.1,161.5,87.4,161.5L87.4,161.5z M85,160.6h0.4l-0.1,0.5h-0.4L85,160.6L85,160.6z M83.7,160.4
							c0.2,0,0.3,0,0.4,0l-0.1,0.4h-0.2c0-0.1-0.1-0.2-0.1-0.2s-0.1-0.1-0.2-0.1c-0.1,0-0.2,0-0.2,0.1c-0.1,0-0.1,0.1-0.2,0.2
							c0,0.1-0.1,0.2-0.1,0.4l-0.1,0.3h0.6l-0.1,0.2h-0.6l-0.4,2c-0.1,0.3-0.2,0.6-0.3,0.8c-0.1,0.2-0.3,0.2-0.6,0.2
							c-0.1,0-0.1,0-0.2,0l0-0.2c0,0,0.1,0,0.1,0c0.1,0,0.1,0,0.2-0.1s0.1-0.1,0.1-0.2c0-0.1,0.1-0.2,0.1-0.4l0.5-2.2h-0.4l0-0.2
							c0.1,0,0.2,0,0.2,0c0,0,0.1,0,0.1,0c0,0,0-0.1,0.1-0.1c0,0,0-0.1,0.1-0.2c0.1-0.3,0.2-0.5,0.4-0.6
							C83.2,160.5,83.4,160.4,83.7,160.4L83.7,160.4z"/>
						<g class="st12">
							<defs>
								<polygon id="SVGID_11_" points="4.9,166 196.6,166 196.6,39.4 4.9,39.4 4.9,166 								"/>
							</defs>
							<clipPath id="SVGID_12_">
								<use xlink:href="#SVGID_11_"  style="overflow:visible;"/>
							</clipPath>
							<path class="st13" d="M99,160.4l0.1,0.2c-0.4,0.1-0.6,0.4-0.8,0.7c-0.2,0.3-0.3,0.8-0.3,1.3c0,0.5,0.1,1,0.3,1.3
								c0.2,0.4,0.4,0.6,0.8,0.7l-0.1,0.2c-0.5-0.1-0.8-0.4-1.1-0.8s-0.4-0.9-0.4-1.4c0-0.6,0.1-1,0.4-1.4
								C98.1,160.8,98.5,160.5,99,160.4L99,160.4z"/>
							<g class="st14">
								<defs>
									<polygon id="SVGID_13_" points="4.9,166 196.6,166 196.6,39.4 4.9,39.4 4.9,166 									"/>
								</defs>
								<clipPath id="SVGID_14_">
									<use xlink:href="#SVGID_13_"  style="overflow:visible;"/>
								</clipPath>
								<path class="st15" d="M103.3,160.5h0.1c0,0.1,0,0.4,0,0.6v2c0,0.1,0,0.2,0,0.2c0,0,0,0.1,0.1,0.1c0,0,0.1,0.1,0.1,0.1
									c0,0,0.1,0,0.2,0c0.1,0,0.2,0,0.3,0v0.2h-1.7v-0.2c0.2,0,0.3,0,0.4,0c0.1,0,0.1,0,0.2-0.1c0,0,0.1-0.1,0.1-0.1s0-0.1,0-0.2
									v-1.9c0-0.1,0-0.1,0-0.1c0,0-0.1,0-0.1,0c0,0-0.1,0-0.2,0.1s-0.2,0.1-0.3,0.2l-0.1-0.2L103.3,160.5L103.3,160.5z
									 M100.6,160.5h0.1c0,0.1,0,0.4,0,0.6v2c0,0.1,0,0.2,0,0.2c0,0,0,0.1,0.1,0.1c0,0,0.1,0.1,0.1,0.1c0,0,0.1,0,0.2,0
									c0.1,0,0.2,0,0.3,0v0.2h-1.7v-0.2c0.2,0,0.3,0,0.4,0c0.1,0,0.1,0,0.2-0.1c0,0,0.1-0.1,0.1-0.1c0,0,0-0.1,0-0.2v-1.9
									c0-0.1,0-0.1,0-0.1c0,0-0.1,0-0.1,0c0,0-0.1,0-0.2,0.1s-0.2,0.1-0.3,0.2l-0.1-0.2L100.6,160.5L100.6,160.5z"/>
								<g class="st16">
									<defs>
										<polygon id="SVGID_15_" points="4.9,166 196.6,166 196.6,39.4 4.9,39.4 4.9,166 										"/>
									</defs>
									<clipPath id="SVGID_16_">
										<use xlink:href="#SVGID_15_"  style="overflow:visible;"/>
									</clipPath>
									<path class="st17" d="M104.6,160.4c0.5,0.1,0.8,0.4,1,0.8c0.2,0.4,0.4,0.9,0.4,1.4c0,0.6-0.1,1-0.4,1.4s-0.6,0.7-1.1,0.8
										l-0.1-0.2c0.4-0.1,0.6-0.4,0.8-0.7c0.2-0.4,0.3-0.8,0.3-1.3c0-0.5-0.1-1-0.3-1.3s-0.4-0.6-0.8-0.7L104.6,160.4z"/>
									<g class="st18">
										<defs>
											<polygon id="SVGID_17_" points="4.9,166 196.6,166 196.6,39.4 4.9,39.4 4.9,166 											"/>
										</defs>
										<clipPath id="SVGID_18_">
											<use xlink:href="#SVGID_17_"  style="overflow:visible;"/>
										</clipPath>
										<path class="st19" d="M156.8,62.4c0.2,0,0.4,0,0.6,0.1l-0.1,0.6h-0.3c0-0.1-0.1-0.2-0.1-0.3s-0.1-0.1-0.2-0.1
											c-0.1,0-0.3,0-0.4,0.1c-0.1,0.1-0.2,0.2-0.2,0.3c-0.1,0.2-0.1,0.4-0.2,0.6l-0.1,0.4h0.9l-0.1,0.4h-0.9l-0.7,3.2
											c-0.1,0.5-0.3,0.9-0.5,1.2c-0.2,0.3-0.5,0.4-0.9,0.4c-0.1,0-0.2,0-0.2,0l0.1-0.3c0,0,0.1,0,0.2,0c0.1,0,0.2,0,0.3-0.1
											c0.1-0.1,0.1-0.2,0.2-0.3c0.1-0.1,0.1-0.3,0.2-0.6l0.8-3.5h-0.6l0.1-0.3c0.2,0,0.3,0,0.4,0s0.1,0,0.2-0.1
											c0,0,0.1-0.1,0.1-0.1c0-0.1,0.1-0.2,0.1-0.3c0.1-0.4,0.3-0.8,0.6-1C156,62.5,156.4,62.4,156.8,62.4L156.8,62.4z"/>
										<g class="st20">
											<defs>
												<polygon id="SVGID_19_" points="4.9,166 196.6,166 196.6,39.4 4.9,39.4 4.9,166 												"/>
											</defs>
											<clipPath id="SVGID_20_">
												<use xlink:href="#SVGID_19_"  style="overflow:visible;"/>
											</clipPath>
											<path class="st21" d="M165.2,62c0.7,0.2,1.3,0.6,1.6,1.2c0.4,0.6,0.6,1.4,0.6,2.2c0,0.9-0.2,1.6-0.6,2.2
												c-0.4,0.6-0.9,1-1.6,1.2l-0.1-0.3c0.6-0.2,1-0.6,1.2-1.1c0.3-0.5,0.4-1.2,0.4-2.1c0-0.8-0.1-1.5-0.4-2
												c-0.3-0.5-0.7-0.9-1.3-1.1L165.2,62z M160.5,62l0.1,0.3c-0.6,0.2-1,0.6-1.3,1.1c-0.3,0.5-0.4,1.2-0.4,2
												c0,0.8,0.1,1.5,0.4,2.1c0.3,0.5,0.7,0.9,1.2,1.1l-0.1,0.3c-0.7-0.2-1.3-0.6-1.6-1.2c-0.4-0.6-0.6-1.4-0.6-2.2
												c0-0.9,0.2-1.6,0.6-2.2C159.3,62.6,159.8,62.2,160.5,62L160.5,62z"/>
											<g class="st22">
												<defs>
													<polygon id="SVGID_21_" points="4.9,166 196.6,166 196.6,39.4 4.9,39.4 4.9,166 													"/>
												</defs>
												<clipPath id="SVGID_22_">
													<use xlink:href="#SVGID_21_"  style="overflow:visible;"/>
												</clipPath>
												<path class="st23" d="M162.2,64c0.1,0,0.1,0,0.2,0c0.1,0,0.1,0,0.2,0.1c0,0,0.1,0.1,0.1,0.1c0,0.1,0.1,0.1,0.1,0.2
													c0,0.1,0.1,0.2,0.1,0.4c0,0.1,0.1,0.3,0.1,0.4h0c0.2-0.3,0.4-0.6,0.5-0.7c0.1-0.2,0.2-0.3,0.3-0.3
													c0.1-0.1,0.2-0.1,0.2-0.2c0.1,0,0.2,0,0.3,0c0.1,0,0.2,0,0.3,0l-0.1,0.7h-0.3c0-0.1-0.1-0.2-0.1-0.2c0,0,0,0-0.1,0
													c0,0-0.1,0-0.1,0c0,0-0.1,0.1-0.2,0.1c-0.1,0.1-0.1,0.2-0.2,0.3c-0.1,0.1-0.2,0.2-0.3,0.3l-0.2,0.3
													c0,0.2,0.1,0.4,0.1,0.6c0,0.2,0.1,0.3,0.1,0.4c0,0.1,0.1,0.2,0.1,0.3c0,0.1,0,0.1,0.1,0.1s0.1,0.1,0.1,0.1s0.1,0,0.1,0
													c0.1,0,0.1,0,0.2-0.1c0.1-0.1,0.2-0.2,0.3-0.3l0.2,0.2c-0.2,0.3-0.3,0.4-0.5,0.5c-0.1,0.1-0.3,0.2-0.5,0.2
													c-0.1,0-0.2,0-0.3-0.1c-0.1,0-0.1-0.1-0.2-0.2c-0.1-0.1-0.1-0.2-0.1-0.4c-0.1-0.3-0.1-0.5-0.1-0.7h0
													c-0.3,0.4-0.4,0.6-0.6,0.8c-0.1,0.2-0.2,0.3-0.3,0.3c-0.1,0.1-0.2,0.1-0.2,0.2c-0.1,0-0.2,0-0.3,0c-0.1,0-0.2,0-0.3,0
													l0.1-0.7h0.3c0,0.1,0.1,0.2,0.1,0.2c0,0,0.1,0,0.1,0c0,0,0.1-0.1,0.2-0.1c0.1-0.1,0.2-0.2,0.3-0.3
													c0.1-0.1,0.3-0.4,0.5-0.7c0-0.2-0.1-0.4-0.1-0.6c0-0.2-0.1-0.3-0.1-0.5c0-0.2-0.1-0.3-0.1-0.3c0,0-0.1-0.1-0.1-0.1
													c0,0-0.1,0-0.1,0c-0.1,0-0.1,0-0.1,0c0,0-0.1,0.1-0.1,0.1c0,0.1-0.1,0.1-0.2,0.3l-0.2-0.2c0.2-0.2,0.3-0.4,0.4-0.5
													C161.9,64.1,162,64,162.2,64L162.2,64z"/>
												<g class="st24">
													<defs>
														<polygon id="SVGID_23_" points="4.9,166 196.6,166 196.6,39.4 4.9,39.4 4.9,166 														"/>
													</defs>
													<clipPath id="SVGID_24_">
														<use xlink:href="#SVGID_23_"  style="overflow:visible;"/>
													</clipPath>
													<path class="st25" d="M170.6,66h4.5v0.5h-4.5V66L170.6,66z M170.6,64.5h4.5v0.5h-4.5V64.5L170.6,64.5z"/>
													<g class="st26">
														<defs>
															<polygon id="SVGID_25_" points="4.9,166 196.6,166 196.6,39.4 4.9,39.4 4.9,166 															"/>
														</defs>
														<clipPath id="SVGID_26_">
															<use xlink:href="#SVGID_25_"  style="overflow:visible;"/>
														</clipPath>
														<path class="st27" d="M179.8,62.6c0.5,0,0.8,0.1,1,0.3s0.3,0.5,0.3,0.9c0,0.1,0,0.2,0,0.4c0,0.1-0.1,0.2-0.1,0.3
															c-0.1,0.1-0.1,0.2-0.2,0.3s-0.2,0.2-0.3,0.4c-0.1,0.1-0.3,0.3-0.6,0.6c-0.5,0.5-0.8,0.9-1,1.3h1.4c0.1,0,0.2,0,0.3,0
															c0.1,0,0.1,0,0.2-0.1c0,0,0.1-0.1,0.1-0.1c0-0.1,0.1-0.1,0.1-0.3h0.3l-0.1,1.1h-3v-0.2c0.1-0.3,0.2-0.5,0.4-0.8
															c0.2-0.3,0.4-0.6,0.8-0.9c0.3-0.3,0.5-0.5,0.6-0.7c0.1-0.2,0.2-0.3,0.3-0.5s0.1-0.2,0.1-0.4c0-0.1,0-0.2,0-0.3
															c0-0.2,0-0.3-0.1-0.5c-0.1-0.1-0.1-0.2-0.3-0.3c-0.1-0.1-0.3-0.1-0.5-0.1c-0.5,0-0.8,0.3-0.9,0.8h-0.4V63
															c0.3-0.1,0.6-0.2,0.8-0.3C179.4,62.6,179.6,62.6,179.8,62.6L179.8,62.6z"/>
														<g class="st28">
															<defs>
																<polygon id="SVGID_27_" points="4.9,166 196.6,166 196.6,39.4 4.9,39.4 4.9,166 																"/>
															</defs>
															<clipPath id="SVGID_28_">
																<use xlink:href="#SVGID_27_"  style="overflow:visible;"/>
															</clipPath>
															<path class="st29" d="M183.2,62.2c0.1,0,0.2,0,0.2,0.1c0.1,0,0.1,0.1,0.2,0.2c0,0.1,0.1,0.2,0.1,0.3
																c0,0.1,0.1,0.3,0.1,0.4h0c0.1-0.1,0.2-0.3,0.3-0.4c0.1-0.1,0.1-0.2,0.2-0.3c0.1-0.1,0.1-0.1,0.2-0.2
																c0,0,0.1-0.1,0.1-0.1c0,0,0.1,0,0.1,0c0,0,0.1,0,0.2,0c0.1,0,0.2,0,0.2,0l-0.1,0.5h-0.2c0-0.1,0-0.1-0.1-0.1
																c0,0,0,0-0.1,0c0,0-0.1,0-0.1,0c0,0-0.1,0.1-0.1,0.1c0,0-0.1,0.1-0.1,0.1c-0.1,0.1-0.1,0.1-0.2,0.2s-0.2,0.2-0.2,0.3
																c0,0.2,0.1,0.4,0.1,0.6c0,0.1,0.1,0.3,0.1,0.3s0.1,0.1,0.1,0.2c0,0,0.1,0,0.1,0c0,0,0.1,0,0.1,0c0,0,0.1,0,0.1,0
																c0,0,0.1-0.1,0.1-0.1c0,0,0.1-0.1,0.1-0.2l0.2,0.1c-0.1,0.1-0.1,0.2-0.2,0.3c-0.1,0.1-0.1,0.1-0.2,0.2
																c-0.1,0-0.1,0.1-0.2,0.1c-0.1,0-0.1,0-0.2,0c-0.1,0-0.1,0-0.2,0s-0.1-0.1-0.1-0.1c0,0-0.1-0.1-0.1-0.1
																c0-0.1,0-0.1-0.1-0.2c0-0.1,0-0.1-0.1-0.2c0-0.1,0-0.1,0-0.2c0-0.1,0-0.1,0-0.1c0,0,0-0.1,0-0.1h0
																c-0.1,0.1-0.2,0.3-0.3,0.4c-0.1,0.1-0.1,0.2-0.2,0.3c-0.1,0.1-0.1,0.1-0.2,0.2c-0.1,0-0.1,0.1-0.2,0.1
																c0,0-0.1,0-0.2,0.1c-0.1,0-0.1,0-0.2,0c-0.1,0-0.2,0-0.2,0l0.1-0.5h0.2c0,0.1,0,0.1,0.1,0.1c0,0,0,0,0.1,0
																c0,0,0,0,0.1,0c0,0,0.1,0,0.1-0.1c0,0,0.1-0.1,0.1-0.2c0.1-0.1,0.1-0.1,0.2-0.2c0.1-0.1,0.2-0.2,0.3-0.4
																c0-0.1-0.1-0.3-0.1-0.4c0-0.1,0-0.2-0.1-0.3c0-0.1,0-0.1-0.1-0.2c0,0,0-0.1-0.1-0.1c0,0,0,0-0.1-0.1c0,0-0.1,0-0.1,0
																c0,0-0.1,0-0.1,0c0,0-0.1,0-0.1,0.1c0,0-0.1,0.1-0.1,0.1c0,0-0.1,0.1-0.1,0.2l-0.2-0.1c0.1-0.1,0.1-0.2,0.2-0.3
																c0.1-0.1,0.1-0.1,0.2-0.2s0.1-0.1,0.2-0.1C183,62.2,183.1,62.2,183.2,62.2L183.2,62.2z"/>
															<g class="st30">
																<defs>
																	<polygon id="SVGID_29_" points="4.9,166 196.6,166 196.6,39.4 4.9,39.4 4.9,166 																	"/>
																</defs>
																<clipPath id="SVGID_30_">
																	<use xlink:href="#SVGID_29_"  style="overflow:visible;"/>
																</clipPath>
																<path class="st31" d="M75.5,124.1h0.1c0,0.2,0,0.4,0,0.7v2.2c0,0.1,0,0.2,0,0.2c0,0.1,0,0.1,0.1,0.1
																	c0,0,0.1,0.1,0.1,0.1c0.1,0,0.1,0,0.2,0s0.2,0,0.3,0v0.2h-1.9v-0.2c0.2,0,0.3,0,0.4,0c0.1,0,0.1,0,0.2-0.1
																	c0,0,0.1-0.1,0.1-0.1c0-0.1,0-0.1,0-0.3v-2.1c0-0.1,0-0.1,0-0.2c0,0-0.1,0-0.1,0c-0.1,0-0.1,0-0.2,0.1
																	c-0.1,0.1-0.2,0.1-0.4,0.2l-0.1-0.2L75.5,124.1L75.5,124.1z"/>
																<g class="st32">
																	<defs>
																		<polygon id="SVGID_31_" points="4.9,166 196.6,166 196.6,39.4 4.9,39.4 4.9,166 																		"/>
																	</defs>
																	<clipPath id="SVGID_32_">
																		<use xlink:href="#SVGID_31_"  style="overflow:visible;"/>
																	</clipPath>
																	<g class="st33">
																		<g>
																			<line class="st34" x1="80.9" y1="107.3" x2="83.2" y2="107.3"/>
																			<line class="st35" x1="84.9" y1="107.3" x2="102.4" y2="107.3"/>
																			<line class="st34" x1="103.3" y1="107.3" x2="105.6" y2="107.3"/>
																		</g>
																	</g>
																	<g class="st33">
																		<defs>
																			<polygon id="SVGID_33_" points="4.9,166 196.6,166 196.6,39.4 4.9,39.4 4.9,166 																			"/>
																		</defs>
																		<clipPath id="SVGID_34_">
																			<use xlink:href="#SVGID_33_"  style="overflow:visible;"/>
																		</clipPath>
																		<g class="st36">
																			<g>
																				<line class="st37" x1="105.5" y1="147.2" x2="105.5" y2="144.9"/>
																				<line class="st38" x1="105.5" y1="143" x2="105.3" y2="110.5"/>
																				<line class="st37" x1="105.3" y1="109.6" x2="105.3" y2="107.3"/>
																			</g>
																		</g>
																		<g class="st36">
																			<defs>
																				<polygon id="SVGID_35_" points="4.9,166 196.6,166 196.6,39.4 4.9,39.4 4.9,166 																				"/>
																			</defs>
																			<clipPath id="SVGID_36_">
																				<use xlink:href="#SVGID_35_"  style="overflow:visible;"/>
																			</clipPath>
																			<path class="st39" d="M105.5,150.3h0.1c0,0.2,0,0.4,0,0.7v2.2c0,0.1,0,0.2,0,0.2c0,0.1,0,0.1,0.1,0.1
																				c0,0,0.1,0.1,0.1,0.1c0.1,0,0.1,0,0.2,0s0.2,0,0.3,0v0.2h-1.9v-0.2c0.2,0,0.3,0,0.4,0c0.1,0,0.1,0,0.2-0.1
																				c0,0,0.1-0.1,0.1-0.1c0-0.1,0-0.1,0-0.3v-2.1c0-0.1,0-0.1,0-0.2c0,0-0.1,0-0.1,0c-0.1,0-0.1,0-0.2,0.1
																				c-0.1,0.1-0.2,0.1-0.4,0.2l-0.1-0.2L105.5,150.3L105.5,150.3z"/>
																			<g class="st40">
																				<defs>
																					<polygon id="SVGID_37_" points="4.9,166 196.6,166 196.6,39.4 4.9,39.4 4.9,166 																					"/>
																				</defs>
																				<clipPath id="SVGID_38_">
																					<use xlink:href="#SVGID_37_"  style="overflow:visible;"/>
																				</clipPath>
																				<path class="st41" d="M5.7,147.1c25.4-1.1,50.7-2.2,75.1-18.4s47.8-47.4,71.2-78.6"/>
																				<g class="st42">
																					<defs>
																						<polygon id="SVGID_39_" points="4.9,166 196.6,166 196.6,39.4 4.9,39.4 4.9,166 																						"/>
																					</defs>
																					<clipPath id="SVGID_40_">
																						<use xlink:href="#SVGID_39_"  style="overflow:visible;"/>
																					</clipPath>
																					<path class="st43" d="M75.8,104.6c0.3,0,0.6,0.1,0.7,0.2c0.2,0.1,0.2,0.3,0.2,0.6c0,0.1,0,0.2,0,0.3
																						c0,0.1,0,0.2-0.1,0.2c0,0.1-0.1,0.2-0.2,0.2c-0.1,0.1-0.1,0.2-0.2,0.3s-0.2,0.2-0.4,0.4
																						c-0.3,0.3-0.6,0.7-0.7,0.9h1c0.1,0,0.2,0,0.2,0c0.1,0,0.1,0,0.1-0.1c0,0,0.1-0.1,0.1-0.1c0,0,0-0.1,0.1-0.2
																						h0.2l0,0.8h-2.1v-0.1c0.1-0.2,0.2-0.4,0.3-0.6c0.1-0.2,0.3-0.4,0.5-0.7c0.2-0.2,0.3-0.4,0.4-0.5
																						c0.1-0.1,0.2-0.2,0.2-0.3c0-0.1,0.1-0.2,0.1-0.3c0-0.1,0-0.2,0-0.2c0-0.1,0-0.2-0.1-0.3c0-0.1-0.1-0.2-0.2-0.2
																						c-0.1-0.1-0.2-0.1-0.3-0.1c-0.3,0-0.5,0.2-0.7,0.5h-0.3v-0.5c0.2-0.1,0.4-0.2,0.6-0.2
																						C75.5,104.6,75.7,104.6,75.8,104.6L75.8,104.6z"/>
																				</g>
																			</g>
																		</g>
																	</g>
																</g>
															</g>
														</g>
													</g>
												</g>
											</g>
										</g>
									</g>
								</g>
							</g>
						</g>
					</g>
				</g>
			</g>
		</g>
	</g>
</g>
<path class="st44" d="M105.4,131.4"/>
</svg>
