<?xml version="1.0" encoding="utf-8"?>
<!-- Generator: Adobe Illustrator 23.0.2, SVG Export Plug-In . SVG Version: 6.00 Build 0)  -->
<svg version="1.0" id="Layer_1" xmlns="http://www.w3.org/2000/svg" xmlns:xlink="http://www.w3.org/1999/xlink" x="0px" y="0px"
	 viewBox="0 0 220 165" style="enable-background:new 0 0 220 165;" xml:space="preserve">
<style type="text/css">
	.st0{fill:none;stroke:#000000;stroke-width:0.8986;stroke-miterlimit:8;}
	.st1{fill-rule:evenodd;clip-rule:evenodd;}
	.st2{clip-path:url(#SVGID_2_);fill:none;stroke:#000000;stroke-width:0.8986;stroke-miterlimit:8;}
	.st3{clip-path:url(#SVGID_2_);fill-rule:evenodd;clip-rule:evenodd;}
	.st4{clip-path:url(#SVGID_2_);}
	.st5{clip-path:url(#SVGID_4_);fill-rule:evenodd;clip-rule:evenodd;}
	.st6{clip-path:url(#SVGID_4_);}
	.st7{clip-path:url(#SVGID_6_);fill-rule:evenodd;clip-rule:evenodd;}
	.st8{clip-path:url(#SVGID_6_);}
	.st9{clip-path:url(#SVGID_8_);fill-rule:evenodd;clip-rule:evenodd;}
	.st10{clip-path:url(#SVGID_8_);}
	.st11{clip-path:url(#SVGID_10_);fill-rule:evenodd;clip-rule:evenodd;}
	.st12{clip-path:url(#SVGID_10_);}
	.st13{clip-path:url(#SVGID_12_);fill-rule:evenodd;clip-rule:evenodd;}
	.st14{clip-path:url(#SVGID_12_);}
	.st15{clip-path:url(#SVGID_14_);fill-rule:evenodd;clip-rule:evenodd;}
	.st16{clip-path:url(#SVGID_14_);}
	.st17{clip-path:url(#SVGID_16_);fill-rule:evenodd;clip-rule:evenodd;}
	.st18{clip-path:url(#SVGID_16_);}
	.st19{clip-path:url(#SVGID_18_);fill-rule:evenodd;clip-rule:evenodd;fill:#2F5597;}
	.st20{clip-path:url(#SVGID_18_);}
	.st21{clip-path:url(#SVGID_20_);fill-rule:evenodd;clip-rule:evenodd;fill:#2F5597;}
	.st22{clip-path:url(#SVGID_20_);}
	.st23{clip-path:url(#SVGID_22_);fill-rule:evenodd;clip-rule:evenodd;fill:#2F5597;}
	.st24{clip-path:url(#SVGID_22_);}
	.st25{clip-path:url(#SVGID_24_);fill-rule:evenodd;clip-rule:evenodd;fill:#2F5597;}
	.st26{clip-path:url(#SVGID_24_);}
	.st27{clip-path:url(#SVGID_26_);fill-rule:evenodd;clip-rule:evenodd;fill:#2F5597;}
	.st28{clip-path:url(#SVGID_26_);}
	.st29{clip-path:url(#SVGID_28_);fill-rule:evenodd;clip-rule:evenodd;fill:#2F5597;}
	.st30{clip-path:url(#SVGID_28_);}
	.st31{clip-path:url(#SVGID_30_);fill-rule:evenodd;clip-rule:evenodd;}
	.st32{clip-path:url(#SVGID_30_);}
	.st33{clip-path:url(#SVGID_32_);}
	.st34{fill:none;stroke:#000000;stroke-width:0.6739;stroke-miterlimit:8;}
	.st35{fill:none;stroke:#000000;stroke-width:0.6739;stroke-miterlimit:8;stroke-dasharray:4.9178,1.9671;}
	.st36{clip-path:url(#SVGID_34_);}
	.st37{fill:none;stroke:#000000;stroke-width:0.5152;stroke-miterlimit:8;}
	.st38{fill:none;stroke:#000000;stroke-width:0.5152;stroke-miterlimit:8;stroke-dasharray:5.368,2.1472;}
	.st39{clip-path:url(#SVGID_36_);fill-rule:evenodd;clip-rule:evenodd;}
	.st40{clip-path:url(#SVGID_36_);}
	.st41{clip-path:url(#SVGID_38_);fill:none;stroke:#2F5597;stroke-width:1.3479;stroke-miterlimit:8;}
	.st42{clip-path:url(#SVGID_38_);}
	.st43{clip-path:url(#SVGID_40_);fill-rule:evenodd;clip-rule:evenodd;}
	.st44{fill:#FFFFFF;stroke:#231F20;stroke-width:1.0305;stroke-miterlimit:10;}
</style>
<g>
	<line class="st0" x1="2.2" y1="131.3" x2="208.2" y2="131.3"/>
	<polygon class="st1" points="207.7,130 210.4,131.3 207.7,132.7 207.7,130 	"/>
	<g>
		<defs>
			<polygon id="SVGID_1_" points="2.2,152.3 217.8,152.3 217.8,9.8 2.2,9.8 2.2,152.3 			"/>
		</defs>
		<clipPath id="SVGID_2_">
			<use xlink:href="#SVGID_1_"  style="overflow:visible;"/>
		</clipPath>
		<line class="st2" x1="87.6" y1="138.4" x2="87.6" y2="21.4"/>
		<polygon class="st3" points="89,21.8 87.6,19.1 86.3,21.8 89,21.8 		"/>
		<g class="st4">
			<defs>
				<polygon id="SVGID_3_" points="2.2,152.3 217.8,152.3 217.8,9.8 2.2,9.8 2.2,152.3 				"/>
			</defs>
			<clipPath id="SVGID_4_">
				<use xlink:href="#SVGID_3_"  style="overflow:visible;"/>
			</clipPath>
			<path class="st5" d="M80.4,15.9c0.1,0,0.3,0,0.4,0.1c0.1,0,0.1,0.1,0.2,0.1c0.1,0.1,0.1,0.2,0.2,0.3c0.1,0.1,0.1,0.2,0.1,0.4
				c0,0.1,0.1,0.4,0.1,0.6c0.1,0.5,0.2,0.9,0.2,1.4c0.1,0.5,0.1,1,0.2,1.4c0.3-0.5,0.6-1,0.9-1.4s0.4-0.9,0.5-1.2s0.2-0.6,0.2-0.8
				c0-0.2,0-0.3-0.1-0.3c-0.1-0.1-0.2-0.1-0.4-0.1L83,16h1.4l0.1,0.3c-0.3,0.7-0.6,1.5-1.1,2.3c-0.4,0.8-1,1.6-1.5,2.4
				c-0.6,0.8-1,1.3-1.4,1.7c-0.3,0.2-0.5,0.4-0.7,0.5c-0.2,0.1-0.4,0.1-0.6,0.1c-0.1,0-0.2,0-0.3,0s-0.2,0-0.2-0.1l0.2-1h0.4
				c0,0.2,0.1,0.3,0.2,0.3c0.2,0,0.4-0.1,0.7-0.4c0.3-0.3,0.6-0.6,1-1.2c-0.1-0.6-0.2-1.4-0.4-2.2c-0.2-0.9-0.3-1.5-0.4-1.7
				c-0.1-0.3-0.2-0.4-0.2-0.5c0,0-0.1-0.1-0.2-0.1c-0.1,0-0.2,0-0.3,0.1c-0.1,0.1-0.2,0.2-0.4,0.5L79,16.9c0.2-0.4,0.5-0.6,0.7-0.8
				C79.9,15.9,80.1,15.9,80.4,15.9L80.4,15.9z"/>
			<g class="st6">
				<defs>
					<polygon id="SVGID_5_" points="2.2,152.3 217.8,152.3 217.8,9.8 2.2,9.8 2.2,152.3 					"/>
				</defs>
				<clipPath id="SVGID_6_">
					<use xlink:href="#SVGID_5_"  style="overflow:visible;"/>
				</clipPath>
				<path class="st7" d="M209.2,134.7c0.1,0,0.2,0,0.3,0c0.1,0,0.2,0.1,0.2,0.1c0.1,0.1,0.1,0.1,0.2,0.2c0,0.1,0.1,0.2,0.1,0.3
					c0,0.1,0.1,0.3,0.1,0.5c0,0.2,0.1,0.4,0.1,0.6h0.1c0.3-0.5,0.6-0.8,0.8-1c0.2-0.2,0.3-0.4,0.4-0.5c0.1-0.1,0.2-0.2,0.3-0.2
					c0.1,0,0.3-0.1,0.4-0.1c0.2,0,0.3,0,0.4,0.1l-0.2,1h-0.4c0-0.1-0.1-0.2-0.2-0.2c0,0-0.1,0-0.1,0s-0.1,0-0.1,0.1
					c-0.1,0-0.1,0.1-0.2,0.2c-0.1,0.1-0.2,0.2-0.3,0.4c-0.1,0.1-0.2,0.3-0.4,0.5l-0.4,0.4c0.1,0.3,0.1,0.6,0.2,0.9
					c0.1,0.2,0.1,0.5,0.2,0.6c0,0.2,0.1,0.3,0.1,0.4c0,0.1,0.1,0.2,0.1,0.2c0,0,0.1,0.1,0.1,0.1c0,0,0.1,0,0.1,0
					c0.1,0,0.2,0,0.3-0.1c0.1-0.1,0.2-0.2,0.4-0.5l0.3,0.2c-0.2,0.4-0.5,0.6-0.7,0.8c-0.2,0.1-0.4,0.2-0.7,0.2c-0.2,0-0.3,0-0.4-0.1
					c-0.1-0.1-0.2-0.1-0.3-0.3c-0.1-0.1-0.1-0.3-0.2-0.6c-0.1-0.4-0.2-0.8-0.2-1h-0.1c-0.4,0.5-0.6,0.9-0.8,1.1
					c-0.2,0.2-0.3,0.4-0.4,0.5s-0.2,0.2-0.3,0.2c-0.1,0-0.3,0.1-0.4,0.1c-0.2,0-0.3,0-0.4-0.1l0.2-1h0.4c0,0.1,0.1,0.2,0.2,0.2
					c0,0,0.1,0,0.2,0c0.1,0,0.1-0.1,0.2-0.2s0.2-0.3,0.4-0.5c0.2-0.2,0.4-0.5,0.8-1c-0.1-0.3-0.1-0.5-0.2-0.8
					c-0.1-0.3-0.1-0.5-0.2-0.7c-0.1-0.2-0.1-0.4-0.1-0.4c0-0.1-0.1-0.1-0.1-0.1c0,0-0.1,0-0.2,0c-0.1,0-0.1,0-0.2,0.1
					c-0.1,0-0.1,0.1-0.2,0.2c-0.1,0.1-0.2,0.2-0.3,0.4l-0.3-0.2c0.2-0.3,0.4-0.6,0.6-0.7C208.6,134.8,208.9,134.7,209.2,134.7
					L209.2,134.7z"/>
				<g class="st8">
					<defs>
						<polygon id="SVGID_7_" points="2.2,152.3 217.8,152.3 217.8,9.8 2.2,9.8 2.2,152.3 						"/>
					</defs>
					<clipPath id="SVGID_8_">
						<use xlink:href="#SVGID_7_"  style="overflow:visible;"/>
					</clipPath>
					<path class="st9" d="M82.1,135.1c-0.4,0-0.7,0.2-1,0.5c-0.3,0.3-0.5,0.7-0.6,1.3c-0.2,0.6-0.2,1.1-0.2,1.5
						c0,0.4,0.1,0.7,0.2,0.9c0.2,0.2,0.4,0.3,0.7,0.3c0.3,0,0.6-0.2,0.9-0.5c0.3-0.3,0.5-0.7,0.6-1.3c0.2-0.6,0.2-1,0.2-1.5
						c0-0.4-0.1-0.7-0.2-0.9S82.4,135.1,82.1,135.1L82.1,135.1z M82.2,134.7c0.6,0,1,0.2,1.3,0.5c0.3,0.3,0.4,0.7,0.4,1.3
						c0,0.4-0.1,0.8-0.2,1.3s-0.3,0.9-0.6,1.2c-0.2,0.3-0.5,0.6-0.9,0.7c-0.3,0.2-0.7,0.2-1.2,0.2c-0.5,0-1-0.2-1.3-0.5
						c-0.3-0.3-0.5-0.7-0.5-1.3c0-0.3,0-0.6,0.1-1c0.1-0.5,0.3-0.9,0.5-1.3c0.3-0.4,0.6-0.7,0.9-0.9
						C81.3,134.8,81.7,134.7,82.2,134.7L82.2,134.7z"/>
					<g class="st10">
						<defs>
							<polygon id="SVGID_9_" points="2.2,152.3 217.8,152.3 217.8,9.8 2.2,9.8 2.2,152.3 							"/>
						</defs>
						<clipPath id="SVGID_10_">
							<use xlink:href="#SVGID_9_"  style="overflow:visible;"/>
						</clipPath>
						<path class="st11" d="M103.6,147.4c-0.2,0-0.3,0.1-0.5,0.3c-0.2,0.2-0.3,0.4-0.4,0.7c0.2,0,0.5,0,0.6-0.1
							c0.2,0,0.3-0.1,0.4-0.2c0.1-0.1,0.1-0.2,0.1-0.4c0-0.1,0-0.2-0.1-0.3S103.7,147.4,103.6,147.4L103.6,147.4z M95,147.4
							c-0.2,0-0.3,0.1-0.5,0.2s-0.3,0.3-0.3,0.6c-0.1,0.2-0.1,0.5-0.1,0.7c0,0.2,0,0.3,0.1,0.4c0.1,0.1,0.1,0.1,0.2,0.1
							c0.1,0,0.2,0,0.3-0.1c0.1-0.1,0.2-0.2,0.3-0.3c0.1-0.1,0.2-0.3,0.2-0.4c0.1-0.1,0.1-0.3,0.1-0.5s0.1-0.3,0.1-0.5
							c0-0.1,0-0.2-0.1-0.3C95.2,147.5,95.1,147.4,95,147.4L95,147.4z M92.3,147.2h0.2l-0.4,1.7c0,0.2-0.1,0.3-0.1,0.4
							c0,0.1,0,0.1,0,0.2c0,0,0.1,0,0.1,0c0.1,0,0.1,0,0.2-0.1s0.1-0.1,0.3-0.2l0.2,0.1c-0.2,0.2-0.3,0.3-0.4,0.4
							c-0.1,0.1-0.2,0.1-0.4,0.1c-0.1,0-0.2,0-0.3-0.1c-0.1-0.1-0.1-0.2-0.1-0.3c0-0.1,0-0.3,0.1-0.5l0.2-0.9c0-0.2,0.1-0.3,0.1-0.4
							c0-0.1,0-0.1-0.1-0.2c0,0-0.1,0-0.2,0l0-0.1L92.3,147.2L92.3,147.2z M103.7,147.2c0.2,0,0.4,0,0.5,0.1
							c0.1,0.1,0.2,0.2,0.2,0.4c0,0.3-0.1,0.5-0.4,0.7c-0.3,0.1-0.7,0.2-1.2,0.2c0,0.1,0,0.2,0,0.3c0,0.2,0,0.3,0.1,0.4
							c0.1,0.1,0.2,0.1,0.4,0.1c0.2,0,0.3,0,0.4-0.1c0.1-0.1,0.3-0.2,0.4-0.3l0.2,0.2c-0.2,0.2-0.3,0.3-0.5,0.4s-0.4,0.1-0.6,0.1
							c-0.3,0-0.5-0.1-0.6-0.2s-0.2-0.4-0.2-0.6c0-0.2,0-0.4,0.1-0.6c0.1-0.2,0.2-0.4,0.3-0.6s0.3-0.3,0.5-0.4
							C103.3,147.3,103.5,147.2,103.7,147.2L103.7,147.2z M100.2,147.2c0.1,0,0.2,0,0.3,0.1c0.1,0.1,0.1,0.2,0.1,0.3
							c0,0.1,0,0.2-0.1,0.3l0,0c0.2-0.2,0.3-0.4,0.5-0.5s0.3-0.2,0.5-0.2c0.1,0,0.2,0,0.3,0l-0.1,0.6h-0.3c0-0.1,0-0.1,0-0.2
							c0,0,0-0.1-0.1-0.1c0,0-0.1,0-0.1,0c-0.1,0-0.1,0-0.2,0.1c-0.1,0.1-0.2,0.1-0.3,0.3s-0.2,0.2-0.2,0.3
							c-0.1,0.1-0.1,0.2-0.1,0.4l-0.3,1.1h-0.5l0.4-1.7c0-0.1,0-0.2,0-0.2c0-0.1,0-0.1,0-0.1c0-0.1,0-0.1,0-0.2c0,0-0.1,0-0.1,0
							c-0.1,0-0.1,0-0.2,0.1c-0.1,0-0.1,0.1-0.2,0.2l-0.2-0.1c0.2-0.2,0.3-0.3,0.4-0.4C100,147.3,100.1,147.2,100.2,147.2
							L100.2,147.2z M97.1,147.2c0.1,0,0.2,0,0.3,0.1c0.1,0.1,0.1,0.2,0.1,0.3c0,0.1,0,0.3-0.1,0.5l-0.1,0.5c0,0.1-0.1,0.2-0.1,0.3
							c0,0.1,0,0.1,0,0.2c0,0,0,0.1,0,0.1c0,0.1,0,0.2,0.1,0.3c0,0.1,0.1,0.1,0.2,0.1c0.1,0,0.2,0,0.2-0.1c0.1-0.1,0.2-0.1,0.3-0.3
							s0.2-0.2,0.2-0.3c0.1-0.1,0.1-0.2,0.1-0.4l0.3-1.1H99l-0.4,1.7c0,0.2-0.1,0.3-0.1,0.4c0,0.1,0,0.1,0,0.2s0.1,0,0.1,0
							c0.1,0,0.1,0,0.2-0.1s0.1-0.1,0.3-0.2l0.2,0.1c-0.2,0.2-0.3,0.3-0.4,0.4c-0.1,0.1-0.2,0.1-0.4,0.1c-0.1,0-0.2,0-0.3-0.1
							c-0.1-0.1-0.1-0.2-0.1-0.3c0-0.1,0-0.2,0.1-0.3l0,0c-0.2,0.2-0.3,0.4-0.5,0.5c-0.2,0.1-0.3,0.2-0.5,0.2c-0.2,0-0.3,0-0.4-0.1
							c-0.1-0.1-0.1-0.2-0.1-0.4c0-0.1,0-0.3,0.1-0.5l0.2-0.7c0-0.2,0.1-0.3,0.1-0.4c0-0.1,0-0.1,0-0.2c0,0-0.1,0-0.1,0
							c-0.1,0-0.1,0-0.2,0.1c-0.1,0-0.1,0.1-0.2,0.2l-0.2-0.1c0.1-0.2,0.3-0.3,0.3-0.3c0.1-0.1,0.1-0.1,0.2-0.1
							C97,147.2,97.1,147.2,97.1,147.2L97.1,147.2z M95,147.2c0.1,0,0.2,0,0.3,0c0.1,0,0.2,0.1,0.3,0.1l0.2-0.2l0.2,0l-0.3,1.2
							c0,0.1-0.1,0.3-0.1,0.7c-0.1,0.4-0.1,0.6-0.2,0.8c0,0.2-0.1,0.3-0.2,0.4c-0.1,0.1-0.2,0.2-0.3,0.3c-0.1,0.1-0.2,0.2-0.4,0.2
							c-0.2,0.1-0.3,0.1-0.5,0.1c-0.7,0-1-0.2-1-0.6c0-0.1,0-0.2,0.1-0.3c0.1-0.1,0.2-0.2,0.3-0.3l0.2,0.2c0,0-0.1,0.1-0.1,0.1
							c0,0,0,0.1,0,0.1c0,0,0,0.1,0,0.1c0,0.1,0,0.2,0.1,0.3s0.2,0.1,0.4,0.1c0.2,0,0.4,0,0.5-0.1c0.1-0.1,0.2-0.3,0.3-0.5
							s0.2-0.5,0.3-1l0,0c-0.2,0.2-0.3,0.4-0.5,0.5s-0.3,0.2-0.5,0.2c-0.2,0-0.3-0.1-0.4-0.2c-0.1-0.1-0.2-0.3-0.2-0.6
							c0-0.3,0.1-0.6,0.2-0.9c0.1-0.3,0.3-0.5,0.5-0.7C94.5,147.3,94.7,147.2,95,147.2L95,147.2z M92.3,146.2h0.5l-0.1,0.5h-0.5
							L92.3,146.2L92.3,146.2z M90.8,146c0.2,0,0.3,0,0.4,0l-0.1,0.4h-0.2c0-0.1-0.1-0.2-0.1-0.2c0,0-0.1-0.1-0.2-0.1
							c-0.1,0-0.2,0-0.3,0.1c-0.1,0.1-0.1,0.1-0.2,0.2s-0.1,0.3-0.1,0.4l-0.1,0.3h0.7l-0.1,0.3h-0.7l-0.5,2.3
							c-0.1,0.4-0.2,0.7-0.4,0.9c-0.2,0.2-0.4,0.3-0.6,0.3c-0.1,0-0.1,0-0.2,0l0-0.2c0,0,0.1,0,0.1,0c0.1,0,0.1,0,0.2-0.1
							c0.1,0,0.1-0.1,0.2-0.2s0.1-0.2,0.1-0.4l0.6-2.5H89l0-0.2c0.1,0,0.2,0,0.3,0c0.1,0,0.1,0,0.1-0.1s0.1-0.1,0.1-0.1
							c0,0,0-0.1,0.1-0.2c0.1-0.3,0.2-0.6,0.4-0.7C90.2,146.1,90.5,146,90.8,146L90.8,146z"/>
						<g class="st12">
							<defs>
								<polygon id="SVGID_11_" points="2.2,152.3 217.8,152.3 217.8,9.8 2.2,9.8 2.2,152.3 								"/>
							</defs>
							<clipPath id="SVGID_12_">
								<use xlink:href="#SVGID_11_"  style="overflow:visible;"/>
							</clipPath>
							<path class="st13" d="M108,146l0.1,0.2c-0.4,0.1-0.7,0.4-0.9,0.8c-0.2,0.4-0.3,0.9-0.3,1.5c0,0.6,0.1,1.1,0.3,1.5
								c0.2,0.4,0.5,0.7,0.9,0.8L108,151c-0.5-0.1-0.9-0.4-1.2-0.9s-0.4-1-0.4-1.6c0-0.6,0.1-1.2,0.4-1.6
								C107.1,146.4,107.5,146.1,108,146L108,146z"/>
							<g class="st14">
								<defs>
									<polygon id="SVGID_13_" points="2.2,152.3 217.8,152.3 217.8,9.8 2.2,9.8 2.2,152.3 									"/>
								</defs>
								<clipPath id="SVGID_14_">
									<use xlink:href="#SVGID_13_"  style="overflow:visible;"/>
								</clipPath>
								<path class="st15" d="M112.9,146.1h0.1c0,0.2,0,0.4,0,0.7v2.2c0,0.1,0,0.2,0,0.2s0,0.1,0.1,0.1c0,0,0.1,0.1,0.1,0.1
									c0.1,0,0.1,0,0.2,0c0.1,0,0.2,0,0.3,0v0.2h-1.9v-0.2c0.2,0,0.3,0,0.4,0c0.1,0,0.1,0,0.2-0.1c0,0,0.1-0.1,0.1-0.1
									c0-0.1,0-0.1,0-0.3V147c0-0.1,0-0.1,0-0.2c0,0-0.1,0-0.1,0c-0.1,0-0.1,0-0.2,0.1c-0.1,0.1-0.2,0.1-0.4,0.2l-0.1-0.2
									L112.9,146.1L112.9,146.1z M109.9,146.1h0.1c0,0.2,0,0.4,0,0.7v2.2c0,0.1,0,0.2,0,0.2s0,0.1,0.1,0.1c0,0,0.1,0.1,0.1,0.1
									c0.1,0,0.1,0,0.2,0c0.1,0,0.2,0,0.3,0v0.2h-1.9v-0.2c0.2,0,0.3,0,0.4,0c0.1,0,0.1,0,0.2-0.1c0,0,0.1-0.1,0.1-0.1
									c0-0.1,0-0.1,0-0.3V147c0-0.1,0-0.1,0-0.2c0,0-0.1,0-0.1,0c-0.1,0-0.1,0-0.2,0.1c-0.1,0.1-0.2,0.1-0.4,0.2l-0.1-0.2
									L109.9,146.1L109.9,146.1z"/>
								<g class="st16">
									<defs>
										<polygon id="SVGID_15_" points="2.2,152.3 217.8,152.3 217.8,9.8 2.2,9.8 2.2,152.3 										"/>
									</defs>
									<clipPath id="SVGID_16_">
										<use xlink:href="#SVGID_15_"  style="overflow:visible;"/>
									</clipPath>
									<path class="st17" d="M114.3,146c0.5,0.1,0.9,0.4,1.2,0.9c0.3,0.4,0.4,1,0.4,1.6c0,0.6-0.1,1.2-0.4,1.6s-0.7,0.7-1.2,0.9
										l-0.1-0.2c0.4-0.1,0.7-0.4,0.9-0.8s0.3-0.9,0.3-1.5c0-0.6-0.1-1.1-0.3-1.5s-0.5-0.7-0.9-0.8L114.3,146z"/>
									<g class="st18">
										<defs>
											<polygon id="SVGID_17_" points="2.2,152.3 217.8,152.3 217.8,9.8 2.2,9.8 2.2,152.3 											"/>
										</defs>
										<clipPath id="SVGID_18_">
											<use xlink:href="#SVGID_17_"  style="overflow:visible;"/>
										</clipPath>
										<path class="st19" d="M173.1,35.7c0.3,0,0.5,0,0.7,0.1l-0.2,0.7h-0.4c0-0.2-0.1-0.3-0.1-0.3c-0.1-0.1-0.2-0.1-0.3-0.1
											c-0.2,0-0.3,0-0.4,0.1c-0.1,0.1-0.2,0.2-0.3,0.4c-0.1,0.2-0.1,0.4-0.2,0.7l-0.1,0.4h1.1l-0.1,0.4h-1.1l-0.8,3.6
											c-0.1,0.6-0.3,1-0.6,1.3c-0.3,0.3-0.6,0.4-1,0.4c-0.1,0-0.2,0-0.3,0l0.1-0.4c0,0,0.1,0,0.2,0c0.1,0,0.2,0,0.3-0.1
											c0.1-0.1,0.2-0.2,0.2-0.3c0.1-0.2,0.1-0.4,0.2-0.6l0.9-3.9h-0.7l0.1-0.3c0.2,0,0.3,0,0.4,0c0.1,0,0.1,0,0.2-0.1
											c0,0,0.1-0.1,0.1-0.1c0-0.1,0.1-0.2,0.1-0.3c0.1-0.5,0.4-0.9,0.7-1.1C172.2,35.8,172.6,35.7,173.1,35.7L173.1,35.7z"/>
										<g class="st20">
											<defs>
												<polygon id="SVGID_19_" points="2.2,152.3 217.8,152.3 217.8,9.8 2.2,9.8 2.2,152.3 												"/>
											</defs>
											<clipPath id="SVGID_20_">
												<use xlink:href="#SVGID_19_"  style="overflow:visible;"/>
											</clipPath>
											<path class="st21" d="M182.5,35.3c0.8,0.2,1.4,0.7,1.8,1.4s0.6,1.5,0.6,2.5c0,1-0.2,1.8-0.6,2.5c-0.4,0.7-1,1.1-1.8,1.4
												l-0.1-0.3c0.6-0.2,1.1-0.6,1.4-1.2c0.3-0.6,0.5-1.4,0.5-2.4c0-0.9-0.2-1.7-0.5-2.3c-0.3-0.6-0.8-1-1.4-1.2L182.5,35.3z
												 M177.3,35.3l0.1,0.3c-0.6,0.2-1.1,0.6-1.4,1.2c-0.3,0.6-0.5,1.4-0.5,2.3c0,1,0.2,1.7,0.5,2.4c0.3,0.6,0.8,1,1.4,1.2
												l-0.1,0.3c-0.8-0.2-1.4-0.7-1.8-1.4c-0.4-0.7-0.6-1.5-0.6-2.5c0-1,0.2-1.8,0.6-2.5S176.5,35.5,177.3,35.3L177.3,35.3z"/>
											<g class="st22">
												<defs>
													<polygon id="SVGID_21_" points="2.2,152.3 217.8,152.3 217.8,9.8 2.2,9.8 2.2,152.3 													"/>
												</defs>
												<clipPath id="SVGID_22_">
													<use xlink:href="#SVGID_21_"  style="overflow:visible;"/>
												</clipPath>
												<path class="st23" d="M179.2,37.6c0.1,0,0.2,0,0.2,0c0.1,0,0.1,0,0.2,0.1c0,0,0.1,0.1,0.1,0.2c0,0.1,0.1,0.1,0.1,0.3
													c0,0.1,0.1,0.2,0.1,0.4s0.1,0.3,0.1,0.5h0c0.3-0.4,0.5-0.6,0.6-0.8c0.1-0.2,0.2-0.3,0.3-0.4c0.1-0.1,0.2-0.1,0.3-0.2
													c0.1,0,0.2-0.1,0.3-0.1c0.1,0,0.2,0,0.3,0l-0.2,0.7h-0.3c0-0.1-0.1-0.2-0.1-0.2c0,0-0.1,0-0.1,0c0,0-0.1,0-0.1,0.1
													c0,0-0.1,0.1-0.2,0.2c-0.1,0.1-0.2,0.2-0.3,0.3c-0.1,0.1-0.2,0.2-0.3,0.4l-0.3,0.3c0,0.3,0.1,0.5,0.1,0.7
													c0,0.2,0.1,0.3,0.1,0.5c0,0.1,0.1,0.2,0.1,0.3c0,0.1,0.1,0.1,0.1,0.2c0,0,0.1,0.1,0.1,0.1s0.1,0,0.1,0
													c0.1,0,0.1,0,0.2-0.1c0.1-0.1,0.2-0.2,0.3-0.4l0.3,0.2c-0.2,0.3-0.4,0.5-0.5,0.6c-0.2,0.1-0.3,0.2-0.6,0.2
													c-0.1,0-0.2,0-0.3-0.1c-0.1,0-0.2-0.1-0.2-0.2c-0.1-0.1-0.1-0.2-0.2-0.4c-0.1-0.3-0.1-0.6-0.2-0.8h0
													c-0.3,0.4-0.5,0.7-0.6,0.9c-0.1,0.2-0.3,0.3-0.3,0.4c-0.1,0.1-0.2,0.1-0.3,0.2c-0.1,0-0.2,0.1-0.3,0.1
													c-0.1,0-0.2,0-0.3,0l0.2-0.7h0.3c0,0.1,0.1,0.2,0.1,0.2c0,0,0.1,0,0.1,0c0,0,0.1-0.1,0.2-0.1c0.1-0.1,0.2-0.2,0.3-0.4
													c0.1-0.2,0.3-0.4,0.6-0.7c0-0.2-0.1-0.4-0.1-0.6c0-0.2-0.1-0.4-0.1-0.6c0-0.2-0.1-0.3-0.1-0.3c0-0.1-0.1-0.1-0.1-0.1
													s-0.1,0-0.1,0c-0.1,0-0.1,0-0.2,0c0,0-0.1,0.1-0.2,0.1c-0.1,0.1-0.1,0.2-0.2,0.3l-0.3-0.2c0.2-0.3,0.3-0.5,0.5-0.6
													C178.8,37.6,179,37.6,179.2,37.6L179.2,37.6z"/>
												<g class="st24">
													<defs>
														<polygon id="SVGID_23_" points="2.2,152.3 217.8,152.3 217.8,9.8 2.2,9.8 2.2,152.3 														"/>
													</defs>
													<clipPath id="SVGID_24_">
														<use xlink:href="#SVGID_23_"  style="overflow:visible;"/>
													</clipPath>
													<path class="st25" d="M188.7,39.7h5v0.5h-5V39.7L188.7,39.7z M188.7,38h5v0.5h-5V38L188.7,38z"/>
													<g class="st26">
														<defs>
															<polygon id="SVGID_25_" points="2.2,152.3 217.8,152.3 217.8,9.8 2.2,9.8 2.2,152.3 															"/>
														</defs>
														<clipPath id="SVGID_26_">
															<use xlink:href="#SVGID_25_"  style="overflow:visible;"/>
														</clipPath>
														<path class="st27" d="M199,35.9c0.5,0,0.9,0.1,1.1,0.3c0.3,0.2,0.4,0.5,0.4,1c0,0.1,0,0.3,0,0.4
															c0,0.1-0.1,0.2-0.1,0.4c-0.1,0.1-0.1,0.2-0.2,0.4c-0.1,0.1-0.2,0.3-0.3,0.4c-0.1,0.1-0.3,0.4-0.7,0.7
															c-0.5,0.5-0.9,1-1.1,1.4h1.5c0.1,0,0.2,0,0.3,0c0.1,0,0.1,0,0.2-0.1c0,0,0.1-0.1,0.1-0.1c0-0.1,0.1-0.2,0.1-0.3h0.3
															l-0.1,1.2h-3.4v-0.2c0.1-0.3,0.3-0.6,0.5-0.9c0.2-0.3,0.5-0.7,0.8-1.1c0.3-0.3,0.5-0.6,0.7-0.8
															c0.2-0.2,0.3-0.4,0.3-0.5c0.1-0.1,0.1-0.3,0.2-0.4c0-0.1,0-0.3,0-0.4c0-0.2,0-0.4-0.1-0.5c-0.1-0.2-0.2-0.3-0.3-0.4
															c-0.1-0.1-0.3-0.1-0.5-0.1c-0.5,0-0.9,0.3-1,0.9h-0.5v-0.8c0.3-0.2,0.6-0.3,0.9-0.3C198.5,35.9,198.8,35.9,199,35.9
															L199,35.9z"/>
														<g class="st28">
															<defs>
																<polygon id="SVGID_27_" points="2.2,152.3 217.8,152.3 217.8,9.8 2.2,9.8 2.2,152.3 																"/>
															</defs>
															<clipPath id="SVGID_28_">
																<use xlink:href="#SVGID_27_"  style="overflow:visible;"/>
															</clipPath>
															<path class="st29" d="M202.8,35.4c0.1,0,0.2,0,0.3,0.1c0.1,0,0.1,0.1,0.2,0.2c0,0.1,0.1,0.2,0.1,0.3
																c0,0.1,0.1,0.3,0.1,0.5h0c0.1-0.2,0.2-0.3,0.3-0.4c0.1-0.1,0.2-0.2,0.2-0.3c0.1-0.1,0.1-0.1,0.2-0.2
																c0.1,0,0.1-0.1,0.2-0.1c0.1,0,0.1,0,0.2-0.1s0.1,0,0.2,0c0.1,0,0.2,0,0.3,0.1l-0.1,0.6h-0.2c0-0.1,0-0.1-0.1-0.1
																c0,0,0,0-0.1,0c0,0-0.1,0-0.1,0c0,0-0.1,0.1-0.1,0.1c0,0-0.1,0.1-0.2,0.2c-0.1,0.1-0.1,0.2-0.2,0.3
																c-0.1,0.1-0.2,0.2-0.3,0.4c0.1,0.3,0.1,0.5,0.1,0.7c0,0.2,0.1,0.3,0.1,0.4c0,0.1,0.1,0.1,0.1,0.2s0.1,0,0.1,0
																c0,0,0.1,0,0.1,0c0,0,0.1,0,0.1-0.1c0,0,0.1-0.1,0.1-0.1c0-0.1,0.1-0.1,0.1-0.2l0.2,0.1c-0.1,0.1-0.2,0.2-0.2,0.3
																c-0.1,0.1-0.1,0.1-0.2,0.2c-0.1,0-0.1,0.1-0.2,0.1c-0.1,0-0.1,0-0.2,0c-0.1,0-0.1,0-0.2,0c-0.1,0-0.1-0.1-0.2-0.1
																c0,0-0.1-0.1-0.1-0.1c0-0.1,0-0.1-0.1-0.2c0-0.1,0-0.1-0.1-0.2c0-0.1,0-0.1,0-0.2c0-0.1,0-0.1,0-0.2c0,0,0-0.1,0-0.1
																h0c-0.1,0.2-0.2,0.3-0.3,0.4c-0.1,0.1-0.2,0.2-0.2,0.3c-0.1,0.1-0.1,0.2-0.2,0.2c-0.1,0.1-0.1,0.1-0.2,0.1
																c-0.1,0-0.1,0.1-0.2,0.1c-0.1,0-0.1,0-0.2,0c-0.1,0-0.2,0-0.3-0.1l0.1-0.6h0.3c0,0.1,0,0.1,0.1,0.1c0,0,0,0,0.1,0
																c0,0,0,0,0.1,0c0,0,0.1,0,0.1-0.1c0,0,0.1-0.1,0.2-0.2c0.1-0.1,0.1-0.2,0.2-0.3c0.1-0.1,0.2-0.2,0.3-0.4
																c0-0.2-0.1-0.3-0.1-0.4c0-0.1-0.1-0.2-0.1-0.3c0-0.1,0-0.2-0.1-0.2c0-0.1,0-0.1-0.1-0.1c0,0,0-0.1-0.1-0.1
																s-0.1,0-0.1,0c0,0-0.1,0-0.1,0c0,0-0.1,0-0.1,0.1c0,0-0.1,0.1-0.1,0.1c0,0-0.1,0.1-0.1,0.2l-0.2-0.1
																c0.1-0.1,0.2-0.2,0.2-0.3c0.1-0.1,0.1-0.2,0.2-0.2c0.1,0,0.1-0.1,0.2-0.1S202.7,35.4,202.8,35.4L202.8,35.4z"/>
															<g class="st30">
																<defs>
																	<polygon id="SVGID_29_" points="2.2,152.3 217.8,152.3 217.8,9.8 2.2,9.8 2.2,152.3 																	"/>
																</defs>
																<clipPath id="SVGID_30_">
																	<use xlink:href="#SVGID_29_"  style="overflow:visible;"/>
																</clipPath>
																<path class="st31" d="M81.6,105.1h0.2c0,0.2,0,0.4,0,0.8v2.5c0,0.1,0,0.2,0,0.3c0,0.1,0,0.1,0.1,0.1
																	c0,0,0.1,0.1,0.1,0.1c0.1,0,0.1,0,0.2,0c0.1,0,0.2,0,0.4,0v0.2h-2.2V109c0.2,0,0.4,0,0.5,0c0.1,0,0.2,0,0.2-0.1
																	c0,0,0.1-0.1,0.1-0.1c0-0.1,0-0.2,0-0.3V106c0-0.1,0-0.1,0-0.2c0,0-0.1-0.1-0.1-0.1c-0.1,0-0.2,0-0.3,0.1
																	c-0.1,0.1-0.3,0.2-0.4,0.3l-0.1-0.2L81.6,105.1L81.6,105.1z"/>
																<g class="st32">
																	<defs>
																		<polygon id="SVGID_31_" points="2.2,152.3 217.8,152.3 217.8,9.8 2.2,9.8 2.2,152.3 																		"/>
																	</defs>
																	<clipPath id="SVGID_32_">
																		<use xlink:href="#SVGID_31_"  style="overflow:visible;"/>
																	</clipPath>
																	<g class="st33">
																		<g>
																			<line class="st34" x1="87.6" y1="86.3" x2="90.2" y2="86.3"/>
																			<line class="st35" x1="92.2" y1="86.3" x2="111.9" y2="86.3"/>
																			<line class="st34" x1="112.8" y1="86.3" x2="115.4" y2="86.3"/>
																		</g>
																	</g>
																	<g class="st33">
																		<defs>
																			<polygon id="SVGID_33_" points="2.2,152.3 217.8,152.3 217.8,9.8 2.2,9.8 2.2,152.3 																			"/>
																		</defs>
																		<clipPath id="SVGID_34_">
																			<use xlink:href="#SVGID_33_"  style="overflow:visible;"/>
																		</clipPath>
																		<g class="st36">
																			<g>
																				<line class="st37" x1="115.4" y1="131.1" x2="115.4" y2="128.6"/>
																				<line class="st38" x1="115.4" y1="126.4" x2="115.2" y2="89.9"/>
																				<line class="st37" x1="115.2" y1="88.8" x2="115.1" y2="86.3"/>
																			</g>
																		</g>
																		<g class="st36">
																			<defs>
																				<polygon id="SVGID_35_" points="2.2,152.3 217.8,152.3 217.8,9.8 2.2,9.8 2.2,152.3 																				"/>
																			</defs>
																			<clipPath id="SVGID_36_">
																				<use xlink:href="#SVGID_35_"  style="overflow:visible;"/>
																			</clipPath>
																			<path class="st39" d="M115.4,134.7h0.2c0,0.2,0,0.4,0,0.8v2.5c0,0.1,0,0.2,0,0.3c0,0.1,0,0.1,0.1,0.1
																				c0,0,0.1,0.1,0.1,0.1c0.1,0,0.1,0,0.2,0c0.1,0,0.2,0,0.4,0v0.2h-2.2v-0.2c0.2,0,0.4,0,0.5,0s0.2,0,0.2-0.1
																				c0,0,0.1-0.1,0.1-0.1c0-0.1,0-0.2,0-0.3v-2.4c0-0.1,0-0.1,0-0.2c0,0-0.1-0.1-0.1-0.1c-0.1,0-0.2,0-0.3,0.1
																				c-0.1,0.1-0.3,0.2-0.4,0.3l-0.1-0.2L115.4,134.7L115.4,134.7z"/>
																			<g class="st40">
																				<defs>
																					<polygon id="SVGID_37_" points="2.2,152.3 217.8,152.3 217.8,9.8 2.2,9.8 2.2,152.3 																					"/>
																				</defs>
																				<clipPath id="SVGID_38_">
																					<use xlink:href="#SVGID_37_"  style="overflow:visible;"/>
																				</clipPath>
																				<path class="st41" d="M3,131.1c28.5-1.3,57.1-2.5,84.5-20.7s53.8-53.3,80.2-88.4"/>
																				<g class="st42">
																					<defs>
																						<polygon id="SVGID_39_" points="2.2,152.3 217.8,152.3 217.8,9.8 2.2,9.8 2.2,152.3 																						
																							"/>
																					</defs>
																					<clipPath id="SVGID_40_">
																						<use xlink:href="#SVGID_39_"  style="overflow:visible;"/>
																					</clipPath>
																					<path class="st43" d="M81.9,83.2c0.4,0,0.6,0.1,0.8,0.2s0.3,0.4,0.3,0.7c0,0.1,0,0.2,0,0.3
																						c0,0.1-0.1,0.2-0.1,0.3c0,0.1-0.1,0.2-0.2,0.3c-0.1,0.1-0.2,0.2-0.2,0.3c-0.1,0.1-0.2,0.3-0.5,0.5
																						c-0.4,0.4-0.6,0.7-0.8,1h1.1c0.1,0,0.2,0,0.2,0c0.1,0,0.1,0,0.1-0.1c0,0,0.1-0.1,0.1-0.1c0,0,0-0.1,0.1-0.2
																						h0.2l0,0.9h-2.4v-0.1c0.1-0.2,0.2-0.4,0.3-0.6s0.3-0.5,0.6-0.8c0.2-0.3,0.4-0.4,0.5-0.6
																						c0.1-0.1,0.2-0.3,0.2-0.4c0.1-0.1,0.1-0.2,0.1-0.3c0-0.1,0-0.2,0-0.3c0-0.1,0-0.3-0.1-0.4
																						c0-0.1-0.1-0.2-0.2-0.3c-0.1-0.1-0.2-0.1-0.4-0.1c-0.4,0-0.6,0.2-0.7,0.6h-0.4v-0.6c0.2-0.1,0.5-0.2,0.7-0.2
																						C81.6,83.2,81.8,83.2,81.9,83.2L81.9,83.2z"/>
																				</g>
																			</g>
																		</g>
																	</g>
																</g>
															</g>
														</g>
													</g>
												</g>
											</g>
										</g>
									</g>
								</g>
							</g>
						</g>
					</g>
				</g>
			</g>
		</g>
	</g>
</g>
<path class="st44" d="M115.3,113.3"/>
</svg>
