<?xml version="1.0" encoding="utf-8"?>
<!-- Generator: Adobe Illustrator 23.0.2, SVG Export Plug-In . SVG Version: 6.00 Build 0)  -->
<svg version="1.0" id="Layer_1" xmlns="http://www.w3.org/2000/svg" xmlns:xlink="http://www.w3.org/1999/xlink" x="0px" y="0px"
	 viewBox="0 0 212.2 190.8" style="enable-background:new 0 0 212.2 190.8;" xml:space="preserve">
<style type="text/css">
	.st0{fill:none;stroke:#0303C3;stroke-width:1.267;stroke-miterlimit:8;stroke-dasharray:6,5;}
	.st1{clip-path:url(#SVGID_2_);fill:none;stroke:#0303C3;stroke-width:1.267;stroke-miterlimit:8;stroke-dasharray:6,5;}
	.st2{clip-path:url(#SVGID_2_);}
	.st3{clip-path:url(#SVGID_4_);fill:none;stroke:#000000;stroke-width:1.2673;stroke-miterlimit:8;}
	.st4{clip-path:url(#SVGID_4_);fill-rule:evenodd;clip-rule:evenodd;}
	.st5{clip-path:url(#SVGID_4_);}
	.st6{clip-path:url(#SVGID_6_);fill:none;stroke:#000000;stroke-width:1.2673;stroke-miterlimit:8;}
	.st7{clip-path:url(#SVGID_6_);fill-rule:evenodd;clip-rule:evenodd;}
	.st8{clip-path:url(#SVGID_6_);}
	.st9{clip-path:url(#SVGID_8_);fill-rule:evenodd;clip-rule:evenodd;}
	.st10{clip-path:url(#SVGID_8_);}
	.st11{clip-path:url(#SVGID_10_);fill-rule:evenodd;clip-rule:evenodd;}
	.st12{clip-path:url(#SVGID_10_);}
	.st13{clip-path:url(#SVGID_12_);fill-rule:evenodd;clip-rule:evenodd;}
	.st14{clip-path:url(#SVGID_12_);}
	.st15{clip-path:url(#SVGID_14_);fill-rule:evenodd;clip-rule:evenodd;}
	.st16{clip-path:url(#SVGID_14_);}
	.st17{clip-path:url(#SVGID_16_);fill-rule:evenodd;clip-rule:evenodd;}
	.st18{clip-path:url(#SVGID_16_);}
	.st19{clip-path:url(#SVGID_18_);fill-rule:evenodd;clip-rule:evenodd;}
	.st20{clip-path:url(#SVGID_18_);}
	.st21{clip-path:url(#SVGID_20_);fill-rule:evenodd;clip-rule:evenodd;}
	.st22{clip-path:url(#SVGID_20_);}
	.st23{clip-path:url(#SVGID_22_);fill:none;stroke:#000000;stroke-width:1.2673;stroke-miterlimit:8;}
	.st24{clip-path:url(#SVGID_22_);}
	.st25{clip-path:url(#SVGID_24_);fill-rule:evenodd;clip-rule:evenodd;}
	.st26{clip-path:url(#SVGID_24_);}
	.st27{clip-path:url(#SVGID_26_);fill-rule:evenodd;clip-rule:evenodd;}
	.st28{clip-path:url(#SVGID_26_);}
	.st29{clip-path:url(#SVGID_28_);fill-rule:evenodd;clip-rule:evenodd;}
	.st30{clip-path:url(#SVGID_28_);}
	.st31{clip-path:url(#SVGID_30_);fill-rule:evenodd;clip-rule:evenodd;}
	.st32{clip-path:url(#SVGID_30_);}
	.st33{clip-path:url(#SVGID_32_);fill-rule:evenodd;clip-rule:evenodd;}
	.st34{clip-path:url(#SVGID_32_);}
	.st35{clip-path:url(#SVGID_34_);fill-rule:evenodd;clip-rule:evenodd;}
	.st36{clip-path:url(#SVGID_34_);}
	.st37{clip-path:url(#SVGID_36_);fill-rule:evenodd;clip-rule:evenodd;}
	.st38{clip-path:url(#SVGID_36_);}
	.st39{clip-path:url(#SVGID_38_);fill-rule:evenodd;clip-rule:evenodd;}
	.st40{clip-path:url(#SVGID_38_);}
	.st41{clip-path:url(#SVGID_40_);fill-rule:evenodd;clip-rule:evenodd;}
	.st42{clip-path:url(#SVGID_40_);}
	.st43{clip-path:url(#SVGID_42_);fill-rule:evenodd;clip-rule:evenodd;fill:#0303C3;}
	.st44{clip-path:url(#SVGID_42_);fill:none;stroke:#0303C3;stroke-width:0.4224;stroke-miterlimit:8;}
	.st45{clip-path:url(#SVGID_42_);}
	.st46{clip-path:url(#SVGID_44_);fill-rule:evenodd;clip-rule:evenodd;}
	.st47{clip-path:url(#SVGID_44_);}
	.st48{clip-path:url(#SVGID_46_);fill:none;stroke:#0303C3;stroke-width:1.2673;stroke-miterlimit:8;}
	.st49{clip-path:url(#SVGID_46_);}
	.st50{clip-path:url(#SVGID_48_);fill-rule:evenodd;clip-rule:evenodd;fill:#0303C3;}
	.st51{clip-path:url(#SVGID_48_);}
	.st52{clip-path:url(#SVGID_50_);fill-rule:evenodd;clip-rule:evenodd;fill:#0303C3;}
	.st53{clip-path:url(#SVGID_50_);}
	.st54{clip-path:url(#SVGID_52_);fill-rule:evenodd;clip-rule:evenodd;fill:#0303C3;}
	.st55{clip-path:url(#SVGID_52_);}
	.st56{clip-path:url(#SVGID_54_);fill-rule:evenodd;clip-rule:evenodd;fill:#0303C3;}
</style>
<g>
	<line class="st0" x1="77.5" y1="88.1" x2="77" y2="166.4"/>
	<g>
		<defs>
			<polygon id="SVGID_1_" points="-1.4,191.1 215.9,191.1 215.9,-4.7 -1.4,-4.7 -1.4,191.1 			"/>
		</defs>
		<clipPath id="SVGID_2_">
			<use xlink:href="#SVGID_1_"  style="overflow:visible;"/>
		</clipPath>
		<line class="st1" x1="77" y1="83.8" x2="14.8" y2="83.8"/>
		<g class="st2">
			<defs>
				<polygon id="SVGID_3_" points="-1.4,191.1 215.9,191.1 215.9,-4.7 -1.4,-4.7 -1.4,191.1 				"/>
			</defs>
			<clipPath id="SVGID_4_">
				<use xlink:href="#SVGID_3_"  style="overflow:visible;"/>
			</clipPath>
			<line class="st3" x1="4.8" y1="166.7" x2="202.2" y2="166.7"/>
			<polygon class="st4" points="201.6,164.8 205.4,166.7 201.6,168.6 201.6,164.8 			"/>
			<g class="st5">
				<defs>
					<polygon id="SVGID_5_" points="-1.4,191.1 215.9,191.1 215.9,-4.7 -1.4,-4.7 -1.4,191.1 					"/>
				</defs>
				<clipPath id="SVGID_6_">
					<use xlink:href="#SVGID_5_"  style="overflow:visible;"/>
				</clipPath>
				<line class="st6" x1="14.5" y1="176.7" x2="14.5" y2="11.7"/>
				<polygon class="st7" points="16.4,12.3 14.5,8.5 12.6,12.3 16.4,12.3 				"/>
				<g class="st8">
					<defs>
						<polygon id="SVGID_7_" points="-1.4,191.1 215.9,191.1 215.9,-4.7 -1.4,-4.7 -1.4,191.1 						"/>
					</defs>
					<clipPath id="SVGID_8_">
						<use xlink:href="#SVGID_7_"  style="overflow:visible;"/>
					</clipPath>
					<path class="st9" d="M4.1,3.9c0.2,0,0.4,0,0.5,0.1C4.8,4,4.9,4,5,4.1c0.1,0.1,0.2,0.2,0.3,0.4s0.1,0.3,0.2,0.5
						c0.1,0.2,0.1,0.5,0.2,0.9C5.7,6.6,5.8,7.3,6,8s0.2,1.4,0.3,2c0.5-0.7,0.9-1.4,1.2-2C7.8,7.2,8,6.6,8.2,6.2
						C8.3,5.7,8.4,5.3,8.4,5c0-0.2,0-0.4-0.1-0.5C8.2,4.4,8,4.4,7.8,4.3L7.8,4h2L10,4.3c-0.4,1-0.9,2.1-1.5,3.3
						c-0.6,1.1-1.4,2.3-2.2,3.4c-0.8,1.1-1.4,1.9-2,2.4c-0.4,0.3-0.7,0.6-1,0.7c-0.3,0.1-0.6,0.2-0.9,0.2c-0.1,0-0.2,0-0.4,0
						c-0.1,0-0.2,0-0.3-0.1l0.3-1.4h0.6c0,0.3,0.1,0.5,0.3,0.5c0.3,0,0.6-0.2,1-0.5c0.4-0.4,0.8-0.9,1.3-1.6C5.2,10.2,5,9.2,4.7,8
						C4.5,6.6,4.3,5.8,4.2,5.5C4.1,5.2,4,4.9,3.9,4.8C3.8,4.7,3.7,4.7,3.6,4.7c-0.2,0-0.3,0.1-0.4,0.2C3,5,2.9,5.3,2.7,5.6L2.2,5.3
						c0.3-0.5,0.7-0.9,1-1.1C3.4,4,3.8,3.9,4.1,3.9L4.1,3.9z"/>
					<g class="st10">
						<defs>
							<polygon id="SVGID_9_" points="-1.4,191.1 215.9,191.1 215.9,-4.7 -1.4,-4.7 -1.4,191.1 							"/>
						</defs>
						<clipPath id="SVGID_10_">
							<use xlink:href="#SVGID_9_"  style="overflow:visible;"/>
						</clipPath>
						<path class="st11" d="M203.6,171.4c0.2,0,0.3,0,0.4,0.1c0.1,0,0.2,0.1,0.3,0.2c0.1,0.1,0.2,0.2,0.2,0.3
							c0.1,0.1,0.1,0.3,0.2,0.5c0.1,0.2,0.1,0.4,0.2,0.7c0.1,0.3,0.1,0.6,0.2,0.9h0.1c0.5-0.7,0.8-1.2,1.1-1.5
							c0.2-0.3,0.5-0.5,0.6-0.7c0.2-0.2,0.3-0.3,0.5-0.3c0.2-0.1,0.4-0.1,0.6-0.1c0.2,0,0.4,0,0.6,0.1l-0.3,1.3h-0.5
							c0-0.2-0.1-0.3-0.3-0.3c0,0-0.1,0-0.1,0c0,0-0.1,0-0.2,0.1c-0.1,0-0.2,0.1-0.3,0.3c-0.1,0.1-0.3,0.3-0.5,0.5s-0.4,0.4-0.5,0.7
							l-0.5,0.6c0.1,0.5,0.2,0.9,0.3,1.2c0.1,0.3,0.1,0.6,0.2,0.9c0.1,0.2,0.1,0.4,0.2,0.5c0,0.1,0.1,0.2,0.2,0.3s0.1,0.1,0.2,0.1
							c0.1,0,0.1,0,0.2,0c0.1,0,0.3-0.1,0.4-0.2s0.3-0.3,0.5-0.7l0.5,0.3c-0.3,0.5-0.7,0.9-0.9,1.1c-0.3,0.2-0.6,0.3-1,0.3
							c-0.2,0-0.4,0-0.5-0.1s-0.3-0.2-0.4-0.4c-0.1-0.2-0.2-0.4-0.3-0.8c-0.2-0.6-0.2-1.1-0.3-1.5h-0.1c-0.5,0.7-0.9,1.3-1.2,1.6
							c-0.3,0.3-0.5,0.6-0.6,0.7c-0.2,0.2-0.3,0.3-0.5,0.3c-0.2,0.1-0.4,0.1-0.6,0.1c-0.2,0-0.4,0-0.6-0.1l0.3-1.3h0.5
							c0,0.2,0.1,0.3,0.3,0.3c0.1,0,0.1,0,0.2-0.1s0.2-0.1,0.3-0.3c0.1-0.1,0.3-0.4,0.6-0.7c0.3-0.3,0.6-0.8,1.1-1.4
							c-0.1-0.4-0.2-0.8-0.2-1.1s-0.2-0.7-0.2-1c-0.1-0.3-0.2-0.5-0.2-0.6c-0.1-0.1-0.1-0.2-0.2-0.2c-0.1,0-0.1-0.1-0.2-0.1
							c-0.1,0-0.2,0-0.3,0.1c-0.1,0-0.2,0.1-0.3,0.2c-0.1,0.1-0.2,0.3-0.4,0.5l-0.5-0.3c0.3-0.5,0.6-0.8,0.9-1.1
							C202.9,171.6,203.2,171.4,203.6,171.4L203.6,171.4z"/>
						<g class="st12">
							<defs>
								<polygon id="SVGID_11_" points="-1.4,191.1 215.9,191.1 215.9,-4.7 -1.4,-4.7 -1.4,191.1 								"/>
							</defs>
							<clipPath id="SVGID_12_">
								<use xlink:href="#SVGID_11_"  style="overflow:visible;"/>
							</clipPath>
							<path class="st13" d="M6.6,172c-0.5,0-1,0.2-1.3,0.6s-0.7,1-0.9,1.8S4,176,4,176.6c0,0.5,0.1,0.9,0.3,1.2
								c0.2,0.3,0.6,0.4,1,0.4c0.5,0,0.9-0.2,1.3-0.7c0.4-0.4,0.7-1,0.9-1.8s0.3-1.5,0.3-2.1c0-0.5-0.1-0.9-0.3-1.2
								C7.3,172.2,7,172,6.6,172L6.6,172z M6.7,171.5c0.8,0,1.4,0.2,1.8,0.6c0.4,0.4,0.6,1.1,0.6,1.9c0,0.6-0.1,1.2-0.3,1.8
								S8.4,177,8,177.5c-0.3,0.4-0.8,0.8-1.3,1s-1,0.3-1.7,0.3c-0.8,0-1.4-0.2-1.8-0.6c-0.4-0.4-0.6-1-0.6-1.9
								c0-0.4,0.1-0.9,0.2-1.4c0.2-0.7,0.4-1.3,0.8-1.8c0.4-0.5,0.8-0.9,1.3-1.2S6.1,171.5,6.7,171.5L6.7,171.5z"/>
							<g class="st14">
								<defs>
									<polygon id="SVGID_13_" points="-1.4,191.1 215.9,191.1 215.9,-4.7 -1.4,-4.7 -1.4,191.1 									"/>
								</defs>
								<clipPath id="SVGID_14_">
									<use xlink:href="#SVGID_13_"  style="overflow:visible;"/>
								</clipPath>
								<path class="st15" d="M113.8,184.2c-0.3,0-0.5,0.1-0.7,0.4c-0.2,0.3-0.4,0.6-0.5,1c0.3,0,0.6,0,0.9-0.1
									c0.3-0.1,0.4-0.2,0.6-0.3s0.2-0.3,0.2-0.5c0-0.2,0-0.3-0.1-0.4C114,184.2,113.9,184.2,113.8,184.2L113.8,184.2z
									 M101.6,184.2c-0.3,0-0.5,0.1-0.7,0.3c-0.2,0.2-0.4,0.5-0.5,0.8c-0.1,0.3-0.2,0.7-0.2,1c0,0.3,0,0.4,0.1,0.6
									c0.1,0.1,0.2,0.2,0.3,0.2c0.1,0,0.3,0,0.4-0.1c0.1-0.1,0.3-0.2,0.4-0.4c0.1-0.2,0.3-0.4,0.3-0.5s0.1-0.4,0.2-0.6
									s0.1-0.5,0.1-0.7c0-0.2,0-0.3-0.1-0.4C101.9,184.2,101.8,184.2,101.6,184.2L101.6,184.2z M97.9,183.9h0.2l-0.5,2.4
									c-0.1,0.2-0.1,0.4-0.1,0.5c0,0.1,0,0.2,0,0.2c0,0,0.1,0.1,0.2,0.1c0.1,0,0.2,0,0.2-0.1c0.1-0.1,0.2-0.2,0.4-0.3l0.2,0.2
									c-0.2,0.3-0.4,0.4-0.6,0.5c-0.2,0.1-0.3,0.1-0.5,0.1c-0.2,0-0.3-0.1-0.4-0.2c-0.1-0.1-0.1-0.3-0.1-0.5c0-0.2,0-0.4,0.1-0.7
									l0.3-1.2c0.1-0.2,0.1-0.4,0.1-0.6c0-0.1,0-0.2-0.1-0.2c-0.1,0-0.2-0.1-0.3-0.1l0-0.2L97.9,183.9L97.9,183.9z M113.9,183.9
									c0.3,0,0.5,0.1,0.7,0.2c0.1,0.1,0.2,0.3,0.2,0.6c0,0.4-0.2,0.7-0.6,0.9c-0.4,0.2-1,0.3-1.8,0.3c0,0.1,0,0.3,0,0.5
									c0,0.3,0.1,0.4,0.2,0.6c0.1,0.1,0.3,0.2,0.5,0.2c0.2,0,0.4,0,0.6-0.1c0.2-0.1,0.4-0.3,0.6-0.5l0.2,0.2
									c-0.2,0.3-0.5,0.5-0.7,0.6c-0.2,0.1-0.5,0.2-0.9,0.2c-0.4,0-0.6-0.1-0.8-0.3c-0.2-0.2-0.3-0.5-0.3-0.9c0-0.3,0-0.5,0.1-0.9
									s0.2-0.6,0.4-0.8c0.2-0.2,0.4-0.4,0.7-0.6S113.6,183.9,113.9,183.9L113.9,183.9z M108.9,183.9c0.2,0,0.3,0.1,0.4,0.2
									c0.1,0.1,0.1,0.2,0.1,0.4c0,0.1,0,0.3-0.1,0.4l0,0c0.2-0.3,0.5-0.6,0.7-0.7c0.2-0.2,0.5-0.2,0.7-0.2c0.2,0,0.3,0,0.5,0
									l-0.2,0.8h-0.4c0-0.1,0-0.2-0.1-0.2c0-0.1-0.1-0.1-0.1-0.1c0,0-0.1,0-0.1,0c-0.1,0-0.2,0-0.3,0.1c-0.1,0.1-0.2,0.2-0.4,0.4
									c-0.1,0.2-0.2,0.3-0.3,0.5c-0.1,0.2-0.1,0.3-0.2,0.6l-0.4,1.6h-0.6l0.5-2.4c0-0.1,0.1-0.3,0.1-0.3s0-0.1,0-0.2
									c0-0.1,0-0.2,0-0.2s-0.1-0.1-0.2-0.1c-0.1,0-0.2,0-0.2,0.1c-0.1,0.1-0.2,0.2-0.4,0.3l-0.2-0.2c0.2-0.2,0.4-0.4,0.6-0.5
									C108.6,183.9,108.8,183.9,108.9,183.9L108.9,183.9z M104.6,183.9c0.2,0,0.3,0.1,0.4,0.2c0.1,0.1,0.1,0.3,0.1,0.4
									c0,0.2,0,0.4-0.1,0.7l-0.2,0.6c0,0.2-0.1,0.3-0.1,0.4c0,0.1,0,0.2,0,0.2c0,0.1,0,0.1,0,0.2c0,0.2,0,0.3,0.1,0.4
									c0.1,0.1,0.1,0.1,0.3,0.1c0.1,0,0.2,0,0.3-0.1c0.1-0.1,0.2-0.2,0.4-0.4s0.2-0.3,0.3-0.5c0.1-0.2,0.1-0.4,0.2-0.6l0.4-1.6
									h0.6l-0.5,2.4c-0.1,0.2-0.1,0.4-0.1,0.5c0,0.1,0,0.2,0,0.2c0,0,0.1,0.1,0.2,0.1c0.1,0,0.2,0,0.2-0.1
									c0.1-0.1,0.2-0.2,0.4-0.3l0.2,0.2c-0.2,0.2-0.4,0.4-0.6,0.5s-0.3,0.1-0.5,0.1c-0.2,0-0.3-0.1-0.4-0.2
									c-0.1-0.1-0.1-0.2-0.1-0.4c0-0.1,0-0.3,0.1-0.4l0,0c-0.2,0.3-0.5,0.6-0.7,0.8c-0.2,0.2-0.4,0.2-0.7,0.2s-0.4-0.1-0.5-0.2
									c-0.1-0.1-0.2-0.3-0.2-0.6c0-0.2,0-0.4,0.1-0.7l0.2-1c0.1-0.3,0.1-0.5,0.1-0.6c0-0.1,0-0.2,0-0.2s-0.1-0.1-0.2-0.1
									c-0.1,0-0.2,0-0.2,0.1c-0.1,0.1-0.2,0.2-0.4,0.3l-0.2-0.2c0.2-0.2,0.4-0.4,0.5-0.4s0.2-0.1,0.3-0.2
									C104.4,183.9,104.5,183.9,104.6,183.9L104.6,183.9z M101.5,183.9c0.2,0,0.3,0,0.4,0.1c0.1,0,0.3,0.1,0.4,0.2l0.3-0.2
									l0.2,0.1l-0.4,1.7c0,0.1-0.1,0.4-0.2,0.9c-0.1,0.5-0.2,0.9-0.2,1.1c-0.1,0.2-0.1,0.4-0.2,0.6c-0.1,0.2-0.2,0.3-0.4,0.5
									c-0.1,0.1-0.3,0.2-0.5,0.3c-0.2,0.1-0.5,0.1-0.8,0.1c-0.9,0-1.4-0.3-1.4-0.8c0-0.1,0-0.3,0.1-0.4c0.1-0.1,0.2-0.2,0.4-0.4
									l0.3,0.2c0,0.1-0.1,0.1-0.1,0.2c0,0.1-0.1,0.1-0.1,0.2c0,0.1,0,0.1,0,0.2c0,0.2,0.1,0.3,0.2,0.4c0.1,0.1,0.3,0.1,0.6,0.1
									c0.3,0,0.5-0.1,0.7-0.2c0.2-0.1,0.3-0.4,0.5-0.7c0.1-0.3,0.3-0.8,0.4-1.4l-0.1,0c-0.2,0.3-0.5,0.6-0.7,0.7
									c-0.2,0.2-0.4,0.2-0.7,0.2c-0.3,0-0.5-0.1-0.6-0.3c-0.1-0.2-0.2-0.5-0.2-0.9c0-0.4,0.1-0.8,0.2-1.2c0.2-0.4,0.4-0.7,0.7-0.9
									C100.9,184,101.2,183.9,101.5,183.9L101.5,183.9z M97.8,182.5h0.7l-0.2,0.7h-0.7L97.8,182.5L97.8,182.5z M95.7,182.2
									c0.2,0,0.5,0,0.6,0.1l-0.1,0.6h-0.3c0-0.1-0.1-0.2-0.1-0.3c-0.1-0.1-0.1-0.1-0.2-0.1c-0.1,0-0.3,0-0.4,0.1s-0.2,0.2-0.3,0.3
									c-0.1,0.2-0.1,0.4-0.2,0.6l-0.1,0.4h1l-0.1,0.4h-1l-0.7,3.2c-0.1,0.5-0.3,0.9-0.5,1.2c-0.2,0.3-0.5,0.4-0.9,0.4
									c-0.1,0-0.2,0-0.2,0l0.1-0.3c0,0,0.1,0,0.2,0c0.1,0,0.2,0,0.3-0.1s0.2-0.2,0.2-0.3c0.1-0.1,0.1-0.3,0.2-0.6l0.8-3.5h-0.6
									l0.1-0.3c0.2,0,0.3,0,0.4,0c0.1,0,0.1,0,0.2-0.1c0,0,0.1-0.1,0.1-0.1s0.1-0.2,0.1-0.3c0.1-0.4,0.3-0.8,0.6-1
									C94.9,182.3,95.2,182.2,95.7,182.2L95.7,182.2z"/>
								<g class="st16">
									<defs>
										<polygon id="SVGID_15_" points="-1.4,191.1 215.9,191.1 215.9,-4.7 -1.4,-4.7 -1.4,191.1 										"/>
									</defs>
									<clipPath id="SVGID_16_">
										<use xlink:href="#SVGID_15_"  style="overflow:visible;"/>
									</clipPath>
									<path class="st17" d="M119.9,182.1l0.1,0.3c-0.6,0.2-1,0.6-1.3,1.1c-0.3,0.6-0.4,1.2-0.4,2.1c0,0.9,0.1,1.6,0.4,2.1
										c0.3,0.6,0.7,0.9,1.3,1.1l-0.1,0.3c-0.7-0.2-1.3-0.6-1.7-1.2c-0.4-0.6-0.6-1.4-0.6-2.3c0-0.9,0.2-1.7,0.6-2.3
										C118.6,182.7,119.2,182.3,119.9,182.1L119.9,182.1z"/>
									<g class="st18">
										<defs>
											<polygon id="SVGID_17_" points="-1.4,191.1 215.9,191.1 215.9,-4.7 -1.4,-4.7 -1.4,191.1 											"/>
										</defs>
										<clipPath id="SVGID_18_">
											<use xlink:href="#SVGID_17_"  style="overflow:visible;"/>
										</clipPath>
										<path class="st19" d="M126.5,182.7c-0.2,0-0.3,0-0.5,0.1s-0.2,0.2-0.3,0.3s-0.1,0.2-0.2,0.4c0,0.2-0.1,0.3-0.1,0.5
											c0,0.4,0.1,0.7,0.2,0.9s0.4,0.3,0.6,0.3c0.1,0,0.2,0,0.3,0c0.1,0,0.2,0,0.3-0.1c0.1,0,0.2-0.1,0.2-0.1
											c0.1,0,0.1-0.1,0.2-0.2c0,0,0,0,0.1-0.1c0,0,0-0.1,0-0.1c0-0.1,0-0.1,0-0.2c0-0.3,0-0.6-0.1-0.9c-0.1-0.2-0.2-0.4-0.3-0.5
											C126.9,182.8,126.7,182.7,126.5,182.7L126.5,182.7z M122.3,182.7c-0.2,0-0.3,0.1-0.4,0.2c-0.1,0.1-0.2,0.2-0.3,0.4
											s-0.1,0.4-0.2,0.7c0,0.3,0,0.6,0,0.9c0,0.8,0.1,1.4,0.2,1.8c0.1,0.4,0.4,0.6,0.7,0.6c0.3,0,0.5-0.2,0.7-0.5
											c0.1-0.4,0.2-0.9,0.2-1.7c0-0.6,0-1-0.1-1.4c-0.1-0.4-0.2-0.6-0.3-0.8C122.7,182.8,122.5,182.7,122.3,182.7L122.3,182.7z
											 M126.5,182.4c0.5,0,0.9,0.2,1.2,0.5c0.3,0.4,0.4,0.9,0.4,1.5c0,0.6-0.1,1.2-0.3,1.6c-0.2,0.5-0.5,0.8-0.8,1.1
											s-0.8,0.4-1.3,0.4l-0.2-0.2v-0.2c0.3,0,0.6-0.1,0.9-0.2c0.3-0.2,0.5-0.4,0.6-0.7c0.2-0.3,0.3-0.7,0.3-1.2l0,0
											c-0.2,0.1-0.4,0.3-0.6,0.3c-0.2,0.1-0.4,0.1-0.7,0.1c-0.3,0-0.5-0.1-0.7-0.2s-0.3-0.3-0.4-0.5c-0.1-0.2-0.1-0.5-0.1-0.8
											c0-0.2,0-0.4,0.1-0.6c0.1-0.2,0.2-0.4,0.3-0.5c0.1-0.1,0.3-0.3,0.5-0.4C126,182.4,126.2,182.4,126.5,182.4L126.5,182.4z
											 M122.3,182.4c0.5,0,0.9,0.2,1.2,0.6s0.4,1.1,0.4,1.9c0,0.9-0.1,1.5-0.4,2s-0.7,0.7-1.2,0.7c-0.5,0-0.9-0.2-1.2-0.6
											c-0.3-0.4-0.4-1.1-0.4-1.9c0-0.5,0-0.8,0.1-1.2c0.1-0.3,0.2-0.6,0.3-0.8c0.1-0.2,0.3-0.4,0.5-0.5S122.1,182.4,122.3,182.4
											L122.3,182.4z"/>
										<g class="st20">
											<defs>
												<polygon id="SVGID_19_" points="-1.4,191.1 215.9,191.1 215.9,-4.7 -1.4,-4.7 -1.4,191.1 												"/>
											</defs>
											<clipPath id="SVGID_20_">
												<use xlink:href="#SVGID_19_"  style="overflow:visible;"/>
											</clipPath>
											<path class="st21" d="M128.9,182.1c0.7,0.2,1.3,0.6,1.7,1.2c0.4,0.6,0.6,1.4,0.6,2.3c0,0.9-0.2,1.7-0.6,2.3
												c-0.4,0.6-0.9,1-1.7,1.2l-0.1-0.3c0.6-0.2,1-0.6,1.3-1.1c0.3-0.6,0.4-1.3,0.4-2.1c0-0.8-0.1-1.5-0.4-2.1
												c-0.3-0.6-0.7-0.9-1.3-1.1L128.9,182.1z"/>
											<g class="st22">
												<defs>
													<polygon id="SVGID_21_" points="-1.4,191.1 215.9,191.1 215.9,-4.7 -1.4,-4.7 -1.4,191.1 													"/>
												</defs>
												<clipPath id="SVGID_22_">
													<use xlink:href="#SVGID_21_"  style="overflow:visible;"/>
												</clipPath>
												<path class="st23" d="M37.6,157.8c5.7-2.5,11.4-5.1,18.1-17.4c6.7-12.4,10.8-42.2,21.9-56.8
													c11-14.6,27.5-24.8,44.4-30.8c16.8-5.9,56.7-4.8,56.7-4.8l0,0l0,0"/>
												<g class="st24">
													<defs>
														<polygon id="SVGID_23_" points="-1.4,191.1 215.9,191.1 215.9,-4.7 -1.4,-4.7 -1.4,191.1 														"/>
													</defs>
													<clipPath id="SVGID_24_">
														<use xlink:href="#SVGID_23_"  style="overflow:visible;"/>
													</clipPath>
													<path class="st25" d="M163.3,37.3c-0.2,0-0.3,0.1-0.4,0.2c-0.1,0.2-0.3,0.4-0.3,0.6c0.2,0,0.4,0,0.6-0.1
														c0.2,0,0.3-0.1,0.4-0.2c0.1-0.1,0.1-0.2,0.1-0.3c0-0.1,0-0.2-0.1-0.2S163.4,37.3,163.3,37.3L163.3,37.3z M163.4,37.1
														c0.2,0,0.3,0,0.4,0.1c0.1,0.1,0.1,0.2,0.1,0.3c0,0.3-0.1,0.5-0.4,0.6c-0.2,0.1-0.6,0.2-1.1,0.2c0,0.1,0,0.2,0,0.3
														c0,0.2,0,0.3,0.1,0.3c0.1,0.1,0.2,0.1,0.3,0.1c0.1,0,0.3,0,0.4-0.1c0.1-0.1,0.2-0.2,0.4-0.3l0.1,0.1
														c-0.1,0.2-0.3,0.3-0.4,0.4c-0.2,0.1-0.3,0.1-0.5,0.1c-0.2,0-0.4-0.1-0.5-0.2c-0.1-0.1-0.2-0.3-0.2-0.6
														c0-0.2,0-0.3,0.1-0.5c0.1-0.2,0.1-0.4,0.3-0.5c0.1-0.1,0.3-0.3,0.4-0.3C163,37.1,163.2,37.1,163.4,37.1L163.4,37.1z
														 M156.8,36.2h2.4L159,37h-0.2c0-0.1,0-0.3,0-0.3s0-0.1,0-0.2c0,0,0-0.1-0.1-0.1c0,0-0.1,0-0.2,0h-0.3l-0.5,2.2
														c0,0.1,0,0.1,0,0.1c0,0,0,0.1,0,0.1c0,0,0,0.1,0,0.1c0,0,0,0.1,0,0.1c0,0,0,0,0.1,0.1c0,0,0.1,0,0.2,0l0,0.1h-1l0-0.1
														c0.1,0,0.1,0,0.1,0c0,0,0.1,0,0.1-0.1c0,0,0-0.1,0.1-0.2c0-0.1,0-0.2,0.1-0.3l0.5-2.2h-0.3c-0.1,0-0.2,0-0.2,0
														c-0.1,0-0.1,0.1-0.2,0.2c-0.1,0.1-0.1,0.2-0.2,0.4h-0.2L156.8,36.2L156.8,36.2z M160.4,36h0.1l-0.4,1.6l0,0
														c0.1-0.2,0.3-0.3,0.4-0.4c0.1-0.1,0.3-0.1,0.4-0.1c0.1,0,0.2,0,0.3,0.1c0.1,0.1,0.1,0.2,0.1,0.3c0,0.1,0,0.2-0.1,0.4
														l-0.1,0.6c0,0.2-0.1,0.3-0.1,0.4c0,0.1,0,0.1,0,0.1c0,0,0.1,0,0.1,0c0,0,0.1,0,0.1-0.1c0.1,0,0.1-0.1,0.2-0.2l0.1,0.1
														c-0.1,0.2-0.3,0.3-0.4,0.3c-0.1,0.1-0.2,0.1-0.3,0.1c-0.1,0-0.2,0-0.2-0.1c-0.1-0.1-0.1-0.2-0.1-0.3
														c0-0.1,0-0.2,0.1-0.4l0.1-0.4c0-0.1,0.1-0.2,0.1-0.3c0-0.1,0-0.1,0-0.2c0-0.1,0-0.2-0.1-0.2c0,0-0.1-0.1-0.2-0.1
														c-0.1,0-0.1,0-0.2,0.1c-0.1,0.1-0.2,0.1-0.2,0.2c-0.1,0.1-0.1,0.2-0.2,0.3c0,0.1-0.1,0.2-0.1,0.3l-0.2,1h-0.4l0.6-2.6
														c0-0.2,0.1-0.3,0.1-0.3c0-0.1,0-0.1-0.1-0.1c0,0-0.1,0-0.2,0l0-0.1L160.4,36L160.4,36z"/>
													<g class="st26">
														<defs>
															<polygon id="SVGID_25_" points="-1.4,191.1 215.9,191.1 215.9,-4.7 -1.4,-4.7 -1.4,191.1 															"/>
														</defs>
														<clipPath id="SVGID_26_">
															<use xlink:href="#SVGID_25_"  style="overflow:visible;"/>
														</clipPath>
														<path class="st27" d="M174.5,37.4c-0.1,0-0.2,0-0.2,0.1c-0.1,0.1-0.2,0.1-0.2,0.3c-0.1,0.1-0.2,0.2-0.2,0.3
															c-0.1,0.1-0.1,0.2-0.1,0.4l0,0.1c0,0.1,0,0.1,0,0.2c0,0,0,0.1,0,0.1c0,0.1,0,0.2,0.1,0.3c0.1,0.1,0.1,0.1,0.3,0.1
															c0.1,0,0.1,0,0.2,0c0.1,0,0.1-0.1,0.2-0.1c0.1-0.1,0.1-0.1,0.2-0.2c0-0.1,0.1-0.2,0.1-0.3c0-0.1,0.1-0.2,0.1-0.3
															c0-0.1,0-0.2,0-0.3c0-0.2,0-0.3-0.1-0.4S174.6,37.4,174.5,37.4L174.5,37.4z M171.7,37.3c-0.2,0-0.3,0.1-0.4,0.2
															s-0.2,0.3-0.3,0.5c-0.1,0.2-0.1,0.4-0.1,0.6c0,0.2,0,0.3,0.1,0.4c0,0.1,0.1,0.1,0.2,0.1c0.1,0,0.2,0,0.3-0.1
															c0.1-0.1,0.2-0.2,0.3-0.4c0.1-0.2,0.2-0.3,0.2-0.6l0-0.1c0-0.1,0-0.1,0-0.2c0,0,0-0.1,0-0.1c0-0.1,0-0.2-0.1-0.3
															C172,37.3,171.9,37.3,171.7,37.3L171.7,37.3z M167,37.3c-0.2,0-0.3,0.1-0.4,0.2c-0.1,0.1-0.2,0.3-0.3,0.5
															c-0.1,0.2-0.1,0.4-0.1,0.6c0,0.2,0,0.3,0.1,0.4c0,0.1,0.1,0.1,0.2,0.1c0.1,0,0.2,0,0.2-0.1c0.1-0.1,0.2-0.1,0.2-0.3
															c0.1-0.1,0.2-0.2,0.2-0.3c0-0.1,0.1-0.2,0.1-0.4c0-0.2,0.1-0.3,0.1-0.4c0-0.1,0-0.2-0.1-0.3
															C167.2,37.3,167.1,37.3,167,37.3L167,37.3z M173.6,37.1c0.1,0,0.2,0,0.2,0.1c0.1,0.1,0.1,0.1,0.1,0.2
															c0,0.1,0,0.2-0.1,0.3l0,0c0.3-0.4,0.6-0.6,0.8-0.6c0.2,0,0.3,0.1,0.4,0.2c0.1,0.1,0.1,0.3,0.1,0.5
															c0,0.3-0.1,0.5-0.2,0.7c-0.1,0.2-0.2,0.4-0.4,0.6c-0.2,0.1-0.4,0.2-0.6,0.2c-0.2,0-0.4,0-0.5-0.1l-0.1,0.5
															c0,0.1,0,0.2,0,0.3c0,0.1,0,0.1,0.1,0.1c0,0,0.1,0,0.2,0.1l0,0.1h-0.7l0.5-2.4c0-0.1,0-0.3,0-0.3c0-0.1,0-0.1,0-0.1
															c0,0-0.1,0-0.1,0c0,0-0.1,0-0.1,0.1c-0.1,0-0.1,0.1-0.2,0.2l-0.1-0.1c0.1-0.1,0.3-0.2,0.3-0.3
															C173.4,37.1,173.5,37.1,173.6,37.1L173.6,37.1z M171.7,37.1c0.1,0,0.2,0,0.3,0c0.1,0,0.2,0.1,0.3,0.1l0.2-0.2l0.1,0
															l-0.3,1.4c0,0.1-0.1,0.3-0.1,0.3c0,0.1,0,0.1,0,0.1c0,0,0.1,0,0.1,0c0,0,0.1,0,0.1-0.1c0.1,0,0.1-0.1,0.2-0.2l0.1,0.1
															c-0.1,0.1-0.3,0.2-0.3,0.3c-0.1,0.1-0.2,0.1-0.3,0.1c-0.1,0-0.2,0-0.2-0.1c-0.1-0.1-0.1-0.1-0.1-0.2
															c0-0.1,0-0.2,0.1-0.3l0,0c-0.1,0.2-0.3,0.4-0.4,0.5s-0.3,0.1-0.4,0.1c-0.2,0-0.3-0.1-0.4-0.2
															c-0.1-0.1-0.1-0.3-0.1-0.5c0-0.3,0.1-0.5,0.2-0.8c0.1-0.2,0.2-0.4,0.4-0.6C171.3,37.2,171.5,37.1,171.7,37.1
															L171.7,37.1z M168.8,37.1c0.1,0,0.2,0,0.2,0.1c0.1,0.1,0.1,0.1,0.1,0.2c0,0.1,0,0.2,0,0.2l0,0
															c0.1-0.2,0.3-0.3,0.4-0.4c0.1-0.1,0.3-0.1,0.4-0.1c0.1,0,0.2,0,0.3,0l-0.1,0.5h-0.2c0-0.1,0-0.1,0-0.1
															c0,0,0-0.1-0.1-0.1c0,0-0.1,0-0.1,0c-0.1,0-0.1,0-0.2,0.1c-0.1,0-0.1,0.1-0.2,0.2c-0.1,0.1-0.1,0.2-0.2,0.3
															c0,0.1-0.1,0.2-0.1,0.4l-0.2,1h-0.4l0.3-1.4c0-0.1,0-0.2,0-0.2c0-0.1,0-0.1,0-0.1c0-0.1,0-0.1,0-0.1c0,0-0.1,0-0.1,0
															c0,0-0.1,0-0.1,0.1c-0.1,0-0.1,0.1-0.2,0.2l-0.1-0.1c0.1-0.1,0.3-0.2,0.4-0.3C168.6,37.1,168.7,37.1,168.8,37.1
															L168.8,37.1z M166.9,37.1c0.1,0,0.2,0,0.3,0c0.1,0,0.2,0.1,0.3,0.1l0.2-0.2l0.1,0l-0.2,1.1c0,0.1-0.1,0.3-0.1,0.6
															c-0.1,0.3-0.1,0.5-0.2,0.7c0,0.1-0.1,0.3-0.1,0.4c-0.1,0.1-0.1,0.2-0.2,0.3c-0.1,0.1-0.2,0.1-0.3,0.2
															c-0.1,0-0.3,0.1-0.5,0.1c-0.6,0-0.9-0.2-0.9-0.5c0-0.1,0-0.2,0.1-0.2c0.1-0.1,0.1-0.1,0.2-0.2l0.2,0.1
															c0,0-0.1,0.1-0.1,0.1c0,0,0,0.1,0,0.1c0,0,0,0.1,0,0.1c0,0.1,0,0.2,0.1,0.2c0.1,0.1,0.2,0.1,0.4,0.1
															c0.2,0,0.3,0,0.4-0.1c0.1-0.1,0.2-0.2,0.3-0.4c0.1-0.2,0.2-0.5,0.2-0.8l0,0c-0.1,0.2-0.3,0.3-0.4,0.4
															s-0.3,0.1-0.4,0.1c-0.2,0-0.3-0.1-0.4-0.2c-0.1-0.1-0.1-0.3-0.1-0.5c0-0.3,0.1-0.5,0.2-0.7c0.1-0.2,0.2-0.4,0.4-0.6
															C166.5,37.2,166.7,37.1,166.9,37.1L166.9,37.1z M176.6,36h0.1l-0.4,1.6l0,0c0.1-0.2,0.3-0.3,0.4-0.4
															c0.1-0.1,0.3-0.1,0.4-0.1c0.1,0,0.2,0,0.3,0.1c0.1,0.1,0.1,0.2,0.1,0.3c0,0.1,0,0.2-0.1,0.4l-0.1,0.6
															c0,0.2-0.1,0.3-0.1,0.4c0,0.1,0,0.1,0,0.1c0,0,0.1,0,0.1,0c0,0,0.1,0,0.1-0.1c0.1,0,0.1-0.1,0.2-0.2l0.1,0.1
															c-0.1,0.2-0.3,0.3-0.4,0.3c-0.1,0.1-0.2,0.1-0.3,0.1c-0.1,0-0.2,0-0.2-0.1c-0.1-0.1-0.1-0.2-0.1-0.3
															c0-0.1,0-0.2,0.1-0.4l0.1-0.4c0-0.1,0.1-0.2,0.1-0.3c0-0.1,0-0.1,0-0.2c0-0.1,0-0.2-0.1-0.2c0,0-0.1-0.1-0.2-0.1
															c-0.1,0-0.1,0-0.2,0.1c-0.1,0.1-0.2,0.1-0.2,0.2c-0.1,0.1-0.1,0.2-0.2,0.3c0,0.1-0.1,0.2-0.1,0.3l-0.2,1h-0.4l0.6-2.6
															c0-0.2,0.1-0.3,0.1-0.3c0-0.1,0-0.1-0.1-0.1s-0.1,0-0.2,0l0-0.1L176.6,36L176.6,36z"/>
														<g class="st28">
															<defs>
																<polygon id="SVGID_27_" points="-1.4,191.1 215.9,191.1 215.9,-4.7 -1.4,-4.7 -1.4,191.1 																"/>
															</defs>
															<clipPath id="SVGID_28_">
																<use xlink:href="#SVGID_27_"  style="overflow:visible;"/>
															</clipPath>
															<path class="st29" d="M180.6,37.3c-0.2,0-0.3,0.1-0.4,0.2c-0.1,0.1-0.2,0.3-0.3,0.6c-0.1,0.2-0.1,0.5-0.1,0.6
																c0,0.2,0,0.3,0.1,0.4c0.1,0.1,0.2,0.1,0.3,0.1c0.1,0,0.3-0.1,0.4-0.2c0.1-0.1,0.2-0.3,0.3-0.6
																c0.1-0.2,0.1-0.5,0.1-0.6c0-0.2,0-0.3-0.1-0.4C180.8,37.3,180.7,37.3,180.6,37.3L180.6,37.3z M180.6,37.1
																c0.2,0,0.4,0.1,0.6,0.2c0.1,0.1,0.2,0.3,0.2,0.6c0,0.2,0,0.4-0.1,0.6c-0.1,0.2-0.1,0.4-0.3,0.5
																c-0.1,0.1-0.2,0.2-0.4,0.3c-0.1,0.1-0.3,0.1-0.5,0.1c-0.2,0-0.4-0.1-0.5-0.2c-0.1-0.1-0.2-0.3-0.2-0.6
																c0-0.1,0-0.3,0.1-0.4c0-0.2,0.1-0.4,0.2-0.6c0.1-0.2,0.2-0.3,0.4-0.4C180.3,37.1,180.5,37.1,180.6,37.1L180.6,37.1z
																 M183.8,36c0.1,0,0.3,0,0.4,0l-0.1,0.4h-0.2c0-0.1,0-0.1-0.1-0.2c0,0-0.1-0.1-0.2-0.1c-0.1,0-0.2,0-0.2,0.1
																c-0.1,0-0.1,0.1-0.2,0.2c0,0.1-0.1,0.2-0.1,0.4l-0.1,0.2h0.6l-0.1,0.2H183l-0.4,2c-0.1,0.3-0.2,0.6-0.3,0.7
																c-0.1,0.2-0.3,0.2-0.5,0.2c-0.1,0-0.1,0-0.2,0l0-0.2c0,0,0.1,0,0.1,0c0.1,0,0.1,0,0.2-0.1c0,0,0.1-0.1,0.1-0.2
																c0-0.1,0.1-0.2,0.1-0.4l0.5-2.2h-0.4l0-0.2c0.1,0,0.2,0,0.2,0s0.1,0,0.1,0c0,0,0,0,0.1-0.1c0,0,0-0.1,0.1-0.2
																c0.1-0.3,0.2-0.5,0.4-0.6C183.3,36.1,183.5,36,183.8,36L183.8,36z"/>
															<g class="st30">
																<defs>
																	<polygon id="SVGID_29_" points="-1.4,191.1 215.9,191.1 215.9,-4.7 -1.4,-4.7 -1.4,191.1 																	"/>
																</defs>
																<clipPath id="SVGID_30_">
																	<use xlink:href="#SVGID_29_"  style="overflow:visible;"/>
																</clipPath>
																<path class="st31" d="M162.7,42.5c0.1,0,0.1,0,0.2,0c0,0,0.1,0,0.1,0.1c0,0,0.1,0.1,0.1,0.1c0,0.1,0,0.1,0.1,0.2
																	c0,0.1,0,0.2,0.1,0.3c0,0.2,0.1,0.4,0.1,0.6c0,0.2,0.1,0.4,0.1,0.6c0.1-0.2,0.3-0.4,0.4-0.6
																	c0.1-0.2,0.2-0.4,0.2-0.5c0-0.2,0.1-0.3,0.1-0.4c0-0.1,0-0.1,0-0.1s-0.1,0-0.2,0l0-0.1h0.6l0.1,0.1
																	c-0.1,0.3-0.3,0.7-0.5,1c-0.2,0.4-0.4,0.7-0.7,1.1c-0.2,0.3-0.4,0.6-0.6,0.7c-0.1,0.1-0.2,0.2-0.3,0.2
																	c-0.1,0-0.2,0.1-0.3,0.1c0,0-0.1,0-0.1,0c0,0-0.1,0-0.1,0l0.1-0.4h0.2c0,0.1,0,0.1,0.1,0.1c0.1,0,0.2-0.1,0.3-0.2
																	c0.1-0.1,0.3-0.3,0.4-0.5c0-0.3-0.1-0.6-0.2-1c-0.1-0.4-0.1-0.6-0.2-0.7c0-0.1-0.1-0.2-0.1-0.2c0,0,0,0-0.1,0
																	c0,0-0.1,0-0.1,0.1c0,0-0.1,0.1-0.2,0.2l-0.1-0.1c0.1-0.2,0.2-0.3,0.3-0.3C162.5,42.5,162.6,42.5,162.7,42.5
																	L162.7,42.5z"/>
																<g class="st32">
																	<defs>
																		<polygon id="SVGID_31_" points="-1.4,191.1 215.9,191.1 215.9,-4.7 -1.4,-4.7 -1.4,191.1 																		"/>
																	</defs>
																	<clipPath id="SVGID_32_">
																		<use xlink:href="#SVGID_31_"  style="overflow:visible;"/>
																	</clipPath>
																	<path class="st33" d="M166.2,43.7h2.8V44h-2.8V43.7L166.2,43.7z M166.2,42.8h2.8v0.3h-2.8V42.8L166.2,42.8z"/>
																	<g class="st34">
																		<defs>
																			<polygon id="SVGID_33_" points="-1.4,191.1 215.9,191.1 215.9,-4.7 -1.4,-4.7 -1.4,191.1 																			"/>
																		</defs>
																		<clipPath id="SVGID_34_">
																			<use xlink:href="#SVGID_33_"  style="overflow:visible;"/>
																		</clipPath>
																		<path class="st35" d="M172.8,41.5c0.1,0,0.3,0,0.4,0l-0.1,0.4h-0.2c0-0.1,0-0.1-0.1-0.2c0,0-0.1-0.1-0.2-0.1
																			c-0.1,0-0.2,0-0.2,0.1c-0.1,0-0.1,0.1-0.2,0.2c0,0.1-0.1,0.2-0.1,0.4l-0.1,0.2h0.6l-0.1,0.2H172l-0.4,2
																			c-0.1,0.3-0.2,0.6-0.3,0.7c-0.1,0.2-0.3,0.2-0.5,0.2c-0.1,0-0.1,0-0.2,0l0-0.2c0,0,0.1,0,0.1,0
																			c0.1,0,0.1,0,0.2-0.1c0,0,0.1-0.1,0.1-0.2c0-0.1,0.1-0.2,0.1-0.4l0.5-2.2h-0.4l0-0.2c0.1,0,0.2,0,0.2,0
																			s0.1,0,0.1,0c0,0,0,0,0.1-0.1c0,0,0-0.1,0.1-0.2c0.1-0.3,0.2-0.5,0.4-0.6C172.3,41.5,172.5,41.5,172.8,41.5
																			L172.8,41.5z"/>
																		<g class="st36">
																			<defs>
																				<polygon id="SVGID_35_" points="-1.4,191.1 215.9,191.1 215.9,-4.7 -1.4,-4.7 -1.4,191.1 																				
																					"/>
																			</defs>
																			<clipPath id="SVGID_36_">
																				<use xlink:href="#SVGID_35_"  style="overflow:visible;"/>
																			</clipPath>
																			<path class="st37" d="M175.1,41.4l0.1,0.2c-0.4,0.1-0.6,0.3-0.8,0.7c-0.2,0.3-0.3,0.8-0.3,1.3
																				c0,0.5,0.1,1,0.3,1.3c0.2,0.3,0.4,0.6,0.8,0.7l-0.1,0.2c-0.4-0.1-0.8-0.4-1-0.8c-0.2-0.4-0.4-0.9-0.4-1.4
																				c0-0.5,0.1-1,0.4-1.4C174.3,41.8,174.6,41.5,175.1,41.4L175.1,41.4z"/>
																			<g class="st38">
																				<defs>
																					<polygon id="SVGID_37_" points="-1.4,191.1 215.9,191.1 215.9,-4.7 -1.4,-4.7 -1.4,191.1 
																																											"/>
																				</defs>
																				<clipPath id="SVGID_38_">
																					<use xlink:href="#SVGID_37_"  style="overflow:visible;"/>
																				</clipPath>
																				<path class="st39" d="M176.2,42.5c0,0,0.1,0,0.1,0c0,0,0.1,0,0.1,0c0,0,0.1,0.1,0.1,0.1c0,0,0,0.1,0.1,0.1
																					c0,0.1,0,0.1,0.1,0.2c0,0.1,0,0.2,0,0.3h0c0.1-0.2,0.3-0.4,0.3-0.4c0.1-0.1,0.1-0.2,0.2-0.2
																					c0.1,0,0.1-0.1,0.1-0.1s0.1,0,0.2,0c0.1,0,0.1,0,0.2,0l-0.1,0.4h-0.2c0-0.1,0-0.1-0.1-0.1c0,0,0,0,0,0
																					c0,0,0,0-0.1,0c0,0-0.1,0-0.1,0.1c0,0-0.1,0.1-0.1,0.2c-0.1,0.1-0.1,0.1-0.2,0.2l-0.2,0.2
																					c0,0.1,0.1,0.3,0.1,0.4c0,0.1,0,0.2,0.1,0.3c0,0.1,0,0.1,0.1,0.2c0,0,0,0.1,0,0.1c0,0,0,0,0.1,0s0,0,0.1,0
																					c0,0,0.1,0,0.1,0c0,0,0.1-0.1,0.2-0.2l0.1,0.1c-0.1,0.2-0.2,0.3-0.3,0.3c-0.1,0.1-0.2,0.1-0.3,0.1
																					c-0.1,0-0.1,0-0.2,0c0,0-0.1-0.1-0.1-0.1c0-0.1-0.1-0.1-0.1-0.2c0-0.2-0.1-0.3-0.1-0.4h0
																					c-0.2,0.2-0.3,0.4-0.4,0.5c-0.1,0.1-0.1,0.2-0.2,0.2c-0.1,0-0.1,0.1-0.1,0.1c0,0-0.1,0-0.2,0
																					c-0.1,0-0.1,0-0.2,0l0.1-0.4h0.2c0,0.1,0,0.1,0.1,0.1c0,0,0,0,0.1,0c0,0,0.1,0,0.1-0.1c0,0,0.1-0.1,0.2-0.2
																					c0.1-0.1,0.2-0.2,0.3-0.4c0-0.1,0-0.2-0.1-0.3c0-0.1,0-0.2-0.1-0.3c0-0.1,0-0.2-0.1-0.2c0,0,0-0.1-0.1-0.1
																					s0,0-0.1,0c0,0-0.1,0-0.1,0c0,0-0.1,0-0.1,0.1c0,0-0.1,0.1-0.1,0.2l-0.1-0.1c0.1-0.1,0.2-0.3,0.3-0.3
																					C175.9,42.5,176,42.5,176.2,42.5L176.2,42.5z"/>
																				<g class="st40">
																					<defs>
																						<polygon id="SVGID_39_" points="-1.4,191.1 215.9,191.1 215.9,-4.7 -1.4,-4.7 -1.4,191.1 
																																													"/>
																					</defs>
																					<clipPath id="SVGID_40_">
																						<use xlink:href="#SVGID_39_"  style="overflow:visible;"/>
																					</clipPath>
																					<path class="st41" d="M178,41.4c0.4,0.1,0.8,0.4,1,0.8s0.4,0.9,0.4,1.4c0,0.5-0.1,1-0.4,1.4
																						c-0.2,0.4-0.6,0.6-1,0.8l-0.1-0.2c0.4-0.1,0.6-0.3,0.8-0.7c0.2-0.3,0.3-0.8,0.3-1.3c0-0.5-0.1-0.9-0.3-1.3
																						c-0.2-0.3-0.4-0.6-0.8-0.7L178,41.4z"/>
																					<g class="st42">
																						<defs>
																							<polygon id="SVGID_41_" points="-1.4,191.1 215.9,191.1 215.9,-4.7 -1.4,-4.7 -1.4,191.1 
																																															"/>
																						</defs>
																						<clipPath id="SVGID_42_">
																							<use xlink:href="#SVGID_41_"  style="overflow:visible;"/>
																						</clipPath>
																						<path class="st43" d="M73,83.6c0-2.5,2-4.5,4.5-4.5c2.5,0,4.5,2,4.5,4.5c0,2.5-2,4.5-4.5,4.5
																							C75,88,73,86,73,83.6L73,83.6z"/>
																						<path class="st44" d="M73,83.6c0-2.5,2-4.5,4.5-4.5c2.5,0,4.5,2,4.5,4.5c0,2.5-2,4.5-4.5,4.5
																							C75,88,73,86,73,83.6L73,83.6z"/>
																						<g class="st45">
																							<defs>
																								<polygon id="SVGID_43_" points="-1.4,191.1 215.9,191.1 215.9,-4.7 -1.4,-4.7 -1.4,191.1 
																																																	"/>
																							</defs>
																							<clipPath id="SVGID_44_">
																								<use xlink:href="#SVGID_43_"  style="overflow:visible;"/>
																							</clipPath>
																							<path class="st46" d="M88.2,86.2c-0.2,0-0.4,0-0.6,0l-0.7,3h0.5c0.4,0,0.7,0,1-0.1c0.2-0.1,0.4-0.2,0.6-0.4
																								s0.3-0.4,0.4-0.6c0.1-0.2,0.1-0.5,0.1-0.8c0-0.4-0.1-0.7-0.3-0.8C89,86.3,88.6,86.2,88.2,86.2L88.2,86.2z
																								 M86.1,85.8h2.2c0.4,0,0.7,0,1,0.1c0.3,0.1,0.5,0.2,0.6,0.3c0.2,0.1,0.3,0.3,0.4,0.5
																								c0.1,0.2,0.1,0.4,0.1,0.7c0,0.5-0.1,0.9-0.4,1.3c-0.2,0.4-0.6,0.6-1,0.8c-0.4,0.2-0.9,0.3-1.4,0.3
																								c-0.3,0-0.6,0-0.8,0l-0.3,1.5c0,0.1-0.1,0.2-0.1,0.3s0,0.2,0,0.2c0,0.1,0,0.2,0,0.2c0,0.1,0,0.2,0,0.2
																								c0,0.1,0.1,0.1,0.1,0.1c0.1,0,0.2,0,0.3,0.1l-0.1,0.2h-2l0.1-0.2c0.1,0,0.2-0.1,0.3-0.1
																								c0.1,0,0.1-0.1,0.2-0.2c0-0.1,0.1-0.2,0.1-0.3c0-0.1,0.1-0.3,0.2-0.7l0.8-3.8c0.1-0.3,0.1-0.6,0.1-0.8
																								c0-0.2,0-0.3-0.1-0.3s-0.2-0.1-0.4-0.1L86.1,85.8z"/>
																							<g class="st47">
																								<defs>
																									<polygon id="SVGID_45_" points="-1.4,191.1 215.9,191.1 215.9,-4.7 -1.4,-4.7 -1.4,191.1 
																																																			"/>
																								</defs>
																								<clipPath id="SVGID_46_">
																									<use xlink:href="#SVGID_45_"  style="overflow:visible;"/>
																								</clipPath>
																								<line class="st48" x1="123.4" y1="16.8" x2="37.6" y2="141.7"/>
																								<g class="st49">
																									<defs>
																										<polygon id="SVGID_47_" points="-1.4,191.1 215.9,191.1 215.9,-4.7 -1.4,-4.7 -1.4,191.1 
																																																					"/>
																									</defs>
																									<clipPath id="SVGID_48_">
																										<use xlink:href="#SVGID_47_"  style="overflow:visible;"/>
																									</clipPath>
																									<path class="st50" d="M80.5,23c-0.1,0-0.3,0.1-0.4,0.2c-0.2,0.1-0.3,0.3-0.4,0.5c-0.1,0.2-0.2,0.4-0.2,0.8
																										l0,0.1c0,0.2-0.1,0.3-0.1,0.5c0,0.2,0,0.3,0.1,0.3c0.1,0.1,0.1,0.1,0.3,0.1c0.1,0,0.2,0,0.3-0.1
																										c0.1,0,0.2-0.1,0.3-0.2c0.1-0.1,0.2-0.3,0.2-0.4c0.1-0.2,0.1-0.4,0.2-0.6c0.1-0.2,0.1-0.5,0.1-0.7
																										c0-0.2,0-0.3-0.1-0.4C80.7,23.1,80.6,23,80.5,23L80.5,23z M84.3,22.9c-0.2,0-0.4,0.1-0.6,0.3
																										c-0.2,0.2-0.3,0.5-0.4,0.9c0.4,0,0.7-0.1,0.9-0.2s0.3-0.3,0.3-0.6c0-0.1,0-0.2-0.1-0.3
																										C84.5,22.9,84.4,22.9,84.3,22.9L84.3,22.9z M76.2,22.9c-0.2,0-0.3,0.1-0.5,0.3c-0.1,0.2-0.3,0.5-0.3,0.8
																										c-0.1,0.4-0.1,0.7-0.1,1c0,0.2,0,0.4,0.1,0.5c0.1,0.1,0.2,0.2,0.3,0.2c0.2,0,0.3-0.1,0.5-0.3
																										c0.1-0.2,0.3-0.5,0.3-0.8c0.1-0.4,0.1-0.7,0.1-1c0-0.2,0-0.4-0.1-0.5C76.4,22.9,76.3,22.9,76.2,22.9
																										L76.2,22.9z M84.4,22.6c0.7,0,1,0.2,1,0.7c0,0.2,0,0.3-0.1,0.4c-0.1,0.1-0.2,0.2-0.3,0.3
																										c-0.2,0.1-0.4,0.2-0.7,0.3s-0.6,0.1-1,0.1c0,0.1,0,0.3,0,0.4c0,0.2,0,0.4,0.1,0.5c0.1,0.1,0.2,0.2,0.4,0.2
																										c0.2,0,0.4,0,0.5-0.1c0.2-0.1,0.3-0.2,0.5-0.4l0.3,0.3c-0.2,0.3-0.5,0.4-0.7,0.6c-0.3,0.1-0.5,0.2-0.8,0.2
																										c-0.3,0-0.5,0-0.7-0.1c-0.2-0.1-0.3-0.2-0.4-0.4c-0.1-0.2-0.1-0.4-0.1-0.6c0-0.1,0-0.3,0-0.4
																										c0-0.2,0.1-0.5,0.2-0.6c0.1-0.2,0.2-0.4,0.4-0.6c0.2-0.2,0.4-0.3,0.6-0.4C83.9,22.6,84.1,22.6,84.4,22.6
																										L84.4,22.6z M79,22.6c0.2,0,0.3,0.1,0.4,0.2c0.1,0.1,0.2,0.2,0.2,0.4c0,0.1,0,0.1,0,0.2l0,0
																										c0.2-0.3,0.4-0.4,0.6-0.6s0.4-0.2,0.7-0.2s0.4,0.1,0.6,0.3c0.1,0.2,0.2,0.4,0.2,0.8c0,0.3,0,0.6-0.1,0.9
																										c-0.1,0.3-0.2,0.5-0.4,0.8c-0.2,0.2-0.4,0.4-0.6,0.5c-0.2,0.1-0.5,0.2-0.8,0.2c-0.2,0-0.4,0-0.6-0.1
																										l-0.1,0.6c0,0.1,0,0.2,0,0.2c0,0.1,0,0.1,0,0.1c0,0.1,0,0.2,0.1,0.2c0,0,0.1,0.1,0.3,0.1l0,0.2h-1.4
																										l0.8-3.7c0-0.1,0-0.3,0-0.3c0-0.1,0-0.1,0-0.2c0,0-0.1-0.1-0.1-0.1c-0.1,0-0.1,0-0.2,0.1s-0.2,0.2-0.3,0.3
																										l-0.2-0.2c0.2-0.2,0.4-0.4,0.6-0.5C78.7,22.6,78.8,22.6,79,22.6L79,22.6z M76.2,22.6c0.3,0,0.5,0,0.7,0.1
																										s0.3,0.2,0.4,0.4c0.1,0.2,0.1,0.4,0.1,0.6c0,0.3,0,0.6-0.1,0.9c-0.1,0.3-0.2,0.5-0.4,0.7s-0.4,0.3-0.6,0.4
																										c-0.2,0.1-0.5,0.1-0.8,0.1c-0.2,0-0.5,0-0.6-0.1c-0.2-0.1-0.3-0.2-0.4-0.4c-0.1-0.2-0.2-0.4-0.2-0.6
																										c0-0.3,0-0.5,0.1-0.8c0.1-0.3,0.2-0.5,0.4-0.8c0.2-0.2,0.4-0.4,0.6-0.5C75.7,22.6,75.9,22.6,76.2,22.6
																										L76.2,22.6z M70.2,21.3c0.2,0,0.4,0,0.6,0c0.2,0,0.4,0.1,0.6,0.1l-0.2,0.9h-0.4c0-0.2-0.1-0.4-0.1-0.5
																										s-0.2-0.2-0.5-0.2c-0.2,0-0.4,0.1-0.5,0.2c-0.1,0.1-0.2,0.3-0.2,0.5c0,0.2,0.1,0.3,0.2,0.4
																										c0.1,0.1,0.3,0.3,0.5,0.4c0.2,0.1,0.3,0.3,0.5,0.4c0.1,0.1,0.2,0.2,0.2,0.4c0.1,0.1,0.1,0.3,0.1,0.4
																										c0,0.2,0,0.4-0.1,0.6c-0.1,0.2-0.2,0.3-0.4,0.5c-0.2,0.1-0.3,0.2-0.5,0.3c-0.2,0.1-0.5,0.1-0.8,0.1
																										c-0.2,0-0.4,0-0.6-0.1s-0.4-0.1-0.6-0.1l0.2-0.9h0.4c0,0.2,0,0.3,0.1,0.5c0.1,0.1,0.1,0.2,0.2,0.2
																										c0.1,0,0.2,0.1,0.4,0.1c0.2,0,0.4-0.1,0.6-0.2c0.1-0.1,0.2-0.3,0.2-0.6c0-0.1,0-0.2-0.1-0.3
																										c0-0.1-0.1-0.2-0.2-0.3c-0.1-0.1-0.2-0.2-0.5-0.4c-0.2-0.2-0.4-0.3-0.5-0.5c-0.1-0.2-0.2-0.4-0.2-0.6
																										c0-0.2,0-0.3,0.1-0.5c0.1-0.2,0.2-0.3,0.3-0.4c0.1-0.1,0.3-0.2,0.6-0.3C69.6,21.4,69.9,21.3,70.2,21.3
																										L70.2,21.3z M73.3,21.2h0.4l-0.8,3.7c0,0.2-0.1,0.3-0.1,0.4c0,0.1,0,0.1,0,0.2c0,0,0.1,0,0.1,0
																										c0.1,0,0.1,0,0.2-0.1c0.1-0.1,0.2-0.2,0.3-0.3l0.2,0.2c-0.2,0.2-0.4,0.4-0.6,0.5c-0.2,0.1-0.4,0.1-0.6,0.1
																										c-0.2,0-0.4-0.1-0.5-0.2c-0.1-0.1-0.2-0.3-0.2-0.5c0-0.1,0-0.3,0.1-0.5l0.6-2.6c0-0.2,0.1-0.4,0.1-0.5
																										c0,0,0-0.1,0-0.1c0,0,0-0.1,0-0.1s0,0-0.1,0s-0.1,0-0.2,0l0.1-0.2L73.3,21.2L73.3,21.2z"/>
																									<g class="st51">
																										<defs>
																											<polygon id="SVGID_49_" points="-1.4,191.1 215.9,191.1 215.9,-4.7 -1.4,-4.7 -1.4,191.1 
																																																							"/>
																										</defs>
																										<clipPath id="SVGID_50_">
																											<use xlink:href="#SVGID_49_"  style="overflow:visible;"/>
																										</clipPath>
																										<path class="st52" d="M89.5,22.9c-0.2,0-0.4,0.1-0.5,0.3c-0.2,0.2-0.3,0.5-0.4,0.8
																											c-0.1,0.3-0.1,0.7-0.1,0.9c0,0.2,0,0.3,0.1,0.4s0.1,0.1,0.2,0.1c0.1,0,0.3-0.1,0.4-0.2
																											c0.2-0.1,0.3-0.3,0.4-0.5c0.1-0.2,0.2-0.5,0.2-0.8l0-0.1c0-0.2,0.1-0.3,0.1-0.5c0-0.1,0-0.3-0.1-0.3
																											C89.7,22.9,89.6,22.9,89.5,22.9L89.5,22.9z M89.5,22.6c0.3,0,0.6,0.1,0.8,0.2l0.3-0.2l0.4,0.1l-0.5,2.2
																											c0,0.1,0,0.3,0,0.4c0,0.1,0,0.1,0,0.2c0,0,0.1,0.1,0.1,0.1c0.1,0,0.1,0,0.2-0.1c0.1-0.1,0.2-0.2,0.3-0.3
																											l0.2,0.2c-0.2,0.2-0.4,0.4-0.6,0.5c-0.2,0.1-0.3,0.1-0.5,0.1s-0.3-0.1-0.4-0.2c-0.1-0.1-0.2-0.2-0.2-0.4
																											c0-0.1,0-0.1,0-0.2l0,0c-0.2,0.2-0.3,0.3-0.4,0.4c-0.1,0.1-0.2,0.2-0.4,0.2c-0.1,0.1-0.3,0.1-0.4,0.1
																											c-0.3,0-0.5-0.1-0.6-0.3c-0.1-0.2-0.2-0.4-0.2-0.8c0-0.3,0-0.6,0.1-0.9c0.1-0.3,0.2-0.5,0.4-0.8
																											c0.2-0.2,0.4-0.4,0.6-0.5C88.9,22.6,89.2,22.6,89.5,22.6L89.5,22.6z M92.8,21.8h0.8l-0.2,0.8h0.8L94.1,23
																											h-0.8l-0.3,1.3c-0.1,0.2-0.1,0.4-0.1,0.5c0,0.1,0,0.2,0,0.3c0,0.1,0,0.2,0.1,0.2c0,0,0.1,0.1,0.2,0.1
																											c0.1,0,0.2,0,0.3-0.1s0.2-0.2,0.3-0.3l0.3,0.3c-0.2,0.2-0.4,0.4-0.6,0.5c-0.2,0.1-0.4,0.1-0.7,0.1
																											c-0.3,0-0.4-0.1-0.6-0.2c-0.1-0.1-0.2-0.3-0.2-0.5c0-0.1,0-0.2,0-0.3c0-0.1,0-0.2,0.1-0.5l0.3-1.4h-0.5
																											l0.1-0.3c0.2,0,0.3,0,0.3,0c0.1,0,0.1-0.1,0.2-0.1c0.1-0.1,0.1-0.1,0.2-0.3C92.6,22.2,92.7,22,92.8,21.8
																											L92.8,21.8z"/>
																										<g class="st53">
																											<defs>
																												<polygon id="SVGID_51_" points="-1.4,191.1 215.9,191.1 215.9,-4.7 -1.4,-4.7 -1.4,191.1 
																																																									"/>
																											</defs>
																											<clipPath id="SVGID_52_">
																												<use xlink:href="#SVGID_51_"  style="overflow:visible;"/>
																											</clipPath>
																											<path class="st54" d="M98.4,23c-0.1,0-0.3,0.1-0.4,0.2c-0.2,0.1-0.3,0.3-0.4,0.5
																												c-0.1,0.2-0.2,0.4-0.2,0.8l0,0.1c0,0.2-0.1,0.3-0.1,0.5c0,0.2,0,0.3,0.1,0.3c0.1,0.1,0.1,0.1,0.3,0.1
																												c0.1,0,0.2,0,0.3-0.1c0.1,0,0.2-0.1,0.3-0.2c0.1-0.1,0.2-0.3,0.2-0.4c0.1-0.2,0.1-0.4,0.2-0.6
																												c0.1-0.2,0.1-0.5,0.1-0.7c0-0.2,0-0.3-0.1-0.4C98.6,23.1,98.5,23,98.4,23L98.4,23z M102.2,22.9
																												c-0.2,0-0.3,0.1-0.5,0.3c-0.1,0.2-0.3,0.5-0.3,0.8c-0.1,0.4-0.1,0.7-0.1,1c0,0.2,0,0.4,0.1,0.5
																												c0.1,0.1,0.2,0.2,0.3,0.2c0.2,0,0.3-0.1,0.5-0.3c0.1-0.2,0.3-0.5,0.3-0.8c0.1-0.4,0.1-0.7,0.1-1
																												c0-0.2,0-0.4-0.1-0.5C102.5,22.9,102.4,22.9,102.2,22.9L102.2,22.9z M105.5,22.6h0.4l-0.5,2.3
																												c0,0.1,0,0.2,0,0.2c0,0.1,0,0.1,0,0.2c0,0.1,0,0.1,0,0.2c0,0,0.1,0,0.1,0c0.1,0,0.1,0,0.2-0.1
																												c0.1-0.1,0.2-0.2,0.3-0.3l0.2,0.2c-0.2,0.2-0.4,0.4-0.6,0.5c-0.2,0.1-0.4,0.1-0.6,0.1
																												c-0.2,0-0.4-0.1-0.5-0.2c-0.1-0.1-0.2-0.3-0.2-0.5c0-0.1,0-0.3,0.1-0.5l0.3-1.1c0.1-0.2,0.1-0.4,0.1-0.5
																												c0-0.1,0-0.1-0.1-0.2c0,0-0.1-0.1-0.3-0.1l0-0.2L105.5,22.6L105.5,22.6z M107.6,22.6
																												c0.2,0,0.3,0.1,0.4,0.2c0.1,0.1,0.2,0.2,0.2,0.4c0,0.1,0,0.1,0,0.2l0,0c0.2-0.3,0.4-0.4,0.6-0.6
																												c0.2-0.1,0.4-0.2,0.7-0.2c0.2,0,0.4,0.1,0.5,0.2c0.1,0.1,0.2,0.3,0.2,0.5c0,0.1,0,0.2,0,0.3
																												c0,0.1,0,0.2-0.1,0.3l-0.3,1c0,0.1-0.1,0.3-0.1,0.4c0,0.1,0,0.1,0,0.2c0,0,0.1,0,0.1,0
																												c0.1,0,0.1,0,0.2-0.1c0.1-0.1,0.2-0.2,0.3-0.3l0.2,0.2c-0.2,0.2-0.4,0.4-0.6,0.5
																												c-0.2,0.1-0.4,0.1-0.6,0.1c-0.2,0-0.4-0.1-0.5-0.2c-0.1-0.1-0.2-0.3-0.2-0.5c0-0.2,0-0.4,0.1-0.6
																												l0.1-0.5c0-0.1,0.1-0.3,0.1-0.4c0-0.1,0-0.2,0-0.3c0-0.1,0-0.2-0.1-0.2c0,0-0.1-0.1-0.2-0.1
																												c-0.1,0-0.2,0.1-0.4,0.2c-0.1,0.1-0.2,0.3-0.3,0.4c-0.1,0.1-0.1,0.3-0.2,0.6l-0.4,1.7h-0.9l0.5-2.3
																												c0-0.1,0-0.3,0-0.3c0-0.1,0-0.1,0-0.2s-0.1-0.1-0.1-0.1c-0.1,0-0.1,0-0.2,0.1c-0.1,0.1-0.2,0.2-0.3,0.3
																												l-0.2-0.2c0.2-0.2,0.4-0.4,0.6-0.5C107.2,22.6,107.4,22.6,107.6,22.6L107.6,22.6z M102.3,22.6
																												c0.3,0,0.5,0,0.7,0.1c0.2,0.1,0.3,0.2,0.4,0.4c0.1,0.2,0.1,0.4,0.1,0.6c0,0.3,0,0.6-0.1,0.9
																												c-0.1,0.3-0.2,0.5-0.4,0.7c-0.2,0.2-0.4,0.3-0.6,0.4s-0.5,0.1-0.8,0.1c-0.2,0-0.5,0-0.6-0.1
																												c-0.2-0.1-0.3-0.2-0.4-0.4c-0.1-0.2-0.2-0.4-0.2-0.6c0-0.3,0-0.5,0.1-0.8c0.1-0.3,0.2-0.5,0.4-0.8
																												c0.2-0.2,0.4-0.4,0.6-0.5C101.7,22.6,102,22.6,102.3,22.6L102.3,22.6z M97,22.6c0.2,0,0.3,0.1,0.4,0.2
																												c0.1,0.1,0.2,0.2,0.2,0.4c0,0.1,0,0.1,0,0.2l0,0c0.2-0.3,0.4-0.4,0.6-0.6s0.4-0.2,0.7-0.2
																												c0.2,0,0.4,0.1,0.6,0.3s0.2,0.4,0.2,0.8c0,0.3,0,0.6-0.1,0.9c-0.1,0.3-0.2,0.5-0.4,0.8
																												c-0.2,0.2-0.4,0.4-0.6,0.5c-0.2,0.1-0.5,0.2-0.8,0.2c-0.2,0-0.4,0-0.6-0.1L97,26.4c0,0.1,0,0.2,0,0.2
																												c0,0.1,0,0.1,0,0.1c0,0.1,0,0.2,0.1,0.2c0,0,0.1,0.1,0.3,0.1l0,0.2h-1.4l0.8-3.7c0-0.1,0-0.3,0-0.3
																												c0-0.1,0-0.1,0-0.2c0,0-0.1-0.1-0.1-0.1c-0.1,0-0.1,0-0.2,0.1c-0.1,0.1-0.2,0.2-0.3,0.3l-0.2-0.2
																												c0.2-0.2,0.4-0.4,0.6-0.5C96.6,22.6,96.8,22.6,97,22.6L97,22.6z M112.1,21.8h0.8l-0.2,0.8h0.8l-0.1,0.4
																												h-0.8l-0.3,1.3c-0.1,0.2-0.1,0.4-0.1,0.5c0,0.1,0,0.2,0,0.3c0,0.1,0,0.2,0.1,0.2c0,0,0.1,0.1,0.2,0.1
																												c0.1,0,0.2,0,0.3-0.1c0.1-0.1,0.2-0.2,0.3-0.3l0.3,0.3c-0.2,0.2-0.4,0.4-0.6,0.5
																												c-0.2,0.1-0.4,0.1-0.7,0.1c-0.3,0-0.4-0.1-0.6-0.2c-0.1-0.1-0.2-0.3-0.2-0.5c0-0.1,0-0.2,0-0.3
																												c0-0.1,0-0.2,0.1-0.5l0.3-1.4h-0.5l0.1-0.3c0.2,0,0.3,0,0.3,0c0.1,0,0.1-0.1,0.2-0.1
																												c0.1-0.1,0.1-0.1,0.2-0.3C111.9,22.2,112,22,112.1,21.8L112.1,21.8z M105.2,21.3h0.8l-0.2,0.8h-0.9
																												L105.2,21.3L105.2,21.3z"/>
																											<g class="st55">
																												<defs>
																													<polygon id="SVGID_53_" points="-1.4,191.1 215.9,191.1 215.9,-4.7 -1.4,-4.7 -1.4,191.1 
																																																											"/>
																												</defs>
																												<clipPath id="SVGID_54_">
																													<use xlink:href="#SVGID_53_"  style="overflow:visible;"/>
																												</clipPath>
																												<path class="st56" d="M91.1,30l-1,1.9h1.1l0-0.8c0-0.3,0-0.5,0-0.7C91.1,30.3,91.1,30.2,91.1,30
																													L91.1,30z M91,29.2H92l0.1,3.5c0,0.1,0,0.2,0,0.3c0,0.1,0,0.2,0.1,0.2c0,0.1,0.1,0.1,0.1,0.1
																													c0,0,0.1,0,0.2,0.1l0,0.2h-1.7l0-0.2c0.1,0,0.2,0,0.2-0.1s0.1-0.1,0.1-0.2s0-0.2,0-0.3
																													c0-0.1,0-0.2,0-0.3l0-0.3h-1.3l0,0.1c-0.1,0.2-0.2,0.4-0.2,0.5c0,0.1-0.1,0.2-0.1,0.3
																													c0,0.2,0.1,0.2,0.3,0.3l0,0.2h-1.4l0-0.2c0.1,0,0.1,0,0.2-0.1c0.1,0,0.1-0.1,0.2-0.2
																													c0.1-0.1,0.1-0.2,0.2-0.4L91,29.2z"/>
																											</g>
																										</g>
																									</g>
																								</g>
																							</g>
																						</g>
																					</g>
																				</g>
																			</g>
																		</g>
																	</g>
																</g>
															</g>
														</g>
													</g>
												</g>
											</g>
										</g>
									</g>
								</g>
							</g>
						</g>
					</g>
				</g>
			</g>
		</g>
	</g>
</g>
</svg>
