<?xml version="1.0" encoding="utf-8"?>
<!-- Generator: Adobe Illustrator 23.0.2, SVG Export Plug-In . SVG Version: 6.00 Build 0)  -->
<svg version="1.0" id="Layer_1" xmlns="http://www.w3.org/2000/svg" xmlns:xlink="http://www.w3.org/1999/xlink" x="0px" y="0px"
	 viewBox="0 0 214.2 192.8" style="enable-background:new 0 0 214.2 192.8;" xml:space="preserve">
<style type="text/css">
	.st0{fill:none;stroke:#000000;stroke-width:1.262;stroke-miterlimit:8;}
	.st1{fill-rule:evenodd;clip-rule:evenodd;}
	.st2{clip-path:url(#SVGID_2_);fill:none;stroke:#000000;stroke-width:1.262;stroke-miterlimit:8;}
	.st3{clip-path:url(#SVGID_2_);fill-rule:evenodd;clip-rule:evenodd;}
	.st4{clip-path:url(#SVGID_2_);}
	.st5{clip-path:url(#SVGID_4_);fill-rule:evenodd;clip-rule:evenodd;}
	.st6{clip-path:url(#SVGID_4_);}
	.st7{clip-path:url(#SVGID_6_);fill-rule:evenodd;clip-rule:evenodd;}
	.st8{clip-path:url(#SVGID_6_);}
	.st9{clip-path:url(#SVGID_8_);fill-rule:evenodd;clip-rule:evenodd;}
	.st10{clip-path:url(#SVGID_8_);}
	.st11{clip-path:url(#SVGID_10_);fill-rule:evenodd;clip-rule:evenodd;}
	.st12{clip-path:url(#SVGID_10_);}
	.st13{clip-path:url(#SVGID_12_);fill-rule:evenodd;clip-rule:evenodd;}
	.st14{clip-path:url(#SVGID_12_);}
	.st15{clip-path:url(#SVGID_14_);fill-rule:evenodd;clip-rule:evenodd;}
	.st16{clip-path:url(#SVGID_14_);}
	.st17{clip-path:url(#SVGID_16_);fill-rule:evenodd;clip-rule:evenodd;}
	.st18{clip-path:url(#SVGID_16_);}
	.st19{clip-path:url(#SVGID_18_);fill:none;stroke:#0303C3;stroke-width:1.262;stroke-miterlimit:8;}
	.st20{clip-path:url(#SVGID_18_);}
	.st21{clip-path:url(#SVGID_20_);fill-rule:evenodd;clip-rule:evenodd;fill:#0303C3;}
	.st22{clip-path:url(#SVGID_20_);}
	.st23{clip-path:url(#SVGID_22_);fill-rule:evenodd;clip-rule:evenodd;fill:#0303C3;}
	.st24{clip-path:url(#SVGID_22_);}
	.st25{clip-path:url(#SVGID_24_);fill-rule:evenodd;clip-rule:evenodd;fill:#0303C3;}
	.st26{clip-path:url(#SVGID_24_);}
	.st27{clip-path:url(#SVGID_26_);fill-rule:evenodd;clip-rule:evenodd;fill:#0303C3;}
	.st28{clip-path:url(#SVGID_26_);}
	.st29{clip-path:url(#SVGID_28_);fill-rule:evenodd;clip-rule:evenodd;fill:#0303C3;}
	.st30{clip-path:url(#SVGID_28_);}
	.st31{clip-path:url(#SVGID_30_);fill-rule:evenodd;clip-rule:evenodd;fill:#0303C3;}
	.st32{clip-path:url(#SVGID_30_);}
	.st33{clip-path:url(#SVGID_32_);fill-rule:evenodd;clip-rule:evenodd;fill:#0303C3;}
	.st34{clip-path:url(#SVGID_32_);}
	.st35{clip-path:url(#SVGID_34_);fill-rule:evenodd;clip-rule:evenodd;fill:#0303C3;}
	.st36{clip-path:url(#SVGID_34_);}
	.st37{clip-path:url(#SVGID_36_);fill-rule:evenodd;clip-rule:evenodd;fill:#0303C3;}
</style>
<g>
	<line class="st0" x1="6.2" y1="165.8" x2="202.8" y2="165.8"/>
	<polygon class="st1" points="202.2,163.9 206,165.8 202.2,167.7 202.2,163.9 	"/>
	<g>
		<defs>
			<polygon id="SVGID_1_" points="0,191.7 216.4,191.7 216.4,-4.9 0,-4.9 0,191.7 			"/>
		</defs>
		<clipPath id="SVGID_2_">
			<use xlink:href="#SVGID_1_"  style="overflow:visible;"/>
		</clipPath>
		<line class="st2" x1="15.8" y1="175.7" x2="15.8" y2="11.4"/>
		<polygon class="st3" points="17.7,12 15.8,8.2 13.9,12 17.7,12 		"/>
		<g class="st4">
			<defs>
				<polygon id="SVGID_3_" points="0,191.7 216.4,191.7 216.4,-4.9 0,-4.9 0,191.7 				"/>
			</defs>
			<clipPath id="SVGID_4_">
				<use xlink:href="#SVGID_3_"  style="overflow:visible;"/>
			</clipPath>
			<path class="st5" d="M5.6,3.6c0.2,0,0.4,0,0.5,0.1c0.1,0,0.2,0.1,0.3,0.2C6.5,4,6.6,4.1,6.6,4.3c0.1,0.2,0.1,0.3,0.2,0.5
				C6.9,5,7,5.3,7,5.7c0.1,0.6,0.2,1.3,0.3,2s0.2,1.4,0.3,2c0.5-0.7,0.9-1.4,1.2-2s0.6-1.2,0.7-1.7S9.8,5,9.8,4.7
				c0-0.2,0-0.4-0.1-0.5C9.6,4.2,9.4,4.1,9.2,4.1l0.1-0.4h1.9l0.2,0.4c-0.4,1-0.9,2.1-1.5,3.3c-0.6,1.1-1.4,2.3-2.2,3.4
				c-0.8,1.1-1.4,1.9-1.9,2.3c-0.4,0.3-0.7,0.6-1,0.7C4.4,14,4.1,14,3.8,14c-0.1,0-0.2,0-0.4,0c-0.1,0-0.2,0-0.3-0.1l0.3-1.4h0.6
				c0,0.3,0.1,0.5,0.3,0.5c0.3,0,0.6-0.2,1-0.5c0.4-0.4,0.8-0.9,1.3-1.6C6.6,10,6.4,8.9,6.2,7.7C5.9,6.4,5.7,5.6,5.6,5.3
				C5.5,4.9,5.4,4.7,5.3,4.6C5.2,4.5,5.2,4.5,5,4.5c-0.2,0-0.3,0.1-0.4,0.2C4.5,4.8,4.3,5,4.1,5.3L3.6,5c0.3-0.5,0.7-0.9,1-1.1
				S5.2,3.6,5.6,3.6L5.6,3.6z"/>
			<g class="st6">
				<defs>
					<polygon id="SVGID_5_" points="0,191.7 216.4,191.7 216.4,-4.9 0,-4.9 0,191.7 					"/>
				</defs>
				<clipPath id="SVGID_6_">
					<use xlink:href="#SVGID_5_"  style="overflow:visible;"/>
				</clipPath>
				<path class="st7" d="M204.2,170.5c0.2,0,0.3,0,0.4,0.1c0.1,0,0.2,0.1,0.3,0.2c0.1,0.1,0.2,0.2,0.2,0.3c0.1,0.1,0.1,0.3,0.2,0.5
					c0.1,0.2,0.1,0.4,0.2,0.7c0.1,0.3,0.1,0.6,0.2,0.9h0.1c0.5-0.7,0.8-1.2,1.1-1.5c0.2-0.3,0.4-0.5,0.6-0.7
					c0.2-0.2,0.3-0.3,0.5-0.3c0.2-0.1,0.4-0.1,0.6-0.1c0.2,0,0.4,0,0.6,0.1l-0.3,1.3h-0.5c0-0.2-0.1-0.3-0.3-0.3c0,0-0.1,0-0.1,0
					s-0.1,0-0.2,0.1c-0.1,0-0.2,0.1-0.3,0.3c-0.1,0.1-0.3,0.3-0.5,0.5s-0.4,0.4-0.5,0.7l-0.5,0.6c0.1,0.5,0.2,0.9,0.3,1.2
					c0.1,0.3,0.1,0.6,0.2,0.9c0.1,0.2,0.1,0.4,0.2,0.5c0,0.1,0.1,0.2,0.2,0.3c0.1,0.1,0.1,0.1,0.2,0.1c0.1,0,0.1,0,0.2,0
					c0.1,0,0.3-0.1,0.4-0.2c0.1-0.1,0.3-0.3,0.5-0.7l0.5,0.3c-0.3,0.5-0.7,0.9-0.9,1.1s-0.6,0.3-1,0.3c-0.2,0-0.4,0-0.5-0.1
					c-0.1-0.1-0.3-0.2-0.4-0.4c-0.1-0.2-0.2-0.4-0.3-0.8c-0.2-0.6-0.2-1.1-0.3-1.4H205c-0.5,0.7-0.9,1.3-1.2,1.6
					c-0.3,0.3-0.5,0.6-0.6,0.7c-0.2,0.2-0.3,0.3-0.5,0.3c-0.2,0.1-0.4,0.1-0.6,0.1c-0.2,0-0.4,0-0.6-0.1l0.3-1.3h0.5
					c0,0.2,0.1,0.3,0.3,0.3c0.1,0,0.1,0,0.2-0.1s0.2-0.1,0.3-0.3c0.1-0.1,0.3-0.4,0.6-0.7s0.6-0.8,1.1-1.4c-0.1-0.4-0.2-0.8-0.2-1.1
					c-0.1-0.4-0.2-0.7-0.2-1c-0.1-0.3-0.2-0.5-0.2-0.6s-0.1-0.2-0.2-0.2c-0.1,0-0.1-0.1-0.2-0.1c-0.1,0-0.2,0-0.3,0.1
					s-0.2,0.1-0.3,0.2c-0.1,0.1-0.2,0.3-0.4,0.5l-0.5-0.3c0.3-0.5,0.6-0.8,0.9-1.1S203.8,170.5,204.2,170.5L204.2,170.5z"/>
				<g class="st8">
					<defs>
						<polygon id="SVGID_7_" points="0,191.7 216.4,191.7 216.4,-4.9 0,-4.9 0,191.7 						"/>
					</defs>
					<clipPath id="SVGID_8_">
						<use xlink:href="#SVGID_7_"  style="overflow:visible;"/>
					</clipPath>
					<path class="st9" d="M8,171.1c-0.5,0-1,0.2-1.3,0.6c-0.4,0.4-0.7,1-0.9,1.8s-0.3,1.5-0.3,2.1c0,0.5,0.1,0.9,0.3,1.2
						c0.2,0.3,0.6,0.4,1,0.4c0.5,0,0.9-0.2,1.3-0.7c0.4-0.4,0.7-1,0.9-1.8c0.2-0.8,0.3-1.5,0.3-2.1c0-0.5-0.1-0.9-0.3-1.2
						S8.4,171.1,8,171.1L8,171.1z M8.1,170.5c0.8,0,1.4,0.2,1.8,0.6c0.4,0.4,0.6,1,0.6,1.9c0,0.6-0.1,1.2-0.3,1.8
						c-0.2,0.7-0.5,1.2-0.8,1.6c-0.3,0.4-0.8,0.8-1.2,1s-1,0.3-1.7,0.3c-0.8,0-1.4-0.2-1.8-0.6c-0.4-0.4-0.6-1-0.6-1.8
						c0-0.4,0.1-0.9,0.2-1.4c0.2-0.7,0.4-1.3,0.8-1.8c0.4-0.5,0.8-0.9,1.3-1.2S7.5,170.5,8.1,170.5L8.1,170.5z"/>
					<g class="st10">
						<defs>
							<polygon id="SVGID_9_" points="0,191.7 216.4,191.7 216.4,-4.9 0,-4.9 0,191.7 							"/>
						</defs>
						<clipPath id="SVGID_10_">
							<use xlink:href="#SVGID_9_"  style="overflow:visible;"/>
						</clipPath>
						<path class="st11" d="M113.2,183.1c-0.3,0-0.7,0.2-1,0.5c-0.3,0.3-0.5,0.8-0.7,1.4c0.5,0,0.9,0,1.2-0.1s0.6-0.2,0.8-0.4
							s0.3-0.4,0.3-0.7c0-0.2,0-0.4-0.1-0.5S113.4,183.1,113.2,183.1L113.2,183.1z M97,183.1c-0.3,0-0.6,0.1-0.9,0.4
							c-0.3,0.3-0.5,0.6-0.6,1.1s-0.2,0.9-0.2,1.4c0,0.3,0,0.6,0.1,0.8c0.1,0.2,0.3,0.3,0.5,0.3c0.2,0,0.3-0.1,0.5-0.2
							c0.2-0.1,0.3-0.3,0.5-0.5c0.2-0.2,0.3-0.5,0.4-0.7c0.1-0.2,0.2-0.5,0.3-0.8c0.1-0.3,0.1-0.6,0.1-0.9c0-0.3-0.1-0.4-0.2-0.6
							C97.5,183.1,97.3,183.1,97,183.1L97,183.1z M92.1,182.7h0.3l-0.7,3.2c-0.1,0.3-0.1,0.6-0.1,0.7c0,0.1,0,0.2,0.1,0.3
							s0.1,0.1,0.2,0.1c0.1,0,0.2,0,0.3-0.1c0.1-0.1,0.3-0.2,0.5-0.5l0.3,0.3c-0.3,0.3-0.6,0.6-0.8,0.7c-0.2,0.1-0.4,0.2-0.7,0.2
							c-0.2,0-0.4-0.1-0.5-0.2s-0.2-0.4-0.2-0.6c0-0.2,0-0.6,0.1-1l0.4-1.6c0.1-0.3,0.1-0.6,0.1-0.7c0-0.1,0-0.2-0.1-0.3
							c-0.1-0.1-0.2-0.1-0.4-0.1l0.1-0.3L92.1,182.7L92.1,182.7z M113.4,182.7c0.4,0,0.7,0.1,0.9,0.2c0.2,0.2,0.3,0.4,0.3,0.8
							c0,0.6-0.3,1-0.8,1.3c-0.5,0.3-1.3,0.4-2.3,0.4c0,0.2-0.1,0.4-0.1,0.6c0,0.3,0.1,0.6,0.2,0.8c0.1,0.2,0.4,0.2,0.7,0.2
							c0.3,0,0.6-0.1,0.8-0.2c0.2-0.1,0.5-0.3,0.8-0.6l0.3,0.3c-0.3,0.4-0.6,0.6-1,0.8s-0.7,0.3-1.1,0.3c-0.5,0-0.8-0.1-1.1-0.4
							c-0.3-0.3-0.4-0.7-0.4-1.2c0-0.4,0.1-0.7,0.2-1.1c0.1-0.4,0.3-0.8,0.6-1.1s0.6-0.6,0.9-0.7S113,182.7,113.4,182.7L113.4,182.7
							z M106.8,182.7c0.2,0,0.4,0.1,0.5,0.2c0.1,0.1,0.2,0.3,0.2,0.5c0,0.2,0,0.3-0.1,0.5l0.1,0c0.3-0.4,0.6-0.8,0.9-1
							s0.6-0.3,0.9-0.3c0.2,0,0.4,0,0.6,0.1l-0.2,1.1h-0.5c0-0.1,0-0.2-0.1-0.3c0-0.1-0.1-0.1-0.1-0.2c0,0-0.1,0-0.2,0
							c-0.1,0-0.2,0.1-0.4,0.2c-0.1,0.1-0.3,0.3-0.5,0.5c-0.2,0.2-0.3,0.4-0.4,0.6c-0.1,0.2-0.2,0.5-0.3,0.8l-0.5,2.1h-0.9l0.7-3.1
							c0-0.2,0.1-0.4,0.1-0.5s0-0.2,0-0.3c0-0.1,0-0.2-0.1-0.3s-0.1-0.1-0.2-0.1c-0.1,0-0.2,0-0.3,0.1c-0.1,0.1-0.3,0.2-0.5,0.5
							l-0.3-0.3c0.3-0.3,0.6-0.5,0.8-0.7S106.5,182.7,106.8,182.7L106.8,182.7z M101,182.7c0.2,0,0.4,0.1,0.5,0.2
							c0.1,0.1,0.2,0.3,0.2,0.6c0,0.3-0.1,0.6-0.2,1l-0.2,0.9c-0.1,0.2-0.1,0.4-0.1,0.5c0,0.1,0,0.2-0.1,0.3c0,0.1,0,0.2,0,0.2
							c0,0.2,0,0.4,0.1,0.5c0.1,0.1,0.2,0.2,0.4,0.2c0.1,0,0.3-0.1,0.4-0.2c0.2-0.1,0.3-0.3,0.5-0.5c0.2-0.2,0.3-0.4,0.4-0.6
							c0.1-0.2,0.2-0.5,0.3-0.8l0.5-2.1h0.9l-0.7,3.1c-0.1,0.3-0.1,0.6-0.1,0.7c0,0.1,0,0.2,0.1,0.3c0,0.1,0.1,0.1,0.2,0.1
							c0.1,0,0.2,0,0.3-0.1c0.1-0.1,0.3-0.2,0.5-0.5l0.3,0.3c-0.3,0.3-0.6,0.5-0.8,0.7c-0.2,0.1-0.4,0.2-0.7,0.2
							c-0.2,0-0.4-0.1-0.5-0.2c-0.1-0.1-0.2-0.3-0.2-0.5c0-0.2,0-0.4,0.1-0.6l-0.1,0c-0.3,0.5-0.6,0.8-0.9,1
							c-0.3,0.2-0.6,0.3-0.9,0.3s-0.5-0.1-0.7-0.3c-0.2-0.2-0.2-0.4-0.2-0.7c0-0.2,0-0.5,0.1-0.9l0.3-1.3c0.1-0.4,0.1-0.6,0.1-0.8
							c0-0.1,0-0.2-0.1-0.3c0-0.1-0.1-0.1-0.2-0.1c-0.1,0-0.2,0-0.3,0.1c-0.1,0.1-0.3,0.2-0.5,0.5l-0.3-0.3c0.3-0.3,0.5-0.5,0.6-0.6
							c0.1-0.1,0.3-0.2,0.4-0.2C100.7,182.7,100.9,182.7,101,182.7L101,182.7z M97,182.7c0.2,0,0.4,0,0.6,0.1c0.2,0,0.4,0.1,0.6,0.3
							l0.5-0.3l0.3,0.1l-0.5,2.3c0,0.2-0.1,0.6-0.2,1.2c-0.1,0.7-0.2,1.2-0.3,1.5c-0.1,0.3-0.2,0.5-0.3,0.8
							c-0.1,0.2-0.3,0.4-0.5,0.6c-0.2,0.2-0.4,0.3-0.7,0.4s-0.6,0.1-1,0.1c-1.2,0-1.9-0.4-1.9-1.1c0-0.2,0.1-0.4,0.2-0.5
							c0.1-0.2,0.3-0.3,0.5-0.5l0.4,0.3c-0.1,0.1-0.1,0.2-0.2,0.2s-0.1,0.1-0.1,0.2c0,0.1,0,0.2,0,0.2c0,0.2,0.1,0.4,0.3,0.5
							c0.2,0.1,0.4,0.2,0.8,0.2c0.4,0,0.7-0.1,1-0.3s0.5-0.5,0.6-0.9s0.3-1,0.5-1.8l-0.1,0c-0.3,0.4-0.6,0.8-0.9,1
							c-0.3,0.2-0.6,0.3-0.9,0.3c-0.4,0-0.6-0.1-0.8-0.4s-0.3-0.7-0.3-1.2c0-0.6,0.1-1.1,0.3-1.6c0.2-0.5,0.5-0.9,0.9-1.2
							C96,182.8,96.5,182.7,97,182.7L97,182.7z M92,180.8h0.9l-0.2,1h-0.9L92,180.8L92,180.8z M89.2,180.4c0.3,0,0.6,0,0.8,0.1
							l-0.2,0.8h-0.4c0-0.2-0.1-0.3-0.2-0.4c-0.1-0.1-0.2-0.1-0.3-0.1c-0.2,0-0.3,0.1-0.5,0.2c-0.1,0.1-0.2,0.3-0.3,0.5
							s-0.2,0.5-0.3,0.8l-0.1,0.5H89l-0.1,0.5h-1.3l-0.9,4.3c-0.2,0.7-0.4,1.2-0.7,1.6c-0.3,0.4-0.7,0.5-1.2,0.5c-0.1,0-0.2,0-0.3,0
							l0.1-0.4c0,0,0.1,0,0.2,0c0.1,0,0.3,0,0.4-0.1s0.2-0.2,0.3-0.4c0.1-0.2,0.2-0.4,0.2-0.8l1.1-4.7h-0.8l0.1-0.3
							c0.2,0,0.4,0,0.5-0.1s0.2-0.1,0.2-0.1c0.1,0,0.1-0.1,0.1-0.2s0.1-0.2,0.1-0.4c0.2-0.6,0.4-1,0.8-1.3
							C88.2,180.5,88.6,180.4,89.2,180.4L89.2,180.4z"/>
						<g class="st12">
							<defs>
								<polygon id="SVGID_11_" points="0,191.7 216.4,191.7 216.4,-4.9 0,-4.9 0,191.7 								"/>
							</defs>
							<clipPath id="SVGID_12_">
								<use xlink:href="#SVGID_11_"  style="overflow:visible;"/>
							</clipPath>
							<path class="st13" d="M121.4,180.4l0.1,0.4c-0.8,0.3-1.3,0.7-1.7,1.5s-0.6,1.7-0.6,2.8c0,1.2,0.2,2.1,0.6,2.8
								s0.9,1.2,1.7,1.5l-0.1,0.4c-1-0.3-1.7-0.8-2.2-1.6c-0.5-0.8-0.8-1.8-0.8-3c0-1.2,0.3-2.2,0.8-3
								C119.7,181.2,120.4,180.6,121.4,180.4L121.4,180.4z"/>
							<g class="st14">
								<defs>
									<polygon id="SVGID_13_" points="0,191.7 216.4,191.7 216.4,-4.9 0,-4.9 0,191.7 									"/>
								</defs>
								<clipPath id="SVGID_14_">
									<use xlink:href="#SVGID_13_"  style="overflow:visible;"/>
								</clipPath>
								<path class="st15" d="M130.3,183.9c-0.2,0-0.3,0-0.5,0.1c-0.1,0-0.3,0.1-0.4,0.2c-0.1,0.1-0.3,0.2-0.4,0.3
									c0,0-0.1,0.1-0.1,0.1c0,0.1-0.1,0.1-0.1,0.2s0,0.2,0,0.5c0,0.6,0.1,1.1,0.3,1.4c0.2,0.3,0.5,0.5,1,0.5c0.2,0,0.5,0,0.6-0.1
									c0.2-0.1,0.3-0.2,0.4-0.4c0.1-0.1,0.2-0.3,0.2-0.5c0-0.2,0.1-0.4,0.1-0.7c0-0.5-0.1-0.9-0.3-1.1
									C131,184.1,130.7,183.9,130.3,183.9L130.3,183.9z M124.5,181.1c-0.2,0-0.4,0.1-0.6,0.2c-0.2,0.1-0.3,0.3-0.4,0.6
									s-0.2,0.6-0.2,0.9c0,0.4-0.1,0.8-0.1,1.2c0,1.1,0.1,1.9,0.3,2.4c0.2,0.5,0.5,0.8,0.9,0.8c0.4,0,0.7-0.2,0.9-0.7
									s0.3-1.2,0.3-2.2c0-0.8,0-1.4-0.1-1.8c-0.1-0.5-0.2-0.8-0.4-1C124.9,181.2,124.7,181.1,124.5,181.1L124.5,181.1z
									 M131.6,180.7l0.2,0.3v0.2c-0.5,0-1,0.1-1.3,0.3c-0.4,0.2-0.7,0.5-1,1c-0.3,0.4-0.4,0.9-0.5,1.5l0,0
									c0.3-0.2,0.5-0.3,0.8-0.4s0.6-0.1,0.9-0.1c0.4,0,0.7,0.1,0.9,0.2c0.3,0.2,0.5,0.4,0.6,0.7c0.1,0.3,0.2,0.6,0.2,1
									c0,0.4-0.1,0.8-0.2,1.1s-0.4,0.6-0.8,0.8s-0.8,0.3-1.3,0.3c-0.7,0-1.3-0.2-1.6-0.7c-0.4-0.4-0.5-1.1-0.5-2
									c0-0.6,0.1-1.1,0.3-1.6c0.2-0.5,0.4-1,0.8-1.3c0.3-0.4,0.7-0.7,1.2-0.9C130.6,180.8,131.1,180.7,131.6,180.7L131.6,180.7z
									 M124.5,180.7c0.7,0,1.3,0.3,1.6,0.8c0.4,0.6,0.5,1.4,0.5,2.5c0,1.2-0.2,2-0.6,2.6c-0.4,0.6-0.9,0.9-1.6,0.9
									c-0.7,0-1.2-0.3-1.6-0.8s-0.5-1.4-0.5-2.5c0-0.6,0.1-1.1,0.2-1.6s0.3-0.8,0.4-1.1c0.2-0.3,0.4-0.5,0.7-0.6
									C123.9,180.7,124.2,180.7,124.5,180.7L124.5,180.7z"/>
								<g class="st16">
									<defs>
										<polygon id="SVGID_15_" points="0,191.7 216.4,191.7 216.4,-4.9 0,-4.9 0,191.7 										"/>
									</defs>
									<clipPath id="SVGID_16_">
										<use xlink:href="#SVGID_15_"  style="overflow:visible;"/>
									</clipPath>
									<path class="st17" d="M133.2,180.4c1,0.3,1.7,0.8,2.2,1.6c0.5,0.8,0.8,1.9,0.8,3c0,1.2-0.3,2.2-0.8,3
										c-0.5,0.8-1.3,1.4-2.2,1.6l-0.1-0.4c0.8-0.3,1.3-0.8,1.7-1.5s0.6-1.7,0.6-2.8c0-1.1-0.2-2-0.6-2.8s-0.9-1.2-1.7-1.5
										L133.2,180.4z"/>
									<g class="st18">
										<defs>
											<polygon id="SVGID_17_" points="0,191.7 216.4,191.7 216.4,-4.9 0,-4.9 0,191.7 											"/>
										</defs>
										<clipPath id="SVGID_18_">
											<use xlink:href="#SVGID_17_"  style="overflow:visible;"/>
										</clipPath>
										<path class="st19" d="M38.9,139.8c5.7-2.5,11.4-5,18-17.4s10.8-42,21.8-56.5c11-14.5,27.4-24.7,44.2-30.6
											c16.8-5.9,56.5-4.7,56.5-4.7l0,0l0,0"/>
										<g class="st20">
											<defs>
												<polygon id="SVGID_19_" points="0,191.7 216.4,191.7 216.4,-4.9 0,-4.9 0,191.7 												"/>
											</defs>
											<clipPath id="SVGID_20_">
												<use xlink:href="#SVGID_19_"  style="overflow:visible;"/>
											</clipPath>
											<path class="st21" d="M166.4,9.1c-0.2,0-0.5,0.1-0.7,0.4c-0.2,0.3-0.4,0.6-0.5,1c0.3,0,0.6,0,0.9-0.1
												c0.2-0.1,0.4-0.2,0.6-0.3c0.1-0.1,0.2-0.3,0.2-0.5c0-0.2,0-0.3-0.1-0.4C166.7,9.1,166.6,9.1,166.4,9.1L166.4,9.1z
												 M166.6,8.8c0.3,0,0.5,0.1,0.7,0.2c0.1,0.1,0.2,0.3,0.2,0.6c0,0.4-0.2,0.7-0.6,0.9c-0.4,0.2-1,0.3-1.8,0.3
												c0,0.1,0,0.3,0,0.5c0,0.3,0.1,0.4,0.2,0.6c0.1,0.1,0.3,0.2,0.5,0.2c0.2,0,0.4,0,0.6-0.1c0.2-0.1,0.4-0.3,0.6-0.5l0.2,0.2
												c-0.2,0.3-0.5,0.5-0.7,0.6c-0.2,0.1-0.5,0.2-0.9,0.2c-0.4,0-0.6-0.1-0.8-0.3s-0.3-0.5-0.3-0.9c0-0.3,0-0.5,0.1-0.8
												c0.1-0.3,0.2-0.6,0.4-0.8c0.2-0.2,0.4-0.4,0.7-0.6C166,8.8,166.3,8.8,166.6,8.8L166.6,8.8z M155.9,7.3h3.9l-0.3,1.3h-0.4
												c0-0.2,0-0.4,0-0.5c0-0.1,0-0.2-0.1-0.3c0-0.1-0.1-0.1-0.1-0.1s-0.1,0-0.3,0h-0.5l-0.8,3.6c0,0.1,0,0.2,0,0.2
												c0,0.1,0,0.1,0,0.2c0,0.1,0,0.1,0,0.2c0,0.1,0,0.1,0,0.2c0,0,0.1,0.1,0.1,0.1s0.1,0,0.3,0l0,0.2H156l0-0.2
												c0.1,0,0.2,0,0.2-0.1c0,0,0.1-0.1,0.1-0.1c0-0.1,0.1-0.1,0.1-0.2c0-0.1,0.1-0.3,0.1-0.5l0.8-3.6H157
												c-0.2,0-0.3,0-0.4,0.1s-0.2,0.1-0.3,0.2s-0.2,0.3-0.3,0.6h-0.4L155.9,7.3L155.9,7.3z M161.8,7.1h0.2l-0.6,2.6l0,0
												c0.2-0.3,0.5-0.5,0.7-0.7s0.4-0.2,0.6-0.2c0.2,0,0.4,0.1,0.5,0.2c0.1,0.1,0.2,0.3,0.2,0.5c0,0.2,0,0.4-0.1,0.7l-0.2,1
												c-0.1,0.3-0.1,0.5-0.1,0.6c0,0.1,0,0.2,0,0.2c0,0,0.1,0.1,0.2,0.1c0.1,0,0.2,0,0.2-0.1c0.1-0.1,0.2-0.2,0.4-0.3l0.2,0.2
												c-0.2,0.2-0.4,0.4-0.6,0.5c-0.2,0.1-0.3,0.1-0.5,0.1c-0.2,0-0.3-0.1-0.4-0.2c-0.1-0.1-0.1-0.3-0.1-0.4
												c0-0.2,0-0.4,0.1-0.7l0.2-0.6c0.1-0.2,0.1-0.4,0.1-0.5c0-0.1,0-0.2,0-0.3c0-0.2,0-0.3-0.1-0.4c-0.1-0.1-0.1-0.1-0.3-0.1
												c-0.1,0-0.2,0-0.3,0.1s-0.3,0.2-0.4,0.4s-0.2,0.3-0.3,0.5s-0.1,0.3-0.2,0.6l-0.3,1.6h-0.6l1-4.2c0.1-0.3,0.1-0.4,0.1-0.5
												c0-0.1,0-0.2-0.1-0.2c-0.1,0-0.2-0.1-0.3-0.1l0-0.2L161.8,7.1L161.8,7.1z"/>
											<g class="st22">
												<defs>
													<polygon id="SVGID_21_" points="0,191.7 216.4,191.7 216.4,-4.9 0,-4.9 0,191.7 													"/>
												</defs>
												<clipPath id="SVGID_22_">
													<use xlink:href="#SVGID_21_"  style="overflow:visible;"/>
												</clipPath>
												<path class="st23" d="M184.9,9.2c-0.1,0-0.2,0-0.4,0.1s-0.3,0.2-0.4,0.4c-0.1,0.2-0.3,0.4-0.3,0.6
													c-0.1,0.2-0.1,0.4-0.2,0.6l0,0.2c0,0.1,0,0.2,0,0.3c0,0.1,0,0.1,0,0.2c0,0.2,0,0.3,0.1,0.4c0.1,0.1,0.2,0.1,0.4,0.1
													c0.1,0,0.2,0,0.3-0.1c0.1,0,0.2-0.1,0.3-0.2c0.1-0.1,0.2-0.2,0.3-0.3s0.1-0.3,0.2-0.5s0.1-0.4,0.1-0.5
													c0-0.2,0-0.4,0-0.5c0-0.3,0-0.5-0.1-0.6C185.1,9.3,185,9.2,184.9,9.2L184.9,9.2z M180.3,9.1c-0.3,0-0.5,0.1-0.7,0.3
													s-0.4,0.5-0.5,0.8c-0.1,0.3-0.2,0.7-0.2,1c0,0.3,0,0.4,0.1,0.6s0.2,0.2,0.4,0.2c0.2,0,0.3-0.1,0.5-0.2
													c0.2-0.1,0.3-0.3,0.5-0.6s0.3-0.6,0.4-0.9l0-0.2c0-0.1,0-0.2,0-0.3c0-0.1,0-0.2,0-0.2c0-0.2,0-0.3-0.1-0.4
													C180.6,9.1,180.5,9.1,180.3,9.1L180.3,9.1z M172.5,9.1c-0.3,0-0.5,0.1-0.7,0.3c-0.2,0.2-0.4,0.5-0.5,0.8s-0.2,0.7-0.2,1
													c0,0.3,0,0.4,0.1,0.6s0.2,0.2,0.3,0.2c0.1,0,0.3,0,0.4-0.1c0.1-0.1,0.3-0.2,0.4-0.4c0.1-0.2,0.3-0.4,0.3-0.5
													c0.1-0.2,0.1-0.4,0.2-0.6C173,10,173,9.8,173,9.6c0-0.2,0-0.3-0.1-0.4C172.8,9.1,172.7,9.1,172.5,9.1L172.5,9.1z
													 M183.3,8.8c0.2,0,0.3,0.1,0.4,0.2c0.1,0.1,0.1,0.2,0.1,0.4c0,0.1,0,0.3-0.1,0.4l0,0c0.5-0.7,0.9-1,1.4-1
													c0.3,0,0.5,0.1,0.6,0.3c0.1,0.2,0.2,0.5,0.2,0.9c0,0.4-0.1,0.8-0.2,1.2c-0.2,0.4-0.4,0.7-0.7,0.9s-0.6,0.3-1,0.3
													c-0.3,0-0.6-0.1-0.8-0.2l-0.2,0.8c0,0.2-0.1,0.3-0.1,0.4c0,0.1,0,0.2,0.1,0.2c0.1,0,0.2,0.1,0.3,0.1l0,0.2h-1.1l0.9-3.9
													c0.1-0.2,0.1-0.4,0.1-0.6c0-0.1,0-0.2,0-0.2c0,0-0.1-0.1-0.2-0.1c-0.1,0-0.2,0-0.2,0.1c-0.1,0.1-0.2,0.2-0.3,0.3
													l-0.2-0.2c0.2-0.2,0.4-0.4,0.6-0.5C182.9,8.8,183.1,8.8,183.3,8.8L183.3,8.8z M180.2,8.8c0.2,0,0.3,0,0.4,0.1
													c0.1,0,0.3,0.1,0.4,0.2l0.3-0.2l0.2,0.1l-0.5,2.3c-0.1,0.2-0.1,0.4-0.1,0.5c0,0.1,0,0.2,0,0.2c0,0,0.1,0.1,0.2,0.1
													c0.1,0,0.2,0,0.2-0.1c0.1-0.1,0.2-0.2,0.4-0.3l0.2,0.2c-0.2,0.2-0.4,0.4-0.6,0.5c-0.2,0.1-0.3,0.1-0.5,0.1
													c-0.2,0-0.3-0.1-0.4-0.2c-0.1-0.1-0.1-0.2-0.1-0.4c0-0.1,0-0.3,0.1-0.4l0,0c-0.2,0.3-0.5,0.6-0.7,0.8
													c-0.2,0.2-0.4,0.2-0.7,0.2c-0.3,0-0.5-0.1-0.6-0.3s-0.2-0.5-0.2-0.9c0-0.4,0.1-0.8,0.2-1.2s0.4-0.7,0.7-0.9
													C179.5,8.9,179.8,8.8,180.2,8.8L180.2,8.8z M175.5,8.8c0.2,0,0.3,0.1,0.4,0.2c0.1,0.1,0.1,0.2,0.1,0.4
													c0,0.1,0,0.3-0.1,0.4l0,0c0.2-0.3,0.5-0.6,0.7-0.7c0.2-0.2,0.4-0.2,0.7-0.2c0.2,0,0.3,0,0.5,0l-0.2,0.8h-0.4
													c0-0.1,0-0.2-0.1-0.2c0-0.1-0.1-0.1-0.1-0.1c0,0-0.1,0-0.1,0c-0.1,0-0.2,0-0.3,0.1c-0.1,0.1-0.2,0.2-0.4,0.4
													c-0.1,0.2-0.2,0.3-0.3,0.5c-0.1,0.2-0.1,0.3-0.2,0.6l-0.4,1.6h-0.6l0.5-2.3c0-0.1,0.1-0.3,0.1-0.3c0-0.1,0-0.1,0-0.2
													c0-0.1,0-0.2,0-0.2c0,0-0.1-0.1-0.2-0.1c-0.1,0-0.2,0-0.2,0.1c-0.1,0.1-0.2,0.2-0.3,0.3l-0.2-0.2
													c0.2-0.2,0.4-0.4,0.6-0.5C175.1,8.8,175.3,8.8,175.5,8.8L175.5,8.8z M172.4,8.8c0.2,0,0.3,0,0.4,0.1
													c0.1,0,0.3,0.1,0.4,0.2l0.3-0.2l0.2,0.1l-0.4,1.7c0,0.1-0.1,0.4-0.2,0.9c-0.1,0.5-0.2,0.9-0.2,1.1
													c-0.1,0.2-0.1,0.4-0.2,0.6c-0.1,0.2-0.2,0.3-0.4,0.5c-0.1,0.1-0.3,0.2-0.5,0.3c-0.2,0.1-0.5,0.1-0.7,0.1
													c-0.9,0-1.4-0.3-1.4-0.8c0-0.1,0-0.3,0.1-0.4c0.1-0.1,0.2-0.2,0.4-0.4l0.3,0.2c0,0.1-0.1,0.1-0.1,0.2
													c0,0.1-0.1,0.1-0.1,0.2c0,0.1,0,0.1,0,0.2c0,0.2,0.1,0.3,0.2,0.4s0.3,0.1,0.6,0.1c0.3,0,0.5-0.1,0.7-0.2
													c0.2-0.1,0.3-0.4,0.5-0.7c0.1-0.3,0.3-0.8,0.4-1.4l-0.1,0c-0.2,0.3-0.5,0.6-0.7,0.7c-0.2,0.2-0.4,0.2-0.7,0.2
													c-0.3,0-0.5-0.1-0.6-0.3c-0.1-0.2-0.2-0.5-0.2-0.9c0-0.4,0.1-0.8,0.2-1.2c0.2-0.4,0.4-0.7,0.7-0.9
													C171.7,8.9,172.1,8.8,172.4,8.8L172.4,8.8z M188.3,7.1h0.2l-0.6,2.6l0,0c0.2-0.3,0.5-0.5,0.7-0.7s0.4-0.2,0.6-0.2
													c0.2,0,0.4,0.1,0.5,0.2c0.1,0.1,0.2,0.3,0.2,0.5c0,0.2,0,0.4-0.1,0.7l-0.2,1c-0.1,0.3-0.1,0.5-0.1,0.6
													c0,0.1,0,0.2,0,0.2c0,0,0.1,0.1,0.2,0.1c0.1,0,0.2,0,0.2-0.1c0.1-0.1,0.2-0.2,0.4-0.3l0.2,0.2c-0.2,0.2-0.4,0.4-0.6,0.5
													c-0.2,0.1-0.3,0.1-0.5,0.1c-0.2,0-0.3-0.1-0.4-0.2c-0.1-0.1-0.1-0.3-0.1-0.4c0-0.2,0-0.4,0.1-0.7l0.2-0.6
													c0.1-0.2,0.1-0.4,0.1-0.5c0-0.1,0-0.2,0-0.3c0-0.2,0-0.3-0.1-0.4s-0.1-0.1-0.3-0.1c-0.1,0-0.2,0-0.3,0.1
													s-0.3,0.2-0.4,0.4s-0.2,0.3-0.3,0.5s-0.1,0.3-0.2,0.6l-0.3,1.6h-0.6l1-4.2c0.1-0.3,0.1-0.4,0.1-0.5c0-0.1,0-0.2-0.1-0.2
													s-0.2-0.1-0.3-0.1l0-0.2L188.3,7.1L188.3,7.1z"/>
												<g class="st24">
													<defs>
														<polygon id="SVGID_23_" points="0,191.7 216.4,191.7 216.4,-4.9 0,-4.9 0,191.7 														"/>
													</defs>
													<clipPath id="SVGID_24_">
														<use xlink:href="#SVGID_23_"  style="overflow:visible;"/>
													</clipPath>
													<path class="st25" d="M194.7,9.1c-0.3,0-0.5,0.1-0.7,0.3s-0.3,0.5-0.5,0.9c-0.1,0.4-0.2,0.7-0.2,1
														c0,0.3,0.1,0.5,0.2,0.6s0.3,0.2,0.5,0.2c0.2,0,0.5-0.1,0.6-0.3s0.3-0.5,0.4-0.9c0.1-0.4,0.2-0.7,0.2-1
														c0-0.3-0.1-0.5-0.2-0.6S194.9,9.1,194.7,9.1L194.7,9.1z M194.7,8.8c0.4,0,0.7,0.1,0.9,0.3c0.2,0.2,0.3,0.5,0.3,0.9
														c0,0.3,0,0.6-0.1,0.9c-0.1,0.3-0.2,0.6-0.4,0.8c-0.2,0.2-0.4,0.4-0.6,0.5s-0.5,0.2-0.8,0.2c-0.4,0-0.7-0.1-0.9-0.3
														c-0.2-0.2-0.3-0.5-0.3-0.9c0-0.2,0-0.4,0.1-0.7c0.1-0.4,0.2-0.7,0.4-0.9c0.2-0.3,0.4-0.5,0.7-0.6
														C194.1,8.9,194.4,8.8,194.7,8.8L194.7,8.8z M199.8,7.1c0.2,0,0.4,0,0.6,0.1l-0.1,0.6H200c0-0.1-0.1-0.2-0.1-0.3
														c-0.1-0.1-0.1-0.1-0.2-0.1c-0.1,0-0.3,0-0.4,0.1c-0.1,0.1-0.2,0.2-0.2,0.3c-0.1,0.2-0.1,0.4-0.2,0.6l-0.1,0.4h1
														l-0.1,0.4h-1l-0.7,3.2c-0.1,0.5-0.3,0.9-0.5,1.2c-0.2,0.3-0.5,0.4-0.9,0.4c-0.1,0-0.2,0-0.2,0l0.1-0.3c0,0,0.1,0,0.2,0
														c0.1,0,0.2,0,0.3-0.1c0.1-0.1,0.2-0.2,0.2-0.3c0.1-0.1,0.1-0.3,0.2-0.6l0.8-3.5h-0.6l0.1-0.3c0.2,0,0.3,0,0.4,0
														c0.1,0,0.1,0,0.2-0.1c0,0,0.1-0.1,0.1-0.1c0-0.1,0.1-0.2,0.1-0.3c0.1-0.4,0.3-0.8,0.6-1C199.1,7.2,199.4,7.1,199.8,7.1
														L199.8,7.1z"/>
													<g class="st26">
														<defs>
															<polygon id="SVGID_25_" points="0,191.7 216.4,191.7 216.4,-4.9 0,-4.9 0,191.7 															"/>
														</defs>
														<clipPath id="SVGID_26_">
															<use xlink:href="#SVGID_25_"  style="overflow:visible;"/>
														</clipPath>
														<path class="st27" d="M165.5,17.6c0.1,0,0.2,0,0.3,0c0,0,0.1,0.1,0.1,0.1s0.1,0.1,0.1,0.2c0,0.1,0.1,0.2,0.1,0.3
															c0,0.1,0.1,0.2,0.1,0.4c0.1,0.3,0.1,0.7,0.2,1c0.1,0.4,0.1,0.7,0.1,1c0.2-0.3,0.4-0.7,0.6-1s0.3-0.6,0.4-0.9
															c0.1-0.2,0.1-0.4,0.1-0.6c0-0.1,0-0.2-0.1-0.2c0,0-0.1-0.1-0.3-0.1l0-0.2h1l0.1,0.2c-0.2,0.5-0.4,1.1-0.8,1.6
															c-0.3,0.6-0.7,1.1-1.1,1.7c-0.4,0.5-0.7,0.9-1,1.2c-0.2,0.2-0.4,0.3-0.5,0.4c-0.1,0.1-0.3,0.1-0.4,0.1
															c-0.1,0-0.1,0-0.2,0c-0.1,0-0.1,0-0.2,0l0.2-0.7h0.3c0,0.2,0.1,0.2,0.2,0.2c0.1,0,0.3-0.1,0.5-0.3s0.4-0.4,0.7-0.8
															c-0.1-0.4-0.2-1-0.3-1.6c-0.1-0.7-0.2-1.1-0.3-1.2c-0.1-0.2-0.1-0.3-0.2-0.4c0,0-0.1,0-0.1,0c-0.1,0-0.2,0-0.2,0.1
															c-0.1,0.1-0.2,0.2-0.3,0.3l-0.2-0.2c0.2-0.3,0.3-0.4,0.5-0.5C165.1,17.7,165.3,17.6,165.5,17.6L165.5,17.6z"/>
														<g class="st28">
															<defs>
																<polygon id="SVGID_27_" points="0,191.7 216.4,191.7 216.4,-4.9 0,-4.9 0,191.7 																"/>
															</defs>
															<clipPath id="SVGID_28_">
																<use xlink:href="#SVGID_27_"  style="overflow:visible;"/>
															</clipPath>
															<path class="st29" d="M171.3,19.6h4.6v0.5h-4.6V19.6L171.3,19.6z M171.3,18h4.6v0.5h-4.6V18L171.3,18z"/>
															<g class="st30">
																<defs>
																	<polygon id="SVGID_29_" points="0,191.7 216.4,191.7 216.4,-4.9 0,-4.9 0,191.7 																	"/>
																</defs>
																<clipPath id="SVGID_30_">
																	<use xlink:href="#SVGID_29_"  style="overflow:visible;"/>
																</clipPath>
																<path class="st31" d="M182,15.9c0.2,0,0.4,0,0.6,0.1l-0.1,0.6h-0.3c0-0.1-0.1-0.2-0.1-0.3s-0.1-0.1-0.2-0.1
																	c-0.1,0-0.3,0-0.4,0.1c-0.1,0.1-0.2,0.2-0.2,0.3c-0.1,0.2-0.1,0.4-0.2,0.6l-0.1,0.4h1l-0.1,0.4h-1l-0.7,3.2
																	c-0.1,0.5-0.3,0.9-0.5,1.2s-0.5,0.4-0.9,0.4c-0.1,0-0.2,0-0.2,0l0.1-0.3c0,0,0.1,0,0.2,0c0.1,0,0.2,0,0.3-0.1
																	c0.1-0.1,0.2-0.2,0.2-0.3c0.1-0.1,0.1-0.3,0.2-0.6l0.8-3.5h-0.6l0.1-0.3c0.2,0,0.3,0,0.4,0c0.1,0,0.1,0,0.2-0.1
																	c0,0,0.1-0.1,0.1-0.1c0-0.1,0.1-0.2,0.1-0.3c0.1-0.4,0.3-0.8,0.6-1S181.6,15.9,182,15.9L182,15.9z"/>
																<g class="st32">
																	<defs>
																		<polygon id="SVGID_31_" points="0,191.7 216.4,191.7 216.4,-4.9 0,-4.9 0,191.7 																		"/>
																	</defs>
																	<clipPath id="SVGID_32_">
																		<use xlink:href="#SVGID_31_"  style="overflow:visible;"/>
																	</clipPath>
																	<path class="st33" d="M185.8,15.9l0.1,0.3c-0.6,0.2-1,0.6-1.3,1.1c-0.3,0.6-0.4,1.2-0.4,2.1c0,0.9,0.1,1.6,0.4,2.1
																		c0.3,0.6,0.7,0.9,1.3,1.1l-0.1,0.3c-0.7-0.2-1.3-0.6-1.7-1.2s-0.6-1.4-0.6-2.3c0-0.9,0.2-1.6,0.6-2.3
																		S185.1,16.1,185.8,15.9L185.8,15.9z"/>
																	<g class="st34">
																		<defs>
																			<polygon id="SVGID_33_" points="0,191.7 216.4,191.7 216.4,-4.9 0,-4.9 0,191.7 																			"/>
																		</defs>
																		<clipPath id="SVGID_34_">
																			<use xlink:href="#SVGID_33_"  style="overflow:visible;"/>
																		</clipPath>
																		<path class="st35" d="M187.5,17.6c0.1,0,0.1,0,0.2,0c0.1,0,0.1,0,0.2,0.1c0,0,0.1,0.1,0.1,0.1
																			c0,0.1,0.1,0.1,0.1,0.2c0,0.1,0.1,0.2,0.1,0.4c0,0.1,0.1,0.3,0.1,0.4h0c0.2-0.3,0.4-0.6,0.5-0.7s0.2-0.3,0.3-0.3
																			c0.1-0.1,0.2-0.1,0.2-0.2c0.1,0,0.2,0,0.3,0c0.1,0,0.2,0,0.3,0l-0.1,0.7h-0.3c0-0.1-0.1-0.2-0.1-0.2
																			c0,0,0,0-0.1,0c0,0-0.1,0-0.1,0c0,0-0.1,0.1-0.2,0.1c-0.1,0.1-0.1,0.2-0.2,0.3c-0.1,0.1-0.2,0.2-0.3,0.3l-0.3,0.3
																			c0,0.2,0.1,0.4,0.1,0.6c0,0.2,0.1,0.3,0.1,0.4s0.1,0.2,0.1,0.3c0,0.1,0,0.1,0.1,0.1c0,0,0.1,0.1,0.1,0.1
																			s0.1,0,0.1,0c0.1,0,0.1,0,0.2-0.1c0.1-0.1,0.2-0.2,0.3-0.4l0.2,0.2c-0.2,0.3-0.3,0.4-0.5,0.5s-0.3,0.2-0.5,0.2
																			c-0.1,0-0.2,0-0.3-0.1s-0.1-0.1-0.2-0.2s-0.1-0.2-0.1-0.4c-0.1-0.3-0.1-0.6-0.1-0.7h0c-0.3,0.4-0.5,0.6-0.6,0.8
																			s-0.2,0.3-0.3,0.4c-0.1,0.1-0.2,0.1-0.2,0.2c-0.1,0-0.2,0-0.3,0c-0.1,0-0.2,0-0.3,0l0.1-0.7h0.3
																			c0,0.1,0.1,0.2,0.1,0.2c0,0,0.1,0,0.1,0c0,0,0.1-0.1,0.2-0.1c0.1-0.1,0.2-0.2,0.3-0.3c0.1-0.2,0.3-0.4,0.5-0.7
																			c0-0.2-0.1-0.4-0.1-0.6c0-0.2-0.1-0.3-0.1-0.5c0-0.2-0.1-0.3-0.1-0.3c0,0-0.1-0.1-0.1-0.1c0,0-0.1,0-0.1,0
																			c-0.1,0-0.1,0-0.1,0s-0.1,0.1-0.1,0.1c0,0.1-0.1,0.1-0.2,0.3l-0.2-0.2c0.2-0.2,0.3-0.4,0.4-0.5
																			C187.2,17.7,187.3,17.6,187.5,17.6L187.5,17.6z"/>
																		<g class="st36">
																			<defs>
																				<polygon id="SVGID_35_" points="0,191.7 216.4,191.7 216.4,-4.9 0,-4.9 0,191.7 																				"/>
																			</defs>
																			<clipPath id="SVGID_36_">
																				<use xlink:href="#SVGID_35_"  style="overflow:visible;"/>
																			</clipPath>
																			<path class="st37" d="M190.6,15.9c0.7,0.2,1.3,0.6,1.7,1.2s0.6,1.4,0.6,2.3c0,0.9-0.2,1.7-0.6,2.3
																				c-0.4,0.6-0.9,1-1.7,1.2l-0.1-0.3c0.6-0.2,1-0.6,1.3-1.1s0.4-1.3,0.4-2.1c0-0.8-0.1-1.5-0.4-2.1
																				c-0.3-0.6-0.7-0.9-1.3-1.1L190.6,15.9z"/>
																		</g>
																	</g>
																</g>
															</g>
														</g>
													</g>
												</g>
											</g>
										</g>
									</g>
								</g>
							</g>
						</g>
					</g>
				</g>
			</g>
		</g>
	</g>
</g>
</svg>
