<?xml version="1.0" encoding="utf-8"?>
<!-- Generator: Adobe Illustrator 23.0.2, SVG Export Plug-In . SVG Version: 6.00 Build 0)  -->
<svg version="1.0" id="Layer_1" xmlns="http://www.w3.org/2000/svg" xmlns:xlink="http://www.w3.org/1999/xlink" x="0px" y="0px"
	 viewBox="0 0 200 200" style="enable-background:new 0 0 200 200;" xml:space="preserve">
<style type="text/css">
	.st0{fill:none;stroke:#000000;stroke-width:1.2157;stroke-linejoin:round;stroke-miterlimit:10;}
	.st1{clip-path:url(#SVGID_2_);fill:none;stroke:#000000;stroke-width:1.2157;stroke-miterlimit:8;}
	.st2{clip-path:url(#SVGID_2_);}
	.st3{clip-path:url(#SVGID_4_);fill:none;stroke:#000000;stroke-width:1.2157;stroke-miterlimit:8;}
	.st4{clip-path:url(#SVGID_4_);}
	.st5{clip-path:url(#SVGID_6_);fill-rule:evenodd;clip-rule:evenodd;}
	.st6{clip-path:url(#SVGID_6_);}
	.st7{clip-path:url(#SVGID_8_);fill-rule:evenodd;clip-rule:evenodd;}
	.st8{clip-path:url(#SVGID_8_);}
	.st9{clip-path:url(#SVGID_10_);fill-rule:evenodd;clip-rule:evenodd;}
	.st10{clip-path:url(#SVGID_10_);}
	.st11{clip-path:url(#SVGID_12_);fill-rule:evenodd;clip-rule:evenodd;}
	.st12{clip-path:url(#SVGID_12_);}
	.st13{clip-path:url(#SVGID_14_);fill-rule:evenodd;clip-rule:evenodd;}
	.st14{clip-path:url(#SVGID_14_);}
	.st15{clip-path:url(#SVGID_16_);fill-rule:evenodd;clip-rule:evenodd;}
	.st16{clip-path:url(#SVGID_16_);}
	.st17{clip-path:url(#SVGID_18_);fill-rule:evenodd;clip-rule:evenodd;}
	.st18{clip-path:url(#SVGID_18_);}
	.st19{clip-path:url(#SVGID_20_);fill:none;stroke:#000000;stroke-width:0.9118;stroke-miterlimit:8;}
	.st20{clip-path:url(#SVGID_20_);}
	.st21{clip-path:url(#SVGID_22_);fill:none;stroke:#000000;stroke-width:0.9118;stroke-miterlimit:8;}
	.st22{clip-path:url(#SVGID_22_);}
	.st23{clip-path:url(#SVGID_24_);fill-rule:evenodd;clip-rule:evenodd;}
	.st24{clip-path:url(#SVGID_24_);}
	.st25{clip-path:url(#SVGID_26_);fill-rule:evenodd;clip-rule:evenodd;}
	.st26{clip-path:url(#SVGID_26_);}
	.st27{clip-path:url(#SVGID_28_);fill-rule:evenodd;clip-rule:evenodd;}
	.st28{clip-path:url(#SVGID_28_);}
	.st29{clip-path:url(#SVGID_30_);fill-rule:evenodd;clip-rule:evenodd;}
	.st30{clip-path:url(#SVGID_30_);}
	.st31{clip-path:url(#SVGID_32_);fill-rule:evenodd;clip-rule:evenodd;}
	.st32{fill-rule:evenodd;clip-rule:evenodd;fill:#006838;}
	.st33{fill-rule:evenodd;clip-rule:evenodd;fill:#2B3990;}
	.st34{fill:none;stroke:#006838;stroke-width:0.8384;stroke-miterlimit:10;}
	.st35{fill:#006838;}
	.st36{fill:none;stroke:#2B3990;stroke-width:0.8384;stroke-miterlimit:10;}
	.st37{fill:#2B3990;}
</style>
<g>
	<polygon class="st0" points="35.3,169.5 148.5,33.6 148.5,169.5 35.3,169.5 	"/>
	<g>
		<defs>
			<polygon id="SVGID_1_" points="18.5,187.1 166.3,187.1 166.3,12.6 18.5,12.6 18.5,187.1 			"/>
		</defs>
		<clipPath id="SVGID_2_">
			<use xlink:href="#SVGID_1_"  style="overflow:visible;"/>
		</clipPath>
		<line class="st1" x1="140" y1="158.8" x2="148.5" y2="158.8"/>
		<g class="st2">
			<defs>
				<polygon id="SVGID_3_" points="18.5,187.1 166.3,187.1 166.3,12.6 18.5,12.6 18.5,187.1 				"/>
			</defs>
			<clipPath id="SVGID_4_">
				<use xlink:href="#SVGID_3_"  style="overflow:visible;"/>
			</clipPath>
			<line class="st3" x1="140.6" y1="158.8" x2="140.6" y2="169.4"/>
			<g class="st4">
				<defs>
					<polygon id="SVGID_5_" points="18.5,187.1 166.3,187.1 166.3,12.6 18.5,12.6 18.5,187.1 					"/>
				</defs>
				<clipPath id="SVGID_6_">
					<use xlink:href="#SVGID_5_"  style="overflow:visible;"/>
				</clipPath>
				<path class="st5" d="M27.5,168.5l-2.5,4.5h2.8l-0.1-2.3c0-0.3,0-0.7,0-1.2C27.6,169,27.6,168.7,27.5,168.5L27.5,168.5z
					 M27.6,167h1.1l0.5,7.9c0,0.4,0.1,0.7,0.1,0.9c0.1,0.2,0.1,0.4,0.3,0.5c0.1,0.1,0.3,0.2,0.5,0.2l-0.1,0.3h-3l0.1-0.3
					c0.3,0,0.5-0.1,0.6-0.3c0.1-0.2,0.2-0.5,0.2-1c0-0.2,0-0.4,0-0.6l0-0.9h-3.1l-0.4,0.7c-0.2,0.3-0.3,0.6-0.4,0.8
					s-0.1,0.4-0.1,0.6c0,0.4,0.2,0.6,0.7,0.7l-0.1,0.3h-2.9l0.1-0.3c0.1,0,0.3-0.1,0.4-0.2c0.1-0.1,0.3-0.2,0.4-0.4
					c0.1-0.2,0.4-0.5,0.6-1L27.6,167z"/>
				<g class="st6">
					<defs>
						<polygon id="SVGID_7_" points="18.5,187.1 166.3,187.1 166.3,12.6 18.5,12.6 18.5,187.1 						"/>
					</defs>
					<clipPath id="SVGID_8_">
						<use xlink:href="#SVGID_7_"  style="overflow:visible;"/>
					</clipPath>
					<path class="st7" d="M146.9,23.1l-0.9,4.1c0.3,0,0.6,0,1.1,0c0.7,0,1.3-0.1,1.6-0.2s0.7-0.5,0.9-0.9c0.3-0.4,0.4-0.9,0.4-1.5
						c0-0.5-0.2-0.8-0.5-1.1c-0.3-0.2-0.8-0.4-1.4-0.4H146.9z M149,18.7c-0.4,0-0.8,0-1.2,0l-0.8,3.7h1c0.6,0,1,0,1.3-0.1
						c0.3-0.1,0.6-0.3,0.9-0.5c0.3-0.2,0.4-0.5,0.5-0.8s0.2-0.6,0.2-1c0-0.2,0-0.4-0.1-0.6c-0.1-0.2-0.2-0.3-0.4-0.5
						s-0.4-0.2-0.6-0.3C149.7,18.7,149.4,18.7,149,18.7L149,18.7z M145.8,18.1h3.5c0.7,0,1.3,0.1,1.7,0.2c0.4,0.1,0.7,0.4,0.9,0.7
						s0.3,0.7,0.3,1.1c0,0.6-0.2,1.2-0.6,1.6c-0.4,0.5-0.9,0.8-1.7,1.1l0,0.1c0.4,0.2,0.8,0.4,1,0.8s0.4,0.7,0.4,1.1
						c0,0.6-0.1,1.2-0.4,1.6s-0.7,0.8-1.3,1.1c-0.6,0.3-1.4,0.4-2.5,0.4H144l0.1-0.3c0.2,0,0.3-0.1,0.4-0.1c0.1-0.1,0.2-0.2,0.2-0.3
						s0.1-0.3,0.2-0.4c0.1-0.2,0.1-0.5,0.2-1l1.2-5.5c0.1-0.5,0.2-0.9,0.2-1.1c0-0.2-0.1-0.4-0.2-0.5c-0.1-0.1-0.3-0.1-0.5-0.2
						L145.8,18.1z"/>
					<g class="st8">
						<defs>
							<polygon id="SVGID_9_" points="18.5,187.1 166.3,187.1 166.3,12.6 18.5,12.6 18.5,187.1 							"/>
						</defs>
						<clipPath id="SVGID_10_">
							<use xlink:href="#SVGID_9_"  style="overflow:visible;"/>
						</clipPath>
						<path class="st9" d="M156.7,171.8c0.4,0,0.8,0,1.2,0.1c0.4,0.1,0.8,0.1,1.2,0.3l-0.4,1.9H158c0-0.6-0.2-1-0.4-1.3
							s-0.6-0.4-1-0.4c-0.7,0-1.3,0.3-1.8,1c-0.6,0.7-1,1.5-1.3,2.6s-0.5,2.1-0.5,3c0,0.7,0.1,1.3,0.4,1.6c0.3,0.3,0.7,0.5,1.2,0.5
							c0.4,0,0.7-0.1,0.9-0.2c0.3-0.1,0.5-0.3,0.7-0.5c0.2-0.3,0.5-0.6,0.7-1.1h0.7l-0.4,2c-0.9,0.2-1.8,0.4-2.8,0.4
							c-0.9,0-1.6-0.3-2-0.8c-0.5-0.5-0.7-1.3-0.7-2.3c0-0.7,0.1-1.5,0.4-2.4c0.2-0.9,0.6-1.7,1.1-2.4s1-1.2,1.6-1.6
							S155.9,171.8,156.7,171.8L156.7,171.8z"/>
						<g class="st10">
							<defs>
								<polygon id="SVGID_11_" points="18.5,187.1 166.3,187.1 166.3,12.6 18.5,12.6 18.5,187.1 								"/>
							</defs>
							<clipPath id="SVGID_12_">
								<use xlink:href="#SVGID_11_"  style="overflow:visible;"/>
							</clipPath>
							<path class="st11" d="M54.7,158.6l-2,3.5h2.2l-0.1-1.8c0-0.2,0-0.5,0-0.9S54.8,158.8,54.7,158.6L54.7,158.6z M54.8,157.4h0.8
								l0.4,6.2c0,0.3,0.1,0.5,0.1,0.7s0.1,0.3,0.2,0.4c0.1,0.1,0.2,0.1,0.4,0.2l-0.1,0.3h-2.3l0.1-0.3c0.2,0,0.4-0.1,0.5-0.3
								c0.1-0.2,0.2-0.4,0.2-0.8c0-0.1,0-0.3,0-0.5l0-0.7h-2.4l-0.3,0.5c-0.1,0.3-0.2,0.5-0.3,0.7c-0.1,0.2-0.1,0.3-0.1,0.5
								c0,0.3,0.2,0.5,0.6,0.6l-0.1,0.3H50l0.1-0.3c0.1,0,0.2-0.1,0.3-0.1c0.1-0.1,0.2-0.2,0.3-0.3c0.1-0.2,0.3-0.4,0.5-0.8
								L54.8,157.4z"/>
							<g class="st12">
								<defs>
									<polygon id="SVGID_13_" points="18.5,187.1 166.3,187.1 166.3,12.6 18.5,12.6 18.5,187.1 									"/>
								</defs>
								<clipPath id="SVGID_14_">
									<use xlink:href="#SVGID_13_"  style="overflow:visible;"/>
								</clipPath>
								<polygon class="st13" points="54.8,155.2 55.5,155.2 56.8,156.6 56.5,156.9 55.2,155.9 55.1,155.9 53.8,156.9 53.5,156.6 
									54.8,155.2 								"/>
								<g class="st14">
									<defs>
										<polygon id="SVGID_15_" points="18.5,187.1 166.3,187.1 166.3,12.6 18.5,12.6 18.5,187.1 										"/>
									</defs>
									<clipPath id="SVGID_16_">
										<use xlink:href="#SVGID_15_"  style="overflow:visible;"/>
									</clipPath>
									<path class="st15" d="M140.8,54.6l-0.7,3.2c0.2,0,0.5,0,0.8,0c0.6,0,1-0.1,1.3-0.2c0.3-0.1,0.5-0.4,0.7-0.7
										c0.2-0.3,0.3-0.7,0.3-1.2c0-0.4-0.1-0.7-0.4-0.8s-0.6-0.3-1.1-0.3H140.8z M142.4,51.2c-0.3,0-0.6,0-0.9,0l-0.6,2.9h0.8
										c0.4,0,0.8,0,1-0.1c0.3-0.1,0.5-0.2,0.7-0.4c0.2-0.2,0.3-0.4,0.4-0.6c0.1-0.2,0.1-0.5,0.1-0.7c0-0.2,0-0.3-0.1-0.4
										c-0.1-0.1-0.2-0.3-0.3-0.4c-0.1-0.1-0.3-0.2-0.5-0.2C143,51.2,142.7,51.2,142.4,51.2L142.4,51.2z M139.9,50.7h2.7
										c0.6,0,1,0.1,1.3,0.2c0.3,0.1,0.6,0.3,0.7,0.5c0.2,0.2,0.2,0.5,0.2,0.8c0,0.5-0.1,0.9-0.4,1.3c-0.3,0.4-0.7,0.6-1.3,0.8
										l0,0.1c0.3,0.1,0.6,0.3,0.8,0.6c0.2,0.3,0.3,0.5,0.3,0.9c0,0.5-0.1,0.9-0.3,1.3c-0.2,0.3-0.6,0.6-1,0.8
										c-0.4,0.2-1.1,0.3-2,0.3h-2.5l0.1-0.3c0.1,0,0.2-0.1,0.3-0.1c0.1,0,0.1-0.1,0.2-0.2c0-0.1,0.1-0.2,0.1-0.3s0.1-0.4,0.2-0.7
										l0.9-4.3c0.1-0.4,0.1-0.7,0.1-0.9c0-0.2,0-0.3-0.1-0.4c-0.1-0.1-0.2-0.1-0.4-0.1L139.9,50.7z"/>
									<g class="st16">
										<defs>
											<polygon id="SVGID_17_" points="18.5,187.1 166.3,187.1 166.3,12.6 18.5,12.6 18.5,187.1 											"/>
										</defs>
										<clipPath id="SVGID_18_">
											<use xlink:href="#SVGID_17_"  style="overflow:visible;"/>
										</clipPath>
										<polygon class="st17" points="142.1,48.5 142.9,48.5 144.8,49.9 144.6,50.2 142.6,49.2 142.5,49.2 140.4,50.2 140.2,49.9 
											142.1,48.5 										"/>
										<g class="st18">
											<defs>
												<polygon id="SVGID_19_" points="18.5,187.1 166.3,187.1 166.3,12.6 18.5,12.6 18.5,187.1 												"/>
											</defs>
											<clipPath id="SVGID_20_">
												<use xlink:href="#SVGID_19_"  style="overflow:visible;"/>
											</clipPath>
											<path class="st19" d="M148.3,58.7c-5.7,5.2-14,4.7-18.4-1.3c-0.1-0.1-0.1-0.2-0.2-0.3"/>
											<g class="st20">
												<defs>
													<polygon id="SVGID_21_" points="18.5,187.1 166.3,187.1 166.3,12.6 18.5,12.6 18.5,187.1 													"/>
												</defs>
												<clipPath id="SVGID_22_">
													<use xlink:href="#SVGID_21_"  style="overflow:visible;"/>
												</clipPath>
												<path class="st21" d="M51.5,150.9c7.7-1.8,14.9,2.6,16.1,9.7c0.4,2.7,0,5.5-1.4,8.1"/>
												<g class="st22">
													<defs>
														<polygon id="SVGID_23_" points="18.5,187.1 166.3,187.1 166.3,12.6 18.5,12.6 18.5,187.1 														"/>
													</defs>
													<clipPath id="SVGID_24_">
														<use xlink:href="#SVGID_23_"  style="overflow:visible;"/>
													</clipPath>
													<path class="st23" d="M72.9,105c-0.1,0.1-0.2,0.3-0.2,0.5c0,0.2,0,0.5,0.1,0.9c0.1,0.3,0.2,0.7,0.3,0.9
														c0.1,0.3,0.3,0.5,0.5,0.8l0.1,0.2c0.1,0.2,0.2,0.3,0.3,0.3c0.1,0.1,0.1,0.1,0.2,0.2c0.2,0.2,0.4,0.3,0.6,0.3
														c0.2,0,0.4-0.1,0.6-0.4c0.1-0.1,0.2-0.3,0.2-0.5c0-0.2,0.1-0.4,0-0.6c0-0.2-0.1-0.4-0.1-0.6c-0.1-0.2-0.2-0.4-0.3-0.7
														c-0.1-0.2-0.3-0.5-0.5-0.7c-0.2-0.2-0.4-0.4-0.6-0.6c-0.3-0.2-0.6-0.4-0.8-0.4C73.2,104.8,73,104.8,72.9,105L72.9,105z
														 M76.4,100.5c-0.2,0.3-0.3,0.7-0.3,1.1c0.1,0.4,0.3,0.9,0.6,1.4s0.7,0.9,1,1.2c0.3,0.3,0.6,0.4,0.9,0.4
														c0.3,0,0.5-0.1,0.7-0.4c0.2-0.3,0.3-0.6,0.2-1.1c-0.1-0.4-0.3-0.9-0.6-1.4c-0.3-0.5-0.7-0.9-1-1.2
														c-0.3-0.3-0.6-0.4-0.8-0.4C76.9,100.1,76.6,100.2,76.4,100.5L76.4,100.5z M98.5,74c-0.2,0.3-0.3,0.7-0.3,1.2
														c0.1,0.5,0.3,1,0.7,1.6c0.3-0.4,0.6-0.8,0.8-1.1c0.2-0.3,0.2-0.7,0.2-0.9c0-0.3-0.2-0.5-0.4-0.7
														c-0.2-0.1-0.3-0.2-0.5-0.2C98.8,73.8,98.7,73.9,98.5,74L98.5,74z M83.2,92.4c-0.2,0.3-0.3,0.7-0.3,1.2
														c0.1,0.5,0.3,1,0.7,1.6c0.3-0.4,0.6-0.8,0.8-1.1c0.2-0.3,0.2-0.7,0.2-0.9s-0.2-0.5-0.4-0.7c-0.2-0.1-0.3-0.2-0.5-0.2
														C83.5,92.1,83.3,92.2,83.2,92.4L83.2,92.4z M94.5,78.1c0.2-0.3,0.4-0.5,0.6-0.7c0.2-0.2,0.4-0.4,0.7-0.5l0.7,0.9
														l-0.3,0.3c-0.3-0.2-0.5-0.3-0.8-0.2c-0.2,0-0.5,0.2-0.7,0.5c-0.2,0.2-0.3,0.5-0.3,0.7c0,0.2,0.1,0.4,0.3,0.6
														c0.1,0.1,0.2,0.1,0.3,0.2c0.1,0,0.3,0,0.4,0c0.2,0,0.4-0.1,0.8-0.2c0.3-0.1,0.5-0.1,0.7-0.2c0.2,0,0.3,0,0.5,0
														c0.1,0,0.3,0,0.4,0.1c0.1,0.1,0.3,0.1,0.4,0.3c0.3,0.2,0.4,0.5,0.5,0.7c0.1,0.3,0,0.6-0.1,0.9
														c-0.1,0.3-0.3,0.6-0.5,0.9c-0.2,0.2-0.4,0.5-0.6,0.6c-0.2,0.2-0.5,0.4-0.8,0.6l-0.8-1l0.3-0.3c0.3,0.2,0.5,0.3,0.8,0.3
														c0.3,0,0.5-0.2,0.8-0.5c0.2-0.3,0.3-0.5,0.3-0.8c0-0.3-0.1-0.5-0.3-0.7c-0.1-0.1-0.3-0.2-0.4-0.2c-0.1,0-0.3,0-0.4,0
														s-0.4,0.1-0.7,0.2c-0.3,0.1-0.6,0.2-0.8,0.2c-0.2,0-0.4,0-0.6,0c-0.2,0-0.3-0.1-0.5-0.3c-0.2-0.2-0.4-0.4-0.4-0.7
														c-0.1-0.3-0.1-0.5,0-0.8C94.1,78.7,94.3,78.4,94.5,78.1L94.5,78.1z M76.2,100.1c0.4-0.5,0.8-0.7,1.2-0.7
														c0.4,0,0.9,0.1,1.4,0.5c0.3,0.3,0.6,0.6,0.9,1.1c0.3,0.4,0.5,0.8,0.5,1.3c0.1,0.4,0.1,0.8,0,1.2
														c-0.1,0.4-0.3,0.8-0.6,1.1c-0.4,0.4-0.8,0.7-1.2,0.7c-0.4,0-0.9-0.1-1.4-0.5c-0.2-0.2-0.5-0.4-0.7-0.8
														c-0.3-0.4-0.6-0.9-0.7-1.3c-0.1-0.5-0.1-0.9,0-1.3C75.6,100.9,75.8,100.5,76.2,100.1L76.2,100.1z M66.9,111.2
														c0.1-0.1,0.2-0.2,0.3-0.3c0.1,0,0.2-0.1,0.3-0.1c0.1,0,0.2,0,0.3,0c0.1,0,0.3,0.1,0.4,0.1c0.1,0.1,0.3,0.2,0.6,0.3
														c0.4,0.2,0.9,0.5,1.3,0.8c0.5,0.3,0.9,0.5,1.3,0.8c-0.2-0.6-0.4-1.2-0.6-1.7c-0.2-0.5-0.4-0.9-0.6-1.2
														c-0.2-0.3-0.4-0.6-0.6-0.7c-0.1-0.1-0.2-0.2-0.3-0.1c-0.1,0-0.2,0.1-0.3,0.2l-0.2-0.2l0.9-1.1l0.3,0.1
														c0.4,0.7,0.8,1.5,1.2,2.5c0.4,0.9,0.7,1.9,0.9,2.9c0.2,1,0.4,1.7,0.4,2.2c0,0.4,0,0.7-0.1,0.9
														c-0.1,0.2-0.2,0.4-0.3,0.6c0,0.1-0.1,0.1-0.2,0.2c-0.1,0.1-0.1,0.1-0.2,0.1l-0.7-0.9l0.3-0.3c0.2,0.2,0.3,0.2,0.4,0
														c0.1-0.2,0.2-0.4,0.2-0.8c0-0.4-0.1-0.9-0.3-1.5c-0.6-0.3-1.3-0.7-2.1-1.2c-0.9-0.5-1.4-0.8-1.6-0.9
														c-0.3-0.1-0.5-0.2-0.6-0.2c-0.1,0-0.1,0-0.2,0.1c-0.1,0.1-0.1,0.2-0.1,0.3c0,0.1,0.1,0.3,0.1,0.6l-0.4,0.1
														c-0.1-0.4-0.2-0.8-0.2-1.1S66.7,111.4,66.9,111.2L66.9,111.2z M98.3,73.6c0.3-0.3,0.6-0.5,0.9-0.6
														c0.3-0.1,0.6,0,0.9,0.3c0.5,0.4,0.7,0.9,0.5,1.6s-0.6,1.4-1.3,2.3c0.1,0.2,0.3,0.3,0.5,0.5c0.3,0.2,0.6,0.4,0.8,0.4
														c0.2,0,0.5-0.1,0.7-0.4c0.2-0.3,0.4-0.5,0.4-0.8c0.1-0.3,0.1-0.7,0-1.1l0.5,0c0.1,0.5,0.1,1,0,1.4
														c-0.1,0.4-0.3,0.8-0.6,1.2c-0.3,0.4-0.7,0.6-1.2,0.6c-0.4,0-0.9-0.2-1.3-0.5c-0.3-0.3-0.6-0.6-0.8-1
														c-0.3-0.4-0.4-0.8-0.5-1.3c-0.1-0.5-0.1-0.9,0-1.3C97.9,74.3,98.1,74,98.3,73.6L98.3,73.6z M89.5,84.1
														c0.2-0.2,0.3-0.3,0.5-0.3c0.2,0,0.4,0.1,0.6,0.3c0.2,0.2,0.5,0.5,0.7,0.8l0.6,0.8c0.1,0.2,0.3,0.4,0.3,0.5
														c0.1,0.1,0.2,0.2,0.2,0.3c0.1,0.1,0.1,0.1,0.2,0.2c0.2,0.2,0.4,0.2,0.5,0.3c0.1,0,0.3-0.1,0.4-0.2
														c0.1-0.1,0.2-0.3,0.2-0.5c0-0.2,0-0.5-0.1-0.8c-0.1-0.3-0.1-0.6-0.2-0.8c-0.1-0.2-0.3-0.5-0.5-0.8l-1.5-1.9l0.6-0.7
														l2.2,2.9c0.2,0.3,0.4,0.5,0.5,0.6c0.1,0.1,0.2,0.1,0.3,0.2c0.1,0,0.2,0,0.2-0.1c0.1-0.1,0.1-0.2,0.1-0.4s0-0.4-0.1-0.7
														l0.4,0c0.1,0.5,0.1,0.9,0,1.1c0,0.3-0.1,0.5-0.3,0.7c-0.1,0.2-0.3,0.3-0.5,0.3c-0.2,0-0.4-0.1-0.6-0.2
														c-0.2-0.1-0.3-0.3-0.4-0.5l-0.1,0c0.2,0.6,0.2,1.1,0.2,1.5c0,0.4-0.1,0.7-0.4,1c-0.2,0.3-0.5,0.4-0.7,0.4
														c-0.3,0-0.5-0.1-0.8-0.3c-0.2-0.1-0.4-0.4-0.7-0.8l-0.9-1.2c-0.2-0.3-0.4-0.6-0.6-0.7c-0.1-0.1-0.2-0.1-0.3-0.2
														c-0.1,0-0.2,0-0.2,0.1c-0.1,0.1-0.1,0.2-0.1,0.4c0,0.2,0,0.4,0.1,0.7l-0.4,0c0-0.4-0.1-0.8,0-1s0-0.4,0.1-0.5
														C89.3,84.4,89.4,84.3,89.5,84.1L89.5,84.1z M85.3,89.2c0.1-0.2,0.3-0.3,0.5-0.3c0.2,0,0.4,0.1,0.6,0.2
														c0.1,0.1,0.3,0.3,0.4,0.5l0.1,0c-0.2-0.6-0.2-1.1-0.2-1.5c0-0.4,0.1-0.7,0.4-1c0.2-0.3,0.5-0.4,0.7-0.4
														c0.3,0,0.5,0.1,0.8,0.3c0.2,0.1,0.4,0.4,0.7,0.8l0.9,1.2c0.2,0.3,0.4,0.6,0.6,0.7c0.1,0.1,0.2,0.1,0.3,0.2
														c0.1,0,0.2,0,0.2-0.1c0.1-0.1,0.1-0.2,0.1-0.4s0-0.4-0.1-0.7l0.4,0c0.1,0.5,0.1,0.8,0,1.1c0,0.3-0.1,0.5-0.3,0.8
														c-0.2,0.2-0.3,0.3-0.6,0.3s-0.4-0.1-0.6-0.3c-0.2-0.2-0.4-0.4-0.7-0.8l-0.6-0.8c-0.2-0.3-0.4-0.5-0.5-0.6
														c-0.1-0.1-0.2-0.2-0.3-0.3c-0.2-0.2-0.4-0.2-0.5-0.3c-0.1,0-0.3,0.1-0.4,0.2c-0.1,0.1-0.2,0.3-0.2,0.5
														c0,0.2,0,0.5,0.1,0.8c0.1,0.3,0.1,0.6,0.2,0.8c0.1,0.2,0.3,0.5,0.5,0.8l1.5,1.9l-0.6,0.7l-2.2-2.9
														c-0.2-0.3-0.4-0.5-0.5-0.6c-0.1-0.1-0.2-0.1-0.3-0.2c-0.1,0-0.2,0-0.2,0.1c-0.1,0.1-0.1,0.2-0.1,0.4
														c0,0.2,0,0.4,0.1,0.7L85,91c-0.1-0.5-0.1-0.9,0-1.1C85,89.6,85.1,89.4,85.3,89.2L85.3,89.2z M83,92
														c0.3-0.3,0.6-0.5,0.9-0.6c0.3-0.1,0.6,0,0.9,0.3c0.5,0.4,0.7,0.9,0.5,1.6c-0.1,0.7-0.6,1.4-1.3,2.3
														c0.1,0.2,0.3,0.3,0.5,0.5c0.3,0.2,0.6,0.4,0.8,0.4c0.2,0,0.5-0.1,0.7-0.4c0.2-0.3,0.4-0.5,0.4-0.8
														c0.1-0.3,0.1-0.7,0-1.1l0.5,0c0.1,0.5,0.1,1,0,1.4s-0.3,0.8-0.6,1.2c-0.3,0.4-0.7,0.6-1.2,0.6c-0.4,0-0.9-0.2-1.3-0.5
														c-0.3-0.3-0.6-0.6-0.8-1c-0.3-0.4-0.4-0.8-0.5-1.3s-0.1-0.9,0-1.3C82.5,92.7,82.7,92.3,83,92L83,92z M70.9,106.4
														c0.1-0.2,0.3-0.3,0.5-0.3s0.4,0.1,0.6,0.2c0.2,0.1,0.3,0.3,0.4,0.5l0.1,0c-0.3-1.2-0.3-2,0.2-2.5
														c0.3-0.3,0.6-0.4,1-0.4s0.8,0.2,1.2,0.6c0.5,0.4,0.8,0.9,1.1,1.4s0.4,1.1,0.4,1.7c0,0.6-0.2,1-0.5,1.5
														c-0.3,0.4-0.7,0.6-1,0.7l0.8,1c0.2,0.2,0.3,0.4,0.4,0.5c0.1,0.1,0.2,0.1,0.3,0.1c0.1,0,0.2-0.1,0.4-0.3l0.2,0.2
														l-1.1,1.3l-3.6-4.8c-0.2-0.3-0.4-0.5-0.6-0.6c-0.1-0.1-0.2-0.1-0.3-0.2c-0.1,0-0.2,0-0.2,0.1c-0.1,0.1-0.1,0.2-0.1,0.4
														c0,0.2,0,0.4,0.1,0.7l-0.4,0c-0.1-0.5-0.1-0.9,0-1.1C70.6,106.9,70.7,106.6,70.9,106.4L70.9,106.4z M78.1,95.8l0.5-0.6
														l0.9,1.1l1.1-1.3l0.4,0.5l-1.1,1.3l1.3,1.8c0.3,0.3,0.4,0.6,0.6,0.7c0.1,0.1,0.2,0.2,0.3,0.3c0.4,0.3,0.6,0.3,0.9,0
														c0.1-0.1,0.2-0.3,0.2-0.5c0-0.2,0-0.5-0.1-0.9l0.5,0c0.1,0.5,0.1,0.9,0.1,1.3c0,0.3-0.2,0.6-0.4,0.9
														c-0.5,0.6-1,0.6-1.6,0.1c-0.2-0.2-0.4-0.3-0.5-0.6l-1.8-2.3l-0.6,0.7l-0.2-0.3c0.1-0.2,0.2-0.3,0.3-0.4
														c0-0.1,0.1-0.2,0.1-0.3c0-0.1,0-0.2,0-0.3c0-0.1-0.1-0.2-0.2-0.4C78.5,96.4,78.3,96.1,78.1,95.8L78.1,95.8z
														 M61.6,113.6l0.2-0.2l2.3,3.2l0.1,0c-0.1-0.6-0.2-1-0.1-1.4c0-0.4,0.2-0.7,0.4-0.9c0.2-0.3,0.5-0.4,0.7-0.4
														c0.3,0,0.5,0.1,0.8,0.3c0.2,0.1,0.4,0.4,0.7,0.8l0.9,1.2c0.2,0.3,0.4,0.6,0.6,0.7c0.1,0.1,0.2,0.1,0.3,0.2
														c0.1,0,0.2,0,0.2-0.1c0.1-0.1,0.1-0.2,0.1-0.4c0-0.2,0-0.4-0.1-0.7l0.4,0c0.1,0.5,0.1,0.9,0,1.2c0,0.3-0.1,0.5-0.3,0.7
														c-0.2,0.2-0.3,0.3-0.6,0.3c-0.2,0-0.4-0.1-0.6-0.3c-0.2-0.2-0.4-0.4-0.7-0.8l-0.6-0.8c-0.2-0.3-0.4-0.5-0.5-0.6
														c-0.1-0.1-0.2-0.2-0.3-0.3c-0.2-0.2-0.4-0.3-0.5-0.3c-0.1,0-0.3,0.1-0.4,0.2c-0.1,0.1-0.2,0.3-0.2,0.5
														c0,0.2,0,0.5,0.1,0.8c0.1,0.3,0.2,0.6,0.3,0.8s0.3,0.5,0.5,0.8l1.5,1.9l-0.6,0.7l-3.9-5.1c-0.2-0.3-0.4-0.5-0.5-0.6
														c-0.1-0.1-0.2-0.1-0.3-0.1c-0.1,0-0.2,0.1-0.4,0.3l-0.2-0.2L61.6,113.6L61.6,113.6z"/>
													<g class="st24">
														<defs>
															<polygon id="SVGID_25_" points="18.5,187.1 166.3,187.1 166.3,12.6 18.5,12.6 18.5,187.1 															"/>
														</defs>
														<clipPath id="SVGID_26_">
															<use xlink:href="#SVGID_25_"  style="overflow:visible;"/>
														</clipPath>
														<path class="st25" d="M42.4,35c-0.2,0-0.5,0.1-0.7,0.4c-0.2,0.2-0.4,0.6-0.5,1c0.3,0,0.6,0,0.9-0.1s0.4-0.2,0.6-0.3
															c0.1-0.1,0.2-0.3,0.2-0.5c0-0.1,0-0.3-0.1-0.3C42.6,35,42.5,35,42.4,35L42.4,35z M30.7,35c-0.2,0-0.5,0.1-0.7,0.3
															c-0.2,0.2-0.3,0.5-0.5,0.8c-0.1,0.3-0.2,0.7-0.2,1c0,0.2,0,0.4,0.1,0.6c0.1,0.1,0.2,0.2,0.3,0.2c0.1,0,0.2,0,0.4-0.1
															c0.1-0.1,0.2-0.2,0.4-0.4c0.1-0.2,0.2-0.4,0.3-0.5c0.1-0.2,0.1-0.4,0.2-0.6c0.1-0.2,0.1-0.5,0.1-0.6
															c0-0.2,0-0.3-0.1-0.4C31,35,30.9,35,30.7,35L30.7,35z M27.1,34.7h0.2L26.8,37c-0.1,0.2-0.1,0.4-0.1,0.5
															c0,0.1,0,0.2,0,0.2c0,0,0.1,0.1,0.1,0.1c0.1,0,0.1,0,0.2-0.1c0.1-0.1,0.2-0.2,0.3-0.3l0.2,0.2
															c-0.2,0.2-0.4,0.4-0.6,0.5c-0.1,0.1-0.3,0.1-0.5,0.1c-0.2,0-0.3-0.1-0.4-0.2c-0.1-0.1-0.1-0.3-0.1-0.4
															c0-0.2,0-0.4,0.1-0.7l0.3-1.2c0.1-0.2,0.1-0.4,0.1-0.5c0-0.1,0-0.2-0.1-0.2c-0.1,0-0.2-0.1-0.3-0.1l0-0.2L27.1,34.7
															L27.1,34.7z M42.5,34.7c0.3,0,0.5,0.1,0.6,0.2s0.2,0.3,0.2,0.5c0,0.4-0.2,0.7-0.6,0.9s-0.9,0.3-1.7,0.3
															c0,0.1,0,0.3,0,0.5c0,0.2,0,0.4,0.1,0.5c0.1,0.1,0.3,0.2,0.5,0.2c0.2,0,0.4,0,0.6-0.1s0.4-0.2,0.6-0.4l0.2,0.2
															c-0.2,0.3-0.5,0.4-0.7,0.6c-0.2,0.1-0.5,0.2-0.8,0.2c-0.3,0-0.6-0.1-0.8-0.3c-0.2-0.2-0.3-0.5-0.3-0.9
															c0-0.3,0-0.5,0.1-0.8s0.2-0.6,0.4-0.8c0.2-0.2,0.4-0.4,0.7-0.5C41.9,34.8,42.2,34.7,42.5,34.7L42.5,34.7z M37.7,34.7
															c0.1,0,0.3,0,0.4,0.1c0.1,0.1,0.1,0.2,0.1,0.4c0,0.1,0,0.2-0.1,0.4l0,0c0.2-0.3,0.5-0.5,0.7-0.7
															c0.2-0.1,0.4-0.2,0.7-0.2c0.2,0,0.3,0,0.4,0l-0.2,0.8h-0.4c0-0.1,0-0.2-0.1-0.2c0-0.1-0.1-0.1-0.1-0.1s-0.1,0-0.1,0
															c-0.1,0-0.2,0-0.3,0.1s-0.2,0.2-0.3,0.3s-0.2,0.3-0.3,0.5c-0.1,0.1-0.1,0.3-0.2,0.6l-0.3,1.5h-0.6l0.5-2.3
															c0-0.1,0.1-0.3,0.1-0.3s0-0.1,0-0.2c0-0.1,0-0.2,0-0.2c0,0-0.1-0.1-0.1-0.1c-0.1,0-0.2,0-0.2,0.1
															c-0.1,0.1-0.2,0.2-0.3,0.3l-0.2-0.2c0.2-0.2,0.4-0.4,0.5-0.5C37.4,34.8,37.6,34.7,37.7,34.7L37.7,34.7z M33.6,34.7
															c0.2,0,0.3,0.1,0.4,0.2s0.1,0.2,0.1,0.4c0,0.2,0,0.4-0.1,0.7l-0.2,0.6c0,0.2-0.1,0.3-0.1,0.4c0,0.1,0,0.2,0,0.2
															c0,0.1,0,0.1,0,0.2c0,0.2,0,0.3,0.1,0.4s0.1,0.1,0.3,0.1c0.1,0,0.2,0,0.3-0.1c0.1-0.1,0.2-0.2,0.4-0.4
															c0.1-0.2,0.2-0.3,0.3-0.5s0.1-0.3,0.2-0.6l0.3-1.5h0.6L35.7,37c-0.1,0.2-0.1,0.4-0.1,0.5c0,0.1,0,0.2,0,0.2
															c0,0,0.1,0.1,0.1,0.1c0.1,0,0.1,0,0.2-0.1c0.1-0.1,0.2-0.2,0.3-0.3l0.2,0.2c-0.2,0.2-0.4,0.4-0.6,0.5
															s-0.3,0.1-0.5,0.1c-0.1,0-0.3,0-0.4-0.1C35.1,38,35,37.9,35,37.7c0-0.1,0-0.3,0.1-0.4l0,0c-0.2,0.3-0.5,0.6-0.7,0.7
															c-0.2,0.2-0.4,0.2-0.6,0.2c-0.2,0-0.4-0.1-0.5-0.2c-0.1-0.1-0.2-0.3-0.2-0.5c0-0.1,0-0.4,0.1-0.6l0.2-0.9
															c0.1-0.3,0.1-0.4,0.1-0.5c0-0.1,0-0.2,0-0.2c0,0-0.1-0.1-0.1-0.1c-0.1,0-0.2,0-0.2,0.1c-0.1,0.1-0.2,0.2-0.3,0.3
															l-0.2-0.2c0.2-0.2,0.4-0.3,0.5-0.4c0.1-0.1,0.2-0.1,0.3-0.2C33.4,34.7,33.5,34.7,33.6,34.7L33.6,34.7z M30.6,34.7
															c0.1,0,0.3,0,0.4,0.1s0.3,0.1,0.4,0.2l0.3-0.2l0.2,0.1l-0.4,1.7c0,0.1-0.1,0.4-0.2,0.9c-0.1,0.5-0.2,0.9-0.2,1.1
															c-0.1,0.2-0.1,0.4-0.2,0.6c-0.1,0.2-0.2,0.3-0.3,0.4c-0.1,0.1-0.3,0.2-0.5,0.3c-0.2,0.1-0.4,0.1-0.7,0.1
															c-0.9,0-1.3-0.3-1.3-0.8c0-0.1,0-0.3,0.1-0.4c0.1-0.1,0.2-0.2,0.4-0.3l0.3,0.2c0,0.1-0.1,0.1-0.1,0.2
															c0,0.1-0.1,0.1-0.1,0.2c0,0,0,0.1,0,0.2c0,0.2,0.1,0.3,0.2,0.4c0.1,0.1,0.3,0.1,0.6,0.1c0.3,0,0.5-0.1,0.7-0.2
															c0.2-0.1,0.3-0.3,0.5-0.6s0.2-0.7,0.4-1.3l0,0c-0.2,0.3-0.4,0.5-0.6,0.7c-0.2,0.1-0.4,0.2-0.6,0.2
															c-0.3,0-0.5-0.1-0.6-0.3c-0.1-0.2-0.2-0.5-0.2-0.8c0-0.4,0.1-0.8,0.2-1.2c0.2-0.4,0.4-0.7,0.7-0.9
															C30,34.8,30.3,34.7,30.6,34.7L30.6,34.7z M27,33.4h0.6l-0.2,0.7h-0.6L27,33.4L27,33.4z M25,33.1c0.2,0,0.4,0,0.6,0.1
															l-0.1,0.6h-0.3c0-0.1-0.1-0.2-0.1-0.3c-0.1-0.1-0.1-0.1-0.2-0.1c-0.1,0-0.2,0-0.3,0.1c-0.1,0.1-0.2,0.2-0.2,0.3
															c-0.1,0.1-0.1,0.3-0.2,0.6l-0.1,0.4h0.9l-0.1,0.4h-0.9l-0.7,3.1c-0.1,0.5-0.3,0.9-0.5,1.2c-0.2,0.3-0.5,0.4-0.9,0.4
															c-0.1,0-0.2,0-0.2,0l0.1-0.3c0,0,0.1,0,0.2,0c0.1,0,0.2,0,0.3-0.1c0.1-0.1,0.1-0.1,0.2-0.3s0.1-0.3,0.2-0.6l0.8-3.4
															h-0.6l0.1-0.2c0.2,0,0.3,0,0.3,0c0.1,0,0.1,0,0.2-0.1c0,0,0.1-0.1,0.1-0.1c0-0.1,0.1-0.2,0.1-0.3
															c0.1-0.4,0.3-0.7,0.6-1C24.3,33.2,24.6,33.1,25,33.1L25,33.1z"/>
														<g class="st26">
															<defs>
																<polygon id="SVGID_27_" points="18.5,187.1 166.3,187.1 166.3,12.6 18.5,12.6 18.5,187.1 																"/>
															</defs>
															<clipPath id="SVGID_28_">
																<use xlink:href="#SVGID_27_"  style="overflow:visible;"/>
															</clipPath>
															<path class="st27" d="M48.3,33l0.1,0.3c-0.6,0.2-1,0.5-1.2,1.1c-0.3,0.5-0.4,1.2-0.4,2c0,0.8,0.1,1.5,0.4,2.1
																c0.3,0.5,0.7,0.9,1.2,1.1l-0.1,0.3c-0.7-0.2-1.2-0.6-1.6-1.2s-0.6-1.3-0.6-2.2c0-0.9,0.2-1.6,0.6-2.2
																C47.1,33.6,47.6,33.2,48.3,33L48.3,33z"/>
															<g class="st28">
																<defs>
																	<polygon id="SVGID_29_" points="18.5,187.1 166.3,187.1 166.3,12.6 18.5,12.6 18.5,187.1 																	"/>
																</defs>
																<clipPath id="SVGID_30_">
																	<use xlink:href="#SVGID_29_"  style="overflow:visible;"/>
																</clipPath>
																<path class="st29" d="M54.6,33.6c-0.2,0-0.3,0-0.4,0.1s-0.2,0.2-0.3,0.4s-0.1,0.4-0.1,0.7c0,0.3,0,0.6,0,0.9
																	c0,0.8,0.1,1.3,0.2,1.7c0.1,0.4,0.4,0.5,0.7,0.5c0.3,0,0.5-0.2,0.6-0.5c0.1-0.3,0.2-0.9,0.2-1.6c0-0.5,0-1-0.1-1.3
																	c-0.1-0.3-0.2-0.6-0.3-0.7C54.9,33.6,54.8,33.6,54.6,33.6L54.6,33.6z M54.6,33.3c0.5,0,0.9,0.2,1.2,0.6
																	c0.3,0.4,0.4,1,0.4,1.8c0,0.8-0.1,1.5-0.4,1.9c-0.3,0.4-0.7,0.6-1.2,0.6c-0.5,0-0.9-0.2-1.1-0.6
																	c-0.3-0.4-0.4-1-0.4-1.8c0-0.4,0-0.8,0.1-1.1s0.2-0.6,0.3-0.8c0.1-0.2,0.3-0.4,0.5-0.5
																	C54.2,33.3,54.4,33.3,54.6,33.3L54.6,33.3z M50.8,33.3H51c0,0.2,0,0.5,0,0.9v3c0,0.1,0,0.2,0,0.3
																	c0,0.1,0,0.1,0.1,0.2c0,0,0.1,0.1,0.2,0.1s0.2,0,0.3,0.1c0.1,0,0.3,0,0.4,0v0.3h-2.6v-0.3c0.3,0,0.5,0,0.6,0
																	s0.2-0.1,0.3-0.1s0.1-0.1,0.1-0.2c0-0.1,0-0.2,0-0.4v-2.9c0-0.1,0-0.2,0-0.2c0,0-0.1-0.1-0.1-0.1
																	c-0.1,0-0.2,0-0.3,0.1s-0.3,0.2-0.5,0.3l-0.2-0.3L50.8,33.3L50.8,33.3z"/>
																<g class="st30">
																	<defs>
																		<polygon id="SVGID_31_" points="18.5,187.1 166.3,187.1 166.3,12.6 18.5,12.6 18.5,187.1 																		"/>
																	</defs>
																	<clipPath id="SVGID_32_">
																		<use xlink:href="#SVGID_31_"  style="overflow:visible;"/>
																	</clipPath>
																	<path class="st31" d="M56.8,33c0.7,0.2,1.2,0.6,1.6,1.2s0.6,1.3,0.6,2.2c0,0.9-0.2,1.6-0.6,2.2s-0.9,1-1.6,1.2
																		l-0.1-0.3c0.5-0.2,1-0.5,1.2-1.1c0.3-0.5,0.4-1.2,0.4-2.1c0-0.8-0.1-1.5-0.4-2c-0.3-0.5-0.7-0.9-1.2-1.1L56.8,33z"
																		/>
																</g>
															</g>
														</g>
													</g>
												</g>
											</g>
										</g>
									</g>
								</g>
							</g>
						</g>
					</g>
				</g>
			</g>
		</g>
	</g>
</g>
<g>
	<path class="st32" d="M165.1,99c-0.1,0-0.3,0-0.4,0.1c-0.1,0.1-0.3,0.3-0.5,0.5c-0.2,0.2-0.3,0.4-0.4,0.6c-0.1,0.2-0.2,0.5-0.2,0.7
		l0,0.2c0,0.2,0,0.3-0.1,0.3c0,0.1,0,0.2,0,0.2c0,0.2,0,0.4,0.1,0.5c0.1,0.1,0.3,0.2,0.5,0.2c0.1,0,0.3,0,0.4-0.1
		c0.1-0.1,0.2-0.1,0.4-0.2c0.1-0.1,0.2-0.2,0.3-0.4c0.1-0.2,0.2-0.3,0.2-0.5c0.1-0.2,0.1-0.4,0.2-0.6c0-0.2,0.1-0.4,0.1-0.6
		c0-0.3,0-0.5-0.1-0.7C165.4,99.1,165.3,99,165.1,99L165.1,99z M160.2,99c-0.1,0-0.3,0-0.4,0.1c-0.1,0.1-0.3,0.3-0.5,0.5
		c-0.2,0.2-0.3,0.4-0.4,0.6c-0.1,0.2-0.2,0.5-0.2,0.7l0,0.2c0,0.2,0,0.3-0.1,0.3c0,0.1,0,0.2,0,0.2c0,0.2,0,0.4,0.1,0.5
		c0.1,0.1,0.3,0.2,0.5,0.2c0.1,0,0.3,0,0.4-0.1c0.1-0.1,0.2-0.1,0.4-0.2c0.1-0.1,0.2-0.2,0.3-0.4c0.1-0.2,0.2-0.3,0.2-0.5
		c0.1-0.2,0.1-0.4,0.2-0.6c0-0.2,0.1-0.4,0.1-0.6c0-0.3,0-0.5-0.1-0.7C160.5,99.1,160.3,99,160.2,99L160.2,99z M169.5,98.9
		c-0.3,0-0.6,0.1-0.8,0.4c-0.2,0.2-0.4,0.6-0.5,1.1c-0.1,0.5-0.2,0.9-0.2,1.2c0,0.3,0.1,0.5,0.2,0.7c0.1,0.2,0.3,0.2,0.6,0.2
		c0.3,0,0.5-0.1,0.7-0.4c0.2-0.3,0.4-0.6,0.5-1.1c0.1-0.5,0.2-0.9,0.2-1.2c0-0.3-0.1-0.5-0.2-0.7C170,98.9,169.8,98.9,169.5,98.9
		L169.5,98.9z M155,98.9c-0.3,0-0.6,0.1-0.8,0.4c-0.2,0.2-0.4,0.6-0.5,1.1c-0.1,0.5-0.2,0.9-0.2,1.2c0,0.3,0.1,0.5,0.2,0.7
		c0.1,0.2,0.3,0.2,0.6,0.2c0.3,0,0.5-0.1,0.7-0.4c0.2-0.3,0.4-0.6,0.5-1.1c0.1-0.5,0.2-0.9,0.2-1.2c0-0.3-0.1-0.5-0.2-0.7
		C155.5,98.9,155.3,98.9,155,98.9L155,98.9z M184.6,98.9c-0.3,0-0.6,0.1-0.8,0.4c-0.3,0.3-0.5,0.7-0.6,1.2c0.4,0,0.8,0,1-0.1
		c0.3-0.1,0.5-0.2,0.7-0.3c0.2-0.2,0.2-0.4,0.2-0.6c0-0.2,0-0.3-0.1-0.4C184.9,98.9,184.8,98.9,184.6,98.9L184.6,98.9z M177.4,98.6
		h0.3l-0.6,2.8c-0.1,0.3-0.1,0.5-0.1,0.6c0,0.1,0,0.2,0.1,0.2c0,0.1,0.1,0.1,0.2,0.1c0.1,0,0.2,0,0.3-0.1c0.1-0.1,0.2-0.2,0.4-0.4
		l0.2,0.2c-0.3,0.3-0.5,0.5-0.7,0.6c-0.2,0.1-0.4,0.2-0.6,0.2c-0.2,0-0.3-0.1-0.4-0.2c-0.1-0.1-0.2-0.3-0.2-0.5c0-0.2,0-0.5,0.1-0.8
		l0.3-1.4c0.1-0.3,0.1-0.5,0.1-0.6c0-0.1,0-0.2-0.1-0.3c-0.1,0-0.2-0.1-0.4-0.1l0-0.2L177.4,98.6L177.4,98.6z M173.9,98.5
		c0.3,0,0.5,0,0.7,0c0.2,0,0.4,0.1,0.7,0.2l-0.2,0.9h-0.3c0-0.3-0.1-0.4-0.3-0.6c-0.1-0.1-0.4-0.2-0.6-0.2c-0.2,0-0.4,0.1-0.6,0.2
		s-0.2,0.3-0.2,0.5c0,0.1,0,0.2,0.1,0.3s0.1,0.2,0.2,0.3c0.1,0.1,0.3,0.2,0.5,0.3c0.2,0.1,0.3,0.2,0.4,0.3c0.1,0.1,0.2,0.2,0.3,0.3
		s0.1,0.2,0.1,0.3c0,0.1,0,0.2,0,0.4c0,0.3-0.1,0.5-0.2,0.7c-0.1,0.2-0.3,0.3-0.6,0.4c-0.2,0.1-0.5,0.1-0.8,0.1
		c-0.2,0-0.5,0-0.7-0.1c-0.2,0-0.5-0.1-0.8-0.2l0.2-0.9h0.3c0,0.3,0.1,0.5,0.2,0.6c0.1,0.1,0.4,0.2,0.7,0.2c0.3,0,0.5-0.1,0.6-0.2
		c0.2-0.1,0.2-0.3,0.2-0.5c0-0.1,0-0.2-0.1-0.3c0-0.1-0.1-0.2-0.2-0.3c-0.1-0.1-0.3-0.2-0.5-0.3c-0.2-0.1-0.4-0.3-0.5-0.4
		c-0.1-0.1-0.2-0.2-0.3-0.4c-0.1-0.1-0.1-0.3-0.1-0.4c0-0.2,0.1-0.4,0.2-0.6c0.1-0.2,0.3-0.3,0.5-0.4
		C173.3,98.6,173.6,98.5,173.9,98.5L173.9,98.5z M169.6,98.5c0.5,0,0.8,0.1,1,0.4s0.4,0.6,0.4,1.1c0,0.3-0.1,0.7-0.2,1.1
		c-0.1,0.4-0.3,0.7-0.5,1c-0.2,0.3-0.4,0.5-0.7,0.6c-0.3,0.1-0.6,0.2-1,0.2c-0.4,0-0.8-0.1-1-0.4c-0.2-0.2-0.4-0.6-0.4-1.1
		c0-0.2,0-0.5,0.1-0.8c0.1-0.4,0.2-0.8,0.4-1.1c0.2-0.3,0.5-0.5,0.8-0.7C168.9,98.6,169.3,98.5,169.6,98.5L169.6,98.5z M155.1,98.5
		c0.5,0,0.8,0.1,1,0.4s0.4,0.6,0.4,1.1c0,0.3-0.1,0.7-0.2,1.1c-0.1,0.4-0.3,0.7-0.5,1c-0.2,0.3-0.4,0.5-0.7,0.6
		c-0.3,0.1-0.6,0.2-1,0.2c-0.4,0-0.8-0.1-1-0.4c-0.2-0.2-0.4-0.6-0.4-1.1c0-0.2,0-0.5,0.1-0.8c0.1-0.4,0.2-0.8,0.4-1.1
		c0.2-0.3,0.5-0.5,0.8-0.7C154.4,98.6,154.7,98.5,155.1,98.5L155.1,98.5z M184.8,98.5c0.3,0,0.6,0.1,0.8,0.2
		c0.2,0.1,0.3,0.4,0.3,0.7c0,0.5-0.2,0.9-0.7,1.1c-0.5,0.2-1.1,0.4-2,0.4c0,0.2-0.1,0.4-0.1,0.6c0,0.3,0.1,0.5,0.2,0.7
		c0.1,0.1,0.3,0.2,0.6,0.2c0.3,0,0.5-0.1,0.7-0.2c0.2-0.1,0.4-0.3,0.7-0.5l0.3,0.3c-0.3,0.3-0.6,0.5-0.8,0.7c-0.3,0.2-0.6,0.2-1,0.2
		c-0.4,0-0.7-0.1-1-0.4s-0.3-0.6-0.3-1.1c0-0.3,0.1-0.6,0.2-1c0.1-0.4,0.3-0.7,0.5-0.9c0.2-0.3,0.5-0.5,0.8-0.6
		C184.1,98.6,184.4,98.5,184.8,98.5L184.8,98.5z M163.3,98.5c0.2,0,0.3,0.1,0.4,0.2s0.2,0.3,0.2,0.5c0,0.2,0,0.3-0.1,0.5l0.1,0
		c0.5-0.8,1.1-1.2,1.6-1.2c0.3,0,0.6,0.1,0.7,0.4c0.2,0.2,0.3,0.6,0.3,1c0,0.5-0.1,0.9-0.3,1.4c-0.2,0.5-0.5,0.8-0.8,1.1
		c-0.3,0.3-0.7,0.4-1.1,0.4c-0.4,0-0.7-0.1-1-0.2l-0.2,0.9c0,0.2-0.1,0.4-0.1,0.5c0,0.1,0,0.2,0.1,0.3c0.1,0.1,0.2,0.1,0.4,0.1
		l0,0.2H162l1-4.6c0.1-0.3,0.1-0.5,0.1-0.6c0-0.1,0-0.2-0.1-0.2c0-0.1-0.1-0.1-0.2-0.1c-0.1,0-0.2,0-0.3,0.1
		c-0.1,0.1-0.2,0.2-0.4,0.4l-0.2-0.2c0.3-0.3,0.5-0.5,0.7-0.6C162.8,98.6,163,98.5,163.3,98.5L163.3,98.5z M158.3,98.5
		c0.2,0,0.3,0.1,0.4,0.2s0.2,0.3,0.2,0.5c0,0.2,0,0.3-0.1,0.5l0.1,0c0.5-0.8,1.1-1.2,1.6-1.2c0.3,0,0.6,0.1,0.7,0.4
		c0.2,0.2,0.3,0.6,0.3,1c0,0.5-0.1,0.9-0.3,1.4c-0.2,0.5-0.5,0.8-0.8,1.1c-0.3,0.3-0.7,0.4-1.1,0.4c-0.4,0-0.7-0.1-1-0.2l-0.2,0.9
		c0,0.2-0.1,0.4-0.1,0.5c0,0.1,0,0.2,0.1,0.3c0.1,0.1,0.2,0.1,0.4,0.1l0,0.2h-1.3l1-4.6c0.1-0.3,0.1-0.5,0.1-0.6
		c0-0.1,0-0.2-0.1-0.2c0-0.1-0.1-0.1-0.2-0.1c-0.1,0-0.2,0-0.3,0.1c-0.1,0.1-0.2,0.2-0.4,0.4l-0.2-0.2c0.3-0.3,0.5-0.5,0.7-0.6
		C157.9,98.6,158.1,98.5,158.3,98.5L158.3,98.5z M180.1,97.5h0.6l-0.2,1.1h1.3l-0.1,0.4h-1.3l-0.4,1.7c-0.1,0.3-0.1,0.6-0.1,0.7
		c0,0.1,0,0.3,0,0.3c0,0.4,0.1,0.5,0.4,0.5c0.1,0,0.3,0,0.4-0.1c0.1-0.1,0.3-0.3,0.5-0.5l0.2,0.3c-0.2,0.3-0.5,0.5-0.7,0.7
		c-0.2,0.1-0.5,0.2-0.7,0.2c-0.6,0-0.9-0.3-0.9-0.9c0-0.2,0-0.4,0.1-0.6l0.5-2.2h-0.7l0.1-0.3c0.2,0,0.3,0,0.4,0
		c0.1,0,0.2-0.1,0.2-0.1c0.1,0,0.1-0.1,0.2-0.2c0-0.1,0.1-0.2,0.1-0.3C179.9,98,180,97.8,180.1,97.5L180.1,97.5z M177.3,96.9h0.8
		l-0.2,0.8h-0.8L177.3,96.9L177.3,96.9z"/>
	<path class="st32" d="M174.3,107.9c-0.2,0-0.4,0.1-0.6,0.3c-0.2,0.2-0.3,0.5-0.4,0.9c0.3,0,0.5,0,0.7-0.1c0.2-0.1,0.4-0.1,0.5-0.2
		s0.2-0.3,0.2-0.4c0-0.1,0-0.2-0.1-0.3C174.5,107.9,174.4,107.9,174.3,107.9L174.3,107.9z M170.6,107.9c-0.2,0-0.4,0.1-0.6,0.3
		c-0.2,0.2-0.3,0.4-0.4,0.7c-0.1,0.3-0.1,0.6-0.1,0.9c0,0.2,0,0.4,0.1,0.5s0.2,0.2,0.3,0.2c0.1,0,0.1,0,0.2,0c0.1,0,0.1-0.1,0.2-0.1
		c0.1-0.1,0.1-0.1,0.2-0.2c0.1-0.1,0.1-0.2,0.2-0.3c0.1-0.1,0.1-0.2,0.2-0.3c0-0.1,0.1-0.3,0.1-0.4l0-0.1c0-0.1,0-0.3,0-0.4
		c0-0.2,0-0.3-0.1-0.3S170.8,107.9,170.6,107.9L170.6,107.9z M167.9,107.7h0.2l-0.4,2c0,0.2-0.1,0.4-0.1,0.5c0,0.1,0,0.1,0,0.2
		s0.1,0.1,0.1,0.1c0.1,0,0.1,0,0.2-0.1c0.1-0.1,0.2-0.1,0.3-0.3l0.2,0.2c-0.2,0.2-0.4,0.4-0.5,0.4c-0.1,0.1-0.3,0.1-0.4,0.1
		c-0.1,0-0.2,0-0.3-0.1c-0.1-0.1-0.1-0.2-0.1-0.4c0-0.2,0-0.4,0.1-0.6l0.2-1c0-0.2,0.1-0.4,0.1-0.5c0-0.1,0-0.2-0.1-0.2
		s-0.1-0.1-0.3-0.1l0-0.2L167.9,107.7L167.9,107.7z M165.5,107.6c0.2,0,0.4,0,0.5,0c0.2,0,0.3,0.1,0.5,0.1l-0.1,0.6h-0.2
		c0-0.2-0.1-0.3-0.2-0.4c-0.1-0.1-0.3-0.1-0.5-0.1c-0.2,0-0.3,0-0.4,0.1c-0.1,0.1-0.2,0.2-0.2,0.3c0,0.1,0,0.1,0,0.2
		c0,0.1,0.1,0.1,0.2,0.2c0.1,0.1,0.2,0.2,0.4,0.2c0.1,0.1,0.2,0.1,0.3,0.2c0.1,0.1,0.1,0.1,0.2,0.2c0,0.1,0.1,0.1,0.1,0.2
		c0,0.1,0,0.2,0,0.3c0,0.2,0,0.3-0.1,0.5c-0.1,0.1-0.2,0.2-0.4,0.3c-0.2,0.1-0.4,0.1-0.6,0.1c-0.2,0-0.3,0-0.5,0
		c-0.2,0-0.3-0.1-0.5-0.1l0.1-0.7h0.2c0,0.2,0.1,0.3,0.2,0.4c0.1,0.1,0.3,0.2,0.5,0.2c0.2,0,0.3,0,0.5-0.1c0.1-0.1,0.2-0.2,0.2-0.4
		c0-0.1,0-0.2,0-0.2c0-0.1-0.1-0.1-0.2-0.2c-0.1-0.1-0.2-0.1-0.3-0.2c-0.2-0.1-0.3-0.2-0.4-0.3c-0.1-0.1-0.2-0.2-0.2-0.3
		c0-0.1-0.1-0.2-0.1-0.3c0-0.2,0-0.3,0.1-0.4c0.1-0.1,0.2-0.2,0.4-0.3C165.1,107.7,165.3,107.6,165.5,107.6L165.5,107.6z
		 M174.4,107.6c0.2,0,0.4,0.1,0.6,0.2c0.1,0.1,0.2,0.3,0.2,0.5c0,0.3-0.2,0.6-0.5,0.8c-0.3,0.2-0.8,0.3-1.5,0.3c0,0.1,0,0.3,0,0.4
		c0,0.2,0,0.4,0.1,0.5c0.1,0.1,0.2,0.1,0.4,0.1c0.2,0,0.4,0,0.5-0.1c0.2-0.1,0.3-0.2,0.5-0.4l0.2,0.2c-0.2,0.2-0.4,0.4-0.6,0.5
		s-0.4,0.2-0.7,0.2c-0.3,0-0.5-0.1-0.7-0.3s-0.2-0.4-0.2-0.8c0-0.2,0-0.5,0.1-0.7c0.1-0.3,0.2-0.5,0.4-0.7c0.2-0.2,0.4-0.4,0.6-0.5
		C173.9,107.7,174.2,107.6,174.4,107.6L174.4,107.6z M167.9,106.5h0.5l-0.1,0.6h-0.5L167.9,106.5L167.9,106.5z M171.9,106.2h0.2
		l-0.8,3.4c0,0.2-0.1,0.4-0.1,0.5c0,0.1,0,0.1,0,0.2s0.1,0.1,0.1,0.1c0.1,0,0.1,0,0.2-0.1c0.1-0.1,0.2-0.1,0.3-0.3l0.2,0.2
		c-0.2,0.2-0.3,0.3-0.5,0.4c-0.1,0.1-0.3,0.1-0.4,0.1c-0.1,0-0.2,0-0.3-0.1c-0.1-0.1-0.1-0.2-0.1-0.3c0-0.1,0-0.2,0.1-0.4l0,0
		c-0.2,0.3-0.4,0.5-0.6,0.6c-0.2,0.1-0.4,0.2-0.6,0.2c-0.2,0-0.4-0.1-0.5-0.3c-0.1-0.2-0.2-0.4-0.2-0.7c0-0.4,0.1-0.7,0.2-1
		c0.1-0.3,0.3-0.6,0.6-0.8c0.2-0.2,0.5-0.3,0.8-0.3c0.1,0,0.2,0,0.3,0c0.1,0,0.2,0.1,0.3,0.1l0.2-0.7c0-0.1,0-0.1,0-0.2
		c0-0.1,0-0.2,0-0.2c0-0.1,0-0.1,0-0.1c0,0-0.1-0.1-0.1-0.1c0,0-0.1,0-0.2,0l0-0.2L171.9,106.2L171.9,106.2z"/>
</g>
<g>
	<path class="st33" d="M99.9,177.2c-0.2,0-0.5,0.1-0.7,0.4c-0.2,0.2-0.4,0.6-0.5,1c0.3,0,0.6,0,0.9-0.1c0.2-0.1,0.4-0.2,0.6-0.3
		c0.1-0.1,0.2-0.3,0.2-0.5c0-0.1,0-0.3-0.1-0.3C100.2,177.2,100.1,177.2,99.9,177.2L99.9,177.2z M92.4,177.2c-0.2,0-0.5,0.1-0.7,0.3
		c-0.2,0.2-0.4,0.5-0.5,0.8c-0.1,0.3-0.2,0.7-0.2,1c0,0.3,0,0.4,0.1,0.6c0.1,0.1,0.2,0.2,0.3,0.2c0.2,0,0.3-0.1,0.5-0.2
		c0.2-0.1,0.3-0.3,0.5-0.6c0.2-0.3,0.3-0.5,0.3-0.9l0-0.2c0-0.1,0-0.2,0-0.3c0-0.1,0-0.2,0-0.2c0-0.2,0-0.3-0.1-0.4
		C92.7,177.2,92.6,177.2,92.4,177.2L92.4,177.2z M85.4,177.2c-0.2,0-0.5,0.1-0.7,0.3c-0.2,0.2-0.3,0.5-0.5,0.8
		c-0.1,0.3-0.2,0.7-0.2,1c0,0.3,0,0.4,0.1,0.6c0.1,0.1,0.2,0.2,0.3,0.2c0.1,0,0.2,0,0.2,0c0.1,0,0.2-0.1,0.2-0.2
		c0.1-0.1,0.2-0.2,0.2-0.3c0.1-0.1,0.2-0.2,0.2-0.3c0.1-0.1,0.1-0.2,0.2-0.4c0.1-0.1,0.1-0.3,0.1-0.5l0-0.2c0-0.2,0.1-0.3,0.1-0.5
		c0-0.2,0-0.3-0.1-0.4C85.8,177.2,85.6,177.2,85.4,177.2L85.4,177.2z M89.3,176.9h0.2l-0.8,3.5c-0.1,0.4-0.2,0.7-0.3,0.9
		c-0.1,0.2-0.3,0.4-0.5,0.5c-0.2,0.1-0.5,0.2-0.8,0.2c-0.1,0-0.2,0-0.3,0l0.1-0.3c0.1,0,0.1,0,0.3,0c0.1,0,0.2,0,0.3-0.1
		c0.1,0,0.2-0.1,0.2-0.2c0.1-0.1,0.1-0.2,0.2-0.3c0.1-0.1,0.1-0.3,0.2-0.6l0.6-2.6c0.1-0.2,0.1-0.4,0.1-0.5c0-0.1,0-0.2-0.1-0.2
		c-0.1,0-0.2-0.1-0.3-0.1l0-0.2L89.3,176.9L89.3,176.9z M96.6,176.9c0.3,0,0.6,0,0.9,0.1l-0.2,0.8h-0.4c0-0.2,0-0.3,0-0.4
		c0-0.1-0.1-0.1-0.1-0.2c-0.1,0-0.1-0.1-0.2-0.1c-0.2,0-0.5,0.1-0.7,0.3c-0.2,0.2-0.4,0.5-0.5,0.8c-0.1,0.4-0.2,0.7-0.2,1
		c0,0.2,0,0.4,0.1,0.5c0.1,0.1,0.2,0.2,0.4,0.2c0.2,0,0.4,0,0.6-0.1c0.2-0.1,0.3-0.2,0.5-0.4l0.2,0.2c-0.2,0.3-0.5,0.4-0.7,0.5
		c-0.2,0.1-0.5,0.2-0.7,0.2c-0.3,0-0.6-0.1-0.8-0.3c-0.2-0.2-0.3-0.5-0.3-0.9c0-0.3,0-0.5,0.1-0.8c0.1-0.3,0.2-0.6,0.4-0.8
		c0.2-0.2,0.4-0.4,0.6-0.5C96.1,176.9,96.3,176.9,96.6,176.9L96.6,176.9z M102.4,176.9c0.2,0,0.3,0,0.4,0.1c0.1,0.1,0.1,0.2,0.1,0.4
		c0,0.1,0,0.3-0.1,0.4l0,0c0.2-0.3,0.5-0.6,0.7-0.7c0.2-0.2,0.4-0.2,0.7-0.2c0.2,0,0.4,0.1,0.5,0.2c0.1,0.1,0.2,0.3,0.2,0.5
		c0,0.2,0,0.4-0.1,0.6l-0.2,0.9c-0.1,0.3-0.1,0.4-0.1,0.6c0,0.1,0,0.2,0,0.2c0,0,0.1,0.1,0.1,0.1c0.1,0,0.1,0,0.2-0.1
		c0.1-0.1,0.2-0.2,0.3-0.3l0.2,0.2c-0.2,0.2-0.4,0.4-0.5,0.5c-0.2,0.1-0.3,0.2-0.5,0.2c-0.2,0-0.3-0.1-0.4-0.2
		c-0.1-0.1-0.1-0.3-0.1-0.4c0-0.2,0-0.4,0.1-0.7l0.2-0.6c0.1-0.2,0.1-0.4,0.1-0.5c0-0.1,0-0.2,0-0.3c0-0.2,0-0.3-0.1-0.4
		c-0.1-0.1-0.1-0.1-0.3-0.1c-0.1,0-0.2,0-0.3,0.1c-0.1,0.1-0.2,0.2-0.4,0.4c-0.1,0.2-0.2,0.3-0.3,0.5c-0.1,0.2-0.1,0.3-0.2,0.6
		l-0.3,1.6h-0.6l0.5-2.3c0.1-0.2,0.1-0.4,0.1-0.5c0-0.1,0-0.2,0-0.2c0,0-0.1-0.1-0.1-0.1c-0.1,0-0.2,0-0.2,0.1
		c-0.1,0.1-0.2,0.2-0.3,0.3l-0.2-0.2c0.2-0.2,0.4-0.4,0.6-0.5C102.1,176.9,102.2,176.9,102.4,176.9L102.4,176.9z M100.1,176.9
		c0.3,0,0.5,0.1,0.7,0.2s0.2,0.3,0.2,0.6c0,0.4-0.2,0.7-0.6,0.9c-0.4,0.2-1,0.3-1.7,0.3c0,0.1,0,0.3,0,0.5c0,0.3,0,0.4,0.1,0.6
		c0.1,0.1,0.3,0.2,0.5,0.2c0.2,0,0.4,0,0.6-0.1c0.2-0.1,0.4-0.2,0.6-0.4l0.2,0.2c-0.2,0.3-0.5,0.5-0.7,0.6c-0.2,0.1-0.5,0.2-0.8,0.2
		c-0.3,0-0.6-0.1-0.8-0.3c-0.2-0.2-0.3-0.5-0.3-0.9c0-0.3,0-0.5,0.1-0.8c0.1-0.3,0.2-0.6,0.4-0.8c0.2-0.2,0.4-0.4,0.7-0.5
		S99.8,176.9,100.1,176.9L100.1,176.9z M92.3,176.9c0.2,0,0.3,0,0.4,0.1c0.1,0,0.3,0.1,0.4,0.2l0.3-0.2l0.2,0.1l-0.5,2.3
		c-0.1,0.2-0.1,0.4-0.1,0.5c0,0.1,0,0.2,0,0.2c0,0,0.1,0.1,0.1,0.1c0.1,0,0.1,0,0.2-0.1c0.1-0.1,0.2-0.2,0.3-0.3l0.2,0.2
		c-0.2,0.2-0.4,0.4-0.6,0.5c-0.2,0.1-0.3,0.1-0.5,0.1c-0.1,0-0.3,0-0.4-0.1c-0.1-0.1-0.1-0.2-0.1-0.4c0-0.1,0-0.3,0.1-0.4l0,0
		c-0.2,0.3-0.5,0.6-0.7,0.7c-0.2,0.2-0.4,0.2-0.7,0.2c-0.3,0-0.5-0.1-0.6-0.3c-0.1-0.2-0.2-0.5-0.2-0.8c0-0.4,0.1-0.8,0.2-1.2
		s0.4-0.7,0.7-0.9C91.7,177,92,176.9,92.3,176.9L92.3,176.9z M81.5,176.2l-1.3,2.3h1.4l-0.1-1.2c0-0.2,0-0.4,0-0.6
		S81.5,176.3,81.5,176.2L81.5,176.2z M107,176.1h0.5l-0.2,0.9h1.1l-0.1,0.4h-1.1l-0.3,1.4c-0.1,0.3-0.1,0.5-0.1,0.6
		c0,0.1,0,0.2,0,0.3c0,0.3,0.1,0.4,0.4,0.4c0.1,0,0.2,0,0.3-0.1c0.1-0.1,0.3-0.2,0.4-0.4l0.2,0.2c-0.2,0.3-0.4,0.4-0.6,0.6
		c-0.2,0.1-0.4,0.2-0.6,0.2c-0.5,0-0.8-0.3-0.8-0.8c0-0.2,0-0.3,0.1-0.5l0.4-1.9H106l0.1-0.2c0.1,0,0.2,0,0.3,0s0.1,0,0.2-0.1
		c0,0,0.1-0.1,0.1-0.1c0-0.1,0.1-0.1,0.1-0.2C106.8,176.5,106.9,176.3,107,176.1L107,176.1z M89.2,175.5h0.6l-0.2,0.7H89L89.2,175.5
		L89.2,175.5z M81.5,175.4H82l0.3,4c0,0.2,0,0.3,0.1,0.4s0.1,0.2,0.1,0.2c0.1,0.1,0.1,0.1,0.2,0.1l0,0.2h-1.5l0-0.2
		c0.1,0,0.2-0.1,0.3-0.2c0.1-0.1,0.1-0.3,0.1-0.5c0-0.1,0-0.2,0-0.3l0-0.5H80l-0.2,0.4c-0.1,0.2-0.2,0.3-0.2,0.4
		c0,0.1-0.1,0.2-0.1,0.3c0,0.2,0.1,0.3,0.4,0.4l0,0.2h-1.5l0-0.2c0.1,0,0.1,0,0.2-0.1c0.1,0,0.1-0.1,0.2-0.2
		c0.1-0.1,0.2-0.3,0.3-0.5L81.5,175.4z M87,175.2h0.2l-0.9,4c-0.1,0.2-0.1,0.4-0.1,0.5c0,0.1,0,0.2,0,0.2c0,0,0.1,0.1,0.1,0.1
		c0.1,0,0.1,0,0.2-0.1c0.1-0.1,0.2-0.2,0.3-0.3l0.2,0.2c-0.2,0.2-0.4,0.4-0.6,0.5c-0.2,0.1-0.3,0.1-0.5,0.1c-0.1,0-0.3,0-0.4-0.1
		c-0.1-0.1-0.1-0.2-0.1-0.4c0-0.1,0-0.3,0.1-0.4l0,0c-0.2,0.3-0.5,0.6-0.7,0.7c-0.2,0.2-0.4,0.2-0.7,0.2c-0.3,0-0.5-0.1-0.6-0.3
		c-0.1-0.2-0.2-0.5-0.2-0.8c0-0.4,0.1-0.8,0.2-1.2s0.4-0.7,0.7-0.9c0.3-0.2,0.6-0.3,0.9-0.3c0.1,0,0.3,0,0.4,0
		c0.1,0,0.3,0.1,0.4,0.2l0.2-0.8c0-0.1,0-0.2,0.1-0.3c0-0.1,0-0.2,0-0.3s0-0.1,0-0.2c0,0-0.1-0.1-0.1-0.1c0,0-0.1,0-0.3,0l0-0.2
		L87,175.2L87,175.2z"/>
	<path class="st33" d="M96.9,184.7c-0.2,0-0.3,0.1-0.5,0.3c-0.2,0.2-0.3,0.4-0.4,0.7c0.2,0,0.5,0,0.6-0.1c0.2,0,0.3-0.1,0.4-0.2
		c0.1-0.1,0.1-0.2,0.1-0.4c0-0.1,0-0.2-0.1-0.2C97.1,184.8,97,184.7,96.9,184.7L96.9,184.7z M93.8,184.7c-0.2,0-0.3,0.1-0.5,0.2
		c-0.1,0.1-0.2,0.3-0.3,0.6c-0.1,0.2-0.1,0.5-0.1,0.7c0,0.2,0,0.3,0.1,0.4c0,0.1,0.1,0.1,0.2,0.1c0.1,0,0.1,0,0.2,0
		c0.1,0,0.1-0.1,0.2-0.1c0.1-0.1,0.1-0.1,0.2-0.2c0.1-0.1,0.1-0.1,0.2-0.2c0-0.1,0.1-0.2,0.1-0.3c0-0.1,0.1-0.2,0.1-0.4l0-0.1
		c0-0.1,0-0.2,0-0.4c0-0.1,0-0.2-0.1-0.3C94.1,184.8,94,184.7,93.8,184.7L93.8,184.7z M91.6,184.6h0.2l-0.4,1.7
		c0,0.2-0.1,0.3-0.1,0.4c0,0.1,0,0.1,0,0.2c0,0,0.1,0,0.1,0c0.1,0,0.1,0,0.2-0.1c0.1,0,0.1-0.1,0.2-0.2l0.1,0.1
		c-0.2,0.2-0.3,0.3-0.4,0.4c-0.1,0.1-0.2,0.1-0.4,0.1c-0.1,0-0.2,0-0.3-0.1c-0.1-0.1-0.1-0.2-0.1-0.3c0-0.1,0-0.3,0.1-0.5l0.2-0.8
		c0-0.2,0.1-0.3,0.1-0.4c0-0.1,0-0.1-0.1-0.2c0,0-0.1,0-0.2,0l0-0.1L91.6,184.6L91.6,184.6z M89.5,184.5c0.2,0,0.3,0,0.4,0
		c0.1,0,0.3,0.1,0.4,0.1l-0.1,0.5H90c0-0.2-0.1-0.3-0.2-0.3c-0.1-0.1-0.2-0.1-0.4-0.1c-0.1,0-0.2,0-0.3,0.1
		c-0.1,0.1-0.1,0.2-0.1,0.3c0,0.1,0,0.1,0,0.2c0,0,0.1,0.1,0.1,0.2c0.1,0.1,0.2,0.1,0.3,0.2c0.1,0.1,0.2,0.1,0.3,0.2
		c0.1,0.1,0.1,0.1,0.2,0.2c0,0.1,0.1,0.1,0.1,0.2s0,0.1,0,0.2c0,0.2,0,0.3-0.1,0.4c-0.1,0.1-0.2,0.2-0.3,0.2
		c-0.1,0.1-0.3,0.1-0.5,0.1c-0.1,0-0.3,0-0.4,0c-0.1,0-0.3-0.1-0.5-0.1l0.1-0.6h0.2c0,0.2,0.1,0.3,0.1,0.4c0.1,0.1,0.2,0.1,0.4,0.1
		c0.2,0,0.3,0,0.4-0.1c0.1-0.1,0.1-0.2,0.1-0.3c0-0.1,0-0.1,0-0.2c0-0.1-0.1-0.1-0.1-0.2c-0.1-0.1-0.2-0.1-0.3-0.2
		c-0.1-0.1-0.2-0.2-0.3-0.2c-0.1-0.1-0.1-0.1-0.2-0.2s-0.1-0.2-0.1-0.3c0-0.1,0-0.3,0.1-0.4c0.1-0.1,0.2-0.2,0.3-0.2
		C89.2,184.6,89.3,184.5,89.5,184.5L89.5,184.5z M97,184.5c0.2,0,0.4,0,0.5,0.1c0.1,0.1,0.2,0.2,0.2,0.4c0,0.3-0.1,0.5-0.4,0.7
		c-0.3,0.1-0.7,0.2-1.2,0.2c0,0.1,0,0.2,0,0.3c0,0.2,0,0.3,0.1,0.4c0.1,0.1,0.2,0.1,0.3,0.1c0.2,0,0.3,0,0.4-0.1
		c0.1-0.1,0.3-0.2,0.4-0.3l0.2,0.2c-0.2,0.2-0.3,0.3-0.5,0.4c-0.2,0.1-0.4,0.1-0.6,0.1c-0.3,0-0.4-0.1-0.6-0.2s-0.2-0.4-0.2-0.6
		c0-0.2,0-0.4,0.1-0.6c0.1-0.2,0.2-0.4,0.3-0.6c0.1-0.2,0.3-0.3,0.5-0.4C96.6,184.6,96.8,184.5,97,184.5L97,184.5z M91.5,183.6H92
		l-0.1,0.5h-0.5L91.5,183.6L91.5,183.6z M94.9,183.4h0.2l-0.6,2.9c0,0.2-0.1,0.3-0.1,0.4c0,0.1,0,0.1,0,0.2c0,0,0.1,0,0.1,0
		c0.1,0,0.1,0,0.2-0.1c0.1,0,0.1-0.1,0.2-0.2l0.1,0.1c-0.2,0.2-0.3,0.3-0.4,0.4s-0.2,0.1-0.4,0.1c-0.1,0-0.2,0-0.3-0.1
		s-0.1-0.2-0.1-0.3c0-0.1,0-0.2,0.1-0.3l0,0c-0.2,0.2-0.3,0.4-0.5,0.5c-0.1,0.1-0.3,0.2-0.5,0.2c-0.2,0-0.3-0.1-0.4-0.2
		c-0.1-0.1-0.2-0.3-0.2-0.6c0-0.3,0.1-0.6,0.2-0.9c0.1-0.3,0.3-0.5,0.5-0.6c0.2-0.2,0.4-0.2,0.7-0.2c0.1,0,0.2,0,0.3,0
		s0.2,0.1,0.3,0.1l0.1-0.6c0-0.1,0-0.1,0-0.2c0-0.1,0-0.1,0-0.2c0-0.1,0-0.1,0-0.1c0,0,0,0-0.1-0.1c0,0-0.1,0-0.2,0l0-0.1
		L94.9,183.4L94.9,183.4z"/>
</g>
<g>
	<g>
		<path class="st34" d="M67.7,153c36.3-32.4,67.1-41.3,80.2-43.7"/>
		<g>
			<path class="st35" d="M146.4,109.7l-2.2-2.7l0.1-0.1l5.2,1.2c1.8,0.1,3.5,0.3,5.3,0.4c-1.6,0.6-3.3,1.2-4.9,1.9l-4.6,2.6l-0.1,0
				L146.4,109.7z"/>
		</g>
	</g>
</g>
<g>
	<g>
		<path class="st36" d="M69.4,154.3c18.4-5.1,20.1-5.4,26.6,0c3.5,2.8,4.6,8,5,12.2"/>
		<g>
			<path class="st37" d="M100.9,165l3-1.9l0.1,0.1l-1.9,4.9c-0.4,1.7-0.7,3.4-1.1,5.2c-0.4-1.7-0.8-3.4-1.2-5.1l-2-4.9l0.1-0.1
				L100.9,165z"/>
		</g>
	</g>
</g>
</svg>
