<?xml version="1.0" encoding="utf-8"?>
<!-- Generator: Adobe Illustrator 23.0.2, SVG Export Plug-In . SVG Version: 6.00 Build 0)  -->
<svg version="1.0" id="Layer_1" xmlns="http://www.w3.org/2000/svg" xmlns:xlink="http://www.w3.org/1999/xlink" x="0px" y="0px"
	 viewBox="0 0 220 220" style="enable-background:new 0 0 220 220;" xml:space="preserve">
<style type="text/css">
	.st0{fill-rule:evenodd;clip-rule:evenodd;fill:#FFFFFF;}
	.st1{fill:url(#SVGID_1_);}
	.st2{fill:none;stroke:#000000;stroke-width:0.422;stroke-miterlimit:8;}
	.st3{fill:none;stroke:#000000;stroke-width:0.422;stroke-miterlimit:8;stroke-dasharray:4.8106,1.9243;}
	.st4{fill:none;stroke:#000000;stroke-width:0.422;stroke-miterlimit:8;stroke-dasharray:4.9266,1.9706;}
	.st5{fill:none;stroke:#000000;stroke-width:0.422;stroke-miterlimit:8;stroke-dasharray:4.989,1.9956;}
	.st6{fill:none;stroke:#000000;stroke-width:0.422;stroke-miterlimit:8;stroke-dasharray:5.0985,2.0394;}
	.st7{clip-path:url(#SVGID_3_);fill:none;stroke:#000000;stroke-width:1.2653;stroke-miterlimit:8;}
	.st8{clip-path:url(#SVGID_3_);fill-rule:evenodd;clip-rule:evenodd;}
	.st9{clip-path:url(#SVGID_3_);}
	.st10{clip-path:url(#SVGID_5_);fill:none;stroke:#000000;stroke-width:1.2653;stroke-miterlimit:8;}
	.st11{clip-path:url(#SVGID_5_);fill-rule:evenodd;clip-rule:evenodd;}
	.st12{clip-path:url(#SVGID_5_);}
	.st13{clip-path:url(#SVGID_7_);fill-rule:evenodd;clip-rule:evenodd;}
	.st14{clip-path:url(#SVGID_7_);}
	.st15{clip-path:url(#SVGID_9_);fill-rule:evenodd;clip-rule:evenodd;}
	.st16{clip-path:url(#SVGID_9_);}
	.st17{clip-path:url(#SVGID_11_);fill-rule:evenodd;clip-rule:evenodd;}
	.st18{clip-path:url(#SVGID_11_);}
	.st19{clip-path:url(#SVGID_13_);}
	.st20{clip-path:url(#SVGID_15_);}
	.st21{clip-path:url(#SVGID_17_);}
	.st22{clip-path:url(#SVGID_19_);}
	.st23{clip-path:url(#SVGID_21_);fill-rule:evenodd;clip-rule:evenodd;}
	.st24{clip-path:url(#SVGID_21_);}
	.st25{clip-path:url(#SVGID_23_);fill-rule:evenodd;clip-rule:evenodd;}
	.st26{clip-path:url(#SVGID_23_);}
	.st27{clip-path:url(#SVGID_25_);fill-rule:evenodd;clip-rule:evenodd;}
	.st28{clip-path:url(#SVGID_25_);}
	.st29{clip-path:url(#SVGID_27_);fill-rule:evenodd;clip-rule:evenodd;}
	.st30{clip-path:url(#SVGID_27_);}
	.st31{clip-path:url(#SVGID_29_);fill-rule:evenodd;clip-rule:evenodd;}
	.st32{clip-path:url(#SVGID_29_);}
	.st33{clip-path:url(#SVGID_31_);fill-rule:evenodd;clip-rule:evenodd;}
	.st34{clip-path:url(#SVGID_31_);}
	.st35{clip-path:url(#SVGID_33_);fill-rule:evenodd;clip-rule:evenodd;}
	.st36{clip-path:url(#SVGID_33_);}
	.st37{clip-path:url(#SVGID_35_);fill-rule:evenodd;clip-rule:evenodd;}
	.st38{clip-path:url(#SVGID_35_);}
	.st39{clip-path:url(#SVGID_37_);fill-rule:evenodd;clip-rule:evenodd;}
	.st40{clip-path:url(#SVGID_37_);}
	.st41{clip-path:url(#SVGID_39_);fill:none;stroke:#000000;stroke-width:1.2653;stroke-miterlimit:8;}
	.st42{clip-path:url(#SVGID_39_);}
	.st43{clip-path:url(#SVGID_41_);fill-rule:evenodd;clip-rule:evenodd;fill:#0303C3;}
	.st44{clip-path:url(#SVGID_41_);}
	.st45{clip-path:url(#SVGID_43_);fill-rule:evenodd;clip-rule:evenodd;fill:#0303C3;}
	.st46{fill:url(#SVGID_44_);stroke:#000000;stroke-width:0.422;stroke-miterlimit:8;stroke-dasharray:5,2;}
	.st47{fill-rule:evenodd;clip-rule:evenodd;}
</style>
<g>
	<polygon class="st0" points="40,91.8 40,179.6 178,180.2 177.7,89.4 140.7,89.7 125.7,86 111.3,79.9 99.4,76.8 89.9,75.9 
		79.8,77.4 66.9,81.4 47,89.4 40,91.8 40,91.8 	"/>
	<g>
		<linearGradient id="SVGID_1_" gradientUnits="userSpaceOnUse" x1="39.9927" y1="128.0499" x2="178.0093" y2="128.0499">
			<stop  offset="2.024560e-07" style="stop-color:#0303C3;stop-opacity:0.5"/>
			<stop  offset="0.4877" style="stop-color:#FFFFFF;stop-opacity:0"/>
			<stop  offset="1" style="stop-color:#1414C7;stop-opacity:0.6"/>
		</linearGradient>
		<path class="st1" d="M40,91.8v87.7l138,0.6l-0.3-90.8c-5,0.5-10.3,0.8-15.9,0.9c-7.6,0.2-14.6-0.1-21.1-0.6
			c-2.1-0.3-4.5-0.7-6.9-1.3c-3-0.7-5.7-1.5-8.1-2.4c-4.8-2-9.6-4.1-14.4-6.1l-11.9-3.1l-9.5-0.9l-10.1,1.5c-4.3,1.3-8.6,2.7-12.9,4
			c-1.5,0.4-3.1,0.8-4.7,1.3c-5.9,1.8-11,4.2-15.2,6.7C44.7,90.2,42.3,91,40,91.8z"/>
		<g>
			<path class="st2" d="M42.4,91c-0.8,0.3-1.6,0.5-2.4,0.8v2.5"/>
			<line class="st3" x1="40" y1="96.3" x2="40" y2="176.1"/>
			<polyline class="st2" points="40,177.1 40,179.6 42.5,179.6 			"/>
			<line class="st4" x1="44.5" y1="179.6" x2="174.5" y2="180.2"/>
			<polyline class="st2" points="175.5,180.2 178,180.2 178,177.7 			"/>
			<line class="st5" x1="178" y1="175.7" x2="177.7" y2="92.9"/>
			<path class="st2" d="M177.7,91.9l0-2.5c-0.8,0.1-1.7,0.1-2.5,0.2"/>
			<path class="st6" d="M173.2,89.8c-3.6,0.3-7.4,0.4-11.4,0.5c-7.6,0.2-14.6-0.1-21.1-0.6c-2.1-0.3-4.5-0.7-6.9-1.3
				c-3-0.7-5.7-1.5-8.1-2.4c-4.8-2-9.6-4.1-14.4-6.1l-11.9-3.1l-9.5-0.9l-10.1,1.5c-4.3,1.3-8.6,2.7-12.9,4
				c-1.5,0.4-3.1,0.8-4.7,1.3c-5.9,1.8-11,4.2-15.2,6.7c-1.2,0.4-2.5,0.9-3.7,1.3"/>
		</g>
	</g>
	<g>
		<defs>
			<polyline id="SVGID_2_" points="218.6,214.3 218.6,8.7 1.6,8.7 1.6,214.3 1.6,214.3 			"/>
		</defs>
		<clipPath id="SVGID_3_">
			<use xlink:href="#SVGID_2_"  style="overflow:visible;"/>
		</clipPath>
		<line class="st7" x1="7.8" y1="179.9" x2="205" y2="179.9"/>
		<polygon class="st8" points="204.3,178 208.1,179.9 204.3,181.8 204.3,178 		"/>
		<g class="st9">
			<defs>
				<polyline id="SVGID_4_" points="218.6,214.3 218.6,8.7 1.6,8.7 1.6,214.3 1.6,214.3 				"/>
			</defs>
			<clipPath id="SVGID_5_">
				<use xlink:href="#SVGID_4_"  style="overflow:visible;"/>
			</clipPath>
			<line class="st10" x1="17.4" y1="189.9" x2="17.4" y2="25.1"/>
			<polygon class="st11" points="19.3,25.8 17.4,22 15.5,25.8 19.3,25.8 			"/>
			<g class="st12">
				<defs>
					<polyline id="SVGID_6_" points="218.6,214.3 218.6,8.7 1.6,8.7 1.6,214.3 1.6,214.3 					"/>
				</defs>
				<clipPath id="SVGID_7_">
					<use xlink:href="#SVGID_6_"  style="overflow:visible;"/>
				</clipPath>
				<path class="st13" d="M7.2,17.3c0.2,0,0.4,0,0.5,0.1c0.1,0,0.2,0.1,0.3,0.2s0.2,0.2,0.3,0.4c0.1,0.2,0.1,0.3,0.2,0.5
					c0.1,0.2,0.1,0.5,0.2,0.9c0.1,0.6,0.2,1.3,0.3,2s0.2,1.4,0.3,2c0.5-0.7,0.9-1.4,1.2-2s0.6-1.2,0.7-1.7c0.1-0.5,0.2-0.9,0.2-1.2
					c0-0.2,0-0.4-0.1-0.5c-0.1-0.1-0.3-0.1-0.5-0.1l0.1-0.4h1.9l0.2,0.4c-0.4,1-0.9,2.1-1.5,3.3c-0.6,1.1-1.4,2.3-2.2,3.4
					c-0.8,1.1-1.4,1.9-1.9,2.4c-0.4,0.3-0.7,0.6-1,0.7c-0.3,0.1-0.6,0.2-0.9,0.2c-0.1,0-0.2,0-0.4,0c-0.1,0-0.2,0-0.3-0.1l0.3-1.4
					h0.6c0,0.3,0.1,0.5,0.3,0.5c0.3,0,0.6-0.2,1-0.5c0.4-0.4,0.8-0.9,1.3-1.6c-0.1-0.9-0.3-1.9-0.6-3.1c-0.3-1.3-0.4-2.1-0.5-2.4
					c-0.1-0.4-0.2-0.6-0.3-0.7c-0.1-0.1-0.2-0.1-0.3-0.1c-0.2,0-0.3,0.1-0.4,0.2c-0.1,0.1-0.3,0.4-0.5,0.7l-0.5-0.3
					c0.3-0.5,0.7-0.9,1-1.1C6.5,17.4,6.8,17.3,7.2,17.3L7.2,17.3z"/>
				<g class="st14">
					<defs>
						<polyline id="SVGID_8_" points="218.6,214.3 218.6,8.7 1.6,8.7 1.6,214.3 1.6,214.3 						"/>
					</defs>
					<clipPath id="SVGID_9_">
						<use xlink:href="#SVGID_8_"  style="overflow:visible;"/>
					</clipPath>
					<path class="st15" d="M206.4,184.6c0.2,0,0.3,0,0.4,0.1c0.1,0,0.2,0.1,0.3,0.2c0.1,0.1,0.2,0.2,0.2,0.3s0.1,0.3,0.2,0.5
						c0.1,0.2,0.1,0.4,0.2,0.7s0.1,0.6,0.2,0.9h0.1c0.5-0.7,0.8-1.2,1.1-1.5c0.2-0.3,0.5-0.5,0.6-0.7c0.2-0.2,0.3-0.3,0.5-0.3
						c0.2-0.1,0.4-0.1,0.6-0.1c0.2,0,0.4,0,0.6,0.1l-0.3,1.3h-0.5c0-0.2-0.1-0.3-0.3-0.3c0,0-0.1,0-0.1,0c0,0-0.1,0-0.2,0.1
						s-0.2,0.1-0.3,0.3c-0.1,0.1-0.3,0.3-0.5,0.5c-0.2,0.2-0.4,0.4-0.5,0.7l-0.5,0.6c0.1,0.5,0.2,0.9,0.3,1.2s0.1,0.6,0.2,0.9
						s0.1,0.4,0.2,0.5s0.1,0.2,0.2,0.3c0.1,0.1,0.1,0.1,0.2,0.1c0.1,0,0.1,0,0.2,0c0.1,0,0.3-0.1,0.4-0.2s0.3-0.3,0.5-0.7l0.5,0.3
						c-0.3,0.5-0.7,0.9-0.9,1.1c-0.3,0.2-0.6,0.3-1,0.3c-0.2,0-0.4,0-0.5-0.1s-0.3-0.2-0.4-0.4c-0.1-0.2-0.2-0.4-0.3-0.8
						c-0.2-0.6-0.2-1.1-0.3-1.5h-0.1c-0.5,0.7-0.9,1.3-1.2,1.6c-0.3,0.3-0.5,0.6-0.6,0.7c-0.2,0.2-0.3,0.3-0.5,0.3
						c-0.2,0.1-0.4,0.1-0.6,0.1c-0.2,0-0.4,0-0.6-0.1l0.3-1.3h0.5c0,0.2,0.1,0.3,0.3,0.3c0.1,0,0.1,0,0.2-0.1c0.1,0,0.2-0.1,0.3-0.3
						c0.1-0.1,0.3-0.4,0.6-0.7c0.3-0.3,0.6-0.8,1.1-1.4c-0.1-0.4-0.2-0.8-0.2-1.1c-0.1-0.4-0.2-0.7-0.2-1c-0.1-0.3-0.2-0.5-0.2-0.6
						c-0.1-0.1-0.1-0.2-0.2-0.2s-0.1-0.1-0.2-0.1c-0.1,0-0.2,0-0.3,0.1c-0.1,0-0.2,0.1-0.3,0.2s-0.2,0.3-0.4,0.5l-0.5-0.3
						c0.3-0.5,0.6-0.8,0.9-1.1C205.6,184.8,206,184.6,206.4,184.6L206.4,184.6z"/>
					<g class="st16">
						<defs>
							<polyline id="SVGID_10_" points="218.6,214.3 218.6,8.7 1.6,8.7 1.6,214.3 1.6,214.3 							"/>
						</defs>
						<clipPath id="SVGID_11_">
							<use xlink:href="#SVGID_10_"  style="overflow:visible;"/>
						</clipPath>
						<path class="st17" d="M9.6,185.2c-0.5,0-1,0.2-1.3,0.6s-0.7,1-0.9,1.8S7,189.2,7,189.8c0,0.5,0.1,0.9,0.3,1.2
							c0.2,0.3,0.6,0.4,1,0.4c0.5,0,0.9-0.2,1.3-0.7c0.4-0.4,0.7-1,0.9-1.8c0.2-0.8,0.3-1.5,0.3-2.1c0-0.5-0.1-0.9-0.3-1.2
							C10.4,185.4,10.1,185.2,9.6,185.2L9.6,185.2z M9.8,184.6c0.8,0,1.4,0.2,1.8,0.6c0.4,0.4,0.6,1.1,0.6,1.9
							c0,0.6-0.1,1.2-0.3,1.8c-0.2,0.7-0.5,1.2-0.8,1.6s-0.8,0.8-1.2,1s-1,0.3-1.7,0.3c-0.8,0-1.4-0.2-1.8-0.6
							c-0.4-0.4-0.6-1-0.6-1.9c0-0.4,0.1-0.9,0.2-1.4c0.2-0.7,0.4-1.3,0.8-1.8s0.8-0.9,1.3-1.2S9.1,184.6,9.8,184.6L9.8,184.6z"/>
						<g class="st18">
							<defs>
								<polyline id="SVGID_12_" points="218.6,214.3 218.6,8.7 1.6,8.7 1.6,214.3 1.6,214.3 								"/>
							</defs>
							<clipPath id="SVGID_13_">
								<use xlink:href="#SVGID_12_"  style="overflow:visible;"/>
							</clipPath>
							<g class="st19">
								<defs>
									<polyline id="SVGID_14_" points="218.6,214.3 218.6,8.7 1.6,8.7 1.6,214.3 1.6,214.3 									"/>
								</defs>
								<clipPath id="SVGID_15_">
									<use xlink:href="#SVGID_14_"  style="overflow:visible;"/>
								</clipPath>
								<g class="st20">
									<defs>
										<polyline id="SVGID_16_" points="218.6,214.3 218.6,8.7 1.6,8.7 1.6,214.3 1.6,214.3 										"/>
									</defs>
									<clipPath id="SVGID_17_">
										<use xlink:href="#SVGID_16_"  style="overflow:visible;"/>
									</clipPath>
									<g class="st21">
										<defs>
											<polyline id="SVGID_18_" points="218.6,214.3 218.6,8.7 1.6,8.7 1.6,214.3 1.6,214.3 											"/>
										</defs>
										<clipPath id="SVGID_19_">
											<use xlink:href="#SVGID_18_"  style="overflow:visible;"/>
										</clipPath>
										<g class="st22">
											<defs>
												<polyline id="SVGID_20_" points="218.6,214.3 218.6,8.7 1.6,8.7 1.6,214.3 1.6,214.3 												"/>
											</defs>
											<clipPath id="SVGID_21_">
												<use xlink:href="#SVGID_20_"  style="overflow:visible;"/>
											</clipPath>
											<path class="st23" d="M164.7,65.9c-0.2,0-0.5,0.1-0.7,0.4s-0.4,0.6-0.5,1c0.3,0,0.6,0,0.9-0.1c0.2-0.1,0.4-0.2,0.6-0.3
												c0.1-0.1,0.2-0.3,0.2-0.5c0-0.2,0-0.3-0.1-0.4S164.8,65.9,164.7,65.9L164.7,65.9z M164.8,65.6c0.3,0,0.5,0.1,0.7,0.2
												s0.2,0.3,0.2,0.6c0,0.4-0.2,0.7-0.6,0.9c-0.4,0.2-1,0.3-1.8,0.3c0,0.1,0,0.3,0,0.5c0,0.3,0.1,0.4,0.2,0.6
												c0.1,0.1,0.3,0.2,0.5,0.2c0.2,0,0.4,0,0.6-0.1c0.2-0.1,0.4-0.3,0.6-0.5l0.2,0.2c-0.2,0.3-0.5,0.5-0.7,0.6
												c-0.2,0.1-0.5,0.2-0.9,0.2c-0.4,0-0.6-0.1-0.8-0.3c-0.2-0.2-0.3-0.5-0.3-0.9c0-0.3,0-0.5,0.1-0.9s0.2-0.6,0.4-0.8
												c0.2-0.2,0.4-0.4,0.7-0.6C164.2,65.6,164.5,65.6,164.8,65.6L164.8,65.6z M154.1,64.1h3.9l-0.3,1.3h-0.4
												c0-0.2,0-0.4,0-0.5c0-0.1,0-0.2-0.1-0.3c0-0.1-0.1-0.1-0.1-0.1c-0.1,0-0.1,0-0.3,0h-0.5l-0.8,3.7c0,0.1,0,0.2,0,0.2
												c0,0.1,0,0.1,0,0.2s0,0.1,0,0.2c0,0.1,0,0.1,0,0.2c0,0,0.1,0.1,0.1,0.1s0.1,0,0.3,0l0,0.2h-1.6l0-0.2
												c0.1,0,0.2,0,0.2-0.1c0,0,0.1-0.1,0.1-0.1c0-0.1,0.1-0.1,0.1-0.2c0-0.1,0.1-0.3,0.1-0.5l0.8-3.6h-0.5
												c-0.2,0-0.3,0-0.4,0.1c-0.1,0-0.2,0.1-0.3,0.2c-0.1,0.1-0.2,0.3-0.3,0.6h-0.4L154.1,64.1L154.1,64.1z M160,63.9h0.2
												l-0.6,2.6l0,0c0.2-0.3,0.5-0.5,0.7-0.7s0.4-0.2,0.6-0.2c0.2,0,0.4,0.1,0.5,0.2s0.2,0.3,0.2,0.6c0,0.2,0,0.4-0.1,0.7
												l-0.2,1c-0.1,0.3-0.1,0.5-0.1,0.6c0,0.1,0,0.2,0,0.2c0,0,0.1,0.1,0.2,0.1c0.1,0,0.2,0,0.2-0.1c0.1-0.1,0.2-0.2,0.4-0.3
												l0.2,0.2c-0.2,0.2-0.4,0.4-0.6,0.5c-0.2,0.1-0.3,0.1-0.5,0.1c-0.2,0-0.3-0.1-0.4-0.2c-0.1-0.1-0.1-0.3-0.1-0.4
												c0-0.2,0-0.4,0.1-0.7l0.2-0.6c0.1-0.2,0.1-0.4,0.1-0.5c0-0.1,0-0.2,0-0.3c0-0.2,0-0.3-0.1-0.4c-0.1-0.1-0.1-0.1-0.3-0.1
												c-0.1,0-0.2,0-0.3,0.1c-0.1,0.1-0.3,0.2-0.4,0.4c-0.1,0.2-0.2,0.3-0.3,0.5c-0.1,0.2-0.1,0.3-0.2,0.6l-0.3,1.6h-0.6l1-4.2
												c0.1-0.3,0.1-0.4,0.1-0.5c0-0.1,0-0.2-0.1-0.2c-0.1,0-0.2-0.1-0.3-0.1l0-0.2L160,63.9L160,63.9z"/>
											<g class="st24">
												<defs>
													<polyline id="SVGID_22_" points="218.6,214.3 218.6,8.7 1.6,8.7 1.6,214.3 1.6,214.3 													"/>
												</defs>
												<clipPath id="SVGID_23_">
													<use xlink:href="#SVGID_22_"  style="overflow:visible;"/>
												</clipPath>
												<path class="st25" d="M183.1,66c-0.1,0-0.3,0-0.4,0.1s-0.3,0.2-0.4,0.4c-0.1,0.2-0.3,0.4-0.3,0.6
													c-0.1,0.2-0.1,0.4-0.2,0.6l0,0.2c0,0.1,0,0.2,0,0.3c0,0.1,0,0.1,0,0.2c0,0.2,0,0.3,0.1,0.4c0.1,0.1,0.2,0.1,0.4,0.1
													c0.1,0,0.2,0,0.3-0.1c0.1,0,0.2-0.1,0.3-0.2c0.1-0.1,0.2-0.2,0.3-0.3c0.1-0.1,0.1-0.3,0.2-0.5c0.1-0.2,0.1-0.4,0.1-0.5
													c0-0.2,0-0.4,0-0.5c0-0.3,0-0.5-0.1-0.6C183.4,66.1,183.3,66,183.1,66L183.1,66z M178.5,65.9c-0.3,0-0.5,0.1-0.7,0.3
													c-0.2,0.2-0.4,0.5-0.5,0.8c-0.1,0.3-0.2,0.7-0.2,1c0,0.3,0,0.4,0.1,0.6c0.1,0.1,0.2,0.2,0.4,0.2c0.2,0,0.3-0.1,0.5-0.2
													c0.2-0.1,0.3-0.3,0.5-0.6s0.3-0.6,0.4-0.9l0-0.2c0-0.1,0-0.2,0-0.3c0-0.1,0-0.2,0-0.2c0-0.2,0-0.3-0.1-0.4
													C178.9,65.9,178.7,65.9,178.5,65.9L178.5,65.9z M170.7,65.9c-0.3,0-0.5,0.1-0.7,0.3s-0.4,0.5-0.5,0.8
													c-0.1,0.3-0.2,0.7-0.2,1c0,0.3,0,0.4,0.1,0.6c0.1,0.1,0.2,0.2,0.3,0.2c0.1,0,0.3,0,0.4-0.1c0.1-0.1,0.3-0.2,0.4-0.4
													c0.1-0.2,0.3-0.4,0.3-0.5c0.1-0.2,0.1-0.4,0.2-0.6s0.1-0.5,0.1-0.7c0-0.2,0-0.3-0.1-0.4
													C171.1,65.9,170.9,65.9,170.7,65.9L170.7,65.9z M181.6,65.6c0.2,0,0.3,0.1,0.4,0.2c0.1,0.1,0.1,0.2,0.1,0.4
													c0,0.1,0,0.3-0.1,0.4l0,0c0.5-0.7,0.9-1,1.4-1c0.3,0,0.5,0.1,0.6,0.3c0.1,0.2,0.2,0.5,0.2,0.9c0,0.4-0.1,0.8-0.2,1.2
													s-0.4,0.7-0.7,0.9c-0.3,0.2-0.6,0.3-1,0.3c-0.3,0-0.6-0.1-0.8-0.2l-0.2,0.8c0,0.2-0.1,0.3-0.1,0.4c0,0.1,0,0.2,0.1,0.2
													c0.1,0,0.2,0.1,0.3,0.1l0,0.2h-1.1l0.9-3.9c0.1-0.2,0.1-0.4,0.1-0.6c0-0.1,0-0.2,0-0.2c0,0-0.1-0.1-0.2-0.1
													c-0.1,0-0.2,0-0.2,0.1c-0.1,0.1-0.2,0.2-0.4,0.3l-0.2-0.2c0.2-0.2,0.4-0.4,0.6-0.5C181.2,65.6,181.4,65.6,181.6,65.6
													L181.6,65.6z M178.5,65.6c0.2,0,0.3,0,0.5,0.1c0.1,0,0.3,0.1,0.4,0.2l0.3-0.2l0.2,0.1l-0.5,2.4
													c-0.1,0.2-0.1,0.4-0.1,0.5c0,0.1,0,0.2,0,0.2c0,0,0.1,0.1,0.2,0.1c0.1,0,0.2,0,0.2-0.1c0.1-0.1,0.2-0.2,0.4-0.3l0.2,0.2
													c-0.2,0.2-0.4,0.4-0.6,0.5c-0.2,0.1-0.3,0.2-0.5,0.2c-0.2,0-0.3-0.1-0.4-0.2c-0.1-0.1-0.1-0.2-0.1-0.4
													c0-0.1,0-0.3,0.1-0.4l0,0c-0.2,0.3-0.5,0.6-0.7,0.8c-0.2,0.2-0.4,0.2-0.7,0.2c-0.3,0-0.5-0.1-0.6-0.3s-0.2-0.5-0.2-0.9
													c0-0.4,0.1-0.8,0.3-1.2s0.4-0.7,0.7-0.9S178.1,65.6,178.5,65.6L178.5,65.6z M173.7,65.6c0.2,0,0.3,0.1,0.4,0.2
													c0.1,0.1,0.1,0.2,0.1,0.4c0,0.1,0,0.3-0.1,0.4l0,0c0.2-0.3,0.5-0.6,0.7-0.7c0.2-0.2,0.5-0.2,0.7-0.2c0.2,0,0.3,0,0.5,0
													l-0.2,0.8h-0.4c0-0.1,0-0.2-0.1-0.2c0-0.1-0.1-0.1-0.1-0.1s-0.1,0-0.1,0c-0.1,0-0.2,0-0.3,0.1s-0.2,0.2-0.4,0.4
													s-0.2,0.3-0.3,0.5c-0.1,0.2-0.1,0.3-0.2,0.6l-0.4,1.6H173l0.5-2.4c0-0.1,0.1-0.3,0.1-0.3s0-0.1,0-0.2c0-0.1,0-0.2,0-0.2
													c0,0-0.1-0.1-0.2-0.1c-0.1,0-0.2,0-0.2,0.1c-0.1,0.1-0.2,0.2-0.4,0.3l-0.2-0.2c0.2-0.2,0.4-0.4,0.6-0.5
													C173.4,65.6,173.5,65.6,173.7,65.6L173.7,65.6z M170.7,65.6c0.2,0,0.3,0,0.4,0.1c0.1,0,0.3,0.1,0.4,0.2l0.3-0.2l0.2,0.1
													l-0.4,1.7c0,0.1-0.1,0.4-0.2,0.9c-0.1,0.5-0.2,0.9-0.2,1.1s-0.1,0.4-0.2,0.6s-0.2,0.3-0.4,0.5c-0.1,0.1-0.3,0.2-0.5,0.3
													c-0.2,0.1-0.5,0.1-0.8,0.1c-0.9,0-1.4-0.3-1.4-0.8c0-0.1,0-0.3,0.1-0.4c0.1-0.1,0.2-0.2,0.4-0.4l0.3,0.2
													c0,0.1-0.1,0.1-0.1,0.2c0,0.1-0.1,0.1-0.1,0.2s0,0.1,0,0.2c0,0.2,0.1,0.3,0.2,0.4c0.1,0.1,0.3,0.1,0.6,0.1
													c0.3,0,0.5-0.1,0.7-0.2s0.3-0.4,0.5-0.7s0.3-0.8,0.4-1.4l-0.1,0c-0.2,0.3-0.5,0.6-0.7,0.7c-0.2,0.2-0.4,0.2-0.7,0.2
													c-0.3,0-0.5-0.1-0.6-0.3c-0.1-0.2-0.2-0.5-0.2-0.9c0-0.4,0.1-0.8,0.2-1.2s0.4-0.7,0.7-0.9
													C170,65.7,170.3,65.6,170.7,65.6L170.7,65.6z M186.6,63.9h0.2l-0.6,2.6l0,0c0.2-0.3,0.5-0.5,0.7-0.7
													c0.2-0.1,0.4-0.2,0.6-0.2c0.2,0,0.4,0.1,0.5,0.2s0.2,0.3,0.2,0.6c0,0.2,0,0.4-0.1,0.7l-0.2,1c-0.1,0.3-0.1,0.5-0.1,0.6
													c0,0.1,0,0.2,0,0.2c0,0,0.1,0.1,0.2,0.1c0.1,0,0.2,0,0.2-0.1c0.1-0.1,0.2-0.2,0.4-0.3l0.2,0.2c-0.2,0.2-0.4,0.4-0.6,0.5
													s-0.3,0.1-0.5,0.1c-0.2,0-0.3-0.1-0.4-0.2s-0.1-0.3-0.1-0.4c0-0.2,0-0.4,0.1-0.7l0.2-0.6c0.1-0.2,0.1-0.4,0.1-0.5
													s0-0.2,0-0.3c0-0.2,0-0.3-0.1-0.4c-0.1-0.1-0.1-0.1-0.3-0.1c-0.1,0-0.2,0-0.3,0.1s-0.3,0.2-0.4,0.4
													c-0.1,0.2-0.2,0.3-0.3,0.5c-0.1,0.2-0.1,0.3-0.2,0.6l-0.3,1.6H185l1-4.2c0.1-0.3,0.1-0.4,0.1-0.5c0-0.1,0-0.2-0.1-0.2
													c-0.1,0-0.2-0.1-0.3-0.1l0-0.2L186.6,63.9L186.6,63.9z"/>
												<g class="st26">
													<defs>
														<polyline id="SVGID_24_" points="218.6,214.3 218.6,8.7 1.6,8.7 1.6,214.3 1.6,214.3 														"/>
													</defs>
													<clipPath id="SVGID_25_">
														<use xlink:href="#SVGID_24_"  style="overflow:visible;"/>
													</clipPath>
													<path class="st27" d="M193,65.9c-0.3,0-0.5,0.1-0.7,0.3s-0.3,0.5-0.5,0.9s-0.2,0.7-0.2,1c0,0.3,0.1,0.5,0.2,0.6
														c0.1,0.1,0.3,0.2,0.5,0.2c0.2,0,0.5-0.1,0.6-0.3s0.3-0.5,0.4-0.9s0.2-0.7,0.2-1c0-0.3-0.1-0.5-0.2-0.6
														C193.4,65.9,193.2,65.9,193,65.9L193,65.9z M193.1,65.6c0.4,0,0.7,0.1,0.9,0.3c0.2,0.2,0.3,0.5,0.3,0.9
														c0,0.3-0.1,0.6-0.2,0.9c-0.1,0.3-0.2,0.6-0.4,0.8s-0.4,0.4-0.6,0.5c-0.2,0.1-0.5,0.2-0.8,0.2c-0.4,0-0.7-0.1-0.9-0.3
														c-0.2-0.2-0.3-0.5-0.3-0.9c0-0.2,0-0.4,0.1-0.7c0.1-0.4,0.2-0.7,0.4-0.9c0.2-0.3,0.4-0.5,0.7-0.6
														S192.7,65.6,193.1,65.6L193.1,65.6z M198.2,63.9c0.2,0,0.5,0,0.6,0.1l-0.1,0.6h-0.3c0-0.1-0.1-0.2-0.1-0.3
														s-0.1-0.1-0.2-0.1c-0.1,0-0.3,0-0.4,0.1c-0.1,0.1-0.2,0.2-0.3,0.3c-0.1,0.2-0.1,0.4-0.2,0.6l-0.1,0.4h1l-0.1,0.4h-1
														l-0.7,3.2c-0.1,0.5-0.3,0.9-0.5,1.2c-0.2,0.3-0.5,0.4-0.9,0.4c-0.1,0-0.2,0-0.2,0l0.1-0.3c0,0,0.1,0,0.2,0
														c0.1,0,0.2,0,0.3-0.1c0.1-0.1,0.2-0.2,0.2-0.3s0.1-0.3,0.2-0.6l0.8-3.5h-0.6l0.1-0.3c0.2,0,0.3,0,0.4,0
														c0.1,0,0.1,0,0.2-0.1s0.1-0.1,0.1-0.1c0-0.1,0.1-0.2,0.1-0.3c0.1-0.4,0.3-0.8,0.6-1C197.4,64,197.8,63.9,198.2,63.9
														L198.2,63.9z"/>
													<g class="st28">
														<defs>
															<polyline id="SVGID_26_" points="218.6,214.3 218.6,8.7 1.6,8.7 1.6,214.3 1.6,214.3 															"/>
														</defs>
														<clipPath id="SVGID_27_">
															<use xlink:href="#SVGID_26_"  style="overflow:visible;"/>
														</clipPath>
														<path class="st29" d="M163.7,74.4c0.1,0,0.2,0,0.3,0c0,0,0.1,0.1,0.1,0.1c0,0,0.1,0.1,0.1,0.2c0,0.1,0.1,0.2,0.1,0.3
															c0,0.1,0.1,0.2,0.1,0.4c0.1,0.3,0.1,0.7,0.2,1c0.1,0.4,0.1,0.7,0.1,1c0.2-0.3,0.4-0.7,0.6-1c0.2-0.3,0.3-0.6,0.4-0.9
															c0.1-0.2,0.1-0.4,0.1-0.6c0-0.1,0-0.2-0.1-0.2c0,0-0.1-0.1-0.3-0.1l0-0.2h1l0.1,0.2c-0.2,0.5-0.4,1.1-0.8,1.6
															c-0.3,0.6-0.7,1.1-1.1,1.7c-0.4,0.5-0.7,0.9-1,1.2c-0.2,0.2-0.4,0.3-0.5,0.4c-0.1,0.1-0.3,0.1-0.4,0.1
															c-0.1,0-0.1,0-0.2,0s-0.1,0-0.2,0l0.2-0.7h0.3c0,0.2,0.1,0.2,0.2,0.2c0.1,0,0.3-0.1,0.5-0.3c0.2-0.2,0.4-0.4,0.7-0.8
															c-0.1-0.4-0.2-1-0.3-1.6c-0.1-0.7-0.2-1.1-0.3-1.2c-0.1-0.2-0.1-0.3-0.2-0.4c0,0-0.1,0-0.1,0c-0.1,0-0.2,0-0.2,0.1
															s-0.2,0.2-0.3,0.3l-0.2-0.2c0.2-0.3,0.3-0.4,0.5-0.5C163.4,74.5,163.5,74.4,163.7,74.4L163.7,74.4z"/>
														<g class="st30">
															<defs>
																<polyline id="SVGID_28_" points="218.6,214.3 218.6,8.7 1.6,8.7 1.6,214.3 1.6,214.3 																"/>
															</defs>
															<clipPath id="SVGID_29_">
																<use xlink:href="#SVGID_28_"  style="overflow:visible;"/>
															</clipPath>
															<path class="st31" d="M169.6,76.4h4.6v0.5h-4.6V76.4L169.6,76.4z M169.6,74.9h4.6v0.5h-4.6V74.9L169.6,74.9z"/>
															<g class="st32">
																<defs>
																	<polyline id="SVGID_30_" points="218.6,214.3 218.6,8.7 1.6,8.7 1.6,214.3 1.6,214.3 																	"/>
																</defs>
																<clipPath id="SVGID_31_">
																	<use xlink:href="#SVGID_30_"  style="overflow:visible;"/>
																</clipPath>
																<path class="st33" d="M180.3,72.7c0.2,0,0.5,0,0.6,0.1l-0.1,0.6h-0.3c0-0.1-0.1-0.2-0.1-0.3
																	c-0.1-0.1-0.1-0.1-0.2-0.1c-0.1,0-0.3,0-0.4,0.1c-0.1,0.1-0.2,0.2-0.3,0.3c-0.1,0.2-0.1,0.4-0.2,0.6l-0.1,0.4h1
																	l-0.1,0.4h-1l-0.7,3.2c-0.1,0.5-0.3,0.9-0.5,1.2c-0.2,0.3-0.5,0.4-0.9,0.4c-0.1,0-0.2,0-0.2,0l0.1-0.3
																	c0,0,0.1,0,0.2,0c0.1,0,0.2,0,0.3-0.1c0.1-0.1,0.2-0.2,0.2-0.3s0.1-0.3,0.2-0.6l0.8-3.5h-0.6l0.1-0.3
																	c0.2,0,0.3,0,0.4,0c0.1,0,0.1,0,0.2-0.1c0,0,0.1-0.1,0.1-0.1s0.1-0.2,0.1-0.3c0.1-0.4,0.3-0.8,0.6-1
																	S179.9,72.7,180.3,72.7L180.3,72.7z"/>
																<g class="st34">
																	<defs>
																		<polyline id="SVGID_32_" points="218.6,214.3 218.6,8.7 1.6,8.7 1.6,214.3 1.6,214.3 																		"/>
																	</defs>
																	<clipPath id="SVGID_33_">
																		<use xlink:href="#SVGID_32_"  style="overflow:visible;"/>
																	</clipPath>
																	<path class="st35" d="M184.1,72.7l0.1,0.3c-0.6,0.2-1,0.6-1.3,1.1c-0.3,0.6-0.4,1.2-0.4,2.1c0,0.9,0.1,1.6,0.4,2.1
																		s0.7,0.9,1.3,1.1l-0.1,0.3c-0.7-0.2-1.3-0.6-1.7-1.2c-0.4-0.6-0.6-1.4-0.6-2.3c0-0.9,0.2-1.7,0.6-2.3
																		C182.9,73.3,183.4,72.9,184.1,72.7L184.1,72.7z"/>
																	<g class="st36">
																		<defs>
																			<polyline id="SVGID_34_" points="218.6,214.3 218.6,8.7 1.6,8.7 1.6,214.3 1.6,214.3 																			"/>
																		</defs>
																		<clipPath id="SVGID_35_">
																			<use xlink:href="#SVGID_34_"  style="overflow:visible;"/>
																		</clipPath>
																		<path class="st37" d="M185.8,74.4c0.1,0,0.1,0,0.2,0c0.1,0,0.1,0,0.2,0.1s0.1,0.1,0.1,0.1s0.1,0.1,0.1,0.2
																			c0,0.1,0.1,0.2,0.1,0.4c0,0.1,0.1,0.3,0.1,0.5h0c0.2-0.3,0.4-0.6,0.5-0.7c0.1-0.2,0.2-0.3,0.3-0.3
																			c0.1-0.1,0.2-0.1,0.2-0.2c0.1,0,0.2,0,0.3,0c0.1,0,0.2,0,0.3,0l-0.1,0.7h-0.3c0-0.1-0.1-0.2-0.1-0.2
																			c0,0,0,0-0.1,0c0,0-0.1,0-0.1,0c0,0-0.1,0.1-0.2,0.1c-0.1,0.1-0.1,0.2-0.2,0.3c-0.1,0.1-0.2,0.2-0.3,0.3l-0.3,0.3
																			c0,0.2,0.1,0.4,0.1,0.6c0,0.2,0.1,0.3,0.1,0.4c0,0.1,0.1,0.2,0.1,0.3c0,0.1,0,0.1,0.1,0.2c0,0,0.1,0.1,0.1,0.1
																			c0,0,0.1,0,0.1,0c0.1,0,0.1,0,0.2-0.1c0.1-0.1,0.2-0.2,0.3-0.4l0.2,0.2c-0.2,0.3-0.3,0.4-0.5,0.5
																			c-0.1,0.1-0.3,0.2-0.5,0.2c-0.1,0-0.2,0-0.3-0.1c-0.1,0-0.1-0.1-0.2-0.2s-0.1-0.2-0.1-0.4
																			c-0.1-0.3-0.1-0.6-0.1-0.7h0c-0.3,0.4-0.5,0.6-0.6,0.8c-0.1,0.2-0.2,0.3-0.3,0.4c-0.1,0.1-0.2,0.1-0.2,0.2
																			c-0.1,0-0.2,0-0.3,0c-0.1,0-0.2,0-0.3,0l0.1-0.7h0.3c0,0.1,0.1,0.2,0.1,0.2c0,0,0.1,0,0.1,0c0,0,0.1-0.1,0.2-0.1
																			c0.1-0.1,0.2-0.2,0.3-0.3c0.1-0.2,0.3-0.4,0.5-0.7c0-0.2-0.1-0.4-0.1-0.6c0-0.2-0.1-0.3-0.1-0.5
																			c0-0.2-0.1-0.3-0.1-0.3c0,0-0.1-0.1-0.1-0.1c0,0-0.1,0-0.1,0c-0.1,0-0.1,0-0.1,0c0,0-0.1,0.1-0.1,0.1
																			s-0.1,0.1-0.2,0.3l-0.2-0.2c0.2-0.2,0.3-0.4,0.4-0.5C185.5,74.5,185.6,74.4,185.8,74.4L185.8,74.4z"/>
																		<g class="st38">
																			<defs>
																				<polyline id="SVGID_36_" points="218.6,214.3 218.6,8.7 1.6,8.7 1.6,214.3 1.6,214.3 																				"/>
																			</defs>
																			<clipPath id="SVGID_37_">
																				<use xlink:href="#SVGID_36_"  style="overflow:visible;"/>
																			</clipPath>
																			<path class="st39" d="M188.9,72.7c0.7,0.2,1.3,0.6,1.7,1.2c0.4,0.6,0.6,1.4,0.6,2.3c0,0.9-0.2,1.7-0.6,2.3
																				c-0.4,0.6-0.9,1-1.7,1.2l-0.1-0.3c0.6-0.2,1-0.6,1.3-1.1s0.4-1.3,0.4-2.1c0-0.8-0.1-1.5-0.4-2.1
																				c-0.3-0.6-0.7-0.9-1.3-1.1L188.9,72.7z"/>
																			<g class="st40">
																				<defs>
																					<polyline id="SVGID_38_" points="218.6,214.3 218.6,8.7 1.6,8.7 1.6,214.3 1.6,214.3 																					"/>
																				</defs>
																				<clipPath id="SVGID_39_">
																					<use xlink:href="#SVGID_38_"  style="overflow:visible;"/>
																				</clipPath>
																				<path class="st41" d="M40,92.2c17.5-7.9,35-15.7,51.2-16.2c16.2-0.5,31.5,10.9,46,13.2
																					c14.5,2.3,40.8,0.6,40.8,0.6l0,0"/>
																				<g class="st42">
																					<defs>
																						<polyline id="SVGID_40_" points="218.6,214.3 218.6,8.7 1.6,8.7 1.6,214.3 1.6,214.3 																						
																							"/>
																					</defs>
																					<clipPath id="SVGID_41_">
																						<use xlink:href="#SVGID_40_"  style="overflow:visible;"/>
																					</clipPath>
																					<path class="st43" d="M40.8,184.6c-0.4,0-0.8,0.2-1.1,0.5s-0.6,0.7-0.7,1.3c-0.2,0.5-0.3,1.1-0.3,1.6
																						c0,0.4,0.1,0.7,0.2,0.9c0.1,0.2,0.3,0.3,0.5,0.3c0.3,0,0.5-0.1,0.7-0.3c0.2-0.2,0.5-0.5,0.8-0.9
																						c0.3-0.4,0.4-0.9,0.5-1.4l0.1-0.2c0-0.2,0.1-0.3,0.1-0.4c0-0.1,0-0.2,0-0.4c0-0.3-0.1-0.5-0.2-0.7
																						S41.1,184.6,40.8,184.6L40.8,184.6z M40.7,184.1c0.2,0,0.5,0,0.7,0.1c0.2,0.1,0.4,0.2,0.7,0.3l0.5-0.4l0.4,0.1
																						l-0.8,3.7c-0.1,0.4-0.1,0.6-0.1,0.9c0,0.2,0,0.3,0.1,0.3c0,0.1,0.1,0.1,0.2,0.1c0.1,0,0.2,0,0.4-0.1
																						c0.1-0.1,0.3-0.3,0.6-0.5l0.3,0.3c-0.3,0.4-0.6,0.6-0.9,0.8c-0.2,0.2-0.5,0.2-0.8,0.2c-0.2,0-0.4-0.1-0.6-0.2
																						c-0.1-0.2-0.2-0.4-0.2-0.6c0-0.2,0-0.4,0.1-0.7l-0.1,0c-0.4,0.5-0.7,0.9-1,1.2c-0.3,0.2-0.7,0.4-1,0.4
																						c-0.4,0-0.7-0.2-1-0.5c-0.2-0.3-0.3-0.8-0.3-1.3c0-0.7,0.1-1.3,0.4-1.9c0.3-0.6,0.6-1.1,1.1-1.4
																						C39.6,184.3,40.1,184.1,40.7,184.1L40.7,184.1z"/>
																					<g class="st44">
																						<defs>
																							<polyline id="SVGID_42_" points="218.6,214.3 218.6,8.7 1.6,8.7 1.6,214.3 1.6,214.3 
																																															"/>
																						</defs>
																						<clipPath id="SVGID_43_">
																							<use xlink:href="#SVGID_42_"  style="overflow:visible;"/>
																						</clipPath>
																						<path class="st45" d="M179.2,186.8c-0.2,0-0.4,0.1-0.5,0.2c-0.2,0.1-0.4,0.3-0.6,0.6
																							c-0.2,0.3-0.4,0.5-0.5,0.8c-0.1,0.3-0.3,0.6-0.4,1.1l-0.1,0.2c-0.1,0.3-0.1,0.5-0.1,0.8
																							c0,0.3,0.1,0.5,0.2,0.7c0.1,0.1,0.4,0.2,0.7,0.2c0.2,0,0.3,0,0.4-0.1c0.1-0.1,0.3-0.1,0.4-0.3
																							c0.1-0.1,0.3-0.3,0.4-0.5c0.1-0.2,0.3-0.4,0.4-0.7c0.1-0.3,0.2-0.6,0.3-0.9c0.1-0.3,0.1-0.6,0.1-0.9
																							c0-0.4-0.1-0.7-0.2-0.9C179.6,186.9,179.4,186.8,179.2,186.8L179.2,186.8z M178.2,183.5h0.3l-1,4l0.1,0
																							c0.4-0.5,0.7-0.9,1-1.1c0.3-0.2,0.7-0.3,1-0.3c0.4,0,0.7,0.2,1,0.5c0.2,0.3,0.3,0.8,0.3,1.3
																							c0,0.6-0.1,1.3-0.4,1.9c-0.3,0.6-0.6,1.1-1.1,1.5c-0.5,0.4-1,0.5-1.5,0.5c-0.5,0-1-0.1-1.4-0.4l-0.5,0.4
																							l-0.4-0.1l1.5-6.6c0.1-0.4,0.1-0.7,0.1-0.9c0-0.2,0-0.3-0.1-0.3c-0.1-0.1-0.3-0.1-0.5-0.1l0.1-0.3
																							L178.2,183.5L178.2,183.5z"/>
																					</g>
																				</g>
																			</g>
																		</g>
																	</g>
																</g>
															</g>
														</g>
													</g>
												</g>
											</g>
										</g>
									</g>
								</g>
							</g>
						</g>
					</g>
				</g>
			</g>
		</g>
	</g>
</g>
<linearGradient id="SVGID_44_" gradientUnits="userSpaceOnUse" x1="313.7872" y1="147.4575" x2="313.7872" y2="147.4575">
	<stop  offset="2.024560e-07" style="stop-color:#0303C3;stop-opacity:0.5"/>
	<stop  offset="0.4877" style="stop-color:#FFFFFF;stop-opacity:0"/>
	<stop  offset="1" style="stop-color:#1414C7;stop-opacity:0.6"/>
</linearGradient>
<path class="st46" d="M313.8,147.5"/>
<g>
	<path class="st47" d="M111.6,196.5c-0.3,0-0.6,0.2-0.9,0.5c-0.3,0.3-0.5,0.7-0.6,1.2c0.4,0,0.8,0,1.1-0.1c0.3-0.1,0.5-0.2,0.7-0.3
		c0.2-0.2,0.2-0.4,0.2-0.6c0-0.2,0-0.3-0.1-0.4C111.9,196.6,111.8,196.5,111.6,196.5L111.6,196.5z M97.1,196.5
		c-0.3,0-0.6,0.1-0.8,0.4s-0.4,0.6-0.6,1c-0.1,0.4-0.2,0.8-0.2,1.2c0,0.3,0,0.5,0.1,0.7s0.2,0.2,0.4,0.2c0.2,0,0.3-0.1,0.4-0.2
		s0.3-0.3,0.5-0.5c0.2-0.2,0.3-0.4,0.4-0.6c0.1-0.2,0.2-0.5,0.2-0.8c0.1-0.3,0.1-0.6,0.1-0.8c0-0.2,0-0.4-0.1-0.5
		C97.5,196.6,97.3,196.5,97.1,196.5L97.1,196.5z M92.7,196.2H93l-0.6,2.8c-0.1,0.3-0.1,0.5-0.1,0.7c0,0.1,0,0.2,0.1,0.3
		c0,0.1,0.1,0.1,0.2,0.1c0.1,0,0.2,0,0.3-0.1c0.1-0.1,0.2-0.2,0.4-0.4l0.3,0.2c-0.3,0.3-0.5,0.5-0.7,0.6c-0.2,0.1-0.4,0.2-0.6,0.2
		c-0.2,0-0.3-0.1-0.5-0.2c-0.1-0.1-0.2-0.3-0.2-0.5c0-0.2,0-0.5,0.1-0.9l0.3-1.4c0.1-0.3,0.1-0.5,0.1-0.7c0-0.1,0-0.2-0.1-0.3
		s-0.2-0.1-0.4-0.1l0-0.2L92.7,196.2L92.7,196.2z M111.8,196.2c0.4,0,0.6,0.1,0.8,0.2s0.3,0.4,0.3,0.7c0,0.5-0.2,0.9-0.7,1.1
		s-1.2,0.4-2.1,0.4c0,0.2-0.1,0.4-0.1,0.6c0,0.3,0.1,0.5,0.2,0.7c0.1,0.1,0.3,0.2,0.6,0.2c0.3,0,0.5-0.1,0.7-0.2s0.5-0.3,0.7-0.5
		l0.3,0.3c-0.3,0.3-0.6,0.6-0.9,0.7c-0.3,0.2-0.6,0.2-1,0.2c-0.4,0-0.8-0.1-1-0.4c-0.2-0.3-0.4-0.6-0.4-1.1c0-0.3,0.1-0.7,0.2-1
		s0.3-0.7,0.5-1c0.2-0.3,0.5-0.5,0.8-0.7S111.4,196.2,111.8,196.2L111.8,196.2z M105.8,196.2c0.2,0,0.3,0.1,0.4,0.2s0.2,0.3,0.2,0.5
		c0,0.1,0,0.3-0.1,0.5l0.1,0c0.3-0.4,0.6-0.7,0.8-0.9c0.3-0.2,0.5-0.3,0.8-0.3c0.2,0,0.4,0,0.5,0l-0.2,1h-0.5c0-0.1,0-0.2-0.1-0.3
		c0-0.1-0.1-0.1-0.1-0.1c0,0-0.1,0-0.2,0c-0.1,0-0.2,0-0.3,0.1c-0.1,0.1-0.3,0.2-0.4,0.4c-0.2,0.2-0.3,0.4-0.4,0.6
		c-0.1,0.2-0.2,0.4-0.2,0.7l-0.4,1.9H105l0.6-2.8c0-0.2,0.1-0.3,0.1-0.4c0-0.1,0-0.2,0-0.2c0-0.1,0-0.2-0.1-0.3
		c0-0.1-0.1-0.1-0.2-0.1c-0.1,0-0.2,0-0.3,0.1c-0.1,0.1-0.2,0.2-0.4,0.4l-0.3-0.2c0.3-0.3,0.5-0.5,0.7-0.6
		C105.4,196.2,105.6,196.2,105.8,196.2L105.8,196.2z M100.7,196.2c0.2,0,0.3,0.1,0.4,0.2s0.2,0.3,0.2,0.5c0,0.2,0,0.5-0.1,0.9
		l-0.2,0.8c-0.1,0.2-0.1,0.3-0.1,0.5s0,0.2,0,0.3c0,0.1,0,0.1,0,0.2c0,0.2,0,0.4,0.1,0.4c0.1,0.1,0.2,0.1,0.3,0.1
		c0.1,0,0.3,0,0.4-0.1c0.1-0.1,0.3-0.2,0.5-0.4c0.2-0.2,0.3-0.4,0.4-0.6c0.1-0.2,0.2-0.4,0.2-0.7l0.4-1.9h0.8l-0.6,2.8
		c-0.1,0.3-0.1,0.5-0.1,0.7c0,0.1,0,0.2,0.1,0.3c0,0.1,0.1,0.1,0.2,0.1c0.1,0,0.2,0,0.3-0.1c0.1-0.1,0.2-0.2,0.4-0.4l0.3,0.2
		c-0.3,0.3-0.5,0.5-0.7,0.6c-0.2,0.1-0.4,0.2-0.6,0.2c-0.2,0-0.3-0.1-0.4-0.2c-0.1-0.1-0.2-0.3-0.2-0.5c0-0.2,0-0.3,0.1-0.5l-0.1,0
		c-0.3,0.4-0.6,0.7-0.8,0.9s-0.5,0.3-0.8,0.3c-0.3,0-0.5-0.1-0.6-0.2c-0.1-0.2-0.2-0.4-0.2-0.7c0-0.2,0-0.4,0.1-0.8l0.3-1.2
		c0.1-0.3,0.1-0.5,0.1-0.7c0-0.1,0-0.2-0.1-0.3c0-0.1-0.1-0.1-0.2-0.1c-0.1,0-0.2,0-0.3,0.1c-0.1,0.1-0.2,0.2-0.4,0.4l-0.3-0.2
		c0.3-0.3,0.4-0.4,0.6-0.5c0.1-0.1,0.2-0.2,0.4-0.2C100.4,196.2,100.5,196.2,100.7,196.2L100.7,196.2z M97,196.2
		c0.2,0,0.4,0,0.5,0.1c0.2,0,0.3,0.1,0.5,0.2l0.4-0.3l0.3,0.1l-0.5,2.1c0,0.1-0.1,0.5-0.2,1.1c-0.1,0.6-0.2,1.1-0.3,1.3
		c-0.1,0.3-0.2,0.5-0.3,0.7c-0.1,0.2-0.3,0.4-0.4,0.6c-0.2,0.2-0.4,0.3-0.6,0.4c-0.3,0.1-0.6,0.1-0.9,0.1c-1.1,0-1.7-0.3-1.7-1
		c0-0.2,0.1-0.3,0.2-0.5c0.1-0.1,0.3-0.3,0.5-0.4l0.3,0.3c-0.1,0.1-0.1,0.1-0.1,0.2c0,0.1-0.1,0.1-0.1,0.2s0,0.1,0,0.2
		c0,0.2,0.1,0.4,0.2,0.5c0.2,0.1,0.4,0.2,0.7,0.2c0.4,0,0.7-0.1,0.9-0.2c0.2-0.2,0.4-0.4,0.6-0.8c0.2-0.4,0.3-0.9,0.5-1.6l-0.1,0
		c-0.3,0.4-0.6,0.7-0.8,0.9s-0.5,0.3-0.8,0.3c-0.3,0-0.6-0.1-0.7-0.4s-0.3-0.6-0.3-1c0-0.5,0.1-1,0.3-1.5c0.2-0.5,0.5-0.8,0.8-1.1
		S96.6,196.2,97,196.2L97,196.2z M92.6,194.5h0.8l-0.2,0.9h-0.8L92.6,194.5L92.6,194.5z M90,194.1c0.3,0,0.5,0,0.7,0.1l-0.2,0.8
		h-0.4c0-0.2-0.1-0.3-0.2-0.4c-0.1-0.1-0.2-0.1-0.3-0.1c-0.2,0-0.3,0-0.4,0.1c-0.1,0.1-0.2,0.2-0.3,0.4c-0.1,0.2-0.2,0.4-0.2,0.7
		l-0.1,0.5h1.1l-0.1,0.4h-1.1l-0.8,3.9c-0.1,0.6-0.3,1.1-0.6,1.4s-0.6,0.5-1.1,0.5c-0.1,0-0.2,0-0.3,0l0.1-0.4c0,0,0.1,0,0.2,0
		c0.1,0,0.2,0,0.3-0.1s0.2-0.2,0.3-0.4c0.1-0.2,0.2-0.4,0.2-0.7l1-4.2h-0.7l0.1-0.3c0.2,0,0.3,0,0.4,0c0.1,0,0.2-0.1,0.2-0.1
		c0,0,0.1-0.1,0.1-0.2c0-0.1,0.1-0.2,0.1-0.4c0.2-0.5,0.4-0.9,0.7-1.2S89.5,194.1,90,194.1L90,194.1z"/>
	<path class="st47" d="M118.9,194.1l0.1,0.3c-0.7,0.2-1.2,0.7-1.5,1.3c-0.3,0.7-0.5,1.5-0.5,2.5c0,1,0.2,1.9,0.5,2.6
		c0.3,0.7,0.8,1.1,1.5,1.3l-0.1,0.3c-0.9-0.2-1.5-0.7-2-1.5c-0.5-0.8-0.7-1.7-0.7-2.7c0-1.1,0.2-2,0.7-2.7
		C117.4,194.8,118.1,194.3,118.9,194.1L118.9,194.1z"/>
	<path class="st47" d="M121.7,194.7c-0.2,0-0.4,0.1-0.5,0.2c-0.1,0.1-0.2,0.3-0.3,0.5c-0.1,0.2-0.1,0.5-0.2,0.8
		c0,0.3-0.1,0.7-0.1,1.1c0,1,0.1,1.7,0.3,2.1c0.2,0.4,0.5,0.7,0.8,0.7c0.4,0,0.6-0.2,0.8-0.6c0.2-0.4,0.3-1.1,0.3-2
		c0-0.7,0-1.2-0.1-1.6s-0.2-0.7-0.4-0.9C122.1,194.8,121.9,194.7,121.7,194.7L121.7,194.7z M126.8,194.4c0.5,0,1,0.1,1.2,0.4
		c0.3,0.2,0.4,0.6,0.4,1c0,0.2,0,0.3,0,0.4c0,0.1-0.1,0.3-0.1,0.4c-0.1,0.1-0.2,0.3-0.3,0.4c-0.1,0.1-0.2,0.3-0.4,0.4
		c-0.1,0.2-0.4,0.4-0.7,0.8c-0.6,0.6-1,1.1-1.2,1.6h1.7c0.1,0,0.3,0,0.3,0c0.1,0,0.2,0,0.2-0.1c0.1,0,0.1-0.1,0.1-0.2
		s0.1-0.2,0.1-0.3h0.4l-0.1,1.3h-3.6v-0.2c0.1-0.3,0.3-0.6,0.5-1c0.2-0.3,0.5-0.7,0.9-1.1c0.3-0.4,0.6-0.7,0.7-0.9
		c0.2-0.2,0.3-0.4,0.4-0.6c0.1-0.2,0.1-0.3,0.2-0.4s0.1-0.3,0.1-0.4c0-0.2,0-0.4-0.1-0.6s-0.2-0.3-0.3-0.4c-0.1-0.1-0.3-0.1-0.6-0.1
		c-0.6,0-0.9,0.3-1.1,0.9h-0.5v-0.8c0.4-0.2,0.7-0.3,1-0.4C126.3,194.4,126.5,194.4,126.8,194.4L126.8,194.4z M121.7,194.4
		c0.6,0,1.1,0.2,1.4,0.7s0.5,1.3,0.5,2.3c0,1-0.2,1.8-0.5,2.4c-0.3,0.5-0.8,0.8-1.5,0.8c-0.6,0-1.1-0.3-1.4-0.8
		c-0.3-0.5-0.5-1.3-0.5-2.3c0-0.5,0-1,0.1-1.4c0.1-0.4,0.2-0.7,0.4-1c0.2-0.3,0.4-0.4,0.6-0.6C121.2,194.4,121.5,194.4,121.7,194.4
		L121.7,194.4z"/>
	<path class="st47" d="M129.5,194.1c0.9,0.2,1.5,0.7,2,1.5c0.5,0.8,0.7,1.7,0.7,2.7c0,1.1-0.2,2-0.7,2.7c-0.5,0.8-1.1,1.2-2,1.5
		l-0.1-0.3c0.7-0.2,1.2-0.7,1.5-1.3c0.3-0.7,0.5-1.5,0.5-2.6c0-1-0.2-1.8-0.5-2.5s-0.8-1.1-1.5-1.3L129.5,194.1z"/>
</g>
</svg>
