<?xml version="1.0" encoding="utf-8"?>
<!-- Generator: Adobe Illustrator 23.0.2, SVG Export Plug-In . SVG Version: 6.00 Build 0)  -->
<svg version="1.0" id="Layer_1" xmlns="http://www.w3.org/2000/svg" xmlns:xlink="http://www.w3.org/1999/xlink" x="0px" y="0px"
	 viewBox="0 0 220 220" style="enable-background:new 0 0 220 220;" xml:space="preserve">
<style type="text/css">
	.st0{fill-rule:evenodd;clip-rule:evenodd;fill:#FFFFFF;}
	.st1{fill:url(#SVGID_1_);stroke:#0303C3;stroke-width:0.9495;stroke-miterlimit:8;}
	.st2{clip-path:url(#SVGID_3_);fill:none;stroke:#000000;stroke-width:0.422;stroke-miterlimit:8;}
	.st3{clip-path:url(#SVGID_3_);}
	.st4{clip-path:url(#SVGID_5_);fill:none;stroke:#000000;stroke-width:1.266;stroke-miterlimit:8;}
	.st5{clip-path:url(#SVGID_5_);fill-rule:evenodd;clip-rule:evenodd;}
	.st6{clip-path:url(#SVGID_5_);}
	.st7{clip-path:url(#SVGID_7_);fill:none;stroke:#000000;stroke-width:1.266;stroke-miterlimit:8;}
	.st8{clip-path:url(#SVGID_7_);fill-rule:evenodd;clip-rule:evenodd;}
	.st9{clip-path:url(#SVGID_7_);}
	.st10{clip-path:url(#SVGID_9_);fill-rule:evenodd;clip-rule:evenodd;}
	.st11{clip-path:url(#SVGID_9_);}
	.st12{clip-path:url(#SVGID_11_);fill-rule:evenodd;clip-rule:evenodd;}
	.st13{clip-path:url(#SVGID_11_);}
	.st14{clip-path:url(#SVGID_13_);fill-rule:evenodd;clip-rule:evenodd;}
	.st15{clip-path:url(#SVGID_13_);}
	.st16{clip-path:url(#SVGID_15_);fill-rule:evenodd;clip-rule:evenodd;}
	.st17{clip-path:url(#SVGID_15_);}
	.st18{clip-path:url(#SVGID_17_);fill-rule:evenodd;clip-rule:evenodd;}
	.st19{clip-path:url(#SVGID_17_);}
	.st20{clip-path:url(#SVGID_19_);fill-rule:evenodd;clip-rule:evenodd;}
	.st21{clip-path:url(#SVGID_19_);}
	.st22{clip-path:url(#SVGID_21_);fill-rule:evenodd;clip-rule:evenodd;}
	.st23{clip-path:url(#SVGID_21_);}
	.st24{clip-path:url(#SVGID_23_);fill-rule:evenodd;clip-rule:evenodd;}
	.st25{clip-path:url(#SVGID_23_);}
	.st26{clip-path:url(#SVGID_25_);fill-rule:evenodd;clip-rule:evenodd;}
	.st27{clip-path:url(#SVGID_25_);}
	.st28{clip-path:url(#SVGID_27_);fill-rule:evenodd;clip-rule:evenodd;}
	.st29{clip-path:url(#SVGID_27_);}
	.st30{clip-path:url(#SVGID_29_);fill-rule:evenodd;clip-rule:evenodd;}
	.st31{clip-path:url(#SVGID_29_);}
	.st32{clip-path:url(#SVGID_31_);fill-rule:evenodd;clip-rule:evenodd;}
	.st33{clip-path:url(#SVGID_31_);}
	.st34{clip-path:url(#SVGID_33_);fill-rule:evenodd;clip-rule:evenodd;}
	.st35{clip-path:url(#SVGID_33_);}
	.st36{clip-path:url(#SVGID_35_);fill-rule:evenodd;clip-rule:evenodd;}
	.st37{clip-path:url(#SVGID_35_);}
	.st38{clip-path:url(#SVGID_37_);fill-rule:evenodd;clip-rule:evenodd;}
	.st39{clip-path:url(#SVGID_37_);}
	.st40{clip-path:url(#SVGID_39_);fill-rule:evenodd;clip-rule:evenodd;}
	.st41{clip-path:url(#SVGID_39_);}
	.st42{clip-path:url(#SVGID_41_);fill:none;stroke:#000000;stroke-width:1.266;stroke-miterlimit:8;}
	.st43{clip-path:url(#SVGID_41_);}
	.st44{clip-path:url(#SVGID_43_);fill-rule:evenodd;clip-rule:evenodd;}
	.st45{clip-path:url(#SVGID_43_);}
	.st46{clip-path:url(#SVGID_45_);fill-rule:evenodd;clip-rule:evenodd;}
	.st47{clip-path:url(#SVGID_45_);}
	.st48{clip-path:url(#SVGID_47_);}
	.st49{fill:none;stroke:#000000;stroke-width:0.633;stroke-miterlimit:8;}
	.st50{clip-path:url(#SVGID_49_);fill:none;stroke:#000000;stroke-width:0.633;stroke-miterlimit:8;}
	.st51{clip-path:url(#SVGID_49_);}
	.st52{clip-path:url(#SVGID_51_);fill-rule:evenodd;clip-rule:evenodd;}
	.st53{clip-path:url(#SVGID_51_);}
	.st54{clip-path:url(#SVGID_53_);fill-rule:evenodd;clip-rule:evenodd;}
	.st55{fill:none;stroke:#000000;stroke-width:0.422;stroke-miterlimit:8;stroke-dasharray:5,2;}
</style>
<g>
	<polygon class="st0" points="86,76.1 94.7,76.1 94.7,180.2 86,180.2 86,76.1 	"/>
	<radialGradient id="SVGID_1_" cx="90.351" cy="128.1307" r="36.9177" gradientUnits="userSpaceOnUse">
		<stop  offset="0" style="stop-color:#0303C3;stop-opacity:0.6"/>
		<stop  offset="0" style="stop-color:#0505C4;stop-opacity:0.5819"/>
		<stop  offset="0" style="stop-color:#0E0EC5;stop-opacity:0.5712"/>
		<stop  offset="0" style="stop-color:#1C1CC9;stop-opacity:0.5626"/>
		<stop  offset="0" style="stop-color:#3030CD;stop-opacity:0.555"/>
		<stop  offset="0" style="stop-color:#3737CF;stop-opacity:0.5528"/>
		<stop  offset="9.867089e-02" style="stop-color:#3D3DD0;stop-opacity:0.5256"/>
		<stop  offset="0.2328" style="stop-color:#4F4FD5;stop-opacity:0.4886"/>
		<stop  offset="0.3874" style="stop-color:#6B6BDC;stop-opacity:0.4459"/>
		<stop  offset="0.5572" style="stop-color:#9393E5;stop-opacity:0.399"/>
		<stop  offset="0.7372" style="stop-color:#C5C5F1;stop-opacity:0.3494"/>
		<stop  offset="0.9162" style="stop-color:#FFFFFF;stop-opacity:0.3"/>
		<stop  offset="1" style="stop-color:#E9E9FA;stop-opacity:0.1369"/>
	</radialGradient>
	<path class="st1" d="M86,76.6c2.9-0.2,5.7-0.3,8.6-0.5v104.1H86C86,145.6,86,111.1,86,76.6z"/>
	<g>
		<defs>
			<polygon id="SVGID_2_" points="1.9,214.5 219,214.5 219,8.9 1.9,8.9 1.9,214.5 			"/>
		</defs>
		<clipPath id="SVGID_3_">
			<use xlink:href="#SVGID_2_"  style="overflow:visible;"/>
		</clipPath>
		<polygon class="st2" points="40.3,92 40.3,113.3 40.3,179.8 178.4,180.4 178.1,89.6 141,89.9 126,86.2 111.6,80.1 99.7,77 
			90.2,76.1 80.1,77.6 67.2,81.6 47.3,89.6 40.3,92 40.3,92 		"/>
		<g class="st3">
			<defs>
				<polygon id="SVGID_4_" points="1.9,214.5 219,214.5 219,8.9 1.9,8.9 1.9,214.5 				"/>
			</defs>
			<clipPath id="SVGID_5_">
				<use xlink:href="#SVGID_4_"  style="overflow:visible;"/>
			</clipPath>
			<line class="st4" x1="8.1" y1="180.2" x2="205.4" y2="180.2"/>
			<polygon class="st5" points="204.7,178.3 208.5,180.2 204.7,182.1 204.7,178.3 			"/>
			<g class="st6">
				<defs>
					<polygon id="SVGID_6_" points="1.9,214.5 219,214.5 219,8.9 1.9,8.9 1.9,214.5 					"/>
				</defs>
				<clipPath id="SVGID_7_">
					<use xlink:href="#SVGID_6_"  style="overflow:visible;"/>
				</clipPath>
				<line class="st7" x1="17.7" y1="190.1" x2="17.7" y2="25.3"/>
				<polygon class="st8" points="19.6,25.9 17.7,22.1 15.8,25.9 19.6,25.9 				"/>
				<g class="st9">
					<defs>
						<polygon id="SVGID_8_" points="1.9,214.5 219,214.5 219,8.9 1.9,8.9 1.9,214.5 						"/>
					</defs>
					<clipPath id="SVGID_9_">
						<use xlink:href="#SVGID_8_"  style="overflow:visible;"/>
					</clipPath>
					<path class="st10" d="M7.5,17.5c0.2,0,0.4,0,0.5,0.1c0.1,0,0.2,0.1,0.3,0.2c0.1,0.1,0.2,0.2,0.3,0.4c0.1,0.2,0.1,0.3,0.2,0.5
						c0.1,0.2,0.1,0.5,0.2,0.9c0.1,0.6,0.2,1.3,0.3,2s0.2,1.4,0.3,2c0.5-0.7,0.9-1.4,1.2-2c0.3-0.7,0.6-1.2,0.7-1.7s0.2-0.9,0.2-1.2
						c0-0.2,0-0.4-0.1-0.5c-0.1-0.1-0.3-0.1-0.5-0.1l0.1-0.4h2l0.2,0.4c-0.4,1-0.9,2.1-1.5,3.3c-0.6,1.1-1.4,2.3-2.2,3.4
						c-0.8,1.1-1.4,1.9-2,2.4c-0.4,0.3-0.7,0.6-1,0.7c-0.3,0.1-0.6,0.2-0.9,0.2c-0.1,0-0.2,0-0.4,0c-0.1,0-0.2,0-0.3-0.1l0.3-1.4H6
						c0,0.3,0.1,0.5,0.3,0.5c0.3,0,0.6-0.2,1-0.5c0.4-0.4,0.8-0.9,1.3-1.6c-0.1-0.9-0.3-1.9-0.6-3.1c-0.3-1.3-0.4-2.1-0.5-2.4
						c-0.1-0.4-0.2-0.6-0.3-0.7c-0.1-0.1-0.2-0.1-0.3-0.1c-0.2,0-0.3,0.1-0.4,0.2S6.2,18.9,6,19.2l-0.5-0.3c0.3-0.5,0.7-0.9,1-1.1
						S7.1,17.5,7.5,17.5L7.5,17.5z"/>
					<g class="st11">
						<defs>
							<polygon id="SVGID_10_" points="1.9,214.5 219,214.5 219,8.9 1.9,8.9 1.9,214.5 							"/>
						</defs>
						<clipPath id="SVGID_11_">
							<use xlink:href="#SVGID_10_"  style="overflow:visible;"/>
						</clipPath>
						<path class="st12" d="M206.8,184.9c0.2,0,0.3,0,0.4,0.1c0.1,0,0.2,0.1,0.3,0.2s0.2,0.2,0.2,0.3c0.1,0.1,0.1,0.3,0.2,0.5
							c0.1,0.2,0.1,0.4,0.2,0.7c0.1,0.3,0.1,0.6,0.2,0.9h0.1c0.5-0.7,0.8-1.2,1.1-1.5c0.2-0.3,0.5-0.5,0.6-0.7s0.3-0.3,0.5-0.3
							s0.4-0.1,0.6-0.1c0.2,0,0.4,0,0.6,0.1l-0.3,1.3h-0.5c0-0.2-0.1-0.3-0.3-0.3c0,0-0.1,0-0.1,0c0,0-0.1,0-0.2,0.1
							s-0.2,0.1-0.3,0.3c-0.1,0.1-0.3,0.3-0.5,0.5c-0.2,0.2-0.4,0.4-0.5,0.7l-0.5,0.6c0.1,0.5,0.2,0.9,0.3,1.2
							c0.1,0.3,0.1,0.6,0.2,0.9c0.1,0.2,0.1,0.4,0.2,0.5c0,0.1,0.1,0.2,0.2,0.3s0.1,0.1,0.2,0.1c0.1,0,0.1,0,0.2,0
							c0.1,0,0.3-0.1,0.4-0.2c0.1-0.1,0.3-0.3,0.5-0.7l0.5,0.3c-0.3,0.5-0.7,0.9-0.9,1.1c-0.3,0.2-0.6,0.3-1,0.3
							c-0.2,0-0.4,0-0.5-0.1c-0.1-0.1-0.3-0.2-0.4-0.4c-0.1-0.2-0.2-0.4-0.3-0.8c-0.2-0.6-0.2-1.1-0.3-1.5h-0.1
							c-0.5,0.7-0.9,1.3-1.2,1.6c-0.3,0.3-0.5,0.6-0.6,0.7c-0.2,0.2-0.3,0.3-0.5,0.3c-0.2,0.1-0.4,0.1-0.6,0.1c-0.2,0-0.4,0-0.6-0.1
							l0.3-1.3h0.5c0,0.2,0.1,0.3,0.3,0.3c0.1,0,0.1,0,0.2-0.1c0.1,0,0.2-0.1,0.3-0.3c0.1-0.1,0.3-0.4,0.6-0.7
							c0.3-0.3,0.6-0.8,1.1-1.4c-0.1-0.4-0.2-0.8-0.2-1.1c-0.1-0.4-0.2-0.7-0.2-1c-0.1-0.3-0.2-0.5-0.2-0.6s-0.1-0.2-0.2-0.2
							c-0.1,0-0.1-0.1-0.2-0.1c-0.1,0-0.2,0-0.3,0.1c-0.1,0-0.2,0.1-0.3,0.2s-0.2,0.3-0.4,0.5l-0.5-0.3c0.3-0.5,0.6-0.8,0.9-1.1
							C206,185,206.4,184.9,206.8,184.9L206.8,184.9z"/>
						<g class="st13">
							<defs>
								<polygon id="SVGID_12_" points="1.9,214.5 219,214.5 219,8.9 1.9,8.9 1.9,214.5 								"/>
							</defs>
							<clipPath id="SVGID_13_">
								<use xlink:href="#SVGID_12_"  style="overflow:visible;"/>
							</clipPath>
							<path class="st14" d="M9.9,185.5c-0.5,0-1,0.2-1.3,0.6s-0.7,1-0.9,1.8s-0.3,1.5-0.3,2.1c0,0.5,0.1,0.9,0.3,1.2
								c0.2,0.3,0.6,0.4,1,0.4c0.5,0,0.9-0.2,1.3-0.7c0.4-0.4,0.7-1,0.9-1.8s0.3-1.5,0.3-2.1c0-0.5-0.1-0.9-0.3-1.2
								C10.7,185.6,10.3,185.5,9.9,185.5L9.9,185.5z M10,184.9c0.8,0,1.4,0.2,1.8,0.6c0.4,0.4,0.6,1.1,0.6,1.9
								c0,0.6-0.1,1.2-0.3,1.8c-0.2,0.7-0.5,1.2-0.8,1.6s-0.8,0.8-1.2,1s-1,0.3-1.7,0.3c-0.8,0-1.4-0.2-1.8-0.6
								c-0.4-0.4-0.6-1-0.6-1.9c0-0.4,0.1-0.9,0.2-1.4c0.2-0.7,0.4-1.3,0.8-1.8c0.4-0.5,0.8-0.9,1.3-1.2C8.8,185,9.4,184.9,10,184.9
								L10,184.9z"/>
							<g class="st15">
								<defs>
									<polygon id="SVGID_14_" points="1.9,214.5 219,214.5 219,8.9 1.9,8.9 1.9,214.5 									"/>
								</defs>
								<clipPath id="SVGID_15_">
									<use xlink:href="#SVGID_14_"  style="overflow:visible;"/>
								</clipPath>
								<path class="st16" d="M114.5,205.8c-0.3,0-0.7,0.2-1,0.5s-0.5,0.8-0.7,1.4c0.5,0,0.9,0,1.2-0.1c0.3-0.1,0.6-0.2,0.8-0.4
									c0.2-0.2,0.3-0.4,0.3-0.7c0-0.2,0-0.4-0.1-0.5C114.8,205.8,114.7,205.8,114.5,205.8L114.5,205.8z M98.3,205.8
									c-0.3,0-0.6,0.1-0.9,0.4s-0.5,0.6-0.6,1.1c-0.2,0.5-0.2,0.9-0.2,1.4c0,0.3,0,0.6,0.1,0.8c0.1,0.2,0.3,0.3,0.5,0.3
									c0.2,0,0.3-0.1,0.5-0.2s0.3-0.3,0.5-0.5c0.2-0.3,0.3-0.5,0.4-0.7c0.1-0.2,0.2-0.5,0.3-0.9c0.1-0.3,0.1-0.6,0.1-0.9
									c0-0.3-0.1-0.4-0.2-0.6S98.6,205.8,98.3,205.8L98.3,205.8z M93.4,205.4h0.3l-0.7,3.2c-0.1,0.3-0.1,0.6-0.1,0.7
									c0,0.1,0,0.2,0.1,0.3c0,0.1,0.1,0.1,0.2,0.1c0.1,0,0.2,0,0.3-0.1c0.1-0.1,0.3-0.2,0.5-0.5l0.3,0.3c-0.3,0.3-0.6,0.6-0.8,0.7
									c-0.2,0.1-0.4,0.2-0.7,0.2c-0.2,0-0.4-0.1-0.5-0.2c-0.1-0.2-0.2-0.4-0.2-0.6c0-0.3,0-0.6,0.1-1l0.4-1.6
									c0.1-0.3,0.1-0.6,0.1-0.7c0-0.1,0-0.2-0.1-0.3c-0.1-0.1-0.2-0.1-0.4-0.1l0.1-0.3L93.4,205.4L93.4,205.4z M114.7,205.4
									c0.4,0,0.7,0.1,0.9,0.2s0.3,0.4,0.3,0.8c0,0.6-0.3,1-0.8,1.3s-1.3,0.4-2.3,0.4c0,0.2-0.1,0.4-0.1,0.6c0,0.3,0.1,0.6,0.2,0.8
									c0.1,0.2,0.4,0.2,0.7,0.2c0.3,0,0.6-0.1,0.8-0.2c0.2-0.1,0.5-0.3,0.8-0.6l0.3,0.3c-0.3,0.4-0.6,0.6-1,0.8
									c-0.3,0.2-0.7,0.3-1.1,0.3c-0.5,0-0.8-0.1-1.1-0.4c-0.3-0.3-0.4-0.7-0.4-1.2c0-0.4,0.1-0.7,0.2-1.1c0.1-0.4,0.3-0.8,0.6-1.1
									c0.3-0.3,0.6-0.6,0.9-0.7C113.9,205.5,114.3,205.4,114.7,205.4L114.7,205.4z M108.1,205.4c0.2,0,0.4,0.1,0.5,0.2
									c0.1,0.1,0.2,0.3,0.2,0.5c0,0.2,0,0.3-0.1,0.5l0.1,0c0.3-0.4,0.6-0.8,0.9-1c0.3-0.2,0.6-0.3,0.9-0.3c0.2,0,0.4,0,0.6,0.1
									l-0.2,1.1h-0.5c0-0.1,0-0.2-0.1-0.3c0-0.1-0.1-0.1-0.1-0.2c0,0-0.1,0-0.2,0c-0.1,0-0.2,0.1-0.4,0.2
									c-0.1,0.1-0.3,0.3-0.5,0.5c-0.2,0.2-0.3,0.4-0.4,0.6c-0.1,0.2-0.2,0.5-0.3,0.8l-0.5,2.1h-0.9l0.7-3.1c0-0.2,0.1-0.4,0.1-0.5
									c0-0.1,0-0.2,0-0.3c0-0.1,0-0.2-0.1-0.3c0-0.1-0.1-0.1-0.2-0.1c-0.1,0-0.2,0-0.3,0.1c-0.1,0.1-0.3,0.2-0.5,0.5l-0.3-0.3
									c0.3-0.3,0.6-0.5,0.8-0.7C107.6,205.5,107.8,205.4,108.1,205.4L108.1,205.4z M102.3,205.4c0.2,0,0.4,0.1,0.5,0.2
									c0.1,0.1,0.2,0.3,0.2,0.6c0,0.3-0.1,0.6-0.2,1l-0.2,0.9c-0.1,0.2-0.1,0.4-0.1,0.5s0,0.2-0.1,0.3c0,0.1,0,0.2,0,0.2
									c0,0.2,0,0.4,0.1,0.5s0.2,0.2,0.4,0.2c0.1,0,0.3-0.1,0.4-0.2s0.3-0.3,0.5-0.5c0.2-0.2,0.3-0.4,0.4-0.6
									c0.1-0.2,0.2-0.5,0.3-0.8l0.5-2.1h0.9l-0.7,3.1c-0.1,0.3-0.1,0.6-0.1,0.7c0,0.1,0,0.2,0.1,0.3c0,0.1,0.1,0.1,0.2,0.1
									c0.1,0,0.2,0,0.3-0.1c0.1-0.1,0.3-0.2,0.5-0.5l0.3,0.3c-0.3,0.3-0.6,0.5-0.8,0.7c-0.2,0.1-0.4,0.2-0.7,0.2
									c-0.2,0-0.4-0.1-0.5-0.2c-0.1-0.1-0.2-0.3-0.2-0.5c0-0.2,0-0.4,0.1-0.6l-0.1,0c-0.3,0.5-0.6,0.8-0.9,1
									c-0.3,0.2-0.6,0.3-0.9,0.3c-0.3,0-0.5-0.1-0.7-0.3c-0.2-0.2-0.2-0.4-0.2-0.7c0-0.2,0-0.5,0.1-0.9l0.3-1.3
									c0.1-0.4,0.1-0.6,0.1-0.8c0-0.1,0-0.2-0.1-0.3c0-0.1-0.1-0.1-0.2-0.1c-0.1,0-0.2,0-0.3,0.1c-0.1,0.1-0.3,0.2-0.5,0.5
									l-0.3-0.3c0.3-0.3,0.5-0.5,0.6-0.6s0.3-0.2,0.4-0.2C102,205.4,102.1,205.4,102.3,205.4L102.3,205.4z M98.2,205.4
									c0.2,0,0.4,0,0.6,0.1c0.2,0,0.4,0.1,0.6,0.3l0.5-0.3l0.3,0.1l-0.5,2.3c0,0.2-0.1,0.6-0.2,1.2c-0.1,0.7-0.2,1.2-0.3,1.5
									c-0.1,0.3-0.2,0.5-0.3,0.8c-0.1,0.2-0.3,0.4-0.5,0.6c-0.2,0.2-0.4,0.3-0.7,0.4c-0.3,0.1-0.6,0.1-1,0.1
									c-1.2,0-1.9-0.4-1.9-1.1c0-0.2,0.1-0.4,0.2-0.5c0.1-0.2,0.3-0.3,0.5-0.5l0.4,0.3c-0.1,0.1-0.1,0.2-0.2,0.2s-0.1,0.1-0.1,0.2
									c0,0.1,0,0.2,0,0.2c0,0.2,0.1,0.4,0.3,0.5c0.2,0.1,0.4,0.2,0.8,0.2c0.4,0,0.7-0.1,1-0.3c0.2-0.2,0.5-0.5,0.6-0.9
									c0.2-0.4,0.3-1,0.5-1.8l-0.1,0c-0.3,0.4-0.6,0.8-0.9,1c-0.3,0.2-0.6,0.3-0.9,0.3c-0.4,0-0.6-0.1-0.8-0.4
									c-0.2-0.3-0.3-0.7-0.3-1.2c0-0.6,0.1-1.1,0.3-1.6c0.2-0.5,0.5-0.9,0.9-1.2C97.3,205.6,97.8,205.4,98.2,205.4L98.2,205.4z
									 M93.3,203.5h0.9l-0.2,1H93L93.3,203.5L93.3,203.5z M90.4,203.1c0.3,0,0.6,0,0.8,0.1l-0.2,0.8h-0.4c0-0.2-0.1-0.3-0.2-0.4
									c-0.1-0.1-0.2-0.1-0.3-0.1c-0.2,0-0.3,0.1-0.5,0.2c-0.1,0.1-0.2,0.3-0.3,0.5c-0.1,0.2-0.2,0.5-0.3,0.8l-0.1,0.5h1.3
									l-0.1,0.5h-1.3l-0.9,4.3c-0.2,0.7-0.4,1.2-0.7,1.6c-0.3,0.4-0.7,0.5-1.2,0.5c-0.1,0-0.2,0-0.3,0l0.1-0.4c0,0,0.1,0,0.2,0
									c0.1,0,0.3,0,0.4-0.1c0.1-0.1,0.2-0.2,0.3-0.4c0.1-0.2,0.2-0.4,0.2-0.8L88,206h-0.8l0.1-0.3c0.2,0,0.4,0,0.5-0.1
									c0.1,0,0.2-0.1,0.2-0.1s0.1-0.1,0.1-0.2c0-0.1,0.1-0.2,0.1-0.4c0.2-0.6,0.4-1,0.8-1.3C89.4,203.3,89.9,203.1,90.4,203.1
									L90.4,203.1z"/>
								<g class="st17">
									<defs>
										<polygon id="SVGID_16_" points="1.9,214.5 219,214.5 219,8.9 1.9,8.9 1.9,214.5 										"/>
									</defs>
									<clipPath id="SVGID_17_">
										<use xlink:href="#SVGID_16_"  style="overflow:visible;"/>
									</clipPath>
									<path class="st18" d="M122.7,203.1l0.1,0.4c-0.8,0.3-1.3,0.7-1.7,1.5c-0.4,0.7-0.6,1.7-0.6,2.8c0,1.2,0.2,2.1,0.6,2.9
										c0.4,0.7,0.9,1.2,1.7,1.5l-0.1,0.4c-1-0.3-1.7-0.8-2.2-1.6c-0.5-0.8-0.8-1.9-0.8-3c0-1.2,0.3-2.2,0.8-3
										C121,203.9,121.8,203.3,122.7,203.1L122.7,203.1z"/>
									<g class="st19">
										<defs>
											<polygon id="SVGID_18_" points="1.9,214.5 219,214.5 219,8.9 1.9,8.9 1.9,214.5 											"/>
										</defs>
										<clipPath id="SVGID_19_">
											<use xlink:href="#SVGID_18_"  style="overflow:visible;"/>
										</clipPath>
										<path class="st20" d="M131.8,204.5l-1.9,3.1v0.1h1.9v-1.2c0-0.3,0-0.7,0-1C131.8,205,131.8,204.7,131.8,204.5L131.8,204.5
											z M125.8,203.8c-0.2,0-0.4,0.1-0.6,0.2c-0.2,0.1-0.3,0.3-0.4,0.6c-0.1,0.3-0.2,0.6-0.2,0.9c0,0.4-0.1,0.8-0.1,1.2
											c0,1.1,0.1,1.9,0.3,2.4c0.2,0.5,0.5,0.8,0.9,0.8c0.4,0,0.7-0.2,0.9-0.7c0.2-0.5,0.3-1.2,0.3-2.2c0-0.8,0-1.4-0.1-1.8
											c-0.1-0.5-0.2-0.8-0.4-1C126.3,203.9,126.1,203.8,125.8,203.8L125.8,203.8z M131.9,203.4h0.7v4.3h0.1c0.2,0,0.3,0,0.4,0
											c0.1,0,0.2-0.1,0.2-0.1s0.1-0.2,0.2-0.3h0.4l-0.1,1h-1.2v0.8c0,0.2,0,0.4,0,0.5c0,0.1,0,0.2,0.1,0.2
											c0,0.1,0.1,0.1,0.2,0.1c0.1,0,0.2,0.1,0.3,0.1v0.2h-2V210c0.2-0.1,0.3-0.1,0.4-0.2c0.1-0.1,0.1-0.2,0.1-0.3s0-0.3,0-0.5
											v-0.8H129v-0.4L131.9,203.4L131.9,203.4z M125.9,203.4c0.7,0,1.3,0.3,1.6,0.8c0.4,0.6,0.5,1.4,0.5,2.5
											c0,1.2-0.2,2-0.6,2.6s-0.9,0.9-1.7,0.9c-0.7,0-1.2-0.3-1.6-0.8c-0.3-0.6-0.5-1.4-0.5-2.6c0-0.6,0.1-1.1,0.2-1.6
											s0.3-0.8,0.5-1.1c0.2-0.3,0.4-0.5,0.7-0.6C125.3,203.5,125.5,203.4,125.9,203.4L125.9,203.4z"/>
										<g class="st21">
											<defs>
												<polygon id="SVGID_20_" points="1.9,214.5 219,214.5 219,8.9 1.9,8.9 1.9,214.5 												"/>
											</defs>
											<clipPath id="SVGID_21_">
												<use xlink:href="#SVGID_20_"  style="overflow:visible;"/>
											</clipPath>
											<path class="st22" d="M134.6,203.1c1,0.3,1.7,0.8,2.2,1.6c0.5,0.8,0.8,1.9,0.8,3c0,1.2-0.3,2.2-0.8,3
												c-0.5,0.8-1.3,1.4-2.2,1.6l-0.1-0.4c0.8-0.3,1.3-0.8,1.7-1.5c0.4-0.7,0.6-1.7,0.6-2.9c0-1.1-0.2-2-0.6-2.8
												c-0.4-0.7-0.9-1.2-1.7-1.5L134.6,203.1z"/>
											<g class="st23">
												<defs>
													<polygon id="SVGID_22_" points="1.9,214.5 219,214.5 219,8.9 1.9,8.9 1.9,214.5 													"/>
												</defs>
												<clipPath id="SVGID_23_">
													<use xlink:href="#SVGID_22_"  style="overflow:visible;"/>
												</clipPath>
												<path class="st24" d="M165,66c-0.2,0-0.5,0.1-0.7,0.4c-0.2,0.3-0.4,0.6-0.5,1c0.3,0,0.6,0,0.9-0.1
													c0.2-0.1,0.4-0.2,0.6-0.3c0.1-0.1,0.2-0.3,0.2-0.5c0-0.2,0-0.3-0.1-0.4S165.2,66,165,66L165,66z M165.2,65.7
													c0.3,0,0.5,0.1,0.7,0.2c0.1,0.1,0.2,0.3,0.2,0.6c0,0.4-0.2,0.7-0.6,0.9c-0.4,0.2-1,0.3-1.8,0.3c0,0.1,0,0.3,0,0.5
													c0,0.3,0.1,0.4,0.2,0.6c0.1,0.1,0.3,0.2,0.5,0.2c0.2,0,0.4,0,0.6-0.1c0.2-0.1,0.4-0.3,0.6-0.5l0.2,0.2
													c-0.2,0.3-0.5,0.5-0.7,0.6s-0.5,0.2-0.9,0.2c-0.4,0-0.6-0.1-0.8-0.3c-0.2-0.2-0.3-0.5-0.3-0.9c0-0.3,0-0.5,0.1-0.9
													c0.1-0.3,0.2-0.6,0.4-0.8c0.2-0.2,0.4-0.4,0.7-0.6C164.6,65.8,164.9,65.7,165.2,65.7L165.2,65.7z M154.5,64.3h3.9
													l-0.3,1.3h-0.4c0-0.2,0-0.4,0-0.5c0-0.1,0-0.2-0.1-0.3c0-0.1-0.1-0.1-0.1-0.1s-0.1,0-0.3,0h-0.5l-0.8,3.7
													c0,0.1,0,0.2,0,0.2s0,0.1,0,0.2c0,0.1,0,0.1,0,0.2c0,0.1,0,0.1,0,0.2c0,0,0.1,0.1,0.1,0.1s0.1,0,0.3,0l0,0.2h-1.6l0-0.2
													c0.1,0,0.2,0,0.2-0.1s0.1-0.1,0.1-0.1c0-0.1,0.1-0.1,0.1-0.2c0-0.1,0.1-0.3,0.1-0.5l0.8-3.6h-0.5c-0.2,0-0.3,0-0.4,0.1
													c-0.1,0-0.2,0.1-0.3,0.2c-0.1,0.1-0.2,0.3-0.3,0.6h-0.4L154.5,64.3L154.5,64.3z M160.4,64.1h0.2l-0.6,2.6l0,0
													c0.2-0.3,0.5-0.5,0.7-0.7s0.4-0.2,0.6-0.2c0.2,0,0.4,0.1,0.5,0.2c0.1,0.1,0.2,0.3,0.2,0.6c0,0.2,0,0.4-0.1,0.7l-0.2,1
													c-0.1,0.3-0.1,0.5-0.1,0.6c0,0.1,0,0.2,0,0.2c0,0,0.1,0.1,0.2,0.1c0.1,0,0.2,0,0.2-0.1c0.1-0.1,0.2-0.2,0.4-0.3l0.2,0.2
													c-0.2,0.2-0.4,0.4-0.6,0.5c-0.2,0.1-0.3,0.1-0.5,0.1c-0.2,0-0.3-0.1-0.4-0.2c-0.1-0.1-0.1-0.3-0.1-0.4
													c0-0.2,0-0.4,0.1-0.7l0.2-0.6c0.1-0.2,0.1-0.4,0.1-0.5c0-0.1,0-0.2,0-0.3c0-0.2,0-0.3-0.1-0.4c-0.1-0.1-0.1-0.1-0.3-0.1
													c-0.1,0-0.2,0-0.3,0.1c-0.1,0.1-0.3,0.2-0.4,0.4c-0.1,0.2-0.2,0.3-0.3,0.5c-0.1,0.2-0.1,0.3-0.2,0.6l-0.3,1.6h-0.6
													l1-4.2c0.1-0.3,0.1-0.4,0.1-0.5c0-0.1,0-0.2-0.1-0.2c-0.1,0-0.2-0.1-0.3-0.1l0-0.2L160.4,64.1L160.4,64.1z"/>
												<g class="st25">
													<defs>
														<polygon id="SVGID_24_" points="1.9,214.5 219,214.5 219,8.9 1.9,8.9 1.9,214.5 														"/>
													</defs>
													<clipPath id="SVGID_25_">
														<use xlink:href="#SVGID_24_"  style="overflow:visible;"/>
													</clipPath>
													<path class="st26" d="M183.5,66.2c-0.1,0-0.3,0-0.4,0.1c-0.1,0.1-0.3,0.2-0.4,0.4c-0.1,0.2-0.3,0.4-0.3,0.6
														c-0.1,0.2-0.1,0.4-0.2,0.6l0,0.2c0,0.1,0,0.2,0,0.3c0,0.1,0,0.1,0,0.2c0,0.2,0,0.3,0.1,0.4c0.1,0.1,0.2,0.1,0.4,0.1
														c0.1,0,0.2,0,0.3-0.1s0.2-0.1,0.3-0.2c0.1-0.1,0.2-0.2,0.3-0.3c0.1-0.1,0.1-0.3,0.2-0.5c0.1-0.2,0.1-0.4,0.1-0.5
														s0-0.4,0-0.5c0-0.3,0-0.5-0.1-0.6C183.8,66.2,183.7,66.2,183.5,66.2L183.5,66.2z M178.9,66c-0.3,0-0.5,0.1-0.7,0.3
														c-0.2,0.2-0.4,0.5-0.5,0.8c-0.1,0.3-0.2,0.7-0.2,1c0,0.3,0,0.4,0.1,0.6c0.1,0.1,0.2,0.2,0.4,0.2c0.2,0,0.3-0.1,0.5-0.2
														c0.2-0.1,0.3-0.3,0.5-0.6s0.3-0.6,0.4-0.9l0-0.2c0-0.1,0-0.2,0-0.3c0-0.1,0-0.2,0-0.2c0-0.2,0-0.3-0.1-0.4
														C179.2,66.1,179.1,66,178.9,66L178.9,66z M171.1,66c-0.3,0-0.5,0.1-0.7,0.3c-0.2,0.2-0.4,0.5-0.5,0.8
														c-0.1,0.3-0.2,0.7-0.2,1c0,0.3,0,0.4,0.1,0.6c0.1,0.1,0.2,0.2,0.3,0.2c0.1,0,0.3,0,0.4-0.1c0.1-0.1,0.3-0.2,0.4-0.4
														s0.3-0.4,0.3-0.5c0.1-0.2,0.1-0.4,0.2-0.6c0.1-0.3,0.1-0.5,0.1-0.7c0-0.2,0-0.3-0.1-0.4C171.4,66.1,171.3,66,171.1,66
														L171.1,66z M182,65.7c0.2,0,0.3,0.1,0.4,0.2c0.1,0.1,0.1,0.2,0.1,0.4c0,0.1,0,0.3-0.1,0.4l0,0c0.5-0.7,0.9-1,1.4-1
														c0.3,0,0.5,0.1,0.6,0.3c0.1,0.2,0.2,0.5,0.2,0.9c0,0.4-0.1,0.8-0.2,1.2s-0.4,0.7-0.7,0.9c-0.3,0.2-0.6,0.3-1,0.3
														c-0.3,0-0.6-0.1-0.8-0.2l-0.2,0.8c0,0.2-0.1,0.3-0.1,0.4c0,0.1,0,0.2,0.1,0.2s0.2,0.1,0.3,0.1l0,0.2h-1.1l0.9-3.9
														c0.1-0.2,0.1-0.4,0.1-0.6c0-0.1,0-0.2,0-0.2c0,0-0.1-0.1-0.2-0.1c-0.1,0-0.2,0-0.2,0.1c-0.1,0.1-0.2,0.2-0.4,0.3
														l-0.2-0.2c0.2-0.2,0.4-0.4,0.6-0.5S181.8,65.7,182,65.7L182,65.7z M178.8,65.7c0.2,0,0.3,0,0.5,0.1
														c0.1,0,0.3,0.1,0.4,0.2l0.3-0.2l0.2,0.1l-0.5,2.4c-0.1,0.2-0.1,0.4-0.1,0.5c0,0.1,0,0.2,0,0.2c0,0,0.1,0.1,0.2,0.1
														c0.1,0,0.2,0,0.2-0.1c0.1-0.1,0.2-0.2,0.4-0.3l0.2,0.2c-0.2,0.2-0.4,0.4-0.6,0.5s-0.3,0.2-0.5,0.2
														c-0.2,0-0.3-0.1-0.4-0.2c-0.1-0.1-0.1-0.2-0.1-0.4c0-0.1,0-0.3,0.1-0.4l0,0c-0.2,0.3-0.5,0.6-0.7,0.8s-0.4,0.2-0.7,0.2
														c-0.3,0-0.5-0.1-0.6-0.3c-0.1-0.2-0.2-0.5-0.2-0.9c0-0.4,0.1-0.8,0.3-1.2c0.2-0.4,0.4-0.7,0.7-0.9
														C178.2,65.9,178.5,65.7,178.8,65.7L178.8,65.7z M174.1,65.7c0.2,0,0.3,0.1,0.4,0.2c0.1,0.1,0.1,0.2,0.1,0.4
														c0,0.1,0,0.3-0.1,0.4l0,0c0.2-0.3,0.5-0.6,0.7-0.7c0.2-0.2,0.5-0.2,0.7-0.2c0.2,0,0.3,0,0.5,0l-0.2,0.8h-0.4
														c0-0.1,0-0.2-0.1-0.2c0-0.1-0.1-0.1-0.1-0.1c0,0-0.1,0-0.1,0c-0.1,0-0.2,0-0.3,0.1s-0.2,0.2-0.4,0.4
														c-0.1,0.2-0.2,0.3-0.3,0.5c-0.1,0.2-0.1,0.3-0.2,0.6l-0.4,1.6h-0.6L174,67c0-0.1,0.1-0.3,0.1-0.3s0-0.1,0-0.2
														c0-0.1,0-0.2,0-0.2c0,0-0.1-0.1-0.2-0.1c-0.1,0-0.2,0-0.2,0.1c-0.1,0.1-0.2,0.2-0.4,0.3l-0.2-0.2
														c0.2-0.2,0.4-0.4,0.6-0.5C173.8,65.8,173.9,65.7,174.1,65.7L174.1,65.7z M171.1,65.7c0.2,0,0.3,0,0.4,0.1
														c0.1,0,0.3,0.1,0.4,0.2l0.3-0.2l0.2,0.1l-0.4,1.7c0,0.1-0.1,0.4-0.2,0.9c-0.1,0.5-0.2,0.9-0.2,1.1
														c-0.1,0.2-0.1,0.4-0.2,0.6c-0.1,0.2-0.2,0.3-0.4,0.5c-0.1,0.1-0.3,0.2-0.5,0.3c-0.2,0.1-0.5,0.1-0.8,0.1
														c-0.9,0-1.4-0.3-1.4-0.8c0-0.1,0-0.3,0.1-0.4c0.1-0.1,0.2-0.2,0.4-0.4l0.3,0.2c0,0.1-0.1,0.1-0.1,0.2
														c0,0.1-0.1,0.1-0.1,0.2c0,0.1,0,0.1,0,0.2c0,0.2,0.1,0.3,0.2,0.4c0.1,0.1,0.3,0.1,0.6,0.1c0.3,0,0.5-0.1,0.7-0.2
														c0.2-0.1,0.3-0.4,0.5-0.7c0.1-0.3,0.3-0.8,0.4-1.4l-0.1,0c-0.2,0.3-0.5,0.6-0.7,0.7c-0.2,0.2-0.4,0.2-0.7,0.2
														c-0.3,0-0.5-0.1-0.6-0.3c-0.1-0.2-0.2-0.5-0.2-0.9c0-0.4,0.1-0.8,0.2-1.2s0.4-0.7,0.7-0.9
														C170.4,65.9,170.7,65.7,171.1,65.7L171.1,65.7z M187,64.1h0.2l-0.6,2.6l0,0c0.2-0.3,0.5-0.5,0.7-0.7s0.4-0.2,0.6-0.2
														c0.2,0,0.4,0.1,0.5,0.2c0.1,0.1,0.2,0.3,0.2,0.6c0,0.2,0,0.4-0.1,0.7l-0.2,1c-0.1,0.3-0.1,0.5-0.1,0.6
														c0,0.1,0,0.2,0,0.2c0,0,0.1,0.1,0.2,0.1c0.1,0,0.2,0,0.2-0.1c0.1-0.1,0.2-0.2,0.4-0.3l0.2,0.2
														c-0.2,0.2-0.4,0.4-0.6,0.5c-0.2,0.1-0.3,0.1-0.5,0.1c-0.2,0-0.3-0.1-0.4-0.2c-0.1-0.1-0.1-0.3-0.1-0.4
														c0-0.2,0-0.4,0.1-0.7l0.2-0.6c0.1-0.2,0.1-0.4,0.1-0.5c0-0.1,0-0.2,0-0.3c0-0.2,0-0.3-0.1-0.4
														c-0.1-0.1-0.1-0.1-0.3-0.1c-0.1,0-0.2,0-0.3,0.1c-0.1,0.1-0.3,0.2-0.4,0.4c-0.1,0.2-0.2,0.3-0.3,0.5
														c-0.1,0.2-0.1,0.3-0.2,0.6l-0.3,1.6h-0.6l1-4.2c0.1-0.3,0.1-0.4,0.1-0.5c0-0.1,0-0.2-0.1-0.2c-0.1,0-0.2-0.1-0.3-0.1
														l0-0.2L187,64.1L187,64.1z"/>
													<g class="st27">
														<defs>
															<polygon id="SVGID_26_" points="1.9,214.5 219,214.5 219,8.9 1.9,8.9 1.9,214.5 															"/>
														</defs>
														<clipPath id="SVGID_27_">
															<use xlink:href="#SVGID_26_"  style="overflow:visible;"/>
														</clipPath>
														<path class="st28" d="M193.4,66c-0.3,0-0.5,0.1-0.7,0.3c-0.2,0.2-0.3,0.5-0.5,0.9s-0.2,0.7-0.2,1
															c0,0.3,0.1,0.5,0.2,0.6c0.1,0.1,0.3,0.2,0.5,0.2c0.2,0,0.5-0.1,0.6-0.3c0.2-0.2,0.3-0.5,0.4-0.9s0.2-0.7,0.2-1
															c0-0.3-0.1-0.5-0.2-0.6S193.6,66,193.4,66L193.4,66z M193.4,65.7c0.4,0,0.7,0.1,0.9,0.3s0.3,0.5,0.3,0.9
															c0,0.3-0.1,0.6-0.2,0.9s-0.2,0.6-0.4,0.8c-0.2,0.2-0.4,0.4-0.6,0.5c-0.2,0.1-0.5,0.2-0.8,0.2c-0.4,0-0.7-0.1-0.9-0.3
															s-0.3-0.5-0.3-0.9c0-0.2,0-0.4,0.1-0.7c0.1-0.4,0.2-0.7,0.4-0.9c0.2-0.3,0.4-0.5,0.7-0.6S193.1,65.7,193.4,65.7
															L193.4,65.7z M198.6,64c0.2,0,0.5,0,0.6,0.1l-0.1,0.6h-0.3c0-0.1-0.1-0.2-0.1-0.3s-0.1-0.1-0.2-0.1
															c-0.1,0-0.3,0-0.4,0.1s-0.2,0.2-0.3,0.3c-0.1,0.2-0.1,0.4-0.2,0.6l-0.1,0.4h1l-0.1,0.4h-1l-0.7,3.2
															c-0.1,0.5-0.3,0.9-0.5,1.2c-0.2,0.3-0.5,0.4-0.9,0.4c-0.1,0-0.2,0-0.2,0l0.1-0.3c0,0,0.1,0,0.2,0c0.1,0,0.2,0,0.3-0.1
															c0.1-0.1,0.2-0.2,0.2-0.3s0.1-0.3,0.2-0.6l0.8-3.5h-0.6l0.1-0.3c0.2,0,0.3,0,0.4,0c0.1,0,0.1,0,0.2-0.1
															c0,0,0.1-0.1,0.1-0.1c0-0.1,0.1-0.2,0.1-0.3c0.1-0.4,0.3-0.8,0.6-1S198.1,64,198.6,64L198.6,64z"/>
														<g class="st29">
															<defs>
																<polygon id="SVGID_28_" points="1.9,214.5 219,214.5 219,8.9 1.9,8.9 1.9,214.5 																"/>
															</defs>
															<clipPath id="SVGID_29_">
																<use xlink:href="#SVGID_28_"  style="overflow:visible;"/>
															</clipPath>
															<path class="st30" d="M164.1,74.6c0.1,0,0.2,0,0.3,0c0,0,0.1,0.1,0.1,0.1s0.1,0.1,0.1,0.2s0.1,0.2,0.1,0.3
																c0,0.1,0.1,0.2,0.1,0.4c0.1,0.3,0.1,0.7,0.2,1s0.1,0.7,0.1,1c0.2-0.3,0.4-0.7,0.6-1c0.2-0.3,0.3-0.6,0.4-0.9
																s0.1-0.4,0.1-0.6c0-0.1,0-0.2-0.1-0.2c0,0-0.1-0.1-0.3-0.1l0-0.2h1l0.1,0.2c-0.2,0.5-0.4,1.1-0.8,1.7
																c-0.3,0.6-0.7,1.1-1.1,1.7c-0.4,0.5-0.7,0.9-1,1.2c-0.2,0.2-0.4,0.3-0.5,0.4c-0.1,0.1-0.3,0.1-0.4,0.1
																c-0.1,0-0.1,0-0.2,0c-0.1,0-0.1,0-0.2,0l0.2-0.7h0.3c0,0.2,0.1,0.2,0.2,0.2c0.1,0,0.3-0.1,0.5-0.3
																c0.2-0.2,0.4-0.4,0.7-0.8c-0.1-0.4-0.2-1-0.3-1.6c-0.1-0.7-0.2-1.1-0.3-1.2c-0.1-0.2-0.1-0.3-0.2-0.4
																c0,0-0.1,0-0.1,0c-0.1,0-0.2,0-0.2,0.1c-0.1,0.1-0.2,0.2-0.3,0.3l-0.2-0.2c0.2-0.3,0.3-0.4,0.5-0.5
																S163.9,74.6,164.1,74.6L164.1,74.6z"/>
															<g class="st31">
																<defs>
																	<polygon id="SVGID_30_" points="1.9,214.5 219,214.5 219,8.9 1.9,8.9 1.9,214.5 																	"/>
																</defs>
																<clipPath id="SVGID_31_">
																	<use xlink:href="#SVGID_30_"  style="overflow:visible;"/>
																</clipPath>
																<path class="st32" d="M169.9,76.6h4.6v0.5h-4.6V76.6L169.9,76.6z M169.9,75h4.6v0.5h-4.6V75L169.9,75z"/>
																<g class="st33">
																	<defs>
																		<polygon id="SVGID_32_" points="1.9,214.5 219,214.5 219,8.9 1.9,8.9 1.9,214.5 																		"/>
																	</defs>
																	<clipPath id="SVGID_33_">
																		<use xlink:href="#SVGID_32_"  style="overflow:visible;"/>
																	</clipPath>
																	<path class="st34" d="M180.7,72.9c0.2,0,0.5,0,0.6,0.1l-0.1,0.6h-0.3c0-0.1-0.1-0.2-0.1-0.3
																		c-0.1-0.1-0.1-0.1-0.2-0.1c-0.1,0-0.3,0-0.4,0.1s-0.2,0.2-0.3,0.3c-0.1,0.2-0.1,0.4-0.2,0.6l-0.1,0.4h1l-0.1,0.4
																		h-1l-0.7,3.2c-0.1,0.5-0.3,0.9-0.5,1.2c-0.2,0.3-0.5,0.4-0.9,0.4c-0.1,0-0.2,0-0.2,0l0.1-0.3c0,0,0.1,0,0.2,0
																		c0.1,0,0.2,0,0.3-0.1c0.1-0.1,0.2-0.2,0.2-0.3c0.1-0.1,0.1-0.3,0.2-0.6l0.8-3.5h-0.6l0.1-0.3c0.2,0,0.3,0,0.4,0
																		c0.1,0,0.1,0,0.2-0.1c0,0,0.1-0.1,0.1-0.1c0-0.1,0.1-0.2,0.1-0.3c0.1-0.4,0.3-0.8,0.6-1
																		C179.9,73,180.3,72.9,180.7,72.9L180.7,72.9z"/>
																	<g class="st35">
																		<defs>
																			<polygon id="SVGID_34_" points="1.9,214.5 219,214.5 219,8.9 1.9,8.9 1.9,214.5 																			"/>
																		</defs>
																		<clipPath id="SVGID_35_">
																			<use xlink:href="#SVGID_34_"  style="overflow:visible;"/>
																		</clipPath>
																		<path class="st36" d="M184.5,72.9l0.1,0.3c-0.6,0.2-1,0.6-1.3,1.1c-0.3,0.6-0.4,1.2-0.4,2.1
																			c0,0.9,0.1,1.6,0.4,2.1c0.3,0.6,0.7,0.9,1.3,1.1l-0.1,0.3c-0.7-0.2-1.3-0.6-1.7-1.2c-0.4-0.6-0.6-1.4-0.6-2.3
																			c0-0.9,0.2-1.7,0.6-2.3C183.2,73.5,183.8,73,184.5,72.9L184.5,72.9z"/>
																		<g class="st37">
																			<defs>
																				<polygon id="SVGID_36_" points="1.9,214.5 219,214.5 219,8.9 1.9,8.9 1.9,214.5 																				"/>
																			</defs>
																			<clipPath id="SVGID_37_">
																				<use xlink:href="#SVGID_36_"  style="overflow:visible;"/>
																			</clipPath>
																			<path class="st38" d="M186.2,74.6c0.1,0,0.1,0,0.2,0c0.1,0,0.1,0,0.2,0.1c0,0,0.1,0.1,0.1,0.1s0.1,0.1,0.1,0.2
																				c0,0.1,0.1,0.2,0.1,0.4c0,0.1,0.1,0.3,0.1,0.5h0c0.2-0.3,0.4-0.6,0.5-0.7c0.1-0.2,0.2-0.3,0.3-0.3
																				c0.1-0.1,0.2-0.1,0.2-0.2c0.1,0,0.2,0,0.3,0c0.1,0,0.2,0,0.3,0l-0.1,0.7h-0.3c0-0.1-0.1-0.2-0.1-0.2
																				c0,0,0,0-0.1,0c0,0-0.1,0-0.1,0c0,0-0.1,0.1-0.2,0.1c-0.1,0.1-0.1,0.2-0.2,0.3c-0.1,0.1-0.2,0.2-0.3,0.3
																				l-0.3,0.3c0,0.2,0.1,0.4,0.1,0.6c0,0.2,0.1,0.3,0.1,0.4c0,0.1,0.1,0.2,0.1,0.3c0,0.1,0,0.1,0.1,0.2
																				c0,0,0.1,0.1,0.1,0.1c0,0,0.1,0,0.1,0c0.1,0,0.1,0,0.2-0.1s0.2-0.2,0.3-0.4l0.2,0.2c-0.2,0.3-0.3,0.4-0.5,0.5
																				c-0.1,0.1-0.3,0.2-0.5,0.2c-0.1,0-0.2,0-0.3-0.1c-0.1,0-0.1-0.1-0.2-0.2s-0.1-0.2-0.1-0.4
																				c-0.1-0.3-0.1-0.6-0.1-0.7h0c-0.3,0.4-0.5,0.6-0.6,0.8s-0.2,0.3-0.3,0.4c-0.1,0.1-0.2,0.1-0.2,0.2
																				c-0.1,0-0.2,0-0.3,0c-0.1,0-0.2,0-0.3,0l0.1-0.7h0.3c0,0.1,0.1,0.2,0.1,0.2c0,0,0.1,0,0.1,0c0,0,0.1-0.1,0.2-0.1
																				c0.1-0.1,0.2-0.2,0.3-0.3c0.1-0.2,0.3-0.4,0.5-0.7c0-0.2-0.1-0.4-0.1-0.6c0-0.2-0.1-0.3-0.1-0.5
																				c0-0.2-0.1-0.3-0.1-0.3c0,0-0.1-0.1-0.1-0.1c0,0-0.1,0-0.1,0c-0.1,0-0.1,0-0.1,0s-0.1,0.1-0.1,0.1
																				c0,0.1-0.1,0.1-0.2,0.3l-0.2-0.2c0.2-0.2,0.3-0.4,0.4-0.5C185.8,74.7,186,74.6,186.2,74.6L186.2,74.6z"/>
																			<g class="st39">
																				<defs>
																					<polygon id="SVGID_38_" points="1.9,214.5 219,214.5 219,8.9 1.9,8.9 1.9,214.5 																					"/>
																				</defs>
																				<clipPath id="SVGID_39_">
																					<use xlink:href="#SVGID_38_"  style="overflow:visible;"/>
																				</clipPath>
																				<path class="st40" d="M189.3,72.9c0.7,0.2,1.3,0.6,1.7,1.2c0.4,0.6,0.6,1.4,0.6,2.3c0,0.9-0.2,1.7-0.6,2.3
																					c-0.4,0.6-0.9,1-1.7,1.2l-0.1-0.3c0.6-0.2,1-0.6,1.3-1.1c0.3-0.6,0.4-1.3,0.4-2.1c0-0.8-0.1-1.5-0.4-2.1
																					s-0.7-0.9-1.3-1.1L189.3,72.9z"/>
																				<g class="st41">
																					<defs>
																						<polygon id="SVGID_40_" points="1.9,214.5 219,214.5 219,8.9 1.9,8.9 1.9,214.5 																						"/>
																					</defs>
																					<clipPath id="SVGID_41_">
																						<use xlink:href="#SVGID_40_"  style="overflow:visible;"/>
																					</clipPath>
																					<path class="st42" d="M40.3,92.4c17.5-7.9,35-15.7,51.2-16.2c16.2-0.5,31.6,10.9,46,13.2
																						c14.5,2.3,40.8,0.6,40.8,0.6l0,0"/>
																					<g class="st43">
																						<defs>
																							<polygon id="SVGID_42_" points="1.9,214.5 219,214.5 219,8.9 1.9,8.9 1.9,214.5 																							"/>
																						</defs>
																						<clipPath id="SVGID_43_">
																							<use xlink:href="#SVGID_42_"  style="overflow:visible;"/>
																						</clipPath>
																						<path class="st44" d="M41.1,184.8c-0.4,0-0.8,0.2-1.1,0.5c-0.3,0.3-0.6,0.7-0.7,1.3c-0.2,0.5-0.3,1.1-0.3,1.6
																							c0,0.4,0.1,0.7,0.2,0.9s0.3,0.3,0.6,0.3c0.3,0,0.5-0.1,0.7-0.3c0.2-0.2,0.5-0.5,0.8-0.9
																							c0.3-0.4,0.4-0.9,0.6-1.4l0.1-0.2c0-0.2,0.1-0.3,0.1-0.4c0-0.1,0-0.2,0-0.4c0-0.3-0.1-0.5-0.2-0.7
																							S41.4,184.8,41.1,184.8L41.1,184.8z M41,184.4c0.2,0,0.5,0,0.7,0.1c0.2,0.1,0.4,0.2,0.7,0.3l0.5-0.4l0.4,0.1
																							l-0.8,3.7c-0.1,0.4-0.1,0.6-0.1,0.9c0,0.2,0,0.3,0.1,0.3c0,0.1,0.1,0.1,0.2,0.1c0.1,0,0.2,0,0.4-0.1
																							c0.1-0.1,0.3-0.3,0.6-0.5l0.3,0.3c-0.3,0.4-0.6,0.6-0.9,0.8c-0.2,0.2-0.5,0.2-0.8,0.2c-0.2,0-0.4-0.1-0.6-0.2
																							c-0.1-0.2-0.2-0.4-0.2-0.6c0-0.2,0-0.4,0.1-0.7l-0.1,0c-0.4,0.5-0.7,0.9-1,1.2c-0.3,0.2-0.7,0.4-1,0.4
																							c-0.4,0-0.7-0.2-1-0.5c-0.2-0.3-0.3-0.8-0.3-1.3c0-0.7,0.1-1.3,0.4-1.9c0.3-0.6,0.6-1.1,1.1-1.4
																							C39.9,184.5,40.4,184.4,41,184.4L41,184.4z"/>
																						<g class="st45">
																							<defs>
																								<polygon id="SVGID_44_" points="1.9,214.5 219,214.5 219,8.9 1.9,8.9 1.9,214.5 																								
																									"/>
																							</defs>
																							<clipPath id="SVGID_45_">
																								<use xlink:href="#SVGID_44_"  style="overflow:visible;"/>
																							</clipPath>
																							<path class="st46" d="M179.6,187.1c-0.2,0-0.4,0.1-0.5,0.2c-0.2,0.1-0.4,0.3-0.6,0.6s-0.4,0.5-0.5,0.8
																								c-0.1,0.3-0.3,0.6-0.4,1.1l-0.1,0.2c-0.1,0.3-0.1,0.5-0.1,0.8c0,0.3,0.1,0.5,0.2,0.7
																								c0.1,0.1,0.4,0.2,0.7,0.2c0.2,0,0.3,0,0.4-0.1c0.1-0.1,0.3-0.1,0.4-0.3c0.1-0.1,0.3-0.3,0.4-0.5
																								c0.1-0.2,0.3-0.4,0.4-0.7c0.1-0.3,0.2-0.6,0.3-0.9c0.1-0.3,0.1-0.6,0.1-0.9c0-0.4-0.1-0.7-0.2-0.9
																								C180,187.2,179.8,187.1,179.6,187.1L179.6,187.1z M178.6,183.7h0.3l-1,4l0.1,0c0.4-0.5,0.7-0.9,1-1.1
																								c0.3-0.2,0.7-0.3,1-0.3c0.4,0,0.7,0.2,1,0.5c0.2,0.3,0.3,0.8,0.3,1.3c0,0.6-0.1,1.3-0.4,1.9
																								c-0.3,0.6-0.6,1.1-1.1,1.5c-0.5,0.4-1,0.5-1.5,0.5c-0.5,0-1-0.1-1.4-0.4l-0.5,0.4l-0.4-0.1l1.5-6.6
																								c0.1-0.4,0.1-0.7,0.1-0.9c0-0.2,0-0.3-0.1-0.3c-0.1-0.1-0.3-0.1-0.5-0.1l0.1-0.3L178.6,183.7L178.6,183.7z"
																								/>
																							<g class="st47">
																								<defs>
																									<polygon id="SVGID_46_" points="1.9,214.5 219,214.5 219,8.9 1.9,8.9 1.9,214.5 																									
																										"/>
																								</defs>
																								<clipPath id="SVGID_47_">
																									<use xlink:href="#SVGID_46_"  style="overflow:visible;"/>
																								</clipPath>
																								<g class="st48">
																									<g>
																										<polyline class="st49" points="99.7,79.3 99.7,145.8 99.7,177.1 																										"/>
																										<g>
																											<path d="M99.7,79.5c0.7,0.7,2,1,2.9,1c-1.2-0.9-2.3-2.1-2.9-3.5c-0.6,1.4-1.7,2.6-2.9,3.5
																												C97.8,80.4,99,80.2,99.7,79.5z"/>
																										</g>
																										<g>
																											<path d="M99.7,176.9c0.7-0.7,2-1,2.9-1c-1.2,0.9-2.3,2.1-2.9,3.5c-0.6-1.4-1.7-2.6-2.9-3.5
																												C97.8,175.9,99,176.2,99.7,176.9z"/>
																										</g>
																									</g>
																								</g>
																								<g class="st48">
																									<defs>
																										<polygon id="SVGID_48_" points="1.9,214.5 219,214.5 219,8.9 1.9,8.9 1.9,214.5 
																																																					"/>
																									</defs>
																									<clipPath id="SVGID_49_">
																										<use xlink:href="#SVGID_48_"  style="overflow:visible;"/>
																									</clipPath>
																									<path class="st50" d="M94.7,182.1c0,1.2-0.4,2.2-0.9,2.2h-2.3c-0.5,0-0.9,1-0.9,2.2c0-1.2-0.4-2.2-0.9-2.2
																										h-2.7c-0.5,0-0.9-1-0.9-2.2"/>
																									<g class="st51">
																										<defs>
																											<polygon id="SVGID_50_" points="1.9,214.5 219,214.5 219,8.9 1.9,8.9 1.9,214.5 
																																																							"/>
																										</defs>
																										<clipPath id="SVGID_51_">
																											<use xlink:href="#SVGID_50_"  style="overflow:visible;"/>
																										</clipPath>
																										<path class="st52" d="M106.5,128.9c0.1,0,0.2,0,0.3,0c0,0,0.1,0.1,0.1,0.1c0,0,0.1,0.1,0.1,0.2
																											c0,0.1,0.1,0.2,0.1,0.3c0,0.1,0.1,0.2,0.1,0.4c0.1,0.3,0.1,0.7,0.2,1c0.1,0.4,0.1,0.7,0.1,1
																											c0.2-0.3,0.4-0.7,0.6-1c0.2-0.3,0.3-0.6,0.4-0.9c0.1-0.2,0.1-0.4,0.1-0.6c0-0.1,0-0.2-0.1-0.2
																											c0,0-0.1-0.1-0.3-0.1l0-0.2h1l0.1,0.2c-0.2,0.5-0.4,1.1-0.8,1.7c-0.3,0.6-0.7,1.1-1.1,1.7
																											c-0.4,0.5-0.7,0.9-1,1.2c-0.2,0.2-0.4,0.3-0.5,0.4c-0.1,0.1-0.3,0.1-0.4,0.1c-0.1,0-0.1,0-0.2,0
																											c-0.1,0-0.1,0-0.2,0l0.2-0.7h0.3c0,0.2,0.1,0.2,0.2,0.2c0.1,0,0.3-0.1,0.5-0.3c0.2-0.2,0.4-0.4,0.7-0.8
																											c-0.1-0.4-0.2-1-0.3-1.6c-0.1-0.7-0.2-1.1-0.3-1.2c-0.1-0.2-0.1-0.3-0.2-0.4c0,0-0.1,0-0.1,0
																											c-0.1,0-0.2,0-0.2,0.1c-0.1,0.1-0.2,0.2-0.3,0.3l-0.2-0.2c0.2-0.3,0.3-0.4,0.5-0.5
																											C106.1,128.9,106.3,128.9,106.5,128.9L106.5,128.9z"/>
																										<g class="st53">
																											<defs>
																												<polygon id="SVGID_52_" points="1.9,214.5 219,214.5 219,8.9 1.9,8.9 1.9,214.5 
																																																									"/>
																											</defs>
																											<clipPath id="SVGID_53_">
																												<use xlink:href="#SVGID_52_"  style="overflow:visible;"/>
																											</clipPath>
																											<path class="st54" d="M88.8,192.7c-0.4,0.2-0.7,0.4-0.9,0.8s-0.3,0.8-0.3,1.3c0,0.6,0.3,0.9,0.8,0.9
																												c0.2,0,0.4-0.1,0.5-0.2c0.2-0.1,0.3-0.3,0.4-0.6c0.1-0.2,0.1-0.5,0.1-0.8c0-0.3,0-0.6-0.1-0.8
																												C89.1,193.2,89,193,88.8,192.7L88.8,192.7z M92.1,192.3c0.1,0,0.1,0,0.2,0c0.1,0,0.1,0,0.2,0.1
																												c0,0,0.1,0.1,0.1,0.1c0,0.1,0.1,0.1,0.1,0.2c0,0.1,0.1,0.2,0.1,0.4c0,0.1,0.1,0.3,0.1,0.5h0
																												c0.2-0.3,0.4-0.6,0.5-0.7c0.1-0.2,0.2-0.3,0.3-0.3c0.1-0.1,0.2-0.1,0.2-0.2c0.1,0,0.2,0,0.3,0
																												c0.1,0,0.2,0,0.3,0l-0.1,0.7h-0.3c0-0.1-0.1-0.2-0.1-0.2c0,0,0,0-0.1,0c0,0-0.1,0-0.1,0
																												c0,0-0.1,0.1-0.2,0.1c-0.1,0.1-0.1,0.2-0.2,0.3c-0.1,0.1-0.2,0.2-0.3,0.3l-0.3,0.3
																												c0,0.2,0.1,0.4,0.1,0.6c0,0.2,0.1,0.3,0.1,0.4s0.1,0.2,0.1,0.3c0,0.1,0,0.1,0.1,0.2c0,0,0.1,0.1,0.1,0.1
																												s0.1,0,0.1,0c0.1,0,0.1,0,0.2-0.1c0.1-0.1,0.2-0.2,0.3-0.4l0.2,0.2c-0.2,0.3-0.3,0.4-0.5,0.5
																												c-0.1,0.1-0.3,0.2-0.5,0.2c-0.1,0-0.2,0-0.3-0.1s-0.1-0.1-0.2-0.2c-0.1-0.1-0.1-0.2-0.1-0.4
																												c-0.1-0.3-0.1-0.6-0.1-0.7h0c-0.3,0.4-0.5,0.6-0.6,0.8c-0.1,0.2-0.2,0.3-0.3,0.4
																												c-0.1,0.1-0.2,0.1-0.2,0.2c-0.1,0-0.2,0-0.3,0c-0.1,0-0.2,0-0.3,0l0.1-0.7h0.3c0,0.1,0.1,0.2,0.1,0.2
																												c0,0,0.1,0,0.1,0c0,0,0.1-0.1,0.2-0.1s0.2-0.2,0.3-0.3s0.3-0.4,0.5-0.7c0-0.2-0.1-0.4-0.1-0.6
																												c0-0.2-0.1-0.3-0.1-0.5c0-0.2-0.1-0.3-0.1-0.3s-0.1-0.1-0.1-0.1c0,0-0.1,0-0.1,0c-0.1,0-0.1,0-0.1,0
																												c0,0-0.1,0.1-0.1,0.1c0,0.1-0.1,0.1-0.2,0.3l-0.2-0.2c0.2-0.2,0.3-0.4,0.4-0.5
																												C91.7,192.4,91.9,192.3,92.1,192.3L92.1,192.3z M89.2,190.6c0.2,0,0.4,0,0.6,0.1
																												c0.2,0.1,0.5,0.2,0.7,0.4l-0.1,0.6h-0.3c-0.1-0.3-0.2-0.5-0.4-0.6c-0.2-0.1-0.3-0.2-0.6-0.2
																												c-0.2,0-0.3,0-0.4,0.1c-0.1,0.1-0.1,0.2-0.1,0.3c0,0.1,0,0.1,0,0.2c0,0.1,0.1,0.2,0.2,0.3
																												s0.2,0.3,0.4,0.5c0.2,0.3,0.4,0.5,0.5,0.7s0.2,0.3,0.2,0.5c0,0.2,0.1,0.4,0.1,0.6c0,0.3-0.1,0.6-0.2,0.9
																												c-0.1,0.3-0.4,0.5-0.6,0.7s-0.6,0.3-0.9,0.3c-0.3,0-0.6-0.1-0.8-0.2c-0.2-0.1-0.4-0.2-0.4-0.4
																												c-0.1-0.2-0.1-0.4-0.1-0.6c0-0.5,0.1-1,0.4-1.4c0.3-0.4,0.7-0.7,1.3-1c-0.2-0.2-0.3-0.4-0.4-0.6
																												c-0.1-0.2-0.1-0.3-0.1-0.5c0-0.2,0-0.3,0.1-0.4c0.1-0.1,0.2-0.2,0.4-0.3C88.7,190.7,89,190.6,89.2,190.6
																												L89.2,190.6z"/>
																										</g>
																									</g>
																								</g>
																							</g>
																						</g>
																					</g>
																				</g>
																			</g>
																		</g>
																	</g>
																</g>
															</g>
														</g>
													</g>
												</g>
											</g>
										</g>
									</g>
								</g>
							</g>
						</g>
					</g>
				</g>
			</g>
		</g>
	</g>
</g>
<path class="st55" d="M40.9,76.1"/>
</svg>
