<?xml version="1.0" encoding="utf-8"?>
<!-- Generator: Adobe Illustrator 23.0.2, SVG Export Plug-In . SVG Version: 6.00 Build 0)  -->
<svg version="1.0" id="Layer_1" xmlns="http://www.w3.org/2000/svg" xmlns:xlink="http://www.w3.org/1999/xlink" x="0px" y="0px"
	 viewBox="0 0 215 145.5" style="enable-background:new 0 0 215 145.5;" xml:space="preserve">
<style type="text/css">
	.st0{fill-rule:evenodd;clip-rule:evenodd;}
	.st1{fill:none;stroke:#000000;stroke-width:0.6675;stroke-miterlimit:8;}
	.st2{clip-path:url(#SVGID_2_);fill-rule:evenodd;clip-rule:evenodd;}
	.st3{clip-path:url(#SVGID_2_);}
	.st4{clip-path:url(#SVGID_4_);fill-rule:evenodd;clip-rule:evenodd;}
	.st5{clip-path:url(#SVGID_4_);}
	.st6{clip-path:url(#SVGID_6_);fill:none;stroke:#000000;stroke-width:0.445;stroke-miterlimit:8;}
	.st7{clip-path:url(#SVGID_6_);}
	.st8{clip-path:url(#SVGID_8_);fill-rule:evenodd;clip-rule:evenodd;}
	.st9{clip-path:url(#SVGID_8_);}
	.st10{clip-path:url(#SVGID_10_);fill-rule:evenodd;clip-rule:evenodd;}
	.st11{clip-path:url(#SVGID_10_);}
	.st12{clip-path:url(#SVGID_12_);fill-rule:evenodd;clip-rule:evenodd;}
	.st13{clip-path:url(#SVGID_12_);}
	.st14{clip-path:url(#SVGID_14_);fill-rule:evenodd;clip-rule:evenodd;}
	.st15{clip-path:url(#SVGID_14_);}
	.st16{clip-path:url(#SVGID_16_);fill-rule:evenodd;clip-rule:evenodd;}
	.st17{clip-path:url(#SVGID_16_);}
	.st18{clip-path:url(#SVGID_18_);fill-rule:evenodd;clip-rule:evenodd;}
	.st19{clip-path:url(#SVGID_18_);}
	.st20{clip-path:url(#SVGID_20_);fill-rule:evenodd;clip-rule:evenodd;}
	.st21{clip-path:url(#SVGID_20_);}
	.st22{clip-path:url(#SVGID_22_);fill-rule:evenodd;clip-rule:evenodd;}
	.st23{clip-path:url(#SVGID_22_);}
	.st24{clip-path:url(#SVGID_24_);fill-rule:evenodd;clip-rule:evenodd;}
	.st25{clip-path:url(#SVGID_24_);}
	.st26{clip-path:url(#SVGID_26_);fill-rule:evenodd;clip-rule:evenodd;}
	.st27{clip-path:url(#SVGID_26_);}
	.st28{clip-path:url(#SVGID_28_);fill-rule:evenodd;clip-rule:evenodd;}
	.st29{clip-path:url(#SVGID_28_);}
	.st30{clip-path:url(#SVGID_30_);fill-rule:evenodd;clip-rule:evenodd;}
	.st31{clip-path:url(#SVGID_30_);}
	.st32{clip-path:url(#SVGID_32_);fill-rule:evenodd;clip-rule:evenodd;}
	.st33{clip-path:url(#SVGID_32_);}
	.st34{clip-path:url(#SVGID_34_);fill:none;stroke:#000000;stroke-width:0.445;stroke-miterlimit:8;}
	.st35{clip-path:url(#SVGID_34_);}
	.st36{clip-path:url(#SVGID_36_);fill-rule:evenodd;clip-rule:evenodd;}
	.st37{clip-path:url(#SVGID_36_);}
	.st38{clip-path:url(#SVGID_38_);fill-rule:evenodd;clip-rule:evenodd;}
	.st39{clip-path:url(#SVGID_38_);}
	.st40{clip-path:url(#SVGID_40_);fill-rule:evenodd;clip-rule:evenodd;}
	.st41{clip-path:url(#SVGID_40_);}
	.st42{clip-path:url(#SVGID_42_);fill-rule:evenodd;clip-rule:evenodd;}
	.st43{clip-path:url(#SVGID_42_);}
	.st44{clip-path:url(#SVGID_44_);fill-rule:evenodd;clip-rule:evenodd;fill:#0303C3;}
	.st45{clip-path:url(#SVGID_44_);}
	.st46{clip-path:url(#SVGID_46_);fill-rule:evenodd;clip-rule:evenodd;fill:#0303C3;}
	.st47{clip-path:url(#SVGID_46_);}
	.st48{clip-path:url(#SVGID_48_);fill-rule:evenodd;clip-rule:evenodd;fill:#0303C3;}
	.st49{clip-path:url(#SVGID_48_);}
	.st50{clip-path:url(#SVGID_50_);fill-rule:evenodd;clip-rule:evenodd;fill:#0303C3;}
	.st51{clip-path:url(#SVGID_50_);}
	.st52{clip-path:url(#SVGID_52_);fill:none;stroke:#0303C3;stroke-width:0.445;stroke-miterlimit:8;}
	.st53{clip-path:url(#SVGID_52_);}
	.st54{clip-path:url(#SVGID_54_);fill:none;stroke:#0303C3;stroke-width:0.445;stroke-miterlimit:8;}
</style>
<g>
	<path class="st0" d="M35.3,44.5h2.1l-0.1,0.3c-0.1,0-0.2,0.1-0.3,0.1C37,44.9,37,45,36.9,45s-0.1,0.2-0.1,0.3
		c0,0.1-0.1,0.4-0.2,0.7l-0.9,4c0,0.2-0.1,0.4-0.1,0.5c0,0.1,0,0.2,0,0.3c0,0.2,0,0.3,0.1,0.3c0.1,0.1,0.2,0.1,0.4,0.1l-0.1,0.3H34
		l0.1-0.3c0.1,0,0.2-0.1,0.3-0.1c0.1,0,0.1-0.1,0.2-0.2c0-0.1,0.1-0.2,0.1-0.3c0-0.1,0.1-0.4,0.2-0.7l0.9-4c0.1-0.3,0.1-0.6,0.1-0.8
		c0-0.2,0-0.3-0.1-0.3s-0.2-0.1-0.4-0.1L35.3,44.5z"/>
	<path class="st0" d="M41.8,49.3h6.4V50h-6.4V49.3L41.8,49.3z M41.8,47.2h6.4v0.7h-6.4V47.2L41.8,47.2z"/>
	<path class="st0" d="M61,37.1c0.2,0,0.4,0,0.5,0c0.2,0,0.3,0.1,0.4,0.1l-0.1,1.1h-0.6c0-0.2-0.1-0.3-0.1-0.4
		c-0.1-0.1-0.2-0.1-0.4-0.1c-0.5,0-0.8,0.5-1.1,1.6c-0.2,1.1-0.4,4.1-0.6,9.1c-0.2,4.5-0.5,7.5-1,9.1c-0.5,1.6-1.2,2.5-2.1,2.5
		c-0.2,0-0.3,0-0.5,0c-0.1,0-0.3-0.1-0.4-0.1l0.1-1.1h0.5c0.1,0.2,0.1,0.4,0.2,0.5c0.1,0.1,0.2,0.1,0.4,0.1c0.3,0,0.6-0.5,0.9-1.6
		s0.5-3.9,0.7-8.5c0.2-5,0.5-8.2,1-9.8C59.3,37.9,60,37.1,61,37.1L61,37.1z"/>
	<path class="st0" d="M66.7,46.6c0.1,0,0.3,0,0.4,0.1c0.1,0,0.1,0.1,0.2,0.1s0.1,0.2,0.2,0.3c0.1,0.1,0.1,0.2,0.1,0.4
		c0,0.1,0.1,0.3,0.1,0.6c0.1,0.4,0.2,0.9,0.2,1.4c0.1,0.5,0.1,1,0.2,1.4c0.3-0.5,0.6-1,0.9-1.4s0.4-0.9,0.5-1.2
		c0.1-0.3,0.2-0.6,0.2-0.8c0-0.2,0-0.3-0.1-0.3c-0.1-0.1-0.2-0.1-0.4-0.1l0.1-0.3h1.4l0.1,0.3c-0.3,0.7-0.6,1.5-1.1,2.3
		c-0.4,0.8-1,1.6-1.5,2.4c-0.5,0.8-1,1.3-1.4,1.7c-0.3,0.2-0.5,0.4-0.7,0.5c-0.2,0.1-0.4,0.1-0.6,0.1c-0.1,0-0.2,0-0.3,0
		c-0.1,0-0.2,0-0.2,0l0.2-1h0.4c0,0.2,0.1,0.3,0.2,0.3c0.2,0,0.4-0.1,0.7-0.4c0.3-0.3,0.6-0.6,0.9-1.1c-0.1-0.6-0.2-1.3-0.4-2.2
		c-0.2-0.9-0.3-1.5-0.4-1.7c-0.1-0.3-0.1-0.4-0.2-0.5c0,0-0.1-0.1-0.2-0.1c-0.1,0-0.2,0-0.3,0.1c-0.1,0.1-0.2,0.2-0.4,0.5l-0.3-0.2
		c0.2-0.4,0.5-0.6,0.7-0.8C66.2,46.7,66.5,46.6,66.7,46.6L66.7,46.6z"/>
	<path class="st0" d="M76.8,47c-0.4,0-0.7,0.1-1,0.4c-0.3,0.3-0.5,0.7-0.7,1.2c-0.2,0.5-0.2,1-0.2,1.5c0,0.4,0,0.6,0.1,0.8
		s0.3,0.3,0.5,0.3c0.1,0,0.2,0,0.3-0.1c0.1,0,0.2-0.1,0.3-0.2c0.1-0.1,0.2-0.2,0.4-0.4c0.1-0.1,0.2-0.3,0.3-0.5
		c0.1-0.2,0.2-0.3,0.3-0.5c0.1-0.2,0.2-0.5,0.2-0.7l0-0.2c0.1-0.3,0.1-0.5,0.1-0.7c0-0.3-0.1-0.5-0.2-0.6C77.3,47.1,77.1,47,76.8,47
		L76.8,47z M81.8,46.6c0.1,0,0.2,0,0.3,0s0.2,0.1,0.2,0.1c0.1,0.1,0.1,0.1,0.2,0.2s0.1,0.2,0.1,0.3c0,0.1,0.1,0.3,0.1,0.5
		c0,0.2,0.1,0.4,0.1,0.6h0.1c0.3-0.5,0.6-0.8,0.8-1c0.2-0.2,0.3-0.4,0.4-0.5c0.1-0.1,0.2-0.2,0.3-0.2c0.1,0,0.3-0.1,0.4-0.1
		c0.2,0,0.3,0,0.4,0.1L85,47.6h-0.4c0-0.1-0.1-0.2-0.2-0.2c0,0-0.1,0-0.1,0c0,0-0.1,0-0.1,0.1s-0.1,0.1-0.2,0.2
		c-0.1,0.1-0.2,0.2-0.3,0.4s-0.2,0.3-0.4,0.5L83,48.9c0.1,0.3,0.1,0.6,0.2,0.9c0.1,0.2,0.1,0.4,0.1,0.6c0,0.2,0.1,0.3,0.1,0.4
		s0.1,0.2,0.1,0.2c0,0,0.1,0.1,0.1,0.1s0.1,0,0.1,0c0.1,0,0.2,0,0.3-0.1c0.1-0.1,0.2-0.2,0.4-0.5l0.3,0.2c-0.2,0.4-0.5,0.6-0.7,0.8
		c-0.2,0.1-0.4,0.2-0.7,0.2c-0.1,0-0.3,0-0.4-0.1c-0.1-0.1-0.2-0.1-0.3-0.3c-0.1-0.1-0.1-0.3-0.2-0.6c-0.1-0.4-0.2-0.8-0.2-1h-0.1
		c-0.4,0.5-0.6,0.9-0.8,1.1s-0.3,0.4-0.4,0.5c-0.1,0.1-0.2,0.2-0.3,0.2c-0.1,0-0.3,0.1-0.4,0.1c-0.2,0-0.3,0-0.4-0.1l0.2-0.9h0.4
		c0,0.1,0.1,0.2,0.2,0.2c0,0,0.1,0,0.2,0c0.1,0,0.1-0.1,0.2-0.2c0.1-0.1,0.2-0.3,0.4-0.5s0.4-0.5,0.8-1c-0.1-0.3-0.1-0.5-0.2-0.8
		c-0.1-0.3-0.1-0.5-0.2-0.7c-0.1-0.2-0.1-0.4-0.1-0.4c0-0.1-0.1-0.1-0.1-0.1s-0.1,0-0.2,0c-0.1,0-0.1,0-0.2,0
		c-0.1,0-0.1,0.1-0.2,0.2c-0.1,0.1-0.2,0.2-0.3,0.4l-0.3-0.2c0.2-0.3,0.4-0.6,0.6-0.7C81.3,46.7,81.5,46.6,81.8,46.6L81.8,46.6z
		 M79,44.2h0.3L78,50c-0.1,0.3-0.1,0.6-0.1,0.8c0,0.1,0,0.2,0.1,0.3c0,0.1,0.1,0.1,0.2,0.1c0.1,0,0.2,0,0.3-0.1s0.3-0.2,0.5-0.5
		l0.3,0.3c-0.3,0.3-0.6,0.6-0.8,0.7s-0.5,0.2-0.7,0.2c-0.2,0-0.4-0.1-0.5-0.2c-0.1-0.1-0.2-0.3-0.2-0.6c0-0.2,0-0.4,0.1-0.6l-0.1,0
		c-0.3,0.5-0.7,0.8-0.9,1.1s-0.6,0.3-0.9,0.3c-0.4,0-0.7-0.1-0.9-0.4c-0.2-0.3-0.3-0.7-0.3-1.2c0-0.6,0.1-1.2,0.4-1.7
		c0.2-0.6,0.6-1,1-1.3c0.4-0.3,0.9-0.5,1.4-0.5c0.2,0,0.4,0,0.6,0.1c0.2,0,0.4,0.1,0.6,0.2l0.3-1.2c0-0.1,0.1-0.2,0.1-0.4
		c0-0.1,0-0.3,0-0.4c0-0.1,0-0.2-0.1-0.2s-0.1-0.1-0.2-0.1c-0.1,0-0.2,0-0.4-0.1l0.1-0.3L79,44.2L79,44.2z"/>
	<path class="st0" d="M61.3,31.1c-0.1,0-0.2,0-0.4,0.1c-0.1,0.1-0.3,0.2-0.4,0.3c-0.1,0.1-0.3,0.3-0.4,0.5c-0.1,0.2-0.2,0.5-0.3,0.7
		c0,0.1,0,0.3-0.1,0.4c0,0.1,0,0.3,0,0.4c0,0.2,0,0.4,0.1,0.4c0.1,0.1,0.2,0.1,0.4,0.1c0.2,0,0.4-0.1,0.6-0.2
		c0.2-0.1,0.3-0.3,0.5-0.5c0.1-0.2,0.2-0.5,0.3-0.7c0.1-0.3,0.1-0.5,0.1-0.8c0-0.3,0-0.5-0.1-0.6S61.5,31.1,61.3,31.1L61.3,31.1z
		 M60.4,29.3h0.3l-0.5,2.2l0.1,0c0.1-0.2,0.3-0.3,0.4-0.4c0.1-0.1,0.2-0.2,0.3-0.3c0.1-0.1,0.2-0.1,0.3-0.2c0.1,0,0.2-0.1,0.3-0.1
		c0.3,0,0.5,0.1,0.7,0.3c0.2,0.2,0.2,0.5,0.2,1c0,0.4-0.1,0.7-0.2,1c-0.1,0.3-0.3,0.6-0.5,0.9c-0.2,0.2-0.4,0.4-0.7,0.6
		c-0.3,0.1-0.5,0.2-0.8,0.2c-0.2,0-0.4,0-0.5-0.1c-0.2,0-0.3-0.1-0.5-0.2c-0.1,0-0.1,0.1-0.2,0.1c-0.1,0-0.1,0.1-0.2,0.1
		c0,0-0.1,0-0.1,0c-0.1,0-0.1,0-0.1,0l0.9-4.1c0-0.1,0-0.2,0.1-0.3c0-0.1,0-0.2,0-0.2c0,0,0-0.1,0-0.1c0,0,0-0.1-0.1-0.1
		c0,0-0.1,0-0.2,0c-0.1,0-0.1,0-0.2,0l0.1-0.3L60.4,29.3L60.4,29.3z"/>
	<path class="st0" d="M57,63.1c-0.1,0-0.3,0-0.4,0.1c-0.1,0.1-0.2,0.2-0.4,0.3c-0.1,0.1-0.2,0.2-0.3,0.4c-0.1,0.1-0.2,0.3-0.2,0.5
		c-0.1,0.2-0.1,0.3-0.1,0.5s0,0.3,0,0.5c0,0.3,0,0.5,0.1,0.6c0.1,0.1,0.2,0.2,0.4,0.2c0.1,0,0.2,0,0.2,0c0.1,0,0.2-0.1,0.3-0.1
		c0.2-0.2,0.4-0.4,0.6-0.6c0.2-0.3,0.3-0.5,0.4-0.9c0-0.2,0.1-0.3,0.1-0.4c0-0.1,0-0.2,0-0.4c0-0.2,0-0.3-0.1-0.4
		C57.4,63.1,57.2,63.1,57,63.1L57,63.1z M56.9,62.7c0.2,0,0.4,0,0.5,0.1c0.2,0,0.3,0.1,0.4,0.2l0.4-0.3l0.3,0.1L58,65.3
		c0,0.1-0.1,0.3-0.1,0.4c0,0.1,0,0.2,0,0.2c0,0.1,0,0.2,0.1,0.2c0,0,0.1,0.1,0.2,0.1c0,0,0.1,0,0.1,0s0.1,0,0.1-0.1
		c0.1,0,0.1-0.1,0.2-0.1c0.1-0.1,0.1-0.1,0.2-0.2c0,0,0.1,0.1,0.1,0.1c0,0,0.1,0.1,0.1,0.1c-0.1,0.1-0.2,0.2-0.3,0.3
		c-0.1,0.1-0.2,0.2-0.3,0.2c-0.1,0.1-0.2,0.1-0.3,0.1c-0.1,0-0.2,0-0.3,0c-0.2,0-0.3-0.1-0.4-0.2c-0.1-0.1-0.2-0.3-0.2-0.5
		c0-0.1,0-0.2,0.1-0.3l-0.1,0c-0.1,0.2-0.3,0.3-0.4,0.5c-0.1,0.1-0.2,0.2-0.4,0.3c-0.1,0.1-0.2,0.1-0.4,0.2c-0.1,0-0.2,0.1-0.4,0.1
		c-0.3,0-0.5-0.1-0.7-0.3c-0.2-0.2-0.2-0.5-0.2-0.9c0-0.2,0-0.5,0.1-0.7c0.1-0.2,0.1-0.4,0.2-0.6c0.1-0.2,0.2-0.4,0.3-0.5
		c0.1-0.2,0.3-0.3,0.4-0.4c0.2-0.1,0.3-0.2,0.5-0.3C56.6,62.7,56.8,62.7,56.9,62.7L56.9,62.7z"/>
	<path class="st0" d="M89.4,49.3h6.4V50h-6.4V49.3L89.4,49.3z M89.4,47.2h6.4v0.7h-6.4V47.2L89.4,47.2z"/>
	<path class="st0" d="M100.2,44.5h2l-0.1,0.3c-0.1,0-0.3,0.1-0.3,0.1c-0.1,0.1-0.1,0.2-0.1,0.3c0,0.2,0,0.5,0.1,0.8l0.6,2l1.3-1.7
		c0.3-0.3,0.4-0.6,0.5-0.8c0.1-0.2,0.1-0.3,0.1-0.4c0-0.1,0-0.2-0.1-0.2c-0.1-0.1-0.2-0.1-0.3-0.1l0.1-0.3h2l-0.1,0.3
		c-0.1,0-0.2,0-0.2,0.1c-0.1,0-0.1,0.1-0.2,0.2c-0.1,0.1-0.2,0.2-0.3,0.4c-0.1,0.2-0.3,0.4-0.5,0.6l-2,2.6l-0.3,1.5
		c0,0.1-0.1,0.2-0.1,0.3c0,0.1,0,0.2,0,0.3c0,0.1,0,0.2,0,0.2c0,0.1,0,0.2,0.1,0.3c0,0.1,0.1,0.1,0.2,0.1c0.1,0,0.2,0,0.4,0.1
		l-0.1,0.3h-2.2l0.1-0.3c0.1,0,0.2,0,0.3-0.1c0.1,0,0.1-0.1,0.2-0.2s0.1-0.2,0.2-0.3c0.1-0.2,0.1-0.4,0.2-0.7l0.3-1.4l-0.8-2.6
		c-0.1-0.4-0.2-0.7-0.3-0.8c-0.1-0.1-0.1-0.2-0.2-0.3c-0.1-0.1-0.2-0.1-0.3-0.1L100.2,44.5z"/>
	<path class="st0" d="M120.7,49.5h6.4v0.7h-6.4V49.5L120.7,49.5z M120.7,47.3h6.4V48h-6.4V47.3L120.7,47.3z"/>
	<path class="st0" d="M131.4,44.7h2l-0.1,0.3c-0.1,0-0.3,0.1-0.3,0.1s-0.1,0.2-0.1,0.3c0,0.2,0,0.5,0.1,0.8l0.6,2l1.3-1.7
		c0.3-0.3,0.4-0.6,0.5-0.8s0.1-0.3,0.1-0.4c0-0.1,0-0.2-0.1-0.2c-0.1-0.1-0.2-0.1-0.3-0.1l0.1-0.3h2l-0.1,0.3c-0.1,0-0.2,0-0.2,0.1
		c-0.1,0-0.1,0.1-0.2,0.2c-0.1,0.1-0.2,0.2-0.3,0.4c-0.1,0.2-0.3,0.4-0.5,0.6l-2,2.6l-0.3,1.5c0,0.1-0.1,0.2-0.1,0.3s0,0.2,0,0.3
		c0,0.1,0,0.2,0,0.2c0,0.1,0,0.2,0.1,0.3c0,0.1,0.1,0.1,0.2,0.1c0.1,0,0.2,0,0.4,0.1l-0.1,0.3h-2.2l0.1-0.3c0.1,0,0.2,0,0.3-0.1
		s0.1-0.1,0.2-0.2c0.1-0.1,0.1-0.2,0.2-0.3c0.1-0.2,0.1-0.4,0.2-0.7l0.3-1.4l-0.8-2.6c-0.1-0.4-0.2-0.7-0.3-0.8
		c-0.1-0.1-0.1-0.2-0.2-0.3c-0.1-0.1-0.2-0.1-0.3-0.1L131.4,44.7z"/>
	<path class="st0" d="M148.3,43.8c1,0.3,1.8,0.8,2.3,1.7c0.5,0.9,0.8,2,0.8,3.2c0,1.3-0.3,2.3-0.8,3.2s-1.3,1.5-2.3,1.7l-0.1-0.4
		c0.8-0.3,1.4-0.8,1.8-1.6c0.4-0.8,0.6-1.8,0.6-3c0-1.2-0.2-2.2-0.6-2.9s-1-1.3-1.8-1.6L148.3,43.8z M141.6,43.8l0.1,0.4
		c-0.8,0.3-1.4,0.8-1.8,1.6c-0.4,0.8-0.6,1.8-0.6,2.9c0,1.2,0.2,2.2,0.6,3c0.4,0.8,1,1.3,1.8,1.6l-0.1,0.4c-1-0.3-1.8-0.8-2.3-1.7
		s-0.8-2-0.8-3.2c0-1.3,0.3-2.3,0.8-3.2C139.8,44.6,140.6,44.1,141.6,43.8L141.6,43.8z"/>
	<path class="st0" d="M145.6,47.3c-0.2,0-0.3,0.1-0.5,0.2s-0.3,0.3-0.5,0.5c-0.2,0.2-0.4,0.5-0.5,0.8s-0.2,0.6-0.3,1l0,0.2
		c-0.1,0.2-0.1,0.5-0.1,0.7c0,0.3,0.1,0.5,0.2,0.6s0.3,0.2,0.6,0.2c0.1,0,0.3,0,0.4-0.1c0.1,0,0.3-0.1,0.4-0.2
		c0.1-0.1,0.3-0.2,0.4-0.4s0.2-0.4,0.3-0.6c0.1-0.3,0.2-0.5,0.2-0.8c0.1-0.3,0.1-0.6,0.1-0.8c0-0.4-0.1-0.6-0.2-0.8
		S145.8,47.3,145.6,47.3L145.6,47.3z M144.7,44.3h0.3l-0.9,3.7l0.1,0c0.3-0.5,0.7-0.8,0.9-1s0.6-0.3,0.9-0.3c0.4,0,0.7,0.1,0.9,0.4
		c0.2,0.3,0.3,0.7,0.3,1.2c0,0.6-0.1,1.1-0.3,1.7c-0.2,0.6-0.6,1-1,1.3c-0.4,0.3-0.9,0.5-1.4,0.5c-0.5,0-0.9-0.1-1.2-0.3l-0.5,0.3
		l-0.3-0.1l1.4-6c0.1-0.4,0.1-0.6,0.1-0.8c0-0.1,0-0.2-0.1-0.3c-0.1-0.1-0.2-0.1-0.5-0.1l0.1-0.3L144.7,44.3L144.7,44.3z"/>
	<polygon class="st0" points="155.5,48.4 161.9,48.4 161.9,49.1 155.5,49.1 155.5,48.4 	"/>
	<path class="st0" d="M165.7,44.7h2l-0.1,0.3c-0.1,0-0.3,0.1-0.3,0.1c-0.1,0.1-0.1,0.2-0.1,0.3c0,0.2,0,0.5,0.1,0.8l0.6,2l1.3-1.7
		c0.3-0.3,0.4-0.6,0.5-0.8c0.1-0.2,0.1-0.3,0.1-0.4c0-0.1,0-0.2-0.1-0.2c-0.1-0.1-0.2-0.1-0.3-0.1l0.1-0.3h2l-0.1,0.3
		c-0.1,0-0.2,0-0.2,0.1c-0.1,0-0.1,0.1-0.2,0.2c-0.1,0.1-0.2,0.2-0.3,0.4c-0.1,0.2-0.3,0.4-0.5,0.6l-2,2.6l-0.3,1.5
		c0,0.1-0.1,0.2-0.1,0.3c0,0.1,0,0.2,0,0.3s0,0.2,0,0.2c0,0.1,0,0.2,0.1,0.3s0.1,0.1,0.2,0.1c0.1,0,0.2,0,0.4,0.1l-0.1,0.3H166
		l0.1-0.3c0.1,0,0.2,0,0.3-0.1c0.1,0,0.1-0.1,0.2-0.2c0.1-0.1,0.1-0.2,0.2-0.3c0.1-0.2,0.1-0.4,0.2-0.7l0.3-1.4l-0.8-2.6
		c-0.1-0.4-0.2-0.7-0.3-0.8c-0.1-0.1-0.1-0.2-0.2-0.3c-0.1-0.1-0.2-0.1-0.3-0.1L165.7,44.7z"/>
	<path class="st0" d="M175.9,44.3l0.1,0.4c-0.8,0.3-1.4,0.8-1.8,1.6c-0.4,0.8-0.6,1.8-0.6,2.9c0,1.2,0.2,2.2,0.6,3
		c0.4,0.8,1,1.3,1.8,1.6l-0.1,0.4c-1-0.3-1.8-0.8-2.3-1.7c-0.5-0.9-0.8-2-0.8-3.2c0-1.3,0.3-2.3,0.8-3.2
		C174.1,45.1,174.9,44.5,175.9,44.3L175.9,44.3z"/>
	<path class="st0" d="M179.6,47.1c-0.4,0-0.7,0.1-1,0.4c-0.3,0.3-0.5,0.7-0.7,1.2s-0.2,1-0.2,1.5c0,0.4,0,0.6,0.1,0.8
		s0.3,0.3,0.5,0.3c0.2,0,0.5-0.1,0.7-0.3c0.2-0.2,0.4-0.5,0.7-0.8s0.4-0.8,0.5-1.3l0-0.2c0-0.1,0.1-0.3,0.1-0.4c0-0.1,0-0.2,0-0.3
		c0-0.3-0.1-0.5-0.2-0.6C180,47.2,179.9,47.1,179.6,47.1L179.6,47.1z M179.5,46.7c0.2,0,0.4,0,0.6,0.1s0.4,0.1,0.6,0.3l0.5-0.3
		l0.3,0.1l-0.8,3.3c-0.1,0.3-0.1,0.6-0.1,0.8c0,0.1,0,0.2,0.1,0.3c0,0.1,0.1,0.1,0.2,0.1c0.1,0,0.2,0,0.3-0.1
		c0.1-0.1,0.3-0.2,0.5-0.5l0.3,0.3c-0.3,0.3-0.6,0.6-0.8,0.7c-0.2,0.1-0.5,0.2-0.7,0.2c-0.2,0-0.4-0.1-0.5-0.2
		c-0.1-0.1-0.2-0.3-0.2-0.6c0-0.2,0-0.4,0.1-0.6l-0.1,0c-0.3,0.5-0.7,0.8-0.9,1.1c-0.3,0.2-0.6,0.3-0.9,0.3c-0.4,0-0.7-0.1-0.9-0.4
		c-0.2-0.3-0.3-0.7-0.3-1.2c0-0.6,0.1-1.2,0.4-1.7c0.2-0.6,0.6-1,1-1.3C178.5,46.9,179,46.7,179.5,46.7L179.5,46.7z"/>
	<path class="st0" d="M182.8,44.3c1,0.3,1.8,0.8,2.3,1.7c0.5,0.9,0.8,2,0.8,3.2c0,1.3-0.3,2.3-0.8,3.2c-0.5,0.9-1.3,1.5-2.3,1.7
		l-0.1-0.4c0.8-0.3,1.4-0.8,1.8-1.6c0.4-0.8,0.6-1.8,0.6-3c0-1.2-0.2-2.2-0.6-2.9c-0.4-0.8-1-1.3-1.8-1.6L182.8,44.3z"/>
	<path class="st1" d="M109.2,32.8c0.6,0,1.1,0,1.1,0.1v29c0,0-0.5,0.1-1.1,0.1"/>
	<g>
		<defs>
			<polygon id="SVGID_1_" points="1.5,143.8 213.4,143.8 213.4,1.8 1.5,1.8 1.5,143.8 			"/>
		</defs>
		<clipPath id="SVGID_2_">
			<use xlink:href="#SVGID_1_"  style="overflow:visible;"/>
		</clipPath>
		<path class="st2" d="M114.9,61.4c-0.3,0-0.5,0.1-0.7,0.3c-0.2,0.2-0.4,0.5-0.5,0.9c-0.1,0.4-0.2,0.8-0.2,1.1c0,0.3,0,0.5,0.1,0.6
			s0.2,0.2,0.4,0.2c0.2,0,0.4-0.1,0.5-0.2c0.2-0.2,0.3-0.4,0.5-0.7s0.3-0.6,0.4-1l0-0.2c0-0.1,0-0.2,0-0.3c0-0.1,0-0.2,0-0.3
			c0-0.2,0-0.4-0.1-0.5C115.3,61.4,115.1,61.4,114.9,61.4L114.9,61.4z M114.8,61c0.2,0,0.3,0,0.5,0.1c0.2,0,0.3,0.1,0.5,0.2l0.4-0.3
			l0.3,0.1l-0.6,2.6c-0.1,0.3-0.1,0.5-0.1,0.6c0,0.1,0,0.2,0.1,0.2c0,0,0.1,0.1,0.2,0.1c0.1,0,0.2,0,0.3-0.1
			c0.1-0.1,0.2-0.2,0.4-0.4l0.2,0.2c-0.2,0.3-0.5,0.4-0.6,0.6c-0.2,0.1-0.4,0.2-0.6,0.2c-0.2,0-0.3-0.1-0.4-0.2s-0.1-0.3-0.1-0.4
			c0-0.1,0-0.3,0.1-0.5l-0.1,0c-0.3,0.4-0.5,0.7-0.7,0.8c-0.2,0.2-0.5,0.3-0.7,0.3c-0.3,0-0.5-0.1-0.7-0.3c-0.2-0.2-0.2-0.5-0.2-0.9
			c0-0.5,0.1-0.9,0.3-1.3c0.2-0.4,0.4-0.8,0.8-1C114.1,61.2,114.5,61,114.8,61L114.8,61z"/>
		<g class="st3">
			<defs>
				<polygon id="SVGID_3_" points="1.5,143.8 213.4,143.8 213.4,1.8 1.5,1.8 1.5,143.8 				"/>
			</defs>
			<clipPath id="SVGID_4_">
				<use xlink:href="#SVGID_3_"  style="overflow:visible;"/>
			</clipPath>
			<path class="st4" d="M115.2,32.1c-0.1,0-0.3,0-0.4,0.1c-0.1,0.1-0.3,0.2-0.4,0.4c-0.2,0.2-0.3,0.4-0.4,0.6
				c-0.1,0.2-0.2,0.5-0.2,0.8l0,0.2c0,0.2-0.1,0.4-0.1,0.6c0,0.2,0,0.4,0.1,0.5c0.1,0.1,0.2,0.1,0.5,0.1c0.1,0,0.2,0,0.3-0.1
				s0.2-0.1,0.3-0.2c0.1-0.1,0.2-0.2,0.3-0.3c0.1-0.1,0.2-0.3,0.3-0.5c0.1-0.2,0.1-0.4,0.2-0.6c0-0.2,0.1-0.4,0.1-0.7
				c0-0.3,0-0.5-0.1-0.6C115.5,32.2,115.4,32.1,115.2,32.1L115.2,32.1z M114.5,29.8h0.2l-0.7,2.8l0.1,0c0.3-0.4,0.5-0.6,0.7-0.8
				c0.2-0.2,0.5-0.2,0.7-0.2c0.3,0,0.5,0.1,0.7,0.3c0.2,0.2,0.2,0.5,0.2,0.9c0,0.4-0.1,0.9-0.3,1.3c-0.2,0.4-0.4,0.8-0.7,1
				c-0.3,0.3-0.7,0.4-1.1,0.4c-0.4,0-0.7-0.1-1-0.3l-0.4,0.3l-0.3-0.1l1-4.6c0.1-0.3,0.1-0.5,0.1-0.6c0-0.1,0-0.2-0.1-0.2
				c-0.1,0-0.2-0.1-0.4-0.1l0-0.2L114.5,29.8L114.5,29.8z"/>
			<g class="st5">
				<defs>
					<polygon id="SVGID_5_" points="1.5,143.8 213.4,143.8 213.4,1.8 1.5,1.8 1.5,143.8 					"/>
				</defs>
				<clipPath id="SVGID_6_">
					<use xlink:href="#SVGID_5_"  style="overflow:visible;"/>
				</clipPath>
				<path class="st6" d="M102.7,43.2c-0.1-13.7,12.1-25.5,29.1-28.1"/>
				<g class="st7">
					<defs>
						<polygon id="SVGID_7_" points="1.5,143.8 213.4,143.8 213.4,1.8 1.5,1.8 1.5,143.8 						"/>
					</defs>
					<clipPath id="SVGID_8_">
						<use xlink:href="#SVGID_7_"  style="overflow:visible;"/>
					</clipPath>
					<path class="st8" d="M145.4,13.9c-0.2,0-0.4,0.1-0.5,0.3c-0.1,0.2-0.3,0.4-0.4,0.7c-0.1,0.3-0.1,0.6-0.1,0.8
						c0,0.2,0,0.4,0.1,0.5c0.1,0.1,0.2,0.2,0.4,0.2c0.2,0,0.4-0.1,0.5-0.3c0.1-0.2,0.3-0.4,0.3-0.7s0.1-0.6,0.1-0.8
						c0-0.2,0-0.4-0.1-0.5C145.7,14,145.5,13.9,145.4,13.9L145.4,13.9z M154.2,13.9c-0.2,0-0.4,0.1-0.6,0.3
						c-0.2,0.2-0.3,0.5-0.4,0.8c0.3,0,0.5,0,0.7-0.1c0.2,0,0.3-0.1,0.4-0.2c0.1-0.1,0.2-0.2,0.2-0.4c0-0.1,0-0.2-0.1-0.3
						C154.4,13.9,154.3,13.9,154.2,13.9L154.2,13.9z M145.4,13.7c0.3,0,0.5,0.1,0.7,0.3c0.2,0.2,0.2,0.4,0.2,0.7
						c0,0.2,0,0.5-0.1,0.7s-0.2,0.5-0.3,0.6c-0.1,0.2-0.3,0.3-0.5,0.4c-0.2,0.1-0.4,0.1-0.7,0.1c-0.3,0-0.5-0.1-0.7-0.3
						c-0.2-0.2-0.2-0.4-0.2-0.7c0-0.2,0-0.3,0.1-0.5c0.1-0.3,0.2-0.5,0.3-0.7c0.1-0.2,0.3-0.4,0.5-0.5
						C144.9,13.7,145.2,13.7,145.4,13.7L145.4,13.7z M156.1,13.7c0.1,0,0.2,0,0.3,0.1c0.1,0.1,0.1,0.2,0.1,0.3c0,0.1,0,0.2-0.1,0.3
						l0,0c0.2-0.3,0.4-0.4,0.5-0.6c0.2-0.1,0.4-0.2,0.5-0.2c0.1,0,0.3,0,0.4,0l-0.1,0.7h-0.3c0-0.1,0-0.1,0-0.2c0,0,0-0.1-0.1-0.1
						c0,0-0.1,0-0.1,0c-0.1,0-0.1,0-0.2,0.1c-0.1,0.1-0.2,0.2-0.3,0.3c-0.1,0.1-0.2,0.3-0.2,0.4c-0.1,0.1-0.1,0.3-0.2,0.4l-0.3,1.3
						h-0.5l0.4-1.8c0-0.1,0-0.2,0.1-0.3c0-0.1,0-0.1,0-0.2c0-0.1,0-0.1,0-0.2c0,0-0.1-0.1-0.1-0.1c-0.1,0-0.1,0-0.2,0.1
						c-0.1,0-0.2,0.1-0.3,0.3l-0.2-0.2c0.2-0.2,0.3-0.3,0.4-0.4C155.9,13.7,156,13.7,156.1,13.7L156.1,13.7z M154.3,13.7
						c0.2,0,0.4,0,0.5,0.1c0.1,0.1,0.2,0.2,0.2,0.4c0,0.3-0.2,0.6-0.5,0.7c-0.3,0.2-0.8,0.2-1.4,0.2c0,0.1,0,0.2,0,0.4
						c0,0.2,0,0.4,0.1,0.4c0.1,0.1,0.2,0.1,0.4,0.1c0.2,0,0.3,0,0.5-0.1s0.3-0.2,0.5-0.4l0.2,0.2c-0.2,0.2-0.4,0.4-0.6,0.5
						c-0.2,0.1-0.4,0.2-0.7,0.2c-0.3,0-0.5-0.1-0.7-0.3c-0.2-0.2-0.2-0.4-0.2-0.7c0-0.2,0-0.4,0.1-0.7c0.1-0.2,0.2-0.4,0.3-0.6
						c0.2-0.2,0.3-0.3,0.5-0.4C153.8,13.7,154,13.7,154.3,13.7L154.3,13.7z M141,13.7c0.1,0,0.2,0,0.3,0.1c0.1,0.1,0.1,0.2,0.1,0.3
						c0,0.1,0,0.2-0.1,0.3l0,0c0.2-0.3,0.4-0.5,0.5-0.6c0.2-0.1,0.3-0.2,0.5-0.2c0.2,0,0.3,0.1,0.4,0.2c0.1,0.1,0.1,0.2,0.1,0.4
						c0,0.1,0,0.3-0.1,0.5l-0.2,0.8c-0.1,0.2-0.1,0.4-0.1,0.4c0,0.1,0,0.1,0,0.2c0,0,0.1,0.1,0.1,0.1c0.1,0,0.1,0,0.2-0.1
						c0.1,0,0.2-0.1,0.3-0.3l0.2,0.2c-0.2,0.2-0.3,0.3-0.4,0.4c-0.1,0.1-0.3,0.1-0.4,0.1c-0.1,0-0.2,0-0.3-0.1
						c-0.1-0.1-0.1-0.2-0.1-0.3c0-0.1,0-0.3,0.1-0.6l0.1-0.5c0-0.2,0.1-0.3,0.1-0.4c0-0.1,0-0.2,0-0.2c0-0.1,0-0.2-0.1-0.3
						s-0.1-0.1-0.2-0.1c-0.1,0-0.2,0-0.3,0.1c-0.1,0.1-0.2,0.2-0.3,0.3c-0.1,0.1-0.2,0.3-0.3,0.4s-0.1,0.3-0.2,0.5l-0.3,1.3h-0.5
						l0.4-1.8c0-0.2,0.1-0.3,0.1-0.4c0-0.1,0-0.1,0-0.2c0,0-0.1-0.1-0.1-0.1c-0.1,0-0.1,0-0.2,0.1c-0.1,0-0.2,0.1-0.3,0.3l-0.2-0.2
						c0.2-0.2,0.3-0.3,0.4-0.4C140.7,13.7,140.9,13.7,141,13.7L141,13.7z M138.8,13.1l-1,1.8h1.1l0-0.9c0-0.1,0-0.3,0-0.5
						S138.8,13.2,138.8,13.1L138.8,13.1z M147.8,13h0.4l-0.2,0.7h0.9l-0.1,0.3H148l-0.3,1.1c-0.1,0.2-0.1,0.4-0.1,0.5
						c0,0.1,0,0.2,0,0.2c0,0.2,0.1,0.4,0.3,0.4c0.1,0,0.2,0,0.3-0.1c0.1-0.1,0.2-0.2,0.3-0.3l0.2,0.2c-0.2,0.2-0.3,0.4-0.5,0.4
						c-0.2,0.1-0.3,0.1-0.5,0.1c-0.4,0-0.6-0.2-0.6-0.6c0-0.1,0-0.3,0-0.4l0.3-1.5H147l0-0.2c0.1,0,0.2,0,0.3,0c0.1,0,0.1,0,0.1-0.1
						s0.1-0.1,0.1-0.1c0-0.1,0.1-0.1,0.1-0.2S147.8,13.2,147.8,13L147.8,13z M138.8,12.5h0.4l0.2,3.2c0,0.2,0,0.3,0.1,0.4
						c0,0.1,0.1,0.1,0.1,0.2c0,0,0.1,0.1,0.2,0.1l0,0.1h-1.2l0-0.1c0.1,0,0.2-0.1,0.3-0.1c0.1-0.1,0.1-0.2,0.1-0.4
						c0-0.1,0-0.2,0-0.2l0-0.4h-1.3l-0.2,0.3c-0.1,0.1-0.1,0.2-0.2,0.3c0,0.1-0.1,0.2-0.1,0.3c0,0.2,0.1,0.3,0.3,0.3l0,0.1h-1.2
						l0-0.1c0.1,0,0.1,0,0.2-0.1c0.1,0,0.1-0.1,0.2-0.2c0.1-0.1,0.1-0.2,0.3-0.4L138.8,12.5z M150.5,12.4h0.2l-0.5,2l0,0
						c0.2-0.2,0.4-0.4,0.5-0.5c0.2-0.1,0.3-0.2,0.5-0.2c0.2,0,0.3,0.1,0.4,0.2c0.1,0.1,0.1,0.2,0.1,0.4c0,0.1,0,0.3-0.1,0.5
						l-0.2,0.8c-0.1,0.2-0.1,0.4-0.1,0.4c0,0.1,0,0.1,0,0.2c0,0,0.1,0.1,0.1,0.1c0.1,0,0.1,0,0.2-0.1s0.2-0.1,0.3-0.3l0.2,0.2
						c-0.2,0.2-0.3,0.3-0.5,0.4c-0.1,0.1-0.3,0.1-0.4,0.1c-0.1,0-0.2,0-0.3-0.1c-0.1-0.1-0.1-0.2-0.1-0.3c0-0.1,0-0.3,0.1-0.6
						l0.1-0.5c0-0.2,0.1-0.3,0.1-0.4c0-0.1,0-0.2,0-0.2c0-0.1,0-0.2-0.1-0.3c0-0.1-0.1-0.1-0.2-0.1c-0.1,0-0.2,0-0.3,0.1
						c-0.1,0.1-0.2,0.2-0.3,0.3c-0.1,0.1-0.2,0.3-0.3,0.4c-0.1,0.1-0.1,0.3-0.1,0.4l-0.3,1.3h-0.5l0.7-3.3c0-0.2,0.1-0.4,0.1-0.4
						c0-0.1,0-0.1-0.1-0.2s-0.1-0.1-0.3-0.1l0-0.2L150.5,12.4L150.5,12.4z"/>
					<g class="st9">
						<defs>
							<polygon id="SVGID_9_" points="1.5,143.8 213.4,143.8 213.4,1.8 1.5,1.8 1.5,143.8 							"/>
						</defs>
						<clipPath id="SVGID_10_">
							<use xlink:href="#SVGID_9_"  style="overflow:visible;"/>
						</clipPath>
						<path class="st10" d="M175.7,13.9c-0.2,0-0.4,0.1-0.5,0.3c-0.1,0.2-0.3,0.4-0.4,0.7c-0.1,0.3-0.1,0.6-0.1,0.8
							c0,0.2,0,0.4,0.1,0.5c0.1,0.1,0.2,0.2,0.4,0.2c0.2,0,0.4-0.1,0.5-0.3c0.1-0.2,0.3-0.4,0.3-0.7c0.1-0.3,0.1-0.6,0.1-0.8
							c0-0.2,0-0.4-0.1-0.5C176,14,175.8,13.9,175.7,13.9L175.7,13.9z M173.1,13.7h0.2l-0.4,1.9c0,0.2-0.1,0.3-0.1,0.4
							c0,0.1,0,0.1,0,0.2c0,0,0.1,0.1,0.1,0.1c0.1,0,0.1,0,0.2-0.1c0.1,0,0.2-0.1,0.3-0.3l0.2,0.2c-0.2,0.2-0.3,0.3-0.5,0.4
							c-0.1,0.1-0.3,0.1-0.4,0.1c-0.1,0-0.2,0-0.3-0.1c-0.1-0.1-0.1-0.2-0.1-0.4c0-0.1,0-0.3,0.1-0.6l0.2-0.9c0-0.2,0.1-0.3,0.1-0.4
							c0-0.1,0-0.1-0.1-0.2c0,0-0.1,0-0.2-0.1l0-0.2L173.1,13.7L173.1,13.7z M175.7,13.7c0.3,0,0.5,0.1,0.7,0.3
							c0.2,0.2,0.2,0.4,0.2,0.7c0,0.2,0,0.5-0.1,0.7s-0.2,0.5-0.3,0.6c-0.1,0.2-0.3,0.3-0.5,0.4c-0.2,0.1-0.4,0.1-0.7,0.1
							c-0.3,0-0.5-0.1-0.7-0.3c-0.2-0.2-0.2-0.4-0.2-0.7c0-0.2,0-0.3,0.1-0.5c0.1-0.3,0.2-0.5,0.3-0.7c0.1-0.2,0.3-0.4,0.5-0.5
							C175.2,13.7,175.5,13.7,175.7,13.7L175.7,13.7z M177.9,13.7c0.1,0,0.2,0,0.3,0.1c0.1,0.1,0.1,0.2,0.1,0.3c0,0.1,0,0.2-0.1,0.3
							l0,0c0.2-0.3,0.4-0.5,0.5-0.6c0.2-0.1,0.3-0.2,0.5-0.2c0.2,0,0.3,0.1,0.4,0.2c0.1,0.1,0.1,0.2,0.1,0.4c0,0.1,0,0.3-0.1,0.5
							l-0.2,0.8c-0.1,0.2-0.1,0.4-0.1,0.4c0,0.1,0,0.1,0,0.2c0,0,0.1,0.1,0.1,0.1c0.1,0,0.1,0,0.2-0.1c0.1,0,0.2-0.1,0.3-0.3
							l0.2,0.2c-0.2,0.2-0.3,0.3-0.4,0.4c-0.1,0.1-0.3,0.1-0.4,0.1c-0.1,0-0.2,0-0.3-0.1c-0.1-0.1-0.1-0.2-0.1-0.3
							c0-0.1,0-0.3,0.1-0.6l0.1-0.5c0-0.2,0.1-0.3,0.1-0.4c0-0.1,0-0.2,0-0.2c0-0.1,0-0.2-0.1-0.3c0-0.1-0.1-0.1-0.2-0.1
							c-0.1,0-0.2,0-0.3,0.1c-0.1,0.1-0.2,0.2-0.3,0.3c-0.1,0.1-0.2,0.3-0.3,0.4s-0.1,0.3-0.2,0.5l-0.3,1.3h-0.5l0.4-1.8
							c0-0.2,0.1-0.3,0.1-0.4c0-0.1,0-0.1,0-0.2s-0.1-0.1-0.1-0.1c-0.1,0-0.1,0-0.2,0.1c-0.1,0-0.2,0.1-0.3,0.3l-0.2-0.2
							c0.2-0.2,0.3-0.3,0.4-0.4C177.6,13.7,177.7,13.7,177.9,13.7L177.9,13.7z M167.1,13.7c0.1,0,0.2,0,0.3,0.1
							c0.1,0.1,0.1,0.2,0.1,0.3c0,0.1,0,0.2-0.1,0.3l0,0c0.2-0.3,0.4-0.5,0.5-0.6c0.2-0.1,0.3-0.2,0.5-0.2c0.2,0,0.3,0.1,0.4,0.2
							c0.1,0.1,0.1,0.2,0.1,0.4c0,0.1,0,0.3-0.1,0.5l-0.2,0.8c-0.1,0.2-0.1,0.4-0.1,0.4c0,0.1,0,0.1,0,0.2c0,0,0.1,0.1,0.1,0.1
							c0.1,0,0.1,0,0.2-0.1s0.2-0.1,0.3-0.3l0.2,0.2c-0.2,0.2-0.3,0.3-0.4,0.4c-0.1,0.1-0.3,0.1-0.4,0.1c-0.1,0-0.2,0-0.3-0.1
							c-0.1-0.1-0.1-0.2-0.1-0.3c0-0.1,0-0.3,0.1-0.6l0.1-0.5c0-0.2,0.1-0.3,0.1-0.4c0-0.1,0-0.2,0-0.2c0-0.1,0-0.2-0.1-0.3
							c0-0.1-0.1-0.1-0.2-0.1c-0.1,0-0.2,0-0.3,0.1c-0.1,0.1-0.2,0.2-0.3,0.3c-0.1,0.1-0.2,0.3-0.3,0.4s-0.1,0.3-0.2,0.5l-0.3,1.3
							h-0.5l0.4-1.8c0-0.2,0.1-0.3,0.1-0.4c0-0.1,0-0.1,0-0.2c0,0-0.1-0.1-0.1-0.1c-0.1,0-0.1,0-0.2,0.1c-0.1,0-0.2,0.1-0.3,0.3
							l-0.2-0.2c0.2-0.2,0.3-0.3,0.4-0.4C166.8,13.7,166.9,13.7,167.1,13.7L167.1,13.7z M163.7,13.7c0.1,0,0.2,0,0.3,0.1
							s0.1,0.2,0.1,0.3c0,0.2,0,0.3-0.1,0.6l-0.1,0.5c0,0.1-0.1,0.2-0.1,0.3c0,0.1,0,0.1,0,0.2c0,0.1,0,0.1,0,0.1
							c0,0.1,0,0.2,0.1,0.3c0,0.1,0.1,0.1,0.2,0.1c0.1,0,0.2,0,0.3-0.1c0.1-0.1,0.2-0.2,0.3-0.3c0.1-0.1,0.2-0.3,0.3-0.4
							c0.1-0.1,0.1-0.3,0.2-0.5l0.3-1.3h0.5l-0.4,1.8c0,0.2-0.1,0.3-0.1,0.4c0,0.1,0,0.1,0,0.2c0,0,0.1,0.1,0.1,0.1
							c0.1,0,0.1,0,0.2-0.1c0.1,0,0.2-0.1,0.3-0.3l0.2,0.2c-0.2,0.2-0.3,0.3-0.4,0.4c-0.1,0.1-0.3,0.1-0.4,0.1c-0.1,0-0.2,0-0.3-0.1
							c-0.1-0.1-0.1-0.2-0.1-0.3c0-0.1,0-0.2,0.1-0.3l0,0c-0.2,0.3-0.4,0.5-0.5,0.6c-0.2,0.1-0.3,0.2-0.5,0.2s-0.3-0.1-0.4-0.2
							c-0.1-0.1-0.1-0.2-0.1-0.4c0-0.1,0-0.3,0.1-0.5l0.2-0.8c0.1-0.2,0.1-0.4,0.1-0.4c0-0.1,0-0.1,0-0.2s-0.1-0.1-0.1-0.1
							c-0.1,0-0.1,0-0.2,0.1c-0.1,0-0.2,0.1-0.3,0.3l-0.2-0.2c0.2-0.2,0.3-0.3,0.4-0.3c0.1-0.1,0.2-0.1,0.2-0.1
							C163.5,13.7,163.6,13.7,163.7,13.7L163.7,13.7z M170.7,13h0.4l-0.2,0.7h0.9l-0.1,0.3h-0.9l-0.3,1.1c-0.1,0.2-0.1,0.4-0.1,0.5
							c0,0.1,0,0.2,0,0.2c0,0.2,0.1,0.4,0.3,0.4c0.1,0,0.2,0,0.3-0.1c0.1-0.1,0.2-0.2,0.3-0.3l0.2,0.2c-0.2,0.2-0.3,0.4-0.5,0.4
							c-0.2,0.1-0.3,0.1-0.5,0.1c-0.4,0-0.6-0.2-0.6-0.6c0-0.1,0-0.3,0-0.4l0.3-1.5h-0.5l0-0.2c0.1,0,0.2,0,0.3,0
							c0.1,0,0.1,0,0.1-0.1s0.1-0.1,0.1-0.1c0-0.1,0.1-0.1,0.1-0.2S170.7,13.2,170.7,13L170.7,13z M173.1,12.6h0.5l-0.1,0.6h-0.5
							L173.1,12.6L173.1,12.6z M162.2,12.3c0.2,0,0.4,0,0.5,0l-0.1,0.5h-0.3c0-0.1-0.1-0.2-0.1-0.2c0,0-0.1-0.1-0.2-0.1
							c-0.1,0-0.2,0-0.3,0.1c-0.1,0.1-0.1,0.2-0.2,0.3c-0.1,0.1-0.1,0.3-0.2,0.5l-0.1,0.3h0.7L162,14h-0.7l-0.5,2.5
							c-0.1,0.4-0.2,0.7-0.4,0.9c-0.2,0.2-0.4,0.3-0.7,0.3c-0.1,0-0.1,0-0.2,0l0-0.3c0,0,0.1,0,0.1,0c0.1,0,0.2,0,0.2-0.1
							c0.1,0,0.1-0.1,0.2-0.2c0.1-0.1,0.1-0.3,0.1-0.5l0.6-2.8h-0.5l0-0.2c0.1,0,0.2,0,0.3,0c0.1,0,0.1,0,0.1-0.1
							c0,0,0.1-0.1,0.1-0.1c0,0,0.1-0.1,0.1-0.2c0.1-0.3,0.3-0.6,0.5-0.8C161.6,12.4,161.9,12.3,162.2,12.3L162.2,12.3z"/>
						<g class="st11">
							<defs>
								<polygon id="SVGID_11_" points="1.5,143.8 213.4,143.8 213.4,1.8 1.5,1.8 1.5,143.8 								"/>
							</defs>
							<clipPath id="SVGID_12_">
								<use xlink:href="#SVGID_11_"  style="overflow:visible;"/>
							</clipPath>
							<path class="st12" d="M183.6,13.9c-0.2,0-0.4,0.1-0.5,0.3c-0.1,0.2-0.3,0.4-0.4,0.7c-0.1,0.3-0.1,0.6-0.1,0.8
								c0,0.2,0,0.4,0.1,0.5c0.1,0.1,0.2,0.2,0.4,0.2c0.2,0,0.4-0.1,0.5-0.3c0.1-0.2,0.3-0.4,0.3-0.7s0.1-0.6,0.1-0.8
								c0-0.2,0-0.4-0.1-0.5C183.9,14,183.8,13.9,183.6,13.9L183.6,13.9z M183.7,13.7c0.3,0,0.5,0.1,0.7,0.3
								c0.2,0.2,0.2,0.4,0.2,0.7c0,0.2,0,0.5-0.1,0.7s-0.2,0.5-0.3,0.6c-0.1,0.2-0.3,0.3-0.5,0.4c-0.2,0.1-0.4,0.1-0.7,0.1
								c-0.3,0-0.5-0.1-0.7-0.3c-0.2-0.2-0.2-0.4-0.2-0.7c0-0.2,0-0.3,0.1-0.5c0.1-0.3,0.2-0.5,0.3-0.7c0.1-0.2,0.3-0.4,0.5-0.5
								C183.2,13.7,183.4,13.7,183.7,13.7L183.7,13.7z M187.7,12.3c0.2,0,0.4,0,0.5,0l-0.1,0.5h-0.3c0-0.1-0.1-0.2-0.1-0.2
								c0,0-0.1-0.1-0.2-0.1c-0.1,0-0.2,0-0.3,0.1c-0.1,0.1-0.1,0.2-0.2,0.3c-0.1,0.1-0.1,0.3-0.2,0.5l-0.1,0.3h0.7l-0.1,0.3h-0.7
								l-0.5,2.5c-0.1,0.4-0.2,0.7-0.4,0.9c-0.2,0.2-0.4,0.3-0.7,0.3c-0.1,0-0.1,0-0.2,0l0-0.3c0,0,0.1,0,0.1,0c0.1,0,0.2,0,0.2-0.1
								c0.1,0,0.1-0.1,0.2-0.2s0.1-0.3,0.1-0.5l0.6-2.8h-0.5l0-0.2c0.1,0,0.2,0,0.3,0c0.1,0,0.1,0,0.1-0.1c0,0,0.1-0.1,0.1-0.1
								c0,0,0.1-0.1,0.1-0.2c0.1-0.3,0.3-0.6,0.5-0.8C187.1,12.4,187.3,12.3,187.7,12.3L187.7,12.3z"/>
							<g class="st13">
								<defs>
									<polygon id="SVGID_13_" points="1.5,143.8 213.4,143.8 213.4,1.8 1.5,1.8 1.5,143.8 									"/>
								</defs>
								<clipPath id="SVGID_14_">
									<use xlink:href="#SVGID_13_"  style="overflow:visible;"/>
								</clipPath>
								<path class="st14" d="M190.8,13.7c0.1,0,0.1,0,0.2,0c0,0,0.1,0,0.1,0.1c0,0,0.1,0.1,0.1,0.1c0,0,0.1,0.1,0.1,0.2
									c0,0.1,0,0.2,0.1,0.3c0,0.1,0,0.2,0.1,0.4h0c0.2-0.3,0.3-0.5,0.4-0.6c0.1-0.1,0.2-0.2,0.2-0.3c0.1-0.1,0.1-0.1,0.2-0.1
									s0.1,0,0.2,0c0.1,0,0.2,0,0.2,0l-0.1,0.5h-0.2c0-0.1,0-0.1-0.1-0.1c0,0,0,0-0.1,0c0,0,0,0-0.1,0c0,0-0.1,0.1-0.1,0.1
									s-0.1,0.1-0.2,0.2c-0.1,0.1-0.1,0.2-0.2,0.3l-0.2,0.2c0,0.2,0.1,0.3,0.1,0.5c0,0.1,0.1,0.2,0.1,0.3c0,0.1,0,0.2,0.1,0.2
									c0,0.1,0,0.1,0.1,0.1c0,0,0,0,0.1,0.1c0,0,0,0,0.1,0c0.1,0,0.1,0,0.2-0.1c0,0,0.1-0.1,0.2-0.3l0.2,0.1
									c-0.1,0.2-0.3,0.3-0.4,0.4c-0.1,0.1-0.2,0.1-0.4,0.1c-0.1,0-0.2,0-0.2,0c-0.1,0-0.1-0.1-0.2-0.1c0-0.1-0.1-0.2-0.1-0.3
									c-0.1-0.2-0.1-0.4-0.1-0.6h0c-0.2,0.3-0.4,0.5-0.5,0.6c-0.1,0.1-0.2,0.2-0.2,0.3c-0.1,0.1-0.1,0.1-0.2,0.1
									c-0.1,0-0.1,0-0.2,0c-0.1,0-0.2,0-0.2,0l0.1-0.5h0.2c0,0.1,0,0.1,0.1,0.1c0,0,0.1,0,0.1,0c0,0,0.1,0,0.1-0.1
									c0.1-0.1,0.1-0.1,0.2-0.3c0.1-0.1,0.2-0.3,0.4-0.5c0-0.2-0.1-0.3-0.1-0.4c0-0.1-0.1-0.3-0.1-0.4c0-0.1-0.1-0.2-0.1-0.2
									c0,0,0-0.1-0.1-0.1c0,0-0.1,0-0.1,0c0,0-0.1,0-0.1,0c0,0-0.1,0.1-0.1,0.1c0,0-0.1,0.1-0.2,0.2l-0.2-0.1
									c0.1-0.2,0.2-0.3,0.4-0.4C190.5,13.7,190.7,13.7,190.8,13.7L190.8,13.7z"/>
								<g class="st15">
									<defs>
										<polygon id="SVGID_15_" points="1.5,143.8 213.4,143.8 213.4,1.8 1.5,1.8 1.5,143.8 										"/>
									</defs>
									<clipPath id="SVGID_16_">
										<use xlink:href="#SVGID_15_"  style="overflow:visible;"/>
									</clipPath>
									<path class="st16" d="M36.6,97.4h2.1l-0.1,0.3c-0.1,0-0.2,0.1-0.3,0.1c-0.1,0-0.1,0.1-0.2,0.2s-0.1,0.2-0.1,0.3
										c0,0.1-0.1,0.4-0.2,0.7l-0.9,4c0,0.2-0.1,0.4-0.1,0.5c0,0.1,0,0.2,0,0.3c0,0.2,0,0.3,0.1,0.3c0.1,0.1,0.2,0.1,0.4,0.1
										l-0.1,0.3h-2.1l0.1-0.3c0.1,0,0.2-0.1,0.3-0.1c0.1,0,0.1-0.1,0.2-0.2s0.1-0.2,0.1-0.3c0-0.1,0.1-0.4,0.2-0.7l0.9-4
										c0.1-0.3,0.1-0.6,0.1-0.8c0-0.2,0-0.3-0.1-0.3c-0.1-0.1-0.2-0.1-0.4-0.1L36.6,97.4z"/>
									<g class="st17">
										<defs>
											<polygon id="SVGID_17_" points="1.5,143.8 213.4,143.8 213.4,1.8 1.5,1.8 1.5,143.8 											"/>
										</defs>
										<clipPath id="SVGID_18_">
											<use xlink:href="#SVGID_17_"  style="overflow:visible;"/>
										</clipPath>
										<path class="st18" d="M43.1,102.2h6.4v0.7h-6.4V102.2L43.1,102.2z M43.1,100h6.4v0.7h-6.4V100L43.1,100z"/>
										<g class="st19">
											<defs>
												<polygon id="SVGID_19_" points="1.5,143.8 213.4,143.8 213.4,1.8 1.5,1.8 1.5,143.8 												"/>
											</defs>
											<clipPath id="SVGID_20_">
												<use xlink:href="#SVGID_19_"  style="overflow:visible;"/>
											</clipPath>
											<path class="st20" d="M58,95.7c0.1,0,0.3,0,0.4,0c0.1,0,0.3,0.1,0.4,0.1l-0.1,1h-0.5c0-0.2-0.1-0.3-0.2-0.4
												c-0.1-0.1-0.2-0.1-0.3-0.1c-0.4,0-0.6,0.3-0.7,0.9c-0.1,0.6-0.2,2-0.2,4.1c0,1.8-0.2,3.2-0.5,4.3
												c-0.3,1.1-0.9,1.6-1.7,1.6c-0.2,0-0.3,0-0.4,0s-0.2-0.1-0.4-0.1l0.1-1h0.5c0,0.2,0.1,0.3,0.2,0.4
												c0.1,0.1,0.2,0.2,0.4,0.2c0.4,0,0.6-0.4,0.7-1.1c0.1-0.8,0.1-1.9,0.1-3.3c0-2.3,0.2-3.9,0.5-4.9S57.2,95.7,58,95.7
												L58,95.7z"/>
											<g class="st21">
												<defs>
													<polygon id="SVGID_21_" points="1.5,143.8 213.4,143.8 213.4,1.8 1.5,1.8 1.5,143.8 													"/>
												</defs>
												<clipPath id="SVGID_22_">
													<use xlink:href="#SVGID_21_"  style="overflow:visible;"/>
												</clipPath>
												<path class="st22" d="M63,99.4c0.1,0,0.3,0,0.4,0.1c0.1,0,0.1,0.1,0.2,0.1c0.1,0.1,0.1,0.2,0.2,0.3
													c0.1,0.1,0.1,0.2,0.1,0.4s0.1,0.3,0.1,0.6c0.1,0.4,0.2,0.9,0.2,1.4c0.1,0.5,0.1,1,0.2,1.4c0.3-0.5,0.6-1,0.9-1.4
													c0.2-0.5,0.4-0.9,0.5-1.2c0.1-0.3,0.2-0.6,0.2-0.8c0-0.2,0-0.3-0.1-0.3s-0.2-0.1-0.4-0.1l0.1-0.3H67l0.1,0.3
													c-0.3,0.7-0.6,1.5-1.1,2.3c-0.4,0.8-1,1.6-1.5,2.4c-0.5,0.8-1,1.3-1.4,1.7c-0.3,0.2-0.5,0.4-0.7,0.5
													c-0.2,0.1-0.4,0.1-0.6,0.1c-0.1,0-0.2,0-0.3,0c-0.1,0-0.2,0-0.2,0l0.2-1H62c0,0.2,0.1,0.3,0.2,0.3
													c0.2,0,0.4-0.1,0.7-0.4c0.3-0.3,0.6-0.6,0.9-1.1c-0.1-0.6-0.2-1.3-0.4-2.2c-0.2-0.9-0.3-1.5-0.4-1.7
													c-0.1-0.3-0.1-0.4-0.2-0.5c0,0-0.1-0.1-0.2-0.1c-0.1,0-0.2,0-0.3,0.1c-0.1,0.1-0.2,0.2-0.4,0.5l-0.3-0.2
													c0.2-0.4,0.5-0.6,0.7-0.8S62.8,99.4,63,99.4L63,99.4z"/>
												<g class="st23">
													<defs>
														<polygon id="SVGID_23_" points="1.5,143.8 213.4,143.8 213.4,1.8 1.5,1.8 1.5,143.8 														"/>
													</defs>
													<clipPath id="SVGID_24_">
														<use xlink:href="#SVGID_23_"  style="overflow:visible;"/>
													</clipPath>
													<path class="st24" d="M73.1,99.8c-0.4,0-0.7,0.1-1,0.4c-0.3,0.3-0.5,0.7-0.7,1.2c-0.2,0.5-0.2,1-0.2,1.5
														c0,0.4,0,0.6,0.1,0.8s0.3,0.3,0.5,0.3c0.1,0,0.2,0,0.3-0.1c0.1,0,0.2-0.1,0.3-0.2c0.1-0.1,0.2-0.2,0.4-0.4
														c0.1-0.1,0.2-0.3,0.3-0.5c0.1-0.2,0.2-0.3,0.3-0.5s0.2-0.5,0.2-0.7l0-0.2c0.1-0.3,0.1-0.5,0.1-0.7
														c0-0.3-0.1-0.5-0.2-0.6C73.6,99.9,73.4,99.8,73.1,99.8L73.1,99.8z M78,99.4c0.1,0,0.2,0,0.3,0c0.1,0,0.2,0.1,0.2,0.1
														s0.1,0.1,0.2,0.2s0.1,0.2,0.1,0.3c0,0.1,0.1,0.3,0.1,0.5c0,0.2,0.1,0.4,0.1,0.6h0.1c0.3-0.5,0.6-0.8,0.8-1
														c0.2-0.2,0.3-0.4,0.4-0.5c0.1-0.1,0.2-0.2,0.3-0.2s0.3-0.1,0.4-0.1c0.2,0,0.3,0,0.4,0.1l-0.2,0.9h-0.4
														c0-0.1-0.1-0.2-0.2-0.2c0,0-0.1,0-0.1,0c0,0-0.1,0-0.1,0.1c-0.1,0-0.1,0.1-0.2,0.2s-0.2,0.2-0.3,0.4
														c-0.1,0.1-0.2,0.3-0.4,0.5l-0.4,0.4c0.1,0.3,0.1,0.6,0.2,0.9c0.1,0.2,0.1,0.4,0.1,0.6s0.1,0.3,0.1,0.4
														c0,0.1,0.1,0.2,0.1,0.2c0,0,0.1,0.1,0.1,0.1s0.1,0,0.1,0c0.1,0,0.2,0,0.3-0.1s0.2-0.2,0.4-0.5l0.3,0.2
														c-0.2,0.4-0.5,0.6-0.7,0.8c-0.2,0.1-0.4,0.2-0.7,0.2c-0.1,0-0.3,0-0.4-0.1c-0.1-0.1-0.2-0.1-0.3-0.3
														c-0.1-0.1-0.1-0.3-0.2-0.6c-0.1-0.4-0.2-0.8-0.2-1h-0.1c-0.4,0.5-0.6,0.9-0.8,1.1c-0.2,0.2-0.3,0.4-0.4,0.5
														c-0.1,0.1-0.2,0.2-0.3,0.2c-0.1,0-0.3,0.1-0.4,0.1c-0.2,0-0.3,0-0.4-0.1l0.2-0.9h0.4c0,0.1,0.1,0.2,0.2,0.2
														c0,0,0.1,0,0.2,0c0.1,0,0.1-0.1,0.2-0.2s0.2-0.3,0.4-0.5c0.2-0.2,0.4-0.5,0.8-1c-0.1-0.3-0.1-0.5-0.2-0.8
														c-0.1-0.3-0.1-0.5-0.2-0.7s-0.1-0.4-0.1-0.4s-0.1-0.1-0.1-0.1c0,0-0.1,0-0.2,0c-0.1,0-0.1,0-0.2,0
														c-0.1,0-0.1,0.1-0.2,0.2s-0.2,0.2-0.3,0.4l-0.3-0.2c0.2-0.3,0.4-0.6,0.6-0.7S77.8,99.4,78,99.4L78,99.4z M75.3,97h0.3
														l-1.3,5.8c-0.1,0.3-0.1,0.6-0.1,0.8c0,0.1,0,0.2,0.1,0.3c0,0.1,0.1,0.1,0.2,0.1c0.1,0,0.2,0,0.3-0.1
														c0.1-0.1,0.3-0.2,0.5-0.5l0.3,0.3c-0.3,0.3-0.6,0.6-0.8,0.7c-0.2,0.1-0.5,0.2-0.7,0.2c-0.2,0-0.4-0.1-0.5-0.2
														s-0.2-0.3-0.2-0.6c0-0.2,0-0.4,0.1-0.6l-0.1,0c-0.3,0.5-0.7,0.8-0.9,1.1s-0.6,0.3-0.9,0.3c-0.4,0-0.7-0.1-0.9-0.4
														s-0.3-0.7-0.3-1.2c0-0.6,0.1-1.2,0.4-1.7c0.2-0.6,0.6-1,1-1.3s0.9-0.5,1.4-0.5c0.2,0,0.4,0,0.6,0.1
														c0.2,0,0.4,0.1,0.6,0.2l0.3-1.2c0-0.1,0.1-0.2,0.1-0.4s0-0.3,0-0.4c0-0.1,0-0.2-0.1-0.2s-0.1-0.1-0.2-0.1
														c-0.1,0-0.2,0-0.4-0.1l0.1-0.3L75.3,97L75.3,97z"/>
													<g class="st25">
														<defs>
															<polygon id="SVGID_25_" points="1.5,143.8 213.4,143.8 213.4,1.8 1.5,1.8 1.5,143.8 															"/>
														</defs>
														<clipPath id="SVGID_26_">
															<use xlink:href="#SVGID_25_"  style="overflow:visible;"/>
														</clipPath>
														<path class="st26" d="M85.7,102.2h6.4v0.7h-6.4V102.2L85.7,102.2z M85.7,100h6.4v0.7h-6.4V100L85.7,100z"/>
														<g class="st27">
															<defs>
																<polygon id="SVGID_27_" points="1.5,143.8 213.4,143.8 213.4,1.8 1.5,1.8 1.5,143.8 																"/>
															</defs>
															<clipPath id="SVGID_28_">
																<use xlink:href="#SVGID_27_"  style="overflow:visible;"/>
															</clipPath>
															<path class="st28" d="M96.5,97.4h2l-0.1,0.3c-0.1,0-0.3,0.1-0.3,0.1C98,97.8,98,97.9,98,98.1c0,0.2,0,0.5,0.1,0.8
																l0.6,2l1.3-1.7c0.3-0.3,0.4-0.6,0.5-0.8c0.1-0.2,0.1-0.3,0.1-0.4c0-0.1,0-0.2-0.1-0.2c-0.1-0.1-0.2-0.1-0.3-0.1
																l0.1-0.3h2l-0.1,0.3c-0.1,0-0.2,0-0.2,0.1c-0.1,0-0.1,0.1-0.2,0.2s-0.2,0.2-0.3,0.4s-0.3,0.4-0.5,0.6l-2,2.6
																l-0.3,1.5c0,0.1-0.1,0.2-0.1,0.3c0,0.1,0,0.2,0,0.3s0,0.2,0,0.2c0,0.1,0,0.2,0.1,0.3c0,0.1,0.1,0.1,0.2,0.1
																c0.1,0,0.2,0,0.4,0.1l-0.1,0.3h-2.2l0.1-0.3c0.1,0,0.2,0,0.3-0.1c0.1,0,0.1-0.1,0.2-0.2s0.1-0.2,0.2-0.3
																c0.1-0.2,0.1-0.4,0.2-0.7l0.3-1.4l-0.8-2.6c-0.1-0.4-0.2-0.7-0.3-0.8c-0.1-0.1-0.1-0.2-0.2-0.3
																c-0.1-0.1-0.2-0.1-0.3-0.1L96.5,97.4z"/>
															<g class="st29">
																<defs>
																	<polygon id="SVGID_29_" points="1.5,143.8 213.4,143.8 213.4,1.8 1.5,1.8 1.5,143.8 																	"/>
																</defs>
																<clipPath id="SVGID_30_">
																	<use xlink:href="#SVGID_29_"  style="overflow:visible;"/>
																</clipPath>
																<polygon class="st30" points="108.6,98.1 109.3,98.1 109.3,101.1 112.2,101.1 112.2,101.8 109.3,101.8 109.3,104.8 
																	108.6,104.8 108.6,101.8 105.7,101.8 105.7,101.1 108.6,101.1 108.6,98.1 																"/>
																<g class="st31">
																	<defs>
																		<polygon id="SVGID_31_" points="1.5,143.8 213.4,143.8 213.4,1.8 1.5,1.8 1.5,143.8 																		"/>
																	</defs>
																	<clipPath id="SVGID_32_">
																		<use xlink:href="#SVGID_31_"  style="overflow:visible;"/>
																	</clipPath>
																	<path class="st32" d="M123.5,99.8c-0.4,0-0.7,0.2-0.9,0.5c-0.3,0.3-0.5,0.7-0.6,1.3c-0.2,0.6-0.2,1-0.2,1.5
																		c0,0.4,0.1,0.7,0.2,0.8c0.2,0.2,0.4,0.3,0.7,0.3c0.3,0,0.6-0.2,0.9-0.5c0.3-0.3,0.5-0.7,0.6-1.3
																		c0.2-0.6,0.2-1,0.2-1.5c0-0.4-0.1-0.7-0.2-0.8C124.1,99.9,123.8,99.8,123.5,99.8L123.5,99.8z M144.5,99.8
																		c-0.4,0-0.7,0.1-1,0.4s-0.5,0.7-0.7,1.2c-0.2,0.5-0.2,1-0.2,1.5c0,0.4,0,0.6,0.1,0.8s0.3,0.3,0.5,0.3
																		c0.2,0,0.5-0.1,0.7-0.3s0.4-0.5,0.7-0.8c0.2-0.4,0.4-0.8,0.5-1.3l0-0.2c0-0.1,0.1-0.3,0.1-0.4c0-0.1,0-0.2,0-0.3
																		c0-0.3-0.1-0.5-0.2-0.6C145,99.9,144.8,99.8,144.5,99.8L144.5,99.8z M135,99.4c0.3,0,0.6,0,0.9,0.1
																		c0.3,0,0.5,0.1,0.8,0.2l-0.2,1.1H136c0-0.3-0.1-0.5-0.3-0.7c-0.2-0.2-0.4-0.2-0.8-0.2c-0.3,0-0.5,0.1-0.7,0.2
																		c-0.2,0.1-0.3,0.3-0.3,0.6c0,0.1,0,0.2,0.1,0.3c0,0.1,0.1,0.2,0.3,0.3c0.1,0.1,0.3,0.3,0.6,0.4
																		c0.2,0.1,0.4,0.3,0.5,0.4s0.2,0.2,0.3,0.3c0.1,0.1,0.1,0.2,0.2,0.3s0.1,0.3,0.1,0.4c0,0.3-0.1,0.6-0.2,0.8
																		s-0.4,0.4-0.7,0.5c-0.3,0.1-0.6,0.2-1,0.2c-0.3,0-0.6,0-0.8-0.1c-0.3,0-0.6-0.1-0.9-0.2l0.3-1.1h0.4
																		c0,0.3,0.1,0.6,0.3,0.8c0.2,0.2,0.5,0.3,0.8,0.3c0.3,0,0.6-0.1,0.8-0.2c0.2-0.1,0.3-0.4,0.3-0.6
																		c0-0.2,0-0.3-0.1-0.4c-0.1-0.1-0.1-0.2-0.3-0.3s-0.3-0.2-0.6-0.4c-0.3-0.2-0.5-0.3-0.6-0.4
																		c-0.2-0.1-0.3-0.3-0.3-0.4c-0.1-0.2-0.1-0.3-0.1-0.5c0-0.3,0.1-0.5,0.2-0.7c0.1-0.2,0.4-0.4,0.6-0.5
																		C134.3,99.5,134.6,99.4,135,99.4L135,99.4z M123.6,99.4c0.6,0,1,0.2,1.3,0.5c0.3,0.3,0.4,0.7,0.4,1.3
																		c0,0.4-0.1,0.8-0.2,1.3s-0.3,0.8-0.6,1.2c-0.2,0.3-0.5,0.5-0.9,0.7s-0.7,0.2-1.2,0.2c-0.5,0-1-0.2-1.3-0.5
																		c-0.3-0.3-0.4-0.7-0.4-1.3c0-0.3,0-0.6,0.1-1c0.1-0.5,0.3-0.9,0.5-1.3c0.3-0.4,0.6-0.7,0.9-0.8
																		C122.8,99.5,123.2,99.4,123.6,99.4L123.6,99.4z M118.8,99.4c0.5,0,0.9,0.1,1.3,0.2l-0.3,1.2h-0.5
																		c0-0.3,0-0.5-0.1-0.6s-0.1-0.2-0.2-0.3c-0.1-0.1-0.2-0.1-0.3-0.1c-0.4,0-0.7,0.1-0.9,0.4s-0.5,0.7-0.7,1.2
																		c-0.2,0.5-0.3,1-0.3,1.5c0,0.4,0.1,0.6,0.2,0.8s0.3,0.3,0.6,0.3c0.3,0,0.6-0.1,0.8-0.2c0.2-0.1,0.5-0.3,0.7-0.6
																		l0.3,0.3c-0.3,0.4-0.7,0.6-1,0.8s-0.7,0.3-1.1,0.3c-0.5,0-0.9-0.1-1.1-0.4s-0.4-0.7-0.4-1.3c0-0.4,0.1-0.8,0.2-1.2
																		c0.1-0.4,0.3-0.8,0.6-1.2c0.3-0.3,0.6-0.6,0.9-0.8C118,99.5,118.4,99.4,118.8,99.4L118.8,99.4z M148.7,99.4
																		c0.2,0,0.4,0.1,0.5,0.2c0.1,0.1,0.2,0.3,0.2,0.6c0,0.2,0,0.4-0.1,0.6l0.1,0c0.3-0.5,0.7-0.8,1-1.1
																		c0.3-0.2,0.6-0.3,1-0.3c0.3,0,0.6,0.1,0.7,0.3c0.2,0.2,0.3,0.4,0.3,0.8c0,0.2-0.1,0.5-0.2,0.9l-0.3,1.4
																		c-0.1,0.4-0.1,0.6-0.1,0.8c0,0.1,0,0.2,0.1,0.3s0.1,0.1,0.2,0.1c0.1,0,0.2,0,0.3-0.1c0.1-0.1,0.3-0.2,0.5-0.5
																		l0.3,0.3c-0.3,0.3-0.6,0.6-0.8,0.7c-0.2,0.1-0.5,0.2-0.8,0.2c-0.2,0-0.4-0.1-0.5-0.2s-0.2-0.4-0.2-0.6
																		c0-0.2,0.1-0.6,0.2-1l0.2-0.9c0.1-0.3,0.1-0.6,0.2-0.7c0-0.2,0-0.3,0-0.4c0-0.2,0-0.4-0.1-0.5
																		c-0.1-0.1-0.2-0.2-0.4-0.2c-0.1,0-0.3,0.1-0.5,0.2c-0.2,0.1-0.3,0.3-0.5,0.5c-0.2,0.2-0.3,0.5-0.5,0.7
																		c-0.1,0.2-0.2,0.5-0.3,0.8l-0.5,2.3h-0.9l0.8-3.3c0.1-0.3,0.1-0.6,0.1-0.8c0-0.1,0-0.2-0.1-0.3
																		c0-0.1-0.1-0.1-0.2-0.1c-0.1,0-0.2,0-0.3,0.1c-0.1,0.1-0.3,0.2-0.5,0.5l-0.3-0.3c0.3-0.3,0.6-0.6,0.8-0.7
																		C148.2,99.5,148.5,99.4,148.7,99.4L148.7,99.4z M144.4,99.4c0.2,0,0.4,0,0.6,0.1c0.2,0.1,0.4,0.1,0.6,0.3l0.5-0.3
																		l0.3,0.1l-0.8,3.3c-0.1,0.3-0.1,0.6-0.1,0.8c0,0.1,0,0.2,0.1,0.3s0.1,0.1,0.2,0.1c0.1,0,0.2,0,0.3-0.1
																		c0.1-0.1,0.3-0.2,0.5-0.5l0.3,0.3c-0.3,0.3-0.6,0.6-0.8,0.7s-0.5,0.2-0.7,0.2c-0.2,0-0.4-0.1-0.5-0.2
																		c-0.1-0.1-0.2-0.3-0.2-0.6c0-0.2,0-0.4,0.1-0.6l-0.1,0c-0.3,0.5-0.7,0.8-0.9,1.1s-0.6,0.3-0.9,0.3
																		c-0.4,0-0.7-0.1-0.9-0.4c-0.2-0.3-0.3-0.7-0.3-1.2c0-0.6,0.1-1.2,0.4-1.7s0.6-1,1-1.3
																		C143.4,99.6,143.9,99.4,144.4,99.4L144.4,99.4z M127.6,99.4c0.2,0,0.4,0.1,0.5,0.2s0.2,0.3,0.2,0.6
																		c0,0.2,0,0.4-0.1,0.6l0.1,0c0.3-0.5,0.7-0.8,1-1.1c0.3-0.2,0.6-0.3,1-0.3c0.3,0,0.6,0.1,0.7,0.3
																		c0.2,0.2,0.3,0.4,0.3,0.8c0,0.2-0.1,0.5-0.2,0.9l-0.3,1.4c-0.1,0.4-0.1,0.6-0.1,0.8c0,0.1,0,0.2,0.1,0.3
																		c0,0.1,0.1,0.1,0.2,0.1c0.1,0,0.2,0,0.3-0.1c0.1-0.1,0.3-0.2,0.5-0.5l0.3,0.3c-0.3,0.3-0.6,0.6-0.8,0.7
																		c-0.2,0.1-0.5,0.2-0.8,0.2c-0.2,0-0.4-0.1-0.5-0.2s-0.2-0.4-0.2-0.6c0-0.2,0.1-0.6,0.2-1l0.2-0.9
																		c0.1-0.3,0.1-0.6,0.2-0.7c0-0.2,0-0.3,0-0.4c0-0.2,0-0.4-0.1-0.5c-0.1-0.1-0.2-0.2-0.4-0.2c-0.1,0-0.3,0.1-0.5,0.2
																		c-0.2,0.1-0.3,0.3-0.5,0.5c-0.2,0.2-0.3,0.5-0.5,0.7s-0.2,0.5-0.3,0.8l-0.5,2.3h-0.9l0.8-3.3
																		c0.1-0.3,0.1-0.6,0.1-0.8c0-0.1,0-0.2-0.1-0.3c0-0.1-0.1-0.1-0.2-0.1c-0.1,0-0.2,0-0.3,0.1
																		c-0.1,0.1-0.3,0.2-0.5,0.5l-0.3-0.3c0.3-0.3,0.6-0.6,0.8-0.7C127.1,99.5,127.3,99.4,127.6,99.4L127.6,99.4z
																		 M155.3,98.2h0.7l-0.3,1.3h1.6l-0.1,0.5h-1.6l-0.5,2c-0.1,0.4-0.1,0.7-0.2,0.8c0,0.2,0,0.3,0,0.4
																		c0,0.4,0.2,0.6,0.5,0.6c0.2,0,0.3-0.1,0.5-0.2c0.2-0.1,0.4-0.3,0.6-0.6l0.3,0.3c-0.3,0.4-0.6,0.6-0.9,0.8
																		c-0.3,0.2-0.6,0.3-0.9,0.3c-0.7,0-1.1-0.4-1.1-1.1c0-0.2,0-0.5,0.1-0.7l0.6-2.7h-0.9l0.1-0.4c0.2,0,0.4,0,0.5,0
																		c0.1,0,0.2-0.1,0.3-0.1c0.1,0,0.1-0.1,0.2-0.2c0.1-0.1,0.1-0.2,0.2-0.3S155.2,98.6,155.3,98.2L155.3,98.2z
																		 M139,98.2h0.7l-0.3,1.3h1.6l-0.1,0.5h-1.6l-0.5,2c-0.1,0.4-0.1,0.7-0.2,0.8c0,0.2,0,0.3,0,0.4
																		c0,0.4,0.2,0.6,0.5,0.6c0.2,0,0.3-0.1,0.5-0.2c0.2-0.1,0.4-0.3,0.6-0.6l0.3,0.3c-0.3,0.4-0.6,0.6-0.9,0.8
																		c-0.3,0.2-0.6,0.3-0.9,0.3c-0.7,0-1.1-0.4-1.1-1.1c0-0.2,0-0.5,0.1-0.7l0.6-2.7h-0.9l0.1-0.4c0.2,0,0.4,0,0.5,0
																		s0.2-0.1,0.3-0.1c0.1,0,0.1-0.1,0.2-0.2s0.1-0.2,0.2-0.3S138.9,98.6,139,98.2L139,98.2z"/>
																	<g class="st33">
																		<defs>
																			<polygon id="SVGID_33_" points="1.5,143.8 213.4,143.8 213.4,1.8 1.5,1.8 1.5,143.8 																			"/>
																		</defs>
																		<clipPath id="SVGID_34_">
																			<use xlink:href="#SVGID_33_"  style="overflow:visible;"/>
																		</clipPath>
																		<path class="st34" d="M98.7,108c-0.2,12.1,14.2,22.3,32.9,23.3"/>
																		<g class="st35">
																			<defs>
																				<polygon id="SVGID_35_" points="1.5,143.8 213.4,143.8 213.4,1.8 1.5,1.8 1.5,143.8 																				"/>
																			</defs>
																			<clipPath id="SVGID_36_">
																				<use xlink:href="#SVGID_35_"  style="overflow:visible;"/>
																			</clipPath>
																			<path class="st36" d="M145.4,130.7c-0.2,0-0.4,0.1-0.5,0.3c-0.1,0.2-0.3,0.4-0.4,0.7c-0.1,0.3-0.1,0.6-0.1,0.8
																				c0,0.2,0,0.4,0.1,0.5c0.1,0.1,0.2,0.2,0.4,0.2c0.2,0,0.4-0.1,0.5-0.3s0.3-0.4,0.3-0.7s0.1-0.6,0.1-0.8
																				c0-0.2,0-0.4-0.1-0.5C145.7,130.7,145.5,130.7,145.4,130.7L145.4,130.7z M154.2,130.7c-0.2,0-0.4,0.1-0.6,0.3
																				c-0.2,0.2-0.3,0.5-0.4,0.8c0.3,0,0.5,0,0.7-0.1c0.2,0,0.3-0.1,0.4-0.2c0.1-0.1,0.2-0.2,0.2-0.4
																				c0-0.1,0-0.2-0.1-0.3C154.4,130.7,154.3,130.7,154.2,130.7L154.2,130.7z M145.4,130.5c0.3,0,0.5,0.1,0.7,0.3
																				s0.2,0.4,0.2,0.7c0,0.2,0,0.5-0.1,0.7s-0.2,0.5-0.3,0.6s-0.3,0.3-0.5,0.4c-0.2,0.1-0.4,0.1-0.7,0.1
																				c-0.3,0-0.5-0.1-0.7-0.3c-0.2-0.2-0.2-0.4-0.2-0.7c0-0.2,0-0.3,0.1-0.5c0.1-0.3,0.2-0.5,0.3-0.7
																				c0.1-0.2,0.3-0.4,0.5-0.5C144.9,130.5,145.2,130.5,145.4,130.5L145.4,130.5z M156.1,130.4c0.1,0,0.2,0,0.3,0.1
																				c0.1,0.1,0.1,0.2,0.1,0.3c0,0.1,0,0.2-0.1,0.3l0,0c0.2-0.3,0.4-0.4,0.5-0.6c0.2-0.1,0.4-0.2,0.5-0.2
																				c0.1,0,0.3,0,0.4,0l-0.1,0.7h-0.3c0-0.1,0-0.1,0-0.2c0,0,0-0.1-0.1-0.1c0,0-0.1,0-0.1,0c-0.1,0-0.1,0-0.2,0.1
																				c-0.1,0.1-0.2,0.2-0.3,0.3c-0.1,0.1-0.2,0.3-0.2,0.4c-0.1,0.1-0.1,0.3-0.2,0.4l-0.3,1.3h-0.5l0.4-1.8
																				c0-0.1,0-0.2,0.1-0.3c0-0.1,0-0.1,0-0.2c0-0.1,0-0.1,0-0.2c0,0-0.1-0.1-0.1-0.1c-0.1,0-0.1,0-0.2,0.1
																				c-0.1,0-0.2,0.1-0.3,0.3l-0.2-0.2c0.2-0.2,0.3-0.3,0.4-0.4C155.9,130.5,156,130.4,156.1,130.4L156.1,130.4z
																				 M154.3,130.4c0.2,0,0.4,0,0.5,0.1c0.1,0.1,0.2,0.2,0.2,0.4c0,0.3-0.2,0.6-0.5,0.7s-0.8,0.2-1.4,0.2
																				c0,0.1,0,0.2,0,0.4c0,0.2,0,0.4,0.1,0.4c0.1,0.1,0.2,0.1,0.4,0.1c0.2,0,0.3,0,0.5-0.1c0.1-0.1,0.3-0.2,0.5-0.4
																				l0.2,0.2c-0.2,0.2-0.4,0.4-0.6,0.5c-0.2,0.1-0.4,0.2-0.7,0.2c-0.3,0-0.5-0.1-0.7-0.3c-0.2-0.2-0.2-0.4-0.2-0.7
																				c0-0.2,0-0.4,0.1-0.7c0.1-0.2,0.2-0.4,0.3-0.6c0.2-0.2,0.3-0.3,0.5-0.4C153.8,130.5,154,130.4,154.3,130.4
																				L154.3,130.4z M141,130.4c0.1,0,0.2,0,0.3,0.1c0.1,0.1,0.1,0.2,0.1,0.3c0,0.1,0,0.2-0.1,0.3l0,0
																				c0.2-0.3,0.4-0.5,0.5-0.6c0.2-0.1,0.3-0.2,0.5-0.2c0.2,0,0.3,0.1,0.4,0.2c0.1,0.1,0.1,0.2,0.1,0.4
																				c0,0.1,0,0.3-0.1,0.5l-0.2,0.8c-0.1,0.2-0.1,0.4-0.1,0.4c0,0.1,0,0.1,0,0.2c0,0,0.1,0.1,0.1,0.1
																				c0.1,0,0.1,0,0.2-0.1c0.1,0,0.2-0.1,0.3-0.3l0.2,0.2c-0.2,0.2-0.3,0.3-0.4,0.4c-0.1,0.1-0.3,0.1-0.4,0.1
																				c-0.1,0-0.2,0-0.3-0.1c-0.1-0.1-0.1-0.2-0.1-0.3c0-0.1,0-0.3,0.1-0.6l0.1-0.5c0-0.2,0.1-0.3,0.1-0.4
																				c0-0.1,0-0.2,0-0.2c0-0.1,0-0.2-0.1-0.3c0-0.1-0.1-0.1-0.2-0.1c-0.1,0-0.2,0-0.3,0.1s-0.2,0.2-0.3,0.3
																				c-0.1,0.1-0.2,0.3-0.3,0.4c-0.1,0.1-0.1,0.3-0.2,0.5l-0.3,1.3h-0.5l0.4-1.8c0-0.2,0.1-0.3,0.1-0.4
																				c0-0.1,0-0.1,0-0.2c0,0-0.1-0.1-0.1-0.1c-0.1,0-0.1,0-0.2,0.1c-0.1,0-0.2,0.1-0.3,0.3l-0.2-0.2
																				c0.2-0.2,0.3-0.3,0.4-0.4C140.7,130.5,140.9,130.4,141,130.4L141,130.4z M138.8,129.9l-1,1.8h1.1l0-0.9
																				c0-0.1,0-0.3,0-0.5C138.8,130.1,138.8,130,138.8,129.9L138.8,129.9z M147.8,129.8h0.4l-0.2,0.7h0.9l-0.1,0.3H148
																				l-0.3,1.1c-0.1,0.2-0.1,0.4-0.1,0.5c0,0.1,0,0.2,0,0.2c0,0.2,0.1,0.4,0.3,0.4c0.1,0,0.2,0,0.3-0.1
																				c0.1-0.1,0.2-0.2,0.3-0.3l0.2,0.2c-0.2,0.2-0.3,0.4-0.5,0.4c-0.2,0.1-0.3,0.1-0.5,0.1c-0.4,0-0.6-0.2-0.6-0.6
																				c0-0.1,0-0.3,0-0.4l0.3-1.5H147l0-0.2c0.1,0,0.2,0,0.3,0c0.1,0,0.1,0,0.1-0.1s0.1-0.1,0.1-0.1
																				c0-0.1,0.1-0.1,0.1-0.2C147.7,130.1,147.8,130,147.8,129.8L147.8,129.8z M138.8,129.3h0.4l0.2,3.2
																				c0,0.2,0,0.3,0.1,0.4c0,0.1,0.1,0.1,0.1,0.2c0,0,0.1,0.1,0.2,0.1l0,0.1h-1.2l0-0.1c0.1,0,0.2-0.1,0.3-0.1
																				c0.1-0.1,0.1-0.2,0.1-0.4c0-0.1,0-0.2,0-0.2l0-0.4h-1.3l-0.2,0.3c-0.1,0.1-0.1,0.2-0.2,0.3
																				c0,0.1-0.1,0.2-0.1,0.3c0,0.2,0.1,0.3,0.3,0.3l0,0.1h-1.2l0-0.1c0.1,0,0.1,0,0.2-0.1c0.1,0,0.1-0.1,0.2-0.2
																				c0.1-0.1,0.1-0.2,0.3-0.4L138.8,129.3z M150.5,129.1h0.2l-0.5,2l0,0c0.2-0.2,0.4-0.4,0.5-0.5
																				c0.2-0.1,0.3-0.2,0.5-0.2c0.2,0,0.3,0.1,0.4,0.2c0.1,0.1,0.1,0.2,0.1,0.4c0,0.1,0,0.3-0.1,0.5l-0.2,0.8
																				c-0.1,0.2-0.1,0.4-0.1,0.4c0,0.1,0,0.1,0,0.2c0,0,0.1,0.1,0.1,0.1c0.1,0,0.1,0,0.2-0.1s0.2-0.1,0.3-0.3l0.2,0.2
																				c-0.2,0.2-0.3,0.3-0.5,0.4c-0.1,0.1-0.3,0.1-0.4,0.1c-0.1,0-0.2,0-0.3-0.1c-0.1-0.1-0.1-0.2-0.1-0.3
																				c0-0.1,0-0.3,0.1-0.6l0.1-0.5c0-0.2,0.1-0.3,0.1-0.4c0-0.1,0-0.2,0-0.2c0-0.1,0-0.2-0.1-0.3
																				c0-0.1-0.1-0.1-0.2-0.1c-0.1,0-0.2,0-0.3,0.1c-0.1,0.1-0.2,0.2-0.3,0.3s-0.2,0.3-0.3,0.4
																				c-0.1,0.1-0.1,0.3-0.1,0.4l-0.3,1.3h-0.5l0.7-3.3c0-0.2,0.1-0.4,0.1-0.4c0-0.1,0-0.1-0.1-0.2s-0.1-0.1-0.3-0.1
																				l0-0.2L150.5,129.1L150.5,129.1z"/>
																			<g class="st37">
																				<defs>
																					<polygon id="SVGID_37_" points="1.5,143.8 213.4,143.8 213.4,1.8 1.5,1.8 1.5,143.8 																					"/>
																				</defs>
																				<clipPath id="SVGID_38_">
																					<use xlink:href="#SVGID_37_"  style="overflow:visible;"/>
																				</clipPath>
																				<path class="st38" d="M175.7,130.7c-0.2,0-0.4,0.1-0.5,0.3c-0.1,0.2-0.3,0.4-0.4,0.7c-0.1,0.3-0.1,0.6-0.1,0.8
																					c0,0.2,0,0.4,0.1,0.5c0.1,0.1,0.2,0.2,0.4,0.2c0.2,0,0.4-0.1,0.5-0.3c0.1-0.2,0.3-0.4,0.3-0.7
																					c0.1-0.3,0.1-0.6,0.1-0.8c0-0.2,0-0.4-0.1-0.5C176,130.7,175.8,130.7,175.7,130.7L175.7,130.7z M173.1,130.5
																					h0.2l-0.4,1.9c0,0.2-0.1,0.3-0.1,0.4c0,0.1,0,0.1,0,0.2c0,0,0.1,0.1,0.1,0.1c0.1,0,0.1,0,0.2-0.1
																					c0.1,0,0.2-0.1,0.3-0.3l0.2,0.2c-0.2,0.2-0.3,0.3-0.5,0.4c-0.1,0.1-0.3,0.1-0.4,0.1c-0.1,0-0.2,0-0.3-0.1
																					c-0.1-0.1-0.1-0.2-0.1-0.4c0-0.1,0-0.3,0.1-0.6l0.2-0.9c0-0.2,0.1-0.3,0.1-0.4c0-0.1,0-0.1-0.1-0.2
																					c0,0-0.1,0-0.2-0.1l0-0.2L173.1,130.5L173.1,130.5z M175.7,130.5c0.3,0,0.5,0.1,0.7,0.3s0.2,0.4,0.2,0.7
																					c0,0.2,0,0.5-0.1,0.7s-0.2,0.5-0.3,0.6s-0.3,0.3-0.5,0.4c-0.2,0.1-0.4,0.1-0.7,0.1c-0.3,0-0.5-0.1-0.7-0.3
																					c-0.2-0.2-0.2-0.4-0.2-0.7c0-0.2,0-0.3,0.1-0.5c0.1-0.3,0.2-0.5,0.3-0.7c0.1-0.2,0.3-0.4,0.5-0.5
																					C175.2,130.5,175.5,130.5,175.7,130.5L175.7,130.5z M177.9,130.4c0.1,0,0.2,0,0.3,0.1c0.1,0.1,0.1,0.2,0.1,0.3
																					c0,0.1,0,0.2-0.1,0.3l0,0c0.2-0.3,0.4-0.5,0.5-0.6c0.2-0.1,0.3-0.2,0.5-0.2c0.2,0,0.3,0.1,0.4,0.2
																					c0.1,0.1,0.1,0.2,0.1,0.4c0,0.1,0,0.3-0.1,0.5l-0.2,0.8c-0.1,0.2-0.1,0.4-0.1,0.4c0,0.1,0,0.1,0,0.2
																					c0,0,0.1,0.1,0.1,0.1c0.1,0,0.1,0,0.2-0.1c0.1,0,0.2-0.1,0.3-0.3l0.2,0.2c-0.2,0.2-0.3,0.3-0.4,0.4
																					c-0.1,0.1-0.3,0.1-0.4,0.1c-0.1,0-0.2,0-0.3-0.1c-0.1-0.1-0.1-0.2-0.1-0.3c0-0.1,0-0.3,0.1-0.6l0.1-0.5
																					c0-0.2,0.1-0.3,0.1-0.4c0-0.1,0-0.2,0-0.2c0-0.1,0-0.2-0.1-0.3c0-0.1-0.1-0.1-0.2-0.1c-0.1,0-0.2,0-0.3,0.1
																					s-0.2,0.2-0.3,0.3c-0.1,0.1-0.2,0.3-0.3,0.4c-0.1,0.1-0.1,0.3-0.2,0.5l-0.3,1.3h-0.5l0.4-1.8
																					c0-0.2,0.1-0.3,0.1-0.4c0-0.1,0-0.1,0-0.2s-0.1-0.1-0.1-0.1c-0.1,0-0.1,0-0.2,0.1c-0.1,0-0.2,0.1-0.3,0.3
																					L177,131c0.2-0.2,0.3-0.3,0.4-0.4C177.6,130.5,177.7,130.4,177.9,130.4L177.9,130.4z M167.1,130.4
																					c0.1,0,0.2,0,0.3,0.1c0.1,0.1,0.1,0.2,0.1,0.3c0,0.1,0,0.2-0.1,0.3l0,0c0.2-0.3,0.4-0.5,0.5-0.6
																					c0.2-0.1,0.3-0.2,0.5-0.2c0.2,0,0.3,0.1,0.4,0.2c0.1,0.1,0.1,0.2,0.1,0.4c0,0.1,0,0.3-0.1,0.5l-0.2,0.8
																					c-0.1,0.2-0.1,0.4-0.1,0.4c0,0.1,0,0.1,0,0.2c0,0,0.1,0.1,0.1,0.1c0.1,0,0.1,0,0.2-0.1s0.2-0.1,0.3-0.3l0.2,0.2
																					c-0.2,0.2-0.3,0.3-0.4,0.4c-0.1,0.1-0.3,0.1-0.4,0.1c-0.1,0-0.2,0-0.3-0.1c-0.1-0.1-0.1-0.2-0.1-0.3
																					c0-0.1,0-0.3,0.1-0.6l0.1-0.5c0-0.2,0.1-0.3,0.1-0.4c0-0.1,0-0.2,0-0.2c0-0.1,0-0.2-0.1-0.3
																					c0-0.1-0.1-0.1-0.2-0.1c-0.1,0-0.2,0-0.3,0.1c-0.1,0.1-0.2,0.2-0.3,0.3c-0.1,0.1-0.2,0.3-0.3,0.4
																					c-0.1,0.1-0.1,0.3-0.2,0.5l-0.3,1.3h-0.5l0.4-1.8c0-0.2,0.1-0.3,0.1-0.4c0-0.1,0-0.1,0-0.2c0,0-0.1-0.1-0.1-0.1
																					c-0.1,0-0.1,0-0.2,0.1c-0.1,0-0.2,0.1-0.3,0.3l-0.2-0.2c0.2-0.2,0.3-0.3,0.4-0.4
																					C166.8,130.5,166.9,130.4,167.1,130.4L167.1,130.4z M163.7,130.4c0.1,0,0.2,0,0.3,0.1c0.1,0.1,0.1,0.2,0.1,0.3
																					c0,0.2,0,0.3-0.1,0.6l-0.1,0.5c0,0.1-0.1,0.2-0.1,0.3c0,0.1,0,0.1,0,0.2c0,0.1,0,0.1,0,0.1c0,0.1,0,0.2,0.1,0.3
																					c0,0.1,0.1,0.1,0.2,0.1c0.1,0,0.2,0,0.3-0.1c0.1-0.1,0.2-0.2,0.3-0.3c0.1-0.1,0.2-0.3,0.3-0.4
																					c0.1-0.1,0.1-0.3,0.2-0.5l0.3-1.3h0.5l-0.4,1.8c0,0.2-0.1,0.3-0.1,0.4c0,0.1,0,0.1,0,0.2c0,0,0.1,0.1,0.1,0.1
																					c0.1,0,0.1,0,0.2-0.1c0.1,0,0.2-0.1,0.3-0.3l0.2,0.2c-0.2,0.2-0.3,0.3-0.4,0.4c-0.1,0.1-0.3,0.1-0.4,0.1
																					c-0.1,0-0.2,0-0.3-0.1c-0.1-0.1-0.1-0.2-0.1-0.3c0-0.1,0-0.2,0.1-0.3l0,0c-0.2,0.3-0.4,0.5-0.5,0.6
																					c-0.2,0.1-0.3,0.2-0.5,0.2s-0.3-0.1-0.4-0.2c-0.1-0.1-0.1-0.2-0.1-0.4c0-0.1,0-0.3,0.1-0.5l0.2-0.8
																					c0.1-0.2,0.1-0.4,0.1-0.4c0-0.1,0-0.1,0-0.2s-0.1-0.1-0.1-0.1c-0.1,0-0.1,0-0.2,0.1c-0.1,0-0.2,0.1-0.3,0.3
																					l-0.2-0.2c0.2-0.2,0.3-0.3,0.4-0.3c0.1-0.1,0.2-0.1,0.2-0.1C163.5,130.5,163.6,130.4,163.7,130.4L163.7,130.4z
																					 M170.7,129.8h0.4l-0.2,0.7h0.9l-0.1,0.3h-0.9l-0.3,1.1c-0.1,0.2-0.1,0.4-0.1,0.5c0,0.1,0,0.2,0,0.2
																					c0,0.2,0.1,0.4,0.3,0.4c0.1,0,0.2,0,0.3-0.1c0.1-0.1,0.2-0.2,0.3-0.3l0.2,0.2c-0.2,0.2-0.3,0.4-0.5,0.4
																					c-0.2,0.1-0.3,0.1-0.5,0.1c-0.4,0-0.6-0.2-0.6-0.6c0-0.1,0-0.3,0-0.4l0.3-1.5h-0.5l0-0.2c0.1,0,0.2,0,0.3,0
																					c0.1,0,0.1,0,0.1-0.1s0.1-0.1,0.1-0.1c0-0.1,0.1-0.1,0.1-0.2C170.6,130.1,170.7,130,170.7,129.8L170.7,129.8z
																					 M173.1,129.4h0.5l-0.1,0.6h-0.5L173.1,129.4L173.1,129.4z M162.2,129.1c0.2,0,0.4,0,0.5,0l-0.1,0.5h-0.3
																					c0-0.1-0.1-0.2-0.1-0.2c0,0-0.1-0.1-0.2-0.1c-0.1,0-0.2,0-0.3,0.1c-0.1,0.1-0.1,0.2-0.2,0.3
																					c-0.1,0.1-0.1,0.3-0.2,0.5l-0.1,0.3h0.7l-0.1,0.3h-0.7l-0.5,2.5c-0.1,0.4-0.2,0.7-0.4,0.9
																					c-0.2,0.2-0.4,0.3-0.7,0.3c-0.1,0-0.1,0-0.2,0l0-0.3c0,0,0.1,0,0.1,0c0.1,0,0.2,0,0.2-0.1
																					c0.1,0,0.1-0.1,0.2-0.2c0.1-0.1,0.1-0.3,0.1-0.5l0.6-2.8h-0.5l0-0.2c0.1,0,0.2,0,0.3,0c0.1,0,0.1,0,0.1-0.1
																					c0,0,0.1-0.1,0.1-0.1c0,0,0.1-0.1,0.1-0.2c0.1-0.3,0.3-0.6,0.5-0.8C161.6,129.2,161.9,129.1,162.2,129.1
																					L162.2,129.1z"/>
																				<g class="st39">
																					<defs>
																						<polygon id="SVGID_39_" points="1.5,143.8 213.4,143.8 213.4,1.8 1.5,1.8 1.5,143.8 																						
																							"/>
																					</defs>
																					<clipPath id="SVGID_40_">
																						<use xlink:href="#SVGID_39_"  style="overflow:visible;"/>
																					</clipPath>
																					<path class="st40" d="M183.6,130.7c-0.2,0-0.4,0.1-0.5,0.3c-0.1,0.2-0.3,0.4-0.4,0.7c-0.1,0.3-0.1,0.6-0.1,0.8
																						c0,0.2,0,0.4,0.1,0.5c0.1,0.1,0.2,0.2,0.4,0.2c0.2,0,0.4-0.1,0.5-0.3c0.1-0.2,0.3-0.4,0.3-0.7s0.1-0.6,0.1-0.8
																						c0-0.2,0-0.4-0.1-0.5C183.9,130.7,183.8,130.7,183.6,130.7L183.6,130.7z M183.7,130.5c0.3,0,0.5,0.1,0.7,0.3
																						c0.2,0.2,0.2,0.4,0.2,0.7c0,0.2,0,0.5-0.1,0.7s-0.2,0.5-0.3,0.6s-0.3,0.3-0.5,0.4c-0.2,0.1-0.4,0.1-0.7,0.1
																						c-0.3,0-0.5-0.1-0.7-0.3c-0.2-0.2-0.2-0.4-0.2-0.7c0-0.2,0-0.3,0.1-0.5c0.1-0.3,0.2-0.5,0.3-0.7
																						c0.1-0.2,0.3-0.4,0.5-0.5C183.2,130.5,183.4,130.5,183.7,130.5L183.7,130.5z M187.7,129.1c0.2,0,0.4,0,0.5,0
																						l-0.1,0.5h-0.3c0-0.1-0.1-0.2-0.1-0.2c0,0-0.1-0.1-0.2-0.1c-0.1,0-0.2,0-0.3,0.1c-0.1,0.1-0.1,0.2-0.2,0.3
																						c-0.1,0.1-0.1,0.3-0.2,0.5l-0.1,0.3h0.7l-0.1,0.3h-0.7l-0.5,2.5c-0.1,0.4-0.2,0.7-0.4,0.9
																						c-0.2,0.2-0.4,0.3-0.7,0.3c-0.1,0-0.1,0-0.2,0l0-0.3c0,0,0.1,0,0.1,0c0.1,0,0.2,0,0.2-0.1
																						c0.1,0,0.1-0.1,0.2-0.2c0.1-0.1,0.1-0.3,0.1-0.5l0.6-2.8h-0.5l0-0.2c0.1,0,0.2,0,0.3,0c0.1,0,0.1,0,0.1-0.1
																						c0,0,0.1-0.1,0.1-0.1c0,0,0.1-0.1,0.1-0.2c0.1-0.3,0.3-0.6,0.5-0.8C187.1,129.2,187.3,129.1,187.7,129.1
																						L187.7,129.1z"/>
																					<g class="st41">
																						<defs>
																							<polygon id="SVGID_41_" points="1.5,143.8 213.4,143.8 213.4,1.8 1.5,1.8 1.5,143.8 																							
																								"/>
																						</defs>
																						<clipPath id="SVGID_42_">
																							<use xlink:href="#SVGID_41_"  style="overflow:visible;"/>
																						</clipPath>
																						<path class="st42" d="M190.8,130.4c0.1,0,0.1,0,0.2,0c0,0,0.1,0,0.1,0.1c0,0,0.1,0.1,0.1,0.1
																							c0,0,0.1,0.1,0.1,0.2c0,0.1,0,0.2,0.1,0.3c0,0.1,0,0.2,0.1,0.4h0c0.2-0.3,0.3-0.5,0.4-0.6
																							c0.1-0.1,0.2-0.2,0.2-0.3c0.1-0.1,0.1-0.1,0.2-0.1c0.1,0,0.1,0,0.2,0c0.1,0,0.2,0,0.2,0l-0.1,0.5h-0.2
																							c0-0.1,0-0.1-0.1-0.1c0,0,0,0-0.1,0c0,0,0,0-0.1,0c0,0-0.1,0.1-0.1,0.1c-0.1,0.1-0.1,0.1-0.2,0.2
																							c-0.1,0.1-0.1,0.2-0.2,0.3l-0.2,0.2c0,0.2,0.1,0.3,0.1,0.5c0,0.1,0.1,0.2,0.1,0.3c0,0.1,0,0.2,0.1,0.2
																							c0,0.1,0,0.1,0.1,0.1c0,0,0,0,0.1,0.1c0,0,0,0,0.1,0c0.1,0,0.1,0,0.2-0.1c0,0,0.1-0.1,0.2-0.3l0.2,0.1
																							c-0.1,0.2-0.3,0.3-0.4,0.4c-0.1,0.1-0.2,0.1-0.4,0.1c-0.1,0-0.2,0-0.2,0c-0.1,0-0.1-0.1-0.2-0.1
																							c0-0.1-0.1-0.2-0.1-0.3c-0.1-0.2-0.1-0.4-0.1-0.6h0c-0.2,0.3-0.4,0.5-0.5,0.6c-0.1,0.1-0.2,0.2-0.2,0.3
																							c-0.1,0.1-0.1,0.1-0.2,0.1s-0.1,0-0.2,0c-0.1,0-0.2,0-0.2,0l0.1-0.5h0.2c0,0.1,0,0.1,0.1,0.1c0,0,0.1,0,0.1,0
																							c0,0,0.1,0,0.1-0.1c0.1-0.1,0.1-0.1,0.2-0.3c0.1-0.1,0.2-0.3,0.4-0.5c0-0.2-0.1-0.3-0.1-0.4
																							c0-0.1-0.1-0.3-0.1-0.4c0-0.1-0.1-0.2-0.1-0.2c0,0,0-0.1-0.1-0.1c0,0-0.1,0-0.1,0c0,0-0.1,0-0.1,0
																							c0,0-0.1,0.1-0.1,0.1c0,0-0.1,0.1-0.2,0.2l-0.2-0.1c0.1-0.2,0.2-0.3,0.4-0.4
																							C190.5,130.5,190.7,130.4,190.8,130.4L190.8,130.4z"/>
																						<g class="st43">
																							<defs>
																								<polygon id="SVGID_43_" points="1.5,143.8 213.4,143.8 213.4,1.8 1.5,1.8 1.5,143.8 
																																																	"/>
																							</defs>
																							<clipPath id="SVGID_44_">
																								<use xlink:href="#SVGID_43_"  style="overflow:visible;"/>
																							</clipPath>
																							<path class="st44" d="M41.5,18.1c-0.2,0-0.4,0.1-0.6,0.3c-0.2,0.2-0.3,0.5-0.4,0.8c0.3,0,0.5,0,0.7-0.1
																								c0.2,0,0.3-0.1,0.4-0.2c0.1-0.1,0.2-0.2,0.2-0.4c0-0.1,0-0.2-0.1-0.3C41.7,18.1,41.7,18.1,41.5,18.1
																								L41.5,18.1z M25.8,18.1c-0.2,0-0.4,0.1-0.6,0.3c-0.2,0.2-0.3,0.5-0.4,0.8c0.3,0,0.5,0,0.7-0.1
																								c0.2,0,0.3-0.1,0.4-0.2c0.1-0.1,0.2-0.2,0.2-0.4c0-0.1,0-0.2-0.1-0.3C26,18.1,25.9,18.1,25.8,18.1L25.8,18.1
																								z M36.6,17.9h0.2l-0.4,1.9c0,0.2-0.1,0.3-0.1,0.4c0,0.1,0,0.1,0,0.2s0.1,0.1,0.1,0.1c0.1,0,0.1,0,0.2-0.1
																								s0.2-0.1,0.3-0.3l0.2,0.2c-0.2,0.2-0.3,0.3-0.5,0.4c-0.1,0.1-0.3,0.1-0.4,0.1c-0.1,0-0.2,0-0.3-0.1
																								c-0.1-0.1-0.1-0.2-0.1-0.4c0-0.1,0-0.3,0.1-0.6l0.2-0.9c0-0.2,0.1-0.3,0.1-0.4c0-0.1,0-0.1-0.1-0.2
																								c0,0-0.1,0-0.2-0.1l0-0.2L36.6,17.9L36.6,17.9z M31.3,17.9h0.2l-0.4,1.9c0,0.2-0.1,0.3-0.1,0.4
																								c0,0.1,0,0.1,0,0.2s0.1,0.1,0.1,0.1c0.1,0,0.1,0,0.2-0.1c0.1,0,0.2-0.1,0.3-0.3l0.2,0.2
																								c-0.2,0.2-0.3,0.3-0.5,0.4c-0.1,0.1-0.3,0.1-0.4,0.1c-0.1,0-0.2,0-0.3-0.1c-0.1-0.1-0.1-0.2-0.1-0.4
																								c0-0.1,0-0.3,0.1-0.6l0.2-0.9c0-0.2,0.1-0.3,0.1-0.4c0-0.1,0-0.1-0.1-0.2c0,0-0.1,0-0.2-0.1l0-0.2L31.3,17.9
																								L31.3,17.9z M41.7,17.9c0.2,0,0.4,0,0.5,0.1c0.1,0.1,0.2,0.2,0.2,0.4c0,0.3-0.2,0.6-0.5,0.7
																								c-0.3,0.2-0.8,0.2-1.4,0.2c0,0.1,0,0.2,0,0.4c0,0.2,0,0.4,0.1,0.4c0.1,0.1,0.2,0.1,0.4,0.1
																								c0.2,0,0.3,0,0.5-0.1c0.1-0.1,0.3-0.2,0.5-0.4l0.2,0.2c-0.2,0.2-0.4,0.4-0.6,0.5c-0.2,0.1-0.4,0.2-0.7,0.2
																								c-0.3,0-0.5-0.1-0.7-0.3S40,20.1,40,19.8c0-0.2,0-0.4,0.1-0.7c0.1-0.2,0.2-0.4,0.3-0.6
																								c0.2-0.2,0.3-0.3,0.5-0.4C41.2,17.9,41.4,17.9,41.7,17.9L41.7,17.9z M32.9,17.9c0.1,0,0.2,0,0.3,0.1
																								c0.1,0.1,0.1,0.2,0.1,0.3c0,0.1,0,0.2-0.1,0.3l0,0c0.2-0.3,0.4-0.5,0.5-0.6c0.2-0.1,0.3-0.2,0.5-0.2
																								c0.2,0,0.3,0.1,0.4,0.2c0.1,0.1,0.1,0.2,0.1,0.4c0,0.1,0,0.3-0.1,0.5l-0.2,0.8c-0.1,0.2-0.1,0.4-0.1,0.4
																								c0,0.1,0,0.1,0,0.2c0,0,0.1,0.1,0.1,0.1c0.1,0,0.1,0,0.2-0.1s0.2-0.1,0.3-0.3l0.2,0.2
																								c-0.2,0.2-0.3,0.3-0.4,0.4c-0.1,0.1-0.3,0.1-0.4,0.1c-0.1,0-0.2,0-0.3-0.1c-0.1-0.1-0.1-0.2-0.1-0.3
																								c0-0.1,0-0.3,0.1-0.6l0.1-0.5c0-0.2,0.1-0.3,0.1-0.4c0-0.1,0-0.2,0-0.2c0-0.1,0-0.2-0.1-0.3
																								c0-0.1-0.1-0.1-0.2-0.1c-0.1,0-0.2,0-0.3,0.1c-0.1,0.1-0.2,0.2-0.3,0.3c-0.1,0.1-0.2,0.3-0.3,0.4
																								c-0.1,0.1-0.1,0.3-0.2,0.5l-0.3,1.3h-0.5l0.4-1.8c0-0.2,0.1-0.3,0.1-0.4c0-0.1,0-0.1,0-0.2s-0.1-0.1-0.1-0.1
																								c-0.1,0-0.1,0-0.2,0.1c-0.1,0-0.2,0.1-0.3,0.3l-0.2-0.2c0.2-0.2,0.3-0.3,0.4-0.4
																								C32.7,17.9,32.8,17.9,32.9,17.9L32.9,17.9z M25.9,17.9c0.2,0,0.4,0,0.5,0.1c0.1,0.1,0.2,0.2,0.2,0.4
																								c0,0.3-0.2,0.6-0.5,0.7c-0.3,0.2-0.8,0.2-1.4,0.2c0,0.1,0,0.2,0,0.4c0,0.2,0,0.4,0.1,0.4
																								c0.1,0.1,0.2,0.1,0.4,0.1c0.2,0,0.3,0,0.5-0.1c0.1-0.1,0.3-0.2,0.5-0.4l0.2,0.2c-0.2,0.2-0.4,0.4-0.6,0.5
																								c-0.2,0.1-0.4,0.2-0.7,0.2c-0.3,0-0.5-0.1-0.7-0.3c-0.2-0.2-0.2-0.4-0.2-0.7c0-0.2,0-0.4,0.1-0.7
																								c0.1-0.2,0.2-0.4,0.3-0.6c0.2-0.2,0.3-0.3,0.5-0.4C25.5,17.9,25.7,17.9,25.9,17.9L25.9,17.9z M38.5,17.2h0.4
																								l-0.2,0.7h0.9l-0.1,0.3h-0.9l-0.3,1.1c-0.1,0.2-0.1,0.4-0.1,0.5c0,0.1,0,0.2,0,0.2c0,0.2,0.1,0.4,0.3,0.4
																								c0.1,0,0.2,0,0.3-0.1s0.2-0.2,0.3-0.3l0.2,0.2c-0.2,0.2-0.3,0.4-0.5,0.4c-0.2,0.1-0.3,0.1-0.5,0.1
																								c-0.4,0-0.6-0.2-0.6-0.6c0-0.1,0-0.3,0-0.4l0.3-1.5h-0.5l0-0.2c0.1,0,0.2,0,0.3,0c0.1,0,0.1,0,0.1-0.1
																								c0,0,0.1-0.1,0.1-0.1c0-0.1,0.1-0.1,0.1-0.2S38.4,17.4,38.5,17.2L38.5,17.2z M21.9,17c-0.1,0-0.2,0-0.3,0
																								l-0.8,3.4c0.1,0,0.2,0,0.3,0c0.3,0,0.6-0.1,0.8-0.2c0.2-0.1,0.4-0.3,0.6-0.5c0.2-0.2,0.3-0.5,0.4-0.7
																								c0.1-0.3,0.1-0.5,0.1-0.8c0-0.4-0.1-0.7-0.3-0.9C22.5,17.1,22.2,17,21.9,17L21.9,17z M36.6,16.8h0.5L37,17.3
																								h-0.5L36.6,16.8L36.6,16.8z M31.3,16.8h0.5l-0.1,0.6h-0.5L31.3,16.8L31.3,16.8z M20.7,16.7h1.1
																								c0.3,0,0.5,0,0.7,0.1c0.2,0,0.4,0.1,0.5,0.2c0.2,0.1,0.3,0.3,0.4,0.5c0.1,0.2,0.1,0.4,0.1,0.7
																								c0,0.3,0,0.5-0.1,0.7c-0.1,0.2-0.1,0.5-0.3,0.7c-0.1,0.2-0.2,0.4-0.4,0.5c-0.2,0.1-0.3,0.3-0.5,0.3
																								c-0.1,0.1-0.3,0.1-0.5,0.2c-0.2,0-0.4,0.1-0.6,0.1H20l0-0.1c0.1,0,0.1,0,0.2-0.1c0,0,0.1-0.1,0.1-0.1
																								c0,0,0-0.1,0.1-0.2c0-0.1,0.1-0.2,0.1-0.4l0.5-2.2c0-0.2,0.1-0.3,0.1-0.5c0-0.1,0-0.2-0.1-0.2
																								c0,0-0.1-0.1-0.2-0.1L20.7,16.7z M29.6,16.5c0.2,0,0.4,0,0.5,0L30,17h-0.3c0-0.1-0.1-0.2-0.1-0.2
																								c0,0-0.1-0.1-0.2-0.1c-0.1,0-0.2,0-0.3,0.1C29.1,16.9,29,17,29,17.1c-0.1,0.1-0.1,0.3-0.2,0.5l-0.1,0.3h0.7
																								l-0.1,0.3h-0.7l-0.5,2.5c-0.1,0.4-0.2,0.7-0.4,0.9C27.6,21.9,27.3,22,27,22c-0.1,0-0.1,0-0.2,0l0-0.3
																								c0,0,0.1,0,0.1,0c0.1,0,0.2,0,0.2-0.1c0.1,0,0.1-0.1,0.2-0.2c0.1-0.1,0.1-0.3,0.1-0.5l0.6-2.8h-0.5l0-0.2
																								c0.1,0,0.2,0,0.3,0c0.1,0,0.1,0,0.1-0.1c0,0,0.1-0.1,0.1-0.1c0,0,0.1-0.1,0.1-0.2c0.1-0.3,0.3-0.6,0.5-0.8
																								C29,16.6,29.3,16.5,29.6,16.5L29.6,16.5z"/>
																							<g class="st45">
																								<defs>
																									<polygon id="SVGID_45_" points="1.5,143.8 213.4,143.8 213.4,1.8 1.5,1.8 1.5,143.8 
																																																			"/>
																								</defs>
																								<clipPath id="SVGID_46_">
																									<use xlink:href="#SVGID_45_"  style="overflow:visible;"/>
																								</clipPath>
																								<path class="st46" d="M63.3,18.1c-0.2,0-0.4,0.1-0.5,0.2c-0.2,0.2-0.3,0.4-0.4,0.6
																									c-0.1,0.3-0.1,0.5-0.1,0.8c0,0.2,0,0.4,0.1,0.5c0.1,0.1,0.1,0.1,0.3,0.1c0.1,0,0.3-0.1,0.4-0.2
																									c0.1-0.1,0.2-0.3,0.4-0.5c0.1-0.2,0.2-0.4,0.3-0.7l0-0.1c0-0.1,0-0.1,0-0.2c0-0.1,0-0.1,0-0.2
																									c0-0.1,0-0.3-0.1-0.3C63.6,18.1,63.4,18.1,63.3,18.1L63.3,18.1z M57.2,18.1c-0.2,0-0.4,0.1-0.5,0.2
																									c-0.2,0.2-0.3,0.4-0.4,0.6c-0.1,0.3-0.1,0.5-0.1,0.8c0,0.2,0,0.4,0.1,0.5c0.1,0.1,0.1,0.1,0.3,0.1
																									c0.1,0,0.2,0,0.3-0.1c0.1-0.1,0.2-0.2,0.3-0.3c0.1-0.1,0.2-0.3,0.3-0.4c0.1-0.1,0.1-0.3,0.2-0.5
																									c0-0.2,0.1-0.4,0.1-0.5c0-0.2,0-0.3-0.1-0.3C57.5,18.1,57.4,18.1,57.2,18.1L57.2,18.1z M53.9,18.1
																									c-0.2,0-0.4,0.1-0.6,0.3c-0.2,0.2-0.3,0.5-0.4,0.8c0.3,0,0.5,0,0.7-0.1c0.2,0,0.3-0.1,0.4-0.2
																									c0.1-0.1,0.2-0.2,0.2-0.4c0-0.1,0-0.2-0.1-0.3C54.1,18.1,54,18.1,53.9,18.1L53.9,18.1z M63.2,17.9
																									c0.1,0,0.2,0,0.4,0c0.1,0,0.2,0.1,0.3,0.1l0.3-0.2l0.2,0L64,19.7c0,0.2-0.1,0.3-0.1,0.4c0,0.1,0,0.1,0,0.2
																									s0.1,0.1,0.1,0.1c0.1,0,0.1,0,0.2-0.1s0.2-0.1,0.3-0.3l0.2,0.2c-0.2,0.2-0.3,0.3-0.4,0.4
																									c-0.1,0.1-0.3,0.1-0.4,0.1c-0.1,0-0.2,0-0.3-0.1c-0.1-0.1-0.1-0.2-0.1-0.3c0-0.1,0-0.2,0.1-0.3l0,0
																									c-0.2,0.3-0.4,0.5-0.5,0.6s-0.3,0.2-0.5,0.2c-0.2,0-0.4-0.1-0.5-0.2c-0.1-0.2-0.2-0.4-0.2-0.7
																									c0-0.3,0.1-0.7,0.2-1c0.1-0.3,0.3-0.5,0.5-0.7C62.7,17.9,63,17.9,63.2,17.9L63.2,17.9z M59.5,17.9
																									c0.1,0,0.2,0,0.3,0.1c0.1,0.1,0.1,0.2,0.1,0.3c0,0.1,0,0.2-0.1,0.3l0,0c0.2-0.3,0.4-0.4,0.5-0.6
																									c0.2-0.1,0.4-0.2,0.5-0.2c0.1,0,0.3,0,0.4,0l-0.1,0.7h-0.3c0-0.1,0-0.1,0-0.2c0,0,0-0.1-0.1-0.1
																									c0,0-0.1,0-0.1,0c-0.1,0-0.1,0-0.2,0.1c-0.1,0.1-0.2,0.2-0.3,0.3c-0.1,0.1-0.2,0.3-0.2,0.4
																									c-0.1,0.1-0.1,0.3-0.2,0.4l-0.3,1.3H59l0.4-1.8c0-0.1,0-0.2,0.1-0.3s0-0.1,0-0.2c0-0.1,0-0.1,0-0.2
																									c0,0-0.1-0.1-0.1-0.1c-0.1,0-0.1,0-0.2,0.1c-0.1,0-0.2,0.1-0.3,0.3l-0.2-0.2c0.2-0.2,0.3-0.3,0.4-0.4
																									C59.3,17.9,59.4,17.9,59.5,17.9L59.5,17.9z M57.2,17.9c0.1,0,0.2,0,0.3,0c0.1,0,0.2,0.1,0.3,0.1l0.3-0.2
																									l0.2,0L58,19.3c0,0.1-0.1,0.3-0.1,0.7c-0.1,0.4-0.1,0.7-0.2,0.9c0,0.2-0.1,0.3-0.2,0.5
																									c-0.1,0.1-0.2,0.3-0.3,0.4s-0.3,0.2-0.4,0.2c-0.2,0.1-0.4,0.1-0.6,0.1c-0.7,0-1.1-0.2-1.1-0.6
																									c0-0.1,0-0.2,0.1-0.3c0.1-0.1,0.2-0.2,0.3-0.3l0.2,0.2c0,0-0.1,0.1-0.1,0.1c0,0,0,0.1-0.1,0.1
																									c0,0,0,0.1,0,0.1c0,0.1,0.1,0.3,0.2,0.3c0.1,0.1,0.3,0.1,0.5,0.1c0.2,0,0.4-0.1,0.6-0.2
																									c0.1-0.1,0.3-0.3,0.4-0.5c0.1-0.2,0.2-0.6,0.3-1.1l0,0c-0.2,0.3-0.4,0.4-0.5,0.6c-0.2,0.1-0.3,0.2-0.5,0.2
																									c-0.2,0-0.4-0.1-0.5-0.2c-0.1-0.2-0.2-0.4-0.2-0.7c0-0.3,0.1-0.6,0.2-1c0.1-0.3,0.3-0.5,0.5-0.7
																									C56.6,17.9,56.9,17.9,57.2,17.9L57.2,17.9z M54,17.9c0.2,0,0.4,0,0.5,0.1c0.1,0.1,0.2,0.2,0.2,0.4
																									c0,0.3-0.2,0.6-0.5,0.7c-0.3,0.2-0.8,0.2-1.4,0.2c0,0.1,0,0.2,0,0.4c0,0.2,0,0.4,0.1,0.4
																									c0.1,0.1,0.2,0.1,0.4,0.1c0.2,0,0.3,0,0.5-0.1c0.1-0.1,0.3-0.2,0.5-0.4l0.2,0.2c-0.2,0.2-0.4,0.4-0.6,0.5
																									c-0.2,0.1-0.4,0.2-0.7,0.2c-0.3,0-0.5-0.1-0.7-0.3s-0.2-0.4-0.2-0.7c0-0.2,0-0.4,0.1-0.7
																									c0.1-0.2,0.2-0.4,0.3-0.6c0.2-0.2,0.3-0.3,0.5-0.4C53.5,17.9,53.8,17.9,54,17.9L54,17.9z M47.2,17.9
																									c0.1,0,0.2,0,0.3,0.1c0.1,0.1,0.1,0.2,0.1,0.3c0,0.1,0,0.2-0.1,0.3l0,0c0.2-0.3,0.4-0.5,0.5-0.6
																									c0.2-0.1,0.3-0.2,0.5-0.2c0.2,0,0.3,0.1,0.4,0.2c0.1,0.1,0.1,0.2,0.1,0.4c0,0.1,0,0.3-0.1,0.5l-0.2,0.8
																									c-0.1,0.2-0.1,0.4-0.1,0.4c0,0.1,0,0.1,0,0.2s0.1,0.1,0.1,0.1c0.1,0,0.1,0,0.2-0.1c0.1,0,0.2-0.1,0.3-0.3
																									l0.2,0.2c-0.2,0.2-0.3,0.3-0.4,0.4c-0.1,0.1-0.3,0.1-0.4,0.1c-0.1,0-0.2,0-0.3-0.1
																									c-0.1-0.1-0.1-0.2-0.1-0.3c0-0.1,0-0.3,0.1-0.6l0.1-0.5c0-0.2,0.1-0.3,0.1-0.4c0-0.1,0-0.2,0-0.2
																									c0-0.1,0-0.2-0.1-0.3c0-0.1-0.1-0.1-0.2-0.1c-0.1,0-0.2,0-0.3,0.1s-0.2,0.2-0.3,0.3
																									c-0.1,0.1-0.2,0.3-0.3,0.4c-0.1,0.1-0.1,0.3-0.2,0.5l-0.3,1.3h-0.5l0.4-1.8c0-0.2,0.1-0.3,0.1-0.4
																									c0-0.1,0-0.1,0-0.2S47,18.2,47,18.2c-0.1,0-0.1,0-0.2,0.1c-0.1,0-0.2,0.1-0.3,0.3l-0.2-0.2
																									c0.2-0.2,0.3-0.3,0.4-0.4C46.9,17.9,47,17.9,47.2,17.9L47.2,17.9z M50.8,17.2h0.4l-0.2,0.7h0.9l-0.1,0.3H51
																									l-0.3,1.1c-0.1,0.2-0.1,0.4-0.1,0.5c0,0.1,0,0.2,0,0.2c0,0.2,0.1,0.4,0.3,0.4c0.1,0,0.2,0,0.3-0.1
																									c0.1-0.1,0.2-0.2,0.3-0.3l0.2,0.2c-0.2,0.2-0.3,0.4-0.5,0.4c-0.2,0.1-0.3,0.1-0.5,0.1
																									c-0.4,0-0.6-0.2-0.6-0.6c0-0.1,0-0.3,0-0.4l0.3-1.5H50l0-0.2c0.1,0,0.2,0,0.3,0c0.1,0,0.1,0,0.1-0.1
																									c0,0,0.1-0.1,0.1-0.1c0-0.1,0.1-0.1,0.1-0.2C50.7,17.5,50.8,17.4,50.8,17.2L50.8,17.2z M44.9,16.7h1.2
																									l0,0.1c-0.1,0-0.1,0-0.2,0.1s-0.1,0-0.1,0.1c0,0-0.1,0.1-0.1,0.2c0,0.1-0.1,0.2-0.1,0.4l-0.5,2.3
																									c0,0.1,0,0.2,0,0.3s0,0.1,0,0.2c0,0.1,0,0.1,0.1,0.2c0,0,0.1,0.1,0.2,0.1l0,0.1h-1.2l0-0.1
																									c0.1,0,0.1,0,0.2-0.1c0,0,0.1-0.1,0.1-0.1c0,0,0-0.1,0.1-0.2c0-0.1,0.1-0.2,0.1-0.4l0.5-2.2
																									c0-0.2,0.1-0.3,0.1-0.5c0-0.1,0-0.2-0.1-0.2c0,0-0.1-0.1-0.2-0.1L44.9,16.7z M66.2,16.5h0.2l-0.7,3.2
																									c0,0.2-0.1,0.3-0.1,0.4c0,0.1,0,0.1,0,0.2s0.1,0.1,0.1,0.1c0.1,0,0.1,0,0.2-0.1c0.1,0,0.2-0.1,0.3-0.3
																									l0.2,0.2c-0.2,0.2-0.3,0.3-0.5,0.4s-0.3,0.1-0.4,0.1c-0.1,0-0.2,0-0.3-0.1c-0.1-0.1-0.1-0.2-0.1-0.4
																									c0-0.1,0-0.3,0.1-0.6l0.5-2.3c0-0.1,0-0.2,0-0.2c0-0.1,0-0.1,0-0.2c0-0.1,0-0.1,0-0.1c0,0-0.1-0.1-0.1-0.1
																									c0,0-0.1,0-0.2,0l0-0.2L66.2,16.5L66.2,16.5z"/>
																								<g class="st47">
																									<defs>
																										<polygon id="SVGID_47_" points="1.5,143.8 213.4,143.8 213.4,1.8 1.5,1.8 1.5,143.8 
																																																					"/>
																									</defs>
																									<clipPath id="SVGID_48_">
																										<use xlink:href="#SVGID_47_"  style="overflow:visible;"/>
																									</clipPath>
																									<path class="st48" d="M46.6,86.5c-0.2,0-0.4,0.1-0.6,0.3c-0.2,0.2-0.3,0.5-0.4,0.8c0.3,0,0.5,0,0.7-0.1
																										c0.2,0,0.3-0.1,0.4-0.2c0.1-0.1,0.2-0.2,0.2-0.4c0-0.1,0-0.2-0.1-0.3C46.8,86.5,46.7,86.5,46.6,86.5
																										L46.6,86.5z M30.8,86.5c-0.2,0-0.4,0.1-0.6,0.3c-0.2,0.2-0.3,0.5-0.4,0.8c0.3,0,0.5,0,0.7-0.1
																										c0.2,0,0.3-0.1,0.4-0.2c0.1-0.1,0.2-0.2,0.2-0.4c0-0.1,0-0.2-0.1-0.3C31,86.5,30.9,86.5,30.8,86.5
																										L30.8,86.5z M27.3,86.5c-0.2,0-0.4,0.1-0.5,0.2c-0.2,0.2-0.3,0.4-0.4,0.6c-0.1,0.3-0.1,0.5-0.1,0.8
																										c0,0.2,0,0.4,0.1,0.5s0.1,0.1,0.3,0.1c0.1,0,0.1,0,0.2,0c0.1,0,0.1-0.1,0.2-0.1c0.1-0.1,0.1-0.1,0.2-0.2
																										s0.1-0.2,0.2-0.3c0.1-0.1,0.1-0.2,0.2-0.3c0-0.1,0.1-0.3,0.1-0.4l0-0.1c0-0.1,0-0.3,0-0.4
																										c0-0.2,0-0.3-0.1-0.3C27.6,86.5,27.5,86.5,27.3,86.5L27.3,86.5z M41.7,86.3h0.2l-0.4,1.9
																										c0,0.2-0.1,0.3-0.1,0.4c0,0.1,0,0.1,0,0.2c0,0,0.1,0.1,0.1,0.1c0.1,0,0.1,0,0.2-0.1s0.2-0.1,0.3-0.3
																										l0.2,0.2c-0.2,0.2-0.3,0.3-0.5,0.4c-0.1,0.1-0.3,0.1-0.4,0.1c-0.1,0-0.2,0-0.3-0.1
																										c-0.1-0.1-0.1-0.2-0.1-0.4c0-0.1,0-0.3,0.1-0.6l0.2-0.9c0-0.2,0.1-0.3,0.1-0.4c0-0.1,0-0.1-0.1-0.2
																										c0,0-0.1,0-0.2-0.1l0-0.2L41.7,86.3L41.7,86.3z M36.4,86.3h0.2l-0.4,1.9c0,0.2-0.1,0.3-0.1,0.4
																										c0,0.1,0,0.1,0,0.2c0,0,0.1,0.1,0.1,0.1c0.1,0,0.1,0,0.2-0.1c0.1,0,0.2-0.1,0.3-0.3l0.2,0.2
																										c-0.2,0.2-0.3,0.3-0.5,0.4c-0.1,0.1-0.3,0.1-0.4,0.1c-0.1,0-0.2,0-0.3-0.1c-0.1-0.1-0.1-0.2-0.1-0.4
																										c0-0.1,0-0.3,0.1-0.6l0.2-0.9c0-0.2,0.1-0.3,0.1-0.4c0-0.1,0-0.1-0.1-0.2c0,0-0.1,0-0.2-0.1l0-0.2
																										L36.4,86.3L36.4,86.3z M46.7,86.2c0.2,0,0.4,0,0.5,0.1c0.1,0.1,0.2,0.2,0.2,0.4c0,0.3-0.2,0.6-0.5,0.7
																										c-0.3,0.2-0.8,0.2-1.4,0.2c0,0.1,0,0.2,0,0.4c0,0.2,0,0.4,0.1,0.4c0.1,0.1,0.2,0.1,0.4,0.1
																										c0.2,0,0.3,0,0.5-0.1c0.1-0.1,0.3-0.2,0.5-0.4l0.2,0.2c-0.2,0.2-0.4,0.4-0.6,0.5s-0.4,0.2-0.7,0.2
																										c-0.3,0-0.5-0.1-0.7-0.3c-0.2-0.2-0.2-0.4-0.2-0.7c0-0.2,0-0.4,0.1-0.7c0.1-0.2,0.2-0.4,0.3-0.6
																										c0.2-0.2,0.3-0.3,0.5-0.4C46.2,86.3,46.4,86.2,46.7,86.2L46.7,86.2z M38,86.2c0.1,0,0.2,0,0.3,0.1
																										c0.1,0.1,0.1,0.2,0.1,0.3c0,0.1,0,0.2-0.1,0.3l0,0c0.2-0.3,0.4-0.5,0.5-0.6c0.2-0.1,0.3-0.2,0.5-0.2
																										c0.2,0,0.3,0.1,0.4,0.2c0.1,0.1,0.1,0.2,0.1,0.4c0,0.1,0,0.3-0.1,0.5l-0.2,0.8c-0.1,0.2-0.1,0.4-0.1,0.4
																										c0,0.1,0,0.1,0,0.2c0,0,0.1,0.1,0.1,0.1c0.1,0,0.1,0,0.2-0.1c0.1,0,0.2-0.1,0.3-0.3l0.2,0.2
																										c-0.2,0.2-0.3,0.3-0.4,0.4c-0.1,0.1-0.3,0.1-0.4,0.1c-0.1,0-0.2,0-0.3-0.1c-0.1-0.1-0.1-0.2-0.1-0.3
																										c0-0.1,0-0.3,0.1-0.6l0.1-0.5c0-0.2,0.1-0.3,0.1-0.4c0-0.1,0-0.2,0-0.2c0-0.1,0-0.2-0.1-0.3
																										c0-0.1-0.1-0.1-0.2-0.1c-0.1,0-0.2,0-0.3,0.1s-0.2,0.2-0.3,0.3c-0.1,0.1-0.2,0.3-0.3,0.4
																										c-0.1,0.1-0.1,0.3-0.2,0.5l-0.3,1.3h-0.5l0.4-1.8c0-0.2,0.1-0.3,0.1-0.4c0-0.1,0-0.1,0-0.2
																										c0,0-0.1-0.1-0.1-0.1c-0.1,0-0.1,0-0.2,0.1c-0.1,0-0.2,0.1-0.3,0.3l-0.2-0.2c0.2-0.2,0.3-0.3,0.4-0.4
																										C37.7,86.3,37.8,86.2,38,86.2L38,86.2z M30.9,86.2c0.2,0,0.4,0,0.5,0.1c0.1,0.1,0.2,0.2,0.2,0.4
																										c0,0.3-0.2,0.6-0.5,0.7s-0.8,0.2-1.4,0.2c0,0.1,0,0.2,0,0.4c0,0.2,0,0.4,0.1,0.4c0.1,0.1,0.2,0.1,0.4,0.1
																										c0.2,0,0.3,0,0.5-0.1c0.1-0.1,0.3-0.2,0.5-0.4l0.2,0.2c-0.2,0.2-0.4,0.4-0.6,0.5c-0.2,0.1-0.4,0.2-0.7,0.2
																										c-0.3,0-0.5-0.1-0.7-0.3c-0.2-0.2-0.2-0.4-0.2-0.7c0-0.2,0-0.4,0.1-0.7c0.1-0.2,0.2-0.4,0.3-0.6
																										c0.2-0.2,0.3-0.3,0.5-0.4C30.4,86.3,30.7,86.2,30.9,86.2L30.9,86.2z M23,86.2c0.1,0,0.2,0,0.3,0.1
																										c0.1,0.1,0.1,0.2,0.1,0.3c0,0.1,0,0.2-0.1,0.3l0,0c0.2-0.3,0.4-0.5,0.5-0.6c0.2-0.1,0.3-0.2,0.5-0.2
																										c0.2,0,0.3,0.1,0.4,0.2c0.1,0.1,0.1,0.2,0.1,0.4c0,0.1,0,0.3-0.1,0.5l-0.2,0.8c-0.1,0.2-0.1,0.4-0.1,0.4
																										c0,0.1,0,0.1,0,0.2c0,0,0.1,0.1,0.1,0.1c0.1,0,0.1,0,0.2-0.1s0.2-0.1,0.3-0.3l0.2,0.2
																										c-0.2,0.2-0.3,0.3-0.4,0.4c-0.1,0.1-0.3,0.1-0.4,0.1c-0.1,0-0.2,0-0.3-0.1c-0.1-0.1-0.1-0.2-0.1-0.3
																										c0-0.1,0-0.3,0.1-0.6l0.1-0.5c0-0.2,0.1-0.3,0.1-0.4c0-0.1,0-0.2,0-0.2c0-0.1,0-0.2-0.1-0.3
																										c0-0.1-0.1-0.1-0.2-0.1c-0.1,0-0.2,0-0.3,0.1c-0.1,0.1-0.2,0.2-0.3,0.3c-0.1,0.1-0.2,0.3-0.3,0.4
																										c-0.1,0.1-0.1,0.3-0.2,0.5l-0.3,1.3h-0.5l0.4-1.8c0-0.2,0.1-0.3,0.1-0.4c0-0.1,0-0.1,0-0.2
																										c0,0-0.1-0.1-0.1-0.1c-0.1,0-0.1,0-0.2,0.1c-0.1,0-0.2,0.1-0.3,0.3l-0.2-0.2c0.2-0.2,0.3-0.3,0.4-0.4
																										C22.7,86.3,22.8,86.2,23,86.2L23,86.2z M43.5,85.6h0.4l-0.2,0.7h0.9l-0.1,0.3h-0.9l-0.3,1.1
																										c-0.1,0.2-0.1,0.4-0.1,0.5c0,0.1,0,0.2,0,0.2c0,0.2,0.1,0.4,0.3,0.4c0.1,0,0.2,0,0.3-0.1
																										c0.1-0.1,0.2-0.2,0.3-0.3l0.2,0.2c-0.2,0.2-0.3,0.4-0.5,0.4c-0.2,0.1-0.3,0.1-0.5,0.1
																										c-0.4,0-0.6-0.2-0.6-0.6c0-0.1,0-0.3,0-0.4l0.3-1.5h-0.5l0-0.2c0.1,0,0.2,0,0.3,0c0.1,0,0.1,0,0.1-0.1
																										c0,0,0.1-0.1,0.1-0.1c0-0.1,0.1-0.1,0.1-0.2C43.4,85.9,43.4,85.8,43.5,85.6L43.5,85.6z M41.6,85.2h0.5
																										L42,85.7h-0.5L41.6,85.2L41.6,85.2z M36.3,85.2h0.5l-0.1,0.6h-0.5L36.3,85.2L36.3,85.2z M20.7,85.1h1.2
																										l0,0.1c-0.1,0-0.1,0-0.2,0.1c0,0-0.1,0-0.1,0.1c0,0-0.1,0.1-0.1,0.2c0,0.1-0.1,0.2-0.1,0.4L21,88.2
																										c0,0.1,0,0.2,0,0.3c0,0.1,0,0.1,0,0.2c0,0.1,0,0.1,0.1,0.2c0,0,0.1,0.1,0.2,0.1l0,0.1H20l0-0.1
																										c0.1,0,0.1,0,0.2-0.1c0,0,0.1-0.1,0.1-0.1c0,0,0-0.1,0.1-0.2c0-0.1,0.1-0.2,0.1-0.4l0.5-2.2
																										c0-0.2,0.1-0.3,0.1-0.5c0-0.1,0-0.2-0.1-0.2c0,0-0.1-0.1-0.2-0.1L20.7,85.1z M28.6,84.9h0.2L28,88.1
																										c0,0.2-0.1,0.3-0.1,0.4c0,0.1,0,0.1,0,0.2c0,0,0.1,0.1,0.1,0.1c0.1,0,0.1,0,0.2-0.1c0.1,0,0.2-0.1,0.3-0.3
																										l0.2,0.2c-0.2,0.2-0.3,0.3-0.4,0.4c-0.1,0.1-0.3,0.1-0.4,0.1c-0.1,0-0.2,0-0.3-0.1s-0.1-0.2-0.1-0.3
																										c0-0.1,0-0.2,0.1-0.3l0,0c-0.2,0.3-0.4,0.5-0.5,0.6c-0.2,0.1-0.3,0.2-0.5,0.2c-0.2,0-0.4-0.1-0.5-0.2
																										c-0.1-0.2-0.2-0.4-0.2-0.7c0-0.3,0.1-0.7,0.2-1c0.1-0.3,0.3-0.5,0.5-0.7c0.2-0.2,0.5-0.3,0.8-0.3
																										c0.1,0,0.2,0,0.3,0s0.2,0.1,0.3,0.1l0.2-0.7c0-0.1,0-0.1,0-0.2c0-0.1,0-0.1,0-0.2c0-0.1,0-0.1,0-0.1
																										c0,0-0.1-0.1-0.1-0.1c0,0-0.1,0-0.2,0l0-0.2L28.6,84.9L28.6,84.9z M34.6,84.9c0.2,0,0.4,0,0.5,0L35,85.4
																										h-0.3c0-0.1-0.1-0.2-0.1-0.2s-0.1-0.1-0.2-0.1c-0.1,0-0.2,0-0.3,0.1S34,85.4,34,85.5
																										c-0.1,0.1-0.1,0.3-0.2,0.5l-0.1,0.3h0.7l-0.1,0.3h-0.7l-0.5,2.5c-0.1,0.4-0.2,0.7-0.4,0.9
																										c-0.2,0.2-0.4,0.3-0.7,0.3c-0.1,0-0.1,0-0.2,0l0-0.3c0,0,0.1,0,0.1,0c0.1,0,0.2,0,0.2-0.1
																										c0.1,0,0.1-0.1,0.2-0.2c0.1-0.1,0.1-0.3,0.1-0.5l0.6-2.8h-0.5l0-0.2c0.1,0,0.2,0,0.3,0s0.1,0,0.1-0.1
																										c0,0,0.1-0.1,0.1-0.1c0,0,0.1-0.1,0.1-0.2c0.1-0.3,0.3-0.6,0.5-0.8C34,85,34.3,84.9,34.6,84.9L34.6,84.9z"
																										/>
																									<g class="st49">
																										<defs>
																											<polygon id="SVGID_49_" points="1.5,143.8 213.4,143.8 213.4,1.8 1.5,1.8 1.5,143.8 
																																																							"/>
																										</defs>
																										<clipPath id="SVGID_50_">
																											<use xlink:href="#SVGID_49_"  style="overflow:visible;"/>
																										</clipPath>
																										<path class="st50" d="M68.3,86.5c-0.2,0-0.4,0.1-0.5,0.2s-0.3,0.4-0.4,0.6c-0.1,0.3-0.1,0.5-0.1,0.8
																											c0,0.2,0,0.4,0.1,0.5c0.1,0.1,0.1,0.1,0.3,0.1c0.1,0,0.3-0.1,0.4-0.2s0.2-0.3,0.4-0.5
																											c0.1-0.2,0.2-0.4,0.3-0.7l0-0.1c0-0.1,0-0.1,0-0.2c0-0.1,0-0.1,0-0.2c0-0.1,0-0.3-0.1-0.3
																											S68.5,86.5,68.3,86.5L68.3,86.5z M62.2,86.5c-0.2,0-0.4,0.1-0.5,0.2s-0.3,0.4-0.4,0.6
																											c-0.1,0.3-0.1,0.5-0.1,0.8c0,0.2,0,0.4,0.1,0.5c0.1,0.1,0.1,0.1,0.3,0.1c0.1,0,0.2,0,0.3-0.1
																											c0.1-0.1,0.2-0.2,0.3-0.3c0.1-0.1,0.2-0.3,0.3-0.4c0.1-0.1,0.1-0.3,0.2-0.5s0.1-0.4,0.1-0.5
																											c0-0.2,0-0.3-0.1-0.3C62.5,86.5,62.4,86.5,62.2,86.5L62.2,86.5z M58.9,86.5c-0.2,0-0.4,0.1-0.6,0.3
																											c-0.2,0.2-0.3,0.5-0.4,0.8c0.3,0,0.5,0,0.7-0.1c0.2,0,0.3-0.1,0.4-0.2c0.1-0.1,0.2-0.2,0.2-0.4
																											c0-0.1,0-0.2-0.1-0.3C59.1,86.5,59,86.5,58.9,86.5L58.9,86.5z M68.3,86.2c0.1,0,0.2,0,0.4,0
																											c0.1,0,0.2,0.1,0.3,0.1l0.3-0.2l0.2,0L69,88.1c0,0.2-0.1,0.3-0.1,0.4c0,0.1,0,0.1,0,0.2
																											c0,0,0.1,0.1,0.1,0.1c0.1,0,0.1,0,0.2-0.1c0.1,0,0.2-0.1,0.3-0.3l0.2,0.2c-0.2,0.2-0.3,0.3-0.4,0.4
																											c-0.1,0.1-0.3,0.1-0.4,0.1c-0.1,0-0.2,0-0.3-0.1c-0.1-0.1-0.1-0.2-0.1-0.3c0-0.1,0-0.2,0.1-0.3l0,0
																											c-0.2,0.3-0.4,0.5-0.5,0.6c-0.2,0.1-0.3,0.2-0.5,0.2c-0.2,0-0.4-0.1-0.5-0.2c-0.1-0.2-0.2-0.4-0.2-0.7
																											c0-0.3,0.1-0.7,0.2-1c0.1-0.3,0.3-0.5,0.5-0.7C67.7,86.3,68,86.2,68.3,86.2L68.3,86.2z M64.6,86.2
																											c0.1,0,0.2,0,0.3,0.1c0.1,0.1,0.1,0.2,0.1,0.3c0,0.1,0,0.2-0.1,0.3l0,0c0.2-0.3,0.4-0.4,0.5-0.6
																											c0.2-0.1,0.4-0.2,0.5-0.2c0.1,0,0.3,0,0.4,0l-0.1,0.7h-0.3c0-0.1,0-0.1,0-0.2c0,0,0-0.1-0.1-0.1
																											c0,0-0.1,0-0.1,0c-0.1,0-0.1,0-0.2,0.1c-0.1,0.1-0.2,0.2-0.3,0.3c-0.1,0.1-0.2,0.3-0.2,0.4
																											s-0.1,0.3-0.2,0.4l-0.3,1.3H64l0.4-1.8c0-0.1,0-0.2,0.1-0.3c0-0.1,0-0.1,0-0.2c0-0.1,0-0.1,0-0.2
																											c0,0-0.1-0.1-0.1-0.1c-0.1,0-0.1,0-0.2,0.1c-0.1,0-0.2,0.1-0.3,0.3l-0.2-0.2c0.2-0.2,0.3-0.3,0.4-0.4
																											C64.3,86.3,64.4,86.2,64.6,86.2L64.6,86.2z M62.2,86.2c0.1,0,0.2,0,0.3,0c0.1,0,0.2,0.1,0.3,0.1l0.3-0.2
																											l0.2,0L63,87.6c0,0.1-0.1,0.3-0.1,0.7c-0.1,0.4-0.1,0.7-0.2,0.9c0,0.2-0.1,0.3-0.2,0.5
																											c-0.1,0.1-0.2,0.3-0.3,0.4c-0.1,0.1-0.3,0.2-0.4,0.2c-0.2,0.1-0.4,0.1-0.6,0.1c-0.7,0-1.1-0.2-1.1-0.6
																											c0-0.1,0-0.2,0.1-0.3c0.1-0.1,0.2-0.2,0.3-0.3l0.2,0.2c0,0-0.1,0.1-0.1,0.1c0,0,0,0.1-0.1,0.1
																											c0,0,0,0.1,0,0.1c0,0.1,0.1,0.3,0.2,0.3c0.1,0.1,0.3,0.1,0.5,0.1c0.2,0,0.4-0.1,0.6-0.2
																											c0.1-0.1,0.3-0.3,0.4-0.5c0.1-0.2,0.2-0.6,0.3-1.1l0,0c-0.2,0.3-0.4,0.4-0.5,0.6
																											c-0.2,0.1-0.3,0.2-0.5,0.2c-0.2,0-0.4-0.1-0.5-0.2c-0.1-0.2-0.2-0.4-0.2-0.7c0-0.3,0.1-0.6,0.2-1
																											c0.1-0.3,0.3-0.5,0.5-0.7C61.6,86.3,61.9,86.2,62.2,86.2L62.2,86.2z M59,86.2c0.2,0,0.4,0,0.5,0.1
																											c0.1,0.1,0.2,0.2,0.2,0.4c0,0.3-0.2,0.6-0.5,0.7s-0.8,0.2-1.4,0.2c0,0.1,0,0.2,0,0.4c0,0.2,0,0.4,0.1,0.4
																											c0.1,0.1,0.2,0.1,0.4,0.1c0.2,0,0.3,0,0.5-0.1c0.1-0.1,0.3-0.2,0.5-0.4l0.2,0.2c-0.2,0.2-0.4,0.4-0.6,0.5
																											c-0.2,0.1-0.4,0.2-0.7,0.2c-0.3,0-0.5-0.1-0.7-0.3c-0.2-0.2-0.2-0.4-0.2-0.7c0-0.2,0-0.4,0.1-0.7
																											c0.1-0.2,0.2-0.4,0.3-0.6c0.2-0.2,0.3-0.3,0.5-0.4C58.6,86.3,58.8,86.2,59,86.2L59,86.2z M52.2,86.2
																											c0.1,0,0.2,0,0.3,0.1c0.1,0.1,0.1,0.2,0.1,0.3c0,0.1,0,0.2-0.1,0.3l0,0c0.2-0.3,0.4-0.5,0.5-0.6
																											c0.2-0.1,0.3-0.2,0.5-0.2c0.2,0,0.3,0.1,0.4,0.2c0.1,0.1,0.1,0.2,0.1,0.4c0,0.1,0,0.3-0.1,0.5l-0.2,0.8
																											c-0.1,0.2-0.1,0.4-0.1,0.4c0,0.1,0,0.1,0,0.2c0,0,0.1,0.1,0.1,0.1c0.1,0,0.1,0,0.2-0.1
																											c0.1,0,0.2-0.1,0.3-0.3l0.2,0.2c-0.2,0.2-0.3,0.3-0.4,0.4c-0.1,0.1-0.3,0.1-0.4,0.1c-0.1,0-0.2,0-0.3-0.1
																											c-0.1-0.1-0.1-0.2-0.1-0.3c0-0.1,0-0.3,0.1-0.6l0.1-0.5c0-0.2,0.1-0.3,0.1-0.4c0-0.1,0-0.2,0-0.2
																											c0-0.1,0-0.2-0.1-0.3c0-0.1-0.1-0.1-0.2-0.1c-0.1,0-0.2,0-0.3,0.1S53,86.8,52.8,87
																											c-0.1,0.1-0.2,0.3-0.3,0.4c-0.1,0.1-0.1,0.3-0.2,0.5l-0.3,1.3h-0.5l0.4-1.8c0-0.2,0.1-0.3,0.1-0.4
																											c0-0.1,0-0.1,0-0.2S52,86.6,52,86.6c-0.1,0-0.1,0-0.2,0.1c-0.1,0-0.2,0.1-0.3,0.3l-0.2-0.2
																											c0.2-0.2,0.3-0.3,0.4-0.4C51.9,86.3,52.1,86.2,52.2,86.2L52.2,86.2z M55.8,85.6h0.4l-0.2,0.7H57l-0.1,0.3
																											H56l-0.3,1.1c-0.1,0.2-0.1,0.4-0.1,0.5c0,0.1,0,0.2,0,0.2c0,0.2,0.1,0.4,0.3,0.4c0.1,0,0.2,0,0.3-0.1
																											c0.1-0.1,0.2-0.2,0.3-0.3l0.2,0.2c-0.2,0.2-0.3,0.4-0.5,0.4c-0.2,0.1-0.3,0.1-0.5,0.1
																											c-0.4,0-0.6-0.2-0.6-0.6c0-0.1,0-0.3,0-0.4l0.3-1.5H55l0-0.2c0.1,0,0.2,0,0.3,0c0.1,0,0.1,0,0.1-0.1
																											c0,0,0.1-0.1,0.1-0.1c0-0.1,0.1-0.1,0.1-0.2C55.7,85.9,55.8,85.8,55.8,85.6L55.8,85.6z M50,85.1h1.2
																											l0,0.1c-0.1,0-0.1,0-0.2,0.1c0,0-0.1,0-0.1,0.1c0,0-0.1,0.1-0.1,0.2c0,0.1-0.1,0.2-0.1,0.4l-0.5,2.3
																											c0,0.1,0,0.2,0,0.3c0,0.1,0,0.1,0,0.2c0,0.1,0,0.1,0.1,0.2c0,0,0.1,0.1,0.2,0.1l0,0.1h-1.2l0-0.1
																											c0.1,0,0.1,0,0.2-0.1c0,0,0.1-0.1,0.1-0.1c0,0,0-0.1,0.1-0.2c0-0.1,0.1-0.2,0.1-0.4l0.5-2.2
																											c0-0.2,0.1-0.3,0.1-0.5c0-0.1,0-0.2-0.1-0.2c0,0-0.1-0.1-0.2-0.1L50,85.1z M71.3,84.9h0.2l-0.7,3.2
																											c0,0.2-0.1,0.3-0.1,0.4c0,0.1,0,0.1,0,0.2c0,0,0.1,0.1,0.1,0.1c0.1,0,0.1,0,0.2-0.1s0.2-0.1,0.3-0.3
																											l0.2,0.2c-0.2,0.2-0.3,0.3-0.5,0.4c-0.1,0.1-0.3,0.1-0.4,0.1c-0.1,0-0.2,0-0.3-0.1
																											c-0.1-0.1-0.1-0.2-0.1-0.4c0-0.1,0-0.3,0.1-0.6l0.5-2.3c0-0.1,0-0.2,0-0.2c0-0.1,0-0.1,0-0.2
																											c0-0.1,0-0.1,0-0.1s-0.1-0.1-0.1-0.1c0,0-0.1,0-0.2,0l0-0.2L71.3,84.9L71.3,84.9z"/>
																										<g class="st51">
																											<defs>
																												<polygon id="SVGID_51_" points="1.5,143.8 213.4,143.8 213.4,1.8 1.5,1.8 1.5,143.8 
																																																									"/>
																											</defs>
																											<clipPath id="SVGID_52_">
																												<use xlink:href="#SVGID_51_"  style="overflow:visible;"/>
																											</clipPath>
																											<path class="st52" d="M1.7,25.6C1.7,12.6,12.3,2,25.3,2h164.3c13,0,23.6,10.6,23.6,23.6V120
																												c0,13-10.6,23.6-23.6,23.6H25.3c-13,0-23.6-10.6-23.6-23.6V25.6z"/>
																											<g class="st53">
																												<defs>
																													<polygon id="SVGID_53_" points="1.5,143.8 213.4,143.8 213.4,1.8 1.5,1.8 1.5,143.8 
																																																											"/>
																												</defs>
																												<clipPath id="SVGID_54_">
																													<use xlink:href="#SVGID_53_"  style="overflow:visible;"/>
																												</clipPath>
																												<line class="st54" x1="1.7" y1="72.8" x2="213.2" y2="72.8"/>
																											</g>
																										</g>
																									</g>
																								</g>
																							</g>
																						</g>
																					</g>
																				</g>
																			</g>
																		</g>
																	</g>
																</g>
															</g>
														</g>
													</g>
												</g>
											</g>
										</g>
									</g>
								</g>
							</g>
						</g>
					</g>
				</g>
			</g>
		</g>
	</g>
</g>
</svg>
