<?xml version="1.0" encoding="utf-8"?>
<!-- Generator: Adobe Illustrator 23.0.2, SVG Export Plug-In . SVG Version: 6.00 Build 0)  -->
<svg version="1.0" id="Layer_1" xmlns="http://www.w3.org/2000/svg" xmlns:xlink="http://www.w3.org/1999/xlink" x="0px" y="0px"
	 viewBox="0 0 220 220" style="enable-background:new 0 0 220 220;" xml:space="preserve">
<style type="text/css">
	.st0{fill:none;stroke:#000000;stroke-width:1.2716;stroke-miterlimit:8;}
	.st1{fill-rule:evenodd;clip-rule:evenodd;}
	.st2{clip-path:url(#SVGID_2_);fill:none;stroke:#000000;stroke-width:1.2716;stroke-miterlimit:8;}
	.st3{clip-path:url(#SVGID_2_);fill-rule:evenodd;clip-rule:evenodd;}
	.st4{clip-path:url(#SVGID_2_);}
	.st5{clip-path:url(#SVGID_4_);fill-rule:evenodd;clip-rule:evenodd;}
	.st6{clip-path:url(#SVGID_4_);}
	.st7{clip-path:url(#SVGID_6_);fill-rule:evenodd;clip-rule:evenodd;}
	.st8{clip-path:url(#SVGID_6_);}
	.st9{clip-path:url(#SVGID_8_);fill-rule:evenodd;clip-rule:evenodd;}
	.st10{clip-path:url(#SVGID_8_);}
	.st11{clip-path:url(#SVGID_10_);}
	.st12{clip-path:url(#SVGID_12_);}
	.st13{clip-path:url(#SVGID_14_);}
	.st14{clip-path:url(#SVGID_16_);}
	.st15{clip-path:url(#SVGID_18_);}
	.st16{clip-path:url(#SVGID_20_);}
	.st17{clip-path:url(#SVGID_22_);}
	.st18{clip-path:url(#SVGID_24_);}
	.st19{clip-path:url(#SVGID_26_);}
	.st20{clip-path:url(#SVGID_28_);}
	.st21{clip-path:url(#SVGID_30_);}
	.st22{clip-path:url(#SVGID_32_);}
	.st23{clip-path:url(#SVGID_34_);}
	.st24{clip-path:url(#SVGID_36_);fill:none;stroke:#0303C3;stroke-width:1.2716;stroke-miterlimit:8;}
	.st25{fill-rule:evenodd;clip-rule:evenodd;fill:#0303C3;}
</style>
<g>
	<line class="st0" x1="7.2" y1="179.7" x2="205.4" y2="179.7"/>
	<polygon class="st1" points="204.7,177.8 208.5,179.7 204.7,181.6 204.7,177.8 	"/>
	<g>
		<defs>
			<polyline id="SVGID_1_" points="219.1,214.2 219.1,7.7 1,7.7 1,214.2 1,214.2 			"/>
		</defs>
		<clipPath id="SVGID_2_">
			<use xlink:href="#SVGID_1_"  style="overflow:visible;"/>
		</clipPath>
		<line class="st2" x1="16.9" y1="189.8" x2="16.9" y2="24.2"/>
		<polygon class="st3" points="18.8,24.8 16.9,21 15,24.8 18.8,24.8 		"/>
		<g class="st4">
			<defs>
				<polyline id="SVGID_3_" points="219.1,214.2 219.1,7.7 1,7.7 1,214.2 1,214.2 				"/>
			</defs>
			<clipPath id="SVGID_4_">
				<use xlink:href="#SVGID_3_"  style="overflow:visible;"/>
			</clipPath>
			<path class="st5" d="M6.6,16.3c0.2,0,0.4,0,0.5,0.1c0.1,0,0.2,0.1,0.3,0.2c0.1,0.1,0.2,0.2,0.3,0.4c0.1,0.2,0.1,0.3,0.2,0.6
				C7.9,17.7,8,18,8.1,18.4c0.1,0.6,0.2,1.3,0.3,2c0.1,0.7,0.2,1.4,0.3,2c0.5-0.7,0.9-1.4,1.2-2c0.3-0.7,0.6-1.2,0.7-1.7
				c0.1-0.5,0.2-0.9,0.2-1.2c0-0.2,0-0.4-0.1-0.5c-0.1-0.1-0.3-0.1-0.5-0.1l0.1-0.4h2l0.2,0.4c-0.4,1-0.9,2.1-1.5,3.3
				c-0.6,1.2-1.4,2.3-2.2,3.4c-0.8,1.1-1.4,1.9-2,2.4c-0.4,0.3-0.7,0.6-1.1,0.7c-0.3,0.1-0.6,0.2-0.9,0.2c-0.1,0-0.2,0-0.4,0
				c-0.1,0-0.2,0-0.3-0.1l0.3-1.4h0.6c0,0.3,0.1,0.5,0.3,0.5c0.3,0,0.6-0.2,1-0.5c0.4-0.4,0.8-0.9,1.3-1.6c-0.1-0.9-0.3-1.9-0.6-3.1
				c-0.3-1.3-0.4-2.1-0.5-2.4c-0.1-0.4-0.2-0.6-0.3-0.7c-0.1-0.1-0.2-0.1-0.3-0.1c-0.2,0-0.3,0.1-0.4,0.2c-0.1,0.1-0.3,0.4-0.5,0.7
				l-0.5-0.3c0.3-0.5,0.7-0.9,1-1.1S6.2,16.3,6.6,16.3L6.6,16.3z"/>
			<g class="st6">
				<defs>
					<polyline id="SVGID_5_" points="219.1,214.2 219.1,7.7 1,7.7 1,214.2 1,214.2 					"/>
				</defs>
				<clipPath id="SVGID_6_">
					<use xlink:href="#SVGID_5_"  style="overflow:visible;"/>
				</clipPath>
				<path class="st7" d="M206.8,184.5c0.2,0,0.3,0,0.4,0.1c0.1,0,0.2,0.1,0.3,0.2c0.1,0.1,0.2,0.2,0.2,0.3s0.1,0.3,0.2,0.5
					c0.1,0.2,0.1,0.4,0.2,0.7c0.1,0.3,0.1,0.6,0.2,0.9h0.1c0.5-0.7,0.8-1.2,1.1-1.5s0.5-0.5,0.6-0.7c0.2-0.2,0.3-0.3,0.5-0.3
					s0.4-0.1,0.6-0.1c0.2,0,0.4,0,0.6,0.1l-0.3,1.3h-0.5c0-0.2-0.1-0.3-0.3-0.3c0,0-0.1,0-0.1,0c0,0-0.1,0-0.2,0.1s-0.2,0.1-0.3,0.3
					c-0.1,0.1-0.3,0.3-0.5,0.5c-0.2,0.2-0.4,0.4-0.5,0.7l-0.5,0.6c0.1,0.5,0.2,0.9,0.3,1.2c0.1,0.3,0.2,0.6,0.2,0.9s0.1,0.4,0.2,0.5
					c0,0.1,0.1,0.2,0.2,0.3c0.1,0.1,0.1,0.1,0.2,0.1c0.1,0,0.1,0,0.2,0c0.1,0,0.3-0.1,0.4-0.2s0.3-0.3,0.5-0.7l0.5,0.3
					c-0.3,0.5-0.7,0.9-0.9,1.1c-0.3,0.2-0.6,0.3-1,0.3c-0.2,0-0.4,0-0.5-0.1c-0.1-0.1-0.3-0.2-0.4-0.4c-0.1-0.2-0.2-0.4-0.3-0.8
					c-0.2-0.6-0.2-1.1-0.3-1.5h-0.1c-0.5,0.7-0.9,1.3-1.2,1.6c-0.3,0.3-0.5,0.6-0.6,0.7s-0.3,0.3-0.5,0.3c-0.2,0.1-0.4,0.1-0.6,0.1
					c-0.2,0-0.4,0-0.6-0.1l0.3-1.3h0.5c0,0.2,0.1,0.3,0.3,0.3c0.1,0,0.1,0,0.2-0.1c0.1,0,0.2-0.1,0.3-0.3c0.1-0.1,0.3-0.4,0.6-0.7
					c0.3-0.3,0.6-0.8,1.1-1.4c-0.1-0.4-0.2-0.8-0.2-1.1c-0.1-0.4-0.2-0.7-0.2-1s-0.2-0.5-0.2-0.6c-0.1-0.1-0.1-0.2-0.2-0.2
					c-0.1,0-0.1-0.1-0.2-0.1c-0.1,0-0.2,0-0.3,0.1c-0.1,0-0.2,0.1-0.3,0.2c-0.1,0.1-0.2,0.3-0.4,0.5l-0.5-0.3
					c0.3-0.5,0.6-0.8,0.9-1.1C206,184.6,206.4,184.5,206.8,184.5L206.8,184.5z"/>
				<g class="st8">
					<defs>
						<polyline id="SVGID_7_" points="219.1,214.2 219.1,7.7 1,7.7 1,214.2 1,214.2 						"/>
					</defs>
					<clipPath id="SVGID_8_">
						<use xlink:href="#SVGID_7_"  style="overflow:visible;"/>
					</clipPath>
					<path class="st9" d="M9,185.1c-0.5,0-1,0.2-1.4,0.6c-0.4,0.4-0.7,1.1-0.9,1.9c-0.2,0.8-0.3,1.5-0.3,2.1c0,0.5,0.1,0.9,0.3,1.2
						c0.2,0.3,0.6,0.4,1,0.4c0.5,0,0.9-0.2,1.3-0.7s0.7-1,0.9-1.8s0.3-1.5,0.3-2.1c0-0.5-0.1-0.9-0.3-1.2S9.5,185.1,9,185.1L9,185.1
						z M9.2,184.5c0.8,0,1.4,0.2,1.8,0.7c0.4,0.4,0.6,1.1,0.6,1.9c0,0.6-0.1,1.2-0.3,1.8c-0.2,0.7-0.5,1.2-0.8,1.7
						c-0.4,0.4-0.8,0.8-1.3,1c-0.5,0.2-1,0.3-1.7,0.3c-0.8,0-1.4-0.2-1.8-0.6c-0.4-0.4-0.6-1.1-0.6-1.9c0-0.4,0.1-0.9,0.2-1.4
						c0.2-0.7,0.4-1.3,0.8-1.8c0.4-0.5,0.8-0.9,1.3-1.2S8.5,184.5,9.2,184.5L9.2,184.5z"/>
					<g class="st10">
						<defs>
							<polyline id="SVGID_9_" points="219.1,214.2 219.1,7.7 1,7.7 1,214.2 1,214.2 							"/>
						</defs>
						<clipPath id="SVGID_10_">
							<use xlink:href="#SVGID_9_"  style="overflow:visible;"/>
						</clipPath>
						<g class="st11">
							<defs>
								<polyline id="SVGID_11_" points="219.1,214.2 219.1,7.7 1,7.7 1,214.2 1,214.2 								"/>
							</defs>
							<clipPath id="SVGID_12_">
								<use xlink:href="#SVGID_11_"  style="overflow:visible;"/>
							</clipPath>
							<g class="st12">
								<defs>
									<polyline id="SVGID_13_" points="219.1,214.2 219.1,7.7 1,7.7 1,214.2 1,214.2 									"/>
								</defs>
								<clipPath id="SVGID_14_">
									<use xlink:href="#SVGID_13_"  style="overflow:visible;"/>
								</clipPath>
								<g class="st13">
									<defs>
										<polyline id="SVGID_15_" points="219.1,214.2 219.1,7.7 1,7.7 1,214.2 1,214.2 										"/>
									</defs>
									<clipPath id="SVGID_16_">
										<use xlink:href="#SVGID_15_"  style="overflow:visible;"/>
									</clipPath>
									<g class="st14">
										<defs>
											<polyline id="SVGID_17_" points="219.1,214.2 219.1,7.7 1,7.7 1,214.2 1,214.2 											"/>
										</defs>
										<clipPath id="SVGID_18_">
											<use xlink:href="#SVGID_17_"  style="overflow:visible;"/>
										</clipPath>
										<g class="st15">
											<defs>
												<polyline id="SVGID_19_" points="219.1,214.2 219.1,7.7 1,7.7 1,214.2 1,214.2 												"/>
											</defs>
											<clipPath id="SVGID_20_">
												<use xlink:href="#SVGID_19_"  style="overflow:visible;"/>
											</clipPath>
											<g class="st16">
												<defs>
													<polyline id="SVGID_21_" points="219.1,214.2 219.1,7.7 1,7.7 1,214.2 1,214.2 													"/>
												</defs>
												<clipPath id="SVGID_22_">
													<use xlink:href="#SVGID_21_"  style="overflow:visible;"/>
												</clipPath>
												<g class="st17">
													<defs>
														<polyline id="SVGID_23_" points="219.1,214.2 219.1,7.7 1,7.7 1,214.2 1,214.2 														"/>
													</defs>
													<clipPath id="SVGID_24_">
														<use xlink:href="#SVGID_23_"  style="overflow:visible;"/>
													</clipPath>
													<g class="st18">
														<defs>
															<polyline id="SVGID_25_" points="219.1,214.2 219.1,7.7 1,7.7 1,214.2 1,214.2 															"/>
														</defs>
														<clipPath id="SVGID_26_">
															<use xlink:href="#SVGID_25_"  style="overflow:visible;"/>
														</clipPath>
														<g class="st19">
															<defs>
																<polyline id="SVGID_27_" points="219.1,214.2 219.1,7.7 1,7.7 1,214.2 1,214.2 																"/>
															</defs>
															<clipPath id="SVGID_28_">
																<use xlink:href="#SVGID_27_"  style="overflow:visible;"/>
															</clipPath>
															<g class="st20">
																<defs>
																	<polyline id="SVGID_29_" points="219.1,214.2 219.1,7.7 1,7.7 1,214.2 1,214.2 																	"/>
																</defs>
																<clipPath id="SVGID_30_">
																	<use xlink:href="#SVGID_29_"  style="overflow:visible;"/>
																</clipPath>
																<g class="st21">
																	<defs>
																		<polyline id="SVGID_31_" points="219.1,214.2 219.1,7.7 1,7.7 1,214.2 1,214.2 																		"/>
																	</defs>
																	<clipPath id="SVGID_32_">
																		<use xlink:href="#SVGID_31_"  style="overflow:visible;"/>
																	</clipPath>
																	<g class="st22">
																		<defs>
																			<polyline id="SVGID_33_" points="219.1,214.2 219.1,7.7 1,7.7 1,214.2 1,214.2 																			"/>
																		</defs>
																		<clipPath id="SVGID_34_">
																			<use xlink:href="#SVGID_33_"  style="overflow:visible;"/>
																		</clipPath>
																		<g class="st23">
																			<defs>
																				<polyline id="SVGID_35_" points="219.1,214.2 219.1,7.7 1,7.7 1,214.2 1,214.2 																				"/>
																			</defs>
																			<clipPath id="SVGID_36_">
																				<use xlink:href="#SVGID_35_"  style="overflow:visible;"/>
																			</clipPath>
																			<path class="st24" d="M39.6,91.8C57.2,83.9,74.8,76,91.1,75.5c16.3-0.5,31.7,10.9,46.2,13.2
																				c14.5,2.3,41,0.6,41,0.6l0,0"/>
																		</g>
																	</g>
																</g>
															</g>
														</g>
													</g>
												</g>
											</g>
										</g>
									</g>
								</g>
							</g>
						</g>
					</g>
				</g>
			</g>
		</g>
	</g>
</g>
<g>
	<path class="st1" d="M95.3,194.5h1.4c0,0.1-0.1,0.3-0.2,0.4c-0.1,0.1-0.1,0.3-0.2,0.4c0.1,0,0.2,0,0.3,0c0.1,0,0.3,0,0.4,0
		c-0.1,0.2-0.3,0.5-0.5,0.8c-0.2,0.3-0.3,0.5-0.3,0.7c0,0.3,0.1,0.5,0.2,0.7c0.2,0.2,0.4,0.3,0.6,0.3c0.1,0,0.2,0,0.3-0.1l0,0.2
		c-0.2,0.1-0.4,0.2-0.6,0.2c-0.3,0-0.5-0.1-0.7-0.3s-0.3-0.4-0.3-0.7c0-0.1,0-0.3,0.1-0.4c0.1-0.1,0.2-0.3,0.4-0.6
		c0.3-0.3,0.4-0.5,0.5-0.6h-0.2c-0.1,0-0.2,0-0.4,0c-0.2,0-0.3,0-0.3,0.1c0.2-0.4,0.4-0.7,0.5-0.9h-1.1V194.5L95.3,194.5z
		 M100.9,194.1c-0.1,0-0.3,0-0.3,0.1c-0.1,0.1-0.1,0.2-0.2,0.3h0.1c0.3,0,0.6,0,0.8,0.1c0-0.1,0.1-0.2,0.1-0.2c0-0.1,0-0.2-0.1-0.2
		C101.2,194.1,101.1,194.1,100.9,194.1L100.9,194.1z M106,194c-0.2,0-0.3,0-0.4,0.1c-0.1,0.1-0.2,0.2-0.2,0.3c0.6,0,0.9,0,1,0
		c0,0,0-0.1,0-0.1c0-0.1,0-0.2-0.1-0.2S106.1,194,106,194L106,194z M93.4,193.7c-0.4,0-0.7,0.1-1,0.4c-0.3,0.3-0.5,0.6-0.5,1
		c0,0.3,0.1,0.6,0.3,0.8c0.2,0.2,0.5,0.3,0.8,0.3c0.4,0,0.7-0.1,1.1-0.4s0.5-0.6,0.5-1c0-0.3-0.1-0.6-0.4-0.8
		C94.1,193.8,93.8,193.7,93.4,193.7L93.4,193.7z M106.1,193.5c0.2,0,0.3,0.1,0.5,0.2c0.1,0.1,0.2,0.2,0.2,0.4c0,0.2,0,0.4-0.1,0.6
		c0.2,0.1,0.3,0.2,0.4,0.4c0.1,0.2,0.1,0.4,0.1,0.5c0,0.4-0.1,0.7-0.3,1c-0.2,0.3-0.5,0.4-0.9,0.4c-0.2,0-0.4,0-0.5-0.1
		c-0.2-0.1-0.3-0.2-0.4-0.4c-0.1,0.2-0.3,0.3-0.4,0.4c-0.2,0.1-0.3,0.1-0.5,0.1c-0.3,0-0.6-0.1-0.9-0.4c-0.2-0.3-0.3-0.6-0.3-1.1
		c0-0.5,0.1-0.8,0.4-1.1s0.7-0.5,1.1-0.5v0.3c-0.3,0-0.6,0.1-0.9,0.3s-0.4,0.5-0.4,0.9c0,0.3,0.1,0.5,0.2,0.7s0.4,0.3,0.7,0.3
		c0.3,0,0.5-0.1,0.6-0.3c0.1-0.2,0.2-0.4,0.2-0.8h0.3c0,0.3,0.1,0.6,0.2,0.8c0.1,0.2,0.3,0.3,0.6,0.3c0.3,0,0.5-0.1,0.7-0.2
		c0.2-0.2,0.2-0.4,0.2-0.6c0-0.2-0.1-0.4-0.2-0.5c-0.1-0.1-0.4-0.2-0.7-0.2h-0.8c0-0.4,0.1-0.7,0.3-0.9
		C105.6,193.6,105.8,193.5,106.1,193.5L106.1,193.5z M99,193.5c0.3,0,0.5,0.1,0.6,0.3c0.2,0.2,0.2,0.5,0.2,0.9c-0.6,0-1,0.1-1.2,0.2
		c-0.2,0.2-0.3,0.3-0.3,0.5c0,0.3,0.1,0.5,0.4,0.7c0.3,0.1,0.7,0.2,1.2,0.2c0.6,0,1-0.1,1.3-0.2c0.3-0.1,0.4-0.3,0.4-0.6
		c0-0.2-0.1-0.4-0.3-0.6c-0.2-0.1-0.5-0.2-0.8-0.2h-0.3c0-0.4,0.1-0.6,0.3-0.9s0.4-0.3,0.6-0.3c0.2,0,0.3,0.1,0.5,0.2
		c0.1,0.1,0.2,0.3,0.2,0.5c0,0.2-0.1,0.4-0.2,0.6c0.1,0.1,0.3,0.2,0.3,0.4s0.1,0.3,0.1,0.5c0,0.4-0.2,0.7-0.5,1
		c-0.3,0.2-0.8,0.4-1.5,0.4c-0.6,0-1.1-0.1-1.4-0.4c-0.3-0.2-0.5-0.6-0.5-1c0-0.3,0.1-0.6,0.4-0.8c0.3-0.2,0.6-0.3,1.1-0.3h0.1
		c0-0.2-0.1-0.3-0.1-0.4c-0.1-0.1-0.1-0.2-0.2-0.2c-0.1,0-0.1,0-0.2,0.1s-0.1,0.1-0.2,0.2c-0.1,0.1-0.1,0.2-0.2,0.2
		c-0.1,0-0.1,0.1-0.2,0.1c-0.1,0-0.2,0-0.2-0.1c-0.1-0.1-0.1-0.1-0.1-0.2c0-0.2,0.1-0.3,0.2-0.4C98.6,193.5,98.8,193.5,99,193.5
		L99,193.5z M95.2,192.1c0.1,0,0.1,0,0.2,0.1c0,0,0,0.1,0,0.1c0,0.1-0.2,0.3-0.5,0.6c-0.4,0.2-0.8,0.5-1.3,0.7
		c0.5,0,0.9,0.2,1.2,0.5c0.3,0.3,0.4,0.7,0.4,1.1c0,0.5-0.2,1-0.6,1.3c-0.4,0.3-0.8,0.5-1.3,0.5c-0.5,0-0.9-0.2-1.2-0.5
		c-0.3-0.3-0.4-0.7-0.4-1.1c0-0.4,0.1-0.7,0.3-1c0.2-0.3,0.7-0.6,1.4-0.9c0.5-0.2,0.9-0.4,1.1-0.6c0.3-0.2,0.4-0.4,0.6-0.5
		C95.1,192.1,95.2,192.1,95.2,192.1L95.2,192.1z"/>
	<path class="st1" d="M112.3,191.4l0.1,0.3c-0.6,0.2-1,0.6-1.3,1.2s-0.4,1.3-0.4,2.2c0,0.9,0.1,1.6,0.4,2.2c0.3,0.6,0.7,1,1.3,1.2
		l-0.1,0.3c-0.7-0.2-1.3-0.6-1.7-1.3c-0.4-0.6-0.6-1.4-0.6-2.4c0-0.9,0.2-1.7,0.6-2.4C111,192,111.6,191.6,112.3,191.4L112.3,191.4z
		"/>
	<path class="st1" d="M114.7,191.9c-0.2,0-0.3,0.1-0.4,0.2s-0.2,0.3-0.3,0.5s-0.1,0.4-0.2,0.7c0,0.3,0,0.6,0,1
		c0,0.8,0.1,1.4,0.2,1.8s0.4,0.6,0.7,0.6c0.3,0,0.5-0.2,0.7-0.5c0.1-0.4,0.2-0.9,0.2-1.7c0-0.6,0-1.1-0.1-1.4
		c-0.1-0.4-0.2-0.6-0.3-0.8C115.1,192,114.9,191.9,114.7,191.9L114.7,191.9z M119.4,191.6h0.2c0,0.2,0,0.6,0,1v3.3
		c0,0.1,0,0.3,0,0.3c0,0.1,0,0.1,0.1,0.2c0,0,0.1,0.1,0.2,0.1s0.2,0,0.3,0.1c0.1,0,0.3,0,0.5,0v0.3h-2.8v-0.3c0.3,0,0.5,0,0.6-0.1
		c0.1,0,0.2-0.1,0.3-0.1s0.1-0.1,0.1-0.2c0-0.1,0-0.2,0-0.4v-3.1c0-0.1,0-0.2-0.1-0.2c0,0-0.1-0.1-0.2-0.1c-0.1,0-0.2,0-0.3,0.1
		s-0.3,0.2-0.6,0.3l-0.2-0.3L119.4,191.6L119.4,191.6z M114.7,191.6c0.6,0,1,0.2,1.2,0.6c0.3,0.4,0.4,1.1,0.4,2
		c0,0.9-0.1,1.6-0.4,2.1s-0.7,0.7-1.3,0.7c-0.6,0-1-0.2-1.2-0.7c-0.3-0.4-0.4-1.1-0.4-2c0-0.5,0-0.9,0.1-1.2s0.2-0.6,0.3-0.8
		c0.1-0.2,0.3-0.4,0.5-0.5C114.3,191.7,114.5,191.6,114.7,191.6L114.7,191.6z"/>
	<path class="st1" d="M121.5,191.4c0.7,0.2,1.3,0.6,1.7,1.3c0.4,0.7,0.6,1.4,0.6,2.4c0,0.9-0.2,1.7-0.6,2.4c-0.4,0.6-1,1.1-1.7,1.3
		l-0.1-0.3c0.6-0.2,1-0.6,1.3-1.2c0.3-0.6,0.4-1.3,0.4-2.2c0-0.9-0.1-1.6-0.4-2.2c-0.3-0.6-0.7-1-1.3-1.2L121.5,191.4z"/>
</g>
<g>
	<path class="st25" d="M154.8,72c0.1,0,0.2,0,0.2,0c0,0,0.1,0,0.1,0.1c0,0,0.1,0.1,0.1,0.2c0,0.1,0.1,0.2,0.1,0.3
		c0,0.1,0.1,0.2,0.1,0.4c0.1,0.3,0.1,0.6,0.2,0.9c0.1,0.3,0.1,0.6,0.1,0.9c0.2-0.3,0.4-0.6,0.6-0.9s0.3-0.6,0.3-0.8
		c0.1-0.2,0.1-0.4,0.1-0.6c0-0.1,0-0.2-0.1-0.2s-0.1-0.1-0.2-0.1l0-0.2h0.9l0.1,0.2c-0.2,0.5-0.4,1-0.7,1.5c-0.3,0.5-0.6,1.1-1,1.6
		c-0.4,0.5-0.7,0.9-0.9,1.1c-0.2,0.2-0.3,0.3-0.5,0.3c-0.1,0.1-0.3,0.1-0.4,0.1c0,0-0.1,0-0.2,0s-0.1,0-0.1,0l0.1-0.7h0.3
		c0,0.1,0.1,0.2,0.2,0.2c0.1,0,0.3-0.1,0.5-0.2c0.2-0.2,0.4-0.4,0.6-0.8c-0.1-0.4-0.2-0.9-0.3-1.5c-0.1-0.6-0.2-1-0.2-1.1
		c0-0.2-0.1-0.3-0.2-0.3c0,0-0.1,0-0.1,0c-0.1,0-0.1,0-0.2,0.1c-0.1,0.1-0.1,0.2-0.2,0.3l-0.2-0.1c0.2-0.2,0.3-0.4,0.4-0.5
		C154.5,72,154.6,72,154.8,72L154.8,72z"/>
	<path class="st25" d="M160.2,73.8h4.2v0.5h-4.2V73.8L160.2,73.8z M160.2,72.4h4.2v0.5h-4.2V72.4L160.2,72.4z"/>
	<path class="st25" d="M170.2,70.4c0.2,0,0.4,0,0.6,0.1l-0.1,0.6h-0.3c0-0.1-0.1-0.2-0.1-0.3c-0.1-0.1-0.1-0.1-0.2-0.1
		c-0.1,0-0.2,0-0.3,0.1c-0.1,0.1-0.2,0.2-0.2,0.3c-0.1,0.1-0.1,0.3-0.2,0.6l-0.1,0.4h0.9l-0.1,0.3h-0.9l-0.6,3
		c-0.1,0.5-0.3,0.9-0.5,1.1s-0.5,0.4-0.8,0.4c-0.1,0-0.2,0-0.2,0l0.1-0.3c0,0,0.1,0,0.2,0c0.1,0,0.2,0,0.3-0.1
		c0.1-0.1,0.1-0.1,0.2-0.3s0.1-0.3,0.2-0.5l0.7-3.3h-0.6l0.1-0.2c0.2,0,0.3,0,0.3,0c0.1,0,0.1,0,0.2-0.1c0,0,0.1-0.1,0.1-0.1
		s0.1-0.1,0.1-0.3c0.1-0.4,0.3-0.7,0.6-0.9C169.5,70.5,169.8,70.4,170.2,70.4L170.2,70.4z"/>
	<path class="st25" d="M178.2,70.1c0.7,0.2,1.2,0.6,1.5,1.1c0.4,0.6,0.5,1.3,0.5,2.1c0,0.8-0.2,1.5-0.5,2.1s-0.9,1-1.5,1.1l-0.1-0.3
		c0.5-0.2,0.9-0.5,1.2-1c0.3-0.5,0.4-1.2,0.4-2c0-0.8-0.1-1.4-0.4-1.9c-0.3-0.5-0.7-0.9-1.2-1L178.2,70.1z M173.7,70.1l0.1,0.3
		c-0.5,0.2-0.9,0.5-1.2,1c-0.3,0.5-0.4,1.2-0.4,1.9c0,0.8,0.1,1.5,0.4,2c0.3,0.5,0.7,0.9,1.2,1l-0.1,0.3c-0.7-0.2-1.2-0.6-1.5-1.1
		s-0.5-1.3-0.5-2.1c0-0.8,0.2-1.5,0.5-2.1C172.5,70.6,173.1,70.3,173.7,70.1L173.7,70.1z"/>
	<path class="st25" d="M175.3,72c0.1,0,0.1,0,0.2,0c0.1,0,0.1,0,0.1,0.1c0,0,0.1,0.1,0.1,0.1s0.1,0.1,0.1,0.2s0.1,0.2,0.1,0.3
		s0,0.3,0.1,0.4h0c0.2-0.3,0.4-0.5,0.5-0.7c0.1-0.1,0.2-0.2,0.3-0.3c0.1-0.1,0.2-0.1,0.2-0.1c0.1,0,0.2,0,0.3,0c0.1,0,0.2,0,0.3,0
		l-0.1,0.6h-0.2c0-0.1-0.1-0.1-0.1-0.1c0,0,0,0-0.1,0c0,0-0.1,0-0.1,0s-0.1,0.1-0.1,0.1c-0.1,0.1-0.1,0.1-0.2,0.2
		c-0.1,0.1-0.2,0.2-0.2,0.3l-0.2,0.3c0,0.2,0.1,0.4,0.1,0.6c0,0.2,0.1,0.3,0.1,0.4s0.1,0.2,0.1,0.3c0,0.1,0,0.1,0.1,0.1
		c0,0,0.1,0.1,0.1,0.1c0,0,0.1,0,0.1,0c0.1,0,0.1,0,0.2-0.1c0.1,0,0.1-0.2,0.3-0.3l0.2,0.1c-0.2,0.2-0.3,0.4-0.4,0.5
		c-0.1,0.1-0.3,0.1-0.5,0.1c-0.1,0-0.2,0-0.3-0.1c-0.1,0-0.1-0.1-0.2-0.2c-0.1-0.1-0.1-0.2-0.1-0.4c-0.1-0.3-0.1-0.5-0.1-0.7h0
		c-0.2,0.3-0.4,0.6-0.5,0.7c-0.1,0.1-0.2,0.3-0.3,0.3c-0.1,0.1-0.2,0.1-0.2,0.1c-0.1,0-0.2,0-0.3,0c-0.1,0-0.2,0-0.3,0l0.1-0.6h0.2
		c0,0.1,0.1,0.1,0.1,0.1c0,0,0.1,0,0.1,0c0,0,0.1-0.1,0.2-0.1c0.1-0.1,0.2-0.2,0.3-0.3c0.1-0.1,0.3-0.3,0.5-0.6
		c0-0.2-0.1-0.4-0.1-0.5c0-0.2-0.1-0.3-0.1-0.5c0-0.1-0.1-0.2-0.1-0.3s-0.1-0.1-0.1-0.1s-0.1,0-0.1,0c0,0-0.1,0-0.1,0
		c0,0-0.1,0.1-0.1,0.1s-0.1,0.1-0.2,0.3l-0.2-0.1c0.1-0.2,0.3-0.4,0.4-0.5C175,72,175.1,72,175.3,72L175.3,72z"/>
	<path class="st25" d="M164.1,82.6c-0.3,0-0.5,0.1-0.7,0.3c-0.2,0.2-0.2,0.3-0.2,0.5c0,0.1,0.1,0.1,0.4,0.1c0.2,0,0.3,0,0.3,0
		s0.1-0.1,0.1-0.2c0-0.1,0.1-0.2,0.1-0.4V82.6z M166.9,81.7c-0.3,0-0.6,0.1-0.8,0.2c-0.1,0.1-0.2,0.3-0.3,0.6s-0.2,0.5-0.2,0.7
		c0.1,0,0.2-0.1,0.3-0.1c0.1,0,0.2,0,0.3,0c0.2,0,0.3,0,0.4,0c0.4,0,0.8-0.1,1-0.2c0.2-0.1,0.3-0.3,0.3-0.5c0-0.2-0.1-0.4-0.3-0.5
		C167.4,81.8,167.2,81.7,166.9,81.7L166.9,81.7z M173,81.2c-0.2,0-0.3,0-0.4,0.1c-0.1,0.1-0.1,0.2-0.2,0.3c0.5,0,0.8,0,0.9,0
		c0,0,0-0.1,0-0.1c0-0.1,0-0.1-0.1-0.2C173.2,81.2,173.1,81.2,173,81.2L173,81.2z M173.1,80.6c0.2,0,0.3,0,0.4,0.1
		c0.1,0.1,0.2,0.2,0.2,0.4c0,0.2,0,0.3-0.1,0.5c0.1,0.1,0.3,0.2,0.3,0.4c0.1,0.2,0.1,0.3,0.1,0.5c0,0.3-0.1,0.6-0.3,0.9
		c-0.2,0.2-0.5,0.4-0.8,0.4c-0.2,0-0.3,0-0.5-0.1c-0.1-0.1-0.3-0.2-0.3-0.4c-0.1,0.2-0.2,0.3-0.4,0.4s-0.3,0.1-0.5,0.1
		c-0.3,0-0.6-0.1-0.8-0.4c-0.2-0.2-0.3-0.6-0.3-1c0-0.4,0.1-0.7,0.4-1c0.3-0.3,0.6-0.4,1-0.4v0.2c-0.3,0-0.6,0.1-0.8,0.3
		c-0.2,0.2-0.3,0.5-0.3,0.8c0,0.2,0.1,0.4,0.2,0.6c0.1,0.2,0.4,0.2,0.6,0.2c0.2,0,0.4-0.1,0.5-0.2c0.1-0.2,0.2-0.4,0.2-0.7h0.2
		c0,0.3,0.1,0.5,0.2,0.7c0.1,0.2,0.3,0.2,0.5,0.2c0.3,0,0.5-0.1,0.6-0.2c0.1-0.1,0.2-0.3,0.2-0.5c0-0.2-0.1-0.4-0.2-0.5
		c-0.1-0.1-0.3-0.2-0.6-0.2h-0.7c0-0.4,0.1-0.6,0.2-0.8C172.6,80.7,172.8,80.6,173.1,80.6L173.1,80.6z M165.8,80.6
		c0.3,0,0.6,0.2,0.7,0.5c0.2-0.2,0.4-0.3,0.7-0.4c0.2-0.1,0.4-0.1,0.6-0.1c0.4,0,0.8,0.2,1.1,0.5s0.5,0.7,0.5,1.3
		c0,0.4-0.1,0.7-0.2,0.9c-0.2,0.3-0.4,0.4-0.6,0.4c-0.1,0-0.3-0.1-0.5-0.2l0.1-0.2c0.1,0.1,0.2,0.2,0.3,0.2c0.1,0,0.3-0.1,0.4-0.2
		c0.1-0.1,0.1-0.3,0.1-0.6c0-0.4-0.1-0.8-0.4-1.1c-0.3-0.3-0.6-0.5-1-0.5c-0.2,0-0.4,0-0.6,0.1c-0.2,0.1-0.4,0.2-0.6,0.4
		c0.2-0.1,0.4-0.1,0.5-0.1c0.4,0,0.7,0.1,0.9,0.3c0.2,0.2,0.3,0.5,0.3,0.8c0,0.3-0.1,0.6-0.4,0.8c-0.3,0.2-0.6,0.3-1,0.3
		c-0.3,0-0.6-0.1-0.8-0.2c-0.1-0.1-0.2-0.1-0.3-0.1c-0.1,0-0.2,0.1-0.3,0.3l-0.2-0.1c0.1-0.5,0.3-0.9,0.5-1.3
		c0.2-0.4,0.4-0.7,0.6-0.9c0-0.1,0-0.2-0.1-0.3c-0.1-0.1-0.1-0.1-0.2-0.1c-0.1,0-0.1,0-0.1,0.1s-0.1,0.1-0.1,0.2
		c0,0.2-0.1,0.3-0.1,0.3s-0.1,0.1-0.2,0.1c-0.1,0-0.2,0-0.2-0.1c-0.1-0.1-0.1-0.1-0.1-0.2c0-0.1,0.1-0.3,0.2-0.5
		S165.6,80.6,165.8,80.6L165.8,80.6z M163,79.5c-0.4,0-0.7,0-0.9,0.1c-0.2,0.1-0.3,0.2-0.3,0.4c0,0.2,0.1,0.3,0.3,0.5
		c0.2,0.1,0.4,0.2,0.7,0.2c0.1-0.1,0.3-0.1,0.5-0.1c0.1,0,0.1,0,0.2,0c0.2-0.1,0.4-0.1,0.5-0.2c0.1-0.1,0.2-0.2,0.2-0.4
		c0-0.2-0.1-0.3-0.3-0.4S163.4,79.5,163,79.5L163,79.5z M163,79c0.5,0,0.8,0.1,1.1,0.3c0.2,0.2,0.4,0.5,0.4,0.8c0,0.2,0,0.3-0.1,0.5
		s-0.2,0.2-0.4,0.3c0.2,0.1,0.3,0.3,0.4,0.5s0.1,0.4,0.1,0.7c0,0.9-0.1,1.6-0.4,2.1c-0.3,0.5-0.5,0.9-0.9,1
		c-0.3,0.2-0.6,0.3-0.9,0.3c-0.4,0-0.7-0.1-1-0.3s-0.5-0.5-0.8-0.9l0.2-0.1c0.2,0.2,0.4,0.4,0.6,0.6c0.2,0.1,0.5,0.2,0.9,0.2
		c0.3,0,0.6-0.1,1-0.3c0.3-0.2,0.6-0.5,0.7-0.9c-0.1,0-0.2,0-0.3,0c-0.3,0-0.4,0-0.5-0.1c-0.1-0.1-0.1-0.2-0.1-0.3
		c0-0.1,0-0.3,0.1-0.4c0.1-0.2,0.2-0.3,0.3-0.4c0.2-0.1,0.4-0.1,0.7-0.1c0-0.4-0.1-0.7-0.3-0.9c-0.2-0.2-0.4-0.3-0.7-0.3
		c-0.2,0-0.4,0.1-0.5,0.2s-0.3,0.4-0.4,0.7l0,0c0,0,0,0,0.1,0c0.2,0,0.3,0.1,0.4,0.2s0.1,0.3,0.1,0.5c0,0.2-0.1,0.5-0.3,0.7
		c-0.2,0.2-0.5,0.3-0.8,0.3c-0.3,0-0.6-0.1-0.8-0.4c-0.2-0.3-0.3-0.6-0.3-1c0-0.4,0.1-0.8,0.3-1c0.2-0.3,0.4-0.5,0.8-0.6l0.1,0.2
		c-0.2,0-0.4,0.2-0.6,0.4s-0.2,0.5-0.2,0.8c0,0.3,0.1,0.6,0.3,0.8s0.4,0.3,0.7,0.3c0.2,0,0.3,0,0.4-0.1c0.1-0.1,0.2-0.2,0.2-0.4
		c0-0.1,0-0.2-0.1-0.3c0-0.1-0.1-0.1-0.2-0.1c-0.1,0-0.2,0.1-0.3,0.2l-0.2-0.1c0.1-0.4,0.2-0.7,0.3-0.9c0.1-0.2,0.3-0.4,0.4-0.5
		c-0.3,0-0.6-0.1-0.7-0.3c-0.2-0.2-0.2-0.4-0.2-0.6c0-0.3,0.1-0.5,0.4-0.7C162.2,79.1,162.6,79,163,79L163,79z"/>
</g>
</svg>
